<svg width="580" height="262" viewBox="0 0 580 262" fill="none" xmlns="http://www.w3.org/2000/svg">
<rect y="137.492" width="107.917" height="12.3457" fill="#325949"/>
<path d="M5.17568 177.838V168.446L3.25568 168.926V167.742L5.76768 166.638H6.80768V177.838H5.17568ZM15.9282 178.03C15.1175 178.03 14.4028 177.886 13.7842 177.598C13.1655 177.299 12.6855 176.883 12.3442 176.35C12.0028 175.817 11.8322 175.193 11.8322 174.478H13.5122C13.5122 174.883 13.6082 175.257 13.8002 175.598C13.9922 175.929 14.2642 176.195 14.6162 176.398C14.9788 176.59 15.4162 176.686 15.9282 176.686C16.3868 176.686 16.7762 176.611 17.0962 176.462C17.4162 176.313 17.6615 176.11 17.8322 175.854C18.0135 175.587 18.1042 175.283 18.1042 174.942C18.1042 174.547 18.0135 174.222 17.8322 173.966C17.6508 173.71 17.4055 173.502 17.0962 173.342C16.7868 173.171 16.4348 173.022 16.0402 172.894C15.6455 172.766 15.2242 172.627 14.7762 172.478C13.9015 172.179 13.2455 171.806 12.8082 171.358C12.3815 170.899 12.1682 170.302 12.1682 169.566C12.1682 168.937 12.3122 168.393 12.6002 167.934C12.8988 167.465 13.3202 167.102 13.8642 166.846C14.4082 166.579 15.0482 166.446 15.7842 166.446C16.5095 166.446 17.1388 166.579 17.6722 166.846C18.2162 167.113 18.6428 167.481 18.9522 167.95C19.2615 168.419 19.4215 168.969 19.4322 169.598H17.7362C17.7362 169.31 17.6615 169.027 17.5122 168.75C17.3628 168.473 17.1388 168.249 16.8402 168.078C16.5415 167.897 16.1735 167.806 15.7362 167.806C15.3735 167.795 15.0482 167.854 14.7602 167.982C14.4722 168.11 14.2428 168.297 14.0722 168.542C13.9122 168.787 13.8322 169.081 13.8322 169.422C13.8322 169.763 13.9068 170.041 14.0562 170.254C14.2055 170.457 14.4188 170.633 14.6962 170.782C14.9735 170.931 15.2935 171.07 15.6562 171.198C16.0295 171.315 16.4402 171.449 16.8882 171.598C17.4322 171.779 17.9228 172.003 18.3602 172.27C18.7975 172.526 19.1388 172.862 19.3842 173.278C19.6402 173.683 19.7682 174.206 19.7682 174.846C19.7682 175.401 19.6242 175.918 19.3362 176.398C19.0482 176.878 18.6215 177.273 18.0562 177.582C17.4908 177.881 16.7815 178.03 15.9282 178.03ZM24.4228 177.838C23.9215 177.838 23.4788 177.758 23.0948 177.598C22.7215 177.438 22.4335 177.171 22.2308 176.798C22.0388 176.425 21.9428 175.918 21.9428 175.278V171.15H20.5508V169.806H21.9428L22.1348 167.79H23.5428V169.806H25.8148V171.15H23.5428V175.294C23.5428 175.753 23.6335 176.067 23.8148 176.238C24.0068 176.398 24.3375 176.478 24.8068 176.478H25.7348V177.838H24.4228ZM29.7716 178.03C29.1102 178.03 28.5609 177.918 28.1236 177.694C27.6862 177.47 27.3609 177.171 27.1476 176.798C26.9342 176.414 26.8276 176.003 26.8276 175.566C26.8276 175.033 26.9662 174.579 27.2436 174.206C27.5209 173.822 27.9156 173.529 28.4276 173.326C28.9396 173.123 29.5529 173.022 30.2676 173.022H32.3636C32.3636 172.553 32.2942 172.163 32.1556 171.854C32.0169 171.545 31.8089 171.315 31.5316 171.166C31.2649 171.006 30.9236 170.926 30.5076 170.926C30.0276 170.926 29.6169 171.043 29.2756 171.278C28.9342 171.502 28.7209 171.838 28.6356 172.286H27.0356C27.0996 171.721 27.2916 171.241 27.6116 170.846C27.9422 170.441 28.3636 170.131 28.8756 169.918C29.3876 169.694 29.9316 169.582 30.5076 169.582C31.2649 169.582 31.8996 169.715 32.4116 169.982C32.9236 170.249 33.3076 170.627 33.5636 171.118C33.8302 171.598 33.9636 172.174 33.9636 172.846V177.838H32.5716L32.4436 176.478C32.3262 176.691 32.1876 176.894 32.0276 177.086C31.8676 177.278 31.6756 177.443 31.4516 177.582C31.2382 177.721 30.9876 177.827 30.6996 177.902C30.4222 177.987 30.1129 178.03 29.7716 178.03ZM30.0756 176.734C30.4169 176.734 30.7262 176.665 31.0036 176.526C31.2809 176.387 31.5156 176.201 31.7076 175.966C31.9102 175.721 32.0596 175.449 32.1556 175.15C32.2622 174.841 32.3209 174.526 32.3316 174.206V174.158H30.4276C29.9689 174.158 29.5956 174.217 29.3076 174.334C29.0302 174.441 28.8276 174.59 28.6996 174.782C28.5716 174.974 28.5076 175.198 28.5076 175.454C28.5076 175.721 28.5662 175.95 28.6836 176.142C28.8116 176.323 28.9929 176.467 29.2276 176.574C29.4622 176.681 29.7449 176.734 30.0756 176.734ZM35.5258 177.838V169.806H36.9658L37.1098 171.326C37.2911 170.963 37.5205 170.659 37.7978 170.414C38.0858 170.158 38.4218 169.961 38.8058 169.822C39.2005 169.683 39.6431 169.614 40.1338 169.614V171.294H39.6058C39.2645 171.294 38.9445 171.337 38.6458 171.422C38.3471 171.507 38.0805 171.646 37.8458 171.838C37.6218 172.03 37.4458 172.291 37.3178 172.622C37.1898 172.953 37.1258 173.363 37.1258 173.854V177.838H35.5258ZM44.8493 173.806V172.462H51.3133V173.806H44.8493ZM58.0432 177.838V168.446L56.1232 168.926V167.742L58.6352 166.638H59.6752V177.838H58.0432ZM67.8997 180.158C67.3237 179.593 66.7903 178.921 66.2997 178.142C65.8197 177.374 65.4357 176.521 65.1477 175.582C64.8703 174.633 64.7317 173.609 64.7317 172.51C64.7317 171.411 64.8703 170.393 65.1477 169.454C65.4357 168.505 65.8197 167.641 66.2997 166.862C66.7903 166.083 67.3237 165.417 67.8997 164.862H69.5157V165.006C68.8757 165.667 68.3157 166.393 67.8357 167.182C67.3557 167.971 66.9823 168.814 66.7157 169.71C66.449 170.606 66.3157 171.539 66.3157 172.51C66.3157 173.481 66.449 174.414 66.7157 175.31C66.9823 176.206 67.3557 177.049 67.8357 177.838C68.3263 178.627 68.8863 179.353 69.5157 180.014V180.158H67.8997ZM72.0251 177.838V168.446L70.1051 168.926V167.742L72.6171 166.638H73.6571V177.838H72.0251ZM76.0758 177.918C75.7665 177.918 75.5105 177.822 75.3078 177.63C75.1158 177.427 75.0198 177.187 75.0198 176.91C75.0198 176.622 75.1158 176.382 75.3078 176.19C75.5105 175.987 75.7665 175.886 76.0758 175.886C76.3745 175.886 76.6198 175.987 76.8118 176.19C77.0145 176.382 77.1158 176.622 77.1158 176.91C77.1158 177.187 77.0145 177.427 76.8118 177.63C76.6198 177.822 76.3745 177.918 76.0758 177.918ZM81.6693 178.03C80.944 178.03 80.3253 177.891 79.8133 177.614C79.3013 177.326 78.896 176.947 78.5973 176.478C78.3093 175.998 78.1333 175.481 78.0693 174.926H79.5573C79.6533 175.481 79.888 175.913 80.2613 176.222C80.6346 176.521 81.1146 176.67 81.7013 176.67C82.2346 176.67 82.704 176.51 83.1093 176.19C83.5146 175.87 83.84 175.385 84.0853 174.734C84.3306 174.083 84.4693 173.257 84.5013 172.254C84.5013 172.222 84.5013 172.195 84.5013 172.174C84.5013 172.142 84.5013 172.11 84.5013 172.078C84.3413 172.398 84.1066 172.691 83.7973 172.958C83.4986 173.225 83.1466 173.438 82.7413 173.598C82.3466 173.747 81.904 173.822 81.4133 173.822C80.7946 173.822 80.2026 173.678 79.6373 173.39C79.0826 173.091 78.6346 172.67 78.2933 172.126C77.952 171.582 77.7813 170.947 77.7813 170.222C77.7813 169.571 77.936 168.958 78.2453 168.382C78.5653 167.806 79.0133 167.342 79.5893 166.99C80.176 166.627 80.864 166.446 81.6533 166.446C82.4746 166.446 83.1626 166.601 83.7173 166.91C84.2826 167.209 84.7306 167.619 85.0613 168.142C85.4026 168.654 85.648 169.23 85.7973 169.87C85.9573 170.499 86.0373 171.15 86.0373 171.822C86.0373 173.049 85.8666 174.131 85.5253 175.07C85.184 175.998 84.688 176.723 84.0373 177.246C83.3866 177.769 82.5973 178.03 81.6693 178.03ZM81.7653 172.462C82.224 172.462 82.6346 172.361 82.9973 172.158C83.36 171.945 83.648 171.662 83.8613 171.31C84.0746 170.958 84.1813 170.569 84.1813 170.142C84.1813 169.694 84.0746 169.299 83.8613 168.958C83.648 168.606 83.36 168.334 82.9973 168.142C82.6346 167.939 82.2186 167.838 81.7493 167.838C81.3013 167.838 80.896 167.939 80.5333 168.142C80.1706 168.345 79.8826 168.617 79.6693 168.958C79.4666 169.299 79.3653 169.699 79.3653 170.158C79.3653 170.617 79.4666 171.022 79.6693 171.374C79.8826 171.715 80.1706 171.982 80.5333 172.174C80.896 172.366 81.3066 172.462 81.7653 172.462ZM88.9151 177.838L95.3631 166.638H96.9471L90.4991 177.838H88.9151ZM96.2591 178.03C95.7684 178.03 95.3257 177.918 94.9311 177.694C94.5364 177.47 94.2217 177.155 93.9871 176.75C93.7524 176.334 93.6351 175.849 93.6351 175.294C93.6351 174.718 93.7524 174.227 93.9871 173.822C94.2217 173.417 94.5364 173.102 94.9311 172.878C95.3257 172.654 95.7684 172.542 96.2591 172.542C96.7604 172.542 97.2031 172.654 97.5871 172.878C97.9817 173.102 98.2911 173.417 98.5151 173.822C98.7497 174.227 98.8671 174.718 98.8671 175.294C98.8671 175.849 98.7497 176.334 98.5151 176.75C98.2911 177.155 97.9817 177.47 97.5871 177.694C97.1924 177.918 96.7497 178.03 96.2591 178.03ZM96.2431 176.846C96.4884 176.846 96.7071 176.787 96.8991 176.67C97.1017 176.553 97.2617 176.382 97.3791 176.158C97.5071 175.923 97.5711 175.63 97.5711 175.278C97.5711 174.926 97.5124 174.638 97.3951 174.414C97.2777 174.179 97.1177 174.003 96.9151 173.886C96.7231 173.769 96.5044 173.71 96.2591 173.71C96.0244 173.71 95.8057 173.769 95.6031 173.886C95.4004 174.003 95.2351 174.179 95.1071 174.414C94.9897 174.638 94.9311 174.926 94.9311 175.278C94.9311 175.63 94.9897 175.923 95.1071 176.158C95.2351 176.382 95.3951 176.553 95.5871 176.67C95.7897 176.787 96.0084 176.846 96.2431 176.846ZM89.7151 171.95C89.2137 171.95 88.7657 171.838 88.3711 171.614C87.9764 171.39 87.6617 171.075 87.4271 170.67C87.1924 170.254 87.0751 169.763 87.0751 169.198C87.0751 168.633 87.1924 168.147 87.4271 167.742C87.6617 167.337 87.9764 167.022 88.3711 166.798C88.7764 166.574 89.2244 166.462 89.7151 166.462C90.2164 166.462 90.6644 166.574 91.0591 166.798C91.4537 167.022 91.7631 167.337 91.9871 167.742C92.2217 168.147 92.3391 168.633 92.3391 169.198C92.3391 169.763 92.2217 170.254 91.9871 170.67C91.7631 171.075 91.4484 171.39 91.0431 171.614C90.6484 171.838 90.2057 171.95 89.7151 171.95ZM89.6991 170.766C89.9444 170.766 90.1631 170.707 90.3551 170.59C90.5577 170.473 90.7177 170.302 90.8351 170.078C90.9524 169.843 91.0111 169.55 91.0111 169.198C91.0111 168.846 90.9524 168.553 90.8351 168.318C90.7177 168.083 90.5577 167.907 90.3551 167.79C90.1631 167.673 89.9497 167.614 89.7151 167.614C89.4911 167.614 89.2724 167.673 89.0591 167.79C88.8564 167.907 88.6911 168.083 88.5631 168.318C88.4457 168.553 88.3871 168.846 88.3871 169.198C88.3871 169.539 88.4457 169.827 88.5631 170.062C88.6911 170.297 88.8564 170.473 89.0591 170.59C89.2617 170.707 89.4751 170.766 89.6991 170.766ZM101.24 180.158H99.6244V180.014C100.275 179.353 100.835 178.627 101.304 177.838C101.784 177.049 102.158 176.206 102.424 175.31C102.691 174.414 102.824 173.481 102.824 172.51C102.824 171.539 102.691 170.606 102.424 169.71C102.158 168.814 101.784 167.971 101.304 167.182C100.835 166.393 100.275 165.667 99.6244 165.006V164.862H101.24C101.838 165.417 102.371 166.083 102.84 166.862C103.32 167.641 103.704 168.505 103.992 169.454C104.28 170.393 104.424 171.411 104.424 172.51C104.424 173.609 104.28 174.633 103.992 175.582C103.704 176.521 103.32 177.374 102.84 178.142C102.371 178.921 101.838 179.593 101.24 180.158Z" fill="black"/>
<rect x="117.917" y="137.492" width="107.917" height="12.3457" fill="#325949"/>
<path d="M119.621 177.838V176.686C120.357 176.11 121.061 175.529 121.733 174.942C122.405 174.355 123.002 173.774 123.525 173.198C124.058 172.611 124.474 172.041 124.773 171.486C125.072 170.921 125.221 170.382 125.221 169.87C125.221 169.507 125.157 169.171 125.029 168.862C124.901 168.553 124.698 168.302 124.421 168.11C124.144 167.907 123.77 167.806 123.301 167.806C122.842 167.806 122.458 167.907 122.149 168.11C121.84 168.313 121.605 168.585 121.445 168.926C121.296 169.257 121.221 169.625 121.221 170.03H119.685C119.696 169.262 119.861 168.611 120.181 168.078C120.501 167.545 120.933 167.139 121.477 166.862C122.021 166.585 122.64 166.446 123.333 166.446C124.037 166.446 124.65 166.579 125.173 166.846C125.696 167.102 126.101 167.481 126.389 167.982C126.677 168.473 126.821 169.075 126.821 169.79C126.821 170.302 126.72 170.814 126.517 171.326C126.314 171.827 126.037 172.318 125.685 172.798C125.344 173.278 124.96 173.742 124.533 174.19C124.106 174.627 123.669 175.043 123.221 175.438C122.773 175.833 122.341 176.19 121.925 176.51H127.173V177.838H119.621ZM135.846 178.03C135.035 178.03 134.32 177.886 133.702 177.598C133.083 177.299 132.603 176.883 132.262 176.35C131.92 175.817 131.75 175.193 131.75 174.478H133.43C133.43 174.883 133.526 175.257 133.718 175.598C133.91 175.929 134.182 176.195 134.534 176.398C134.896 176.59 135.334 176.686 135.846 176.686C136.304 176.686 136.694 176.611 137.014 176.462C137.334 176.313 137.579 176.11 137.75 175.854C137.931 175.587 138.022 175.283 138.022 174.942C138.022 174.547 137.931 174.222 137.75 173.966C137.568 173.71 137.323 173.502 137.014 173.342C136.704 173.171 136.352 173.022 135.958 172.894C135.563 172.766 135.142 172.627 134.694 172.478C133.819 172.179 133.163 171.806 132.726 171.358C132.299 170.899 132.086 170.302 132.086 169.566C132.086 168.937 132.23 168.393 132.518 167.934C132.816 167.465 133.238 167.102 133.782 166.846C134.326 166.579 134.966 166.446 135.702 166.446C136.427 166.446 137.056 166.579 137.59 166.846C138.134 167.113 138.56 167.481 138.87 167.95C139.179 168.419 139.339 168.969 139.35 169.598H137.654C137.654 169.31 137.579 169.027 137.43 168.75C137.28 168.473 137.056 168.249 136.758 168.078C136.459 167.897 136.091 167.806 135.654 167.806C135.291 167.795 134.966 167.854 134.678 167.982C134.39 168.11 134.16 168.297 133.99 168.542C133.83 168.787 133.75 169.081 133.75 169.422C133.75 169.763 133.824 170.041 133.974 170.254C134.123 170.457 134.336 170.633 134.614 170.782C134.891 170.931 135.211 171.07 135.574 171.198C135.947 171.315 136.358 171.449 136.806 171.598C137.35 171.779 137.84 172.003 138.278 172.27C138.715 172.526 139.056 172.862 139.302 173.278C139.558 173.683 139.686 174.206 139.686 174.846C139.686 175.401 139.542 175.918 139.254 176.398C138.966 176.878 138.539 177.273 137.974 177.582C137.408 177.881 136.699 178.03 135.846 178.03ZM144.34 177.838C143.839 177.838 143.396 177.758 143.012 177.598C142.639 177.438 142.351 177.171 142.148 176.798C141.956 176.425 141.86 175.918 141.86 175.278V171.15H140.468V169.806H141.86L142.052 167.79H143.46V169.806H145.732V171.15H143.46V175.294C143.46 175.753 143.551 176.067 143.732 176.238C143.924 176.398 144.255 176.478 144.724 176.478H145.652V177.838H144.34ZM149.689 178.03C149.028 178.03 148.478 177.918 148.041 177.694C147.604 177.47 147.278 177.171 147.065 176.798C146.852 176.414 146.745 176.003 146.745 175.566C146.745 175.033 146.884 174.579 147.161 174.206C147.438 173.822 147.833 173.529 148.345 173.326C148.857 173.123 149.47 173.022 150.185 173.022H152.281C152.281 172.553 152.212 172.163 152.073 171.854C151.934 171.545 151.726 171.315 151.449 171.166C151.182 171.006 150.841 170.926 150.425 170.926C149.945 170.926 149.534 171.043 149.193 171.278C148.852 171.502 148.638 171.838 148.553 172.286H146.953C147.017 171.721 147.209 171.241 147.529 170.846C147.86 170.441 148.281 170.131 148.793 169.918C149.305 169.694 149.849 169.582 150.425 169.582C151.182 169.582 151.817 169.715 152.329 169.982C152.841 170.249 153.225 170.627 153.481 171.118C153.748 171.598 153.881 172.174 153.881 172.846V177.838H152.489L152.361 176.478C152.244 176.691 152.105 176.894 151.945 177.086C151.785 177.278 151.593 177.443 151.369 177.582C151.156 177.721 150.905 177.827 150.617 177.902C150.34 177.987 150.03 178.03 149.689 178.03ZM149.993 176.734C150.334 176.734 150.644 176.665 150.921 176.526C151.198 176.387 151.433 176.201 151.625 175.966C151.828 175.721 151.977 175.449 152.073 175.15C152.18 174.841 152.238 174.526 152.249 174.206V174.158H150.345C149.886 174.158 149.513 174.217 149.225 174.334C148.948 174.441 148.745 174.59 148.617 174.782C148.489 174.974 148.425 175.198 148.425 175.454C148.425 175.721 148.484 175.95 148.601 176.142C148.729 176.323 148.91 176.467 149.145 176.574C149.38 176.681 149.662 176.734 149.993 176.734ZM155.443 177.838V169.806H156.883L157.027 171.326C157.209 170.963 157.438 170.659 157.715 170.414C158.003 170.158 158.339 169.961 158.723 169.822C159.118 169.683 159.561 169.614 160.051 169.614V171.294H159.523C159.182 171.294 158.862 171.337 158.563 171.422C158.265 171.507 157.998 171.646 157.763 171.838C157.539 172.03 157.363 172.291 157.235 172.622C157.107 172.953 157.043 173.363 157.043 173.854V177.838H155.443ZM164.767 173.806V172.462H171.231V173.806H164.767ZM177.961 177.838V168.446L176.041 168.926V167.742L178.553 166.638H179.593V177.838H177.961ZM187.817 180.158C187.241 179.593 186.708 178.921 186.217 178.142C185.737 177.374 185.353 176.521 185.065 175.582C184.788 174.633 184.649 173.609 184.649 172.51C184.649 171.411 184.788 170.393 185.065 169.454C185.353 168.505 185.737 167.641 186.217 166.862C186.708 166.083 187.241 165.417 187.817 164.862H189.433V165.006C188.793 165.667 188.233 166.393 187.753 167.182C187.273 167.971 186.9 168.814 186.633 169.71C186.366 170.606 186.233 171.539 186.233 172.51C186.233 173.481 186.366 174.414 186.633 175.31C186.9 176.206 187.273 177.049 187.753 177.838C188.244 178.627 188.804 179.353 189.433 180.014V180.158H187.817ZM191.943 177.838V168.446L190.023 168.926V167.742L192.535 166.638H193.575V177.838H191.943ZM195.993 177.918C195.684 177.918 195.428 177.822 195.225 177.63C195.033 177.427 194.937 177.187 194.937 176.91C194.937 176.622 195.033 176.382 195.225 176.19C195.428 175.987 195.684 175.886 195.993 175.886C196.292 175.886 196.537 175.987 196.729 176.19C196.932 176.382 197.033 176.622 197.033 176.91C197.033 177.187 196.932 177.427 196.729 177.63C196.537 177.822 196.292 177.918 195.993 177.918ZM201.587 178.03C200.861 178.03 200.243 177.891 199.731 177.614C199.219 177.326 198.813 176.947 198.515 176.478C198.227 175.998 198.051 175.481 197.987 174.926H199.475C199.571 175.481 199.805 175.913 200.179 176.222C200.552 176.521 201.032 176.67 201.619 176.67C202.152 176.67 202.621 176.51 203.027 176.19C203.432 175.87 203.757 175.385 204.003 174.734C204.248 174.083 204.387 173.257 204.419 172.254C204.419 172.222 204.419 172.195 204.419 172.174C204.419 172.142 204.419 172.11 204.419 172.078C204.259 172.398 204.024 172.691 203.715 172.958C203.416 173.225 203.064 173.438 202.659 173.598C202.264 173.747 201.821 173.822 201.331 173.822C200.712 173.822 200.12 173.678 199.555 173.39C199 173.091 198.552 172.67 198.211 172.126C197.869 171.582 197.699 170.947 197.699 170.222C197.699 169.571 197.853 168.958 198.163 168.382C198.483 167.806 198.931 167.342 199.507 166.99C200.093 166.627 200.781 166.446 201.571 166.446C202.392 166.446 203.08 166.601 203.635 166.91C204.2 167.209 204.648 167.619 204.979 168.142C205.32 168.654 205.565 169.23 205.715 169.87C205.875 170.499 205.955 171.15 205.955 171.822C205.955 173.049 205.784 174.131 205.443 175.07C205.101 175.998 204.605 176.723 203.955 177.246C203.304 177.769 202.515 178.03 201.587 178.03ZM201.683 172.462C202.141 172.462 202.552 172.361 202.915 172.158C203.277 171.945 203.565 171.662 203.779 171.31C203.992 170.958 204.099 170.569 204.099 170.142C204.099 169.694 203.992 169.299 203.779 168.958C203.565 168.606 203.277 168.334 202.915 168.142C202.552 167.939 202.136 167.838 201.667 167.838C201.219 167.838 200.813 167.939 200.451 168.142C200.088 168.345 199.8 168.617 199.587 168.958C199.384 169.299 199.283 169.699 199.283 170.158C199.283 170.617 199.384 171.022 199.587 171.374C199.8 171.715 200.088 171.982 200.451 172.174C200.813 172.366 201.224 172.462 201.683 172.462ZM208.833 177.838L215.281 166.638H216.865L210.417 177.838H208.833ZM216.177 178.03C215.686 178.03 215.243 177.918 214.849 177.694C214.454 177.47 214.139 177.155 213.905 176.75C213.67 176.334 213.553 175.849 213.553 175.294C213.553 174.718 213.67 174.227 213.905 173.822C214.139 173.417 214.454 173.102 214.849 172.878C215.243 172.654 215.686 172.542 216.177 172.542C216.678 172.542 217.121 172.654 217.505 172.878C217.899 173.102 218.209 173.417 218.433 173.822C218.667 174.227 218.785 174.718 218.785 175.294C218.785 175.849 218.667 176.334 218.433 176.75C218.209 177.155 217.899 177.47 217.505 177.694C217.11 177.918 216.667 178.03 216.177 178.03ZM216.161 176.846C216.406 176.846 216.625 176.787 216.817 176.67C217.019 176.553 217.179 176.382 217.297 176.158C217.425 175.923 217.489 175.63 217.489 175.278C217.489 174.926 217.43 174.638 217.313 174.414C217.195 174.179 217.035 174.003 216.833 173.886C216.641 173.769 216.422 173.71 216.177 173.71C215.942 173.71 215.723 173.769 215.521 173.886C215.318 174.003 215.153 174.179 215.025 174.414C214.907 174.638 214.849 174.926 214.849 175.278C214.849 175.63 214.907 175.923 215.025 176.158C215.153 176.382 215.313 176.553 215.505 176.67C215.707 176.787 215.926 176.846 216.161 176.846ZM209.633 171.95C209.131 171.95 208.683 171.838 208.289 171.614C207.894 171.39 207.579 171.075 207.345 170.67C207.11 170.254 206.993 169.763 206.993 169.198C206.993 168.633 207.11 168.147 207.345 167.742C207.579 167.337 207.894 167.022 208.289 166.798C208.694 166.574 209.142 166.462 209.633 166.462C210.134 166.462 210.582 166.574 210.977 166.798C211.371 167.022 211.681 167.337 211.905 167.742C212.139 168.147 212.257 168.633 212.257 169.198C212.257 169.763 212.139 170.254 211.905 170.67C211.681 171.075 211.366 171.39 210.961 171.614C210.566 171.838 210.123 171.95 209.633 171.95ZM209.617 170.766C209.862 170.766 210.081 170.707 210.273 170.59C210.475 170.473 210.635 170.302 210.753 170.078C210.87 169.843 210.929 169.55 210.929 169.198C210.929 168.846 210.87 168.553 210.753 168.318C210.635 168.083 210.475 167.907 210.273 167.79C210.081 167.673 209.867 167.614 209.633 167.614C209.409 167.614 209.19 167.673 208.977 167.79C208.774 167.907 208.609 168.083 208.481 168.318C208.363 168.553 208.305 168.846 208.305 169.198C208.305 169.539 208.363 169.827 208.481 170.062C208.609 170.297 208.774 170.473 208.977 170.59C209.179 170.707 209.393 170.766 209.617 170.766ZM221.158 180.158H219.542V180.014C220.193 179.353 220.753 178.627 221.222 177.838C221.702 177.049 222.075 176.206 222.342 175.31C222.609 174.414 222.742 173.481 222.742 172.51C222.742 171.539 222.609 170.606 222.342 169.71C222.075 168.814 221.702 167.971 221.222 167.182C220.753 166.393 220.193 165.667 219.542 165.006V164.862H221.158C221.755 165.417 222.289 166.083 222.758 166.862C223.238 167.641 223.622 168.505 223.91 169.454C224.198 170.393 224.342 171.411 224.342 172.51C224.342 173.609 224.198 174.633 223.91 175.582C223.622 176.521 223.238 177.374 222.758 178.142C222.289 178.921 221.755 179.593 221.158 180.158Z" fill="black"/>
<rect x="235.835" y="13.4268" width="107.917" height="133.757" fill="#325949"/>
<path d="M256.333 175.376C255.619 175.376 254.963 175.248 254.365 174.992C253.779 174.725 253.309 174.33 252.957 173.808C252.616 173.274 252.435 172.608 252.413 171.808H254.013C254.024 172.213 254.12 172.581 254.301 172.912C254.483 173.242 254.744 173.509 255.085 173.712C255.437 173.904 255.853 174 256.333 174C256.813 174 257.213 173.909 257.533 173.728C257.864 173.546 258.109 173.301 258.269 172.992C258.44 172.682 258.525 172.336 258.525 171.952C258.525 171.472 258.408 171.082 258.173 170.784C257.949 170.485 257.64 170.261 257.245 170.112C256.861 169.952 256.429 169.872 255.949 169.872H255.117V168.544H255.949C256.611 168.544 257.139 168.389 257.533 168.08C257.939 167.77 258.141 167.333 258.141 166.768C258.141 166.298 257.987 165.914 257.677 165.616C257.368 165.317 256.92 165.168 256.333 165.168C255.736 165.168 255.261 165.338 254.909 165.68C254.568 166.021 254.376 166.453 254.333 166.976H252.749C252.781 166.346 252.947 165.792 253.245 165.312C253.555 164.821 253.971 164.448 254.493 164.192C255.016 163.925 255.629 163.792 256.333 163.792C257.08 163.792 257.704 163.925 258.205 164.192C258.707 164.448 259.085 164.794 259.341 165.232C259.608 165.669 259.741 166.149 259.741 166.672C259.741 167.066 259.667 167.434 259.517 167.776C259.368 168.106 259.155 168.394 258.877 168.64C258.611 168.885 258.28 169.061 257.885 169.168C258.312 169.242 258.691 169.408 259.021 169.664C259.363 169.909 259.629 170.229 259.821 170.624C260.024 171.008 260.125 171.456 260.125 171.968C260.125 172.576 259.981 173.141 259.693 173.664C259.405 174.176 258.979 174.592 258.413 174.912C257.859 175.221 257.165 175.376 256.333 175.376ZM269.063 175.376C268.252 175.376 267.538 175.232 266.919 174.944C266.3 174.645 265.82 174.229 265.479 173.696C265.138 173.162 264.967 172.538 264.967 171.824H266.647C266.647 172.229 266.743 172.602 266.935 172.944C267.127 173.274 267.399 173.541 267.751 173.744C268.114 173.936 268.551 174.032 269.063 174.032C269.522 174.032 269.911 173.957 270.231 173.808C270.551 173.658 270.796 173.456 270.967 173.2C271.148 172.933 271.239 172.629 271.239 172.288C271.239 171.893 271.148 171.568 270.967 171.312C270.786 171.056 270.54 170.848 270.231 170.688C269.922 170.517 269.57 170.368 269.175 170.24C268.78 170.112 268.359 169.973 267.911 169.824C267.036 169.525 266.38 169.152 265.943 168.704C265.516 168.245 265.303 167.648 265.303 166.912C265.303 166.282 265.447 165.738 265.735 165.28C266.034 164.81 266.455 164.448 266.999 164.192C267.543 163.925 268.183 163.792 268.919 163.792C269.644 163.792 270.274 163.925 270.807 164.192C271.351 164.458 271.778 164.826 272.087 165.296C272.396 165.765 272.556 166.314 272.567 166.944H270.871C270.871 166.656 270.796 166.373 270.647 166.096C270.498 165.818 270.274 165.594 269.975 165.424C269.676 165.242 269.308 165.152 268.871 165.152C268.508 165.141 268.183 165.2 267.895 165.328C267.607 165.456 267.378 165.642 267.207 165.888C267.047 166.133 266.967 166.426 266.967 166.768C266.967 167.109 267.042 167.386 267.191 167.6C267.34 167.802 267.554 167.978 267.831 168.128C268.108 168.277 268.428 168.416 268.791 168.544C269.164 168.661 269.575 168.794 270.023 168.944C270.567 169.125 271.058 169.349 271.495 169.616C271.932 169.872 272.274 170.208 272.519 170.624C272.775 171.029 272.903 171.552 272.903 172.192C272.903 172.746 272.759 173.264 272.471 173.744C272.183 174.224 271.756 174.618 271.191 174.928C270.626 175.226 269.916 175.376 269.063 175.376ZM277.558 175.184C277.056 175.184 276.614 175.104 276.23 174.944C275.856 174.784 275.568 174.517 275.366 174.144C275.174 173.77 275.078 173.264 275.078 172.624V168.496H273.686V167.152H275.078L275.27 165.136H276.678V167.152H278.95V168.496H276.678V172.64C276.678 173.098 276.768 173.413 276.95 173.584C277.142 173.744 277.472 173.824 277.942 173.824H278.87V175.184H277.558ZM282.907 175.376C282.245 175.376 281.696 175.264 281.259 175.04C280.821 174.816 280.496 174.517 280.283 174.144C280.069 173.76 279.963 173.349 279.963 172.912C279.963 172.378 280.101 171.925 280.379 171.552C280.656 171.168 281.051 170.874 281.563 170.672C282.075 170.469 282.688 170.368 283.403 170.368H285.499C285.499 169.898 285.429 169.509 285.291 169.2C285.152 168.89 284.944 168.661 284.667 168.512C284.4 168.352 284.059 168.272 283.643 168.272C283.163 168.272 282.752 168.389 282.411 168.624C282.069 168.848 281.856 169.184 281.771 169.632H280.171C280.235 169.066 280.427 168.586 280.747 168.192C281.077 167.786 281.499 167.477 282.011 167.264C282.523 167.04 283.067 166.928 283.643 166.928C284.4 166.928 285.035 167.061 285.547 167.328C286.059 167.594 286.443 167.973 286.699 168.464C286.965 168.944 287.099 169.52 287.099 170.192V175.184H285.707L285.579 173.824C285.461 174.037 285.323 174.24 285.163 174.432C285.003 174.624 284.811 174.789 284.587 174.928C284.373 175.066 284.123 175.173 283.835 175.248C283.557 175.333 283.248 175.376 282.907 175.376ZM283.211 174.08C283.552 174.08 283.861 174.01 284.139 173.872C284.416 173.733 284.651 173.546 284.843 173.312C285.045 173.066 285.195 172.794 285.291 172.496C285.397 172.186 285.456 171.872 285.467 171.552V171.504H283.563C283.104 171.504 282.731 171.562 282.443 171.68C282.165 171.786 281.963 171.936 281.835 172.128C281.707 172.32 281.643 172.544 281.643 172.8C281.643 173.066 281.701 173.296 281.819 173.488C281.947 173.669 282.128 173.813 282.363 173.92C282.597 174.026 282.88 174.08 283.211 174.08ZM288.661 175.184V167.152H290.101L290.245 168.672C290.426 168.309 290.655 168.005 290.933 167.76C291.221 167.504 291.557 167.306 291.941 167.168C292.335 167.029 292.778 166.96 293.269 166.96V168.64H292.741C292.399 168.64 292.079 168.682 291.781 168.768C291.482 168.853 291.215 168.992 290.981 169.184C290.757 169.376 290.581 169.637 290.453 169.968C290.325 170.298 290.261 170.709 290.261 171.2V175.184H288.661ZM297.984 171.152V169.808H304.448V171.152H297.984ZM309.706 175.184V174.032C310.442 173.456 311.146 172.874 311.818 172.288C312.49 171.701 313.087 171.12 313.61 170.544C314.143 169.957 314.559 169.386 314.858 168.832C315.157 168.266 315.306 167.728 315.306 167.216C315.306 166.853 315.242 166.517 315.114 166.208C314.986 165.898 314.783 165.648 314.506 165.456C314.229 165.253 313.855 165.152 313.386 165.152C312.927 165.152 312.543 165.253 312.234 165.456C311.925 165.658 311.69 165.93 311.53 166.272C311.381 166.602 311.306 166.97 311.306 167.376H309.77C309.781 166.608 309.946 165.957 310.266 165.424C310.586 164.89 311.018 164.485 311.562 164.208C312.106 163.93 312.725 163.792 313.418 163.792C314.122 163.792 314.735 163.925 315.258 164.192C315.781 164.448 316.186 164.826 316.474 165.328C316.762 165.818 316.906 166.421 316.906 167.136C316.906 167.648 316.805 168.16 316.602 168.672C316.399 169.173 316.122 169.664 315.77 170.144C315.429 170.624 315.045 171.088 314.618 171.536C314.191 171.973 313.754 172.389 313.306 172.784C312.858 173.178 312.426 173.536 312.01 173.856H317.258V175.184H309.706ZM322.928 175.376C321.925 175.376 321.067 175.136 320.352 174.656C319.637 174.165 319.088 173.488 318.704 172.624C318.32 171.749 318.128 170.736 318.128 169.584C318.128 168.432 318.32 167.424 318.704 166.56C319.088 165.685 319.637 165.008 320.352 164.528C321.067 164.037 321.925 163.792 322.928 163.792C323.92 163.792 324.768 164.037 325.472 164.528C326.187 165.008 326.736 165.685 327.12 166.56C327.504 167.424 327.696 168.432 327.696 169.584C327.696 170.736 327.504 171.749 327.12 172.624C326.736 173.488 326.187 174.165 325.472 174.656C324.768 175.136 323.92 175.376 322.928 175.376ZM322.912 173.952C323.531 173.952 324.075 173.776 324.544 173.424C325.013 173.072 325.381 172.57 325.648 171.92C325.925 171.269 326.064 170.49 326.064 169.584C326.064 168.677 325.925 167.898 325.648 167.248C325.381 166.597 325.013 166.101 324.544 165.76C324.075 165.408 323.531 165.232 322.912 165.232C322.304 165.232 321.76 165.408 321.28 165.76C320.811 166.101 320.437 166.597 320.16 167.248C319.893 167.898 319.76 168.677 319.76 169.584C319.76 170.49 319.893 171.269 320.16 171.92C320.437 172.57 320.811 173.072 321.28 173.424C321.76 173.776 322.304 173.952 322.912 173.952ZM273.088 201.504C272.512 200.938 271.978 200.266 271.488 199.488C271.008 198.72 270.624 197.866 270.336 196.928C270.058 195.978 269.92 194.954 269.92 193.856C269.92 192.757 270.058 191.738 270.336 190.8C270.624 189.85 271.008 188.986 271.488 188.208C271.978 187.429 272.512 186.762 273.088 186.208H274.704V186.352C274.064 187.013 273.504 187.738 273.024 188.528C272.544 189.317 272.17 190.16 271.904 191.056C271.637 191.952 271.504 192.885 271.504 193.856C271.504 194.826 271.637 195.76 271.904 196.656C272.17 197.552 272.544 198.394 273.024 199.184C273.514 199.973 274.074 200.698 274.704 201.36V201.504H273.088ZM279.517 199.376C278.802 199.376 278.146 199.248 277.549 198.992C276.962 198.725 276.493 198.33 276.141 197.808C275.8 197.274 275.618 196.608 275.597 195.808H277.197C277.208 196.213 277.304 196.581 277.485 196.912C277.666 197.242 277.928 197.509 278.269 197.712C278.621 197.904 279.037 198 279.517 198C279.997 198 280.397 197.909 280.717 197.728C281.048 197.546 281.293 197.301 281.453 196.992C281.624 196.682 281.709 196.336 281.709 195.952C281.709 195.472 281.592 195.082 281.357 194.784C281.133 194.485 280.824 194.261 280.429 194.112C280.045 193.952 279.613 193.872 279.133 193.872H278.301V192.544H279.133C279.794 192.544 280.322 192.389 280.717 192.08C281.122 191.77 281.325 191.333 281.325 190.768C281.325 190.298 281.17 189.914 280.861 189.616C280.552 189.317 280.104 189.168 279.517 189.168C278.92 189.168 278.445 189.338 278.093 189.68C277.752 190.021 277.56 190.453 277.517 190.976H275.933C275.965 190.346 276.13 189.792 276.429 189.312C276.738 188.821 277.154 188.448 277.677 188.192C278.2 187.925 278.813 187.792 279.517 187.792C280.264 187.792 280.888 187.925 281.389 188.192C281.89 188.448 282.269 188.794 282.525 189.232C282.792 189.669 282.925 190.149 282.925 190.672C282.925 191.066 282.85 191.434 282.701 191.776C282.552 192.106 282.338 192.394 282.061 192.64C281.794 192.885 281.464 193.061 281.069 193.168C281.496 193.242 281.874 193.408 282.205 193.664C282.546 193.909 282.813 194.229 283.005 194.624C283.208 195.008 283.309 195.456 283.309 195.968C283.309 196.576 283.165 197.141 282.877 197.664C282.589 198.176 282.162 198.592 281.597 198.912C281.042 199.221 280.349 199.376 279.517 199.376ZM285.646 199.184L289.95 189.36H284.03V187.984H291.598V189.152L287.326 199.184H285.646ZM294.177 199.184L300.625 187.984H302.209L295.761 199.184H294.177ZM301.521 199.376C301.03 199.376 300.588 199.264 300.193 199.04C299.798 198.816 299.484 198.501 299.249 198.096C299.014 197.68 298.897 197.194 298.897 196.64C298.897 196.064 299.014 195.573 299.249 195.168C299.484 194.762 299.798 194.448 300.193 194.224C300.588 194 301.03 193.888 301.521 193.888C302.022 193.888 302.465 194 302.849 194.224C303.244 194.448 303.553 194.762 303.777 195.168C304.012 195.573 304.129 196.064 304.129 196.64C304.129 197.194 304.012 197.68 303.777 198.096C303.553 198.501 303.244 198.816 302.849 199.04C302.454 199.264 302.012 199.376 301.521 199.376ZM301.505 198.192C301.75 198.192 301.969 198.133 302.161 198.016C302.364 197.898 302.524 197.728 302.641 197.504C302.769 197.269 302.833 196.976 302.833 196.624C302.833 196.272 302.774 195.984 302.657 195.76C302.54 195.525 302.38 195.349 302.177 195.232C301.985 195.114 301.766 195.056 301.521 195.056C301.286 195.056 301.068 195.114 300.865 195.232C300.662 195.349 300.497 195.525 300.369 195.76C300.252 195.984 300.193 196.272 300.193 196.624C300.193 196.976 300.252 197.269 300.369 197.504C300.497 197.728 300.657 197.898 300.849 198.016C301.052 198.133 301.27 198.192 301.505 198.192ZM294.977 193.296C294.476 193.296 294.028 193.184 293.633 192.96C293.238 192.736 292.924 192.421 292.689 192.016C292.454 191.6 292.337 191.109 292.337 190.544C292.337 189.978 292.454 189.493 292.689 189.088C292.924 188.682 293.238 188.368 293.633 188.144C294.038 187.92 294.486 187.808 294.977 187.808C295.478 187.808 295.926 187.92 296.321 188.144C296.716 188.368 297.025 188.682 297.249 189.088C297.484 189.493 297.601 189.978 297.601 190.544C297.601 191.109 297.484 191.6 297.249 192.016C297.025 192.421 296.71 192.736 296.305 192.96C295.91 193.184 295.468 193.296 294.977 193.296ZM294.961 192.112C295.206 192.112 295.425 192.053 295.617 191.936C295.82 191.818 295.98 191.648 296.097 191.424C296.214 191.189 296.273 190.896 296.273 190.544C296.273 190.192 296.214 189.898 296.097 189.664C295.98 189.429 295.82 189.253 295.617 189.136C295.425 189.018 295.212 188.96 294.977 188.96C294.753 188.96 294.534 189.018 294.321 189.136C294.118 189.253 293.953 189.429 293.825 189.664C293.708 189.898 293.649 190.192 293.649 190.544C293.649 190.885 293.708 191.173 293.825 191.408C293.953 191.642 294.118 191.818 294.321 191.936C294.524 192.053 294.737 192.112 294.961 192.112ZM306.502 201.504H304.886V201.36C305.537 200.698 306.097 199.973 306.566 199.184C307.046 198.394 307.42 197.552 307.686 196.656C307.953 195.76 308.086 194.826 308.086 193.856C308.086 192.885 307.953 191.952 307.686 191.056C307.42 190.16 307.046 189.317 306.566 188.528C306.097 187.738 305.537 187.013 304.886 186.352V186.208H306.502C307.1 186.762 307.633 187.429 308.102 188.208C308.582 188.986 308.966 189.85 309.254 190.8C309.542 191.738 309.686 192.757 309.686 193.856C309.686 194.954 309.542 195.978 309.254 196.928C308.966 197.866 308.582 198.72 308.102 199.488C307.633 200.266 307.1 200.938 306.502 201.504Z" fill="black"/>
<rect x="353.752" width="107.917" height="147.184" fill="#325949"/>
<path d="M378.443 175.184V172.896H372.827V171.648L378.187 163.984H380.027V171.504H381.627V172.896H380.027V175.184H378.443ZM374.555 171.504H378.523V165.744L374.555 171.504ZM390.059 175.376C389.248 175.376 388.533 175.232 387.915 174.944C387.296 174.645 386.816 174.229 386.475 173.696C386.133 173.162 385.963 172.538 385.963 171.824H387.643C387.643 172.229 387.739 172.602 387.931 172.944C388.123 173.274 388.395 173.541 388.747 173.744C389.109 173.936 389.547 174.032 390.059 174.032C390.517 174.032 390.907 173.957 391.227 173.808C391.547 173.658 391.792 173.456 391.963 173.2C392.144 172.933 392.235 172.629 392.235 172.288C392.235 171.893 392.144 171.568 391.963 171.312C391.781 171.056 391.536 170.848 391.227 170.688C390.917 170.517 390.565 170.368 390.171 170.24C389.776 170.112 389.355 169.973 388.907 169.824C388.032 169.525 387.376 169.152 386.939 168.704C386.512 168.245 386.299 167.648 386.299 166.912C386.299 166.282 386.443 165.738 386.731 165.28C387.029 164.81 387.451 164.448 387.995 164.192C388.539 163.925 389.179 163.792 389.915 163.792C390.64 163.792 391.269 163.925 391.803 164.192C392.347 164.458 392.773 164.826 393.083 165.296C393.392 165.765 393.552 166.314 393.563 166.944H391.867C391.867 166.656 391.792 166.373 391.643 166.096C391.493 165.818 391.269 165.594 390.971 165.424C390.672 165.242 390.304 165.152 389.867 165.152C389.504 165.141 389.179 165.2 388.891 165.328C388.603 165.456 388.373 165.642 388.203 165.888C388.043 166.133 387.963 166.426 387.963 166.768C387.963 167.109 388.037 167.386 388.187 167.6C388.336 167.802 388.549 167.978 388.827 168.128C389.104 168.277 389.424 168.416 389.787 168.544C390.16 168.661 390.571 168.794 391.019 168.944C391.563 169.125 392.053 169.349 392.491 169.616C392.928 169.872 393.269 170.208 393.515 170.624C393.771 171.029 393.899 171.552 393.899 172.192C393.899 172.746 393.755 173.264 393.467 173.744C393.179 174.224 392.752 174.618 392.187 174.928C391.621 175.226 390.912 175.376 390.059 175.376ZM398.553 175.184C398.052 175.184 397.609 175.104 397.225 174.944C396.852 174.784 396.564 174.517 396.361 174.144C396.169 173.77 396.073 173.264 396.073 172.624V168.496H394.681V167.152H396.073L396.265 165.136H397.673V167.152H399.945V168.496H397.673V172.64C397.673 173.098 397.764 173.413 397.945 173.584C398.137 173.744 398.468 173.824 398.937 173.824H399.865V175.184H398.553ZM403.902 175.376C403.241 175.376 402.691 175.264 402.254 175.04C401.817 174.816 401.491 174.517 401.278 174.144C401.065 173.76 400.958 173.349 400.958 172.912C400.958 172.378 401.097 171.925 401.374 171.552C401.651 171.168 402.046 170.874 402.558 170.672C403.07 170.469 403.683 170.368 404.398 170.368H406.494C406.494 169.898 406.425 169.509 406.286 169.2C406.147 168.89 405.939 168.661 405.662 168.512C405.395 168.352 405.054 168.272 404.638 168.272C404.158 168.272 403.747 168.389 403.406 168.624C403.065 168.848 402.851 169.184 402.766 169.632H401.166C401.23 169.066 401.422 168.586 401.742 168.192C402.073 167.786 402.494 167.477 403.006 167.264C403.518 167.04 404.062 166.928 404.638 166.928C405.395 166.928 406.03 167.061 406.542 167.328C407.054 167.594 407.438 167.973 407.694 168.464C407.961 168.944 408.094 169.52 408.094 170.192V175.184H406.702L406.574 173.824C406.457 174.037 406.318 174.24 406.158 174.432C405.998 174.624 405.806 174.789 405.582 174.928C405.369 175.066 405.118 175.173 404.83 175.248C404.553 175.333 404.243 175.376 403.902 175.376ZM404.206 174.08C404.547 174.08 404.857 174.01 405.134 173.872C405.411 173.733 405.646 173.546 405.838 173.312C406.041 173.066 406.19 172.794 406.286 172.496C406.393 172.186 406.451 171.872 406.462 171.552V171.504H404.558C404.099 171.504 403.726 171.562 403.438 171.68C403.161 171.786 402.958 171.936 402.83 172.128C402.702 172.32 402.638 172.544 402.638 172.8C402.638 173.066 402.697 173.296 402.814 173.488C402.942 173.669 403.123 173.813 403.358 173.92C403.593 174.026 403.875 174.08 404.206 174.08ZM409.656 175.184V167.152H411.096L411.24 168.672C411.422 168.309 411.651 168.005 411.928 167.76C412.216 167.504 412.552 167.306 412.936 167.168C413.331 167.029 413.774 166.96 414.264 166.96V168.64H413.736C413.395 168.64 413.075 168.682 412.776 168.768C412.478 168.853 412.211 168.992 411.976 169.184C411.752 169.376 411.576 169.637 411.448 169.968C411.32 170.298 411.256 170.709 411.256 171.2V175.184H409.656ZM418.98 171.152V169.808H425.444V171.152H418.98ZM430.702 175.184V174.032C431.438 173.456 432.142 172.874 432.814 172.288C433.486 171.701 434.083 171.12 434.606 170.544C435.139 169.957 435.555 169.386 435.854 168.832C436.152 168.266 436.302 167.728 436.302 167.216C436.302 166.853 436.238 166.517 436.11 166.208C435.982 165.898 435.779 165.648 435.502 165.456C435.224 165.253 434.851 165.152 434.382 165.152C433.923 165.152 433.539 165.253 433.23 165.456C432.92 165.658 432.686 165.93 432.526 166.272C432.376 166.602 432.302 166.97 432.302 167.376H430.766C430.776 166.608 430.942 165.957 431.262 165.424C431.582 164.89 432.014 164.485 432.558 164.208C433.102 163.93 433.72 163.792 434.414 163.792C435.118 163.792 435.731 163.925 436.254 164.192C436.776 164.448 437.182 164.826 437.47 165.328C437.758 165.818 437.902 166.421 437.902 167.136C437.902 167.648 437.8 168.16 437.598 168.672C437.395 169.173 437.118 169.664 436.766 170.144C436.424 170.624 436.04 171.088 435.614 171.536C435.187 171.973 434.75 172.389 434.302 172.784C433.854 173.178 433.422 173.536 433.006 173.856H438.254V175.184H430.702ZM440.912 175.184V165.792L438.992 166.272V165.088L441.504 163.984H442.544V175.184H440.912ZM384.212 201.504C383.636 200.938 383.102 200.266 382.612 199.488C382.132 198.72 381.748 197.866 381.46 196.928C381.182 195.978 381.044 194.954 381.044 193.856C381.044 192.757 381.182 191.738 381.46 190.8C381.748 189.85 382.132 188.986 382.612 188.208C383.102 187.429 383.636 186.762 384.212 186.208H385.828V186.352C385.188 187.013 384.628 187.738 384.148 188.528C383.668 189.317 383.294 190.16 383.028 191.056C382.761 191.952 382.628 192.885 382.628 193.856C382.628 194.826 382.761 195.76 383.028 196.656C383.294 197.552 383.668 198.394 384.148 199.184C384.638 199.973 385.198 200.698 385.828 201.36V201.504H384.212ZM390.641 199.376C389.927 199.376 389.271 199.248 388.673 198.992C388.087 198.725 387.617 198.33 387.265 197.808C386.924 197.274 386.743 196.608 386.721 195.808H388.321C388.332 196.213 388.428 196.581 388.609 196.912C388.791 197.242 389.052 197.509 389.393 197.712C389.745 197.904 390.161 198 390.641 198C391.121 198 391.521 197.909 391.841 197.728C392.172 197.546 392.417 197.301 392.577 196.992C392.748 196.682 392.833 196.336 392.833 195.952C392.833 195.472 392.716 195.082 392.481 194.784C392.257 194.485 391.948 194.261 391.553 194.112C391.169 193.952 390.737 193.872 390.257 193.872H389.425V192.544H390.257C390.919 192.544 391.447 192.389 391.841 192.08C392.247 191.77 392.449 191.333 392.449 190.768C392.449 190.298 392.295 189.914 391.985 189.616C391.676 189.317 391.228 189.168 390.641 189.168C390.044 189.168 389.569 189.338 389.217 189.68C388.876 190.021 388.684 190.453 388.641 190.976H387.057C387.089 190.346 387.255 189.792 387.553 189.312C387.863 188.821 388.279 188.448 388.801 188.192C389.324 187.925 389.937 187.792 390.641 187.792C391.388 187.792 392.012 187.925 392.513 188.192C393.015 188.448 393.393 188.794 393.649 189.232C393.916 189.669 394.049 190.149 394.049 190.672C394.049 191.066 393.975 191.434 393.825 191.776C393.676 192.106 393.463 192.394 393.185 192.64C392.919 192.885 392.588 193.061 392.193 193.168C392.62 193.242 392.999 193.408 393.329 193.664C393.671 193.909 393.937 194.229 394.129 194.624C394.332 195.008 394.433 195.456 394.433 195.968C394.433 196.576 394.289 197.141 394.001 197.664C393.713 198.176 393.287 198.592 392.721 198.912C392.167 199.221 391.473 199.376 390.641 199.376ZM399.869 199.376C399.133 199.376 398.467 199.242 397.869 198.976C397.283 198.698 396.813 198.314 396.461 197.824C396.109 197.333 395.933 196.762 395.933 196.112C395.933 195.653 396.019 195.232 396.189 194.848C396.371 194.453 396.616 194.112 396.925 193.824C397.235 193.536 397.597 193.328 398.013 193.2C397.459 192.976 397.021 192.645 396.701 192.208C396.381 191.77 396.221 191.29 396.221 190.768C396.221 190.224 396.365 189.728 396.653 189.28C396.941 188.832 397.357 188.474 397.901 188.208C398.445 187.93 399.101 187.792 399.869 187.792C400.648 187.792 401.304 187.93 401.837 188.208C402.381 188.474 402.797 188.832 403.085 189.28C403.373 189.728 403.517 190.224 403.517 190.768C403.517 191.29 403.357 191.776 403.037 192.224C402.717 192.661 402.28 192.986 401.725 193.2C402.152 193.328 402.52 193.536 402.829 193.824C403.139 194.112 403.379 194.453 403.549 194.848C403.72 195.232 403.805 195.653 403.805 196.112C403.805 196.762 403.629 197.333 403.277 197.824C402.936 198.314 402.467 198.698 401.869 198.976C401.283 199.242 400.616 199.376 399.869 199.376ZM399.869 198C400.659 198 401.245 197.818 401.629 197.456C402.024 197.082 402.221 196.597 402.221 196C402.221 195.328 402.008 194.816 401.581 194.464C401.155 194.112 400.584 193.936 399.869 193.936C399.155 193.936 398.584 194.112 398.157 194.464C397.731 194.816 397.517 195.328 397.517 196C397.517 196.597 397.715 197.082 398.109 197.456C398.504 197.818 399.091 198 399.869 198ZM399.869 192.672C400.499 192.672 400.995 192.506 401.357 192.176C401.731 191.845 401.917 191.424 401.917 190.912C401.917 190.325 401.736 189.882 401.373 189.584C401.011 189.285 400.509 189.136 399.869 189.136C399.24 189.136 398.744 189.285 398.381 189.584C398.019 189.882 397.837 190.325 397.837 190.912C397.837 191.424 398.019 191.845 398.381 192.176C398.744 192.506 399.24 192.672 399.869 192.672ZM406.049 199.264C405.739 199.264 405.483 199.168 405.281 198.976C405.089 198.773 404.993 198.533 404.993 198.256C404.993 197.968 405.089 197.728 405.281 197.536C405.483 197.333 405.739 197.232 406.049 197.232C406.347 197.232 406.593 197.333 406.785 197.536C406.987 197.728 407.089 197.968 407.089 198.256C407.089 198.533 406.987 198.773 406.785 198.976C406.593 199.168 406.347 199.264 406.049 199.264ZM411.642 199.376C410.917 199.376 410.298 199.237 409.786 198.96C409.274 198.672 408.869 198.293 408.57 197.824C408.282 197.344 408.106 196.826 408.042 196.272H409.53C409.626 196.826 409.861 197.258 410.234 197.568C410.607 197.866 411.087 198.016 411.674 198.016C412.207 198.016 412.677 197.856 413.082 197.536C413.487 197.216 413.813 196.73 414.058 196.08C414.303 195.429 414.442 194.602 414.474 193.6C414.474 193.568 414.474 193.541 414.474 193.52C414.474 193.488 414.474 193.456 414.474 193.424C414.314 193.744 414.079 194.037 413.77 194.304C413.471 194.57 413.119 194.784 412.714 194.944C412.319 195.093 411.877 195.168 411.386 195.168C410.767 195.168 410.175 195.024 409.61 194.736C409.055 194.437 408.607 194.016 408.266 193.472C407.925 192.928 407.754 192.293 407.754 191.568C407.754 190.917 407.909 190.304 408.218 189.728C408.538 189.152 408.986 188.688 409.562 188.336C410.149 187.973 410.837 187.792 411.626 187.792C412.447 187.792 413.135 187.946 413.69 188.256C414.255 188.554 414.703 188.965 415.034 189.488C415.375 190 415.621 190.576 415.77 191.216C415.93 191.845 416.01 192.496 416.01 193.168C416.01 194.394 415.839 195.477 415.498 196.416C415.157 197.344 414.661 198.069 414.01 198.592C413.359 199.114 412.57 199.376 411.642 199.376ZM411.738 193.808C412.197 193.808 412.607 193.706 412.97 193.504C413.333 193.29 413.621 193.008 413.834 192.656C414.047 192.304 414.154 191.914 414.154 191.488C414.154 191.04 414.047 190.645 413.834 190.304C413.621 189.952 413.333 189.68 412.97 189.488C412.607 189.285 412.191 189.184 411.722 189.184C411.274 189.184 410.869 189.285 410.506 189.488C410.143 189.69 409.855 189.962 409.642 190.304C409.439 190.645 409.338 191.045 409.338 191.504C409.338 191.962 409.439 192.368 409.642 192.72C409.855 193.061 410.143 193.328 410.506 193.52C410.869 193.712 411.279 193.808 411.738 193.808ZM418.888 199.184L425.336 187.984H426.92L420.472 199.184H418.888ZM426.232 199.376C425.741 199.376 425.298 199.264 424.904 199.04C424.509 198.816 424.194 198.501 423.96 198.096C423.725 197.68 423.608 197.194 423.608 196.64C423.608 196.064 423.725 195.573 423.96 195.168C424.194 194.762 424.509 194.448 424.904 194.224C425.298 194 425.741 193.888 426.232 193.888C426.733 193.888 427.176 194 427.56 194.224C427.954 194.448 428.264 194.762 428.488 195.168C428.722 195.573 428.84 196.064 428.84 196.64C428.84 197.194 428.722 197.68 428.488 198.096C428.264 198.501 427.954 198.816 427.56 199.04C427.165 199.264 426.722 199.376 426.232 199.376ZM426.216 198.192C426.461 198.192 426.68 198.133 426.872 198.016C427.074 197.898 427.234 197.728 427.352 197.504C427.48 197.269 427.544 196.976 427.544 196.624C427.544 196.272 427.485 195.984 427.368 195.76C427.25 195.525 427.09 195.349 426.888 195.232C426.696 195.114 426.477 195.056 426.232 195.056C425.997 195.056 425.778 195.114 425.576 195.232C425.373 195.349 425.208 195.525 425.08 195.76C424.962 195.984 424.904 196.272 424.904 196.624C424.904 196.976 424.962 197.269 425.08 197.504C425.208 197.728 425.368 197.898 425.56 198.016C425.762 198.133 425.981 198.192 426.216 198.192ZM419.688 193.296C419.186 193.296 418.738 193.184 418.344 192.96C417.949 192.736 417.634 192.421 417.4 192.016C417.165 191.6 417.048 191.109 417.048 190.544C417.048 189.978 417.165 189.493 417.4 189.088C417.634 188.682 417.949 188.368 418.344 188.144C418.749 187.92 419.197 187.808 419.688 187.808C420.189 187.808 420.637 187.92 421.032 188.144C421.426 188.368 421.736 188.682 421.96 189.088C422.194 189.493 422.312 189.978 422.312 190.544C422.312 191.109 422.194 191.6 421.96 192.016C421.736 192.421 421.421 192.736 421.016 192.96C420.621 193.184 420.178 193.296 419.688 193.296ZM419.672 192.112C419.917 192.112 420.136 192.053 420.328 191.936C420.53 191.818 420.69 191.648 420.808 191.424C420.925 191.189 420.984 190.896 420.984 190.544C420.984 190.192 420.925 189.898 420.808 189.664C420.69 189.429 420.53 189.253 420.328 189.136C420.136 189.018 419.922 188.96 419.688 188.96C419.464 188.96 419.245 189.018 419.032 189.136C418.829 189.253 418.664 189.429 418.536 189.664C418.418 189.898 418.36 190.192 418.36 190.544C418.36 190.885 418.418 191.173 418.536 191.408C418.664 191.642 418.829 191.818 419.032 191.936C419.234 192.053 419.448 192.112 419.672 192.112ZM431.213 201.504H429.597V201.36C430.248 200.698 430.808 199.973 431.277 199.184C431.757 198.394 432.131 197.552 432.397 196.656C432.664 195.76 432.797 194.826 432.797 193.856C432.797 192.885 432.664 191.952 432.397 191.056C432.131 190.16 431.757 189.317 431.277 188.528C430.808 187.738 430.248 187.013 429.597 186.352V186.208H431.213C431.811 186.762 432.344 187.429 432.813 188.208C433.293 188.986 433.677 189.85 433.965 190.8C434.253 191.738 434.397 192.757 434.397 193.856C434.397 194.954 434.253 195.978 433.965 196.928C433.677 197.866 433.293 198.72 432.813 199.488C432.344 200.266 431.811 200.938 431.213 201.504Z" fill="black"/>
<rect x="471.67" y="79.8271" width="107.917" height="67.3564" fill="#325949"/>
<path d="M497.175 175.376C496.397 175.376 495.719 175.237 495.143 174.96C494.567 174.672 494.114 174.288 493.783 173.808C493.463 173.317 493.266 172.762 493.191 172.144H494.743C494.861 172.698 495.133 173.152 495.559 173.504C495.986 173.845 496.53 174.016 497.191 174.016C497.671 174.016 498.087 173.898 498.439 173.664C498.791 173.429 499.063 173.114 499.255 172.72C499.447 172.325 499.543 171.882 499.543 171.392C499.543 170.88 499.442 170.437 499.239 170.064C499.047 169.68 498.775 169.381 498.423 169.168C498.082 168.954 497.682 168.848 497.223 168.848C496.669 168.848 496.189 168.976 495.783 169.232C495.389 169.488 495.095 169.808 494.903 170.192H493.367L494.311 163.984H500.327V165.376H495.527L494.935 168.512C495.191 168.224 495.533 167.989 495.959 167.808C496.397 167.616 496.893 167.52 497.447 167.52C498.013 167.52 498.519 167.621 498.967 167.824C499.415 168.026 499.794 168.304 500.103 168.656C500.423 169.008 500.669 169.418 500.839 169.888C501.01 170.346 501.095 170.842 501.095 171.376C501.095 171.941 501.005 172.464 500.823 172.944C500.642 173.424 500.381 173.85 500.039 174.224C499.698 174.586 499.287 174.869 498.807 175.072C498.327 175.274 497.783 175.376 497.175 175.376ZM509.929 175.376C509.119 175.376 508.404 175.232 507.785 174.944C507.167 174.645 506.687 174.229 506.345 173.696C506.004 173.162 505.833 172.538 505.833 171.824H507.513C507.513 172.229 507.609 172.602 507.801 172.944C507.993 173.274 508.265 173.541 508.617 173.744C508.98 173.936 509.417 174.032 509.929 174.032C510.388 174.032 510.777 173.957 511.097 173.808C511.417 173.658 511.663 173.456 511.833 173.2C512.015 172.933 512.105 172.629 512.105 172.288C512.105 171.893 512.015 171.568 511.833 171.312C511.652 171.056 511.407 170.848 511.097 170.688C510.788 170.517 510.436 170.368 510.041 170.24C509.647 170.112 509.225 169.973 508.777 169.824C507.903 169.525 507.247 169.152 506.809 168.704C506.383 168.245 506.169 167.648 506.169 166.912C506.169 166.282 506.313 165.738 506.601 165.28C506.9 164.81 507.321 164.448 507.865 164.192C508.409 163.925 509.049 163.792 509.785 163.792C510.511 163.792 511.14 163.925 511.673 164.192C512.217 164.458 512.644 164.826 512.953 165.296C513.263 165.765 513.423 166.314 513.433 166.944H511.737C511.737 166.656 511.663 166.373 511.513 166.096C511.364 165.818 511.14 165.594 510.841 165.424C510.543 165.242 510.175 165.152 509.737 165.152C509.375 165.141 509.049 165.2 508.761 165.328C508.473 165.456 508.244 165.642 508.073 165.888C507.913 166.133 507.833 166.426 507.833 166.768C507.833 167.109 507.908 167.386 508.057 167.6C508.207 167.802 508.42 167.978 508.697 168.128C508.975 168.277 509.295 168.416 509.657 168.544C510.031 168.661 510.441 168.794 510.889 168.944C511.433 169.125 511.924 169.349 512.361 169.616C512.799 169.872 513.14 170.208 513.385 170.624C513.641 171.029 513.769 171.552 513.769 172.192C513.769 172.746 513.625 173.264 513.337 173.744C513.049 174.224 512.623 174.618 512.057 174.928C511.492 175.226 510.783 175.376 509.929 175.376ZM518.424 175.184C517.923 175.184 517.48 175.104 517.096 174.944C516.723 174.784 516.435 174.517 516.232 174.144C516.04 173.77 515.944 173.264 515.944 172.624V168.496H514.552V167.152H515.944L516.136 165.136H517.544V167.152H519.816V168.496H517.544V172.64C517.544 173.098 517.635 173.413 517.816 173.584C518.008 173.744 518.339 173.824 518.808 173.824H519.736V175.184H518.424ZM523.773 175.376C523.111 175.376 522.562 175.264 522.125 175.04C521.687 174.816 521.362 174.517 521.149 174.144C520.935 173.76 520.829 173.349 520.829 172.912C520.829 172.378 520.967 171.925 521.245 171.552C521.522 171.168 521.917 170.874 522.429 170.672C522.941 170.469 523.554 170.368 524.269 170.368H526.365C526.365 169.898 526.295 169.509 526.157 169.2C526.018 168.89 525.81 168.661 525.533 168.512C525.266 168.352 524.925 168.272 524.509 168.272C524.029 168.272 523.618 168.389 523.277 168.624C522.935 168.848 522.722 169.184 522.637 169.632H521.037C521.101 169.066 521.293 168.586 521.613 168.192C521.943 167.786 522.365 167.477 522.877 167.264C523.389 167.04 523.933 166.928 524.509 166.928C525.266 166.928 525.901 167.061 526.413 167.328C526.925 167.594 527.309 167.973 527.565 168.464C527.831 168.944 527.965 169.52 527.965 170.192V175.184H526.573L526.445 173.824C526.327 174.037 526.189 174.24 526.029 174.432C525.869 174.624 525.677 174.789 525.453 174.928C525.239 175.066 524.989 175.173 524.701 175.248C524.423 175.333 524.114 175.376 523.773 175.376ZM524.077 174.08C524.418 174.08 524.727 174.01 525.005 173.872C525.282 173.733 525.517 173.546 525.709 173.312C525.911 173.066 526.061 172.794 526.157 172.496C526.263 172.186 526.322 171.872 526.333 171.552V171.504H524.429C523.97 171.504 523.597 171.562 523.309 171.68C523.031 171.786 522.829 171.936 522.701 172.128C522.573 172.32 522.509 172.544 522.509 172.8C522.509 173.066 522.567 173.296 522.685 173.488C522.813 173.669 522.994 173.813 523.229 173.92C523.463 174.026 523.746 174.08 524.077 174.08ZM529.527 175.184V167.152H530.967L531.111 168.672C531.292 168.309 531.522 168.005 531.799 167.76C532.087 167.504 532.423 167.306 532.807 167.168C533.202 167.029 533.644 166.96 534.135 166.96V168.64H533.607C533.266 168.64 532.946 168.682 532.647 168.768C532.348 168.853 532.082 168.992 531.847 169.184C531.623 169.376 531.447 169.637 531.319 169.968C531.191 170.298 531.127 170.709 531.127 171.2V175.184H529.527ZM538.85 171.152V169.808H545.314V171.152H538.85ZM552.044 175.184V165.792L550.124 166.272V165.088L552.636 163.984H553.676V175.184H552.044ZM556.783 175.184V165.792L554.863 166.272V165.088L557.375 163.984H558.415V175.184H556.783ZM501.957 201.504C501.381 200.938 500.848 200.266 500.357 199.488C499.877 198.72 499.493 197.866 499.205 196.928C498.928 195.978 498.789 194.954 498.789 193.856C498.789 192.757 498.928 191.738 499.205 190.8C499.493 189.85 499.877 188.986 500.357 188.208C500.848 187.429 501.381 186.762 501.957 186.208H503.573V186.352C502.933 187.013 502.373 187.738 501.893 188.528C501.413 189.317 501.04 190.16 500.773 191.056C500.507 191.952 500.373 192.885 500.373 193.856C500.373 194.826 500.507 195.76 500.773 196.656C501.04 197.552 501.413 198.394 501.893 199.184C502.384 199.973 502.944 200.698 503.573 201.36V201.504H501.957ZM504.611 199.184V198.032C505.347 197.456 506.051 196.874 506.723 196.288C507.395 195.701 507.992 195.12 508.515 194.544C509.048 193.957 509.464 193.386 509.763 192.832C510.061 192.266 510.211 191.728 510.211 191.216C510.211 190.853 510.147 190.517 510.019 190.208C509.891 189.898 509.688 189.648 509.411 189.456C509.133 189.253 508.76 189.152 508.291 189.152C507.832 189.152 507.448 189.253 507.139 189.456C506.829 189.658 506.595 189.93 506.435 190.272C506.285 190.602 506.211 190.97 506.211 191.376H504.675C504.685 190.608 504.851 189.957 505.171 189.424C505.491 188.89 505.923 188.485 506.467 188.208C507.011 187.93 507.629 187.792 508.323 187.792C509.027 187.792 509.64 187.925 510.163 188.192C510.685 188.448 511.091 188.826 511.379 189.328C511.667 189.818 511.811 190.421 511.811 191.136C511.811 191.648 511.709 192.16 511.507 192.672C511.304 193.173 511.027 193.664 510.675 194.144C510.333 194.624 509.949 195.088 509.523 195.536C509.096 195.973 508.659 196.389 508.211 196.784C507.763 197.178 507.331 197.536 506.915 197.856H512.163V199.184H504.611ZM517.833 199.376C516.83 199.376 515.971 199.136 515.257 198.656C514.542 198.165 513.993 197.488 513.609 196.624C513.225 195.749 513.033 194.736 513.033 193.584C513.033 192.432 513.225 191.424 513.609 190.56C513.993 189.685 514.542 189.008 515.257 188.528C515.971 188.037 516.83 187.792 517.833 187.792C518.825 187.792 519.673 188.037 520.377 188.528C521.091 189.008 521.641 189.685 522.025 190.56C522.409 191.424 522.601 192.432 522.601 193.584C522.601 194.736 522.409 195.749 522.025 196.624C521.641 197.488 521.091 198.165 520.377 198.656C519.673 199.136 518.825 199.376 517.833 199.376ZM517.817 197.952C518.435 197.952 518.979 197.776 519.449 197.424C519.918 197.072 520.286 196.57 520.553 195.92C520.83 195.269 520.969 194.49 520.969 193.584C520.969 192.677 520.83 191.898 520.553 191.248C520.286 190.597 519.918 190.101 519.449 189.76C518.979 189.408 518.435 189.232 517.817 189.232C517.209 189.232 516.665 189.408 516.185 189.76C515.715 190.101 515.342 190.597 515.065 191.248C514.798 191.898 514.665 192.677 514.665 193.584C514.665 194.49 514.798 195.269 515.065 195.92C515.342 196.57 515.715 197.072 516.185 197.424C516.665 197.776 517.209 197.952 517.817 197.952ZM523.966 199.264C523.657 199.264 523.401 199.168 523.198 198.976C523.006 198.773 522.91 198.533 522.91 198.256C522.91 197.968 523.006 197.728 523.198 197.536C523.401 197.333 523.657 197.232 523.966 197.232C524.265 197.232 524.51 197.333 524.702 197.536C524.905 197.728 525.006 197.968 525.006 198.256C525.006 198.533 524.905 198.773 524.702 198.976C524.51 199.168 524.265 199.264 523.966 199.264ZM531.436 199.184V196.896H525.82V195.648L531.18 187.984H533.02V195.504H534.62V196.896H533.02V199.184H531.436ZM527.548 195.504H531.516V189.744L527.548 195.504ZM536.977 199.184L543.425 187.984H545.009L538.561 199.184H536.977ZM544.321 199.376C543.83 199.376 543.388 199.264 542.993 199.04C542.598 198.816 542.284 198.501 542.049 198.096C541.814 197.68 541.697 197.194 541.697 196.64C541.697 196.064 541.814 195.573 542.049 195.168C542.284 194.762 542.598 194.448 542.993 194.224C543.388 194 543.83 193.888 544.321 193.888C544.822 193.888 545.265 194 545.649 194.224C546.044 194.448 546.353 194.762 546.577 195.168C546.812 195.573 546.929 196.064 546.929 196.64C546.929 197.194 546.812 197.68 546.577 198.096C546.353 198.501 546.044 198.816 545.649 199.04C545.254 199.264 544.812 199.376 544.321 199.376ZM544.305 198.192C544.55 198.192 544.769 198.133 544.961 198.016C545.164 197.898 545.324 197.728 545.441 197.504C545.569 197.269 545.633 196.976 545.633 196.624C545.633 196.272 545.574 195.984 545.457 195.76C545.34 195.525 545.18 195.349 544.977 195.232C544.785 195.114 544.566 195.056 544.321 195.056C544.086 195.056 543.868 195.114 543.665 195.232C543.462 195.349 543.297 195.525 543.169 195.76C543.052 195.984 542.993 196.272 542.993 196.624C542.993 196.976 543.052 197.269 543.169 197.504C543.297 197.728 543.457 197.898 543.649 198.016C543.852 198.133 544.07 198.192 544.305 198.192ZM537.777 193.296C537.276 193.296 536.828 193.184 536.433 192.96C536.038 192.736 535.724 192.421 535.489 192.016C535.254 191.6 535.137 191.109 535.137 190.544C535.137 189.978 535.254 189.493 535.489 189.088C535.724 188.682 536.038 188.368 536.433 188.144C536.838 187.92 537.286 187.808 537.777 187.808C538.278 187.808 538.726 187.92 539.121 188.144C539.516 188.368 539.825 188.682 540.049 189.088C540.284 189.493 540.401 189.978 540.401 190.544C540.401 191.109 540.284 191.6 540.049 192.016C539.825 192.421 539.51 192.736 539.105 192.96C538.71 193.184 538.268 193.296 537.777 193.296ZM537.761 192.112C538.006 192.112 538.225 192.053 538.417 191.936C538.62 191.818 538.78 191.648 538.897 191.424C539.014 191.189 539.073 190.896 539.073 190.544C539.073 190.192 539.014 189.898 538.897 189.664C538.78 189.429 538.62 189.253 538.417 189.136C538.225 189.018 538.012 188.96 537.777 188.96C537.553 188.96 537.334 189.018 537.121 189.136C536.918 189.253 536.753 189.429 536.625 189.664C536.508 189.898 536.449 190.192 536.449 190.544C536.449 190.885 536.508 191.173 536.625 191.408C536.753 191.642 536.918 191.818 537.121 191.936C537.324 192.053 537.537 192.112 537.761 192.112ZM549.303 201.504H547.687V201.36C548.337 200.698 548.897 199.973 549.367 199.184C549.847 198.394 550.22 197.552 550.487 196.656C550.753 195.76 550.887 194.826 550.887 193.856C550.887 192.885 550.753 191.952 550.487 191.056C550.22 190.16 549.847 189.317 549.367 188.528C548.897 187.738 548.337 187.013 547.687 186.352V186.208H549.303C549.9 186.762 550.433 187.429 550.903 188.208C551.383 188.986 551.767 189.85 552.055 190.8C552.343 191.738 552.487 192.757 552.487 193.856C552.487 194.954 552.343 195.978 552.055 196.928C551.767 197.866 551.383 198.72 550.903 199.488C550.433 200.266 549.9 200.938 549.303 201.504Z" fill="black"/>
<path d="M56.4441 225.038C57.0428 223.195 59.6496 223.195 60.2483 225.038L62.6932 232.562C62.9609 233.386 63.7288 233.944 64.5953 233.944H72.5071C74.4446 233.944 75.2501 236.423 73.6827 237.562L67.2819 242.213C66.5809 242.722 66.2876 243.625 66.5554 244.449L69.0002 251.973C69.5989 253.816 67.49 255.348 65.9226 254.209L59.5218 249.559C58.8208 249.05 57.8716 249.05 57.1706 249.559L50.7698 254.209C49.2024 255.348 47.0934 253.816 47.6921 251.973L50.137 244.449C50.4048 243.625 50.1115 242.722 49.4105 242.213L43.0097 237.562C41.4423 236.423 42.2478 233.944 44.1853 233.944H52.0971C52.9635 233.944 53.7314 233.386 53.9992 232.562L56.4441 225.038Z" fill="#325949"/>
<path d="M172.168 225.038C172.766 223.195 175.373 223.195 175.972 225.038L178.417 232.562C178.685 233.386 179.452 233.944 180.319 233.944H188.231C190.168 233.944 190.974 236.423 189.406 237.562L183.006 242.213C182.305 242.722 182.011 243.625 182.279 244.449L184.724 251.973C185.323 253.816 183.214 255.348 181.646 254.209L175.245 249.559C174.544 249.05 173.595 249.05 172.894 249.559L166.493 254.209C164.926 255.348 162.817 253.816 163.416 251.973L165.861 244.449C166.128 243.625 165.835 242.722 165.134 242.213L158.733 237.562C157.166 236.423 157.971 233.944 159.909 233.944H167.821C168.687 233.944 169.455 233.386 169.723 232.562L172.168 225.038Z" fill="#325949"/>
<path d="M287.891 225.038C288.49 223.195 291.097 223.195 291.696 225.038L294.14 232.562C294.408 233.386 295.176 233.944 296.043 233.944H303.954C305.892 233.944 306.697 236.423 305.13 237.562L298.729 242.213C298.028 242.722 297.735 243.625 298.003 244.449L300.448 251.973C301.046 253.816 298.937 255.348 297.37 254.209L290.969 249.559C290.268 249.05 289.319 249.05 288.618 249.559L282.217 254.209C280.65 255.348 278.541 253.816 279.139 251.973L281.584 244.449C281.852 243.625 281.559 242.722 280.858 242.213L274.457 237.562C272.89 236.423 273.695 233.944 275.633 233.944H283.544C284.411 233.944 285.179 233.386 285.446 232.562L287.891 225.038Z" fill="#325949"/>
<mask id="mask0_638_105" style="mask-type:alpha" maskUnits="userSpaceOnUse" x="389" y="223" width="33" height="32">
<path d="M403.615 225.038C404.214 223.195 406.82 223.195 407.419 225.038L409.864 232.562C410.132 233.386 410.9 233.944 411.766 233.944H419.678C421.615 233.944 422.421 236.423 420.854 237.562L414.453 242.213C413.752 242.722 413.459 243.625 413.726 244.449L416.171 251.973C416.77 253.816 414.661 255.348 413.093 254.209L406.693 249.559C405.992 249.05 405.042 249.05 404.342 249.559L397.941 254.209C396.373 255.348 394.264 253.816 394.863 251.973L397.308 244.449C397.576 243.625 397.282 242.722 396.581 242.213L390.181 237.562C388.613 236.423 389.419 233.944 391.356 233.944H399.268C400.134 233.944 400.902 233.386 401.17 232.562L403.615 225.038Z" fill="#005FF2"/>
</mask>
<g mask="url(#mask0_638_105)">
<rect x="402.964" y="191.407" width="54.2505" height="100" fill="#A6A6A6"/>
<rect x="349.293" y="191.407" width="58.0688" height="100" fill="#325949"/>
</g>
<path d="M519.339 225.038C519.937 223.195 522.544 223.195 523.143 225.038L525.588 232.562C525.855 233.386 526.623 233.944 527.49 233.944H535.402C537.339 233.944 538.145 236.423 536.577 237.562L530.176 242.213C529.475 242.722 529.182 243.625 529.45 244.449L531.895 251.973C532.493 253.816 530.385 255.348 528.817 254.209L522.416 249.559C521.715 249.05 520.766 249.05 520.065 249.559L513.664 254.209C512.097 255.348 509.988 253.816 510.587 251.973L513.032 244.449C513.299 243.625 513.006 242.722 512.305 242.213L505.904 237.562C504.337 236.423 505.142 233.944 507.08 233.944H514.992C515.858 233.944 516.626 233.386 516.894 232.562L519.339 225.038Z" fill="#A6A6A6"/>
</svg>
