<svg width="1920" height="1080" viewBox="0 0 1920 1080" fill="none" xmlns="http://www.w3.org/2000/svg">
<rect width="1920" height="1080" fill="#232323"/>
<rect x="64.5" y="112.5" width="1823" height="57" stroke="black"/>
<rect x="64.5" y="112.5" width="1823" height="57" rx="28.5" fill="#2D2D2D"/>
<rect x="64.5" y="112.5" width="1823" height="57" rx="28.5" stroke="#4C4C4C"/>
<path d="M95.52 148.24C94.2133 148.24 93.0667 147.94 92.08 147.34C91.0933 146.727 90.3267 145.88 89.78 144.8C89.2333 143.72 88.96 142.46 88.96 141.02C88.96 139.593 89.2333 138.333 89.78 137.24C90.34 136.147 91.1267 135.293 92.14 134.68C93.1667 134.067 94.3733 133.76 95.76 133.76C97.3333 133.76 98.6467 134.14 99.7 134.9C100.753 135.647 101.427 136.693 101.72 138.04H99.78C99.5933 137.2 99.1533 136.533 98.46 136.04C97.7667 135.547 96.8667 135.3 95.76 135.3C94.7333 135.3 93.8333 135.533 93.06 136C92.3 136.453 91.7133 137.107 91.3 137.96C90.8867 138.813 90.68 139.833 90.68 141.02C90.68 142.207 90.8867 143.233 91.3 144.1C91.7133 144.953 92.2867 145.607 93.02 146.06C93.7667 146.513 94.62 146.74 95.58 146.74C97.0733 146.74 98.2 146.3 98.96 145.42C99.72 144.54 100.153 143.347 100.26 141.84H96.22V140.52H101.98V148H100.44L100.3 145.7C99.9667 146.247 99.58 146.713 99.14 147.1C98.7133 147.473 98.2067 147.76 97.62 147.96C97.0333 148.147 96.3333 148.24 95.52 148.24ZM104.956 148V137.92H106.476L106.596 139.84C106.823 139.387 107.11 139 107.456 138.68C107.816 138.36 108.243 138.113 108.736 137.94C109.243 137.767 109.816 137.68 110.456 137.68V139.44H109.836C109.41 139.44 109.003 139.5 108.616 139.62C108.23 139.727 107.883 139.907 107.576 140.16C107.283 140.413 107.05 140.76 106.876 141.2C106.716 141.627 106.636 142.16 106.636 142.8V148H104.956ZM116.039 148.24C115.225 148.24 114.545 148.1 113.999 147.82C113.452 147.527 113.045 147.147 112.779 146.68C112.512 146.2 112.379 145.68 112.379 145.12C112.379 144.44 112.552 143.867 112.899 143.4C113.259 142.92 113.759 142.56 114.399 142.32C115.052 142.067 115.819 141.94 116.699 141.94H119.359C119.359 141.313 119.259 140.793 119.059 140.38C118.872 139.953 118.592 139.633 118.219 139.42C117.859 139.207 117.405 139.1 116.859 139.1C116.219 139.1 115.665 139.26 115.199 139.58C114.732 139.9 114.445 140.373 114.339 141H112.619C112.699 140.28 112.939 139.68 113.339 139.2C113.752 138.707 114.272 138.333 114.899 138.08C115.525 137.813 116.179 137.68 116.859 137.68C117.792 137.68 118.565 137.853 119.179 138.2C119.805 138.533 120.272 139.007 120.579 139.62C120.885 140.22 121.039 140.933 121.039 141.76V148H119.539L119.439 146.22C119.305 146.5 119.132 146.767 118.919 147.02C118.719 147.26 118.479 147.473 118.199 147.66C117.919 147.833 117.599 147.973 117.239 148.08C116.892 148.187 116.492 148.24 116.039 148.24ZM116.299 146.82C116.765 146.82 117.185 146.727 117.559 146.54C117.945 146.34 118.272 146.073 118.539 145.74C118.805 145.393 119.005 145.013 119.139 144.6C119.285 144.187 119.359 143.753 119.359 143.3V143.24H116.839C116.185 143.24 115.659 143.32 115.259 143.48C114.859 143.627 114.572 143.84 114.399 144.12C114.225 144.387 114.139 144.693 114.139 145.04C114.139 145.4 114.219 145.713 114.379 145.98C114.552 146.247 114.799 146.453 115.119 146.6C115.452 146.747 115.845 146.82 116.299 146.82ZM128.478 148.24C127.504 148.24 126.651 148.013 125.918 147.56C125.184 147.093 124.618 146.46 124.218 145.66C123.818 144.86 123.618 143.953 123.618 142.94C123.618 141.927 123.818 141.027 124.218 140.24C124.618 139.44 125.184 138.813 125.918 138.36C126.664 137.907 127.524 137.68 128.498 137.68C129.324 137.68 130.044 137.847 130.658 138.18C131.284 138.513 131.764 138.98 132.098 139.58V133.6H133.778V148H132.258L132.118 146.34C131.904 146.673 131.631 146.987 131.298 147.28C130.964 147.56 130.564 147.793 130.098 147.98C129.631 148.153 129.091 148.24 128.478 148.24ZM128.678 146.78C129.344 146.78 129.931 146.62 130.438 146.3C130.944 145.98 131.338 145.54 131.618 144.98C131.898 144.407 132.038 143.733 132.038 142.96C132.038 142.2 131.898 141.533 131.618 140.96C131.338 140.387 130.944 139.94 130.438 139.62C129.931 139.3 129.344 139.14 128.678 139.14C128.024 139.14 127.444 139.3 126.938 139.62C126.431 139.94 126.038 140.387 125.758 140.96C125.478 141.533 125.338 142.2 125.338 142.96C125.338 143.733 125.478 144.407 125.758 144.98C126.038 145.54 126.431 145.98 126.938 146.3C127.444 146.62 128.024 146.78 128.678 146.78ZM140.637 148.24C139.863 148.24 139.183 148.087 138.597 147.78C138.023 147.473 137.577 147 137.257 146.36C136.95 145.72 136.797 144.92 136.797 143.96V137.92H138.477V143.78C138.477 144.78 138.697 145.533 139.137 146.04C139.577 146.547 140.197 146.8 140.997 146.8C141.557 146.8 142.063 146.667 142.517 146.4C142.97 146.12 143.323 145.727 143.577 145.22C143.843 144.7 143.977 144.067 143.977 143.32V137.92H145.657V148H144.137L144.037 146.24C143.73 146.867 143.277 147.36 142.677 147.72C142.077 148.067 141.397 148.24 140.637 148.24ZM152.121 148.24C151.308 148.24 150.628 148.1 150.081 147.82C149.535 147.527 149.128 147.147 148.861 146.68C148.595 146.2 148.461 145.68 148.461 145.12C148.461 144.44 148.635 143.867 148.981 143.4C149.341 142.92 149.841 142.56 150.481 142.32C151.135 142.067 151.901 141.94 152.781 141.94H155.441C155.441 141.313 155.341 140.793 155.141 140.38C154.955 139.953 154.675 139.633 154.301 139.42C153.941 139.207 153.488 139.1 152.941 139.1C152.301 139.1 151.748 139.26 151.281 139.58C150.815 139.9 150.528 140.373 150.421 141H148.701C148.781 140.28 149.021 139.68 149.421 139.2C149.835 138.707 150.355 138.333 150.981 138.08C151.608 137.813 152.261 137.68 152.941 137.68C153.875 137.68 154.648 137.853 155.261 138.2C155.888 138.533 156.355 139.007 156.661 139.62C156.968 140.22 157.121 140.933 157.121 141.76V148H155.621L155.521 146.22C155.388 146.5 155.215 146.767 155.001 147.02C154.801 147.26 154.561 147.473 154.281 147.66C154.001 147.833 153.681 147.973 153.321 148.08C152.975 148.187 152.575 148.24 152.121 148.24ZM152.381 146.82C152.848 146.82 153.268 146.727 153.641 146.54C154.028 146.34 154.355 146.073 154.621 145.74C154.888 145.393 155.088 145.013 155.221 144.6C155.368 144.187 155.441 143.753 155.441 143.3V143.24H152.921C152.268 143.24 151.741 143.32 151.341 143.48C150.941 143.627 150.655 143.84 150.481 144.12C150.308 144.387 150.221 144.693 150.221 145.04C150.221 145.4 150.301 145.713 150.461 145.98C150.635 146.247 150.881 146.453 151.201 146.6C151.535 146.747 151.928 146.82 152.381 146.82ZM163.807 148C163.207 148 162.687 147.907 162.247 147.72C161.807 147.533 161.467 147.22 161.227 146.78C161 146.327 160.887 145.72 160.887 144.96V139.34H159.127V137.92H160.887L161.107 135.48H162.567V137.92H165.487V139.34H162.567V144.96C162.567 145.587 162.694 146.013 162.947 146.24C163.2 146.453 163.647 146.56 164.287 146.56H165.367V148H163.807ZM168.239 148V137.92H169.919V148H168.239ZM169.079 135.78C168.746 135.78 168.466 135.673 168.239 135.46C168.026 135.233 167.919 134.953 167.919 134.62C167.919 134.287 168.026 134.02 168.239 133.82C168.466 133.607 168.746 133.5 169.079 133.5C169.399 133.5 169.672 133.607 169.899 133.82C170.126 134.02 170.239 134.287 170.239 134.62C170.239 134.953 170.126 135.233 169.899 135.46C169.672 135.673 169.399 135.78 169.079 135.78ZM177.784 148.24C176.85 148.24 176.01 148.027 175.264 147.6C174.517 147.16 173.93 146.547 173.504 145.76C173.077 144.96 172.864 144.033 172.864 142.98C172.864 141.9 173.077 140.967 173.504 140.18C173.944 139.38 174.537 138.767 175.284 138.34C176.044 137.9 176.89 137.68 177.824 137.68C178.784 137.68 179.63 137.9 180.364 138.34C181.11 138.767 181.697 139.38 182.124 140.18C182.564 140.967 182.784 141.893 182.784 142.96C182.784 144.027 182.564 144.96 182.124 145.76C181.684 146.547 181.09 147.16 180.344 147.6C179.597 148.027 178.744 148.24 177.784 148.24ZM177.804 146.8C178.377 146.8 178.91 146.66 179.404 146.38C179.897 146.087 180.297 145.653 180.604 145.08C180.91 144.507 181.064 143.8 181.064 142.96C181.064 142.107 180.91 141.4 180.604 140.84C180.31 140.267 179.917 139.84 179.424 139.56C178.944 139.267 178.41 139.12 177.824 139.12C177.264 139.12 176.73 139.267 176.224 139.56C175.73 139.84 175.33 140.267 175.024 140.84C174.73 141.4 174.584 142.107 174.584 142.96C174.584 143.8 174.73 144.507 175.024 145.08C175.33 145.653 175.724 146.087 176.204 146.38C176.697 146.66 177.23 146.8 177.804 146.8ZM185.539 148V137.92H187.059L187.139 139.68C187.459 139.053 187.912 138.567 188.499 138.22C189.099 137.86 189.779 137.68 190.539 137.68C191.326 137.68 192.006 137.84 192.579 138.16C193.152 138.467 193.599 138.94 193.919 139.58C194.239 140.207 194.399 141.007 194.399 141.98V148H192.719V142.16C192.719 141.147 192.492 140.387 192.039 139.88C191.599 139.373 190.972 139.12 190.159 139.12C189.599 139.12 189.099 139.26 188.659 139.54C188.219 139.807 187.866 140.2 187.599 140.72C187.346 141.227 187.219 141.86 187.219 142.62V148H185.539Z" fill="white"/>
<g opacity="0.5">
<circle cx="1857.96" cy="139.958" r="7.29167" stroke="white" stroke-width="2"/>
<path d="M1867.33 149.333L1864.21 146.208" stroke="white" stroke-width="2" stroke-linecap="round"/>
</g>
<line opacity="0.25" x1="64" y1="201.5" x2="1888" y2="201.5" stroke="white"/>
<path d="M64 247.341C64 239.973 69.973 234 77.341 234H258.778C266.146 234 272.119 239.973 272.119 247.341V374.08H64V247.341Z" fill="#325949"/>
<path d="M196.794 334.261L195.742 335.314C195.405 335.648 187.287 343.55 168.06 343.55C148.832 343.55 140.715 335.648 140.377 335.314L139.325 334.261V307.488L156.565 318.597C159.989 320.814 163.981 321.996 168.06 321.999C172.139 321.996 176.13 320.814 179.554 318.597L196.794 307.488V334.261ZM168.06 264.531C170.762 264.531 173.406 265.313 175.674 266.781L211.161 289.672V332.775H203.978V294.306L175.674 312.56C173.407 314.032 170.762 314.816 168.06 314.816C165.357 314.816 162.711 314.032 160.444 312.56L124.957 289.672L160.444 266.781C162.712 265.313 165.357 264.531 168.06 264.531Z" fill="white"/>
<path d="M64 374.08H272.119V426.11C272.119 433.478 266.146 439.451 258.778 439.451H77.341C69.973 439.451 64 433.478 64 426.11V374.08Z" fill="#2D2D2D"/>
<path d="M122.465 414.006C121.145 414.006 119.991 413.706 119.005 413.106C118.018 412.506 117.251 411.666 116.705 410.586C116.158 409.506 115.885 408.246 115.885 406.806C115.885 405.379 116.158 404.119 116.705 403.026C117.265 401.932 118.058 401.079 119.085 400.466C120.125 399.839 121.351 399.526 122.765 399.526C124.351 399.526 125.678 399.912 126.745 400.686C127.811 401.446 128.498 402.506 128.805 403.866H126.525C126.325 403.092 125.905 402.486 125.265 402.046C124.625 401.592 123.785 401.366 122.745 401.366C121.758 401.366 120.898 401.586 120.165 402.026C119.445 402.466 118.891 403.092 118.505 403.906C118.118 404.719 117.925 405.686 117.925 406.806C117.925 407.939 118.118 408.912 118.505 409.726C118.891 410.539 119.438 411.159 120.145 411.586C120.851 412.012 121.665 412.226 122.585 412.226C123.998 412.226 125.058 411.819 125.765 411.006C126.485 410.192 126.905 409.106 127.025 407.746H123.165V406.206H129.045V413.766H127.225L127.045 411.626C126.725 412.146 126.351 412.586 125.925 412.946C125.511 413.292 125.025 413.559 124.465 413.746C123.905 413.919 123.238 414.006 122.465 414.006ZM131.578 413.766V403.686H133.378L133.558 405.586C133.785 405.132 134.078 404.752 134.438 404.446C134.798 404.126 135.218 403.879 135.698 403.706C136.192 403.532 136.752 403.446 137.378 403.446V405.566H136.658C136.245 405.566 135.852 405.619 135.478 405.726C135.105 405.819 134.772 405.986 134.478 406.226C134.198 406.466 133.978 406.792 133.818 407.206C133.658 407.619 133.578 408.132 133.578 408.746V413.766H131.578ZM142.555 414.006C141.728 414.006 141.042 413.866 140.495 413.586C139.948 413.306 139.542 412.932 139.275 412.466C139.008 411.986 138.875 411.472 138.875 410.926C138.875 410.259 139.048 409.692 139.395 409.226C139.742 408.746 140.235 408.379 140.875 408.126C141.515 407.872 142.282 407.746 143.175 407.746H145.795C145.795 407.159 145.708 406.672 145.535 406.286C145.362 405.899 145.102 405.612 144.755 405.426C144.422 405.226 143.995 405.126 143.475 405.126C142.875 405.126 142.362 405.272 141.935 405.566C141.508 405.846 141.242 406.266 141.135 406.826H139.135C139.215 406.119 139.455 405.519 139.855 405.026C140.268 404.519 140.795 404.132 141.435 403.866C142.075 403.586 142.755 403.446 143.475 403.446C144.422 403.446 145.215 403.612 145.855 403.946C146.495 404.279 146.975 404.752 147.295 405.366C147.628 405.966 147.795 406.686 147.795 407.526V413.766H146.055L145.895 412.066C145.748 412.332 145.575 412.586 145.375 412.826C145.175 413.066 144.935 413.272 144.655 413.446C144.388 413.619 144.075 413.752 143.715 413.846C143.368 413.952 142.982 414.006 142.555 414.006ZM142.935 412.386C143.362 412.386 143.748 412.299 144.095 412.126C144.442 411.952 144.735 411.719 144.975 411.426C145.228 411.119 145.415 410.779 145.535 410.406C145.668 410.019 145.742 409.626 145.755 409.226V409.166H143.375C142.802 409.166 142.335 409.239 141.975 409.386C141.628 409.519 141.375 409.706 141.215 409.946C141.055 410.186 140.975 410.466 140.975 410.786C140.975 411.119 141.048 411.406 141.195 411.646C141.355 411.872 141.582 412.052 141.875 412.186C142.168 412.319 142.522 412.386 142.935 412.386ZM154.828 414.006C153.868 414.006 153.021 413.779 152.288 413.326C151.554 412.859 150.981 412.232 150.568 411.446C150.168 410.646 149.968 409.739 149.968 408.726C149.968 407.699 150.168 406.792 150.568 406.006C150.981 405.219 151.554 404.599 152.288 404.146C153.034 403.679 153.888 403.446 154.848 403.446C155.634 403.446 156.328 403.606 156.928 403.926C157.528 404.232 157.994 404.672 158.328 405.246V399.366H160.328V413.766H158.528L158.328 412.206C158.128 412.512 157.868 412.806 157.548 413.086C157.228 413.352 156.841 413.572 156.388 413.746C155.934 413.919 155.414 414.006 154.828 414.006ZM155.148 412.266C155.774 412.266 156.328 412.119 156.808 411.826C157.288 411.532 157.654 411.119 157.908 410.586C158.174 410.052 158.308 409.432 158.308 408.726C158.308 408.019 158.174 407.406 157.908 406.886C157.654 406.352 157.288 405.939 156.808 405.646C156.328 405.339 155.774 405.186 155.148 405.186C154.548 405.186 154.008 405.339 153.528 405.646C153.048 405.939 152.674 406.352 152.408 406.886C152.141 407.406 152.008 408.019 152.008 408.726C152.008 409.432 152.141 410.052 152.408 410.586C152.674 411.119 153.048 411.532 153.528 411.826C154.008 412.119 154.548 412.266 155.148 412.266ZM166.763 414.006C165.976 414.006 165.289 413.846 164.703 413.526C164.129 413.206 163.683 412.726 163.363 412.086C163.056 411.446 162.903 410.639 162.903 409.666V403.686H164.903V409.446C164.903 410.392 165.109 411.106 165.523 411.586C165.936 412.066 166.529 412.306 167.303 412.306C167.823 412.306 168.289 412.179 168.703 411.926C169.129 411.672 169.463 411.306 169.703 410.826C169.943 410.346 170.063 409.759 170.063 409.066V403.686H172.063V413.766H170.283L170.143 412.046C169.836 412.659 169.389 413.139 168.803 413.486C168.216 413.832 167.536 414.006 166.763 414.006ZM178.141 414.006C177.314 414.006 176.628 413.866 176.081 413.586C175.534 413.306 175.128 412.932 174.861 412.466C174.594 411.986 174.461 411.472 174.461 410.926C174.461 410.259 174.634 409.692 174.981 409.226C175.328 408.746 175.821 408.379 176.461 408.126C177.101 407.872 177.868 407.746 178.761 407.746H181.381C181.381 407.159 181.294 406.672 181.121 406.286C180.948 405.899 180.688 405.612 180.341 405.426C180.008 405.226 179.581 405.126 179.061 405.126C178.461 405.126 177.948 405.272 177.521 405.566C177.094 405.846 176.828 406.266 176.721 406.826H174.721C174.801 406.119 175.041 405.519 175.441 405.026C175.854 404.519 176.381 404.132 177.021 403.866C177.661 403.586 178.341 403.446 179.061 403.446C180.008 403.446 180.801 403.612 181.441 403.946C182.081 404.279 182.561 404.752 182.881 405.366C183.214 405.966 183.381 406.686 183.381 407.526V413.766H181.641L181.481 412.066C181.334 412.332 181.161 412.586 180.961 412.826C180.761 413.066 180.521 413.272 180.241 413.446C179.974 413.619 179.661 413.752 179.301 413.846C178.954 413.952 178.568 414.006 178.141 414.006ZM178.521 412.386C178.948 412.386 179.334 412.299 179.681 412.126C180.028 411.952 180.321 411.719 180.561 411.426C180.814 411.119 181.001 410.779 181.121 410.406C181.254 410.019 181.328 409.626 181.341 409.226V409.166H178.961C178.388 409.166 177.921 409.239 177.561 409.386C177.214 409.519 176.961 409.706 176.801 409.946C176.641 410.186 176.561 410.466 176.561 410.786C176.561 411.119 176.634 411.406 176.781 411.646C176.941 411.872 177.168 412.052 177.461 412.186C177.754 412.319 178.108 412.386 178.521 412.386ZM189.879 413.766C189.239 413.766 188.686 413.666 188.219 413.466C187.752 413.266 187.392 412.932 187.139 412.466C186.886 411.999 186.759 411.366 186.759 410.566V405.386H185.019V403.686H186.759L186.999 401.166H188.759V403.686H191.619V405.386H188.759V410.586C188.759 411.159 188.879 411.552 189.119 411.766C189.359 411.966 189.772 412.066 190.359 412.066H191.519V413.766H189.879ZM193.964 413.766V403.686H195.964V413.766H193.964ZM194.984 401.786C194.598 401.786 194.278 401.666 194.024 401.426C193.784 401.186 193.664 400.879 193.664 400.506C193.664 400.146 193.784 399.852 194.024 399.626C194.278 399.386 194.598 399.266 194.984 399.266C195.358 399.266 195.671 399.386 195.924 399.626C196.178 399.852 196.304 400.146 196.304 400.506C196.304 400.879 196.178 401.186 195.924 401.426C195.671 401.666 195.358 401.786 194.984 401.786ZM203.424 414.006C202.478 414.006 201.624 413.786 200.864 413.346C200.118 412.906 199.524 412.292 199.084 411.506C198.658 410.706 198.444 409.786 198.444 408.746C198.444 407.679 198.664 406.752 199.104 405.966C199.544 405.166 200.144 404.546 200.904 404.106C201.664 403.666 202.518 403.446 203.464 403.446C204.424 403.446 205.278 403.666 206.024 404.106C206.771 404.546 207.358 405.159 207.784 405.946C208.224 406.732 208.444 407.659 208.444 408.726C208.444 409.792 208.224 410.719 207.784 411.506C207.358 412.292 206.764 412.906 206.004 413.346C205.244 413.786 204.384 414.006 203.424 414.006ZM203.424 412.286C203.971 412.286 204.464 412.152 204.904 411.886C205.358 411.619 205.718 411.226 205.984 410.706C206.264 410.172 206.404 409.512 206.404 408.726C206.404 407.939 206.271 407.286 206.004 406.766C205.738 406.232 205.378 405.832 204.924 405.566C204.484 405.299 203.998 405.166 203.464 405.166C202.931 405.166 202.438 405.299 201.984 405.566C201.531 405.832 201.164 406.232 200.884 406.766C200.618 407.286 200.484 407.939 200.484 408.726C200.484 409.512 200.618 410.172 200.884 410.706C201.164 411.226 201.524 411.619 201.964 411.886C202.418 412.152 202.904 412.286 203.424 412.286ZM210.797 413.766V403.686H212.597L212.717 405.406C213.037 404.806 213.49 404.332 214.077 403.986C214.664 403.626 215.337 403.446 216.097 403.446C216.897 403.446 217.584 403.606 218.157 403.926C218.73 404.246 219.177 404.732 219.497 405.386C219.817 406.026 219.977 406.832 219.977 407.806V413.766H217.977V408.006C217.977 407.072 217.77 406.366 217.357 405.886C216.944 405.406 216.344 405.166 215.557 405.166C215.037 405.166 214.57 405.292 214.157 405.546C213.744 405.786 213.41 406.146 213.157 406.626C212.917 407.106 212.797 407.692 212.797 408.386V413.766H210.797Z" fill="white"/>
<mask id="path-11-inside-1_1193_14714" fill="white">
<path d="M0 0H1920V80H0V0Z"/>
</mask>
<path d="M0 0H1920V80H0V0Z" fill="#325949"/>
<path d="M1920 80V79H0V80V81H1920V80Z" fill="#4C4C4C" mask="url(#path-11-inside-1_1193_14714)"/>
<path d="M82.107 26.0796C84.4946 25.9458 88.8176 25.8973 91.075 26.3159C99.8941 27.9518 98.8717 41.5435 97.6434 48.121C97.0738 51.171 95.5153 53.4126 92.9032 55.03C91.884 55.5665 89.7318 56.003 88.6655 55.9668C87.2669 55.9194 79.9016 56.1951 79.0879 55.439C79.1871 54.9963 79.9405 54.5411 80.3409 54.249C80.4739 45.7588 80.1948 37.1131 80.5112 28.6236C80.5395 27.8662 79.2151 27.236 79.1134 26.5205C79.5246 26.0774 81.4205 26.1081 82.107 26.0796ZM85.7389 51.5413C86.7019 51.3905 88.6385 51.5105 89.683 51.5456C90.37 51.0659 90.8134 50.7538 91.3175 50.0502C93.1835 46.6862 92.8686 40.7424 92.7227 36.914C92.6579 35.2121 92.0699 31.1519 90.0371 30.6044C88.8468 30.2838 87.0594 30.5138 85.7658 30.4517C85.8221 31.5156 85.8301 32.596 85.8183 33.6616C85.7521 39.6031 85.9469 45.6082 85.7389 51.5413Z" fill="white"/>
<path d="M56.824 19.0398C58.2575 19.2151 60.305 19.1666 61.7831 19.167L69.2717 19.1632C76.6427 19.1623 84.3623 19.281 91.7062 19.1034C91.8889 20.5169 93.0001 23.6575 92.6118 24.4074L92.3367 24.4884C91.6796 24.3755 91.3229 23.9649 90.765 23.5309C86.9556 23.2812 80.7585 23.4515 76.806 23.4792C76.9674 24.747 76.8071 29.8403 76.8053 31.4465L76.8023 49.6701C76.81 51.5852 76.8044 53.5002 76.7858 55.4152C76.7796 56.5122 76.7517 57.5903 76.8232 58.6877C76.8941 59.7758 77.8064 60.2328 78.6703 60.9317C75.5863 60.97 72.5019 60.9694 69.4179 60.9301C69.9113 60.5566 70.8735 60.1352 71.2419 59.7328C71.7913 58.9844 71.661 57.2179 71.6734 56.3536C71.8301 45.3918 71.4598 34.3226 71.7143 23.3728C67.186 23.5469 62.5157 23.2029 57.9783 23.4227C57.4049 23.4507 56.5108 24.7358 55.7172 24.3862C55.5087 23.7572 56.535 19.7819 56.824 19.0398Z" fill="white"/>
<path d="M61.418 51.8934C62.1756 51.2292 62.5608 50.9177 62.5893 49.8737C62.64 48.0089 62.6141 46.1004 62.6094 44.2349L62.5893 33.6722C62.5885 32.4572 62.3466 27.5444 63.1796 26.6301C63.5385 26.2362 68.8805 26.3019 69.3738 26.6361C69.5005 27.2329 68.631 27.55 68.1712 27.7931C67.9678 28.9365 68.0479 30.8323 68.0538 32.0363L68.0719 38.29L68.0673 48.5437C68.0673 50.124 68.0051 52.7457 68.1401 54.2717C68.5365 54.5315 69.2419 54.9124 69.4184 55.328C69.2266 56.1205 66.4363 56.1201 65.6464 56.2136C61.3283 56.725 54.7741 56.8384 52 52.7002V51.9157C52.3411 50.6555 52.2351 47.6134 52.234 46.2073L52.2197 34.4098C52.2184 33.2631 51.9091 27.3117 52.9335 26.6036C53.4161 26.2701 58.1518 26.3137 58.7623 26.5976C58.893 27.1139 57.975 27.6666 57.6104 28.0352C57.4336 32.3948 57.631 37.3914 57.563 41.8123C57.535 43.6358 57.448 49.1028 57.6145 50.6517C58.7488 52.2437 59.5121 52.3464 61.418 51.8934Z" fill="white"/>
<path d="M117.905 44.0467C121.243 43.5998 124.313 45.9364 124.772 49.272C125.23 52.6076 122.903 55.6853 119.568 56.1547C116.218 56.6262 113.122 54.2864 112.661 50.9349C112.201 47.5835 114.551 44.4957 117.905 44.0467ZM119.008 54.1954C121.714 53.2637 122.504 51.138 121.718 48.3198C121.283 46.7616 119.884 45.9521 118.271 46.0333C113.732 46.9964 114.731 54.2653 119.008 54.1954Z" fill="white"/>
<path d="M231.396 44.221C234.596 44.1299 240.184 43.3974 241.585 47.1143C242.547 49.6696 242.259 52.9592 240.106 54.8357C237.694 56.5233 234.244 56.0739 231.379 55.9832C231.508 55.7292 231.642 55.4641 231.73 55.1928C232.054 54.1878 232.034 45.6033 231.604 44.7801C231.52 44.6165 231.469 44.4687 231.417 44.2931L231.396 44.221ZM234.344 53.9497C236.105 53.9293 236.907 54.0902 238.349 52.9951C239.393 51.8156 239.485 50.87 239.411 49.3795C239.248 46.1877 236.782 46.1525 234.426 46.0646C234.433 47.6042 234.551 52.6536 234.344 53.9497Z" fill="white"/>
<path d="M211.036 26.1995C212.896 26.0545 215.665 26.2401 216.828 27.9119C217.338 28.6378 217.534 29.5387 217.371 30.4106C217.095 31.8169 216.15 32.5553 215.055 33.2816C215.715 35.418 216.257 36.6442 218.034 37.9928C216.886 38.0987 215.46 38.0714 214.286 38.0789C214.014 37.4671 213.751 36.8524 213.493 36.2346C213.119 35.3474 212.873 34.6712 212.575 33.7552L210.85 33.6863C210.888 34.6538 210.771 36.1797 210.942 36.9842L210.961 37.0675C211.06 37.5253 211.476 37.7994 211.846 38.1027C211.127 38.0812 208.219 38.2104 207.852 37.9188C207.972 37.5723 208.145 37.3535 208.352 37.0528C208.582 34.7858 208.578 28.4679 208.053 26.4805C208.463 26.333 210.479 26.2372 211.036 26.1995ZM210.889 31.586C212.006 31.5515 213.46 31.6854 214.38 31.1018C216.185 28.2229 212.772 28.1232 210.842 28.2052C210.908 29.4048 210.867 30.4105 210.889 31.586Z" fill="white"/>
<path d="M174.529 26.3254C175.222 26.3318 175.933 26.3127 176.613 26.4352L176.653 26.6223L176.116 27.0324C175.815 27.6699 175.99 36.5961 176.019 38.1081C175.378 38.1481 174.753 38.0925 174.112 38.0523C172.703 35.6254 170.285 32.7419 168.71 30.2817C168.607 32.2476 168.657 34.6608 168.729 36.664C168.733 36.7616 169.154 37.5524 169.246 37.8061C168.829 37.9849 168.17 37.9828 167.699 38.0101C167.089 38.0542 166.238 37.9928 165.609 37.9666C166.207 37.317 166.339 37.0067 166.38 36.1014C166.515 33.1686 166.388 30.1967 166.353 27.2606C166.351 27.0512 166.102 26.747 165.961 26.5957L165.891 26.5218L165.991 26.4045C166.764 26.3134 167.896 26.3702 168.704 26.3876C169.721 27.4201 172.707 31.8709 173.763 33.3174C173.653 31.4114 173.785 29.2767 173.724 27.3475C173.712 26.9683 173.401 26.7392 173.121 26.4874C173.406 26.3021 174.146 26.3366 174.529 26.3254Z" fill="white"/>
<path d="M132.756 30.8194C132.701 29.9842 132.699 28.9084 132.735 28.0739C132.777 27.0889 132.552 27.2385 132.346 26.4781C132.695 26.368 135.335 26.381 135.927 26.3674C135.855 26.4863 135.786 26.6071 135.72 26.7296C135.516 27.1142 135.436 27.3928 135.414 27.8348C135.267 30.719 135.467 33.618 135.361 36.5064C135.355 36.6885 135.738 37.6531 135.81 37.8935C135.511 38.1343 135.086 38.0845 134.683 38.0933C134.392 38.1413 132.479 38.0742 132.326 37.9413C133.227 36.406 132.896 34.6851 132.88 32.8837C131.528 32.9108 129.498 33.0004 128.211 32.874C128.219 34.2264 128.184 35.7125 128.322 37.0642C128.339 37.2317 128.669 37.6665 128.778 37.8791L128.664 38.0036C128.075 38.1527 125.89 38.1094 125.271 37.9938L125.228 37.7743C126.108 36.7451 125.561 29.2534 125.645 27.4683C125.664 27.0695 125.294 26.7254 125.016 26.4118C126.303 26.4157 127.59 26.4045 128.877 26.3783L128.264 27.2121C128.208 28.3859 128.221 29.6419 128.173 30.8428C129.534 30.814 131.442 30.728 132.756 30.8194Z" fill="white"/>
<path d="M248.231 44.2519C248.771 44.209 250.125 44.2192 250.628 44.3267C250.808 44.7235 250.335 44.8928 250.437 45.1308C251.645 47.9858 252.727 53.8954 254.794 55.9865C253.614 55.9074 252.033 55.9789 250.942 55.81C250.718 55.2896 251.403 55.0143 250.952 54.3183C250.636 54.0947 250.303 54.1702 249.909 54.1997C248.926 54.2454 246.684 53.8825 246.117 54.6001C246.066 55.0526 246.22 55.1562 246.387 55.6632L246.287 55.825C245.683 55.9763 243.656 55.9302 242.785 55.9844C244.713 53.8771 245.474 48.8703 246.707 46.1888C246.913 45.7425 246.661 44.919 246.948 44.3865C247.21 44.2254 247.868 44.2634 248.231 44.2519ZM247.074 52.1048C247.69 52.1666 248.341 52.2467 248.958 52.2541C249.417 52.2118 249.848 52.1715 250.304 52.1048C250.045 51.3928 248.819 47.4638 248.562 47.1757C248.051 48.7725 247.601 50.5699 247.074 52.1048Z" fill="white"/>
<path d="M207.134 44.3043C208.028 44.2805 210.081 44.1577 210.832 44.4058L210.837 44.4574L210.843 44.5362C210.852 44.637 210.859 44.7253 210.848 44.8263C210.843 44.8827 210.836 44.9391 210.832 44.9957C210.787 45.7456 213.644 53.6763 214.167 54.7304C214.405 55.2102 214.772 55.6125 215.125 56.0113C214.616 55.9689 211.64 55.8949 211.477 55.8484C211.139 55.1644 211.698 55.0605 211.266 54.1784L211.223 54.0938C209.368 54.2952 208.605 54.0804 206.961 54.1552C206.239 54.799 207.003 55.288 206.711 55.9029C206.088 56.0023 204.118 55.8695 203.236 55.8882C203.469 55.6311 203.944 55.0754 204.078 54.7232C205.245 51.6487 206.376 48.3793 207.298 45.223C207.368 44.9857 207.209 44.5255 207.134 44.3043ZM207.541 52.1462C208.163 52.1943 208.785 52.2315 209.408 52.2578L210.775 52.0988C210.528 51.4044 209.263 47.3626 208.977 47.1512C208.477 48.81 207.998 50.4751 207.541 52.1462Z" fill="white"/>
<path d="M282.039 44.2531C282.55 44.241 283.836 44.1691 284.232 44.3878C284.221 44.6553 284.22 44.9224 284.204 45.1894C284.161 45.8819 286.92 53.6147 287.421 54.6737C287.657 55.1739 288.039 55.59 288.402 56.0026C287.414 55.8871 285.458 56.0322 284.737 55.8521C284.461 55.1785 285.103 54.9203 284.637 54.2316C284.252 54.0218 283.981 54.1104 283.544 54.1787C282.362 54.2372 281.126 54.0403 280.268 54.1108C279.518 54.7152 280.375 55.3052 280.095 55.8192C279.027 56.0217 277.933 55.7624 276.621 56.0043L276.559 56.0163C278.33 53.4609 279.382 48.5996 280.535 45.6129C280.821 44.872 280.379 44.8298 280.544 44.3911C280.885 44.2391 281.63 44.2638 282.039 44.2531ZM280.736 52.1269C281.325 52.1719 282.035 52.2434 282.615 52.2614C283.058 52.2139 283.537 52.1528 283.98 52.1236C283.717 51.3224 282.546 47.4354 282.198 47.1414C281.737 48.7601 281.254 50.5382 280.736 52.1269Z" fill="white"/>
<path d="M179.658 44.2568C180.504 44.2397 183.022 44.0201 183.495 44.6313L183.164 44.9729C183.366 46.2498 186.039 53.1359 186.627 54.79C186.715 55.0351 187.367 55.7527 187.59 55.9956C186.098 55.7985 185.259 56.0245 183.929 55.893C183.454 55.4372 184.389 54.6688 183.515 54.0826C181.799 54.2143 177.725 53.326 179.591 55.9217C178.307 55.9045 176.896 55.8491 175.629 55.9873C177.308 54.036 178.619 48.2759 179.648 45.6188C179.841 45.1221 179.461 44.7392 179.658 44.2568ZM179.834 52.1015C180.438 52.1524 181.232 52.2427 181.823 52.2391C182.272 52.191 182.758 52.129 183.206 52.1057C182.763 51.1238 181.835 47.5841 181.5 47.1532C181.05 48.4399 180.382 51.1284 179.834 52.1015Z" fill="white"/>
<path d="M153.08 26.4192C153.729 26.3274 156.173 26.28 156.783 26.4532C156.671 26.7818 156.433 27.0425 156.302 27.3634C156.077 27.9123 156.157 34.5374 156.488 35.2794C156.654 35.6517 156.987 35.8789 157.364 36.0057C158.072 36.244 159.326 36.2538 159.996 35.9161C160.302 35.762 160.62 35.5381 160.717 35.1923C161.043 34.0381 161.074 27.8198 160.584 26.9364C160.5 26.7864 160.468 26.652 160.449 26.4821C160.788 26.3052 163.465 26.1969 163.708 26.6714L163.467 27.1638C163.347 29.412 163.334 34.0289 163.523 36.2287C159.74 38.8538 157.707 38.8876 153.823 36.5272C153.693 33.8096 153.969 30.5983 153.836 27.8419C153.791 26.9049 153.744 27.036 153.08 26.4192Z" fill="white"/>
<path d="M153.695 44.2295L161.991 44.2102C162.208 45.1705 162.283 45.914 162.586 46.9011C160.533 45.6434 159.039 46.5269 156.776 46.1437C156.753 46.9 156.784 47.7527 156.795 48.5171C158.525 48.2766 160.048 48.9445 161.767 47.9568C161.699 48.974 161.725 50.0644 161.73 51.0893C160.541 50.3441 158.118 50.2478 156.852 50.507L156.733 50.7085C156.724 51.7756 156.764 52.8688 156.791 53.9375C157.621 53.8167 160.462 53.8939 161.445 53.901C161.821 53.6446 162.226 53.3991 162.614 53.1564C162.502 53.8667 162.359 55.2108 162.059 55.795C161.729 55.9886 154.731 55.9742 153.948 55.8436C153.707 55.1131 154.309 54.8201 154.28 54.5608C154.083 52.8132 154.647 45.9891 154 44.7714C153.901 44.5888 153.8 44.4083 153.695 44.2295Z" fill="white"/>
<path d="M138.243 26.4416C139.759 26.4018 144.608 26.2072 146.188 26.5973C146.513 26.6774 146.747 28.5359 146.83 29.0732C145.309 28.0421 143.117 28.4308 141.122 28.4262C141.189 29.2523 141.217 29.9075 141.083 30.7265C142.933 30.6741 144.527 31.0878 146.056 30.1131C146.058 30.7203 146.135 32.4038 145.929 32.8862C145.452 33.0839 144.392 32.6306 143.707 32.6422C142.886 32.6561 142.079 32.6185 141.253 32.686L141.146 32.8738C141.267 33.8593 141.205 35.1431 141.186 36.1582C142.615 36.0434 144.002 36.2948 145.422 36.0659C146.316 35.9218 146.554 35.5782 147.168 34.9665C146.869 35.9194 146.619 37.0911 146.385 38.0769C145.259 37.9724 138.377 38.2349 138.084 37.687C138.249 37.4841 138.412 37.3224 138.593 37.1361C138.771 35.9639 138.646 27.2979 138.251 26.7254C138.239 26.7071 138.224 26.6902 138.211 26.6726L138.243 26.4416Z" fill="white"/>
<path d="M197.141 26.4099C199.742 26.335 202.664 26.4099 205.295 26.413C205.697 27.542 205.707 27.951 205.796 29.1268C205.645 28.9851 205.215 28.59 205.039 28.5561C203.666 28.2913 201.528 28.4336 200.099 28.4338C200.205 29.3225 200.265 29.8037 200.17 30.6931C202.084 30.6245 203.495 31.1453 205.109 30.1292C205.041 31.0301 205.095 32.4231 205.104 33.3599L204.083 32.6027C203.544 32.6345 200.44 32.5739 200.21 32.7475L200.196 33.7218C200.233 34.6253 200.278 35.2473 200.155 36.1408C201.621 36.0948 203.125 36.3084 204.571 36.069C205.255 35.9558 205.57 35.5718 206.034 35.0957C205.858 36.004 205.752 37.0906 205.64 38.022C204.812 38.089 197.889 38.0258 197.212 37.9133L197.127 37.7739C197.305 37.5446 197.416 37.4312 197.623 37.2276C197.85 36.5294 197.682 28.4336 197.678 27.2532C197.398 26.9011 197.332 26.8194 197.141 26.4099Z" fill="white"/>
<path d="M223.3 26.0731C224.144 25.9857 225.752 26.249 226.858 26.1938C226.938 26.6998 227.366 28.8399 227.148 29.1163C226.403 29.027 222.256 26.3315 222.073 29.1175C222.01 30.0703 224.35 30.6774 225.099 30.9889C226.601 31.6136 227.968 32.4746 227.952 34.3269C228.035 37.5542 225.652 38.3033 222.918 38.3459C221.779 38.292 220.689 38.0043 219.564 38.1516C219.389 37.4508 219.074 35.6902 219.294 35.0252L219.501 34.9251C219.886 35.0606 220.087 35.4367 220.329 35.781C224.371 37.5747 227.795 34.7959 222.941 33.0218C221.566 32.5196 219.478 31.5402 219.393 29.8546C219.253 27.1303 220.962 26.3212 223.3 26.0731Z" fill="white"/>
<path d="M192.597 43.9756C193.855 43.9227 195.137 44.2463 196.573 44.1648C196.696 45.21 196.8 46.2573 196.883 47.3064C195.956 46.6771 195.121 45.9452 193.949 45.8497C193.13 45.783 191.669 45.881 191.6 46.9936C192.028 48.6426 197.661 48.738 197.61 52.1974C197.561 55.503 195.717 56.102 192.82 56.221C191.609 56.2133 190.391 55.9106 189.239 56.2101C189.035 55.3001 188.872 53.2991 188.766 52.2992C190.174 53.8448 191.257 54.6274 193.382 54.2374C195.768 53.7993 195.33 51.9504 193.286 51.2504C190.736 50.3776 188.007 48.7193 189.502 45.6371C189.99 44.6328 191.6 44.2034 192.597 43.9756Z" fill="white"/>
<path d="M163.899 44.3327C164.449 44.2641 167.67 44.1851 167.983 44.4364C167.935 44.6878 167.816 44.8194 167.67 45.0295C167.717 45.3411 169.189 47.8977 169.418 48.3169C169.841 47.4168 170.575 46.134 170.894 45.1528C170.845 44.9143 170.804 44.7139 170.771 44.5517C171.124 44.122 173.883 44.2399 174.28 44.5018C172.8 46.1572 171.597 48.3188 170.514 50.2753C171.657 52.1464 172.744 54.5927 174.44 55.8571C173.486 55.9499 171.597 55.9825 170.645 55.9229C170.406 55.6124 170.756 55.1666 170.577 54.8124C170.11 53.888 169.569 52.9929 169.088 52.0714C168.639 52.9819 168.029 53.9525 167.559 54.8627C167.426 55.1217 167.593 55.3456 167.715 55.6046L167.643 55.7601C166.912 55.924 164.717 55.9356 163.799 55.97C165.544 54.2138 166.517 52.1719 167.708 50.0063C166.727 48.5851 165.853 46.8045 164.808 45.3845C164.458 44.9079 164.242 44.7862 163.899 44.3327Z" fill="white"/>
<path d="M186.22 26.3295C186.517 26.3104 187.631 26.3321 187.805 26.4941C187.756 26.6057 187.706 26.7179 187.659 26.8308C187.613 26.9463 187.462 27.3033 187.492 27.398C188.215 29.6732 189.219 33.2139 190.08 35.3114C190.691 32.6907 191.637 30.1568 192.3 27.548C192.495 26.7822 192.045 26.8579 192.145 26.4168C192.802 26.2886 194.775 26.3644 195.542 26.3756C194.764 27.3993 194.464 28.5227 194.052 29.729C193.283 31.9327 192.516 34.1502 191.747 36.3545C191.54 36.9492 191.602 37.1042 191.707 37.743C191.288 37.8866 188.381 37.9569 187.9 37.7869C187.975 37.5669 188.16 37.0372 188.087 36.8339C187.001 33.8213 186.037 30.7475 184.864 27.7672C184.654 27.2335 184.362 26.7867 184.021 26.3435C184.753 26.3766 185.486 26.3477 186.22 26.3295Z" fill="white"/>
<path d="M126.688 44.2159C128.973 44.3031 132.726 44.2767 134.978 44.1572C135.042 44.8728 135.293 45.9835 135.223 46.6494C134.841 46.7248 134.637 46.4182 134.312 46.347C132.844 46.0246 131.294 46.4489 129.779 46.2379C129.763 47.1196 129.752 47.6517 129.617 48.5181C131.413 48.5355 132.709 48.4989 134.486 48.3443L134.614 48.4917C134.725 49.3538 134.702 50.5001 134.479 51.3415C134.139 50.7801 133.891 50.6057 133.236 50.5587C132.091 50.4764 130.851 50.5516 129.701 50.5744C129.789 51.9372 129.591 53.2818 129.793 54.6275C129.897 55.319 130.181 55.5002 130.681 55.9548C129.565 55.8744 128.012 55.9799 126.884 55.8876C126.779 55.8791 126.843 55.7712 126.88 55.6244C127.102 54.7358 127.219 54.2586 127.21 53.3226C127.185 50.64 127.296 47.8536 127.034 45.1881C127.026 45.0988 126.756 44.4472 126.688 44.2159Z" fill="white"/>
<path d="M252.65 30.8952C253.064 29.8367 253.853 28.6596 254.339 27.6064C254.596 27.0465 254.146 26.9311 254.429 26.3992C255.258 26.2702 257.305 26.3349 258.228 26.3403C256.643 27.9693 256.008 29.645 254.785 31.6235C253.684 33.6231 253.827 34.9225 253.975 37.1645C253.978 37.1983 254.318 37.5903 254.367 37.9079C253.912 38.1713 251.36 38.1746 250.819 38.0105C250.737 37.5105 251.235 37.4558 251.274 36.8727C251.353 35.6811 251.305 34.3937 251.285 33.2013C250.319 31.4892 249.336 29.787 248.336 28.0947C248.063 27.6394 247.337 26.6793 247.211 26.4214C247.882 26.4035 250.466 26.2929 250.952 26.5111C250.907 28.2391 251.919 29.301 252.65 30.8952Z" fill="white"/>
<path d="M214.882 44.1848C217.941 44.3743 221.542 44.1426 224.682 44.2453C224.868 44.8866 225.376 46.0435 224.98 46.574C224.91 46.5917 221.518 46.3057 220.922 46.2958C221.151 47.993 220.99 51.7687 220.984 53.731V53.7994C221.004 55.0791 220.946 54.9997 221.826 55.9414C220.451 55.8957 219.074 55.9099 217.701 55.9843C217.915 55.6785 218.222 55.3192 218.461 55.0222C218.477 53.2688 218.468 51.5154 218.435 49.7623C218.422 48.7314 218.345 47.2151 218.523 46.2335C217.562 46.2355 216.438 46.1892 215.495 46.3105C214.976 46.3774 214.985 46.7353 214.466 46.7461L214.349 46.6156C214.297 45.9701 214.628 44.7821 214.882 44.1848Z" fill="white"/>
<path d="M141.675 44.1748C144.36 44.3606 148.699 44.2481 151.478 44.1995C151.813 45.2073 151.929 45.8483 152.12 46.9018C150.704 45.9991 149.421 46.2142 147.762 46.2415C147.873 48.669 147.811 51.4132 147.808 53.864C147.804 54.8033 148.213 55.4546 148.15 55.8489C147.924 55.9808 145.222 55.8776 144.658 55.878C144.799 55.6796 145.127 55.2161 145.154 54.9927C145.494 52.1732 144.983 49.0464 145.395 46.2088C143.462 46.2537 142.801 45.9708 141.121 46.8983C141.264 46.0512 141.411 44.9708 141.675 44.1748Z" fill="white"/>
<path d="M235.657 26.2676C239.114 26.3981 242.102 26.2876 245.477 26.3299L246.121 29.0138C244.537 28.0822 243.489 28.3848 241.641 28.3634C241.828 30.0483 241.745 34.3566 241.751 36.1645C241.745 36.6468 241.698 36.973 241.935 37.3868C242.207 37.5327 242.29 37.5473 242.443 37.8001L242.277 37.947C241.644 38.0574 239.082 38.1368 238.609 37.8161L238.595 37.658C238.769 37.538 238.957 37.4149 239.109 37.2696C239.407 36.9874 239.206 29.5614 239.26 28.328C237.568 28.3074 236.404 28.0814 235.043 29.0812C235.134 28.1225 235.167 27.0955 235.657 26.2676Z" fill="white"/>
<path d="M113.193 26.2698C116.222 26.4877 119.958 26.3557 123.056 26.3653C123.358 27.4189 123.447 27.986 123.562 29.0685C122.074 28.0814 120.997 28.3301 119.191 28.3285C119.359 30.6365 119.235 34.1773 119.22 36.5858C119.178 37.3064 119.605 37.4911 120.122 37.9012C118.481 38.0943 117.521 38.0702 115.875 37.9128C116.002 37.8087 116.636 37.2875 116.652 37.2072C117.151 34.6906 116.569 30.8656 116.865 28.3611C115.627 28.3379 114.647 28.3469 113.433 28.6461C113.125 28.7219 112.973 28.6475 112.749 28.4597C112.622 27.9481 113.022 26.8302 113.193 26.2698Z" fill="white"/>
<path d="M266.889 44.2246C267.644 44.2561 270.138 44.0341 270.549 44.3857C270.519 44.869 269.972 44.7429 269.938 45.4475C269.808 48.1405 270.228 51.257 269.901 53.9079C271.316 53.8115 273.157 53.8421 274.601 53.8337C275.009 53.5849 275.068 53.445 275.445 53.4894C275.664 53.9145 275.319 55.1513 275.21 55.6975C275.133 55.7529 275.038 55.8206 274.926 55.9004C272.418 56.049 268.952 55.7999 266.506 56.0278L267.345 55.0722C267.366 51.9727 267.376 48.858 267.375 45.7576C267.375 45.0144 266.838 44.9916 266.889 44.2246Z" fill="white"/>
<path d="M256.09 44.2033C256.883 44.2005 259.277 44.1294 259.865 44.3224L259.884 44.5131C259.741 44.6267 259.58 44.7407 259.452 44.8708C258.855 45.4772 259.237 52.4886 259.201 53.886C260.622 53.7131 262.34 53.8257 263.791 53.8703C264.158 53.6559 264.649 53.3047 265.014 53.0604C264.882 53.734 264.773 54.4403 264.657 55.1198C264.61 55.4608 264.615 55.5405 264.386 55.7905C263.939 55.9563 257.345 55.8988 256.321 55.9053L256.235 55.672C256.261 55.616 256.547 54.9965 256.547 55.0183C256.516 52.2919 257.14 46.5774 256.09 44.2033Z" fill="white"/>
<path d="M179.153 26.3225C179.952 26.3662 181.689 26.1512 182.377 26.4008C182.496 26.7687 182.012 26.918 182.011 27.2349C181.996 30.4339 181.948 33.6509 181.981 36.8533C181.988 37.541 182.538 37.3328 182.493 38.0258C181.402 38.0581 180.073 38.1327 179.005 38.0458C178.843 37.8885 178.928 37.8134 179.048 37.574C179.321 37.0272 179.327 36.8257 179.328 36.2256L179.298 30.4776C179.296 29.4882 179.349 28.5129 179.291 27.5225C179.244 26.7195 178.954 27.0571 178.887 26.4676L179.153 26.3225Z" fill="white"/>
<path d="M229.643 26.4255C230.261 26.3927 233.085 26.2621 233.457 26.4656C233.386 26.5954 233.081 27.0328 233.079 27.0479C232.827 28.3925 232.837 36.6074 233.111 37.3225C233.343 37.5285 233.489 37.6814 233.665 37.9433C232.834 38.2205 230.6 38.1002 229.619 38.0987C229.768 37.9138 230.309 37.2736 230.32 37.0621C230.469 33.8678 230.439 30.5347 230.356 27.3348C230.344 26.8809 229.978 26.7023 229.643 26.4255Z" fill="white"/>
<path d="M294.812 54.2283C298.139 51.747 292.635 50.9674 291.13 49.742C289.738 48.6085 289.603 46.6235 290.685 45.2705C292.279 43.2761 295.296 44.3065 297.36 44.1099L297.412 44.1046C297.465 44.7103 297.827 46.6095 297.561 47.0406C296.993 46.7408 295.557 45.8723 294.987 45.8336C294.256 45.784 292.921 45.9065 292.513 46.6164C292.365 48.7755 296.952 48.1159 298.461 51.4325V53.4364C296.802 57.6032 293.142 55.7436 290.147 56.1559C289.887 54.7511 289.789 53.6687 289.689 52.2638C291.425 54.3875 292.161 54.4064 294.812 54.2283Z" fill="white"/>
<path d="M1734.47 23.8636C1735.35 23.8668 1736.22 24.1149 1736.97 24.5813C1737.73 25.0478 1738.34 25.7141 1738.74 26.5061L1748.1 42.971C1748.47 43.6908 1748.64 44.4949 1748.61 45.304C1748.58 46.113 1748.34 46.9003 1747.91 47.5882C1747.48 48.2821 1746.88 48.8539 1746.17 49.2493C1745.45 49.6447 1744.65 49.8504 1743.84 49.846H1725.06C1724.24 49.8507 1723.44 49.6455 1722.73 49.2503C1722.01 48.8549 1721.41 48.2823 1720.98 47.5882C1720.56 46.9105 1720.32 46.1345 1720.28 45.3362C1720.24 44.538 1720.41 43.7431 1720.77 43.0286L1730.17 26.4759C1730.58 25.6867 1731.19 25.0248 1731.95 24.5638C1732.71 24.1027 1733.58 23.8604 1734.47 23.8636ZM1734.45 42.4065C1733.59 42.4065 1732.89 43.1056 1732.89 43.9661C1732.89 44.8265 1733.59 45.5247 1734.45 45.5247C1735.31 45.5244 1736 44.8264 1736 43.9661C1736 43.1057 1735.31 42.4068 1734.45 42.4065ZM1734.45 29.8704C1733.59 29.8704 1732.89 30.5675 1732.89 31.428V39.7376C1732.89 40.5981 1733.59 41.2962 1734.45 41.2962C1735.31 41.2959 1736 40.5979 1736 39.7376V31.428C1736 30.5677 1735.31 29.8706 1734.45 29.8704Z" fill="white"/>
<g clip-path="url(#clip0_1193_14714)">
<path d="M1747.9 54.7871C1751.63 54.7871 1754.65 51.7655 1754.65 48.0383C1754.65 44.3111 1751.63 41.2896 1747.9 41.2896C1744.17 41.2896 1741.15 44.3111 1741.15 48.0383C1741.15 51.7655 1744.17 54.7871 1747.9 54.7871Z" fill="#FF0000"/>
<path d="M1747.9 45.3388V48.0383M1747.9 50.7378H1747.91M1754.65 48.0383C1754.65 51.7655 1751.63 54.7871 1747.9 54.7871C1744.17 54.7871 1741.15 51.7655 1741.15 48.0383C1741.15 44.3111 1744.17 41.2896 1747.9 41.2896C1751.63 41.2896 1754.65 44.3111 1754.65 48.0383Z" stroke="white" stroke-width="1.68719" stroke-linecap="round" stroke-linejoin="round"/>
</g>
<path d="M1784.29 47.9192C1783.54 47.9192 1782.9 47.6605 1782.36 47.1431C1781.84 46.6032 1781.59 45.9621 1781.59 45.2197V29.0227C1781.59 28.2804 1781.84 27.6505 1782.36 27.1331C1782.9 26.5932 1783.54 26.3232 1784.29 26.3232H1805.88C1806.62 26.3232 1807.25 26.5932 1807.77 27.1331C1808.31 27.6505 1808.58 28.2804 1808.58 29.0227V45.2197C1808.58 45.9621 1808.31 46.6032 1807.77 47.1431C1807.25 47.6605 1806.62 47.9192 1805.88 47.9192H1784.29ZM1795.08 38.471L1805.88 31.7222V29.0227L1795.08 35.7715L1784.29 29.0227V31.7222L1795.08 38.471Z" fill="white"/>
<g clip-path="url(#clip1_1193_14714)">
<path d="M1808.58 53.1496C1812.31 53.1496 1815.33 50.1281 1815.33 46.4008C1815.33 42.6736 1812.31 39.6521 1808.58 39.6521C1804.85 39.6521 1801.83 42.6736 1801.83 46.4008C1801.83 50.1281 1804.85 53.1496 1808.58 53.1496Z" fill="#FF0000"/>
<path d="M1808.58 43.7013V46.4008M1808.58 49.1003H1808.59M1815.33 46.4008C1815.33 50.1281 1812.31 53.1496 1808.58 53.1496C1804.85 53.1496 1801.83 50.1281 1801.83 46.4008C1801.83 42.6736 1804.85 39.6521 1808.58 39.6521C1812.31 39.6521 1815.33 42.6736 1815.33 46.4008Z" stroke="white" stroke-width="1.68719" stroke-linecap="round" stroke-linejoin="round"/>
</g>
<g clip-path="url(#clip2_1193_14714)">
<path d="M1854.84 40C1858.47 40 1861.42 37.0996 1861.42 33.5218C1861.42 29.9441 1858.47 27.0437 1854.84 27.0437C1851.2 27.0437 1848.26 29.9441 1848.26 33.5218C1848.26 37.0996 1851.2 40 1854.84 40Z" fill="white"/>
<path d="M1854.84 42.1584C1849.39 42.1644 1844.97 46.5115 1844.97 51.8757C1844.97 52.472 1845.46 52.9553 1846.07 52.9553H1863.61C1864.22 52.9553 1864.71 52.472 1864.71 51.8757C1864.7 46.5115 1860.29 42.1644 1854.84 42.1584Z" fill="white"/>
</g>
<path fill-rule="evenodd" clip-rule="evenodd" d="M260.79 413.775L282.298 435.329C285 438.039 283.083 442.662 279.258 442.662L276.118 442.662L279.237 450.07C279.783 451.369 279.791 452.805 279.26 454.111C278.726 455.42 277.715 456.441 276.412 456.987C275.755 457.262 275.068 457.4 274.365 457.4C272.233 457.4 270.321 456.13 269.495 454.165L266.217 446.372L264.082 448.265C261.309 450.718 256.939 448.75 256.939 445.045V415.369C256.939 413.357 259.369 412.351 260.79 413.775Z" fill="white"/>
<path fill-rule="evenodd" clip-rule="evenodd" d="M259.504 417.031C259.504 416.695 259.912 416.526 260.148 416.765L280.437 437.097C281.543 438.206 280.758 440.097 279.193 440.097L272.255 440.093L276.872 451.063C277.455 452.449 276.803 454.042 275.42 454.622C274.032 455.204 272.441 454.555 271.862 453.172L267.198 442.078L262.426 446.305C261.359 447.25 259.712 446.591 259.522 445.249L259.504 444.989V417.031Z" fill="black"/>
<defs>
<clipPath id="clip0_1193_14714">
<rect width="16.197" height="16.197" fill="white" transform="translate(1739.8 39.9397)"/>
</clipPath>
<clipPath id="clip1_1193_14714">
<rect width="16.197" height="16.197" fill="white" transform="translate(1800.48 38.3022)"/>
</clipPath>
<clipPath id="clip2_1193_14714">
<rect width="26.3201" height="25.9126" fill="white" transform="translate(1841.68 27.0437)"/>
</clipPath>
</defs>
</svg>
