<svg width="651" height="76" viewBox="0 0 651 76" fill="none" xmlns="http://www.w3.org/2000/svg">
<path d="M153.557 17.9843C153.557 17.5171 153.557 16.3423 153.089 14.9269C152.625 13.52 149.792 14.6792 147.909 15.5001C145.69 16.4677 144.597 18.9184 144.123 20.8009C143.891 21.7205 144.583 22.6834 145.29 23.2814C145.998 23.8794 146.932 24.113 147.997 23.883C150.362 23.3724 152.368 21.2963 154.017 19.297C157.048 15.6218 156.854 11.1619 157.212 6.79528C157.3 5.72386 157.562 4.79247 157.566 4.77832C157.095 9.93044 157.329 17.503 157.682 19.9693C157.803 21.5015 157.803 23.6034 157.803 25.769M169.834 20.1074C169.367 21.5087 167.958 22.6976 165.722 23.2886C164.682 23.5634 163.719 23.1789 163.121 22.5915C161.884 21.3764 162.282 19.1732 162.87 17.2907C163.171 16.3245 163.691 15.4082 164.398 14.8102C165.804 13.6223 167.937 13.738 169.236 14.2051C169.793 14.4056 169.367 15.6063 168.779 16.4379C168.192 17.2695 167.258 17.9701 166.309 18.4478C165.361 18.9255 164.427 19.1591 163.464 19.3997M179.742 17.2763C180.442 16.5757 181.143 15.875 181.154 15.1638C181.164 14.4525 180.464 13.7519 179.636 13.6245C177.862 13.3516 176.21 15.1461 175.616 16.3244C174.147 19.2366 181.15 19.3924 182.212 21.0378C182.76 21.8877 182.573 23.1503 182.106 23.9854C181.638 24.8205 180.704 25.2876 179.522 25.5282C178.34 25.7689 176.939 25.7689 174.08 23.6457M186.819 15.1533C187.286 15.1533 187.527 16.0875 187.527 17.9701V22.2304M186.111 7.36816H186.819M196.019 14.4453C197.174 15.2148 197.867 16.3107 198.01 17.7253M198.01 17.7253C198.041 18.0281 198.046 18.3455 198.026 18.6774C197.967 19.6311 197.675 20.5599 197.088 21.3915C196.501 22.2231 195.566 22.9237 194.618 23.1678C193.67 23.412 192.736 23.1784 192.371 22.591C191.566 21.2933 192.948 19.1728 194.006 17.407C194.53 16.532 195.298 15.8748 196.009 15.8642C196.72 15.8536 197.421 16.5542 197.898 17.499C197.936 17.5741 197.974 17.6495 198.01 17.7253ZM198.01 17.7253C199.894 21.6274 200.032 26.5405 200.382 31.2959C200.532 33.3236 200.973 36.5967 200.74 40.7191C200.568 43.7509 198.857 45.5775 197.329 46.5224C195.566 46.533 193.67 45.8253 192.021 44.5337C191.306 43.7092 190.839 42.5415 191.065 39.2153M203.096 15.8609C203.563 16.328 204.037 17.5028 204.625 18.4511C206.546 21.5533 208.984 12.563 210.75 12.2056C211.572 12.0392 212.282 13.0159 212.643 14.1942C213.004 15.3726 213.004 17.0074 213.121 18.3167C213.238 19.6259 213.471 20.5601 215.127 21.5227M229.282 17.9842C228.347 19.626 225.517 21.7563 223.634 21.8766C222.681 21.9375 221.752 21.2962 221.153 20.5885C218.806 17.8109 221.023 14.2191 221.843 12.5701C222.256 11.7419 223.365 11.3883 224.197 11.498C225.028 11.6077 225.729 12.3083 225.739 13.1363C225.75 13.9643 225.049 14.8985 224.221 15.4965C223.393 16.0945 222.459 16.3281 220.789 16.5687M240.605 16.5687C240.605 15.6346 240.605 14.7004 240.021 14.2191C239.438 13.7379 238.27 13.7379 237.201 13.9714C236.133 14.205 235.198 14.6721 234.484 15.4966C233.769 16.321 233.302 17.4888 233.061 18.5574C232.82 19.6261 232.82 20.5603 233.404 21.1583C233.988 21.7563 235.156 21.9898 236.225 21.8766C240.375 21.4368 242.247 16.1158 243.433 12.3366C244.013 10.4851 244.144 7.15616 244.144 6.06982C244.144 12.2234 244.611 18.4442 245.319 20.6806C245.559 21.7492 245.559 22.6834 245.559 23.6459M266.083 23.6457C267.295 22.2332 269.554 18.9039 271.666 15.1445M271.666 15.1445C272.009 14.5338 272.349 13.9118 272.679 13.2848C274.39 10.0365 275.517 7.14179 275.404 5.6096C275.353 4.92019 274.123 4.77803 273.408 5.12482C271.84 5.88561 271.511 8.30249 271.157 10.5353C270.867 12.3676 271.122 13.8581 271.666 15.1445ZM271.666 15.1445C271.993 15.9183 272.425 16.6182 272.906 17.2741M272.906 17.2741C273.204 17.6815 273.521 18.0719 273.844 18.4525M272.906 17.2741C272.192 17.0528 271.261 17.5192 270.556 18.2317C269.848 18.9465 269.268 19.8598 269.147 20.829C268.914 22.7115 269.088 24.9065 270.577 26.1297C271.292 26.7171 272.226 26.9507 273.174 26.5862C274.123 26.2217 275.057 25.2876 275.644 24.3392C276.232 23.3909 276.869 22.3063 276.341 21.5084C276.081 21.1149 275.788 20.7318 275.476 20.3515M272.906 17.2741C272.908 17.2748 272.91 17.2755 272.912 17.2763C273.209 17.6594 273.519 18.0536 273.844 18.4525M273.844 18.4525C274.394 19.1021 274.96 19.7232 275.476 20.3515M273.844 18.4525C274.356 19.0823 274.901 19.7237 275.476 20.3515M275.476 20.3515C277.442 22.499 279.751 24.4863 282.229 25.2982C283.061 25.0682 283.762 24.3675 285.899 21.5226M309.961 17.2765C309.961 17.0429 309.961 16.8094 309.494 16.8058C308.074 16.7951 306.196 18.2106 304.664 20.0932C303.956 20.9627 303.832 21.9757 304.179 22.5737C304.526 23.1717 305.46 23.4053 306.408 23.292C307.357 23.1788 308.291 22.7117 309.006 22.004C311.859 19.1792 311.844 14.7004 312.672 10.4541C312.729 10.16 312.767 9.84379 312.793 9.54084M312.793 9.54084C312.886 8.40781 312.792 7.46 312.792 8.5433C312.792 8.78377 312.792 9.12541 312.793 9.54084ZM312.793 9.54084C312.795 11.4973 312.812 15.0904 312.909 17.4605C313.025 20.3338 313.259 21.268 313.5 24.3536M326.238 20.107C324.837 21.9754 323.181 23.1714 321.415 23.175C320.552 23.1767 319.883 22.2444 319.522 21.4163C319.161 20.5883 319.161 19.6541 319.511 18.7058C319.862 17.7574 320.562 16.8233 321.39 16.1085C322.218 15.3937 323.153 14.9266 323.634 15.2699C324.115 15.6131 324.115 16.7808 323.648 17.6159C323.181 18.451 322.247 18.9181 319.869 19.3993M331.192 15.8608C330.959 15.3938 330.725 14.9267 330.955 15.0364C333.758 16.3729 334.016 20.3336 335.428 21.1651C336.84 19.8948 337.795 17.7575 338.383 15.875C338.737 14.9266 339.204 13.9925 340.393 12.3223M351.009 21.5228C350.541 22.4569 349.367 23.1717 347.484 23.292C346.531 23.3529 345.602 22.7117 345.004 22.0039C344.406 21.2962 344.172 20.3621 344.168 19.4137C344.165 18.4654 344.398 17.5312 344.869 16.6996C345.34 15.8681 346.04 15.1675 346.868 14.8066C347.696 14.4456 348.631 14.4456 349.112 14.9127C349.593 15.3798 349.593 16.314 349.126 17.0287C348.659 17.7435 347.725 18.2106 345.347 19.3995M358.086 8.07628C358.086 7.60923 358.086 8.3028 357.969 10.1853C357.619 12.0678 357.378 15.5993 357.378 19.9588V23.646M366.578 15.8608C366.578 14.9266 367.512 13.7447 369.395 13.0335C370.282 12.6983 371.277 13.7235 371.875 14.5515C372.473 15.3796 372.707 16.3137 372.593 17.2621C372.36 19.2181 370.598 20.8077 368.715 21.7525C367.84 22.1917 366.833 21.7631 366.118 21.1757C365.403 20.5883 364.936 19.6541 364.812 18.7058C364.688 17.7574 364.922 16.8233 365.392 15.9917C365.863 15.1601 366.564 14.4595 367.286 13.7376M377.194 15.1534C377.427 14.9198 377.661 14.6863 377.781 15.1499C378.019 16.0658 378.111 17.0613 378.105 18.1039M378.105 18.1039C378.102 18.593 378.077 19.0924 378.035 19.5988M378.105 18.1039C378.219 18.1706 378.331 18.2338 378.439 18.2938M378.105 18.1039C378.038 18.0652 377.97 18.0253 377.901 17.9843M378.035 19.5988C377.788 22.5804 376.949 25.8046 376.489 28.5858C376.33 29.5502 376.019 30.4683 376.015 30.4825C375.323 33.2529 376.953 23.9007 377.898 20.1215C377.941 19.9473 377.987 19.773 378.035 19.5988ZM378.035 19.5988C378.154 19.1621 378.288 18.7261 378.439 18.2938M378.439 18.2938C378.877 17.0344 379.457 15.8074 380.251 14.6934C380.835 13.8742 381.893 13.5115 382.841 13.6212C383.79 13.7309 384.724 14.4315 385.088 15.2595C385.453 16.0876 385.219 17.0218 384.632 17.7366C384.044 18.4514 383.11 18.9184 382.162 19.159C381.288 19.3806 380.427 19.3982 378.439 18.2938ZM398.425 20.8149C397.491 22.2162 396.076 23.1716 394.193 23.4087C393.252 23.5271 392.311 23.1786 391.479 22.708C390.647 22.2374 389.947 21.5368 389.703 20.7087C389.204 19.0185 390.4 17.0499 391.574 15.4009C392.158 14.5816 393.216 14.219 394.048 14.3287C394.88 14.4384 395.58 15.139 395.474 15.9671C395.368 16.7951 394.434 17.7293 393.485 18.3273C392.537 18.9253 391.603 19.1588 390.64 18.6917M410.456 18.6918C410.433 18.5982 410.41 18.5045 410.386 18.4113M410.386 18.4113C410.172 17.5749 409.93 16.7752 409.402 16.3422C408.815 15.861 407.88 15.861 406.932 16.0945C405.984 16.3281 405.05 16.7952 404.335 17.5029C403.62 18.2106 403.153 19.1448 403.263 19.9763C403.372 20.8079 404.073 21.5085 404.901 21.8695C405.729 22.2304 406.663 22.2304 407.495 21.7633C408.824 21.0167 409.731 19.8451 410.386 18.4113ZM410.386 18.4113C411.567 15.8239 411.926 12.3823 412.459 9.04217C412.597 8.17943 412.623 7.18267 412.617 6.46267M412.617 6.46267C412.611 5.81718 412.58 5.39412 412.58 5.48947C412.591 5.82093 412.604 6.14525 412.617 6.46267ZM412.617 6.46267C412.86 12.4515 413.293 15.9772 413.404 18.4371C413.521 19.626 413.754 20.5602 413.995 22.2304M435.226 12.3224C435.459 11.8553 435.693 11.3882 435.58 11.6147C434.999 12.7753 434.518 15.1391 434.985 17.1454C435.314 18.5574 438.05 16.5757 439.345 15.9812C440.696 15.3612 441.588 18.6847 443.234 19.7463C444.084 20.2945 445.346 20.1072 446.065 19.6401C447.016 18.2388 447.257 16.3422 447.14 14.4597C447.024 13.5113 446.79 12.5771 446.549 10.1992M451.503 11.6147C451.737 12.0818 451.97 12.5489 452.091 13.2566C452.211 13.9644 452.211 14.8985 452.211 15.8469V19.3996M452.211 3.82959H452.919M461.412 5.95312C461.412 6.42023 461.645 7.82858 461.999 10.4153C462.119 11.8342 462.119 13.469 462.119 14.8951V18.692M457.873 11.6147C457.873 11.1477 458.807 10.6735 460.69 10.2029L463.521 9.49515C464.469 9.25807 465.403 9.02448 468.489 8.07617M472.027 4.5376C472.261 4.99768 472.735 9.23685 472.147 14.0705C471.736 17.4518 472.261 20.3338 472.731 21.2821C474.32 24.4839 476.5 14.2191 478.382 12.6869C479.252 11.9792 480.265 11.8554 480.863 12.3189C481.694 13.9502 482.169 16.0875 482.639 17.97C482.876 18.9184 483.11 19.8525 484.766 20.815M510.244 23.6459C510.251 22.7117 507.427 18.4796 504.826 14.4598C502.633 11.0705 501.992 6.91552 502.218 2.89925C502.266 2.04377 503.62 1.94738 504.568 2.29416C509.343 4.04043 510.003 9.71807 510.944 10.6664C513.246 12.9855 513.775 5.25241 515.304 4.07409C516.061 3.49049 517.066 3.36283 518.014 3.47605C518.963 3.58928 519.897 4.05636 520.612 4.76408C521.326 5.4718 521.794 6.406 521.917 7.35434C522.418 11.1883 519.218 14.8985 517.328 18.6777C516.854 19.6259 516.387 20.5604 515.796 21.3918C515.205 22.2234 514.504 22.924 513.075 25.769M540.675 3.82959C540.909 4.05601 541.383 10.6236 541.617 18.4367C541.712 21.6145 545.622 12.3292 547.151 11.2676C547.893 10.7524 548.913 10.9067 549.861 11.3738C551.967 12.4107 552.94 14.6717 553.294 16.671C553.481 17.7265 553.414 18.9038 553.064 19.8557C552.714 20.8076 552.013 21.5082 551.185 21.9859C550.357 22.4636 549.423 22.6972 548.474 22.4672C547.526 22.2372 546.592 21.5365 546.111 20.7085C545.629 19.8805 545.629 18.9463 544.922 17.9838M559.076 11.6148C558.843 13.2567 558.602 16.0876 559.423 17.7366C559.835 18.5648 560.944 18.9184 561.659 18.692C565.211 17.5664 564.971 12.8038 565.325 12.089C568.056 6.57247 567.569 31.8271 566.044 38.377C565.812 39.3706 564.752 39.9092 563.924 39.9198C563.096 39.9304 562.162 39.2298 561.447 38.4018C560.732 37.5738 560.265 36.6396 560.024 35.3409C559.784 34.0423 559.784 32.4074 561.199 28.6M590.923 26.4765C590.72 25.688 592.03 22.5496 593.65 18.6789M593.65 18.6789C593.949 17.964 594.259 17.2241 594.571 16.4695C596.699 11.3368 597.76 7.62306 598.588 3.72714C598.81 2.67868 598.708 1.49431 598.241 1.12629C597.774 0.758273 596.84 1.22535 596.008 2.1666C592.545 6.08683 593.287 10.6521 593.163 15.6061C593.136 16.6894 593.345 17.701 593.65 18.6789ZM593.65 18.6789C593.95 19.6428 594.342 20.5739 594.692 21.5084C595.469 23.585 597.519 24.8205 599.402 25.2946C600.661 25.612 601.826 24.6609 602.882 23.362M602.882 23.362C603.401 22.7234 603.894 22.0006 604.359 21.3032C605.993 18.8544 606.493 16.1085 606.026 14.6896C605.86 14.1858 604.625 15.139 603.91 15.967C602.523 17.5732 602.247 20.3265 602.714 22.9203C602.744 23.0906 602.802 23.2371 602.882 23.362ZM602.882 23.362C603.292 24.0065 604.288 24.0754 605.18 23.8828C609.832 22.8782 611.44 18.7058 612.618 17.0498C613.188 16.2483 613.57 19.6259 614.037 21.1581C614.258 21.8839 615.438 21.9896 616.503 21.5261C619.039 20.4225 620.406 17.7575 621.465 16.6924C622.459 15.6909 623.478 19.8524 623.828 22.0993C624.396 25.7406 627.484 16.3421 628.308 15.3938C630.382 13.0079 628.906 21.749 629.019 22.4638C629.837 27.6233 633.145 14.2189 633.853 13.3874C634.691 12.4028 634.094 18.4298 634.327 21.8552C634.515 24.6046 637.625 15.875 638.57 14.8028C642.239 10.6387 637.632 23.1644 637.866 24.1128C638.037 24.8095 638.265 24.8844 638.524 24.5772M638.524 24.5772C638.703 24.3646 638.898 23.969 639.099 23.4699M638.524 24.5772C638.493 24.6368 638.463 24.6967 638.432 24.7568C630.753 40.9705 623.898 56.1852 625.842 65.5458C626.549 68.9534 627.528 72.3836 630.102 73.9004C631.291 74.601 632.692 74.601 633.995 74.2401C635.297 73.8792 636.604 73.3331 637.409 72.4672C640.718 68.911 645.895 60.1063 647.668 47.0497C648.963 37.5098 650.604 26.7275 649.182 19.1375C648.701 16.5685 647.609 16.3986 646.818 17.2904C644.936 19.4136 641.712 27.676 640.576 24.9408C640.326 24.3381 642.037 19.9028 642.12 18.1267M638.524 24.5772C638.719 24.1974 638.911 23.8284 639.099 23.4699M639.099 23.4699C639.885 21.5225 640.775 18 641.284 17.6301C641.942 17.1523 642.152 17.4418 642.12 18.1267M639.099 23.4699C640.209 21.3554 641.201 19.6047 642.12 18.1267M642.12 18.1267C642.991 16.7252 643.798 15.5688 644.578 14.5799C645.41 13.5113 646.111 12.5771 646.832 11.6145M584.554 13.738C586.903 13.5044 594.405 11.629 602.809 8.91139C604.589 8.31691 606.224 7.84984 607.65 7.37567C609.076 6.9015 610.244 6.43439 612.862 5.95312M8.49169 21.4547C8.8516 21.4547 8.49714 21.9945 7.31924 22.9025C6.15951 23.7965 4.31994 23.636 2.77667 23.276C1.3412 22.9413 1.22249 20.7348 1.03979 19.2842C0.664868 16.3074 3.03297 14.1909 4.21088 13.0102C4.76676 12.4531 5.56874 12.3695 6.11951 12.6367C6.67029 12.9039 7.03022 13.6238 7.12566 14.3545C7.22109 15.0852 7.04114 15.8051 6.58852 16.3558C6.1359 16.9066 5.41606 17.2665 3.03841 18.1827M11.7637 12.184C12.1236 12.5385 13.2143 16.1649 14.5748 19.1724C14.8988 19.8886 15.5701 20.353 16.0281 20.1812C16.8461 19.1096 17.7568 17.1028 18.7548 15.1069L20.4889 11.6387M29.2142 18.7281C29.3941 18.908 29.5741 19.088 29.3069 19.4506C29.0396 19.8133 28.3198 20.3531 27.4991 20.6312C26.6784 20.9094 25.7786 20.9094 24.9551 20.6394C24.1317 20.3695 23.4119 19.8296 23.041 19.0116C22.2427 17.2505 23.0301 15.2816 23.8454 13.831C24.7073 12.2975 26.1167 11.2789 27.5673 11.0035C28.29 10.8663 29.0178 11.6279 29.2987 12.2659C29.5795 12.904 29.3996 13.6238 28.857 14.2646C28.3144 14.9053 27.4146 15.4452 26.5911 15.8133C25.7677 16.1814 25.0479 16.3613 24.3062 16.5467M34.1221 11.639C34.1221 11.8135 34.482 14.7146 35.21 17.6267C35.3927 18.3574 35.5726 19.0773 35.7553 18.9082C38.2077 16.6388 37.2086 13.1005 38.1139 11.8299C38.6592 11.2791 39.379 10.9192 40.1098 11.0937C40.8405 11.2682 41.5603 11.988 42.8473 14.3656M47.7551 11.6387C47.2098 13.9945 47.2098 16.5357 47.5697 18.4416C47.7369 19.3271 48.6494 19.8077 49.3802 19.8158C52.656 19.8525 53.3884 15.8268 53.841 15.096C55.1427 12.9945 55.3897 20.1676 56.7476 25.5227C57.9799 30.3827 56.4858 34.5315 55.2179 36.3475C54.6252 37.1964 53.5901 37.4436 52.6767 37.539C51.7632 37.6344 50.8635 37.4545 50.22 37.0018C49.5765 36.5492 49.2166 35.8294 48.8458 33.4518M63.0244 6.73115C63.0244 6.37124 63.2044 7.26558 63.477 9.62139C63.5697 10.8975 63.5697 12.3371 63.5697 13.9786V19.2737M60.2979 13.2746C60.6578 13.2746 61.563 12.9147 63.0136 12.3694C63.7443 12.184 64.4642 12.184 65.1949 12.094C65.9256 12.004 66.6455 11.8241 68.4778 11.6387M73.3857 5.64014C73.3857 5.99461 73.3857 11.0607 73.6557 16.9857C73.7572 19.2139 78.0974 13.6456 80.9194 13.5447C82.1001 14.3545 82.6563 15.9905 82.9262 17.8964C83.1962 18.7225 83.7361 19.2624 84.2923 19.8187M89.2001 13.8201C89.2001 13.6402 89.2001 13.4602 89.1101 13.7274C89.0202 13.9946 88.8402 14.7145 88.7475 15.4452C88.6548 16.1759 88.6548 16.8958 88.6548 17.6374M88.6548 7.27637L89.2001 7.82171M94.1079 17.6377C94.4678 17.9976 94.6532 16.7434 96.281 13.9213C96.7023 13.1909 97.3689 12.7406 98.007 12.4625C98.645 12.1844 99.3649 12.1844 99.9156 12.5443C100.826 13.6241 101.197 15.0856 101.287 16.5361C101.377 17.2669 101.557 17.9867 102.833 19.2737M109.922 15.456C109.854 15.3873 109.785 15.3186 109.736 15.2396M109.736 15.2396C109.657 15.1119 109.63 14.9576 109.74 14.7335C109.917 14.3709 110.457 13.831 111.095 13.5529C111.733 13.2747 112.453 13.2747 113.183 13.6347C113.914 13.9946 114.634 14.7144 115.005 15.7151C115.376 16.7158 115.376 17.9755 115.106 18.9843C115.053 19.181 114.988 19.37 114.912 19.5517M109.736 15.2396C109.079 15.933 108.561 16.7878 108.466 17.8337C108.286 19.8296 108.385 21.958 109.568 22.7307C110.119 23.0906 110.888 23.1966 111.569 22.8125C112.865 22.0818 114.274 21.0732 114.912 19.5517M109.736 15.2396C110.157 14.7955 110.635 14.4176 111.095 14.0982C111.666 13.7012 112.453 13.8201 113.003 14.18C114.23 14.9816 114.704 17.0184 114.912 19.5517M114.912 19.5517C115.142 22.3582 115.045 25.7739 115.283 28.7948C115.616 33.0253 115.196 36.353 114.653 37.8036C114.367 38.5676 113.75 39.2541 113.112 39.7149C112.474 40.1757 111.755 40.3557 111.024 40.2685C109.517 40.0885 108.292 38.7306 107.384 37.1901C107.016 36.3693 106.836 35.4696 106.743 34.6461C106.65 33.8227 106.65 33.1028 107.196 31.8159" stroke="white" stroke-width="2" stroke-linecap="round"/>
</svg>
