<svg width="1452" height="2335" viewBox="0 0 1452 2335" fill="none" xmlns="http://www.w3.org/2000/svg">
<g clip-path="url(#clip0_160_1540)">
<rect width="1451.02" height="2334.02" fill="url(#paint0_linear_160_1540)"/>
<path d="M1016.48 157.25C1016.48 160.272 1014.03 162.722 1011 162.722C1007.98 162.722 1005.53 160.272 1005.53 157.25C1005.53 154.227 1007.98 151.777 1011 151.777C1014.03 151.777 1016.48 154.227 1016.48 157.25Z" fill="#D9D9D9"/>
<path d="M858.322 184.663C858.322 187.686 855.871 190.136 852.849 190.136C849.826 190.136 847.376 187.686 847.376 184.663C847.376 181.641 849.826 179.191 852.849 179.191C855.871 179.191 858.322 181.641 858.322 184.663Z" fill="#D9D9D9"/>
<path d="M368.669 151.776C368.669 154.799 366.218 157.249 363.196 157.249C360.173 157.249 357.723 154.799 357.723 151.776C357.723 148.754 360.173 146.304 363.196 146.304C366.218 146.304 368.669 148.754 368.669 151.776Z" fill="#D9D9D9"/>
<path d="M1336.02 173.718C1336.02 176.741 1333.57 179.191 1330.55 179.191C1327.52 179.191 1325.07 176.741 1325.07 173.718C1325.07 170.696 1327.52 168.245 1330.55 168.245C1333.57 168.245 1336.02 170.696 1336.02 173.718Z" fill="#D9D9D9"/>
<path d="M58.8585 213.832C58.8585 216.855 56.4083 219.305 53.3858 219.305C50.3633 219.305 47.913 216.855 47.913 213.832C47.913 210.81 50.3633 208.36 53.3858 208.36C56.4083 208.36 58.8585 210.81 58.8585 213.832Z" fill="#D9D9D9"/>
<path d="M487.886 249.488C487.886 252.511 485.436 254.961 482.413 254.961C479.391 254.961 476.941 252.511 476.941 249.488C476.941 246.466 479.391 244.016 482.413 244.016C485.436 244.016 487.886 246.466 487.886 249.488Z" fill="#D9D9D9"/>
<path d="M906.982 408.648C906.982 411.671 904.532 414.121 901.509 414.121C898.487 414.121 896.037 411.671 896.037 408.648C896.037 405.626 898.487 403.175 901.509 403.175C904.532 403.175 906.982 405.626 906.982 408.648Z" fill="#D9D9D9"/>
<path d="M655.273 321.467C655.273 324.489 652.823 326.94 649.8 326.94C646.778 326.94 644.327 324.489 644.327 321.467C644.327 318.444 646.778 315.994 649.8 315.994C652.823 315.994 655.273 318.444 655.273 321.467Z" fill="#D9D9D9"/>
<path d="M745.673 397.703C745.673 400.725 743.223 403.175 740.201 403.175C737.178 403.175 734.728 400.725 734.728 397.703C734.728 394.68 737.178 392.23 740.201 392.23C743.223 392.23 745.673 394.68 745.673 397.703Z" fill="#D9D9D9"/>
<path d="M1439.35 349.838C1439.35 352.86 1436.9 355.31 1433.87 355.31C1430.85 355.31 1428.4 352.86 1428.4 349.838C1428.4 346.815 1430.85 344.365 1433.87 344.365C1436.9 344.365 1439.35 346.815 1439.35 349.838Z" fill="#D9D9D9"/>
<path d="M368.669 357.217C368.669 360.24 366.218 362.69 363.196 362.69C360.173 362.69 357.723 360.24 357.723 357.217C357.723 354.195 360.173 351.745 363.196 351.745C366.218 351.745 368.669 354.195 368.669 357.217Z" fill="#D9D9D9"/>
<path d="M58.8585 440.942C58.8585 443.964 56.4083 446.414 53.3858 446.414C50.3633 446.414 47.913 443.964 47.913 440.942C47.913 437.919 50.3633 435.469 53.3858 435.469C56.4083 435.469 58.8585 437.919 58.8585 440.942Z" fill="#D9D9D9"/>
<path d="M885.655 266.279C885.655 267.853 884.379 269.128 882.805 269.128C881.232 269.128 879.956 267.853 879.956 266.279C879.956 264.705 881.232 263.43 882.805 263.43C884.379 263.43 885.655 264.705 885.655 266.279Z" fill="#D9D9D9"/>
<path d="M1129 151.776C1129 153.35 1127.72 154.626 1126.15 154.626C1124.58 154.626 1123.3 153.35 1123.3 151.776C1123.3 150.203 1124.58 148.927 1126.15 148.927C1127.72 148.927 1129 150.203 1129 151.776Z" fill="#D9D9D9"/>
<path d="M639.592 200.949C639.592 202.523 638.316 203.798 636.743 203.798C635.169 203.798 633.893 202.523 633.893 200.949C633.893 199.375 635.169 198.1 636.743 198.1C638.316 198.1 639.592 199.375 639.592 200.949Z" fill="#D9D9D9"/>
<path d="M749.909 248.284C749.909 249.857 748.634 251.133 747.06 251.133C745.486 251.133 744.211 249.857 744.211 248.284C744.211 246.71 745.486 245.434 747.06 245.434C748.634 245.434 749.909 246.71 749.909 248.284Z" fill="#D9D9D9"/>
<path d="M938.466 165.571C938.466 167.145 937.191 168.421 935.617 168.421C934.043 168.421 932.768 167.145 932.768 165.571C932.768 163.998 934.043 162.722 935.617 162.722C937.191 162.722 938.466 163.998 938.466 165.571Z" fill="#D9D9D9"/>
<path d="M975.319 332.91C975.319 334.484 974.044 335.76 972.47 335.76C970.896 335.76 969.621 334.484 969.621 332.91C969.621 331.337 970.896 330.061 972.47 330.061C974.044 330.061 975.319 331.337 975.319 332.91Z" fill="#D9D9D9"/>
<path d="M479.79 165.571C479.79 167.145 478.514 168.421 476.941 168.421C475.367 168.421 474.091 167.145 474.091 165.571C474.091 163.998 475.367 162.722 476.941 162.722C478.514 162.722 479.79 163.998 479.79 165.571Z" fill="#D9D9D9"/>
<path d="M328.96 245.434C328.96 247.008 327.684 248.283 326.111 248.283C324.537 248.283 323.261 247.008 323.261 245.434C323.261 243.86 324.537 242.584 326.111 242.584C327.684 242.584 328.96 243.86 328.96 245.434Z" fill="#D9D9D9"/>
<path d="M519.655 313.145C519.655 314.719 518.379 315.994 516.806 315.994C515.232 315.994 513.956 314.719 513.956 313.145C513.956 311.571 515.232 310.296 516.806 310.296C518.379 310.296 519.655 311.571 519.655 313.145Z" fill="#D9D9D9"/>
<path d="M240.999 165.571C240.999 167.145 239.723 168.421 238.15 168.421C236.576 168.421 235.3 167.145 235.3 165.571C235.3 163.998 236.576 162.722 238.15 162.722C239.723 162.722 240.999 163.998 240.999 165.571Z" fill="#D9D9D9"/>
<path d="M1390.92 233.758C1390.92 235.332 1389.64 236.608 1388.07 236.608C1386.49 236.608 1385.22 235.332 1385.22 233.758C1385.22 232.184 1386.49 230.909 1388.07 230.909C1389.64 230.909 1390.92 232.184 1390.92 233.758Z" fill="#D9D9D9"/>
<path d="M1056.36 403.173C1056.36 404.747 1055.09 406.022 1053.51 406.022C1051.94 406.022 1050.66 404.747 1050.66 403.173C1050.66 401.599 1051.94 400.324 1053.51 400.324C1055.09 400.324 1056.36 401.599 1056.36 403.173Z" fill="#D9D9D9"/>
<path d="M1118.59 475.166C1118.59 478.189 1121.04 480.639 1124.06 480.639C1127.09 480.639 1129.54 478.189 1129.54 475.166C1129.54 472.144 1127.09 469.694 1124.06 469.694C1121.04 469.694 1118.59 472.144 1118.59 475.166Z" fill="#D9D9D9" fill-opacity="0.79"/>
<path d="M151.241 497.108C151.241 500.131 153.691 502.581 156.714 502.581C159.736 502.581 162.186 500.131 162.186 497.108C162.186 494.086 159.736 491.635 156.714 491.635C153.691 491.635 151.241 494.086 151.241 497.108Z" fill="#D9D9D9" fill-opacity="0.79"/>
<path d="M1428.4 537.222C1428.4 540.245 1430.85 542.695 1433.87 542.695C1436.9 542.695 1439.35 540.245 1439.35 537.222C1439.35 534.2 1436.9 531.75 1433.87 531.75C1430.85 531.75 1428.4 534.2 1428.4 537.222Z" fill="#D9D9D9" fill-opacity="0.79"/>
<path d="M999.375 572.878C999.375 575.901 1001.82 578.351 1004.85 578.351C1007.87 578.351 1010.32 575.901 1010.32 572.878C1010.32 569.856 1007.87 567.406 1004.85 567.406C1001.82 567.406 999.375 569.856 999.375 572.878Z" fill="#D9D9D9" fill-opacity="0.79"/>
<path d="M682.349 695.833C682.349 698.856 684.799 701.306 687.822 701.306C690.844 701.306 693.295 698.856 693.295 695.833C693.295 692.811 690.844 690.36 687.822 690.36C684.799 690.36 682.349 692.811 682.349 695.833Z" fill="#D9D9D9" fill-opacity="0.79"/>
<path d="M831.988 644.857C831.988 647.879 834.438 650.33 837.461 650.33C840.483 650.33 842.933 647.879 842.933 644.857C842.933 641.834 840.483 639.384 837.461 639.384C834.438 639.384 831.988 641.834 831.988 644.857Z" fill="#D9D9D9" fill-opacity="0.79"/>
<path d="M47.913 673.227C47.913 676.25 50.3633 678.7 53.3858 678.7C56.4083 678.7 58.8585 676.25 58.8585 673.227C58.8585 670.205 56.4083 667.755 53.3858 667.755C50.3633 667.755 47.913 670.205 47.913 673.227Z" fill="#D9D9D9" fill-opacity="0.79"/>
<path d="M1118.59 680.607C1118.59 683.63 1121.04 686.08 1124.06 686.08C1127.09 686.08 1129.54 683.63 1129.54 680.607C1129.54 677.585 1127.09 675.135 1124.06 675.135C1121.04 675.135 1118.59 677.585 1118.59 680.607Z" fill="#D9D9D9" fill-opacity="0.79"/>
<path d="M1428.4 764.331C1428.4 767.354 1430.85 769.804 1433.87 769.804C1436.9 769.804 1439.35 767.354 1439.35 764.331C1439.35 761.309 1436.9 758.859 1433.87 758.859C1430.85 758.859 1428.4 761.309 1428.4 764.331Z" fill="#D9D9D9" fill-opacity="0.79"/>
<path d="M601.606 589.669C601.606 591.242 602.882 592.518 604.455 592.518C606.029 592.518 607.305 591.242 607.305 589.669C607.305 588.095 606.029 586.819 604.455 586.819C602.882 586.819 601.606 588.095 601.606 589.669Z" fill="#D9D9D9" fill-opacity="0.79"/>
<path d="M358.262 475.166C358.262 476.74 359.538 478.016 361.111 478.016C362.685 478.016 363.961 476.74 363.961 475.166C363.961 473.593 362.685 472.317 361.111 472.317C359.538 472.317 358.262 473.593 358.262 475.166Z" fill="#D9D9D9" fill-opacity="0.79"/>
<path d="M847.669 524.339C847.669 525.912 848.944 527.188 850.518 527.188C852.092 527.188 853.367 525.912 853.367 524.339C853.367 522.765 852.092 521.489 850.518 521.489C848.944 521.489 847.669 522.765 847.669 524.339Z" fill="#D9D9D9" fill-opacity="0.79"/>
<path d="M737.351 571.673C737.351 573.247 738.627 574.523 740.201 574.523C741.774 574.523 743.05 573.247 743.05 571.673C743.05 570.1 741.774 568.824 740.201 568.824C738.627 568.824 737.351 570.1 737.351 571.673Z" fill="#D9D9D9" fill-opacity="0.79"/>
<path d="M548.794 488.961C548.794 490.535 550.07 491.811 551.644 491.811C553.217 491.811 554.493 490.535 554.493 488.961C554.493 487.388 553.217 486.112 551.644 486.112C550.07 486.112 548.794 487.388 548.794 488.961Z" fill="#D9D9D9" fill-opacity="0.79"/>
<path d="M511.941 656.3C511.941 657.874 513.217 659.15 514.791 659.15C516.364 659.15 517.64 657.874 517.64 656.3C517.64 654.726 516.364 653.451 514.791 653.451C513.217 653.451 511.941 654.726 511.941 656.3Z" fill="#D9D9D9" fill-opacity="0.79"/>
<path d="M1007.47 488.961C1007.47 490.535 1008.75 491.811 1010.32 491.811C1011.89 491.811 1013.17 490.535 1013.17 488.961C1013.17 487.388 1011.89 486.112 1010.32 486.112C1008.75 486.112 1007.47 487.388 1007.47 488.961Z" fill="#D9D9D9" fill-opacity="0.79"/>
<path d="M1158.3 568.824C1158.3 570.397 1159.58 571.673 1161.15 571.673C1162.72 571.673 1164 570.397 1164 568.824C1164 567.25 1162.72 565.974 1161.15 565.974C1159.58 565.974 1158.3 567.25 1158.3 568.824Z" fill="#D9D9D9" fill-opacity="0.79"/>
<path d="M967.606 636.535C967.606 638.109 968.882 639.384 970.455 639.384C972.029 639.384 973.305 638.109 973.305 636.535C973.305 634.961 972.029 633.685 970.455 633.685C968.882 633.685 967.606 634.961 967.606 636.535Z" fill="#D9D9D9" fill-opacity="0.79"/>
<path d="M1298.7 600.826C1298.7 602.4 1299.97 603.676 1301.55 603.676C1303.12 603.676 1304.4 602.4 1304.4 600.826C1304.4 599.253 1303.12 597.977 1301.55 597.977C1299.97 597.977 1298.7 599.253 1298.7 600.826Z" fill="#D9D9D9" fill-opacity="0.79"/>
<path d="M96.3429 557.148C96.3429 558.722 97.6186 559.997 99.1923 559.997C100.766 559.997 102.042 558.722 102.042 557.148C102.042 555.574 100.766 554.299 99.1923 554.299C97.6186 554.299 96.3429 555.574 96.3429 557.148Z" fill="#D9D9D9" fill-opacity="0.79"/>
<path d="M436.287 571.673C436.287 573.247 437.562 574.523 439.136 574.523C440.71 574.523 441.985 573.247 441.985 571.673C441.985 570.1 440.71 568.824 439.136 568.824C437.562 568.824 436.287 570.1 436.287 571.673Z" fill="#D9D9D9" fill-opacity="0.79"/>
<path d="M366.584 673.227C366.584 676.25 364.134 678.7 361.111 678.7C358.089 678.7 355.639 676.25 355.639 673.227C355.639 670.205 358.089 667.755 361.111 667.755C364.134 667.755 366.584 670.205 366.584 673.227Z" fill="#D9D9D9" fill-opacity="0.79"/>
<path d="M1303.91 770.398C1303.91 773.421 1301.46 775.871 1298.44 775.871C1295.42 775.871 1292.97 773.421 1292.97 770.398C1292.97 767.376 1295.42 764.925 1298.44 764.925C1301.46 764.925 1303.91 767.376 1303.91 770.398Z" fill="#D9D9D9" fill-opacity="0.79"/>
<path d="M26.7528 810.512C26.7528 813.535 24.3025 815.985 21.28 815.985C18.2575 815.985 15.8073 813.535 15.8073 810.512C15.8073 807.49 18.2575 805.04 21.28 805.04C24.3025 805.04 26.7528 807.49 26.7528 810.512Z" fill="#D9D9D9" fill-opacity="0.79"/>
<path d="M455.78 846.168C455.78 849.191 453.33 851.641 450.308 851.641C447.285 851.641 444.835 849.191 444.835 846.168C444.835 843.146 447.285 840.696 450.308 840.696C453.33 840.696 455.78 843.146 455.78 846.168Z" fill="#D9D9D9" fill-opacity="0.79"/>
<path d="M874.876 1005.33C874.876 1008.35 872.426 1010.8 869.404 1010.8C866.381 1010.8 863.931 1008.35 863.931 1005.33C863.931 1002.31 866.381 999.855 869.404 999.855C872.426 999.855 874.876 1002.31 874.876 1005.33Z" fill="#D9D9D9" fill-opacity="0.79"/>
<path d="M623.167 918.147C623.167 921.169 620.717 923.62 617.694 923.62C614.672 923.62 612.222 921.169 612.222 918.147C612.222 915.124 614.672 912.674 617.694 912.674C620.717 912.674 623.167 915.124 623.167 918.147Z" fill="#D9D9D9" fill-opacity="0.79"/>
<path d="M1407.24 946.518C1407.24 949.54 1404.79 951.99 1401.77 951.99C1398.75 951.99 1396.3 949.54 1396.3 946.518C1396.3 943.495 1398.75 941.045 1401.77 941.045C1404.79 941.045 1407.24 943.495 1407.24 946.518Z" fill="#D9D9D9" fill-opacity="0.79"/>
<path d="M336.563 953.897C336.563 956.92 334.113 959.37 331.09 959.37C328.068 959.37 325.617 956.92 325.617 953.897C325.617 950.875 328.068 948.425 331.09 948.425C334.113 948.425 336.563 950.875 336.563 953.897Z" fill="#D9D9D9" fill-opacity="0.79"/>
<path d="M26.7528 1037.62C26.7528 1040.64 24.3025 1043.09 21.28 1043.09C18.2575 1043.09 15.8073 1040.64 15.8073 1037.62C15.8073 1034.6 18.2575 1032.15 21.28 1032.15C24.3025 1032.15 26.7528 1034.6 26.7528 1037.62Z" fill="#D9D9D9" fill-opacity="0.79"/>
<path d="M853.549 862.959C853.549 864.533 852.273 865.808 850.7 865.808C849.126 865.808 847.85 864.533 847.85 862.959C847.85 861.385 849.126 860.109 850.7 860.109C852.273 860.109 853.549 861.385 853.549 862.959Z" fill="#D9D9D9" fill-opacity="0.79"/>
<path d="M1096.89 748.456C1096.89 750.03 1095.62 751.306 1094.04 751.306C1092.47 751.306 1091.19 750.03 1091.19 748.456C1091.19 746.883 1092.47 745.607 1094.04 745.607C1095.62 745.607 1096.89 746.883 1096.89 748.456Z" fill="#D9D9D9" fill-opacity="0.79"/>
<path d="M607.486 797.629C607.486 799.203 606.211 800.478 604.637 800.478C603.063 800.478 601.787 799.203 601.787 797.629C601.787 796.055 603.063 794.779 604.637 794.779C606.211 794.779 607.486 796.055 607.486 797.629Z" fill="#D9D9D9" fill-opacity="0.79"/>
<path d="M717.804 844.964C717.804 846.537 716.528 847.813 714.954 847.813C713.381 847.813 712.105 846.537 712.105 844.964C712.105 843.39 713.381 842.114 714.954 842.114C716.528 842.114 717.804 843.39 717.804 844.964Z" fill="#D9D9D9" fill-opacity="0.79"/>
<path d="M906.361 762.251C906.361 763.825 905.085 765.101 903.511 765.101C901.938 765.101 900.662 763.825 900.662 762.251C900.662 760.678 901.938 759.402 903.511 759.402C905.085 759.402 906.361 760.678 906.361 762.251Z" fill="#D9D9D9" fill-opacity="0.79"/>
<path d="M943.214 929.59C943.214 931.164 941.938 932.44 940.364 932.44C938.791 932.44 937.515 931.164 937.515 929.59C937.515 928.017 938.791 926.741 940.364 926.741C941.938 926.741 943.214 928.017 943.214 929.59Z" fill="#D9D9D9" fill-opacity="0.79"/>
<path d="M447.684 762.251C447.684 763.825 446.408 765.101 444.835 765.101C443.261 765.101 441.985 763.825 441.985 762.251C441.985 760.678 443.261 759.402 444.835 759.402C446.408 759.402 447.684 760.678 447.684 762.251Z" fill="#D9D9D9" fill-opacity="0.79"/>
<path d="M296.854 842.114C296.854 843.687 295.579 844.963 294.005 844.963C292.431 844.963 291.156 843.687 291.156 842.114C291.156 840.54 292.431 839.264 294.005 839.264C295.579 839.264 296.854 840.54 296.854 842.114Z" fill="#D9D9D9" fill-opacity="0.79"/>
<path d="M487.549 909.825C487.549 911.399 486.273 912.674 484.7 912.674C483.126 912.674 481.85 911.399 481.85 909.825C481.85 908.251 483.126 906.976 484.7 906.976C486.273 906.976 487.549 908.251 487.549 909.825Z" fill="#D9D9D9" fill-opacity="0.79"/>
<path d="M208.893 762.251C208.893 763.825 207.618 765.101 206.044 765.101C204.47 765.101 203.194 763.825 203.194 762.251C203.194 760.678 204.47 759.402 206.044 759.402C207.618 759.402 208.893 760.678 208.893 762.251Z" fill="#D9D9D9" fill-opacity="0.79"/>
<path d="M1358.81 830.438C1358.81 832.012 1357.54 833.287 1355.96 833.287C1354.39 833.287 1353.11 832.012 1353.11 830.438C1353.11 828.864 1354.39 827.589 1355.96 827.589C1357.54 827.589 1358.81 828.864 1358.81 830.438Z" fill="#D9D9D9" fill-opacity="0.79"/>
<path d="M1024.26 999.853C1024.26 1001.43 1022.98 1002.7 1021.41 1002.7C1019.83 1002.7 1018.56 1001.43 1018.56 999.853C1018.56 998.279 1019.83 997.004 1021.41 997.004C1022.98 997.004 1024.26 998.279 1024.26 999.853Z" fill="#D9D9D9" fill-opacity="0.79"/>
<path d="M1118.59 1666.36C1118.59 1663.33 1121.04 1660.88 1124.06 1660.88C1127.09 1660.88 1129.54 1663.33 1129.54 1666.36C1129.54 1669.38 1127.09 1671.83 1124.06 1671.83C1121.04 1671.83 1118.59 1669.38 1118.59 1666.36Z" fill="#D9D9D9" fill-opacity="0.37"/>
<path d="M151.241 1644.42C151.241 1641.39 153.691 1638.94 156.714 1638.94C159.736 1638.94 162.186 1641.39 162.186 1644.42C162.186 1647.44 159.736 1649.89 156.714 1649.89C153.691 1649.89 151.241 1647.44 151.241 1644.42Z" fill="#D9D9D9" fill-opacity="0.37"/>
<path d="M1428.4 1604.3C1428.4 1601.28 1430.85 1598.83 1433.87 1598.83C1436.9 1598.83 1439.35 1601.28 1439.35 1604.3C1439.35 1607.32 1436.9 1609.77 1433.87 1609.77C1430.85 1609.77 1428.4 1607.32 1428.4 1604.3Z" fill="#D9D9D9" fill-opacity="0.37"/>
<path d="M999.375 1568.64C999.375 1565.62 1001.82 1563.17 1004.85 1563.17C1007.87 1563.17 1010.32 1565.62 1010.32 1568.64C1010.32 1571.67 1007.87 1574.12 1004.85 1574.12C1001.82 1574.12 999.375 1571.67 999.375 1568.64Z" fill="#D9D9D9" fill-opacity="0.37"/>
<path d="M682.349 1445.69C682.349 1442.67 684.799 1440.22 687.822 1440.22C690.844 1440.22 693.295 1442.67 693.295 1445.69C693.295 1448.71 690.844 1451.16 687.822 1451.16C684.799 1451.16 682.349 1448.71 682.349 1445.69Z" fill="#D9D9D9" fill-opacity="0.37"/>
<path d="M831.988 1496.67C831.988 1493.64 834.438 1491.19 837.461 1491.19C840.483 1491.19 842.933 1493.64 842.933 1496.67C842.933 1499.69 840.483 1502.14 837.461 1502.14C834.438 1502.14 831.988 1499.69 831.988 1496.67Z" fill="#D9D9D9" fill-opacity="0.37"/>
<path d="M47.913 1468.3C47.913 1465.27 50.3633 1462.82 53.3858 1462.82C56.4083 1462.82 58.8585 1465.27 58.8585 1468.3C58.8585 1471.32 56.4083 1473.77 53.3858 1473.77C50.3633 1473.77 47.913 1471.32 47.913 1468.3Z" fill="#D9D9D9" fill-opacity="0.37"/>
<path d="M1118.59 1460.92C1118.59 1457.89 1121.04 1455.44 1124.06 1455.44C1127.09 1455.44 1129.54 1457.89 1129.54 1460.92C1129.54 1463.94 1127.09 1466.39 1124.06 1466.39C1121.04 1466.39 1118.59 1463.94 1118.59 1460.92Z" fill="#D9D9D9" fill-opacity="0.37"/>
<path d="M1428.4 1377.19C1428.4 1374.17 1430.85 1371.72 1433.87 1371.72C1436.9 1371.72 1439.35 1374.17 1439.35 1377.19C1439.35 1380.21 1436.9 1382.66 1433.87 1382.66C1430.85 1382.66 1428.4 1380.21 1428.4 1377.19Z" fill="#D9D9D9" fill-opacity="0.37"/>
<path d="M601.606 1551.85C601.606 1550.28 602.882 1549 604.455 1549C606.029 1549 607.305 1550.28 607.305 1551.85C607.305 1553.43 606.029 1554.7 604.455 1554.7C602.882 1554.7 601.606 1553.43 601.606 1551.85Z" fill="#D9D9D9" fill-opacity="0.37"/>
<path d="M358.262 1666.36C358.262 1664.78 359.538 1663.51 361.111 1663.51C362.685 1663.51 363.961 1664.78 363.961 1666.36C363.961 1667.93 362.685 1669.21 361.111 1669.21C359.538 1669.21 358.262 1667.93 358.262 1666.36Z" fill="#D9D9D9" fill-opacity="0.37"/>
<path d="M847.669 1617.18C847.669 1615.61 848.944 1614.33 850.518 1614.33C852.092 1614.33 853.367 1615.61 853.367 1617.18C853.367 1618.76 852.092 1620.03 850.518 1620.03C848.944 1620.03 847.669 1618.76 847.669 1617.18Z" fill="#D9D9D9" fill-opacity="0.37"/>
<path d="M737.351 1569.85C737.351 1568.28 738.627 1567 740.201 1567C741.774 1567 743.05 1568.28 743.05 1569.85C743.05 1571.42 741.774 1572.7 740.201 1572.7C738.627 1572.7 737.351 1571.42 737.351 1569.85Z" fill="#D9D9D9" fill-opacity="0.37"/>
<path d="M548.794 1652.56C548.794 1650.99 550.07 1649.71 551.644 1649.71C553.217 1649.71 554.493 1650.99 554.493 1652.56C554.493 1654.14 553.217 1655.41 551.644 1655.41C550.07 1655.41 548.794 1654.14 548.794 1652.56Z" fill="#D9D9D9" fill-opacity="0.37"/>
<path d="M511.941 1485.22C511.941 1483.65 513.217 1482.37 514.791 1482.37C516.364 1482.37 517.64 1483.65 517.64 1485.22C517.64 1486.8 516.364 1488.07 514.791 1488.07C513.217 1488.07 511.941 1486.8 511.941 1485.22Z" fill="#D9D9D9" fill-opacity="0.37"/>
<path d="M1007.47 1652.56C1007.47 1650.99 1008.75 1649.71 1010.32 1649.71C1011.89 1649.71 1013.17 1650.99 1013.17 1652.56C1013.17 1654.14 1011.89 1655.41 1010.32 1655.41C1008.75 1655.41 1007.47 1654.14 1007.47 1652.56Z" fill="#D9D9D9" fill-opacity="0.37"/>
<path d="M1158.3 1572.7C1158.3 1571.13 1159.58 1569.85 1161.15 1569.85C1162.72 1569.85 1164 1571.13 1164 1572.7C1164 1574.27 1162.72 1575.55 1161.15 1575.55C1159.58 1575.55 1158.3 1574.27 1158.3 1572.7Z" fill="#D9D9D9" fill-opacity="0.37"/>
<path d="M967.606 1504.99C967.606 1503.41 968.882 1502.14 970.455 1502.14C972.029 1502.14 973.305 1503.41 973.305 1504.99C973.305 1506.56 972.029 1507.84 970.455 1507.84C968.882 1507.84 967.606 1506.56 967.606 1504.99Z" fill="#D9D9D9" fill-opacity="0.37"/>
<path d="M1298.7 1540.7C1298.7 1539.12 1299.97 1537.85 1301.55 1537.85C1303.12 1537.85 1304.4 1539.12 1304.4 1540.7C1304.4 1542.27 1303.12 1543.55 1301.55 1543.55C1299.97 1543.55 1298.7 1542.27 1298.7 1540.7Z" fill="#D9D9D9" fill-opacity="0.37"/>
<path d="M96.3429 1584.38C96.3429 1582.8 97.6186 1581.53 99.1923 1581.53C100.766 1581.53 102.042 1582.8 102.042 1584.38C102.042 1585.95 100.766 1587.22 99.1923 1587.22C97.6186 1587.22 96.3429 1585.95 96.3429 1584.38Z" fill="#D9D9D9" fill-opacity="0.37"/>
<path d="M436.287 1569.85C436.287 1568.28 437.562 1567 439.136 1567C440.71 1567 441.985 1568.28 441.985 1569.85C441.985 1571.42 440.71 1572.7 439.136 1572.7C437.562 1572.7 436.287 1571.42 436.287 1569.85Z" fill="#D9D9D9" fill-opacity="0.37"/>
<path d="M366.584 1468.3C366.584 1465.27 364.134 1462.82 361.111 1462.82C358.089 1462.82 355.639 1465.27 355.639 1468.3C355.639 1471.32 358.089 1473.77 361.111 1473.77C364.134 1473.77 366.584 1471.32 366.584 1468.3Z" fill="#D9D9D9" fill-opacity="0.37"/>
<path d="M1303.91 1371.12C1303.91 1368.1 1301.46 1365.65 1298.44 1365.65C1295.42 1365.65 1292.97 1368.1 1292.97 1371.12C1292.97 1374.15 1295.42 1376.6 1298.44 1376.6C1301.46 1376.6 1303.91 1374.15 1303.91 1371.12Z" fill="#D9D9D9" fill-opacity="0.37"/>
<path d="M26.7528 1331.01C26.7528 1327.99 24.3025 1325.54 21.28 1325.54C18.2575 1325.54 15.8073 1327.99 15.8073 1331.01C15.8073 1334.03 18.2575 1336.48 21.28 1336.48C24.3025 1336.48 26.7528 1334.03 26.7528 1331.01Z" fill="#D9D9D9" fill-opacity="0.37"/>
<path d="M455.78 1295.35C455.78 1292.33 453.33 1289.88 450.308 1289.88C447.285 1289.88 444.835 1292.33 444.835 1295.35C444.835 1298.38 447.285 1300.83 450.308 1300.83C453.33 1300.83 455.78 1298.38 455.78 1295.35Z" fill="#D9D9D9" fill-opacity="0.37"/>
<path d="M874.876 1136.2C874.876 1133.17 872.426 1130.72 869.404 1130.72C866.381 1130.72 863.931 1133.17 863.931 1136.2C863.931 1139.22 866.381 1141.67 869.404 1141.67C872.426 1141.67 874.876 1139.22 874.876 1136.2Z" fill="#D9D9D9" fill-opacity="0.37"/>
<path d="M623.167 1223.38C623.167 1220.35 620.717 1217.9 617.694 1217.9C614.672 1217.9 612.222 1220.35 612.222 1223.38C612.222 1226.4 614.672 1228.85 617.694 1228.85C620.717 1228.85 623.167 1226.4 623.167 1223.38Z" fill="#D9D9D9" fill-opacity="0.37"/>
<path d="M1407.24 1195.01C1407.24 1191.98 1404.79 1189.53 1401.77 1189.53C1398.75 1189.53 1396.3 1191.98 1396.3 1195.01C1396.3 1198.03 1398.75 1200.48 1401.77 1200.48C1404.79 1200.48 1407.24 1198.03 1407.24 1195.01Z" fill="#D9D9D9" fill-opacity="0.37"/>
<path d="M336.563 1187.63C336.563 1184.6 334.113 1182.15 331.09 1182.15C328.068 1182.15 325.617 1184.6 325.617 1187.63C325.617 1190.65 328.068 1193.1 331.09 1193.1C334.113 1193.1 336.563 1190.65 336.563 1187.63Z" fill="#D9D9D9" fill-opacity="0.37"/>
<path d="M26.7528 1103.9C26.7528 1100.88 24.3025 1098.43 21.28 1098.43C18.2575 1098.43 15.8073 1100.88 15.8073 1103.9C15.8073 1106.92 18.2575 1109.37 21.28 1109.37C24.3025 1109.37 26.7528 1106.92 26.7528 1103.9Z" fill="#D9D9D9" fill-opacity="0.37"/>
<path d="M853.549 1278.56C853.549 1276.99 852.273 1275.71 850.7 1275.71C849.126 1275.71 847.85 1276.99 847.85 1278.56C847.85 1280.14 849.126 1281.41 850.7 1281.41C852.273 1281.41 853.549 1280.14 853.549 1278.56Z" fill="#D9D9D9" fill-opacity="0.37"/>
<path d="M1096.89 1393.07C1096.89 1391.49 1095.62 1390.22 1094.04 1390.22C1092.47 1390.22 1091.19 1391.49 1091.19 1393.07C1091.19 1394.64 1092.47 1395.92 1094.04 1395.92C1095.62 1395.92 1096.89 1394.64 1096.89 1393.07Z" fill="#D9D9D9" fill-opacity="0.37"/>
<path d="M607.486 1343.89C607.486 1342.32 606.211 1341.04 604.637 1341.04C603.063 1341.04 601.787 1342.32 601.787 1343.89C601.787 1345.47 603.063 1346.74 604.637 1346.74C606.211 1346.74 607.486 1345.47 607.486 1343.89Z" fill="#D9D9D9" fill-opacity="0.37"/>
<path d="M717.804 1296.56C717.804 1294.99 716.528 1293.71 714.954 1293.71C713.381 1293.71 712.105 1294.99 712.105 1296.56C712.105 1298.13 713.381 1299.41 714.954 1299.41C716.528 1299.41 717.804 1298.13 717.804 1296.56Z" fill="#D9D9D9" fill-opacity="0.37"/>
<path d="M906.361 1379.27C906.361 1377.7 905.085 1376.42 903.511 1376.42C901.938 1376.42 900.662 1377.7 900.662 1379.27C900.662 1380.85 901.938 1382.12 903.511 1382.12C905.085 1382.12 906.361 1380.85 906.361 1379.27Z" fill="#D9D9D9" fill-opacity="0.37"/>
<path d="M943.214 1211.93C943.214 1210.36 941.938 1209.08 940.364 1209.08C938.791 1209.08 937.515 1210.36 937.515 1211.93C937.515 1213.51 938.791 1214.78 940.364 1214.78C941.938 1214.78 943.214 1213.51 943.214 1211.93Z" fill="#D9D9D9" fill-opacity="0.37"/>
<path d="M447.684 1379.27C447.684 1377.7 446.408 1376.42 444.835 1376.42C443.261 1376.42 441.985 1377.7 441.985 1379.27C441.985 1380.85 443.261 1382.12 444.835 1382.12C446.408 1382.12 447.684 1380.85 447.684 1379.27Z" fill="#D9D9D9" fill-opacity="0.37"/>
<path d="M296.854 1299.41C296.854 1297.84 295.579 1296.56 294.005 1296.56C292.431 1296.56 291.156 1297.84 291.156 1299.41C291.156 1300.98 292.431 1302.26 294.005 1302.26C295.579 1302.26 296.854 1300.98 296.854 1299.41Z" fill="#D9D9D9" fill-opacity="0.37"/>
<path d="M487.549 1231.7C487.549 1230.12 486.273 1228.85 484.7 1228.85C483.126 1228.85 481.85 1230.12 481.85 1231.7C481.85 1233.27 483.126 1234.55 484.7 1234.55C486.273 1234.55 487.549 1233.27 487.549 1231.7Z" fill="#D9D9D9" fill-opacity="0.37"/>
<path d="M208.893 1379.27C208.893 1377.7 207.618 1376.42 206.044 1376.42C204.47 1376.42 203.194 1377.7 203.194 1379.27C203.194 1380.85 204.47 1382.12 206.044 1382.12C207.618 1382.12 208.893 1380.85 208.893 1379.27Z" fill="#D9D9D9" fill-opacity="0.37"/>
<path d="M1358.81 1311.08C1358.81 1309.51 1357.54 1308.24 1355.96 1308.24C1354.39 1308.24 1353.11 1309.51 1353.11 1311.08C1353.11 1312.66 1354.39 1313.93 1355.96 1313.93C1357.54 1313.93 1358.81 1312.66 1358.81 1311.08Z" fill="#D9D9D9" fill-opacity="0.37"/>
<path d="M1024.26 1141.67C1024.26 1140.1 1022.98 1138.82 1021.41 1138.82C1019.83 1138.82 1018.56 1140.1 1018.56 1141.67C1018.56 1143.24 1019.83 1144.52 1021.41 1144.52C1022.98 1144.52 1024.26 1143.24 1024.26 1141.67Z" fill="#D9D9D9" fill-opacity="0.37"/>
<path d="M590.664 403.302C590.664 406.325 588.213 408.775 585.191 408.775C582.168 408.775 579.718 406.325 579.718 403.302C579.718 400.279 582.168 397.829 585.191 397.829C588.213 397.829 590.664 400.279 590.664 403.302Z" fill="#D9D9D9"/>
<path d="M1425.94 1979.69C1522.5 1979.69 1602.86 2035.57 1619.84 2109.35C1671.14 2135.66 1706.25 2189.08 1706.25 2250.71C1706.25 2285.45 1695.09 2317.59 1676.15 2343.73H877.6C876.853 2338.85 876.465 2333.88 876.465 2328.85C876.465 2260.34 947.547 2204.81 1035.23 2204.81C1049.78 2204.81 1063.87 2206.34 1077.26 2209.21C1074.11 2199.47 1072.44 2189.27 1072.44 2178.77C1072.44 2110.26 1143.52 2054.73 1231.2 2054.73C1240.02 2054.73 1248.67 2055.29 1257.09 2056.37C1291.64 2010.41 1354.33 1979.69 1425.94 1979.69Z" fill="#1B1B70"/>
<path d="M342.907 2511.21C334.667 2512.04 326.272 2512.47 317.753 2512.47C309.234 2512.47 300.84 2512.04 292.6 2511.21H342.907ZM41.0731 2104.07C120.735 2104.07 188.368 2150 212.5 2213.8C243.089 2198.57 279.146 2189.78 317.753 2189.78C428.442 2189.78 518.174 2262.02 518.174 2351.13C518.174 2354.09 518.074 2357.03 517.879 2359.95H-105.519C-127.09 2333.38 -139.81 2300.72 -139.81 2265.41C-139.809 2176.3 -58.8252 2104.07 41.0731 2104.07Z" fill="#1B1B70"/>
<path d="M22.8879 2204.39C-27.5758 2204.39 -70.77 2232.84 -88.5593 2273.15C-98.7958 2268.67 -110.161 2266.17 -122.127 2266.17C-164.153 2266.17 -198.75 2296.97 -203.166 2336.53H278.922C267.916 2317.54 228.915 2303.5 182.49 2303.5C168.372 2303.5 154.94 2304.8 142.773 2307.14C138.78 2249.78 86.6312 2204.39 22.8879 2204.39Z" fill="#534AAE"/>
<path d="M936.085 2225.32C980.492 2225.32 1018.5 2250.36 1034.16 2285.83C1043.17 2281.89 1053.17 2279.69 1063.7 2279.69C1100.68 2279.69 1131.13 2306.79 1135.01 2341.61H710.775C720.462 2324.89 754.782 2312.54 795.634 2312.54C808.059 2312.54 819.879 2313.68 830.586 2315.74C834.099 2265.27 879.99 2225.32 936.085 2225.32Z" fill="#534AAE"/>
<path d="M1469.73 2204.39C1409.34 2204.39 1357.64 2238.44 1336.35 2286.69C1324.1 2281.32 1310.5 2278.33 1296.18 2278.33C1245.88 2278.33 1204.48 2315.19 1199.19 2362.54H1776.15C1762.98 2339.81 1716.31 2323 1660.75 2323C1643.85 2323 1627.77 2324.56 1613.21 2327.36C1608.43 2258.71 1546.02 2204.39 1469.73 2204.39Z" fill="#534AAE"/>
</g>
<defs>
<linearGradient id="paint0_linear_160_1540" x1="725.508" y1="0" x2="725.508" y2="2334.02" gradientUnits="userSpaceOnUse">
<stop stop-color="#001433"/>
<stop offset="1" stop-color="#003D99"/>
</linearGradient>
<clipPath id="clip0_160_1540">
<rect width="1451.02" height="2334.02" fill="white"/>
</clipPath>
</defs>
</svg>
