<svg width="188" height="130" viewBox="0 0 188 130" fill="none" xmlns="http://www.w3.org/2000/svg">
<g filter="url(#filter0_d_160_3583)">
<path d="M172.653 66.0004L172.71 69.6591L173.022 89.7653L173.038 90.8231L172.4 91.6674L169.133 95.99L164.748 101.79L163.64 94.604L160.068 71.4204L159.616 68.4873L172.653 66.0004Z" fill="black" stroke="white" stroke-width="6.14975"/>
<path d="M153.466 76.481L171.311 73.8032L173.59 79.3196L171.766 76.8442C173.59 79.3196 173.59 79.3205 173.59 79.3208L173.589 79.3211C173.588 79.322 173.586 79.324 173.584 79.3255C173.58 79.3286 173.573 79.3328 173.565 79.3386C173.549 79.3502 173.527 79.3675 173.497 79.3894C173.437 79.4333 173.348 79.4973 173.233 79.581C173.003 79.7483 172.666 79.9927 172.231 80.3046C171.361 80.9287 170.1 81.8235 168.531 82.9114C165.395 85.0861 161.019 88.0396 156.056 91.1518C146.236 97.3102 133.754 104.329 124.033 106.946C114.532 109.504 99.8778 110.958 87.8095 111.782C81.7313 112.197 76.2327 112.457 72.2541 112.612C70.2641 112.69 68.6525 112.743 67.537 112.776C66.9796 112.792 66.5459 112.803 66.2506 112.81C66.103 112.814 65.9896 112.817 65.913 112.819C65.8747 112.82 65.8455 112.821 65.8256 112.821C65.816 112.821 65.8085 112.821 65.8034 112.821C65.801 112.821 65.7988 112.821 65.7974 112.822L65.7953 112.821C65.7948 112.818 65.7923 112.724 65.7292 109.747L65.7944 112.821L60.7586 112.928L62.9654 108.4L65.7904 102.605L66.486 101.176L68.0549 100.918L68.0558 100.918C68.0567 100.917 68.0582 100.918 68.0599 100.917C68.0636 100.917 68.0697 100.916 68.0774 100.915C68.0929 100.912 68.1168 100.908 68.148 100.903C68.2102 100.892 68.3035 100.876 68.4257 100.856C68.6706 100.815 69.0328 100.755 69.5009 100.676C70.4379 100.518 71.7992 100.287 73.4912 99.9937C76.8757 99.4066 81.5828 98.5706 86.872 97.5789C97.4769 95.5907 110.328 92.9906 119.562 90.5089C128.736 88.0435 136.95 84.6311 142.88 81.8255C145.84 80.4251 148.219 79.1814 149.852 78.2919C150.668 77.8473 151.297 77.4913 151.718 77.2491C151.928 77.1282 152.087 77.0351 152.19 76.9741C152.242 76.9436 152.28 76.9212 152.304 76.9068C152.316 76.8998 152.325 76.8949 152.33 76.8919C152.332 76.8908 152.333 76.8902 152.334 76.8897L152.859 76.5719L153.466 76.481Z" fill="#342EA7" stroke="white" stroke-width="6.14975"/>
<path d="M49.2848 96.3362L49.2926 96.3392C49.2924 96.3396 49.292 96.3405 49.2914 96.342C49.2901 96.3454 49.2877 96.3516 49.2843 96.3605C49.2775 96.3782 49.2669 96.4069 49.2524 96.4456C49.2234 96.523 49.1796 96.641 49.1241 96.7943C49.0128 97.1015 48.8555 97.5492 48.6747 98.0959C48.3108 99.1963 47.864 100.667 47.5133 102.193C47.1553 103.751 46.9325 105.218 46.9393 106.355C46.9424 106.861 46.9896 107.173 47.0292 107.35C47.1603 107.358 47.3619 107.357 47.6555 107.318C48.4803 107.209 49.5324 106.871 50.67 106.38C51.7779 105.902 52.8233 105.342 53.6027 104.893C53.9886 104.671 54.3009 104.479 54.5126 104.347C54.6179 104.281 54.698 104.231 54.7493 104.198C54.775 104.181 54.7937 104.169 54.8044 104.162C54.8098 104.158 54.8136 104.156 54.8151 104.155L54.8137 104.155L61.4588 99.7541L59.491 107.478L56.5114 106.719C59.4069 107.457 59.4884 107.479 59.4904 107.481L59.4899 107.483C59.4895 107.484 59.4893 107.487 59.4888 107.488C59.488 107.491 59.487 107.495 59.4861 107.499C59.484 107.507 59.481 107.516 59.4782 107.527C59.4726 107.548 59.4654 107.574 59.4569 107.604C59.4399 107.665 59.4171 107.745 59.3877 107.84C59.3289 108.031 59.2435 108.289 59.128 108.597C58.8985 109.21 58.5412 110.043 58.0177 110.948C56.9919 112.723 55.1857 115.021 52.229 116.266C47.3962 118.301 43.1361 117.747 40.273 114.828C37.6941 112.199 36.9403 108.306 37.2259 105.056L37.26 104.77C37.356 104.108 37.5712 103.49 37.7693 103.004C38.0124 102.407 38.3205 101.791 38.647 101.197C39.3006 100.008 40.1232 98.734 40.9011 97.5941C41.6854 96.4451 42.4575 95.3846 43.0316 94.6145C43.3195 94.2283 43.5605 93.9121 43.7297 93.6913C43.814 93.5812 43.8804 93.4943 43.9269 93.4343C43.9501 93.4042 43.9692 93.3806 43.9819 93.3643C43.988 93.3565 43.9923 93.3499 43.9959 93.3454L44.0023 93.3381L44.0022 93.3367L49.2848 96.3362ZM53.5345 105.947L53.5351 105.946L53.5345 105.947Z" fill="black" stroke="white" stroke-width="6.14975"/>
<path d="M39.4107 80.4587L113.806 70.5318L117.32 70.0632L117.288 73.6087L117.126 90.9222L117.11 92.6531L115.621 93.5375L115.619 93.5379C115.618 93.5386 115.617 93.5396 115.615 93.5407C115.611 93.543 115.606 93.5466 115.599 93.5507C115.585 93.5593 115.563 93.5715 115.535 93.5877C115.481 93.6201 115.4 93.6684 115.295 93.73C115.085 93.8533 114.778 94.0328 114.382 94.262C113.591 94.7209 112.448 95.3778 111.035 96.1731C108.21 97.7626 104.297 99.9105 99.9449 102.141C91.3767 106.532 80.6605 111.483 73.2733 112.852C65.8691 114.223 58.5296 112.931 53.172 111.386C50.4691 110.607 48.2101 109.745 46.6201 109.076C45.8241 108.74 45.1922 108.451 44.7523 108.243C44.5323 108.139 44.3596 108.054 44.2385 107.994C44.1782 107.964 44.131 107.939 44.0965 107.922C44.0795 107.913 44.0653 107.906 44.0547 107.901C44.0494 107.898 44.0441 107.895 44.0404 107.894C44.0388 107.893 44.0373 107.892 44.036 107.891L44.0338 107.89L45.452 105.162L44.0326 107.889L42.8197 107.258L42.476 105.936L36.8412 84.2813L35.9662 80.9189L39.4107 80.4587Z" fill="#99C2FF" stroke="white" stroke-width="6.14975"/>
<mask id="path-5-outside-1_160_3583" maskUnits="userSpaceOnUse" x="25.5845" y="28.9567" width="99.6029" height="80.5249" fill="black">
<rect fill="white" x="25.5845" y="28.9567" width="99.6029" height="80.5249"/>
<path d="M63.8449 45.783C73.4739 41.7899 97.8823 46.4649 100.266 47.4819C102.65 48.4987 116.101 70.8372 113.83 74.3677C111.56 77.8979 84.1796 91.1826 72.1001 95.2987C60.0208 99.4146 45.5719 100.382 40.5986 86.1664C35.6254 71.9507 54.216 49.7764 63.8449 45.783Z"/>
</mask>
<path d="M63.8449 45.783C73.4739 41.7899 97.8823 46.4649 100.266 47.4819C102.65 48.4987 116.101 70.8372 113.83 74.3677C111.56 77.8979 84.1796 91.1826 72.1001 95.2987C60.0208 99.4146 45.5719 100.382 40.5986 86.1664C35.6254 71.9507 54.216 49.7764 63.8449 45.783Z" fill="#342F91"/>
<path d="M63.8449 45.783L61.4892 40.1023L61.489 40.1024L63.8449 45.783ZM100.266 47.4819L102.68 41.8254L102.679 41.8253L100.266 47.4819ZM113.83 74.3677L119.003 77.6942L119.003 77.6938L113.83 74.3677ZM72.1001 95.2987L74.0836 101.12L74.0836 101.12L72.1001 95.2987ZM40.5986 86.1664L34.7938 88.1972L34.7938 88.1972L40.5986 86.1664ZM63.8449 45.783L66.2006 51.4636C67.5616 50.8992 69.9934 50.4686 73.4421 50.368C76.7569 50.2712 80.4934 50.4887 84.1316 50.8699C87.7537 51.2494 91.1652 51.7792 93.793 52.2707C95.1078 52.5167 96.1941 52.747 96.9896 52.9361C97.9617 53.1672 98.1077 53.247 97.8534 53.1384L100.266 47.4819L102.679 41.8253C101.829 41.4625 100.691 41.1737 99.834 40.9701C98.8007 40.7244 97.5137 40.4539 96.0546 40.1809C93.1345 39.6347 89.395 39.0546 85.4134 38.6374C81.4479 38.2219 77.1278 37.9557 73.0834 38.0737C69.1729 38.1878 64.9427 38.6701 61.4892 40.1023L63.8449 45.783ZM100.266 47.4819L97.853 53.1383C97.2925 52.8991 96.9298 52.6328 96.8072 52.5399C96.6552 52.4247 96.5736 52.3452 96.5713 52.3431C96.5706 52.3423 96.6725 52.4437 96.8878 52.704C97.3098 53.2141 97.9021 54.0115 98.6269 55.0762C100.063 57.1858 101.796 60.0135 103.402 62.9409C105.024 65.8953 106.413 68.7633 107.247 70.9826C107.672 72.1147 107.866 72.8523 107.928 73.2313C107.958 73.4173 107.925 73.3309 107.944 73.0561C107.961 72.8196 108.047 71.9914 108.658 71.0415L113.83 74.3677L119.003 77.6938C119.898 76.3026 120.144 74.8861 120.212 73.9341C120.283 72.9437 120.191 72.0143 120.066 71.2497C119.818 69.7273 119.315 68.1325 118.761 66.658C117.636 63.6642 115.94 60.2221 114.185 57.0234C112.414 53.7977 110.479 50.6295 108.794 48.1544C107.958 46.9266 107.126 45.7844 106.365 44.8645C105.989 44.4098 105.56 43.9235 105.101 43.4821C104.783 43.1754 103.918 42.3538 102.68 41.8254L100.266 47.4819ZM113.83 74.3677L108.658 71.0411C109.087 70.3739 109.343 70.3648 108.299 71.1131C107.522 71.6698 106.395 72.3888 104.936 73.246C102.034 74.9504 98.1635 76.9988 93.915 79.1022C85.3677 83.3338 75.7811 87.5474 70.1165 89.4776L72.1001 95.2987L74.0836 101.12C80.4985 98.9339 90.6418 94.447 99.3722 90.1248C103.763 87.9512 107.917 85.7592 111.166 83.8513C112.781 82.9022 114.261 81.972 115.463 81.1105C116.398 80.4405 118.006 79.244 119.003 77.6942L113.83 74.3677ZM72.1001 95.2987L70.1166 89.4776C64.4677 91.4024 59.0038 92.306 54.7604 91.552C51.0439 90.8916 48.1041 88.9972 46.4033 84.1357L40.5986 86.1664L34.7938 88.1972C38.0663 97.5514 44.8376 102.281 52.6087 103.662C59.8529 104.949 67.6531 103.311 74.0836 101.12L72.1001 95.2987ZM40.5986 86.1664L46.4034 84.1357C45.7212 82.1857 45.708 79.5218 46.6876 76.1248C47.6583 72.7587 49.4854 69.1075 51.8579 65.56C54.2177 62.0315 56.993 58.791 59.6823 56.2413C62.4628 53.6051 64.7932 52.0473 66.2008 51.4636L63.8449 45.783L61.489 40.1024C58.0822 41.5153 54.4779 44.2268 51.2199 47.3157C47.8707 50.4911 44.5038 54.4314 41.634 58.7226C38.7769 62.9948 36.2869 67.8023 34.8697 72.7168C33.4614 77.6005 32.9894 83.0392 34.7938 88.1972L40.5986 86.1664Z" fill="white" mask="url(#path-5-outside-1_160_3583)"/>
<mask id="path-7-outside-2_160_3583" maskUnits="userSpaceOnUse" x="36.0699" y="41.0528" width="85.0049" height="63.5421" fill="black">
<rect fill="white" x="36.0699" y="41.0528" width="85.0049" height="63.5421"/>
<path d="M65.6895 58.114C73.8082 54.747 97.1673 50.869 99.1794 51.7257C101.189 52.5831 112.531 71.4198 110.616 74.3964C108.701 77.3733 85.6151 88.5745 75.4298 92.0451C65.2445 95.5157 53.0615 96.3314 48.868 84.3447C44.675 72.3582 57.5705 61.4812 65.6895 58.114Z"/>
</mask>
<path d="M65.6895 58.114C73.8082 54.747 97.1673 50.869 99.1794 51.7257C101.189 52.5831 112.531 71.4198 110.616 74.3964C108.701 77.3733 85.6151 88.5745 75.4298 92.0451C65.2445 95.5157 53.0615 96.3314 48.868 84.3447C44.675 72.3582 57.5705 61.4812 65.6895 58.114Z" fill="black"/>
<path d="M65.6895 58.114L63.3336 52.4334L63.3336 52.4334L65.6895 58.114ZM99.1794 51.7257L101.593 46.0693L101.589 46.0676L99.1794 51.7257ZM110.616 74.3964L115.788 77.7237L115.789 77.723L110.616 74.3964ZM75.4298 92.0451L77.4133 97.8662L77.4133 97.8662L75.4298 92.0451ZM48.868 84.3447L43.0632 86.3753L43.0633 86.3755L48.868 84.3447ZM65.6895 58.114L68.0454 63.7946C71.424 62.3934 78.6946 60.6741 85.8173 59.3878C89.2803 58.7624 92.5045 58.2757 94.9345 57.9993C96.1614 57.8598 97.0953 57.7844 97.7179 57.7619C97.8663 57.7565 97.9807 57.7548 98.0645 57.755C98.151 57.7553 98.1844 57.7575 98.1749 57.7569C98.1747 57.7569 98.0687 57.751 97.8931 57.7209C97.7601 57.6982 97.3234 57.6195 96.7702 57.3839L99.1794 51.7257L101.589 46.0676C100.426 45.5723 99.3044 45.5042 98.947 45.4817C98.3828 45.4462 97.8027 45.4513 97.2736 45.4704C96.2019 45.5092 94.9173 45.6225 93.5445 45.7786C90.775 46.0936 87.2747 46.6262 83.6315 47.2841C76.542 48.5644 68.0736 50.4676 63.3336 52.4334L65.6895 58.114ZM99.1794 51.7257L96.7661 57.3822C96.1939 57.138 95.8179 56.8635 95.6803 56.7592C95.5133 56.6327 95.4152 56.5388 95.395 56.5193C95.3584 56.4841 95.4186 56.5393 95.5876 56.7436C95.9168 57.1416 96.3975 57.787 96.9999 58.6719C98.1915 60.4222 99.6362 62.7799 100.978 65.225C102.335 67.697 103.482 70.0704 104.162 71.8811C104.511 72.8088 104.65 73.3635 104.687 73.5934C104.706 73.7049 104.668 73.5524 104.691 73.2215C104.712 72.9288 104.811 72.0544 105.444 71.0699L110.616 74.3964L115.789 77.723C116.661 76.3664 116.895 74.996 116.959 74.1C117.026 73.1657 116.939 72.3024 116.826 71.6123C116.602 70.2389 116.154 68.827 115.677 67.5568C114.706 64.9716 113.251 62.0241 111.761 59.3077C110.255 56.5644 108.607 53.8661 107.167 51.7504C106.453 50.7023 105.733 49.7122 105.065 48.9043C104.735 48.5057 104.348 48.0654 103.925 47.6585C103.643 47.3864 102.808 46.5878 101.593 46.0693L99.1794 51.7257ZM110.616 74.3964L105.444 71.0692C105.918 70.3333 106.279 70.2314 105.39 70.8684C104.768 71.3139 103.846 71.9037 102.628 72.6192C100.208 74.0404 96.9668 75.7563 93.3957 77.5243C86.2032 81.0853 78.1637 84.6166 73.4462 86.2241L75.4298 92.0451L77.4133 97.8662C82.8811 96.0031 91.4773 92.1985 98.8528 88.5469C102.566 86.7087 106.091 84.8492 108.857 83.2245C110.232 82.4171 111.507 81.6162 112.554 80.8659C113.334 80.307 114.836 79.2038 115.788 77.7237L110.616 74.3964ZM75.4298 92.0451L73.4463 86.2241C68.7444 87.8262 64.3206 88.5305 60.9779 87.9365C58.1621 87.4361 55.9837 86.061 54.6728 82.3139L48.868 84.3447L43.0633 86.3755C45.9459 94.6151 51.9557 98.8254 58.8261 100.046C65.1696 101.174 71.9299 99.7347 77.4133 97.8662L75.4298 92.0451ZM48.868 84.3447L54.6729 82.3141C53.5442 79.0876 54.4696 75.5778 57.4619 71.8412C60.4762 68.0773 64.8605 65.1155 68.0455 63.7946L65.6895 58.114L63.3336 52.4334C58.3995 54.4797 52.2765 58.6399 47.8615 64.1529C43.4246 69.6933 39.9988 77.6153 43.0632 86.3753L48.868 84.3447Z" fill="white" mask="url(#path-7-outside-2_160_3583)"/>
<path d="M26.1345 69.1234L26.7208 72.1293L33.817 108.528L34.6193 112.64L30.456 112.173L28.0237 111.899L26.5782 111.737L25.7866 110.516L6.43565 80.6713L6.10766 80.1661L4.77831 73.1971L26.1345 69.1234Z" fill="#348C51" stroke="white" stroke-width="6.14975"/>
<g filter="url(#filter1_i_160_3583)">
<path d="M15.8453 74.4991L93.376 38.8194L109.117 75.5996L29.3132 105.121L15.8453 74.4991Z" fill="#69DBCE"/>
</g>
<path d="M113.215 77.3614L110.184 78.4836L30.3803 108.005L27.6641 109.011L26.4988 106.36L13.0301 75.737L11.814 72.9698L14.5595 71.7056L92.0899 36.0259L94.9599 34.7052L113.215 77.3614Z" stroke="white" stroke-width="6.14975"/>
<path d="M52.678 53.9382L52.6793 57.0007L52.6933 94.085L52.6948 97.6573L49.1625 97.1266L47.146 96.8242L45.5756 96.5889L44.8592 95.1722L28.9055 63.648L28.2473 62.3477L28.8372 61.0149L31.1899 55.6994L32.0024 53.8616L52.678 53.9382Z" fill="#4C7ABF" stroke="white" stroke-width="6.14975"/>
<g filter="url(#filter2_i_160_3583)">
<path d="M45.5316 61.7059L124.47 37.0369L132.896 76.1465L49.5953 94.0921L45.5316 61.7059Z" fill="#66A3FF"/>
</g>
<path d="M136.549 78.5052L46.9617 97.8051L46.5439 94.4746L42.4809 62.0883L42.1602 59.5381L44.6142 58.7707L123.553 34.1018L126.767 33.0977L136.549 78.5052Z" stroke="white" stroke-width="6.14975"/>
<path d="M164.993 32.516L176.868 42.3102L178.112 43.3354L177.976 44.9422L175.263 76.8715L175.11 78.6713L173.464 79.4137L167.983 81.8888L164.428 83.4936L156.064 39.6455L156.785 38.5903L160.498 33.1537L162.397 30.3747L164.993 32.516Z" fill="#342EA7" stroke="white" stroke-width="6.14975"/>
<g filter="url(#filter3_i_160_3583)">
<path d="M56.1185 28.7395L105.805 19.2618L125.018 56.8155L119.006 88.4691L68.6048 45.0461L49.3869 46.6815L56.1185 28.7395Z" fill="#99C2FF"/>
</g>
<path d="M107.493 15.8092L108.542 17.8618L127.755 55.4152L128.235 56.3536L128.038 57.3893L122.027 89.0431L121.033 94.2741L116.999 90.7985L67.5773 48.2197L49.6471 49.745L44.7988 50.1578L46.5076 45.6017L53.2395 27.6592L53.8457 26.0424L107.493 15.8092Z" stroke="white" stroke-width="6.14975"/>
<path d="M162.616 40.9228L159.674 41.8199L162.616 40.9237L162.617 40.9266C162.617 40.9284 162.618 40.9309 162.619 40.9341C162.621 40.9407 162.624 40.9507 162.628 40.9633C162.635 40.9885 162.647 41.0252 162.661 41.0731C162.691 41.1694 162.733 41.3109 162.787 41.4925C162.896 41.8559 163.052 42.382 163.243 43.0371C163.625 44.3471 164.149 46.1767 164.715 48.2561C165.837 52.3845 167.155 57.6093 167.84 61.7134C168.446 65.3427 168.951 69.648 169.302 73.0137C169.478 74.7033 169.617 76.1697 169.712 77.2145C169.759 77.7369 169.796 78.1546 169.82 78.4424C169.833 78.5862 169.843 78.698 169.849 78.774C169.852 78.8119 169.855 78.8411 169.857 78.861C169.857 78.8707 169.858 78.8784 169.858 78.8836C169.858 78.8863 169.858 78.8891 169.858 78.8905L169.859 78.8924L170.073 81.5051L167.526 82.1299L110.667 96.0699L106.339 97.1311L106.883 92.7076L111.613 54.2713L111.862 52.2485L113.822 51.6897L158.832 38.8629L161.735 38.0357L162.616 40.9228Z" fill="#99C2FF" stroke="white" stroke-width="6.14975"/>
<path d="M142.124 52.1553C142.124 52.1553 147.541 61.2206 148.772 67.7114C149.88 73.5445 148.673 82.9144 148.673 82.9144" stroke="white" stroke-width="6.14975"/>
<path d="M95.249 10.4534L140.042 6.39368L141.45 6.26641L142.463 7.25126L168.031 32.1058L169.627 33.6574L168.651 35.658L163.155 46.9264L162.523 48.2211L161.124 48.5645L104.264 62.5044L101.916 63.0795L100.803 60.9347L83.4439 27.4945L82.5572 25.7856L83.7071 24.241L93.0612 11.6799L93.881 10.5781L95.249 10.4534Z" fill="#99C2FF" stroke="white" stroke-width="6.14975"/>
<path d="M145.364 31.2471L151.807 34.4962" stroke="white" stroke-width="6.14975"/>
<path d="M124.748 11.332L141.803 31.9258" stroke="white" stroke-width="6.14975"/>
<path d="M149.363 26.3827L151.237 36.2046L147.254 35.9274L140.974 35.4899L138.611 35.3252L137.342 28.6756L149.363 26.3827Z" fill="#D9D9D9" stroke="white" stroke-width="6.14975"/>
<path d="M100.905 25.8818L116.901 50.6022L142.557 47.255" stroke="white" stroke-width="6.14975"/>
<path d="M113.687 56.2822C113.687 56.2822 129.947 55.8012 139.798 53.1668C148.18 50.9255 160.885 45.8147 160.885 45.8147" stroke="white" stroke-width="6.14975"/>
<path d="M113.423 84.4902L114.776 91.5787" stroke="white" stroke-width="6.14975"/>
<path d="M143.444 51.9043L144.796 58.9927" stroke="white" stroke-width="6.14975"/>
<path d="M149.234 53.3259L140.275 57.7663L139.473 53.8552L138.21 47.688L137.734 45.3677L143.8 42.3614L149.234 53.3259Z" fill="#D9D9D9" stroke="white" stroke-width="6.14975"/>
<path d="M118.765 85.6404L109.806 90.0807L109.005 86.1696L107.741 80.0024L107.265 77.6821L113.331 74.6759L118.765 85.6404Z" fill="#D9D9D9" stroke="white" stroke-width="6.14975"/>
<path d="M165.526 34.6501L130.483 42.1125L120.394 43.2591L106.166 25.1904" stroke="white" stroke-width="6.14975"/>
</g>
<path d="M163.105 70.9521L169.634 69.7067L169.946 89.813L166.678 94.1358L163.105 70.9521Z" fill="black"/>
<path d="M68.5531 103.952C68.5531 103.952 101.644 98.5085 120.36 93.4787C139.167 88.4246 153.922 79.5218 153.922 79.5218L171.766 76.8445C171.766 76.8445 141.692 99.0066 123.233 103.977C104.882 108.917 65.7285 109.747 65.7285 109.747L68.5531 103.952Z" fill="#342EA7"/>
<path d="M40.2883 105.325C40.5111 102.79 46.4237 95.2314 46.4237 95.2314C46.4237 95.2314 41.8251 107.123 44.9543 109.749C48.0341 112.334 56.5104 106.719 56.5104 106.719C56.5104 106.719 55.2529 111.656 51.0351 113.432C42.9917 116.819 39.8134 110.73 40.2883 105.325Z" fill="black"/>
<path d="M39.8162 83.5068L114.212 73.5801L114.05 90.8936C114.05 90.8936 86.4736 107.278 72.7124 109.828C59.2221 112.327 45.4507 105.161 45.4507 105.161L39.8162 83.5068Z" fill="#99C2FF"/>
<path d="M63.8429 45.7831C73.4718 41.7897 97.8819 46.465 100.265 47.4819C102.649 48.499 116.099 70.8377 113.828 74.3679C111.556 77.8987 84.1768 91.1831 72.098 95.2989C60.0188 99.4147 45.5707 100.382 40.5975 86.1664C35.6243 71.9509 54.2138 49.777 63.8429 45.7831Z" fill="#342F91"/>
<path d="M65.6883 58.114C73.8071 54.7469 97.1667 50.8688 99.1782 51.7257C101.188 52.5831 112.529 71.4198 110.615 74.3964C108.7 77.3733 85.6127 88.5748 75.4276 92.0453C65.2424 95.5158 53.0602 96.3312 48.8668 84.3447C44.6737 72.3581 57.5693 61.4812 65.6883 58.114Z" fill="black"/>
<path d="M8.37451 75.6416L23.7016 72.7179L30.7985 109.117L28.3661 108.844L9.01482 78.9984L8.37451 75.6416Z" fill="#348C51"/>
<g filter="url(#filter4_i_160_3583)">
<path d="M8.49565 75.6964L93.3754 38.8196L109.116 75.5998L30.7772 109.126L8.49565 75.6964Z" fill="#69DBCE"/>
</g>
<path d="M34 56.9461L49.6034 57.0039L49.617 94.0882L47.6011 93.7858L31.6478 62.2614L34 56.9461Z" fill="#4C7ABF"/>
<g filter="url(#filter5_i_160_3583)">
<path d="M34.1082 57.0228L124.469 37.0378L132.894 76.1474L49.5941 94.0929L34.1082 57.0228Z" fill="#66A3FF"/>
</g>
<path d="M159.323 40.3259L163.036 34.8893L174.911 44.6831L172.198 76.6125L166.717 79.0872L159.323 40.3259Z" fill="#342EA7"/>
<g filter="url(#filter6_i_160_3583)">
<path d="M56.1171 28.7395L105.804 19.2618L125.016 56.8155L119.005 88.4691L68.6035 45.0461L49.3855 46.6815L56.1171 28.7395Z" fill="#99C2FF"/>
</g>
<path d="M114.664 54.6477L159.673 41.8208C159.673 41.8208 163.489 54.3343 164.806 62.2207C165.987 69.2906 166.793 79.1443 166.793 79.1443L109.934 93.0843L114.664 54.6477Z" fill="#99C2FF"/>
<path d="M142.123 52.1553C142.123 52.1553 147.54 61.2206 148.772 67.7114C149.879 73.5445 148.672 82.9144 148.672 82.9144" stroke="#6693D5" stroke-width="2.5624"/>
<mask id="mask0_160_3583" style="mask-type:alpha" maskUnits="userSpaceOnUse" x="86" y="9" width="80" height="51">
<path d="M95.526 13.5161L140.319 9.45623L165.886 34.3105L160.39 45.578L103.531 59.518L86.1721 26.0776L95.526 13.5161Z" fill="#99C2FF"/>
</mask>
<g mask="url(#mask0_160_3583)">
<path d="M103.079 12.075L177.711 5.31066L220.311 46.7219L211.154 65.4954L116.417 88.7217L93.7391 37.411L103.079 12.075Z" fill="#99C2FF"/>
<path d="M96.9593 31.4737L91.687 21.9561L118.871 62.1149L118.437 64.2892L96.9593 31.4737Z" fill="#6693D5"/>
</g>
<path d="M145.363 31.2471L151.806 34.4962" stroke="#342F91" stroke-width="2.5624"/>
<path d="M124.747 11.333L141.802 31.9268" stroke="black" stroke-width="2.5624"/>
<path d="M140.938 31.1221L146.917 29.9816L147.466 32.8617L141.186 32.424L140.938 31.1221Z" fill="#D9D9D9"/>
<path d="M92.4902 21.7451L116.9 50.6041L142.556 47.2568" stroke="black" stroke-width="2.5624"/>
<path d="M113.686 56.2832C113.686 56.2832 129.946 55.8022 139.797 53.1678C148.179 50.9265 160.884 45.8157 160.884 45.8157" stroke="#6693D5" stroke-width="2.5624"/>
<path d="M113.422 84.4902L114.774 91.5787" stroke="#342F91" stroke-width="2.5624"/>
<path d="M143.443 51.9053L144.795 58.9937" stroke="#342F91" stroke-width="2.5624"/>
<path d="M142.409 46.4824L145.112 51.9361L142.485 53.2381L141.221 47.071L142.409 46.4824Z" fill="#D9D9D9"/>
<path d="M111.94 78.7969L114.643 84.2505L112.016 85.5526L110.753 79.3855L111.94 78.7969Z" fill="#D9D9D9"/>
<path d="M165.525 34.6511L130.482 42.1136L120.393 43.2601L101.005 18.6494" stroke="#6693D5" stroke-width="2.5624"/>
<defs>
<filter id="filter0_d_160_3583" x="1.18213" y="3.07617" width="186.793" height="126.699" filterUnits="userSpaceOnUse" color-interpolation-filters="sRGB">
<feFlood flood-opacity="0" result="BackgroundImageFix"/>
<feColorMatrix in="SourceAlpha" type="matrix" values="0 0 0 0 0 0 0 0 0 0 0 0 0 0 0 0 0 0 127 0" result="hardAlpha"/>
<feOffset dx="4.61231" dy="7.17471"/>
<feGaussianBlur stdDeviation="1.02496"/>
<feComposite in2="hardAlpha" operator="out"/>
<feColorMatrix type="matrix" values="0 0 0 0 0 0 0 0 0 0 0 0 0 0 0 0 0 0 0.25 0"/>
<feBlend mode="normal" in2="BackgroundImageFix" result="effect1_dropShadow_160_3583"/>
<feBlend mode="normal" in="SourceGraphic" in2="effect1_dropShadow_160_3583" result="shape"/>
</filter>
<filter id="filter1_i_160_3583" x="7.78174" y="30.5918" width="109.532" height="82.3066" filterUnits="userSpaceOnUse" color-interpolation-filters="sRGB">
<feFlood flood-opacity="0" result="BackgroundImageFix"/>
<feBlend mode="normal" in="SourceGraphic" in2="BackgroundImageFix" result="shape"/>
<feColorMatrix in="SourceAlpha" type="matrix" values="0 0 0 0 0 0 0 0 0 0 0 0 0 0 0 0 0 0 127 0" result="hardAlpha"/>
<feOffset dx="-9.7371" dy="-3.58735"/>
<feComposite in2="hardAlpha" operator="arithmetic" k2="-1" k3="1"/>
<feColorMatrix type="matrix" values="0 0 0 0 0 0 0 0 0 0 0 0 0 0 0 0 0 0 0.25 0"/>
<feBlend mode="normal" in2="shape" result="effect1_innerShadow_160_3583"/>
</filter>
<filter id="filter2_i_160_3583" x="38.7896" y="29.1582" width="101.413" height="72.3594" filterUnits="userSpaceOnUse" color-interpolation-filters="sRGB">
<feFlood flood-opacity="0" result="BackgroundImageFix"/>
<feBlend mode="normal" in="SourceGraphic" in2="BackgroundImageFix" result="shape"/>
<feColorMatrix in="SourceAlpha" type="matrix" values="0 0 0 0 0 0 0 0 0 0 0 0 0 0 0 0 0 0 127 0" result="hardAlpha"/>
<feOffset dx="-6.14975" dy="-9.22462"/>
<feComposite in2="hardAlpha" operator="arithmetic" k2="-1" k3="1"/>
<feColorMatrix type="matrix" values="0 0 0 0 0 0 0 0 0 0 0 0 0 0 0 0 0 0 0.25 0"/>
<feBlend mode="normal" in2="shape" result="effect1_innerShadow_160_3583"/>
</filter>
<filter id="filter3_i_160_3583" x="40.21" y="12.3574" width="91.2428" height="87.7227" filterUnits="userSpaceOnUse" color-interpolation-filters="sRGB">
<feFlood flood-opacity="0" result="BackgroundImageFix"/>
<feBlend mode="normal" in="SourceGraphic" in2="BackgroundImageFix" result="shape"/>
<feColorMatrix in="SourceAlpha" type="matrix" values="0 0 0 0 0 0 0 0 0 0 0 0 0 0 0 0 0 0 127 0" result="hardAlpha"/>
<feOffset dy="-6.66223"/>
<feComposite in2="hardAlpha" operator="arithmetic" k2="-1" k3="1"/>
<feColorMatrix type="matrix" values="0 0 0 0 0.203922 0 0 0 0 0.184314 0 0 0 0 0.568627 0 0 0 1 0"/>
<feBlend mode="normal" in2="shape" result="effect1_innerShadow_160_3583"/>
</filter>
<filter id="filter4_i_160_3583" x="8.49561" y="38.8193" width="100.62" height="70.3066" filterUnits="userSpaceOnUse" color-interpolation-filters="sRGB">
<feFlood flood-opacity="0" result="BackgroundImageFix"/>
<feBlend mode="normal" in="SourceGraphic" in2="BackgroundImageFix" result="shape"/>
<feColorMatrix in="SourceAlpha" type="matrix" values="0 0 0 0 0 0 0 0 0 0 0 0 0 0 0 0 0 0 127 0" result="hardAlpha"/>
<feOffset dx="-9.7371" dy="-3.58735"/>
<feComposite in2="hardAlpha" operator="arithmetic" k2="-1" k3="1"/>
<feColorMatrix type="matrix" values="0 0 0 0 0 0 0 0 0 0 0 0 0 0 0 0 0 0 0.25 0"/>
<feBlend mode="normal" in2="shape" result="effect1_innerShadow_160_3583"/>
</filter>
<filter id="filter5_i_160_3583" x="34.1082" y="37.0381" width="98.7863" height="57.0547" filterUnits="userSpaceOnUse" color-interpolation-filters="sRGB">
<feFlood flood-opacity="0" result="BackgroundImageFix"/>
<feBlend mode="normal" in="SourceGraphic" in2="BackgroundImageFix" result="shape"/>
<feColorMatrix in="SourceAlpha" type="matrix" values="0 0 0 0 0 0 0 0 0 0 0 0 0 0 0 0 0 0 127 0" result="hardAlpha"/>
<feOffset dx="-6.14975" dy="-9.22462"/>
<feComposite in2="hardAlpha" operator="arithmetic" k2="-1" k3="1"/>
<feColorMatrix type="matrix" values="0 0 0 0 0 0 0 0 0 0 0 0 0 0 0 0 0 0 0.25 0"/>
<feBlend mode="normal" in2="shape" result="effect1_innerShadow_160_3583"/>
</filter>
<filter id="filter6_i_160_3583" x="49.3855" y="19.2617" width="75.6307" height="69.207" filterUnits="userSpaceOnUse" color-interpolation-filters="sRGB">
<feFlood flood-opacity="0" result="BackgroundImageFix"/>
<feBlend mode="normal" in="SourceGraphic" in2="BackgroundImageFix" result="shape"/>
<feColorMatrix in="SourceAlpha" type="matrix" values="0 0 0 0 0 0 0 0 0 0 0 0 0 0 0 0 0 0 127 0" result="hardAlpha"/>
<feOffset dy="-6.66223"/>
<feComposite in2="hardAlpha" operator="arithmetic" k2="-1" k3="1"/>
<feColorMatrix type="matrix" values="0 0 0 0 0.203922 0 0 0 0 0.184314 0 0 0 0 0.568627 0 0 0 1 0"/>
<feBlend mode="normal" in2="shape" result="effect1_innerShadow_160_3583"/>
</filter>
</defs>
</svg>
