<svg width="157" height="146" viewBox="0 0 157 146" fill="none" xmlns="http://www.w3.org/2000/svg">
<mask id="path-1-outside-1_36_997" maskUnits="userSpaceOnUse" x="-5.60988" y="1.54552" width="158.683" height="143.305" fill="black">
<rect fill="white" x="-5.60988" y="1.54552" width="158.683" height="143.305"/>
<path d="M69.779 28.3383C67.9492 27.3891 65.7548 27.4723 64.0019 28.5571L56.6587 33.1011L42.4492 25.7296C39.5791 24.2406 36.0454 25.3603 34.5564 28.2304L9.71533 76.1148C8.2264 78.9849 9.34608 82.5186 12.2162 84.0075L100.78 129.952C103.651 131.441 107.184 130.322 108.673 127.451L133.514 79.5671C135.003 76.697 133.884 73.1632 131.013 71.6743L116.807 64.3046L116.291 55.6809C116.168 53.624 114.972 51.7832 113.143 50.8342L69.779 28.3383Z"/>
</mask>
<path d="M69.779 28.3383C67.9492 27.3891 65.7548 27.4723 64.0019 28.5571L56.6587 33.1011L42.4492 25.7296C39.5791 24.2406 36.0454 25.3603 34.5564 28.2304L9.71533 76.1148C8.2264 78.9849 9.34608 82.5186 12.2162 84.0075L100.78 129.952C103.651 131.441 107.184 130.322 108.673 127.451L133.514 79.5671C135.003 76.697 133.884 73.1632 131.013 71.6743L116.807 64.3046L116.291 55.6809C116.168 53.624 114.972 51.7832 113.143 50.8342L69.779 28.3383Z" fill="#DE5555"/>
<path d="M64.0019 28.5571L68.5694 35.9372L68.5689 35.9375L64.0019 28.5571ZM56.6587 33.1011L61.2257 40.4815L57.0358 43.0742L52.662 40.8052L56.6587 33.1011ZM12.2162 84.0075L8.21948 91.7117L12.2162 84.0075ZM100.78 129.952L104.777 122.248L100.78 129.952ZM108.673 127.451L116.377 131.448L108.673 127.451ZM133.514 79.5671L125.81 75.5704L133.514 79.5671ZM116.807 64.3046L112.811 72.0087L108.438 69.7405L108.144 64.8236L116.807 64.3046ZM116.291 55.6809L124.954 55.1618L124.954 55.162L116.291 55.6809ZM69.779 28.3383L65.7823 36.0425C66.6657 36.5007 67.7241 36.4603 68.5694 35.9372L64.0019 28.5571L59.4345 21.177C63.7854 18.4842 69.2327 18.2774 73.7757 20.6342L69.779 28.3383ZM64.0019 28.5571L68.5689 35.9375L61.2257 40.4815L56.6587 33.1011L52.0917 25.7207L59.4349 21.1767L64.0019 28.5571ZM56.6587 33.1011L52.662 40.8052L38.4525 33.4337L42.4492 25.7296L46.4459 18.0254L60.6554 25.3969L56.6587 33.1011ZM42.4492 25.7296L38.4525 33.4337C39.8373 34.1521 41.5422 33.6119 42.2606 32.2271L34.5564 28.2304L26.8523 24.2337C30.5485 17.1087 39.3209 14.3292 46.4459 18.0254L42.4492 25.7296ZM34.5564 28.2304L42.2606 32.2271L17.4195 80.1115L9.71533 76.1148L2.01119 72.1181L26.8523 24.2337L34.5564 28.2304ZM9.71533 76.1148L17.4195 80.1115C18.1379 78.7267 17.5977 77.0218 16.2129 76.3034L12.2162 84.0075L8.21948 91.7117C1.09451 88.0154 -1.68505 79.243 2.01119 72.1181L9.71533 76.1148ZM12.2162 84.0075L16.2129 76.3034L104.777 122.248L100.78 129.952L96.7837 137.656L8.21948 91.7117L12.2162 84.0075ZM100.78 129.952L104.777 122.248C103.392 121.53 101.687 122.07 100.969 123.455L108.673 127.451L116.377 131.448C112.681 138.573 103.909 141.353 96.7837 137.656L100.78 129.952ZM108.673 127.451L100.969 123.455L125.81 75.5704L133.514 79.5671L141.218 83.5638L116.377 131.448L108.673 127.451ZM133.514 79.5671L125.81 75.5704C125.092 76.9552 125.632 78.6601 127.017 79.3784L131.013 71.6743L135.01 63.9702C142.135 67.6664 144.915 76.4388 141.218 83.5638L133.514 79.5671ZM131.013 71.6743L127.017 79.3784L112.811 72.0087L116.807 64.3046L120.804 56.6004L135.01 63.9702L131.013 71.6743ZM116.807 64.3046L108.144 64.8236L107.627 56.1999L116.291 55.6809L124.954 55.162L125.471 63.7856L116.807 64.3046ZM116.291 55.6809L107.627 56.2001C107.687 57.1927 108.264 58.0806 109.146 58.5384L113.143 50.8342L117.139 43.1301C121.68 45.4857 124.648 50.0553 124.954 55.1618L116.291 55.6809ZM113.143 50.8342L109.146 58.5384L65.7823 36.0425L69.779 28.3383L73.7757 20.6342L117.139 43.1301L113.143 50.8342Z" fill="white" mask="url(#path-1-outside-1_36_997)"/>
<circle cx="27.041" cy="27.041" r="31.3806" transform="matrix(-0.887662 -0.460495 -0.460495 0.887662 108.07 66.29)" fill="#E0EBFF" stroke="white" stroke-width="8.67913"/>
<circle cx="18.6304" cy="18.6304" r="22.97" transform="matrix(-0.887662 -0.460495 -0.460495 0.887662 96.7316 69.8828)" fill="#2C287C" stroke="white" stroke-width="8.67913"/>
<circle cx="5.15331" cy="5.15331" r="9.49287" transform="matrix(-0.887662 -0.460495 -0.460495 0.887662 62.9334 41.7778)" fill="#FFFAA2" stroke="white" stroke-width="8.67913"/>
<rect x="5.85042" y="-1.85372" width="21.3585" height="14.1038" rx="5.0339" transform="matrix(-0.887662 -0.460495 -0.460495 0.887662 66.7272 30.1162)" fill="#2C287C" stroke="white" stroke-width="8.67913"/>
<path d="M69.4828 57.208C67.307 57.3877 65.2742 58.2942 63.6709 59.2069C62.0059 60.1546 60.4383 61.3234 59.1293 62.4041C57.8081 63.495 56.6724 64.5613 55.8698 65.351C55.4665 65.7479 55.1417 66.0803 54.9136 66.3181C54.7994 66.4371 54.7083 66.5327 54.6441 66.6012C54.612 66.6355 54.5868 66.664 54.568 66.6843C54.5586 66.6944 54.5506 66.7024 54.5446 66.7089C54.5416 66.7121 54.5387 66.7151 54.5365 66.7174L54.533 66.7216C54.5325 66.7222 54.5323 66.7229 57.7319 69.6545L54.5321 66.7227L59.4321 73.6397C59.4336 73.6433 59.4344 73.6447 59.4346 73.6454C59.4362 73.6447 59.439 73.6434 59.4431 73.6417C59.4527 73.6376 59.4695 73.6313 59.4923 73.6217C59.5383 73.6025 59.6105 73.5719 59.7061 73.5326C59.8975 73.4541 60.183 73.3393 60.5437 73.1983C61.2673 72.9154 62.2839 72.5336 63.4475 72.1407C65.8677 71.3237 68.5762 70.5798 70.5861 70.417C72.5388 70.2588 75.2512 70.534 77.6982 70.9217C78.8749 71.1081 79.9087 71.3072 80.6463 71.459C81.014 71.5347 81.3056 71.5981 81.5012 71.6417L81.8182 71.7142L82.9901 66.6664C85.0539 64.1453 85.1399 64.0408 85.1429 64.036L85.1303 64.0253C85.1235 64.0198 85.1144 64.0125 85.1039 64.0041C85.083 63.9871 85.0548 63.9641 85.0196 63.9359C84.9489 63.8794 84.8495 63.8007 84.725 63.7037C84.4759 63.5096 84.1221 63.2398 83.6857 62.9204C82.818 62.2855 81.5956 61.4357 80.1892 60.5917C78.7964 59.7559 77.1356 58.8724 75.4008 58.2182C73.7268 57.5869 71.6298 57.0308 69.4828 57.208Z" fill="white" stroke="white" stroke-width="8.67913"/>
<mask id="mask0_36_997" style="mask-type:alpha" maskUnits="userSpaceOnUse" x="9" y="25" width="126" height="106">
<path d="M69.7939 28.3491C67.9641 27.3998 65.7697 27.4831 64.0168 28.5678L56.6745 33.1123L42.4641 25.7403C39.594 24.2514 36.0603 25.3711 34.5713 28.2412L9.72977 76.1264C8.24095 78.9964 9.36057 82.5302 12.2306 84.0191L100.795 129.964C103.665 131.453 107.199 130.333 108.688 127.463L133.529 79.5778C135.018 76.7077 133.898 73.174 131.028 71.685L116.821 64.3149L116.305 55.6926C116.182 53.6355 114.987 51.794 113.158 50.845L69.7939 28.3491Z" fill="#DE5555"/>
</mask>
<g mask="url(#mask0_36_997)">
<path d="M69.7939 28.3491C67.9641 27.3998 65.7697 27.4831 64.0168 28.5678L56.6745 33.1123L42.4641 25.7403C39.594 24.2514 36.0603 25.3711 34.5713 28.2412L9.72977 76.1264C8.24095 78.9964 9.36057 82.5302 12.2306 84.0191L100.795 129.964C103.665 131.453 107.199 130.333 108.688 127.463L133.529 79.5778C135.018 76.7077 133.898 73.174 131.028 71.685L116.821 64.3149L116.305 55.6926C116.182 53.6355 114.987 51.794 113.158 50.845L69.7939 28.3491Z" fill="#93B0E2"/>
<rect width="127.241" height="37.9779" transform="matrix(-0.887662 -0.460495 -0.460495 0.887662 152.152 63.8906)" fill="#2C287C"/>
</g>
<circle cx="27.041" cy="27.041" r="27.041" transform="matrix(-0.887662 -0.460495 -0.460495 0.887662 108.085 66.3003)" fill="#E0EBFF"/>
<circle cx="18.6304" cy="18.6304" r="18.6304" transform="matrix(-0.887662 -0.460495 -0.460495 0.887662 96.7463 69.8931)" fill="#2C287C"/>
<circle cx="5.15331" cy="5.15331" r="5.15331" transform="matrix(-0.887662 -0.460495 -0.460495 0.887662 62.9483 41.7891)" fill="#FFFAA2"/>
<rect width="12.6794" height="5.42469" transform="matrix(-0.887662 -0.460495 -0.460495 0.887662 56.552 27.6411)" fill="#2C287C"/>
<path d="M82.4105 67.406C82.4105 67.406 74.7564 61.1398 69.8549 61.5445C64.8054 61.9613 57.7463 69.6657 57.7463 69.6657C57.7463 69.6657 65.1193 66.5185 70.2502 66.1028C75.2353 65.6989 82.7953 67.4935 82.7953 67.4935L82.4105 67.406Z" fill="white"/>
<path d="M106.786 38.1604L91.5438 75.8198L57.2629 72.1064L89.2857 83.7235L82.6178 122.753L97.4579 86.0583L128.755 92.5317L99.716 78.1546L106.786 38.1604Z" fill="white"/>
</svg>
