<svg width="197" height="208" viewBox="0 0 197 208" fill="none" xmlns="http://www.w3.org/2000/svg">
<g filter="url(#filter0_d_36_1301)">
<path d="M72.0614 32.9643C42.6538 39.1081 23.795 67.9279 29.9389 97.3355C32.9622 111.806 40.3359 123.883 51.4861 131.583C62.6538 139.296 77.2334 142.357 94.1652 139.485C111.298 136.579 123.529 127.848 130.623 115.949C137.671 104.128 139.449 89.525 136.433 75.0867C130.289 45.6791 101.469 26.8204 72.0614 32.9643Z" fill="#93B1E2" stroke="white" stroke-width="7.7918"/>
<path d="M72.5983 21.8514C62.0046 24.3912 55.2164 26.453 49.8042 29.0488C44.3011 31.6883 40.3948 34.7979 35.4934 39.074C25.1069 48.1357 11.4432 69.1633 20.1404 95.4113C24.4606 108.449 32.558 117.254 39.5057 122.768C42.982 125.528 46.1952 127.484 48.5568 128.759C49.739 129.397 50.7128 129.866 51.4051 130.182C51.7515 130.34 52.0283 130.46 52.2259 130.543C52.3247 130.585 52.4043 130.617 52.4627 130.64C52.4917 130.652 52.5159 130.662 52.5345 130.669C52.5437 130.673 52.552 130.677 52.5586 130.679C52.5617 130.681 52.5647 130.682 52.5672 130.683C52.5684 130.683 52.5697 130.684 52.5705 130.684C52.5721 130.684 52.5741 130.685 53.9881 127.055L52.5737 130.685L61.4238 134.133L57.5436 125.464L54.2481 118.099L55.928 118.323L56.797 118.438L57.6311 118.171L61.4729 116.938L64.5398 115.955L64.1501 112.757L59.6602 75.9043L66.2408 55.9064L89.4171 47.005L118.345 61.3642L122.944 63.6467L123.903 58.6027L120.077 57.8747L123.904 58.6015L123.904 58.5996C123.904 58.5985 123.905 58.5971 123.905 58.5954C123.906 58.5917 123.907 58.5859 123.908 58.5799C123.91 58.5678 123.913 58.5509 123.917 58.53C123.925 58.4878 123.936 58.4282 123.95 58.3525C123.977 58.2009 124.015 57.9845 124.061 57.7169C124.151 57.1828 124.27 56.437 124.387 55.5857C124.611 53.9433 124.858 51.6829 124.804 49.779C124.452 37.4863 116.582 29.0412 106.495 24.5187C96.4901 20.033 83.8977 19.1424 72.5983 21.8514Z" fill="#191569" stroke="white" stroke-width="7.7918"/>
<path d="M88.0182 31.4938C91.8108 27.8998 97.0546 24.257 103.532 22.8748C110.143 21.4643 117.641 22.4977 125.59 27.6086C135.035 33.6816 139.296 40.9485 140.904 47.5749C142.48 54.0719 141.416 59.5983 140.894 62.081C140.32 64.8112 139.337 67.2336 138.525 68.9406C138.114 69.8039 137.736 70.5086 137.454 71.0066C137.313 71.2562 137.196 71.4556 137.109 71.5984C137.066 71.6698 137.031 71.727 137.004 71.7698L136.96 71.8405C136.958 71.843 136.957 71.8463 136.955 71.8484C136.955 71.8493 136.954 71.8504 136.953 71.8512L136.953 71.8525C136.952 71.8528 136.912 71.8283 133.667 69.7587L136.952 71.8537L134.806 75.2184L131.494 72.9917L112.138 59.9839L86.8846 43.74L86.6834 43.6106L86.4996 43.4581L88.9923 40.4635L86.81 43.0822C86.5135 43.4366 86.4968 43.4537 86.4948 43.4536C86.4939 43.4529 86.4908 43.4509 86.4891 43.4495L86.4566 43.4209C86.4414 43.4079 86.4255 43.3939 86.4088 43.3793C86.3755 43.3499 86.3391 43.3172 86.3004 43.281C86.2232 43.2087 86.1348 43.1222 86.04 43.0204C85.8515 42.8181 85.629 42.549 85.4071 42.2118C84.9603 41.5331 84.5032 40.5515 84.3759 39.2945C84.1052 36.6224 85.3978 33.977 88.0182 31.4938ZM130.38 67.6662L130.38 67.6674C130.379 67.6685 130.378 67.6696 130.378 67.6703L130.377 67.6725C130.378 67.672 130.378 67.6695 130.38 67.6662Z" fill="#2C287C" stroke="white" stroke-width="7.7918"/>
<path d="M81.9697 32.373C76.9492 31.9697 71.2537 32.4428 65.8446 34.995C60.3665 37.58 55.4768 42.1615 51.9443 49.4461C46.9577 59.7293 46.0483 67.2501 47.3565 73.0063C48.6657 78.7666 52.0915 82.0755 53.7672 83.8564C54.9267 85.0887 56.7439 86.4834 58.5603 87.7716C60.4494 89.1114 62.6015 90.5184 64.6095 91.7868C66.6228 93.0586 68.5215 94.2103 69.9152 95.0433C70.6129 95.4602 71.1862 95.799 71.5861 96.0337C71.7861 96.151 71.9432 96.2428 72.0508 96.3055C72.1043 96.3366 72.1457 96.3605 72.1741 96.377C72.1883 96.3852 72.1992 96.3921 72.2068 96.3965C72.2103 96.3985 72.2135 96.3996 72.2156 96.4008C72.2166 96.4014 72.2182 96.4018 72.2188 96.4021L72.219 96.4031L74.171 93.0312L72.2199 96.4029L75.9302 98.5498L77.7133 94.6517L89.0305 69.9107L89.0303 69.9098L101.871 42.6572L103.455 39.2961L100.173 37.5545L98.3466 40.9964C100.141 37.6137 100.171 37.555 100.169 37.5531C100.169 37.5527 100.166 37.5517 100.165 37.551C100.162 37.5495 100.159 37.5479 100.155 37.5459C100.148 37.542 100.138 37.5372 100.127 37.5314C100.105 37.5197 100.075 37.5041 100.038 37.4852C99.9639 37.4473 99.861 37.3951 99.7313 37.3309C99.4718 37.2026 99.1029 37.0254 98.6368 36.8134C97.7055 36.3897 96.3786 35.824 94.7509 35.2368C91.516 34.0697 86.9913 32.7764 81.9697 32.373Z" fill="#2C287C" stroke="white" stroke-width="7.7918"/>
<path d="M106.502 85.5132C106.501 85.5153 106.499 85.5169 106.499 85.5176L102.283 91.3456L97.4511 78.7294L98.2741 77.1677L101.72 78.9841C98.2737 77.168 98.2744 77.167 98.2747 77.1664L98.2764 77.1626C98.2774 77.1607 98.2789 77.1583 98.2801 77.156C98.2826 77.1512 98.2857 77.1455 98.2892 77.1389C98.2966 77.125 98.3061 77.1067 98.3178 77.0851C98.3412 77.0418 98.3735 76.9833 98.4134 76.9115C98.4931 76.768 98.6055 76.5696 98.7459 76.3324C99.0243 75.8618 99.4263 75.2147 99.9151 74.5251C100.396 73.8461 101.009 73.0593 101.716 72.3411C102.34 71.7071 103.235 70.9219 104.363 70.4038L104.593 70.3035L104.838 70.2073C106.071 69.7526 107.324 69.6969 108.262 69.7295C109.321 69.7664 110.356 69.9331 111.209 70.1129C112.076 70.2954 112.845 70.5106 113.393 70.6776C113.67 70.7619 113.898 70.8361 114.062 70.8911C114.144 70.9187 114.21 70.9417 114.259 70.9588C114.284 70.9674 114.304 70.975 114.32 70.9805C114.328 70.9833 114.334 70.9858 114.339 70.9877C114.342 70.9887 114.345 70.989 114.348 70.9898L114.351 70.9915C114.352 70.9918 114.353 70.9921 113.025 74.6545L114.353 70.9921L116.026 71.5988L120.855 84.2076L113.839 82.7085L113.839 82.7098M106.502 85.5132L106.501 85.5148L106.502 85.5132ZM106.502 85.5132L106.502 85.5122C106.504 85.5099 106.506 85.5071 106.509 85.5033C106.52 85.4879 106.541 85.4611 106.569 85.424C106.625 85.3494 106.713 85.2349 106.826 85.0921C107.056 84.8031 107.379 84.4135 107.753 84.0083C108.133 83.5967 108.525 83.2125 108.891 82.9106C109.071 82.7621 109.222 82.6515 109.341 82.5749C109.436 82.5142 109.49 82.4889 109.502 82.4831C109.516 82.4788 109.572 82.4617 109.683 82.4421C109.824 82.4169 110.013 82.3951 110.25 82.3828C110.731 82.3578 111.29 82.3781 111.859 82.4285C112.419 82.4781 112.931 82.551 113.304 82.6125C113.487 82.6429 113.633 82.6698 113.727 82.6878C113.773 82.6968 113.807 82.7034 113.826 82.7072C113.831 82.7083 113.836 82.7092 113.839 82.7098M113.839 82.7098L113.841 82.7109L113.843 82.7111C113.842 82.711 113.841 82.7103 113.839 82.7098Z" fill="#2C287C" stroke="white" stroke-width="7.7918"/>
<mask id="path-6-outside-1_36_1301" maskUnits="userSpaceOnUse" x="64.8199" y="58.4903" width="78.1819" height="56.4286" fill="black">
<rect fill="white" x="64.8199" y="58.4903" width="78.1819" height="56.4286"/>
<path d="M104.263 86.8867C102.17 80.2934 101.271 74.2489 86.8016 79.7347C72.3327 85.2206 74.6647 89.0937 76.7578 95.687C78.851 102.28 87.7882 105.705 94.3814 103.612C100.975 101.519 106.356 93.48 104.263 86.8867ZM131.822 77.3294C129.825 71.0386 128.616 65.3833 120.397 68.8443C112.177 72.3053 114.022 76.1212 116.019 82.4121C118.016 88.7028 123.839 92.8288 127.629 91.6258C131.419 90.4227 133.819 83.6203 131.822 77.3294Z"/>
</mask>
<path d="M104.263 86.8867L96.836 89.2443L96.836 89.2443L104.263 86.8867ZM86.8016 79.7347L84.0393 72.449L84.0393 72.449L86.8016 79.7347ZM76.7578 95.687L69.3313 98.0448L69.3312 98.0446L76.7578 95.687ZM94.3814 103.612L96.739 111.038L96.7389 111.038L94.3814 103.612ZM131.822 77.3294L124.395 79.687L124.395 79.687L131.822 77.3294ZM120.397 68.8443L117.373 61.6631L117.373 61.6631L120.397 68.8443ZM116.019 82.4121L108.593 84.7698L108.593 84.7697L116.019 82.4121ZM127.629 91.6258L129.986 99.0524L129.986 99.0525L127.629 91.6258ZM104.263 86.8867L96.836 89.2443C96.1851 87.1936 95.9304 86.2315 95.5264 85.2907C95.1881 84.5027 95.1416 84.7602 95.6255 85.108C96.2358 85.5467 96.5585 85.3536 95.7078 85.3938C94.7093 85.441 92.8063 85.7911 89.564 87.0205L86.8016 79.7347L84.0393 72.449C91.4452 69.6411 98.8924 68.2648 104.721 72.454C107.5 74.4514 108.975 77.1135 109.846 79.1417C110.651 81.0172 111.294 83.2831 111.689 84.5291L104.263 86.8867ZM86.8016 79.7347L89.564 87.0204C86.2135 88.2908 84.3125 89.2967 83.2762 90.0159C82.2847 90.7039 82.5692 90.7927 82.8307 90.1203C83.103 89.4203 82.9155 89.0101 83.0372 89.594C83.2161 90.452 83.5124 91.2126 84.1844 93.3294L76.7578 95.687L69.3312 98.0446C68.9567 96.8648 68.1766 94.6687 67.7817 92.7747C67.3297 90.6067 67.0709 87.6491 68.3072 84.4709C69.5328 81.3203 71.8163 79.0002 74.3916 77.213C76.922 75.457 80.1553 73.9216 84.0393 72.449L86.8016 79.7347ZM76.7578 95.687L84.1843 93.3292C84.3623 93.8897 85.0816 94.9458 86.9437 95.7415C88.7977 96.5337 90.7503 96.5893 92.024 96.185L94.3814 103.612L96.7389 111.038C91.4193 112.727 85.6067 112.117 80.8205 110.072C76.0424 108.03 71.2465 104.077 69.3313 98.0448L76.7578 95.687ZM94.3814 103.612L92.0238 96.1851C93.2811 95.786 94.8643 94.6041 95.9462 92.8486C97.0356 91.0811 97.0077 89.785 96.836 89.2443L104.263 86.8867L111.689 84.5291C113.611 90.5816 111.939 96.6015 109.213 101.025C106.479 105.46 102.075 109.344 96.739 111.038L94.3814 103.612ZM131.822 77.3294L124.395 79.687C124.084 78.7076 123.938 78.2164 123.674 77.3937C123.452 76.6984 123.26 76.1354 123.076 75.6564C122.669 74.5964 122.481 74.4518 122.632 74.6214C122.752 74.7555 123.005 74.9955 123.405 75.2109C123.818 75.4329 124.219 75.538 124.524 75.5712C125.039 75.6273 124.82 75.4362 123.42 76.0254L120.397 68.8443L117.373 61.6631C120.083 60.5219 123.098 59.7398 126.213 60.0794C129.628 60.4517 132.321 62.0765 134.253 64.2385C135.984 66.1756 136.986 68.4081 137.624 70.0695C138.256 71.7167 138.826 73.6421 139.248 74.9718L131.822 77.3294ZM120.397 68.8443L123.42 76.0254C121.844 76.689 121.419 77.1043 121.448 77.0752C121.494 77.0291 121.65 76.8587 121.806 76.5559C121.964 76.2467 122.051 75.9383 122.087 75.6901C122.145 75.2938 122.032 75.3099 122.262 76.2281C122.368 76.6493 122.517 77.1536 122.726 77.8155C122.83 78.1425 122.94 78.4826 123.062 78.8609C123.182 79.2313 123.313 79.6363 123.446 80.0545L116.019 82.4121L108.593 84.7697C108.183 83.4797 107.551 81.6278 107.148 80.0216C106.727 78.3469 106.292 76.0131 106.666 73.4439C107.576 67.2014 112.36 63.774 117.373 61.6631L120.397 68.8443ZM116.019 82.4121L123.446 80.0543C123.951 81.6458 124.95 82.9242 125.887 83.6413C126.104 83.8073 126.289 83.9207 126.428 83.9935C126.569 84.0673 126.639 84.0868 126.63 84.0842C126.622 84.0819 126.499 84.0472 126.272 84.0429C126.039 84.0385 125.69 84.0664 125.271 84.1992L127.629 91.6258L129.986 99.0525C124.62 100.756 119.549 98.4143 116.416 96.0169C112.996 93.3991 110.085 89.4691 108.593 84.7698L116.019 82.4121ZM127.629 91.6258L125.271 84.1993C124.843 84.3352 124.537 84.5181 124.35 84.6561C124.168 84.7911 124.089 84.889 124.088 84.8909C124.085 84.894 124.135 84.8318 124.211 84.6831C124.286 84.5362 124.375 84.3296 124.458 84.0615C124.821 82.9022 124.896 81.2639 124.395 79.687L131.822 77.3294L139.248 74.9718C140.745 79.6858 140.619 84.5941 139.333 88.7096C138.16 92.4629 135.373 97.3425 129.986 99.0524L127.629 91.6258Z" fill="white" mask="url(#path-6-outside-1_36_1301)"/>
<rect x="26.1406" y="98.3687" width="52.6543" height="12.3984" transform="rotate(-18.6414 26.1406 98.3687)" fill="#2C287C" stroke="white" stroke-width="7.7918"/>
<path d="M48.1314 94.0366L45.6624 93.9549L45.5344 97.8491C45.6593 94.0439 45.6613 93.9568 45.6602 93.9548L45.6571 93.9551C45.6556 93.955 45.6536 93.9553 45.6519 93.9552C45.6482 93.9551 45.6441 93.9542 45.6397 93.9541C45.6306 93.9538 45.6197 93.9534 45.6074 93.9532C45.5828 93.9526 45.5514 93.9524 45.5143 93.9519C45.4401 93.9508 45.3414 93.9499 45.2213 93.9507C44.9811 93.9525 44.6512 93.9601 44.2567 93.9832C43.4792 94.0288 42.3928 94.137 41.2165 94.3992C39.189 94.8511 35.3799 96.0985 33.8701 99.8772C32.2625 103.901 33.1119 108.727 34.7284 112.471C36.345 116.215 39.2751 120.142 43.3058 121.731C47.0914 123.223 50.6114 121.306 52.3307 120.14C53.3281 119.464 54.1519 118.747 54.7182 118.213C55.0056 117.942 55.2374 117.707 55.4033 117.533C55.4863 117.446 55.5533 117.374 55.6034 117.319C55.6285 117.292 55.6498 117.269 55.6663 117.25C55.6746 117.241 55.6817 117.233 55.6878 117.226C55.6907 117.223 55.6934 117.22 55.6957 117.217C55.6969 117.216 55.698 117.214 55.699 117.213L55.7013 117.211C55.6983 117.207 55.5961 117.116 52.781 114.633L55.7028 117.209L57.3368 115.357L48.1314 94.0366Z" fill="#93B1E2" stroke="white" stroke-width="7.7918"/>
<line x1="3.8959" y1="-3.8959" x2="10.1783" y2="-3.8959" transform="matrix(-0.952227 0.305391 0.305391 0.952227 132.462 81.2417)" stroke="white" stroke-width="7.7918" stroke-linecap="round"/>
<line x1="3.8959" y1="-3.8959" x2="15.8342" y2="-3.8959" transform="matrix(0.952227 -0.305391 -0.305391 -0.952227 82.172 93.3276)" stroke="white" stroke-width="7.7918" stroke-linecap="round"/>
<path d="M96.0344 97.8376L102.776 91.8974" stroke="white" stroke-width="7.7918" stroke-linecap="round"/>
<path d="M125.891 87.3779L119.465 86.5451" stroke="white" stroke-width="7.7918" stroke-linecap="round"/>
<line x1="3.8959" y1="-3.8959" x2="24.4118" y2="-3.8959" transform="matrix(0.952227 -0.305391 -0.305391 -0.952227 99.1969 106.44)" stroke="white" stroke-width="7.7918" stroke-linecap="round"/>
<path d="M114.215 70.392C111.73 72.9237 110.61 75.5138 110.776 78.0155C110.855 79.2046 111.218 80.1596 111.599 80.8481C111.788 81.1894 111.983 81.4664 112.151 81.6799C112.235 81.787 112.314 81.8795 112.385 81.9574C112.42 81.9964 112.453 82.0322 112.484 82.0642C112.499 82.0801 112.514 82.0951 112.529 82.1094C112.536 82.1165 112.543 82.1245 112.55 82.1313L112.564 82.1456C112.567 82.148 112.569 82.15 115.298 79.3695L112.569 82.1504L115.35 84.8797L128.743 71.2338L125.938 68.5054L123.221 71.2973C125.938 68.5051 125.935 68.503 125.933 68.5006L125.897 68.4651C125.882 68.4512 125.866 68.437 125.85 68.422C125.817 68.3919 125.781 68.3593 125.741 68.325C125.662 68.2563 125.567 68.1797 125.458 68.0976C125.241 67.9342 124.96 67.7466 124.615 67.5655C123.918 67.2003 122.957 66.8588 121.768 66.8049C119.268 66.6917 116.701 67.8595 114.215 70.392Z" fill="#2C287C" stroke="white" stroke-width="7.7918"/>
<path d="M97.1604 76.8263C100.618 77.6177 102.959 79.1943 104.168 81.3905C104.743 82.4344 104.953 83.4341 105.004 84.2195C105.028 84.6088 105.014 84.947 104.987 85.2176C104.974 85.3533 104.958 85.4738 104.94 85.5774C104.932 85.6293 104.923 85.6772 104.914 85.7208C104.91 85.7425 104.905 85.7633 104.901 85.7829C104.899 85.7928 104.897 85.8033 104.895 85.8126L104.891 85.8326C104.89 85.836 104.889 85.8392 101.091 84.97L104.889 85.8393L104.02 89.6376L85.3818 85.3718L86.2719 81.5613L90.0655 82.4466C86.2716 81.5611 86.2727 81.558 86.2734 81.5546L86.2848 81.5051C86.2896 81.4856 86.2952 81.4651 86.3008 81.4437C86.3122 81.4007 86.325 81.3538 86.34 81.3034C86.3699 81.2026 86.4083 81.0871 86.4558 80.9592C86.5505 80.7045 86.6859 80.3949 86.8789 80.0562C87.2682 79.373 87.8937 78.5667 88.8656 77.8802C90.9096 76.4362 93.7013 76.0346 97.1604 76.8263Z" fill="#2C287C" stroke="white" stroke-width="7.7918"/>
<path d="M139.762 113.831C132.566 115.897 123.769 120.605 119.02 123.304C115.162 125.496 113.537 130.052 114.848 134.14L127.336 173.078C128.463 176.592 131.582 179.189 135.369 179.47L135.737 179.489C138.602 179.586 142.797 179.643 147.161 179.395C151.463 179.151 156.198 178.599 160.015 177.375C167.415 175.002 175.494 168.741 179.378 165.51C182.313 163.069 183.279 159.158 182.171 155.702L169.808 117.154C168.526 113.158 164.702 110.422 160.387 110.734C155.309 111.102 146.271 111.962 139.762 113.831Z" fill="#D9D9D9" stroke="white" stroke-width="7.7918"/>
<g filter="url(#filter1_i_36_1301)">
<ellipse cx="20.7219" cy="6.4124" rx="20.7219" ry="6.4124" transform="matrix(-0.952227 0.305391 0.305391 0.952227 160.194 113.501)" fill="#727272"/>
</g>
<path d="M139.273 116.12C133.558 117.952 128.466 120.37 124.85 122.9C123.062 124.151 121.445 125.561 120.327 127.098C119.268 128.554 118.149 130.864 118.979 133.453C119.809 136.042 122.064 137.271 123.772 137.84C125.576 138.44 127.711 138.645 129.892 138.623C134.306 138.578 139.854 137.584 145.569 135.751C151.283 133.918 156.374 131.5 159.991 128.97C161.779 127.719 163.397 126.31 164.515 124.773C165.574 123.317 166.692 121.006 165.862 118.417C165.032 115.828 162.778 114.6 161.07 114.031C159.266 113.431 157.13 113.225 154.948 113.247C150.535 113.292 144.987 114.287 139.273 116.12Z" stroke="white" stroke-width="7.7918"/>
<mask id="path-20-outside-2_36_1301" maskUnits="userSpaceOnUse" x="83.7666" y="122.667" width="60.5629" height="68.9718" fill="black">
<rect fill="white" x="83.7666" y="122.667" width="60.5629" height="68.9718"/>
<path d="M100.842 139.335C100.818 139.385 96.5715 148.272 100.879 161.705C105.178 175.109 113.548 179.17 113.63 179.209L134.23 172.603L132.201 166.275L116.765 171.226C116.731 171.212 110.501 168.607 107.56 159.437C104.611 150.242 108.035 144.006 108.035 144.006L123.471 139.055L121.442 132.728L100.842 139.335Z"/>
</mask>
<path d="M100.842 139.335C100.818 139.385 96.5715 148.272 100.879 161.705C105.178 175.109 113.548 179.17 113.63 179.209L134.23 172.603L132.201 166.275L116.765 171.226C116.731 171.212 110.501 168.607 107.56 159.437C104.611 150.242 108.035 144.006 108.035 144.006L123.471 139.055L121.442 132.728L100.842 139.335Z" fill="#D9D9D9"/>
<path d="M100.842 139.335L93.8161 135.966L95.267 132.94L98.4623 131.915L100.842 139.335ZM100.879 161.705L93.4597 164.084L93.4597 164.084L100.879 161.705ZM113.63 179.209L116.01 186.629L113.049 187.578L110.248 186.229L113.63 179.209ZM134.23 172.603L141.65 170.223L144.029 177.643L136.61 180.022L134.23 172.603ZM132.201 166.275L129.822 158.856L137.241 156.476L139.621 163.896L132.201 166.275ZM116.765 171.226L119.144 178.646L116.416 179.521L113.77 178.419L116.765 171.226ZM107.56 159.437L100.14 161.816L100.14 161.816L107.56 159.437ZM108.035 144.006L101.205 140.256L102.699 137.534L105.655 136.586L108.035 144.006ZM123.471 139.055L130.891 136.676L133.27 144.095L125.851 146.475L123.471 139.055ZM121.442 132.728L119.063 125.308L126.482 122.929L128.862 130.348L121.442 132.728ZM100.842 139.335L107.868 142.704C108.362 141.672 104.804 148.428 108.299 159.325L100.879 161.705L93.4597 164.084C88.3389 148.117 93.2734 137.097 93.8161 135.966L100.842 139.335ZM100.879 161.705L108.299 159.325C111.756 170.104 118.215 172.769 117.012 172.19L113.63 179.209L110.248 186.229C108.882 185.571 98.6006 180.114 93.4597 164.084L100.879 161.705ZM113.63 179.209L111.251 171.79L131.851 165.183L134.23 172.603L136.61 180.022L116.01 186.629L113.63 179.209ZM134.23 172.603L126.811 174.982L124.782 168.655L132.201 166.275L139.621 163.896L141.65 170.223L134.23 172.603ZM132.201 166.275L134.581 173.695L119.144 178.646L116.765 171.226L114.385 163.807L129.822 158.856L132.201 166.275ZM116.765 171.226L113.77 178.419C112.507 177.894 104.025 173.931 100.14 161.816L107.56 159.437L114.979 157.057C116.976 163.284 120.955 164.531 119.759 164.033L116.765 171.226ZM107.56 159.437L100.14 161.816C98.2248 155.844 98.3415 150.679 99.0228 146.893C99.3608 145.015 99.8349 143.488 100.256 142.372C100.467 141.813 100.666 141.353 100.831 140.999C100.914 140.822 100.988 140.671 101.051 140.547C101.083 140.485 101.112 140.43 101.137 140.381C101.15 140.357 101.162 140.334 101.173 140.313C101.179 140.303 101.185 140.293 101.19 140.283C101.192 140.278 101.195 140.274 101.197 140.269C101.199 140.267 101.201 140.263 101.201 140.262C101.203 140.259 101.205 140.256 108.035 144.006C114.865 147.756 114.867 147.753 114.868 147.749C114.869 147.748 114.871 147.745 114.872 147.743C114.874 147.739 114.876 147.735 114.879 147.731C114.883 147.723 114.887 147.715 114.891 147.707C114.899 147.692 114.906 147.679 114.913 147.667C114.926 147.642 114.936 147.623 114.943 147.609C114.957 147.581 114.961 147.573 114.956 147.584C114.945 147.607 114.899 147.706 114.836 147.876C114.707 148.216 114.509 148.823 114.36 149.653C114.066 151.284 113.946 153.835 114.979 157.057L107.56 159.437ZM108.035 144.006L105.655 136.586L121.092 131.636L123.471 139.055L125.851 146.475L110.414 151.425L108.035 144.006ZM123.471 139.055L116.052 141.435L114.023 135.108L121.442 132.728L128.862 130.348L130.891 136.676L123.471 139.055ZM121.442 132.728L123.822 140.148L103.221 146.754L100.842 139.335L98.4623 131.915L119.063 125.308L121.442 132.728Z" fill="white" mask="url(#path-20-outside-2_36_1301)"/>
<rect x="2.52001" y="-4.89955" width="33.9705" height="36.0606" transform="matrix(-0.952227 0.305391 0.305391 0.952227 123.692 140.205)" fill="#93B0E2" stroke="white" stroke-width="7.7918"/>
<path d="M33.7521 96.5402C39.456 123.842 61.3223 141.107 93.5135 135.646C125.705 130.186 138.323 103.186 132.619 75.8848C126.916 48.5834 100.159 31.075 72.8581 36.7789C45.5566 42.4827 28.0483 69.2388 33.7521 96.5402Z" fill="#93B1E2"/>
<path d="M120.91 49.8916C120.315 29.1063 94.6142 20.5807 73.5068 25.6411C52.3994 30.7015 47.7169 33.5816 38.0551 42.011C28.3932 50.4404 15.8015 69.9308 23.839 94.1872C31.8765 118.444 59.1102 130.48 59.1102 130.48L47.8388 113.317L56.4418 114.462L60.2831 113.23L55.6877 75.5124L63.1172 52.9346L89.617 42.7561L120.077 57.8754C120.077 57.8754 120.999 53.0251 120.91 49.8916Z" fill="#191569"/>
<path d="M88.9918 40.4642C88.9918 40.4642 86.4493 38.3482 90.6977 34.3223C97.6606 27.7241 109.2 21.7026 123.483 30.8865C140.732 41.9773 138.061 56.6188 137.081 61.2806C136.101 65.9424 133.667 69.7596 133.667 69.7596L114.246 56.708L88.9918 40.4642Z" fill="#2C287C"/>
<path d="M98.3467 40.9975C98.3467 40.9975 68.1417 24.9748 55.45 51.1473C45.9313 70.7767 53.1317 77.4967 56.6044 81.1874C60.0771 84.8782 74.1708 93.0321 74.1708 93.0321L85.4873 68.2911L98.3467 40.9975Z" fill="#2C287C"/>
<path d="M113.025 74.6567C113.025 74.6567 108.355 72.9635 106.084 73.9047C103.927 74.7985 101.721 78.9862 101.721 78.9862L103.346 83.2311C103.346 83.2311 105.885 79.7228 108.074 78.8602C110.316 77.9764 114.651 78.9016 114.651 78.9016L113.025 74.6567Z" fill="#2C287C"/>
<mask id="path-28-outside-3_36_1301" maskUnits="userSpaceOnUse" x="68.077" y="61.7489" width="71.5789" height="48.9192" fill="black">
<rect fill="white" x="68.077" y="61.7489" width="71.5789" height="48.9192"/>
<path d="M104.262 86.8897C102.169 80.2964 101.271 74.2518 86.8021 79.7377C72.3333 85.2235 74.6651 89.0958 76.7582 95.689C78.8513 102.282 87.7885 105.707 94.3818 103.614C100.975 101.521 106.355 93.483 104.262 86.8897ZM131.822 77.3313C129.825 71.0406 128.616 65.3853 120.397 68.8462C112.177 72.3072 114.023 76.1231 116.02 82.414C118.017 88.7048 123.839 92.8309 127.629 91.6278C131.419 90.4246 133.819 83.6223 131.822 77.3313Z"/>
</mask>
<path d="M104.262 86.8897L108.296 85.609L108.296 85.6091L104.262 86.8897ZM86.8021 79.7377L85.3016 75.7801L85.3016 75.7801L86.8021 79.7377ZM76.7582 95.689L80.7923 94.4083L80.7923 94.4083L76.7582 95.689ZM94.3818 103.614L95.6624 107.648L95.6624 107.648L94.3818 103.614ZM131.822 77.3313L127.788 78.612L127.788 78.612L131.822 77.3313ZM120.397 68.8462L118.754 64.9454L118.754 64.9454L120.397 68.8462ZM116.02 82.414L111.986 83.6947L111.986 83.6947L116.02 82.414ZM127.629 91.6278L128.91 95.6619L128.91 95.6619L127.629 91.6278ZM104.262 86.8897L100.228 88.1703C99.6353 86.3033 99.2921 85.0434 98.7965 83.889C98.3365 82.8176 97.9638 82.4084 97.7026 82.2207C97.3273 81.9509 95.4442 80.9876 88.3026 83.6953L86.8021 79.7377L85.3016 75.7801C92.6291 73.0019 98.4294 72.3179 102.644 75.3473C104.677 76.8091 105.826 78.8044 106.575 80.5494C107.288 82.2112 107.842 84.1795 108.296 85.609L104.262 86.8897ZM86.8021 79.7377L88.3026 83.6953C84.8303 85.0118 82.6249 86.1386 81.2473 87.0945C79.8941 88.0336 79.592 88.632 79.514 88.8326C79.4418 89.0182 79.3561 89.377 79.5533 90.3227C79.7815 91.4172 80.1882 92.5055 80.7923 94.4083L76.7582 95.689L72.7241 96.9696C72.2816 95.5758 71.612 93.7077 71.2665 92.0504C70.8899 90.2442 70.7331 88.0559 71.625 85.7635C72.5109 83.4862 74.208 81.6758 76.4215 80.1399C78.6106 78.6209 81.5395 77.2065 85.3016 75.7801L86.8021 79.7377ZM76.7582 95.689L80.7923 94.4083C81.367 96.2187 83.0174 97.9364 85.5454 99.0166C88.0691 100.095 90.9034 100.277 93.1011 99.5795L94.3818 103.614L95.6624 107.648C91.2669 109.043 86.3359 108.56 82.2194 106.801C78.1072 105.044 74.2424 101.753 72.7241 96.9696L76.7582 95.689ZM94.3818 103.614L93.1011 99.5795C95.29 98.8846 97.5172 97.0858 98.9761 94.7186C100.439 92.3449 100.799 89.9701 100.228 88.1703L104.262 86.8897L108.296 85.6091C109.818 90.4025 108.535 95.3432 106.182 99.1598C103.826 102.983 100.067 106.249 95.6624 107.648L94.3818 103.614ZM131.822 77.3313L127.788 78.612C127.247 76.9073 126.862 75.5875 126.399 74.3823C125.939 73.1849 125.565 72.5635 125.287 72.2519C125.118 72.0624 125.062 72.0514 124.91 72.0348C124.596 72.0005 123.738 72.0317 122.039 72.747L120.397 68.8462L118.754 64.9454C121.165 63.9303 123.541 63.3705 125.828 63.6197C128.277 63.8867 130.189 65.0338 131.599 66.6119C132.9 68.0679 133.716 69.8235 134.302 71.3475C134.884 72.8639 135.399 74.61 135.856 76.0507L131.822 77.3313ZM120.397 68.8462L122.039 72.747C120.245 73.5027 119.362 74.1337 118.943 74.5486C118.616 74.8728 118.586 75.0401 118.565 75.179C118.524 75.46 118.537 76.0054 118.81 77.0964C119.094 78.2247 119.506 79.407 120.054 81.1334L116.02 82.414L111.986 83.6947C111.535 82.2756 110.968 80.6218 110.6 79.1571C110.223 77.6552 109.913 75.8508 110.189 73.9589C110.827 69.5753 114.154 66.8826 118.754 64.9454L120.397 68.8462ZM116.02 82.414L120.054 81.1333C120.784 83.4346 122.22 85.3187 123.724 86.4699C124.471 87.0412 125.145 87.3643 125.656 87.5095C126.17 87.656 126.373 87.5859 126.349 87.5937L127.629 91.6278L128.91 95.6619C125.129 96.8621 121.277 95.2563 118.58 93.1923C115.726 91.0086 113.252 87.6842 111.986 83.6947L116.02 82.414ZM127.629 91.6278L126.349 87.5937C126.347 87.5941 127.221 87.1562 127.856 85.1251C128.429 83.2906 128.516 80.9054 127.788 78.612L131.822 77.3313L135.856 76.0507C137.125 80.0482 137.011 84.2097 135.936 87.6499C134.922 90.8934 132.701 94.4583 128.91 95.6619L127.629 91.6278Z" fill="#2C287C" mask="url(#path-28-outside-3_36_1301)"/>
<rect x="31.0775" y="100.817" width="44.8625" height="4.60665" transform="rotate(-18.6414 31.0775 100.817)" fill="#2C287C"/>
<path d="M45.5344 97.8508C45.5344 97.8508 38.9627 97.6351 37.4885 101.325C35.3544 106.666 39.3841 115.999 44.735 118.108C48.4314 119.565 52.781 114.634 52.781 114.634L45.5344 97.8508Z" fill="#93B1E2"/>
<line x1="1.99647" y1="-1.99647" x2="12.0777" y2="-1.99647" transform="matrix(-0.952227 0.305391 0.305391 0.952227 132.462 81.2432)" stroke="#2C287C" stroke-width="3.99295" stroke-linecap="round"/>
<line x1="1.99648" y1="-1.99648" x2="17.7336" y2="-1.99648" transform="matrix(0.952227 -0.305391 -0.305391 -0.952227 82.1722 93.3276)" stroke="#2C287C" stroke-width="3.99295" stroke-linecap="round"/>
<path d="M96.0347 97.838L102.776 91.8978" stroke="#2C287C" stroke-width="1.83127" stroke-linecap="round"/>
<path d="M125.891 87.3784L119.465 86.5455" stroke="#2C287C" stroke-width="1.83127" stroke-linecap="round"/>
<line x1="1.99648" y1="-1.99648" x2="26.3112" y2="-1.99648" transform="matrix(0.952227 -0.305391 -0.305391 -0.952227 99.1971 106.441)" stroke="#2C287C" stroke-width="3.99295" stroke-linecap="round"/>
<path d="M116.995 73.1212C113.039 77.1526 115.299 79.3705 115.299 79.3705L123.221 71.2979C123.221 71.2979 120.952 69.0898 116.995 73.1212Z" fill="#2C287C"/>
<path d="M96.2915 80.6241C101.798 81.8843 101.091 84.9708 101.091 84.9708L90.0656 82.4473C90.0656 82.4473 90.7852 79.3639 96.2915 80.6241Z" fill="#2C287C"/>
<path d="M166.098 118.344C165.346 115.997 163.126 114.442 160.668 114.62C155.586 114.988 146.915 115.831 140.837 117.576C134.134 119.501 125.698 123.99 120.945 126.691C118.752 127.937 117.788 130.549 118.558 132.951L131.046 171.889C131.729 174.019 133.634 175.519 135.87 175.595C141.465 175.786 152.144 175.808 158.825 173.665C165.424 171.549 172.983 165.762 176.887 162.515C178.53 161.149 179.113 158.925 178.461 156.891L166.098 118.344Z" fill="#CECECE"/>
<g filter="url(#filter2_i_36_1301)">
<ellipse cx="20.7219" cy="6.4124" rx="20.7219" ry="6.4124" transform="matrix(-0.952227 0.305391 0.305391 0.952227 160.194 113.501)" fill="#727272"/>
</g>
<path d="M100.842 139.334C100.842 139.334 96.5595 148.234 100.879 161.704C105.193 175.155 113.607 179.198 113.63 179.21L134.231 172.603L132.201 166.275L116.765 171.226C116.714 171.205 110.497 168.595 107.56 159.437C104.618 150.263 108.02 144.034 108.035 144.006L123.472 139.056L121.442 132.728L100.842 139.334Z" fill="#CECECE"/>
<rect width="26.1787" height="28.2688" transform="matrix(-0.952227 0.305391 0.305391 0.952227 117.276 141.209)" fill="#93B0E2"/>
</g>
<defs>
<filter id="filter0_d_36_1301" x="13.4695" y="16.4263" width="182.905" height="175.098" filterUnits="userSpaceOnUse" color-interpolation-filters="sRGB">
<feFlood flood-opacity="0" result="BackgroundImageFix"/>
<feColorMatrix in="SourceAlpha" type="matrix" values="0 0 0 0 0 0 0 0 0 0 0 0 0 0 0 0 0 0 127 0" result="hardAlpha"/>
<feOffset dx="7.89043" dy="1.97261"/>
<feGaussianBlur stdDeviation="0.986304"/>
<feComposite in2="hardAlpha" operator="out"/>
<feColorMatrix type="matrix" values="0 0 0 0 0 0 0 0 0 0 0 0 0 0 0 0 0 0 0.25 0"/>
<feBlend mode="normal" in2="BackgroundImageFix" result="effect1_dropShadow_36_1301"/>
<feBlend mode="normal" in="SourceGraphic" in2="effect1_dropShadow_36_1301" result="shape"/>
</filter>
<filter id="filter1_i_36_1301" x="114.79" y="109.35" width="55.2615" height="33.1714" filterUnits="userSpaceOnUse" color-interpolation-filters="sRGB">
<feFlood flood-opacity="0" result="BackgroundImageFix"/>
<feBlend mode="normal" in="SourceGraphic" in2="BackgroundImageFix" result="shape"/>
<feColorMatrix in="SourceAlpha" type="matrix" values="0 0 0 0 0 0 0 0 0 0 0 0 0 0 0 0 0 0 127 0" result="hardAlpha"/>
<feOffset dy="6.95418"/>
<feComposite in2="hardAlpha" operator="arithmetic" k2="-1" k3="1"/>
<feColorMatrix type="matrix" values="0 0 0 0 0 0 0 0 0 0 0 0 0 0 0 0 0 0 0.25 0"/>
<feBlend mode="normal" in2="shape" result="effect1_innerShadow_36_1301"/>
</filter>
<filter id="filter2_i_36_1301" x="122.59" y="117.142" width="39.6606" height="17.5874" filterUnits="userSpaceOnUse" color-interpolation-filters="sRGB">
<feFlood flood-opacity="0" result="BackgroundImageFix"/>
<feBlend mode="normal" in="SourceGraphic" in2="BackgroundImageFix" result="shape"/>
<feColorMatrix in="SourceAlpha" type="matrix" values="0 0 0 0 0 0 0 0 0 0 0 0 0 0 0 0 0 0 127 0" result="hardAlpha"/>
<feOffset dy="6.95418"/>
<feComposite in2="hardAlpha" operator="arithmetic" k2="-1" k3="1"/>
<feColorMatrix type="matrix" values="0 0 0 0 0 0 0 0 0 0 0 0 0 0 0 0 0 0 0.25 0"/>
<feBlend mode="normal" in2="shape" result="effect1_innerShadow_36_1301"/>
</filter>
</defs>
</svg>
