<svg width="470" height="417" viewBox="0 0 470 417" fill="none" xmlns="http://www.w3.org/2000/svg">
<g filter="url(#filter0_d_19_66)">
<path d="M104.85 86.2414C113.316 85.839 122.5 87.3677 130.588 91.5021C139.286 95.6454 145.996 101.099 151.235 106.005L152.279 106.993L152.308 107.021L152.338 107.049C156.322 110.892 159.857 114.829 163.053 118.674L164.403 120.316L164.411 120.324C166.124 122.433 167.763 124.542 169.34 126.637C170.03 126.229 170.731 125.857 171.439 125.516C173.476 124.353 175.342 123.387 177.024 122.525L177.079 122.497L177.133 122.47C183.092 119.461 189.051 116.933 194.911 114.734L194.921 114.731C199.674 112.949 204.442 111.361 209.238 109.929L209.24 109.928C216.28 107.827 223.38 106.066 230.476 104.603H230.477C237.967 103.059 245.477 101.841 252.984 100.907H252.985C262.512 99.7231 272.049 98.9962 281.542 98.6642H281.545C285.67 98.5205 289.701 98.4509 293.853 98.4504H293.855C294.945 98.4504 296.022 98.4583 297.085 98.4728H297.093C304.971 98.5838 313.037 99.0852 321.3 100.225L322.955 100.462L322.965 100.463L322.975 100.465C329.158 101.386 335.288 102.636 341.635 104.445L341.646 104.448C350.55 106.992 359.848 110.688 368.663 116.059L369.724 116.714C373.431 119.038 377.046 121.668 380.488 124.613C383.538 122.885 387.064 121.898 390.82 121.898C402.413 121.898 411.81 131.295 411.81 142.888C411.81 149.236 408.991 154.926 404.538 158.775C406.521 163.96 407.975 169.224 408.976 174.44L409.21 175.695C410.331 181.969 410.821 188.232 410.82 194.29V194.295C410.818 199.921 409.952 205.154 408.648 209.873L408.594 210.067C403.793 226.787 393.75 238.991 384.444 247.921L384.401 247.962L384.358 248.002C381.132 251.062 377.787 253.878 374.371 256.478V294.153H385.044C385.069 294.185 390.82 301.606 390.82 314.232C390.82 326.885 385.044 331.145 385.044 331.145H321.933V281.879C318.81 282.756 315.679 283.545 312.557 284.248C308.967 285.057 305.368 285.755 301.765 286.355V322.484H312.693C312.693 322.484 318.469 329.911 318.469 342.564C318.469 355.217 312.693 359.477 312.693 359.477H247.983V288.248C242.933 287.763 237.881 287.08 232.846 286.188V286.187C228.217 285.366 223.592 284.367 219.033 283.197L217.083 282.686C204.57 279.329 192.437 274.665 180.853 268.679L180.85 268.678C175.168 265.74 169.63 262.489 164.283 258.931C164.233 258.983 164.184 259.036 164.135 259.088C162.774 260.512 161.413 261.936 160.052 263.36C158.923 264.631 157.958 265.66 156.974 266.687L156.951 266.711L156.927 266.737C152.871 270.94 148.487 275.028 143.499 278.934L143.44 278.979C139.604 281.959 134.959 285.216 129.259 288.022L129.234 288.034L129.209 288.046C128.177 288.55 127.077 289.055 125.915 289.54L125.858 289.564L125.801 289.587C121.27 291.444 114.542 293.676 106.039 293.361V293.362C105.993 293.361 105.946 293.358 105.9 293.357C105.862 293.355 105.823 293.354 105.785 293.353V293.352C97.013 293.021 87.7916 289.316 81.155 283.058V283.059C81.1348 283.04 81.1137 283.02 81.0935 283.001V283C72.8127 275.186 70.4684 266.29 69.4177 261.636L69.3083 261.151L69.2234 260.66C66.513 245.086 69.2851 232.562 70.866 223.879L70.9021 223.681L70.9421 223.484C72.8058 214.3 75.1965 205.549 77.7703 197.171L77.7751 197.154L77.781 197.138C78.0687 196.207 78.3594 195.277 78.6541 194.347L78.6345 194.316C72.9707 185.026 67.4496 174.755 63.2273 163.116L63.2156 163.083L63.2029 163.049C62.2076 160.275 61.2688 157.345 60.449 154.238L60.4402 154.204L60.4314 154.169C58.8614 148.133 57.4244 140.598 57.9041 131.901L57.9099 131.801C58.1635 127.588 58.9062 122.907 60.6082 117.998H60.6062C60.6196 117.958 60.6346 117.919 60.6482 117.879C60.6634 117.835 60.6777 117.791 60.6931 117.747H60.6951C63.8834 108.511 70.4315 100.198 78.4871 94.9191V94.9172C78.535 94.8853 78.5838 94.855 78.6316 94.8234C78.6627 94.8032 78.6932 94.782 78.7244 94.7619V94.7629C78.8173 94.7018 78.9104 94.6419 79.0027 94.5822C87.0307 89.0629 96.3762 86.6442 104.85 86.2414ZM88.7917 256.427C88.8344 256.694 88.8796 256.962 88.9265 257.232C88.864 256.872 88.8057 256.515 88.7507 256.16L88.7917 256.427ZM88.6179 255.254C88.656 255.528 88.6955 255.803 88.738 256.079C88.6956 255.803 88.6559 255.528 88.6179 255.254ZM88.4636 254.061C88.5004 254.373 88.5412 254.688 88.5837 255.004C88.5412 254.688 88.5004 254.373 88.4636 254.061ZM250.019 252.273C250.169 252.288 250.319 252.302 250.469 252.318C249.914 252.261 249.359 252.202 248.804 252.14L250.019 252.273ZM182.548 246.779C183.162 247.14 183.779 247.497 184.398 247.85L182.549 246.779C181.934 246.417 181.322 246.052 180.713 245.682L182.548 246.779ZM88.0867 246.144C88.0857 246.189 88.0855 246.234 88.0847 246.279C88.0869 246.159 88.0897 246.041 88.0925 245.922C88.0907 245.996 88.0882 246.07 88.0867 246.144ZM318.124 245.42V245.421V245.42ZM176.194 242.83C176.492 243.026 176.79 243.22 177.09 243.413H177.091C176.791 243.22 176.493 243.026 176.195 242.83H176.194ZM293.856 154.45C290.342 154.451 286.958 154.509 283.499 154.629C275.549 154.907 267.664 155.513 259.893 156.479C253.77 157.24 247.728 158.223 241.785 159.448L241.786 159.449C236.155 160.61 230.626 161.987 225.255 163.59L225.254 163.589C221.595 164.681 218.04 165.871 214.575 167.169L214.574 167.168C210.262 168.786 206.162 170.545 202.387 172.452L202.378 172.457L202.369 172.462C200.3 173.504 198.37 174.607 197.57 175.132C197.075 175.465 196.584 175.77 196.104 176.051C193.106 178.074 190.067 180.126 187.071 182.148C185.996 182.873 184.922 183.599 183.848 184.323C181.806 185.703 179.774 187.077 177.723 188.462L172.057 192.289L174.718 194.614L180.479 199.651C180.634 199.786 180.791 199.923 180.951 200.063C181.11 200.201 181.273 200.344 181.436 200.487C184.239 202.937 186.24 204.685 189.043 207.135C189.509 207.542 189.975 207.95 190.44 208.357C190.906 208.764 191.371 209.17 191.836 209.576C192.271 209.957 192.706 210.337 193.141 210.718C193.353 210.903 193.565 211.088 193.777 211.273C194.266 211.61 194.772 211.954 195.26 212.279L195.26 212.279C198.874 214.686 202.656 216.91 206.565 218.931L208.058 219.69C215.552 223.434 223.42 226.405 231.591 228.597L231.592 228.598C235.202 229.566 238.903 230.388 242.62 231.046L242.623 231.047C248.2 232.036 253.867 232.671 259.574 232.965H259.573C262.132 233.096 264.544 233.156 267.126 233.157C270.473 233.157 273.738 233.06 277.013 232.862C284.926 232.383 292.709 231.317 300.252 229.618L300.254 229.617C304.758 228.603 309.221 227.348 313.508 225.874L313.512 225.872C317.404 224.535 321.223 222.992 324.845 221.278H324.846C329.098 219.265 333.103 217.014 336.799 214.53C340.14 212.284 343.167 209.888 345.817 207.374L345.824 207.368L345.83 207.362C351.102 202.37 353.885 197.76 354.674 194.947C354.753 194.66 354.792 194.454 354.809 194.334C354.816 194.291 354.818 194.261 354.819 194.245C354.817 190.999 354.532 187.869 353.982 185.007L353.98 185C353.471 182.347 352.736 179.912 351.811 177.73L351.8 177.702C350.325 174.21 348.213 171.11 345.611 168.565L345.599 168.553L345.588 168.542C343.893 166.879 341.877 165.313 339.538 163.889L339.532 163.886L339.525 163.882C335.865 161.649 331.369 159.751 326.268 158.295V158.294C322.615 157.253 318.868 156.471 314.735 155.856V155.855C308.842 154.983 302.719 154.556 296.311 154.467V154.466C295.505 154.455 294.687 154.45 293.856 154.45ZM355.434 225.556H355.435C355.774 225.276 356.109 224.991 356.442 224.706C356.108 224.991 355.773 225.275 355.434 225.556ZM121.214 155.969C122.78 158.964 124.524 162.016 126.416 165.111C128.34 168.245 130.369 171.334 132.215 173.901L134.701 177.284L141.111 186.007L137.314 196.145L135.827 200.114C134.481 203.781 133.134 207.78 131.869 211.793C132.446 211.189 133.025 210.584 133.602 209.98C134.967 208.551 136.332 207.123 137.696 205.695L141.741 201.46C141.727 201.474 141.716 201.487 141.708 201.496C141.699 201.505 141.692 201.512 141.688 201.516C141.685 201.519 141.683 201.522 141.683 201.522L141.692 201.513C141.697 201.508 141.704 201.499 141.714 201.489C141.723 201.479 141.736 201.466 141.751 201.45C141.765 201.435 141.783 201.417 141.803 201.396L141.808 201.39L147.095 195.857L148.091 194.814L143.208 187.477L138.743 180.768C137.472 178.858 136.22 176.973 134.982 175.123L134.981 175.121C131.954 170.595 129.04 166.339 126.08 162.307V162.308C124.452 160.09 122.836 157.979 121.214 155.969ZM315.073 135.713H315.074C314.639 135.657 314.203 135.604 313.767 135.552H313.766C314.202 135.604 314.638 135.657 315.073 135.713ZM361.365 135.14C360.993 134.887 360.619 134.638 360.244 134.393C360.619 134.638 360.993 134.887 361.365 135.14ZM359.1 133.659C359.48 133.897 359.857 134.14 360.233 134.386C360.132 134.32 360.032 134.253 359.931 134.188C359.655 134.009 359.378 133.833 359.099 133.658L359.1 133.659ZM78.614 127.664C78.5733 127.844 78.535 128.025 78.4978 128.204L78.615 127.664C78.6557 127.484 78.6976 127.304 78.7419 127.123L78.614 127.664ZM250.197 121.457V121.458V121.457ZM270.506 119.279C269.947 119.319 269.389 119.361 268.831 119.404V119.405C269.632 119.343 270.433 119.284 271.234 119.228C270.991 119.245 270.748 119.261 270.506 119.279ZM298.255 118.496C298.918 118.51 299.582 118.527 300.246 118.547C300.064 118.542 299.882 118.535 299.7 118.53C299.218 118.517 298.736 118.505 298.255 118.495V118.496ZM94.5486 108.74L94.5496 108.741C94.642 108.701 94.7349 108.662 94.8279 108.623C94.7348 108.662 94.6411 108.7 94.5486 108.74ZM95.99 108.162V108.163C96.0402 108.145 96.091 108.127 96.1414 108.109C96.091 108.127 96.0402 108.144 95.99 108.162Z" fill="white"/>
<path d="M85.5857 129.94L111.502 115.986L157.752 157.053L299.493 124.358L354.315 143.497L381.029 181.773L373.055 220.049L299.493 259.521L209.584 248.357L163.334 220.049L139.013 243.572L102.132 261.714L108.312 198.12L85.5857 129.94Z" fill="white"/>
<path fill-rule="evenodd" clip-rule="evenodd" d="M90.1112 111.214C98.8757 105.036 112.649 104.666 121.716 109.427C128.407 112.563 133.737 116.933 138.453 121.444C142.262 125.118 145.68 128.99 148.886 132.933C151.045 135.592 153.104 138.285 155.099 141.002C158.289 145.348 161.307 149.748 164.251 154.135C165.149 153.529 166.047 152.924 166.944 152.318C171 149.582 175.056 146.845 179.111 144.108C179.584 143.789 180.087 143.525 180.608 143.316C182.496 142.208 184.253 141.293 186.147 140.322C191.341 137.7 196.619 135.455 201.939 133.458C206.234 131.848 210.568 130.404 214.959 129.093C221.405 127.169 227.942 125.546 234.516 124.19C241.454 122.76 248.438 121.626 255.452 120.754C264.352 119.647 273.298 118.964 282.241 118.651C286.13 118.516 289.93 118.451 293.855 118.45C294.85 118.45 295.835 118.457 296.81 118.471C304.514 118.579 312.229 119.093 320.028 120.246C325.488 121.06 330.758 122.141 336.153 123.679C343.708 125.837 351.281 128.887 358.263 133.142C362.743 135.869 366.989 139.103 370.804 142.848C376.823 148.725 381.703 155.95 384.957 163.68C386.954 168.391 388.39 173.286 389.336 178.213C390.36 183.543 390.821 188.966 390.82 194.288C390.819 197.857 390.27 201.29 389.37 204.547C385.928 216.534 378.597 225.812 370.596 233.49C366.303 237.561 361.689 241.174 356.879 244.409C351.551 247.989 345.978 251.104 340.246 253.817C335.348 256.136 330.289 258.175 325.212 259.919C319.619 261.842 313.885 263.449 308.163 264.737C298.595 266.893 288.892 268.209 279.186 268.797C275.168 269.04 271.181 269.158 267.123 269.158C263.929 269.157 260.911 269.081 257.72 268.918C250.578 268.55 243.427 267.751 236.338 266.494C231.61 265.656 226.89 264.609 222.265 263.368C211.107 260.375 200.318 256.226 190.035 250.911C184.97 248.293 180.045 245.399 175.304 242.241C174.634 241.796 173.95 241.332 173.297 240.881C169.42 238.206 165.697 235.373 162.071 232.293C161.258 233.144 160.446 233.996 159.633 234.848C157.75 236.818 155.867 238.789 153.984 240.76C151.111 243.768 148.237 246.775 145.363 249.783C144.347 250.937 143.501 251.839 142.532 252.851C138.988 256.524 135.29 259.958 131.169 263.186C127.943 265.692 124.48 268.082 120.426 270.078C119.706 270.43 118.969 270.767 118.216 271.081C114.968 272.412 111.212 273.567 106.643 273.371C102.552 273.247 97.9026 271.376 94.8505 268.483C90.9148 264.785 89.6945 260.633 88.9267 257.231C86.9256 245.733 88.857 236.721 90.5429 227.461C92.2379 219.108 94.4387 211.019 96.8886 203.044C98.0817 199.184 99.3126 195.395 100.65 191.568C98.9242 189.029 97.3233 186.523 95.7108 183.903C90.4393 175.257 85.6348 166.236 82.0282 156.295C81.1947 153.972 80.4369 151.598 79.787 149.135C78.4926 144.158 77.5515 138.847 77.8739 133.002C78.0428 130.196 78.5247 127.318 79.5536 124.401C81.2756 119.306 85.0855 114.46 89.5712 111.564C89.7492 111.446 89.9297 111.329 90.1112 111.214ZM114.989 123.944C109.005 121.194 103.975 121.384 98.6728 124.73C98.5935 124.781 98.5153 124.831 98.4394 124.882C96.5395 126.164 95.3997 127.626 94.6366 129.739C94.2073 130.952 93.941 132.359 93.8466 133.95C93.6466 137.267 94.2261 141.154 95.2577 145.056C95.7684 146.992 96.3867 148.938 97.0868 150.889C100.115 159.266 104.487 167.583 109.35 175.54C111.483 179.014 113.806 182.563 116.021 185.64L118.585 189.128L117.066 193.182C115.364 197.818 113.692 202.849 112.179 207.755C109.846 215.342 107.77 223.012 106.226 230.627C104.592 238.82 103.367 247.719 104.582 253.928C104.914 255.674 105.628 256.742 105.628 256.657C106.271 257.197 106.522 257.31 107.443 257.391C108.44 257.459 110.179 257.11 112.057 256.313C112.492 256.132 112.941 255.928 113.398 255.704C115.991 254.436 118.71 252.613 121.325 250.572C124.683 247.947 127.932 244.944 130.999 241.761C131.856 240.87 132.756 239.899 133.432 239.126L133.709 238.82C136.611 235.783 139.513 232.746 142.415 229.708C144.298 227.737 146.181 225.766 148.063 223.795C150.793 220.938 153.522 218.081 156.252 215.224C156.257 215.218 156.263 215.212 156.268 215.206L161.556 209.673L167.317 214.709C167.636 214.987 167.956 215.266 168.274 215.545C170.81 217.761 173.345 219.977 175.881 222.193C176.812 223.007 177.743 223.821 178.674 224.635C179.544 225.396 180.415 226.157 181.286 226.918C181.327 226.954 181.367 226.992 181.407 227.029C181.731 227.257 182.055 227.484 182.381 227.709C182.964 228.111 183.575 228.526 184.174 228.925C188.413 231.748 192.832 234.346 197.383 236.698C206.624 241.474 216.338 245.213 226.409 247.914C230.584 249.034 234.85 249.981 239.131 250.739C245.549 251.877 252.039 252.603 258.544 252.938C261.451 253.087 264.204 253.157 267.123 253.158C270.864 253.158 274.532 253.049 278.22 252.826C287.127 252.287 295.98 251.081 304.646 249.129C309.829 247.962 314.999 246.511 320.011 244.787C324.561 243.224 329.07 241.405 333.402 239.354C338.472 236.955 343.356 234.22 347.954 231.13C352.105 228.339 356.026 225.257 359.582 221.884C366.24 215.579 371.817 207.957 373.949 200.281C374.521 198.213 374.821 196.194 374.82 194.288C374.821 189.883 374.436 185.467 373.622 181.23C372.87 177.312 371.746 173.512 370.225 169.923C367.737 164.032 364.133 158.706 359.598 154.269C356.721 151.445 353.472 148.958 349.939 146.807C344.44 143.452 338.213 140.905 331.756 139.062C327.147 137.748 322.538 136.796 317.681 136.073C310.74 135.046 303.709 134.568 296.591 134.469C295.689 134.456 294.777 134.45 293.855 134.45C290.114 134.451 286.498 134.513 282.801 134.642C274.3 134.939 265.823 135.588 257.426 136.632C250.808 137.455 244.241 138.522 237.747 139.861C231.594 141.13 225.501 142.644 219.535 144.425C215.471 145.638 211.479 146.97 207.556 148.44C202.699 150.262 197.913 152.305 193.369 154.601C190.936 155.827 188.197 157.35 186.486 158.484C186.195 158.686 185.892 158.865 185.58 159.025C182.348 161.206 179.116 163.388 175.885 165.568C174.808 166.295 173.731 167.022 172.654 167.749C170.611 169.129 168.569 170.51 166.526 171.89L159.857 176.396L155.392 169.687C154.135 167.797 152.861 165.879 151.605 164.002C148.515 159.382 145.415 154.849 142.201 150.471C140.331 147.923 138.426 145.433 136.467 143.021C133.56 139.444 130.532 136.03 127.353 132.967C123.439 129.194 119.2 125.893 114.989 123.944Z" fill="black"/>
<path d="M283.435 269.962C283.435 267.84 282.592 265.805 281.092 264.305C279.591 262.805 277.557 261.962 275.435 261.962C273.313 261.962 271.278 262.805 269.778 264.305C268.278 265.805 267.435 267.84 267.435 269.962C267.442 271.484 267.451 273.059 267.458 274.53C267.503 282.924 267.548 291.361 267.593 299.748C267.629 306.303 267.664 312.882 267.699 319.436C267.742 327.26 267.784 335.166 267.826 342.916L267.868 350.605L275.553 350.868C276.464 350.899 277.375 350.93 278.286 350.961C281.91 351.085 285.535 351.209 289.159 351.333C289.708 351.351 290.256 351.37 290.805 351.389C291.773 351.422 292.742 351.455 293.71 351.488C295.831 351.56 297.893 350.787 299.444 349.339C300.995 347.891 301.906 345.886 301.979 343.766C302.051 341.645 301.278 339.583 299.83 338.032C298.382 336.482 296.377 335.57 294.256 335.497C294.256 335.497 294.256 335.497 294.256 335.497C293.288 335.464 292.32 335.431 291.351 335.398C290.802 335.379 290.254 335.361 289.705 335.342C286.081 335.218 282.457 335.094 278.832 334.971C277.921 334.939 277.01 334.908 276.099 334.877L283.826 342.829C283.784 335.08 283.741 327.173 283.699 319.35C283.664 312.795 283.628 306.216 283.593 299.662C283.548 291.275 283.502 282.838 283.458 274.445C283.45 273.001 283.441 271.311 283.435 269.962Z" fill="black"/>
<path d="M356.455 241.683C356.455 239.561 355.613 237.526 354.112 236.026C352.612 234.526 350.577 233.683 348.455 233.683C346.334 233.683 344.299 234.526 342.799 236.026C341.298 237.526 340.455 239.561 340.455 241.683C340.462 243.205 340.471 244.78 340.479 246.251C340.523 254.645 340.569 263.082 340.614 271.469C340.649 278.024 340.685 284.603 340.72 291.157C340.762 298.981 340.805 306.887 340.847 314.637L340.889 322.326L348.574 322.589C349.485 322.62 350.396 322.651 351.307 322.682C354.931 322.806 358.555 322.93 362.18 323.054C362.728 323.072 363.277 323.091 363.826 323.11C364.794 323.143 365.763 323.176 366.731 323.209C368.851 323.281 370.914 322.509 372.465 321.06C374.015 319.612 374.927 317.607 374.999 315.487C375.072 313.366 374.299 311.304 372.851 309.753C371.402 308.203 369.398 307.291 367.277 307.218C367.277 307.218 367.277 307.218 367.277 307.218C366.309 307.185 365.34 307.152 364.372 307.119C363.823 307.1 363.274 307.082 362.726 307.063C359.101 306.939 355.477 306.815 351.853 306.692C350.942 306.66 350.031 306.629 349.12 306.598L356.847 314.55C356.805 306.801 356.762 298.894 356.72 291.071C356.684 284.516 356.649 277.938 356.614 271.383C356.569 262.996 356.523 254.559 356.479 246.166C356.471 244.722 356.462 243.033 356.455 241.683Z" fill="black"/>
<path d="M388.655 131.703C386.761 132.65 385.321 134.31 384.651 136.319C383.981 138.328 384.137 140.521 385.084 142.415C386.031 144.309 387.692 145.749 389.701 146.419C391.71 147.088 393.902 146.933 395.796 145.986C395.796 145.986 395.796 145.986 395.796 145.986C395.903 145.931 395.901 145.938 395.723 146.016C395.537 146.089 395.196 146.26 394.347 146.426C393.425 146.651 390.917 146.65 389.012 145.355C388.999 145.346 388.985 145.338 388.972 145.329C386.844 143.883 386.357 142.239 386.142 141.556C385.94 140.797 385.958 140.488 385.95 140.281C385.959 139.893 385.968 139.953 385.993 139.839C386.019 139.755 386.046 139.671 386.075 139.587C386.717 137.633 388.263 136.253 389.145 135.754C390.076 135.205 390.603 135.093 390.951 135.001C391.624 134.854 391.713 134.897 391.697 134.888C391.716 134.888 391.735 134.888 391.755 134.888C392.394 134.901 394 135.03 395.622 136.589C395.654 136.619 395.685 136.651 395.715 136.682C397.175 138.185 397.68 140.176 397.396 141.931C397.392 141.957 397.387 141.982 397.383 142.008C396.944 144.014 396.063 144.375 395.332 145.032C395.327 145.036 395.322 145.04 395.317 145.044C394.793 145.464 394.36 145.63 394.336 145.64C394.314 145.647 394.426 145.607 394.657 145.53C396.591 144.886 398.19 143.499 399.102 141.675C400.013 139.852 400.163 137.741 399.519 135.806C398.874 133.872 397.487 132.273 395.664 131.361C393.84 130.45 391.729 130.3 389.795 130.944C389.795 130.944 389.795 130.944 389.795 130.944C389.564 131.022 389.214 131.135 388.739 131.319C387.984 131.614 386.837 132.134 385.7 133.049C385.689 133.057 385.678 133.066 385.667 133.075C383.949 134.54 382.284 136.017 381.615 139.292C381.608 139.333 381.601 139.374 381.595 139.416C381.124 142.304 381.982 145.515 384.249 147.841C384.297 147.89 384.345 147.938 384.393 147.986C386.89 150.411 389.764 150.868 391.608 150.888C391.661 150.888 391.713 150.888 391.765 150.888C392.463 150.875 393.272 150.878 394.642 150.569C395.338 150.393 396.208 150.167 397.446 149.432C398.633 148.75 400.444 147.098 401.201 144.803C401.235 144.704 401.267 144.605 401.298 144.505C401.682 143.201 401.911 142.021 401.933 140.389C401.928 139.56 401.897 138.625 401.528 137.265C401.148 135.987 400.36 133.75 397.704 131.959C397.687 131.948 397.671 131.937 397.654 131.927C395.497 130.464 392.668 130.44 391.455 130.722C389.349 131.184 388.93 131.611 388.655 131.703Z" fill="black"/>
<path d="M311.476 161.829C309.582 162.776 308.142 164.437 307.472 166.445C306.802 168.454 306.958 170.647 307.905 172.541C308.852 174.435 310.513 175.875 312.522 176.545C314.531 177.215 316.723 177.059 318.617 176.112C318.617 176.112 318.617 176.112 318.617 176.112C318.724 176.058 318.722 176.064 318.544 176.142C318.358 176.215 318.016 176.387 317.168 176.552C316.246 176.778 313.738 176.776 311.833 175.481C311.82 175.473 311.806 175.464 311.793 175.455C309.665 174.009 309.178 172.366 308.963 171.682C308.761 170.924 308.779 170.614 308.771 170.407C308.78 170.02 308.789 170.079 308.814 169.966C308.84 169.881 308.867 169.797 308.896 169.714C309.538 167.76 311.084 166.38 311.966 165.881C312.897 165.331 313.424 165.219 313.772 165.127C314.445 164.98 314.534 165.023 314.518 165.014C314.537 165.014 314.556 165.014 314.575 165.015C315.215 165.027 316.821 165.156 318.443 166.715C318.475 166.746 318.506 166.777 318.536 166.808C319.996 168.312 320.5 170.302 320.217 172.058C320.213 172.083 320.208 172.109 320.204 172.134C319.765 174.14 318.884 174.501 318.153 175.158C318.148 175.162 318.143 175.166 318.138 175.17C317.614 175.59 317.181 175.756 317.157 175.766C317.135 175.774 317.247 175.733 317.478 175.657C319.412 175.012 321.011 173.625 321.922 171.802C322.834 169.978 322.984 167.867 322.34 165.933C321.695 163.998 320.308 162.4 318.485 161.488C316.661 160.576 314.55 160.426 312.616 161.071C312.616 161.071 312.616 161.071 312.616 161.071C312.385 161.148 312.035 161.261 311.56 161.446C310.805 161.741 309.658 162.26 308.52 163.175C308.509 163.184 308.498 163.192 308.487 163.201C306.77 164.666 305.105 166.143 304.436 169.418C304.429 169.459 304.422 169.5 304.416 169.542C303.945 172.43 304.803 175.641 307.07 177.968C307.118 178.016 307.166 178.065 307.214 178.113C309.711 180.538 312.585 180.994 314.429 181.014C314.481 181.014 314.534 181.015 314.586 181.014C315.284 181.001 316.093 181.005 317.463 180.695C318.159 180.52 319.029 180.293 320.267 179.558C321.454 178.877 323.265 177.225 324.022 174.929C324.056 174.83 324.088 174.731 324.119 174.631C324.503 173.327 324.732 172.148 324.754 170.515C324.749 169.687 324.717 168.751 324.349 167.391C323.969 166.113 323.181 163.876 320.525 162.085C320.508 162.074 320.492 162.064 320.475 162.053C318.318 160.591 315.489 160.566 314.275 160.848C312.17 161.31 311.751 161.737 311.476 161.829Z" fill="black"/>
</g>
<defs>
<filter id="filter0_d_19_66" x="42.8102" y="86.1793" width="369" height="281.297" filterUnits="userSpaceOnUse" color-interpolation-filters="sRGB">
<feFlood flood-opacity="0" result="BackgroundImageFix"/>
<feColorMatrix in="SourceAlpha" type="matrix" values="0 0 0 0 0 0 0 0 0 0 0 0 0 0 0 0 0 0 127 0" result="hardAlpha"/>
<feOffset dx="-11" dy="4"/>
<feGaussianBlur stdDeviation="2"/>
<feComposite in2="hardAlpha" operator="out"/>
<feColorMatrix type="matrix" values="0 0 0 0 0 0 0 0 0 0 0 0 0 0 0 0 0 0 0.25 0"/>
<feBlend mode="normal" in2="BackgroundImageFix" result="effect1_dropShadow_19_66"/>
<feBlend mode="normal" in="SourceGraphic" in2="effect1_dropShadow_19_66" result="shape"/>
</filter>
</defs>
</svg>
