<svg width="223" height="251" viewBox="0 0 223 251" fill="none" xmlns="http://www.w3.org/2000/svg">
<g filter="url(#filter0_d_85_17)">
<circle cx="128.406" cy="100.945" r="62.7202" transform="rotate(11.4311 128.406 100.945)" fill="#93B1E2" stroke="white" stroke-width="10.08"/>
<path d="M140.158 26.7857C152.282 29.6099 160.103 31.9258 166.363 34.879C172.742 37.8881 177.275 41.4539 182.915 46.311C194.955 56.6794 210.879 80.827 201.041 111.172C196.167 126.204 186.98 136.552 179.102 143.103C175.157 146.383 171.508 148.739 168.823 150.287C167.478 151.061 166.37 151.636 165.58 152.025C165.184 152.22 164.868 152.368 164.641 152.472C164.527 152.524 164.435 152.565 164.368 152.595C164.334 152.61 164.305 152.622 164.283 152.632C164.273 152.636 164.263 152.641 164.255 152.644C164.251 152.646 164.247 152.647 164.244 152.649C164.243 152.649 164.24 152.65 164.24 152.651C164.237 152.649 164.188 152.54 162.262 148.014L164.236 152.652L152.941 157.46L157.599 146.102L160.984 137.847L159.856 138.005L158.732 138.163L157.651 137.823L153.254 136.444L149.279 135.197L149.756 131.058L154.597 89.0614L147.066 66.6626L121.033 56.8565L88.3327 73.3532L82.4013 76.3454L81.1179 69.827L81.1172 69.8259L81.1166 69.8238C81.1163 69.8222 81.1163 69.8198 81.1159 69.8176C81.115 69.8133 81.1136 69.8078 81.1123 69.801C81.1095 69.7867 81.106 69.7665 81.1013 69.742C81.0918 69.6929 81.0784 69.624 81.0621 69.5368C81.0293 69.3617 80.9842 69.1125 80.9301 68.8047C80.8223 68.1908 80.679 67.3341 80.5387 66.3553C80.2691 64.4754 79.9643 61.8555 80.0136 59.6295C80.331 45.2988 89.454 35.4247 101.085 30.1196C112.61 24.863 127.12 23.7485 140.158 26.7857Z" fill="#191569" stroke="white" stroke-width="10.08"/>
<g filter="url(#filter1_d_85_17)">
<path d="M128.357 51.5362L119.44 53.1393C119.44 53.1393 127.283 62.1707 128.509 69.305C129.709 76.2852 125.563 87.2001 125.563 87.2001C125.563 87.2001 136.367 70.396 135.325 63.8287C134.189 56.6747 128.357 51.5362 128.357 51.5362Z" fill="#2C287C"/>
<path d="M109.819 49.7479L115.633 56.4429C115.635 56.4447 115.638 56.4469 115.641 56.4506C115.65 56.4613 115.666 56.4813 115.689 56.5084C115.735 56.5625 115.808 56.6486 115.903 56.7635C116.095 56.9939 116.377 57.3397 116.724 57.7799C117.421 58.6645 118.361 59.9114 119.33 61.3556C121.389 64.4221 123.122 67.7114 123.542 70.1584C123.954 72.5543 123.455 76.1601 122.592 79.665C122.186 81.3157 121.743 82.7752 121.401 83.8202C121.231 84.3405 121.088 84.7527 120.99 85.0281C120.941 85.1657 120.904 85.2688 120.88 85.3338C120.868 85.3662 120.859 85.389 120.854 85.4019C120.852 85.4083 120.85 85.4123 120.849 85.4137L120.851 85.4114C120.851 85.4115 120.853 85.4112 120.858 85.4131L129.802 89.9263L125.563 87.1996C129.714 89.8686 129.8 89.9245 129.803 89.9251L129.803 89.923C129.804 89.9219 129.805 89.921 129.806 89.9195C129.809 89.9162 129.812 89.9113 129.815 89.906C129.822 89.8954 129.831 89.8807 129.843 89.8623C129.867 89.8252 129.9 89.7721 129.942 89.7045C130.028 89.5688 130.152 89.3737 130.307 89.1251C130.615 88.6282 131.05 87.9172 131.568 87.0458C132.6 85.3088 133.973 82.9067 135.321 80.2741C136.658 77.6623 138.026 74.7129 139.001 71.9019C139.899 69.3118 140.772 66.0032 140.302 63.0387C139.561 58.3736 137.337 54.5495 135.477 52.0164C134.527 50.7237 133.62 49.6941 132.938 48.9772C132.596 48.6174 132.306 48.3322 132.092 48.1273C131.984 48.0246 131.895 47.9414 131.827 47.8792C131.793 47.8482 131.764 47.822 131.741 47.8013C131.73 47.7909 131.719 47.7818 131.711 47.7741C131.706 47.7702 131.702 47.7665 131.699 47.7633C131.697 47.7617 131.695 47.7598 131.693 47.7584L131.691 47.7568C131.684 47.7618 131.558 47.9024 128.588 51.2733L131.688 47.7543L129.862 46.1448L109.819 49.7479Z" stroke="white" stroke-width="10.08"/>
</g>
<path d="M140.588 46.4542C136.319 41.4686 128.947 35.509 120.035 32.0077C111.036 28.4723 100.057 27.3113 89.2236 32.7769C76.9739 38.957 70.8515 47.2605 68.0443 55.141C65.295 62.8594 65.8893 69.7282 66.2073 72.8066C66.4677 75.3276 66.4441 78.2295 66.3397 80.5918C66.2884 81.7528 66.22 82.7438 66.1644 83.4399C66.1366 83.7874 66.1113 84.0599 66.0943 84.2412C66.0859 84.3316 66.0797 84.3992 66.0754 84.4421C66.0733 84.4636 66.0721 84.4792 66.0712 84.488C66.0709 84.4903 66.0718 84.4923 66.0716 84.4937L66.0703 84.4941L65.0721 93.9915L73.476 89.4563L101.276 74.4556L140.131 62.2045L141.055 61.9125L141.806 61.3001L138.616 57.398L141.409 60.8102C141.797 61.2826 141.811 61.2951 141.813 61.294C141.814 61.2929 141.818 61.2891 141.821 61.287C141.826 61.2828 141.831 61.2781 141.836 61.2738C141.847 61.2651 141.858 61.2567 141.869 61.2475C141.891 61.229 141.914 61.2092 141.937 61.1887C141.984 61.1478 142.034 61.1029 142.087 61.0537C142.192 60.9551 142.31 60.8384 142.434 60.7035C142.682 60.4343 142.963 60.0852 143.237 59.6511C143.796 58.767 144.303 57.5599 144.441 56.0516C144.725 52.9635 143.404 49.7429 140.588 46.4542Z" fill="#2C287C" stroke="white" stroke-width="10.08"/>
<path d="M133.025 42.4429C138.839 42.7088 145.337 44.07 151.257 47.7674C157.256 51.514 162.325 57.4528 165.499 66.2604C169.935 78.5713 170.139 87.2002 167.865 93.599C165.599 99.9773 161.07 103.259 159.133 104.925C157.619 106.227 155.341 107.617 153.121 108.862C150.801 110.163 148.177 111.507 145.739 112.708C143.293 113.913 140.993 114.995 139.307 115.775C138.463 116.165 137.769 116.48 137.286 116.699C137.044 116.809 136.854 116.894 136.724 116.953C136.659 116.982 136.609 117.005 136.574 117.02C136.557 117.028 136.543 117.033 136.534 117.038C136.53 117.04 136.526 117.041 136.523 117.042C136.522 117.043 136.521 117.043 136.52 117.043L136.519 117.044L134.468 112.44L136.519 117.045L131.452 119.3L129.69 114.041L119.835 84.631L108.518 52.0828L106.908 47.4506L111.494 45.7134L113.279 50.4276C111.494 45.7142 111.496 45.7126 111.498 45.7118C111.499 45.7114 111.502 45.711 111.504 45.7104C111.508 45.709 111.512 45.7069 111.517 45.7051C111.526 45.7015 111.539 45.6968 111.553 45.6916C111.581 45.6811 111.618 45.6674 111.663 45.651C111.755 45.6178 111.881 45.5728 112.039 45.518C112.355 45.4085 112.802 45.2591 113.364 45.0848C114.486 44.7367 116.078 44.2864 118.015 43.8539C121.864 42.9947 127.211 42.177 133.025 42.4429Z" fill="#2C287C" stroke="white" stroke-width="10.08"/>
<path d="M101.297 100.675L106.801 108.18L112.704 92.4642L111.627 90.4509L107.664 92.5709C111.621 90.4531 111.626 90.4503 111.626 90.4496L111.624 90.4446C111.622 90.4422 111.62 90.4394 111.618 90.4364C111.615 90.4305 111.612 90.4235 111.607 90.4155C111.598 90.3988 111.586 90.3768 111.572 90.3512C111.544 90.3 111.506 90.2316 111.459 90.1479C111.364 89.9803 111.232 89.7494 111.067 89.474C110.74 88.929 110.267 88.1795 109.692 87.379C109.126 86.5919 108.401 85.6702 107.558 84.825C106.818 84.0833 105.731 83.1367 104.343 82.5107L104.062 82.3895L103.758 82.2733C102.243 81.7256 100.724 81.6723 99.619 81.7179C98.3641 81.7698 97.1481 81.9755 96.1551 82.1913C95.1449 82.4109 94.2505 82.6666 93.6134 82.865C93.2918 82.9651 93.027 83.0529 92.8359 83.1186C92.7401 83.1515 92.6617 83.1797 92.6038 83.2004C92.5752 83.2106 92.5514 83.219 92.5327 83.2258L92.4989 83.2382C92.4975 83.2387 92.4963 83.2394 92.4951 83.2399L92.4929 83.2401C92.4924 83.2409 92.5107 83.2885 94.0544 87.4621L94.0535 87.4617L92.4917 83.2407L90.3315 84.04L84.4318 99.7468L93.4964 97.7489L93.4969 97.7502L93.4957 97.7508L93.4935 97.751C93.4922 97.7513 93.4909 97.7516 93.4901 97.7518C93.4887 97.7521 93.4883 97.7525 93.4888 97.7524C93.4902 97.7521 93.4961 97.7505 93.506 97.7484C93.5258 97.7442 93.5621 97.7372 93.6131 97.7271C93.7157 97.7067 93.8761 97.6759 94.0805 97.6408C94.4947 97.5696 95.0634 97.4844 95.6844 97.4254C96.3171 97.3652 96.9257 97.3394 97.4396 97.3628C97.8648 97.3822 98.0725 97.4283 98.1167 97.4377C98.1759 97.472 98.3535 97.582 98.6507 97.8239C99.0434 98.1436 99.4736 98.5595 99.8987 99.0146C100.316 99.4613 100.678 99.8924 100.936 100.213C101.064 100.371 101.162 100.497 101.224 100.579C101.255 100.619 101.277 100.649 101.289 100.665C101.291 100.666 101.292 100.668 101.294 100.669L101.293 100.67L101.294 100.671M101.297 100.675C101.296 100.674 101.295 100.672 101.294 100.671M101.297 100.675L101.296 100.674L101.295 100.672L101.294 100.671M101.297 100.675L101.294 100.671" fill="#2C287C" stroke="white" stroke-width="10.08"/>
<mask id="path-8-outside-1_85_17" maskUnits="userSpaceOnUse" x="58.3084" y="67.6809" width="92.6851" height="67.1107" fill="black">
<rect fill="white" x="58.3084" y="67.6809" width="92.6851" height="67.1107"/>
<path d="M104.338 101.874C106.68 94.3277 107.662 87.4171 124.228 93.5761C140.794 99.7351 138.159 104.175 135.817 111.721C133.475 119.267 123.292 123.244 115.746 120.902C108.201 118.56 101.996 109.419 104.338 101.874ZM72.7907 91.1601C75.0253 83.9603 76.3642 77.4916 85.7776 81.384C95.1909 85.2764 93.112 89.6483 90.8774 96.848C88.6428 104.048 82.0224 108.803 77.6848 107.457C73.3475 106.11 70.5562 98.3596 72.7907 91.1601Z"/>
</mask>
<path d="M104.338 101.874L94.7111 98.8857L94.711 98.886L104.338 101.874ZM124.228 93.5761L127.741 84.128L127.741 84.128L124.228 93.5761ZM135.817 111.721L126.19 108.733L126.19 108.733L135.817 111.721ZM115.746 120.902L112.758 130.529L112.758 130.529L115.746 120.902ZM72.7907 91.1601L63.1637 88.1721L63.1637 88.1722L72.7907 91.1601ZM85.7776 81.384L89.6295 72.069L89.6294 72.0689L85.7776 81.384ZM90.8774 96.848L81.2504 93.8601L81.2504 93.8601L90.8774 96.848ZM77.6848 107.457L74.6958 117.083L74.6969 117.084L77.6848 107.457ZM104.338 101.874L113.965 104.862C114.126 104.343 114.281 103.829 114.416 103.381C114.556 102.916 114.679 102.512 114.8 102.128C115.046 101.347 115.231 100.826 115.392 100.445C115.733 99.6365 115.681 100.152 114.885 100.732C113.926 101.431 113.275 101.253 114.05 101.285C115.015 101.324 117.06 101.665 120.715 103.024L124.228 93.5761L127.741 84.128C119.235 80.9658 110.172 79.2226 103.013 84.4388C99.6078 86.9199 97.8361 90.1932 96.8166 92.6103C95.8808 94.8291 95.1347 97.5209 94.7111 98.8857L104.338 101.874ZM124.228 93.5761L120.715 103.024C124.511 104.435 126.588 105.531 127.663 106.267C128.68 106.963 128.16 106.899 127.742 105.843C127.31 104.753 127.553 104.027 127.443 104.575C127.383 104.871 127.268 105.313 127.038 106.057C126.926 106.421 126.803 106.805 126.656 107.262C126.515 107.702 126.353 108.208 126.19 108.733L135.817 111.721L145.444 114.709C145.841 113.43 146.751 110.807 147.204 108.562C147.729 105.963 148.035 102.328 146.483 98.4136C144.946 94.5354 142.125 91.7347 139.05 89.6302C136.033 87.5656 132.228 85.7963 127.741 84.128L124.228 93.5761ZM135.817 111.721L126.19 108.733C126.12 108.959 125.613 109.949 123.713 110.776C121.822 111.598 119.885 111.632 118.734 111.275L115.746 120.902L112.758 130.529C119.154 132.514 126.08 131.73 131.753 129.263C137.416 126.8 143.172 122.029 145.444 114.709L135.817 111.721ZM115.746 120.902L118.734 111.275C117.605 110.924 116.003 109.79 114.881 107.995C113.75 106.185 113.903 105.062 113.965 104.861L104.338 101.874L94.711 98.886C92.4317 106.231 94.5161 113.451 97.7876 118.683C101.069 123.931 106.342 128.537 112.758 130.529L115.746 120.902ZM72.7907 91.1601L82.4177 94.148C82.5661 93.6697 82.7105 93.1956 82.8425 92.7631C82.9776 92.3202 83.1013 91.9159 83.2234 91.5263C83.4701 90.7387 83.6769 90.1186 83.872 89.6007C84.0676 89.0813 84.2094 88.7786 84.2946 88.6189C84.3796 88.4593 84.3473 88.5585 84.1523 88.7796C83.9391 89.0213 83.5474 89.3898 82.9548 89.7136C82.3463 90.0462 81.7417 90.2133 81.2489 90.2703C80.3868 90.3699 80.4228 90.0776 81.9259 90.6991L85.7776 81.384L89.6294 72.0689C86.4257 70.7442 82.7644 69.8008 78.9339 70.2436C74.7164 70.7311 71.3939 72.7671 69.0319 75.4454C66.928 77.8311 65.7395 80.5469 65.0058 82.4949C64.2791 84.4243 63.6246 86.6872 63.1637 88.1721L72.7907 91.1601ZM85.7776 81.384L81.9258 90.6991C83.658 91.4153 83.9957 91.816 83.8125 91.6368C83.6793 91.5066 83.4215 91.2144 83.1784 90.7481C82.9311 90.2735 82.7918 89.7965 82.7304 89.3934C82.6273 88.7167 82.797 88.5583 82.5546 89.5513C82.4454 89.9987 82.2874 90.5493 82.0556 91.299C81.9413 91.6687 81.8194 92.0541 81.6821 92.4876C81.548 92.911 81.4001 93.3778 81.2504 93.8601L90.8774 96.848L100.504 99.836C100.949 98.4025 101.679 96.2168 102.139 94.3322C102.621 92.3589 103.141 89.5144 102.661 86.3582C101.482 78.6193 95.5078 74.4997 89.6295 72.069L85.7776 81.384ZM90.8774 96.848L81.2504 93.8601C80.7585 95.4452 79.7707 96.7106 78.8929 97.3913C78.4675 97.7212 78.2806 97.7489 78.4406 97.7023C78.5904 97.6586 79.4376 97.4462 80.6727 97.8296L77.6848 107.457L74.6969 117.084C81.3651 119.153 87.5419 116.195 91.2466 113.323C95.322 110.163 98.7617 105.451 100.504 99.836L90.8774 96.848ZM77.6848 107.457L80.6737 97.8299C81.9305 98.2201 82.5088 98.8869 82.5953 98.9932C82.6911 99.111 82.5447 98.9658 82.3749 98.4345C82.0241 97.337 81.9315 95.7146 82.4177 94.148L72.7907 91.1601L63.1637 88.1722C61.4154 93.8051 61.6012 99.6576 63.1718 104.572C64.593 109.019 68.0027 115.005 74.6958 117.083L77.6848 107.457Z" fill="white" mask="url(#path-8-outside-1_85_17)"/>
<rect x="6.36606" y="-3.2057" width="61.3201" height="15.3415" transform="matrix(-0.949579 -0.313527 -0.313527 0.949579 199.434 119.076)" fill="#2C287C" stroke="white" stroke-width="10.08"/>
<path d="M168.102 109.051L171.296 108.926L171.494 113.961C171.297 108.925 171.298 108.925 171.3 108.925L171.302 108.925C171.304 108.925 171.307 108.925 171.31 108.925C171.314 108.925 171.319 108.924 171.325 108.924C171.336 108.923 171.35 108.923 171.365 108.923C171.394 108.922 171.432 108.921 171.476 108.92C171.565 108.918 171.682 108.917 171.824 108.917C172.107 108.917 172.494 108.923 172.956 108.947C173.865 108.995 175.14 109.114 176.525 109.413C178.801 109.905 183.219 111.283 185.194 115.548L185.378 115.969L185.552 116.421C187.264 121.112 186.28 126.588 184.488 130.813C182.638 135.174 179.232 139.842 174.435 141.769C169.83 143.619 165.566 141.298 163.568 139.962C162.39 139.174 161.419 138.34 160.753 137.719C160.414 137.404 160.141 137.13 159.944 136.927C159.845 136.825 159.765 136.739 159.704 136.674C159.674 136.642 159.649 136.615 159.629 136.592C159.619 136.581 159.61 136.571 159.602 136.563C159.598 136.559 159.595 136.555 159.592 136.551C159.591 136.55 159.588 136.548 159.587 136.546L159.586 136.544C159.585 136.543 159.583 136.542 163.341 133.184L159.583 136.542L157.453 134.158L168.102 109.051Z" fill="#93B1E2" stroke="white" stroke-width="10.08"/>
<line x1="78.4059" y1="92.332" x2="84.1261" y2="94.1259" stroke="white" stroke-width="10.08" stroke-linecap="round"/>
<line x1="123.298" y1="112.367" x2="111.414" y2="108.64" stroke="white" stroke-width="10.08" stroke-linecap="round"/>
<path d="M87.3348 80.0001C91.3054 81.2453 93.996 83.3391 95.2656 86.1482C95.8674 87.4798 96.0279 88.7257 96.0134 89.6967C96.0062 90.1779 95.9564 90.5939 95.8967 90.9272C95.8668 91.0943 95.8335 91.2428 95.8015 91.3712C95.7854 91.4355 95.77 91.4954 95.7546 91.5499C95.747 91.577 95.7387 91.6028 95.7313 91.6275C95.7276 91.6399 95.7244 91.6525 95.7209 91.6642L95.7127 91.6903C95.7114 91.6945 95.7099 91.6986 90.901 90.1904L95.71 91.6986L94.2018 96.5077L72.2362 89.619L73.7713 84.7958L78.574 86.3245C73.7936 84.8027 73.7727 84.7917 73.774 84.7874L73.7822 84.7613C73.786 84.7496 73.7904 84.7376 73.7945 84.7253C73.8027 84.7008 73.8113 84.6752 73.8206 84.6485C73.8393 84.5951 73.8604 84.5369 73.8842 84.4751C73.9318 84.3515 73.9908 84.2111 74.0624 84.0571C74.205 83.7501 74.403 83.3814 74.6733 82.9837C75.2186 82.1812 76.0638 81.2554 77.3178 80.5103C79.9627 78.9389 83.363 78.7545 87.3348 80.0001Z" fill="#2C287C" stroke="white" stroke-width="10.08"/>
<path d="M120.021 89.8261C116.051 88.5808 112.646 88.7631 110 90.3441C108.746 91.0935 107.902 92.0246 107.36 92.83C107.091 93.2292 106.894 93.5991 106.753 93.9068C106.682 94.061 106.624 94.2019 106.577 94.3256C106.554 94.3876 106.532 94.4456 106.514 94.4991C106.505 94.5258 106.497 94.5517 106.489 94.5762C106.485 94.5884 106.48 94.6006 106.476 94.6122L106.468 94.6383C106.467 94.6425 106.466 94.6467 111.275 96.1549L106.465 94.6467L104.957 99.4558L126.923 106.345L128.417 101.509L123.601 100.021C128.395 101.501 128.418 101.504 128.42 101.5L128.428 101.474C128.431 101.462 128.435 101.45 128.438 101.437C128.446 101.413 128.453 101.387 128.461 101.359C128.476 101.305 128.492 101.245 128.507 101.181C128.539 101.052 128.571 100.903 128.6 100.736C128.658 100.402 128.706 99.9867 128.711 99.5058C128.722 98.5357 128.557 97.2931 127.953 95.9653C126.679 93.1649 123.993 91.0718 120.021 89.8261Z" fill="#2C287C" stroke="white" stroke-width="10.08"/>
<path d="M103.114 122.175C103.114 122.175 98.259 128.326 91.0321 125.824C83.6643 123.274 82.8863 115.803 82.8863 115.803" stroke="white" stroke-width="10.08" stroke-linecap="round"/>
<path d="M67.2561 141.97L74.6137 146.201L80.8422 149.782L75.3549 154.42L70.9604 158.133L68.1711 167.026L66.1753 173.39L60.5988 169.733L43.273 158.372L35.3343 153.168L44.0923 149.508L62.8003 141.689L65.0969 140.729L67.2561 141.97Z" fill="#6B8ABF" stroke="white" stroke-width="10.08"/>
<path d="M104.38 166.384L110.15 170.183L119.153 176.113L108.83 179.219L77.2949 188.707L75.9457 189.113L74.5825 188.761L41.3128 180.168L41.3135 180.169L26.327 176.305L22.8762 175.415L22.5649 171.865L21.4488 159.129L21.0597 154.685L25.4243 153.759L47.6072 149.055L48.8933 148.783L66.5546 154.27L66.7522 157.762L66.9058 160.493L80.5987 165.186L101.696 165.554L103.159 165.58L104.38 166.384Z" fill="#40A4CC" stroke="white" stroke-width="10.08"/>
<path d="M126.412 170.35L126.049 186.268L125.972 189.683L122.77 190.876L77.2287 207.842L75.5682 208.46L73.887 207.904L20.9493 190.394L17.4451 189.235L17.4924 185.545L17.705 168.904L17.792 162.134L24.2527 164.159L80.5579 181.81L94.7299 177.95L94.3411 177.638L86.0612 170.976L96.4585 168.78L106.168 166.73L106.434 166.673L106.705 166.646L120.869 165.221L126.541 164.651L126.412 170.35Z" fill="#177CA4" stroke="white" stroke-width="10.08"/>
<path d="M39.0362 170.45L38.9013 174.298L38.4652 186.757L38.2343 193.351L18.3367 187.169L18.4716 183.322L18.9077 170.863L19.1386 164.268L39.0362 170.45Z" fill="#001D4A" stroke="white" stroke-width="10.08"/>
<path d="M97.8587 162.535C100.208 163.265 102.433 164.444 104.098 165.987C105.463 167.251 107.879 170.191 106.706 173.967C105.533 177.743 101.876 178.794 100.035 179.063C97.7892 179.39 95.2878 179.101 92.9383 178.371C90.5888 177.641 88.3633 176.461 86.6982 174.919C85.3761 173.694 83.0674 170.898 83.9908 167.292L84.0908 166.94L84.2076 166.594C85.4903 163.099 88.9774 162.103 90.761 161.843C93.007 161.516 95.5092 161.805 97.8587 162.535Z" fill="#001D4A" stroke="white" stroke-width="10.08"/>
<path d="M101.557 184.634L79.4757 177.773L84.8944 171.908L89.062 167.398L90.8306 165.484L93.4145 165.821L100.919 166.798L106.859 167.572L101.557 184.634Z" fill="#001D4A" stroke="white" stroke-width="10.08"/>
<path d="M96.0882 168.233C98.4376 168.963 100.662 170.143 102.327 171.685C103.692 172.95 106.109 175.889 104.935 179.665C103.762 183.441 100.106 184.493 98.2646 184.761C96.0186 185.088 93.5173 184.799 91.1678 184.069C88.8182 183.339 86.5928 182.16 84.9277 180.617C83.6056 179.392 81.2968 176.596 82.2203 172.99L82.3203 172.638L82.4371 172.292C83.7198 168.797 87.2069 167.801 88.9905 167.541C91.2365 167.214 93.7387 167.503 96.0882 168.233Z" fill="#001D4A" stroke="white" stroke-width="10.08"/>
<path d="M66.2981 155.976L69.624 163.094L74.452 173.424L53.6992 166.976L60.7836 144.175L66.2981 155.976Z" fill="#177CA3" stroke="white" stroke-width="10.08"/>
<path d="M82.9211 183.614C83.2483 183.715 83.5725 183.79 83.8855 183.844C83.585 184.182 83.2722 184.422 83.0178 184.576C82.8452 184.681 82.6863 184.756 82.5491 184.811L82.9211 183.614ZM82.9211 183.614L82.5494 184.81C82.4677 184.687 82.3795 184.536 82.2969 184.352C82.1747 184.081 82.0512 183.706 81.9952 183.257C82.2837 183.39 82.5934 183.512 82.9211 183.614ZM84.3389 179.051C84.202 179.106 84.0434 179.181 83.8714 179.285C83.6171 179.439 83.3025 179.678 83.0021 180.016C83.3155 180.069 83.6395 180.145 83.9672 180.247M84.3389 179.051L83.9672 180.247M84.3389 179.051C84.4207 179.174 84.5096 179.325 84.5923 179.509C84.7144 179.78 84.8363 180.155 84.8925 180.603C84.6043 180.47 84.2943 180.349 83.9672 180.247M84.3389 179.051L83.9672 180.247M85.4626 175.434C86.991 175.909 88.5221 176.699 89.7289 177.817C90.6355 178.657 92.8298 181.137 91.7786 184.52C90.7273 187.904 87.5139 188.704 86.2909 188.882C84.663 189.119 82.954 188.902 81.4257 188.427C79.8975 187.952 78.3667 187.163 77.16 186.045C76.2817 185.231 74.1947 182.878 75.021 179.656L75.1106 179.341L75.2148 179.032C76.3601 175.908 79.4132 175.153 80.598 174.98C82.2258 174.743 83.9343 174.959 85.4626 175.434Z" fill="#001D4A" stroke="white" stroke-width="10.08"/>
<path d="M73.6036 183.562C73.9308 183.664 74.255 183.739 74.568 183.792C74.2675 184.13 73.9547 184.37 73.7003 184.525C73.5277 184.629 73.3688 184.704 73.2316 184.759L73.6036 183.562ZM73.6036 183.562L73.2319 184.759C73.1502 184.636 73.062 184.484 72.9794 184.301C72.8572 184.029 72.7337 183.654 72.6777 183.205C72.9662 183.338 73.2759 183.46 73.6036 183.562ZM75.0214 178.999C74.8845 179.054 74.7259 179.129 74.5539 179.233C74.2996 179.387 73.985 179.626 73.6846 179.964C73.998 180.018 74.322 180.094 74.6497 180.195M75.0214 178.999L74.6497 180.195M75.0214 178.999C75.1032 179.122 75.1921 179.273 75.2748 179.457C75.3969 179.728 75.5188 180.103 75.5749 180.551C75.2868 180.418 74.9768 180.297 74.6497 180.195M75.0214 178.999L74.6497 180.195M76.1451 175.382C77.6735 175.857 79.2046 176.647 80.4114 177.765C81.318 178.605 83.5123 181.085 82.4611 184.468C81.4098 187.852 78.1964 188.652 76.9734 188.83C75.3455 189.068 73.6365 188.85 72.1082 188.375C70.58 187.9 69.0492 187.111 67.8425 185.993C66.9642 185.18 64.8772 182.827 65.7035 179.604L65.7931 179.289L65.8973 178.98C67.0426 175.857 70.0957 175.101 71.2805 174.928C72.9083 174.691 74.6168 174.908 76.1451 175.382Z" fill="#001D4A" stroke="white" stroke-width="10.08"/>
<path d="M78.6346 178.59C78.9618 178.692 79.286 178.767 79.599 178.82C79.2985 179.158 78.9857 179.399 78.7313 179.553C78.5587 179.658 78.3998 179.733 78.2626 179.788L78.6346 178.59ZM78.6346 178.59L78.2629 179.787C78.1812 179.664 78.093 179.512 78.0104 179.329C77.8882 179.058 77.7647 178.682 77.7087 178.233C77.9972 178.367 78.3069 178.489 78.6346 178.59ZM80.0524 174.027C79.9155 174.082 79.7569 174.157 79.5849 174.261C79.3306 174.416 79.016 174.655 78.7156 174.992C79.029 175.046 79.353 175.122 79.6807 175.224M80.0524 174.027L79.6807 175.224M80.0524 174.027C80.1342 174.15 80.2231 174.302 80.3058 174.485C80.4279 174.756 80.5498 175.132 80.606 175.58C80.3178 175.446 80.0078 175.325 79.6807 175.224M80.0524 174.027L79.6807 175.224M81.1761 170.411C82.7045 170.886 84.2356 171.676 85.4424 172.794C86.349 173.634 88.5433 176.113 87.4921 179.497C86.4408 182.88 83.2274 183.68 82.0044 183.859C80.3765 184.096 78.6675 183.878 77.1392 183.403C75.611 182.929 74.0802 182.14 72.8735 181.022C71.9952 180.208 69.9082 177.855 70.7345 174.632L70.8241 174.318L70.9283 174.009C72.0736 170.885 75.1267 170.129 76.3115 169.957C77.9393 169.719 79.6478 169.936 81.1761 170.411Z" fill="#001D4A" stroke="white" stroke-width="10.08"/>
<path d="M69.8639 178.708C70.1911 178.809 70.5153 178.884 70.8283 178.938C70.5278 179.276 70.2149 179.516 69.9605 179.67C69.788 179.775 69.629 179.85 69.4918 179.905L69.8639 178.708ZM69.8639 178.708L69.4921 179.904C69.4105 179.781 69.3222 179.63 69.2396 179.446C69.1174 179.175 68.9939 178.799 68.9379 178.35C69.2265 178.484 69.5362 178.606 69.8639 178.708ZM71.2817 174.144C71.1448 174.199 70.9862 174.274 70.8142 174.379C70.5599 174.533 70.2452 174.772 69.9449 175.11C70.2582 175.163 70.5823 175.239 70.9099 175.341M71.2817 174.144L70.9099 175.341M71.2817 174.144C71.3634 174.267 71.4523 174.419 71.5351 174.603C71.6571 174.874 71.7791 175.249 71.8352 175.697C71.547 175.564 71.2371 175.443 70.9099 175.341M71.2817 174.144L70.9099 175.341M72.4054 170.528C73.9338 171.003 75.4648 171.793 76.6717 172.911C77.5783 173.751 79.7726 176.23 78.7214 179.614C77.6701 182.997 74.4567 183.798 73.2337 183.976C71.6057 184.213 69.8968 183.995 68.3684 183.521C66.8402 183.046 65.3094 182.257 64.1027 181.139C63.2245 180.325 61.1375 177.972 61.9637 174.75L62.0533 174.435L62.1576 174.126C63.3028 171.002 66.3559 170.246 67.5408 170.074C69.1686 169.837 70.8771 170.053 72.4054 170.528Z" fill="#001D4A" stroke="white" stroke-width="10.08"/>
<path d="M53.4222 146.195C55.6747 146.475 57.8936 147.282 59.6474 148.623C61.2888 149.878 63.3448 152.329 62.9211 155.733C62.4972 159.137 59.9031 161.009 58.0042 161.823C55.9752 162.693 53.6262 162.931 51.3736 162.651C49.121 162.37 46.9021 161.563 45.1483 160.222C43.5582 159.007 41.5789 156.669 41.8421 153.429L41.8745 153.113L41.9207 152.798C42.4599 149.593 44.952 147.811 46.7916 147.023C48.8206 146.153 51.1696 145.914 53.4222 146.195Z" fill="#001D4A" stroke="white" stroke-width="10.08"/>
<path d="M52.6319 152.544C54.8844 152.825 57.1033 153.632 58.8571 154.973C60.4985 156.227 62.5546 158.679 62.1308 162.083C61.7069 165.487 59.1128 167.359 57.2139 168.173C55.1849 169.042 52.8359 169.281 50.5833 169C48.3307 168.72 46.1118 167.913 44.358 166.572C42.7679 165.356 40.7886 163.018 41.0518 159.779L41.0843 159.463L41.1304 159.148C41.6697 155.942 44.1617 154.161 46.0013 153.372C48.0303 152.502 50.3793 152.264 52.6319 152.544Z" fill="#001D4A" stroke="white" stroke-width="10.08"/>
<rect x="43.9317" y="148.24" width="18.3433" height="16.9165" transform="rotate(7.09621 43.9317 148.24)" fill="#001D4A" stroke="white" stroke-width="10.08"/>
<path d="M42.2474 169.13C42.5746 169.232 42.8988 169.307 43.2118 169.361C42.9113 169.698 42.5985 169.939 42.3441 170.093C42.1715 170.198 42.0126 170.273 41.8754 170.328L42.2474 169.13ZM42.2474 169.13L41.8756 170.327C41.794 170.204 41.7058 170.052 41.6232 169.869C41.501 169.598 41.3775 169.222 41.3215 168.773C41.61 168.907 41.9197 169.029 42.2474 169.13ZM43.6652 164.567C43.5283 164.622 43.3697 164.697 43.1977 164.801C42.9434 164.956 42.6288 165.195 42.3284 165.532C42.6418 165.586 42.9658 165.662 43.2935 165.764M43.6652 164.567L43.2935 165.764M43.6652 164.567C43.747 164.69 43.8359 164.842 43.9186 165.025C44.0407 165.296 44.1626 165.672 44.2187 166.12C43.9306 165.986 43.6206 165.865 43.2935 165.764M43.6652 164.567L43.2935 165.764M44.7889 160.951C46.3173 161.426 47.8484 162.216 49.0552 163.334C49.9618 164.174 52.1561 166.653 51.1049 170.037C50.0536 173.42 46.8402 174.22 45.6172 174.399C43.9893 174.636 42.2803 174.418 40.752 173.943C39.2238 173.469 37.693 172.68 36.4863 171.562C35.608 170.748 33.521 168.395 34.3473 165.173L34.4369 164.858L34.5411 164.549C35.6864 161.425 38.7395 160.669 39.9243 160.497C41.5521 160.259 43.2606 160.476 44.7889 160.951Z" fill="#001D4A" stroke="white" stroke-width="10.08"/>
<path d="M32.9298 169.079C33.257 169.18 33.5812 169.255 33.8942 169.309C33.5937 169.647 33.2808 169.887 33.0264 170.041C32.8539 170.146 32.6949 170.221 32.5577 170.276L32.9298 169.079ZM32.9298 169.079L32.558 170.275C32.4764 170.152 32.3881 170.001 32.3055 169.817C32.1833 169.546 32.0599 169.17 32.0039 168.721C32.2924 168.855 32.6021 168.977 32.9298 169.079ZM34.3476 164.516C34.2107 164.571 34.0521 164.645 33.8801 164.75C33.6258 164.904 33.3112 165.143 33.0108 165.481C33.3242 165.534 33.6482 165.61 33.9758 165.712M34.3476 164.516L33.9758 165.712M34.3476 164.516C34.4293 164.639 34.5183 164.79 34.601 164.974C34.723 165.245 34.845 165.62 34.9011 166.068C34.613 165.935 34.303 165.814 33.9758 165.712M34.3476 164.516L33.9758 165.712M35.4713 160.899C36.9997 161.374 38.5307 162.164 39.7376 163.282C40.6442 164.122 42.8385 166.601 41.7873 169.985C40.736 173.369 37.5226 174.169 36.2996 174.347C34.6717 174.584 32.9627 174.367 31.4343 173.892C29.9062 173.417 28.3754 172.628 27.1687 171.51C26.2904 170.696 24.2034 168.343 25.0296 165.121L25.1192 164.806L25.2235 164.497C26.3688 161.373 29.4218 160.618 30.6067 160.445C32.2345 160.208 33.943 160.424 35.4713 160.899Z" fill="#001D4A" stroke="white" stroke-width="10.08"/>
<path d="M37.961 164.106C38.2883 164.208 38.6124 164.283 38.9254 164.336C38.625 164.674 38.3121 164.914 38.0577 165.069C37.8852 165.173 37.7262 165.248 37.589 165.303L37.961 164.106ZM37.961 164.106L37.5893 165.302C37.5077 165.18 37.4194 165.028 37.3368 164.845C37.2146 164.573 37.0911 164.198 37.0351 163.749C37.3237 163.882 37.6333 164.004 37.961 164.106ZM39.3788 159.543C39.2419 159.598 39.0834 159.673 38.9114 159.777C38.6571 159.931 38.3424 160.17 38.042 160.508C38.3554 160.561 38.6794 160.638 39.0071 160.739M39.3788 159.543L39.0071 160.739M39.3788 159.543C39.4606 159.666 39.5495 159.817 39.6322 160.001C39.7543 160.272 39.8762 160.647 39.9324 161.095C39.6442 160.962 39.3342 160.841 39.0071 160.739M39.3788 159.543L39.0071 160.739M40.5025 155.926C42.031 156.401 43.562 157.191 44.7689 158.309C45.6755 159.149 47.8697 161.629 46.8186 165.012C45.7672 168.396 42.5538 169.196 41.3308 169.374C39.7029 169.612 37.9939 169.394 36.4656 168.919C34.9374 168.444 33.4066 167.655 32.1999 166.537C31.3216 165.724 29.2347 163.371 30.0609 160.148L30.1505 159.833L30.2547 159.524C31.4 156.401 34.4531 155.645 35.6379 155.472C37.2657 155.235 38.9743 155.451 40.5025 155.926Z" fill="#001D4A" stroke="white" stroke-width="10.08"/>
<path d="M29.1902 164.224C29.5174 164.326 29.8415 164.401 30.1546 164.454C29.8541 164.792 29.5412 165.032 29.2868 165.187C29.1143 165.291 28.9553 165.367 28.8181 165.422L29.1902 164.224ZM29.1902 164.224L28.8184 165.421C28.7368 165.298 28.6485 165.146 28.5659 164.963C28.4437 164.691 28.3202 164.316 28.2642 163.867C28.5528 164.001 28.8625 164.122 29.1902 164.224ZM30.608 159.661C30.4711 159.716 30.3125 159.791 30.1405 159.895C29.8862 160.049 29.5715 160.288 29.2711 160.626C29.5845 160.68 29.9086 160.756 30.2362 160.858M30.608 159.661L30.2362 160.858M30.608 159.661C30.6897 159.784 30.7786 159.935 30.8614 160.119C30.9834 160.39 31.1054 160.765 31.1615 161.214C30.8733 161.08 30.5634 160.959 30.2362 160.858M30.608 159.661L30.2362 160.858M31.7317 156.044C33.2601 156.519 34.7911 157.309 35.998 158.427C36.9046 159.267 39.0989 161.747 38.0477 165.13C36.9964 168.514 33.783 169.314 32.56 169.493C30.932 169.73 29.223 169.512 27.6947 169.037C26.1665 168.562 24.6357 167.773 23.429 166.655C22.5508 165.842 20.4638 163.489 21.29 160.266L21.3796 159.952L21.4839 159.642C22.6291 156.519 25.6822 155.763 26.8671 155.59C28.4949 155.353 30.2034 155.57 31.7317 156.044Z" fill="#001D4A" stroke="white" stroke-width="10.08"/>
<path d="M63.866 189.236L65.0879 197.112L65.7449 201.355L70.0373 201.381L91.1074 201.506L92.163 203.949L92.8527 205.545L94.3803 206.377L113.065 216.549L114.371 217.259L115.853 217.148L149.44 214.623L155.136 214.196L154.002 208.598L147.798 177.971L147.39 175.958L145.693 174.804L122.671 159.146L121.36 158.254L119.775 158.274L90.7551 158.629L86.3273 158.684L85.8111 163.081L84.7857 171.819L84.1977 176.825L89.2035 177.413L97.4279 178.379L67.9831 183.498L63.1077 184.345L63.866 189.236Z" fill="#93B0E2" stroke="white" stroke-width="10.08"/>
<path d="M49.9105 142.921L52.6766 155.626L53.403 158.962L50.5749 160.874L47.327 163.069L46.3861 163.705L45.2638 163.876L37.7671 165.018L37.7152 165.049L39.6874 180.12L40.5255 186.533L17.824 183.868L17.5221 179.714L15.6447 153.884L15.3754 150.181L18.8333 148.826L43.1477 139.301L48.6526 137.144L49.9105 142.921Z" fill="#6B8ABF" stroke="white" stroke-width="10.08"/>
<path d="M54.1333 133.001L70.9098 143.372L79.6426 148.771L70.0306 152.378L58.022 156.883L56.8781 157.313L55.849 157.193L55.1348 163.277L35.9637 161.026L36.0763 156.432L36.3614 144.89L36.421 142.481L38.3346 141.014L48.4175 133.287L51.1768 131.174L54.1333 133.001Z" fill="#93B0E2" stroke="white" stroke-width="10.08"/>
<rect x="77.9439" y="146.802" width="15.5088" height="16.0311" transform="rotate(17.4122 77.9439 146.802)" fill="white" stroke="white" stroke-width="0.504"/>
<circle cx="128.406" cy="100.947" r="57.6802" transform="rotate(11.4311 128.406 100.947)" fill="#93B1E2"/>
<path d="M85.0525 59.741C85.5784 35.997 114.87 26.0704 139.015 31.6946C163.159 37.3188 168.529 40.5738 179.626 50.1301C190.723 59.6865 205.248 81.8543 196.247 109.618C187.246 137.381 156.23 151.328 156.23 151.328L168.977 131.644L159.159 133.014L154.763 131.635L159.734 88.5231L151.082 62.7909L120.741 51.3608L86.0629 68.8535C86.0629 68.8535 84.9732 63.3206 85.0525 59.741Z" fill="#191569"/>
<g filter="url(#filter2_d_85_17)">
<path d="M128.357 51.5362L119.44 53.1393C119.44 53.1393 127.283 62.1707 128.51 69.305C129.709 76.2852 125.563 87.2001 125.563 87.2001C125.563 87.2001 136.368 70.396 135.325 63.8287C134.189 56.6747 128.357 51.5362 128.357 51.5362Z" fill="#2C287C"/>
</g>
<path d="M138.616 57.3976C138.616 57.3976 141.385 55.1342 136.76 49.7321C129.179 40.8785 109.915 27.9827 91.4939 37.2765C69.2479 48.4999 70.6263 66.5314 71.2211 72.2888C71.8158 78.0463 71.083 85.021 71.083 85.021L99.3034 69.793L138.616 57.3976Z" fill="#2C287C"/>
<path d="M113.279 50.4263C113.279 50.4263 149.496 36.7126 160.758 67.968C169.204 91.4095 160.236 97.3287 155.847 101.102C151.459 104.876 134.469 112.439 134.469 112.439L124.596 82.9752L113.279 50.4263Z" fill="#2C287C"/>
<path d="M94.2397 87.9688C94.2397 87.9688 99.5612 86.0005 102.162 87.0588C104.632 88.0638 107.183 92.8304 107.183 92.8304L105.357 97.6906C105.357 97.6906 102.433 93.7024 99.926 92.7333C97.3578 91.7404 92.4142 92.829 92.4142 92.829L94.2397 87.9688Z" fill="#2C287C"/>
<mask id="path-46-outside-2_85_17" maskUnits="userSpaceOnUse" x="64.7863" y="74.162" width="79.7287" height="54.1543" fill="black">
<rect fill="white" x="64.7863" y="74.162" width="79.7287" height="54.1543"/>
<path d="M104.338 101.876C106.68 94.3298 107.662 87.4201 124.228 93.5791C140.793 99.7381 138.158 104.178 135.816 111.724C133.474 119.27 123.292 123.247 115.746 120.905C108.2 118.563 101.996 109.421 104.338 101.876ZM72.7904 91.163C75.025 83.9632 76.3638 77.4945 85.7773 81.3869C95.1905 85.2794 93.1116 89.6512 90.877 96.851C88.6425 104.05 82.023 108.805 77.6854 107.46C73.3478 106.113 70.5559 98.3627 72.7904 91.163Z"/>
</mask>
<path d="M104.338 101.876L108.955 103.309L108.955 103.308L104.338 101.876ZM124.228 93.5791L125.912 89.0479L125.912 89.0479L124.228 93.5791ZM135.816 111.724L131.199 110.291L131.199 110.291L135.816 111.724ZM115.746 120.905L114.313 125.522L114.313 125.522L115.746 120.905ZM72.7904 91.163L68.1734 89.73L68.1734 89.7301L72.7904 91.163ZM85.7773 81.3869L87.6245 76.9196L87.6245 76.9196L85.7773 81.3869ZM90.877 96.851L95.4939 98.284L95.494 98.2839L90.877 96.851ZM77.6854 107.46L76.2524 112.076L76.2529 112.077L77.6854 107.46ZM104.338 101.876L108.955 103.308C109.618 101.172 110.001 99.7305 110.558 98.4086C111.076 97.1817 111.498 96.7116 111.795 96.4952C112.222 96.1842 114.367 95.0703 122.543 98.1102L124.228 93.5791L125.912 89.0479C117.523 85.9288 110.893 85.1904 106.102 88.6809C103.79 90.3653 102.493 92.6525 101.65 94.651C100.847 96.5544 100.229 98.8063 99.7209 100.443L104.338 101.876ZM124.228 93.5791L122.543 98.1102C126.518 99.5883 129.046 100.859 130.626 101.941C132.178 103.003 132.528 103.684 132.618 103.913C132.702 104.124 132.803 104.534 132.584 105.615C132.332 106.867 131.875 108.113 131.199 110.291L135.816 111.724L140.433 113.157C140.928 111.562 141.679 109.423 142.062 107.528C142.479 105.462 142.642 102.961 141.606 100.35C140.578 97.7553 138.626 95.7001 136.087 93.9621C133.575 92.2432 130.22 90.6493 125.912 89.0479L124.228 93.5791ZM135.816 111.724L131.199 110.291C130.556 112.363 128.684 114.337 125.804 115.589C122.93 116.84 119.694 117.069 117.179 116.288L115.746 120.905L114.313 125.522C119.344 127.083 124.972 126.495 129.661 124.455C134.344 122.418 138.734 118.631 140.433 113.157L135.816 111.724ZM115.746 120.905L117.179 116.288C114.674 115.51 112.117 113.472 110.433 110.779C108.744 108.078 108.315 105.368 108.955 103.309L104.338 101.876L99.7209 100.443C98.0182 105.929 99.5204 111.562 102.235 115.904C104.954 120.254 109.272 123.957 114.313 125.522L115.746 120.905ZM72.7904 91.163L77.4073 92.596C78.0128 90.645 78.4427 89.1346 78.9625 87.7546C79.4789 86.3835 79.9017 85.6709 80.2175 85.3128C80.4095 85.095 80.4727 85.0821 80.6461 85.0621C81.0051 85.0206 81.9845 85.0498 83.9301 85.8543L85.7773 81.3869L87.6245 76.9196C84.8634 75.7779 82.1453 75.156 79.5359 75.4577C76.7409 75.7807 74.5647 77.1051 72.966 78.918C71.4911 80.5905 70.5719 82.6017 69.9146 84.3468C69.2607 86.083 68.6852 88.0812 68.1734 89.73L72.7904 91.163ZM85.7773 81.3869L83.93 85.8543C85.9854 86.7042 86.9983 87.4184 87.4797 87.8891C87.856 88.2571 87.8919 88.448 87.916 88.6065C87.9649 88.9272 87.955 89.5502 87.6504 90.7983C87.3353 92.0889 86.8733 93.4423 86.2601 95.418L90.877 96.851L95.494 98.2839C95.9981 96.6597 96.6339 94.7668 97.0429 93.0911C97.4624 91.3729 97.8029 89.3097 97.4742 87.1509C96.7124 82.1491 92.8931 79.0982 87.6245 76.9196L85.7773 81.3869ZM90.877 96.851L86.2601 95.418C85.4427 98.0516 83.817 100.214 82.1074 101.54C81.259 102.198 80.4908 102.572 79.909 102.741C79.3222 102.912 79.09 102.834 79.1179 102.843L77.6854 107.46L76.2529 112.077C80.5794 113.419 84.967 111.557 88.0323 109.18C91.2754 106.665 94.0768 102.85 95.4939 98.284L90.877 96.851ZM77.6854 107.46L79.1183 102.843C79.1197 102.843 78.1179 102.349 77.378 100.034C76.7097 97.9437 76.5927 95.2206 77.4073 92.5959L72.7904 91.163L68.1734 89.7301C66.7535 94.3052 66.9153 99.0572 68.1687 102.978C69.3505 106.675 71.9136 110.73 76.2524 112.076L77.6854 107.46Z" fill="#2C287C" mask="url(#path-46-outside-2_85_17)"/>
<rect width="51.2401" height="5.26153" transform="matrix(-0.949579 -0.313527 -0.313527 0.949579 188.028 117.244)" fill="#2C287C"/>
<path d="M171.494 113.962C171.494 113.962 178.999 113.668 180.71 117.871C183.186 123.955 178.653 134.645 172.557 137.093C168.346 138.785 163.341 133.185 163.341 133.185L171.494 113.962Z" fill="#93B1E2"/>
<line x1="74.947" y1="94.1413" x2="85.9338" y2="97.5869" stroke="#2C287C" stroke-width="4.56059" stroke-linecap="round"/>
<line x1="126.758" y1="110.561" x2="109.607" y2="105.182" stroke="#2C287C" stroke-width="4.56059" stroke-linecap="round"/>
<path d="M85.8272 84.8103C91.9833 86.7409 90.9011 90.1916 90.9011 90.1916L78.5742 86.3257C78.5742 86.3257 79.6712 82.8797 85.8272 84.8103Z" fill="#2C287C"/>
<path d="M118.513 94.636C112.357 92.7054 111.275 96.1561 111.275 96.1561L123.602 100.022C123.602 100.022 124.669 96.5666 118.513 94.636Z" fill="#2C287C"/>
<path d="M103.114 122.176C103.114 122.176 98.2592 128.327 91.0323 125.825C83.6645 123.275 82.8865 115.804 82.8865 115.804" stroke="#2C287C" stroke-width="4.5612" stroke-linecap="round"/>
<path d="M46.0364 154.159L60.6857 143.135L70.5329 148.925L70.7581 158.215L63.3624 165.519L46.0364 154.159Z" fill="#6B8ABF"/>
<path d="M48.6525 153.988L61.7197 158.048L62.0647 164.163L79.7175 170.214L103.181 170.93L125.836 178.686L80.8577 187.186L42.5721 175.29L21.038 169.517L26.4695 158.691L48.6525 153.988Z" fill="#40A4CC"/>
<path d="M22.7451 168.969L80.4589 187.061L105.587 180.219L111.702 178.981L97.5006 173.712L107.209 171.662L121.373 170.237L125.679 185.867L75.4694 203.12L22.5324 185.61L22.7451 168.969Z" fill="#177CA4"/>
<path d="M23.9449 171.039L33.8647 174.121L33.4285 186.58L23.5087 183.498L23.9449 171.039Z" fill="#001D4A"/>
<path d="M64.6557 183.047L74.5755 186.129L74.1393 198.588L64.2195 195.506L64.6557 183.047Z" fill="#001D4A"/>
<ellipse cx="95.3985" cy="170.455" rx="6.80057" ry="3.25167" transform="rotate(17.2605 95.3985 170.455)" fill="#001D4A"/>
<rect x="90.6249" y="168.802" width="10.0986" height="6.83649" transform="rotate(17.2605 90.6249 168.802)" fill="#001D4A"/>
<ellipse cx="93.6279" cy="176.152" rx="6.80057" ry="3.25167" transform="rotate(17.2605 93.6279 176.152)" fill="#001D4A"/>
<path d="M61.7321 158.11L65.0585 165.229L60.0079 163.659L61.7321 158.11Z" fill="#177CA3"/>
<ellipse cx="83.4447" cy="181.932" rx="3.68694" ry="1.7629" transform="rotate(17.2605 83.4447 181.932)" fill="#001D4A"/>
<ellipse cx="74.1271" cy="181.879" rx="3.68694" ry="1.7629" transform="rotate(17.2605 74.1271 181.879)" fill="#001D4A"/>
<ellipse cx="79.1582" cy="176.907" rx="3.68694" ry="1.7629" transform="rotate(17.2605 79.1582 176.907)" fill="#001D4A"/>
<ellipse cx="70.3875" cy="177.026" rx="3.68694" ry="1.7629" transform="rotate(17.2605 70.3875 177.026)" fill="#001D4A"/>
<ellipse cx="52.3984" cy="154.425" rx="5.56469" ry="3.25167" transform="rotate(7.09621 52.3984 154.425)" fill="#001D4A"/>
<ellipse cx="51.6082" cy="160.775" rx="5.56469" ry="3.25167" transform="rotate(7.09621 51.6082 160.775)" fill="#001D4A"/>
<rect x="48.3107" y="153.866" width="8.26334" height="6.83649" transform="rotate(7.09621 48.3107 153.866)" fill="#001D4A"/>
<ellipse cx="42.7711" cy="167.448" rx="3.68694" ry="1.7629" transform="rotate(17.2605 42.7711 167.448)" fill="#001D4A"/>
<ellipse cx="33.4536" cy="167.397" rx="3.68694" ry="1.7629" transform="rotate(17.2605 33.4536 167.397)" fill="#001D4A"/>
<ellipse cx="38.4846" cy="162.424" rx="3.68694" ry="1.7629" transform="rotate(17.2605 38.4846 162.424)" fill="#001D4A"/>
<ellipse cx="29.7138" cy="162.542" rx="3.68694" ry="1.7629" transform="rotate(17.2605 29.7138 162.542)" fill="#001D4A"/>
<path d="M68.8467 188.465L69.1546 198.862L94.4296 196.488L96.79 201.952L115.475 212.124L149.062 209.6L142.858 178.973L119.837 163.315L90.8169 163.671L89.7911 172.409L113.194 175.157L116.53 180.176L68.8467 188.465Z" fill="#93B0E2"/>
<path d="M18.7854 153.808L43.0994 144.283L45.866 156.987L42.6179 159.183L34.1053 160.48L30.4102 162.764L32.8033 181.063L20.6625 179.637L18.7854 153.808Z" fill="#6B8ABF"/>
<path d="M41.4003 145.015L51.4837 137.289L68.2601 147.66L56.252 152.166L51.4311 151.6L50.7169 157.684L41.1156 156.557L41.4003 145.015Z" fill="#93B0E2"/>
</g>
<defs>
<filter id="filter0_d_85_17" x="-4.52995e-05" y="20.0791" width="209.16" height="206.349" filterUnits="userSpaceOnUse" color-interpolation-filters="sRGB">
<feFlood flood-opacity="0" result="BackgroundImageFix"/>
<feColorMatrix in="SourceAlpha" type="matrix" values="0 0 0 0 0 0 0 0 0 0 0 0 0 0 0 0 0 0 127 0" result="hardAlpha"/>
<feOffset dx="-8.064" dy="2.016"/>
<feGaussianBlur stdDeviation="1.008"/>
<feComposite in2="hardAlpha" operator="out"/>
<feColorMatrix type="matrix" values="0 0 0 0 0 0 0 0 0 0 0 0 0 0 0 0 0 0 0.25 0"/>
<feBlend mode="normal" in2="BackgroundImageFix" result="effect1_dropShadow_85_17"/>
<feBlend mode="normal" in="SourceGraphic" in2="effect1_dropShadow_85_17" result="shape"/>
</filter>
<filter id="filter1_d_85_17" x="88.3005" y="40.7539" width="57.1724" height="59.2192" filterUnits="userSpaceOnUse" color-interpolation-filters="sRGB">
<feFlood flood-opacity="0" result="BackgroundImageFix"/>
<feColorMatrix in="SourceAlpha" type="matrix" values="0 0 0 0 0 0 0 0 0 0 0 0 0 0 0 0 0 0 127 0" result="hardAlpha"/>
<feOffset dx="-8.23691" dy="3.66085"/>
<feGaussianBlur stdDeviation="1.83042"/>
<feComposite in2="hardAlpha" operator="out"/>
<feColorMatrix type="matrix" values="0 0 0 0 0 0 0 0 0 0 0 0 0 0 0 0 0 0 0.25 0"/>
<feBlend mode="normal" in2="BackgroundImageFix" result="effect1_dropShadow_85_17"/>
<feBlend mode="normal" in="SourceGraphic" in2="effect1_dropShadow_85_17" result="shape"/>
</filter>
<filter id="filter2_d_85_17" x="107.542" y="51.5361" width="27.8538" height="42.9858" filterUnits="userSpaceOnUse" color-interpolation-filters="sRGB">
<feFlood flood-opacity="0" result="BackgroundImageFix"/>
<feColorMatrix in="SourceAlpha" type="matrix" values="0 0 0 0 0 0 0 0 0 0 0 0 0 0 0 0 0 0 127 0" result="hardAlpha"/>
<feOffset dx="-8.23691" dy="3.66085"/>
<feGaussianBlur stdDeviation="1.83042"/>
<feComposite in2="hardAlpha" operator="out"/>
<feColorMatrix type="matrix" values="0 0 0 0 0 0 0 0 0 0 0 0 0 0 0 0 0 0 0.25 0"/>
<feBlend mode="normal" in2="BackgroundImageFix" result="effect1_dropShadow_85_17"/>
<feBlend mode="normal" in="SourceGraphic" in2="effect1_dropShadow_85_17" result="shape"/>
</filter>
</defs>
</svg>
