<svg width="186" height="127" viewBox="0 0 186 127" fill="none" xmlns="http://www.w3.org/2000/svg">
<g filter="url(#filter0_d_36_1370)">
<path d="M135.682 66.2534L91.0275 46.9407L76.0149 58.6717L73.9692 86.382L118.623 105.695L135.682 66.2534Z" fill="white"/>
<path d="M86.1631 30.5908L33.8648 7.97189L17.7395 52.2531L52.7601 70.4305L86.1631 30.5908Z" fill="white"/>
<path d="M137.627 73.4605C137.627 73.4605 127.269 58.7269 113.202 51.9973C99.1356 45.2677 85.1956 46.0989 85.1956 46.0989L79.0652 46.9314C79.0652 46.9314 77.55 50.0749 77.3939 52.1345C77.2424 54.1318 79.5583 57.6572 79.5583 57.6572L86.3709 51.5239L93.7868 50.439L111.361 56.2552L125.121 65.691L129.02 74.4875L126.178 85.2721L129.01 86.4968C129.01 86.4968 132.554 83.0993 135.265 82.1254C137.581 81.2934 141.552 81.6869 141.552 81.6869C141.552 81.6869 170.888 86.1711 173.289 86.334C175.69 86.4968 167.133 100.135 165.53 101.743C159.851 107.442 177.797 88.1474 177.118 84.7106C176.438 81.2738 137.627 73.4605 137.627 73.4605Z" fill="#2C287C"/>
<path d="M27.0884 11.3417C28.6678 10.1547 43.1772 15.2697 54.2023 21.7811C65.2275 28.2924 69.2365 37.8997 69.2365 37.8997L70.5118 42.9306C70.5118 42.9306 68.4647 45.7552 66.8581 46.9804C65.3 48.1687 62.5477 49.0584 62.5477 49.0584L63.1738 35.2776L50.8822 23.7327L36.9998 17.7286L28.7259 22.2814L26.1301 30.3341L24.7093 27.7613C24.7093 27.7613 25.5091 12.5286 27.0884 11.3417Z" fill="#2C287C"/>
<path d="M82.879 48.0168C82.879 48.0168 77.5178 45.5206 74.297 43.5428C71.9299 42.0891 68.4355 39.5132 68.4355 39.5132L66.3534 43.0497C66.3534 43.0497 69.7556 45.7709 72.1176 47.2445C75.3282 49.2475 80.7968 51.5533 80.7968 51.5533L82.879 48.0168Z" fill="#2C287C"/>
<path d="M86.8258 35.8127C84.7786 33.8586 45.0868 17.2559 45.0868 17.2559L60.325 28.6185L81.3392 36.0906C81.3392 36.0906 83.5687 37.5142 84.8294 38.6347C87.7438 41.2248 90.6233 46.7656 90.6233 46.7656L94.8306 46.9042C94.8306 46.9042 88.873 37.7668 86.8258 35.8127Z" fill="#2C287C"/>
<path d="M50.2159 15.4011C46.1473 13.3476 42.0004 11.5564 38.3983 10.2102C35.7173 9.20838 33.252 8.41978 31.2909 7.95665C30.324 7.72831 29.3638 7.55086 28.5073 7.49222C28.0818 7.46309 27.5714 7.4552 27.0426 7.52583C26.5815 7.58743 25.7012 7.75761 24.8665 8.38494C24.119 8.94674 23.7137 9.64538 23.5252 10.0052C23.3024 10.4303 23.1387 10.8658 23.0164 11.2406C22.7705 11.9942 22.5749 12.8672 22.4141 13.7305C22.0885 15.4787 21.8288 17.6157 21.6268 19.6271C21.423 21.6568 21.2703 23.6393 21.1691 25.1087C21.1184 25.8446 21.0801 26.4555 21.0546 26.8839C21.0418 27.098 21.0324 27.2671 21.0259 27.3833C21.0227 27.4413 21.0206 27.4866 21.0189 27.5175C21.0181 27.533 21.0165 27.5452 21.0161 27.5535C21.0159 27.5576 21.0163 27.5609 21.0162 27.5632C21.0161 27.5643 21.016 27.5655 21.0159 27.5662L21.0155 27.5671L20.96 28.6231L21.0396 28.766C20.9314 29.1882 20.8263 29.5989 20.7255 29.9942C19.5762 34.5036 18.838 41.6125 20.4077 48.5818C22.0006 55.6532 26.0709 62.8801 34.7197 66.6479L34.7789 66.6735L34.8397 66.6977C41.2248 69.2147 47.5651 69.4687 53.3133 66.5927C58.7036 63.8957 62.9945 58.7304 66.2989 51.5453C67.1672 51.1459 68.2127 50.5996 69.1013 49.9218C69.1541 49.8816 69.2044 49.8374 69.257 49.7955C69.5646 50.0015 69.8671 50.2002 70.1596 50.3827C71.2238 51.0467 72.4752 51.7186 73.6896 52.3318C73.6905 53.3478 73.9267 54.2842 74.1456 54.9677C74.4174 55.8163 74.7775 56.6248 75.1049 57.2861C75.1363 57.3495 75.1692 57.4114 75.2006 57.4732C74.9952 57.8962 74.7943 58.3296 74.6005 58.7746C70.9019 67.2644 72.0392 76.4578 75.9357 84.2195C79.8233 91.9635 86.5814 98.5709 94.6827 102.1C102.787 105.631 110.376 105.616 116.913 102.268C121.75 99.7894 125.693 95.6474 128.787 90.4306L129.797 90.8671L131.567 89.1688L131.569 89.1683L131.569 89.1665L131.589 89.1484C131.608 89.1302 131.64 89.1003 131.683 89.0604C131.769 88.9807 131.9 88.8609 132.067 88.7124C132.403 88.4134 132.875 88.0057 133.419 87.5745C134.609 86.6308 135.771 85.8738 136.516 85.6062C137.044 85.4167 138.078 85.2986 139.293 85.2933C139.839 85.2909 140.328 85.3104 140.679 85.3309C140.853 85.3411 140.99 85.3506 141.078 85.3578C141.086 85.3584 141.094 85.3585 141.101 85.3591C141.156 85.3675 141.23 85.3793 141.324 85.3936C141.539 85.4265 141.856 85.4752 142.26 85.5367C143.067 85.6598 144.224 85.8351 145.618 86.0467C148.408 86.4698 152.152 87.0362 155.973 87.6074C160.59 88.2978 165.468 89.0194 168.858 89.4935C168.519 90.1656 168.125 90.9052 167.687 91.6852C166.719 93.4083 165.627 95.184 164.684 96.6213C163.655 97.8578 162.794 98.8784 162.184 99.6198C161.966 99.8853 161.756 100.144 161.601 100.348C161.543 100.425 161.402 100.612 161.271 100.828C161.269 100.833 160.982 101.275 160.83 101.883C160.782 102.074 160.71 102.424 160.72 102.868C160.73 103.301 160.825 104.077 161.355 104.861C162.669 106.802 164.76 106.496 165.17 106.412C165.735 106.296 166.135 106.072 166.239 106.014C166.403 105.922 166.529 105.836 166.598 105.787C166.739 105.687 166.851 105.594 166.911 105.543C167.04 105.434 167.168 105.316 167.274 105.216C167.496 105.006 167.79 104.715 168.15 104.353C168.808 103.693 169.738 102.375 170.614 101.057C171.158 100.401 171.739 99.7006 172.319 98.9864C174.18 96.6973 176.264 94.0415 177.854 91.7031C178.642 90.5435 179.376 89.3651 179.903 88.2918C180.165 87.7568 180.421 87.1562 180.596 86.5352C180.753 85.9804 180.953 85.043 180.746 83.993C180.423 82.3637 179.249 81.4168 178.809 81.0806C178.2 80.615 177.494 80.2276 176.831 79.908C175.481 79.2575 173.724 78.6103 171.806 77.9858C167.935 76.7256 162.911 75.4008 157.993 74.2035C153.056 73.0015 148.148 71.9097 144.481 71.1195C142.646 70.7242 141.118 70.4031 140.048 70.1811C139.946 70.1599 139.847 70.1393 139.754 70.12C139.461 69.7367 139.101 69.2718 138.676 68.7407C137.429 67.1853 135.622 65.0468 133.356 62.6897C128.865 58.016 122.401 52.2975 114.798 48.6603C108.357 45.5788 101.975 43.9993 96.8101 43.1925C96.2266 42.3177 95.4622 41.1821 94.64 39.9908C93.755 38.7086 92.7884 37.3391 91.9019 36.1541C91.0702 35.0423 90.1444 33.8674 89.3795 33.1373L89.1825 32.9606C88.7093 32.5597 88.1569 32.2421 87.846 32.0655C87.3621 31.7907 86.7658 31.4797 86.0996 31.1463C84.7603 30.4763 82.9954 29.6464 80.977 28.7244C76.9325 26.8769 71.7513 24.6061 66.6552 22.4058C61.5543 20.2034 56.5189 18.0633 52.7608 16.4741C51.8281 16.0797 50.9733 15.7204 50.2159 15.4011ZM85.1179 44.7695C85.122 44.8391 85.1258 44.9108 85.1302 44.9845L85.1293 44.9841L85.1165 44.7679L85.1179 44.7695ZM80.5035 39.9819C81.1961 40.4624 81.9169 40.9938 82.3729 41.399C82.735 41.7209 83.1161 42.1309 83.5053 42.5963L80.9257 42.9468C79.3265 42.1384 77.5519 41.2018 76.2322 40.3913C75.3218 39.8322 74.1931 39.065 73.1663 38.3482L72.8215 36.9904L72.8209 36.9869L79.6876 39.428C79.897 39.5663 80.1833 39.7598 80.5035 39.9819ZM71.3135 37.033L71.3121 37.0313C71.6341 36.8968 71.8786 36.7947 72.0641 36.7171L72.0668 36.7182L71.3135 37.033Z" stroke="white" stroke-width="7.39728"/>
<path d="M137.627 73.4612C137.627 73.4612 127.269 58.7276 113.202 51.998C99.1356 45.2684 85.1955 46.0997 85.1955 46.0997L79.0652 46.9322C79.0652 46.9322 77.55 50.0757 77.3939 52.1352C77.2424 54.1325 79.5583 57.6579 79.5583 57.6579L86.3709 51.5246L93.7868 50.4397L111.361 56.256L125.121 65.6918L129.019 74.4883L126.178 85.2728L129.477 86.6994C129.477 86.6994 132.554 83.1001 135.265 82.1261C137.581 81.2941 141.552 81.6877 141.552 81.6877L174.236 86.0248L164.299 102.113C164.299 102.113 165.273 103.346 166.172 103.546C167.457 103.833 169.242 102.154 169.242 102.154L178.13 86.205C178.13 86.205 177.792 84.6246 177.145 83.8811C176.557 83.2048 175.211 82.6447 175.211 82.6447L137.627 73.4612Z" fill="#2C287C"/>
<path d="M32.7926 12.8788C32.7926 12.8788 43.1772 15.2699 54.2023 21.7812C65.2275 28.2926 69.2366 37.8999 69.2366 37.8999L70.5118 42.9308C70.5118 42.9308 68.4647 45.7554 66.8581 46.9807C65.3001 48.1689 62.5478 49.0586 62.5478 49.0586L63.1739 35.2778L50.8822 23.7329L36.9999 17.7287L28.7259 22.2815L26.1302 30.3342L22.5422 26.6488C22.5422 26.6488 24.4604 22.4111 24.3834 19.86C24.3177 17.6808 22.792 17.739 22.792 17.739L25.3132 10.5758L32.7926 12.8788Z" fill="#2C287C"/>
<path d="M109.694 55.7115C102.404 52.5357 96.197 50.4465 91.0976 50.8133C88.5939 50.9934 86.3736 51.7664 84.4107 53.3061C82.4352 54.8557 80.6486 57.2374 79.1209 60.744C76.1277 67.6148 76.9546 75.2573 80.3434 82.0077C83.7352 88.7638 89.652 94.5302 96.6521 97.5799C103.651 100.629 109.667 100.439 114.664 97.8788C119.707 95.2954 123.903 90.2014 127.005 83.0818C128.527 79.5883 129.05 76.5599 128.822 73.9022C128.595 71.2528 127.615 68.8923 126.006 66.7356C122.749 62.3717 116.935 58.866 109.694 55.7115Z" stroke="#2C287C" stroke-width="2.46576"/>
<path d="M42.7444 20.1506C39.2126 18.612 36.5499 18.1265 34.5287 18.2843C32.5485 18.439 31.1096 19.2156 29.9831 20.3806C28.8272 21.576 27.9641 23.22 27.2558 25.1395C26.5477 27.0589 26.0296 29.1495 25.5038 31.2128C24.4989 35.1555 23.8573 41.4561 25.218 47.4978C26.5703 53.5015 29.8671 59.148 36.6754 62.1198C42.098 64.2513 46.9192 64.2773 51.1061 62.1825C55.3351 60.0666 59.1318 55.6824 62.2371 48.5545C63.7439 45.0956 64.1366 42.0306 63.7231 39.2922C63.3091 36.5506 62.0726 34.0464 60.181 31.735C56.3669 27.0745 49.9752 23.3007 42.7444 20.1506Z" stroke="#2C287C" stroke-width="2.46576"/>
<path d="M82.8792 48.0166C82.8792 48.0166 77.518 45.5204 74.2972 43.5426C71.9301 42.0889 68.4357 39.513 68.4357 39.513L66.3536 43.0494C66.3536 43.0494 69.7558 45.7707 72.1178 47.2443C75.3284 49.2473 80.797 51.5531 80.797 51.5531L82.8792 48.0166Z" fill="#2C287C"/>
<path d="M81.447 31.8055L45.0868 17.2561L60.325 28.6186L81.3392 36.0908C81.3392 36.0908 83.5687 37.5144 84.8295 38.6348C87.7438 41.225 90.6233 46.7657 90.6233 46.7657L94.8307 46.9044C94.8307 46.9044 88.8731 37.767 86.8259 35.8129C84.931 34.0042 81.447 31.8055 81.447 31.8055Z" fill="#2C287C"/>
</g>
<defs>
<filter id="filter0_d_36_1370" x="8.90703" y="3.77246" width="175.626" height="110.345" filterUnits="userSpaceOnUse" color-interpolation-filters="sRGB">
<feFlood flood-opacity="0" result="BackgroundImageFix"/>
<feColorMatrix in="SourceAlpha" type="matrix" values="0 0 0 0 0 0 0 0 0 0 0 0 0 0 0 0 0 0 127 0" result="hardAlpha"/>
<feOffset dx="-4.93152" dy="1.97261"/>
<feGaussianBlur stdDeviation="0.986304"/>
<feComposite in2="hardAlpha" operator="out"/>
<feColorMatrix type="matrix" values="0 0 0 0 0 0 0 0 0 0 0 0 0 0 0 0 0 0 0.25 0"/>
<feBlend mode="normal" in2="BackgroundImageFix" result="effect1_dropShadow_36_1370"/>
<feBlend mode="normal" in="SourceGraphic" in2="effect1_dropShadow_36_1370" result="shape"/>
</filter>
</defs>
</svg>
