<svg width="1384" height="3483" viewBox="0 0 1384 3483" fill="none" xmlns="http://www.w3.org/2000/svg">
<g clip-path="url(#clip0_49_515)">
<rect width="1384" height="3483" fill="url(#paint0_linear_49_515)"/>
<circle cx="967.59" cy="130.3" r="5.31965" fill="#D9D9D9"/>
<circle cx="813.86" cy="156.947" r="5.31965" fill="#D9D9D9"/>
<circle cx="337.906" cy="124.98" r="5.31965" fill="#D9D9D9"/>
<circle cx="1278.19" cy="146.308" r="5.31965" fill="#D9D9D9"/>
<circle cx="36.763" cy="185.3" r="5.31965" fill="#D9D9D9"/>
<circle cx="453.788" cy="219.958" r="5.31965" fill="#D9D9D9"/>
<circle cx="861.159" cy="374.665" r="5.31965" fill="#D9D9D9"/>
<circle cx="616.492" cy="289.923" r="5.31965" fill="#D9D9D9"/>
<circle cx="704.363" cy="364.026" r="5.31965" fill="#D9D9D9"/>
<circle cx="1378.63" cy="317.5" r="5.31965" fill="#D9D9D9"/>
<circle cx="337.906" cy="324.673" r="5.31965" fill="#D9D9D9"/>
<circle cx="36.763" cy="406.055" r="5.31965" fill="#D9D9D9"/>
<circle cx="842.979" cy="236.279" r="2.76968" fill="#D9D9D9"/>
<circle cx="1079.51" cy="124.98" r="2.76968" fill="#D9D9D9"/>
<circle cx="603.8" cy="172.777" r="2.76968" fill="#D9D9D9"/>
<circle cx="711.031" cy="218.787" r="2.76968" fill="#D9D9D9"/>
<circle cx="894.313" cy="138.389" r="2.76968" fill="#D9D9D9"/>
<circle cx="930.135" cy="301.046" r="2.76968" fill="#D9D9D9"/>
<circle cx="448.468" cy="138.389" r="2.76968" fill="#D9D9D9"/>
<circle cx="301.858" cy="216.017" r="2.76968" fill="#D9D9D9"/>
<circle cx="487.218" cy="281.834" r="2.76968" fill="#D9D9D9"/>
<circle cx="216.358" cy="138.389" r="2.76968" fill="#D9D9D9"/>
<circle cx="1334.11" cy="204.668" r="2.76968" fill="#D9D9D9"/>
<circle cx="1008.91" cy="369.343" r="2.76968" fill="#D9D9D9"/>
<circle cx="5.31965" cy="5.31965" r="5.31965" transform="matrix(-1 0 0 1 1082.81 434.003)" fill="#D9D9D9" fill-opacity="0.45"/>
<circle cx="5.31965" cy="5.31965" r="5.31965" transform="matrix(-1 0 0 1 142.52 455.331)" fill="#D9D9D9" fill-opacity="0.45"/>
<circle cx="5.31965" cy="5.31965" r="5.31965" transform="matrix(-1 0 0 1 1383.95 494.323)" fill="#D9D9D9" fill-opacity="0.45"/>
<circle cx="5.31965" cy="5.31965" r="5.31965" transform="matrix(-1 0 0 1 966.926 528.981)" fill="#D9D9D9" fill-opacity="0.45"/>
<circle cx="5.31965" cy="5.31965" r="5.31965" transform="matrix(-1 0 0 1 658.77 648.496)" fill="#D9D9D9" fill-opacity="0.45"/>
<circle cx="5.31965" cy="5.31965" r="5.31965" transform="matrix(-1 0 0 1 804.222 598.946)" fill="#D9D9D9" fill-opacity="0.45"/>
<circle cx="5.31965" cy="5.31965" r="5.31965" transform="matrix(-1 0 0 1 42.0826 626.523)" fill="#D9D9D9" fill-opacity="0.45"/>
<circle cx="5.31965" cy="5.31965" r="5.31965" transform="matrix(-1 0 0 1 1082.81 633.696)" fill="#D9D9D9" fill-opacity="0.45"/>
<circle cx="5.31965" cy="5.31965" r="5.31965" transform="matrix(-1 0 0 1 1383.95 715.078)" fill="#D9D9D9" fill-opacity="0.45"/>
<circle cx="2.76968" cy="2.76968" r="2.76968" transform="matrix(-1 0 0 1 575.185 547.852)" fill="#D9D9D9" fill-opacity="0.45"/>
<circle cx="2.76968" cy="2.76968" r="2.76968" transform="matrix(-1 0 0 1 338.649 436.553)" fill="#D9D9D9" fill-opacity="0.45"/>
<circle cx="2.76968" cy="2.76968" r="2.76968" transform="matrix(-1 0 0 1 814.364 484.35)" fill="#D9D9D9" fill-opacity="0.45"/>
<circle cx="2.76968" cy="2.76968" r="2.76968" transform="matrix(-1 0 0 1 707.133 530.36)" fill="#D9D9D9" fill-opacity="0.45"/>
<circle cx="2.76968" cy="2.76968" r="2.76968" transform="matrix(-1 0 0 1 523.851 449.962)" fill="#D9D9D9" fill-opacity="0.45"/>
<circle cx="2.76968" cy="2.76968" r="2.76968" transform="matrix(-1 0 0 1 488.029 612.619)" fill="#D9D9D9" fill-opacity="0.45"/>
<circle cx="2.76968" cy="2.76968" r="2.76968" transform="matrix(-1 0 0 1 969.696 449.962)" fill="#D9D9D9" fill-opacity="0.45"/>
<circle cx="2.76968" cy="2.76968" r="2.76968" transform="matrix(-1 0 0 1 1116.31 527.59)" fill="#D9D9D9" fill-opacity="0.45"/>
<circle cx="2.76968" cy="2.76968" r="2.76968" transform="matrix(-1 0 0 1 930.946 593.407)" fill="#D9D9D9" fill-opacity="0.45"/>
<circle cx="2.76968" cy="2.76968" r="2.76968" transform="matrix(-1 0 0 1 1252.77 558.697)" fill="#D9D9D9" fill-opacity="0.45"/>
<circle cx="2.76968" cy="2.76968" r="2.76968" transform="matrix(-1 0 0 1 84.0576 516.241)" fill="#D9D9D9" fill-opacity="0.45"/>
<circle cx="2.76968" cy="2.76968" r="2.76968" transform="matrix(-1 0 0 1 414.491 530.36)" fill="#D9D9D9" fill-opacity="0.45"/>
<circle cx="335.88" cy="631.843" r="5.31965" fill="#D9D9D9" fill-opacity="0.45"/>
<circle cx="1246.99" cy="726.295" r="5.31965" fill="#D9D9D9" fill-opacity="0.45"/>
<circle cx="5.55537" cy="765.287" r="5.31965" fill="#D9D9D9" fill-opacity="0.45"/>
<circle cx="422.58" cy="799.945" r="5.31965" fill="#D9D9D9" fill-opacity="0.45"/>
<circle cx="829.952" cy="954.652" r="5.31965" fill="#D9D9D9" fill-opacity="0.45"/>
<circle cx="585.284" cy="869.91" r="5.31965" fill="#D9D9D9" fill-opacity="0.45"/>
<circle cx="1347.42" cy="897.487" r="5.31965" fill="#D9D9D9" fill-opacity="0.45"/>
<circle cx="306.698" cy="904.66" r="5.31965" fill="#D9D9D9" fill-opacity="0.45"/>
<circle cx="5.55537" cy="986.042" r="5.31965" fill="#D9D9D9" fill-opacity="0.45"/>
<circle cx="811.771" cy="816.266" r="2.76968" fill="#D9D9D9" fill-opacity="0.45"/>
<circle cx="1048.31" cy="704.967" r="2.76968" fill="#D9D9D9" fill-opacity="0.45"/>
<circle cx="572.592" cy="752.764" r="2.76968" fill="#D9D9D9" fill-opacity="0.45"/>
<circle cx="679.823" cy="798.774" r="2.76968" fill="#D9D9D9" fill-opacity="0.45"/>
<circle cx="863.105" cy="718.376" r="2.76968" fill="#D9D9D9" fill-opacity="0.45"/>
<circle cx="898.927" cy="881.033" r="2.76968" fill="#D9D9D9" fill-opacity="0.45"/>
<circle cx="417.261" cy="718.376" r="2.76968" fill="#D9D9D9" fill-opacity="0.45"/>
<circle cx="270.651" cy="796.004" r="2.76968" fill="#D9D9D9" fill-opacity="0.45"/>
<circle cx="456.01" cy="861.821" r="2.76968" fill="#D9D9D9" fill-opacity="0.45"/>
<circle cx="185.15" cy="718.376" r="2.76968" fill="#D9D9D9" fill-opacity="0.45"/>
<circle cx="1302.9" cy="784.655" r="2.76968" fill="#D9D9D9" fill-opacity="0.45"/>
<circle cx="977.704" cy="949.33" r="2.76968" fill="#D9D9D9" fill-opacity="0.45"/>
<path d="M559.01 369.469C559.01 372.407 556.628 374.788 553.69 374.788C550.752 374.788 548.37 372.407 548.37 369.469C548.37 366.531 550.752 364.149 553.69 364.149C556.628 364.149 559.01 366.531 559.01 369.469Z" fill="#D9D9D9"/>
<g opacity="0.31">
<circle cx="5.31965" cy="5.31965" r="5.31965" transform="matrix(-1 0 0 1 421.916 1075.87)" fill="#D9D9D9"/>
<circle cx="5.31965" cy="5.31965" r="5.31965" transform="matrix(-1 0 0 1 575.646 1102.52)" fill="#D9D9D9"/>
<circle cx="5.31965" cy="5.31965" r="5.31965" transform="matrix(-1 0 0 1 1051.6 1070.55)" fill="#D9D9D9"/>
<circle cx="5.31965" cy="5.31965" r="5.31965" transform="matrix(-1 0 0 1 111.312 1091.88)" fill="#D9D9D9"/>
<circle cx="5.31965" cy="5.31965" r="5.31965" transform="matrix(-1 0 0 1 1352.74 1130.87)" fill="#D9D9D9"/>
<circle cx="5.31965" cy="5.31965" r="5.31965" transform="matrix(-1 0 0 1 935.718 1165.53)" fill="#D9D9D9"/>
<circle cx="5.31965" cy="5.31965" r="5.31965" transform="matrix(-1 0 0 1 528.347 1320.24)" fill="#D9D9D9"/>
<circle cx="5.31965" cy="5.31965" r="5.31965" transform="matrix(-1 0 0 1 773.014 1235.49)" fill="#D9D9D9"/>
<circle cx="5.31965" cy="5.31965" r="5.31965" transform="matrix(-1 0 0 1 685.143 1309.6)" fill="#D9D9D9"/>
<circle cx="5.31965" cy="5.31965" r="5.31965" transform="matrix(-1 0 0 1 10.875 1263.07)" fill="#D9D9D9"/>
<circle cx="5.31965" cy="5.31965" r="5.31965" transform="matrix(-1 0 0 1 1051.6 1270.24)" fill="#D9D9D9"/>
<circle cx="5.31965" cy="5.31965" r="5.31965" transform="matrix(-1 0 0 1 1352.74 1351.63)" fill="#D9D9D9"/>
<circle cx="2.76968" cy="2.76968" r="2.76968" transform="matrix(-1 0 0 1 543.978 1184.4)" fill="#D9D9D9"/>
<circle cx="2.76968" cy="2.76968" r="2.76968" transform="matrix(-1 0 0 1 307.442 1073.1)" fill="#D9D9D9"/>
<circle cx="2.76968" cy="2.76968" r="2.76968" transform="matrix(-1 0 0 1 783.157 1120.9)" fill="#D9D9D9"/>
<circle cx="2.76968" cy="2.76968" r="2.76968" transform="matrix(-1 0 0 1 675.925 1166.91)" fill="#D9D9D9"/>
<circle cx="2.76968" cy="2.76968" r="2.76968" transform="matrix(-1 0 0 1 492.644 1086.51)" fill="#D9D9D9"/>
<circle cx="2.76968" cy="2.76968" r="2.76968" transform="matrix(-1 0 0 1 456.822 1249.17)" fill="#D9D9D9"/>
<circle cx="2.76968" cy="2.76968" r="2.76968" transform="matrix(-1 0 0 1 938.488 1086.51)" fill="#D9D9D9"/>
<circle cx="2.76968" cy="2.76968" r="2.76968" transform="matrix(-1 0 0 1 1085.1 1164.14)" fill="#D9D9D9"/>
<circle cx="2.76968" cy="2.76968" r="2.76968" transform="matrix(-1 0 0 1 899.738 1229.96)" fill="#D9D9D9"/>
<circle cx="2.76968" cy="2.76968" r="2.76968" transform="matrix(-1 0 0 1 1170.6 1086.51)" fill="#D9D9D9"/>
<circle cx="2.76968" cy="2.76968" r="2.76968" transform="matrix(-1 0 0 1 52.85 1152.79)" fill="#D9D9D9"/>
<circle cx="2.76968" cy="2.76968" r="2.76968" transform="matrix(-1 0 0 1 378.045 1317.46)" fill="#D9D9D9"/>
<circle cx="306.698" cy="1390.21" r="5.31965" fill="#D9D9D9" fill-opacity="0.45"/>
<circle cx="1246.99" cy="1411.54" r="5.31965" fill="#D9D9D9" fill-opacity="0.45"/>
<circle cx="5.55537" cy="1450.53" r="5.31965" fill="#D9D9D9" fill-opacity="0.45"/>
<circle cx="422.58" cy="1485.19" r="5.31965" fill="#D9D9D9" fill-opacity="0.45"/>
<circle cx="730.737" cy="1604.71" r="5.31965" fill="#D9D9D9" fill-opacity="0.45"/>
<circle cx="585.284" cy="1555.16" r="5.31965" fill="#D9D9D9" fill-opacity="0.45"/>
<circle cx="1347.42" cy="1582.73" r="5.31965" fill="#D9D9D9" fill-opacity="0.45"/>
<circle cx="306.698" cy="1589.91" r="5.31965" fill="#D9D9D9" fill-opacity="0.45"/>
<circle cx="5.55537" cy="1671.29" r="5.31965" fill="#D9D9D9" fill-opacity="0.45"/>
<circle cx="811.771" cy="1501.51" r="2.76968" fill="#D9D9D9" fill-opacity="0.45"/>
<circle cx="1048.31" cy="1390.21" r="2.76968" fill="#D9D9D9" fill-opacity="0.45"/>
<circle cx="572.592" cy="1438.01" r="2.76968" fill="#D9D9D9" fill-opacity="0.45"/>
<circle cx="679.823" cy="1484.02" r="2.76968" fill="#D9D9D9" fill-opacity="0.45"/>
<circle cx="863.105" cy="1403.62" r="2.76968" fill="#D9D9D9" fill-opacity="0.45"/>
<circle cx="898.927" cy="1566.28" r="2.76968" fill="#D9D9D9" fill-opacity="0.45"/>
<circle cx="417.261" cy="1403.62" r="2.76968" fill="#D9D9D9" fill-opacity="0.45"/>
<circle cx="270.651" cy="1481.25" r="2.76968" fill="#D9D9D9" fill-opacity="0.45"/>
<circle cx="456.01" cy="1547.07" r="2.76968" fill="#D9D9D9" fill-opacity="0.45"/>
<circle cx="134.182" cy="1512.36" r="2.76968" fill="#D9D9D9" fill-opacity="0.45"/>
<circle cx="1302.9" cy="1469.9" r="2.76968" fill="#D9D9D9" fill-opacity="0.45"/>
<circle cx="972.465" cy="1484.02" r="2.76968" fill="#D9D9D9" fill-opacity="0.45"/>
<circle cx="5.31965" cy="5.31965" r="5.31965" transform="matrix(-1 0 0 1 1053.63 1577.41)" fill="#D9D9D9" fill-opacity="0.45"/>
<circle cx="5.31965" cy="5.31965" r="5.31965" transform="matrix(-1 0 0 1 142.52 1671.87)" fill="#D9D9D9" fill-opacity="0.45"/>
<circle cx="5.31965" cy="5.31965" r="5.31965" transform="matrix(-1 0 0 1 1383.95 1710.86)" fill="#D9D9D9" fill-opacity="0.45"/>
<circle cx="5.31965" cy="5.31965" r="5.31965" transform="matrix(-1 0 0 1 966.926 1745.52)" fill="#D9D9D9" fill-opacity="0.45"/>
<circle cx="5.31965" cy="5.31965" r="5.31965" transform="matrix(-1 0 0 1 559.554 1900.22)" fill="#D9D9D9" fill-opacity="0.45"/>
<circle cx="5.31965" cy="5.31965" r="5.31965" transform="matrix(-1 0 0 1 804.222 1815.48)" fill="#D9D9D9" fill-opacity="0.45"/>
<circle cx="5.31965" cy="5.31965" r="5.31965" transform="matrix(-1 0 0 1 42.0825 1843.06)" fill="#D9D9D9" fill-opacity="0.45"/>
<circle cx="5.31965" cy="5.31965" r="5.31965" transform="matrix(-1 0 0 1 1082.81 1850.23)" fill="#D9D9D9" fill-opacity="0.45"/>
<circle cx="5.31965" cy="5.31965" r="5.31965" transform="matrix(-1 0 0 1 1383.95 1931.61)" fill="#D9D9D9" fill-opacity="0.45"/>
<circle cx="2.76968" cy="2.76968" r="2.76968" transform="matrix(-1 0 0 1 575.185 1764.39)" fill="#D9D9D9" fill-opacity="0.45"/>
<circle cx="2.76968" cy="2.76968" r="2.76968" transform="matrix(-1 0 0 1 338.649 1653.09)" fill="#D9D9D9" fill-opacity="0.45"/>
<circle cx="2.76968" cy="2.76968" r="2.76968" transform="matrix(-1 0 0 1 814.364 1700.88)" fill="#D9D9D9" fill-opacity="0.45"/>
<circle cx="2.76968" cy="2.76968" r="2.76968" transform="matrix(-1 0 0 1 707.133 1746.9)" fill="#D9D9D9" fill-opacity="0.45"/>
<circle cx="2.76968" cy="2.76968" r="2.76968" transform="matrix(-1 0 0 1 523.851 1666.5)" fill="#D9D9D9" fill-opacity="0.45"/>
<circle cx="2.76968" cy="2.76968" r="2.76968" transform="matrix(-1 0 0 1 488.029 1829.15)" fill="#D9D9D9" fill-opacity="0.45"/>
<circle cx="2.76968" cy="2.76968" r="2.76968" transform="matrix(-1 0 0 1 969.696 1666.5)" fill="#D9D9D9" fill-opacity="0.45"/>
<circle cx="2.76968" cy="2.76968" r="2.76968" transform="matrix(-1 0 0 1 1116.31 1744.12)" fill="#D9D9D9" fill-opacity="0.45"/>
<circle cx="2.76968" cy="2.76968" r="2.76968" transform="matrix(-1 0 0 1 930.946 1809.94)" fill="#D9D9D9" fill-opacity="0.45"/>
<circle cx="2.76968" cy="2.76968" r="2.76968" transform="matrix(-1 0 0 1 1201.81 1666.5)" fill="#D9D9D9" fill-opacity="0.45"/>
<circle cx="2.76968" cy="2.76968" r="2.76968" transform="matrix(-1 0 0 1 84.0575 1732.78)" fill="#D9D9D9" fill-opacity="0.45"/>
<circle cx="2.76968" cy="2.76968" r="2.76968" transform="matrix(-1 0 0 1 409.252 1897.45)" fill="#D9D9D9" fill-opacity="0.45"/>
<path d="M825.177 1320.36C825.177 1323.3 827.559 1325.68 830.497 1325.68C833.434 1325.68 835.816 1323.3 835.816 1320.36C835.816 1317.42 833.434 1315.04 830.497 1315.04C827.559 1315.04 825.177 1317.42 825.177 1320.36Z" fill="#D9D9D9"/>
</g>
<path d="M1389.65 1937.34C1465.97 1937.34 1529.47 1981.49 1542.89 2039.8C1583.43 2060.59 1611.18 2102.81 1611.18 2151.51C1611.18 2178.97 1602.36 2204.36 1587.39 2225.02H956.326C955.735 2221.17 955.429 2217.24 955.429 2213.26C955.429 2159.13 1011.6 2115.24 1080.89 2115.24C1092.39 2115.24 1103.53 2116.45 1114.11 2118.71C1111.62 2111.02 1110.3 2102.96 1110.3 2094.66C1110.3 2040.52 1166.47 1996.64 1235.76 1996.64C1242.73 1996.64 1249.56 1997.08 1256.22 1997.94C1283.53 1961.61 1333.07 1937.34 1389.65 1937.34Z" fill="#342F91"/>
<path d="M1221.98 2443.68C1271.03 2443.68 1313.01 2471.34 1330.31 2510.52C1340.26 2506.16 1351.3 2503.74 1362.94 2503.74C1403.79 2503.74 1437.42 2533.67 1441.71 2572.13H973.106C983.805 2553.67 1021.72 2540.02 1066.84 2540.02C1080.56 2540.02 1093.62 2541.28 1105.45 2543.56C1109.33 2487.8 1160.02 2443.68 1221.98 2443.68Z" fill="#534AAE"/>
<path d="M1396.09 2725.5C1347.04 2725.5 1305.05 2753.16 1287.76 2792.34C1277.81 2787.98 1266.76 2785.56 1255.13 2785.56C1214.28 2785.56 1180.65 2815.49 1176.36 2853.95H1644.96C1634.26 2835.49 1596.35 2821.84 1551.22 2821.84C1537.5 2821.84 1524.44 2823.1 1512.62 2825.38C1508.74 2769.63 1458.05 2725.5 1396.09 2725.5Z" fill="#534AAE"/>
<path d="M174.311 2507.91C243.638 2507.91 299.839 2560.65 299.839 2625.72C299.839 2636.93 298.171 2647.77 295.057 2658.04H-266.374C-266.453 2656.45 -266.493 2654.85 -266.493 2653.24C-266.493 2600.38 -223.643 2557.53 -170.784 2557.53C-137.352 2557.53 -107.924 2574.68 -90.8087 2600.65C-72.4874 2592.63 -50.7008 2587.98 -27.3243 2587.98C2.36884 2587.98 29.4961 2595.48 50.2157 2607.87C59.3816 2551.27 111.451 2507.91 174.311 2507.91Z" fill="#534AAE"/>
<path d="M29.3578 2899.69C98.6845 2899.69 154.885 2952.44 154.885 3017.51C154.885 3028.72 153.217 3039.56 150.102 3049.83H-411.327C-411.405 3048.24 -411.446 3046.64 -411.446 3045.03C-411.446 2992.17 -368.596 2949.32 -315.737 2949.32C-282.305 2949.32 -252.876 2966.46 -235.76 2992.44C-217.439 2984.42 -195.653 2979.77 -172.277 2979.77C-142.584 2979.77 -115.457 2987.27 -94.7379 2999.66C-85.5726 2943.06 -33.5033 2899.69 29.3578 2899.69Z" fill="#7B7BFE" fill-opacity="0.8"/>
<path d="M10.2327 1778.55C72.3332 1778.55 125.032 1814.45 143.676 1864.25C167.308 1852.18 195.333 1845.2 225.384 1845.2C309.778 1845.2 378.193 1900.28 378.194 1968.22C378.194 1971.35 378.047 1974.45 377.761 1977.52H-103.761C-120.535 1956.87 -130.425 1931.47 -130.425 1904.01C-130.424 1834.72 -67.4502 1778.55 10.2327 1778.55Z" fill="#342F91"/>
<path d="M91.0986 1156.33C14.7849 1156.33 -48.7146 1200.49 -62.1348 1258.79C-102.679 1279.58 -130.425 1321.8 -130.425 1370.5C-130.425 1397.96 -121.603 1423.36 -106.641 1444.02H524.427C525.017 1440.16 525.324 1436.23 525.324 1432.25C525.324 1378.12 469.151 1334.23 399.859 1334.23C388.361 1334.23 377.224 1335.44 366.646 1337.71C369.131 1330.01 370.454 1321.95 370.454 1313.65C370.454 1259.52 314.281 1215.63 244.989 1215.63C238.022 1215.63 231.188 1216.08 224.53 1216.93C197.226 1180.61 147.684 1156.33 91.0986 1156.33Z" fill="#1B1B70"/>
<path d="M1235.8 1439.23C1242.21 1439.88 1248.74 1440.21 1255.37 1440.21C1262 1440.21 1268.53 1439.88 1274.94 1439.23H1235.8ZM1470.52 1122.63C1408.57 1122.63 1355.98 1158.35 1337.22 1207.96C1313.43 1196.12 1285.39 1189.28 1255.37 1189.28C1169.3 1189.28 1099.52 1245.46 1099.52 1314.75C1099.52 1317.05 1099.6 1319.34 1099.75 1321.61H1584.51C1601.29 1300.95 1611.18 1275.55 1611.18 1248.09C1611.18 1178.8 1548.2 1122.63 1470.52 1122.63Z" fill="#1B1B70"/>
<path d="M1348.44 3031.64C1299.39 3031.64 1257.4 3059.55 1240.11 3099.1C1230.16 3094.7 1219.11 3092.25 1207.48 3092.25C1166.63 3092.25 1133 3122.47 1128.71 3161.28H1597.31C1586.61 3142.64 1548.7 3128.87 1503.57 3128.87C1489.85 3128.87 1476.79 3130.14 1464.97 3132.44C1461.09 3076.17 1410.4 3031.64 1348.44 3031.64Z" fill="#7B7BFE" fill-opacity="0.8"/>
</g>
<defs>
<linearGradient id="paint0_linear_49_515" x1="692" y1="0" x2="692" y2="3483" gradientUnits="userSpaceOnUse">
<stop stop-color="#001433"/>
<stop offset="1" stop-color="#003D99"/>
</linearGradient>
<clipPath id="clip0_49_515">
<rect width="1384" height="3483" fill="white"/>
</clipPath>
</defs>
</svg>
