<svg width="218" height="347" viewBox="0 0 218 347" fill="none" xmlns="http://www.w3.org/2000/svg">
<mask id="path-1-outside-1_280_37" maskUnits="userSpaceOnUse" x="-0.999878" y="-0.999756" width="219" height="348" fill="black">
<rect fill="white" x="-0.999878" y="-0.999756" width="219" height="348"/>
<path d="M141.419 11.1835C154.308 -0.646656 190.031 79.2523 199.083 116.163C208.135 153.074 214.636 221.85 188.972 271.197C163.308 320.544 129.267 336.95 109.506 336.852C89.7445 336.755 56.9587 321.574 29.4707 271.197C1.98263 220.821 8.55569 164.442 19.1894 118.627C29.8232 72.8122 65.3098 0.144178 77.3467 11.1835C89.3833 22.2229 72.224 57.3298 70.4463 95.4628C68.4799 137.645 83.6486 183.8 109.506 183.8C135.363 183.799 152.142 137.301 149.305 95.4628C146.691 56.9268 128.53 23.0141 141.419 11.1835Z"/>
</mask>
<path d="M141.419 11.1835C154.308 -0.646656 190.031 79.2523 199.083 116.163C208.135 153.074 214.636 221.85 188.972 271.197C163.308 320.544 129.267 336.95 109.506 336.852C89.7445 336.755 56.9587 321.574 29.4707 271.197C1.98263 220.821 8.55569 164.442 19.1894 118.627C29.8232 72.8122 65.3098 0.144178 77.3467 11.1835C89.3833 22.2229 72.224 57.3298 70.4463 95.4628C68.4799 137.645 83.6486 183.8 109.506 183.8C135.363 183.799 152.142 137.301 149.305 95.4628C146.691 56.9268 128.53 23.0141 141.419 11.1835Z" fill="black"/>
<path d="M141.419 11.1835L134.657 3.81622L134.657 3.81638L141.419 11.1835ZM199.083 116.163L208.795 113.781L208.795 113.781L199.083 116.163ZM188.972 271.197L197.844 275.811L197.844 275.811L188.972 271.197ZM109.506 336.852L109.456 346.852L109.456 346.852L109.506 336.852ZM29.4707 271.197L20.6925 275.987L20.6925 275.987L29.4707 271.197ZM19.1894 118.627L9.44837 116.366L9.44837 116.366L19.1894 118.627ZM77.3467 11.1835L84.1058 3.81373L84.1057 3.81364L77.3467 11.1835ZM70.4463 95.4628L60.4571 94.9971L60.4571 94.9971L70.4463 95.4628ZM109.506 183.8L109.506 193.8L109.506 193.8L109.506 183.8ZM149.305 95.4628L159.282 94.7861L159.282 94.786L149.305 95.4628ZM141.419 11.1835L148.181 18.5508C147.411 19.2574 146.157 19.9055 144.663 19.9911C143.37 20.0651 142.648 19.6747 142.72 19.711C143.076 19.8909 144.499 20.8945 146.892 23.7833C151.467 29.3086 157.022 38.5372 162.764 49.9042C174.187 72.5184 185.068 101 189.371 118.545L199.083 116.163L208.795 113.781C204.046 94.4153 192.54 64.4921 180.616 40.8867C174.684 29.1438 168.326 18.309 162.296 11.027C159.385 7.51215 155.832 3.92608 151.732 1.8567C149.576 0.768431 146.757 -0.161569 143.52 0.0237474C140.081 0.220594 137.038 1.63077 134.657 3.81622L141.419 11.1835ZM199.083 116.163L189.371 118.545C193.714 136.257 197.483 161.822 197.047 188.855C196.61 215.971 191.954 243.79 180.1 266.583L188.972 271.197L197.844 275.811C211.654 249.257 216.579 218.015 217.044 189.178C217.511 160.258 213.503 132.98 208.795 113.781L199.083 116.163ZM188.972 271.197L180.1 266.583C155.529 313.829 124.364 326.926 109.555 326.853L109.506 336.852L109.456 346.852C134.171 346.974 171.087 327.259 197.844 275.811L188.972 271.197ZM109.506 336.852L109.555 326.853C94.6362 326.779 64.6559 314.803 38.2489 266.407L29.4707 271.197L20.6925 275.987C49.2615 328.344 84.8528 346.731 109.456 346.852L109.506 336.852ZM29.4707 271.197L38.2489 266.407C12.615 219.429 18.4126 166.203 28.9305 120.888L19.1894 118.627L9.44837 116.366C-1.30127 162.68 -8.64978 222.213 20.6925 275.987L29.4707 271.197ZM19.1894 118.627L28.9305 120.888C34.023 98.9472 45.2181 70.1169 56.6143 48.1979C62.3482 37.1696 67.8166 28.5114 72.2298 23.4256C73.2988 22.1937 74.2076 21.287 74.9438 20.6534C75.3065 20.3414 75.5958 20.1227 75.8109 19.9759C76.0283 19.8274 76.1327 19.7776 76.1256 19.781C76.1196 19.7839 75.9485 19.8657 75.6254 19.94C75.2944 20.0162 74.7865 20.088 74.1464 20.0444C72.6806 19.9445 71.4115 19.309 70.5876 18.5533L77.3467 11.1835L84.1057 3.81364C81.7772 1.67808 78.8203 0.316663 75.507 0.0907404C72.3844 -0.122189 69.6436 0.716355 67.5304 1.72215C63.5081 3.63659 60.0029 7.0001 57.1241 10.3177C51.1658 17.184 44.841 27.4864 38.8694 38.9719C26.8547 62.0808 14.9896 92.4919 9.44837 116.366L19.1894 118.627ZM77.3467 11.1835L70.5875 18.5533C70.6125 18.5762 70.8268 18.7571 71.0682 19.5C71.336 20.3244 71.5755 21.6697 71.5969 23.7502C71.6412 28.039 70.7744 33.7419 69.2739 41.1875C66.4076 55.4102 61.3928 74.9268 60.4571 94.9971L70.4463 95.4628L80.4354 95.9285C81.2775 77.8658 85.7311 60.7624 88.8798 45.1386C90.3867 37.6609 91.664 30.1339 91.5959 23.5436C91.5288 17.052 90.1429 9.35065 84.1058 3.81373L77.3467 11.1835ZM70.4463 95.4628L60.4571 94.9971C59.4191 117.263 62.8612 140.82 70.2677 159.189C77.2941 176.615 89.9174 193.8 109.506 193.8V183.8V173.8C103.237 173.8 95.3473 167.907 88.8166 151.71C82.6661 136.456 79.507 115.845 80.4354 95.9284L70.4463 95.4628ZM109.506 183.8L109.506 193.8C128.982 193.799 142.045 176.687 149.387 159.19C157.123 140.753 160.795 117.092 159.282 94.7861L149.305 95.4628L139.328 96.1395C140.652 115.672 137.353 136.179 130.945 151.451C124.142 167.662 115.887 173.8 109.506 173.8L109.506 183.8ZM149.305 95.4628L159.282 94.786C157.908 74.5287 152.396 55.1422 149.314 41.1565C147.695 33.8114 146.792 28.2433 146.845 24.051C146.898 19.9177 147.853 18.8521 148.181 18.5506L141.419 11.1835L134.657 3.81638C128.541 9.43022 126.932 17.0402 126.847 23.7972C126.762 30.495 128.145 38.0319 129.782 45.4608C133.212 61.0231 138.088 77.8609 139.328 96.1395L149.305 95.4628Z" fill="white" mask="url(#path-1-outside-1_280_37)"/>
<path d="M144.234 12.5029C144.639 12.4797 145.245 12.5849 146.099 13.0156C147.859 13.904 150.081 15.8755 152.668 18.999C157.789 25.183 163.645 35.0146 169.458 46.5225C181.069 69.5083 192.185 98.5301 196.655 116.758C201.136 135.027 204.993 161.235 204.546 188.976C204.098 216.737 199.341 245.84 186.754 270.044C161.363 318.866 128.041 334.444 109.518 334.353C90.967 334.261 58.883 319.881 31.6652 270C4.64072 220.473 11.0194 164.882 21.6241 119.192C26.8849 96.5268 38.3319 67.1035 49.9601 44.7383C55.7831 33.5385 61.573 24.2633 66.5656 18.5098C69.0868 15.6043 71.2293 13.8052 72.9025 13.0088C73.7133 12.6229 74.2824 12.5361 74.6564 12.5615C74.9827 12.5838 75.2991 12.6968 75.6573 13.0254C77.9096 15.091 79.0433 18.4964 79.0968 23.6729C79.15 28.8246 78.129 35.2115 76.6261 42.6689C73.654 57.4169 68.8499 76.0284 67.9493 95.3457C66.9524 116.731 70.2884 139.184 77.2238 156.385C84.064 173.349 94.9117 186.3 109.505 186.3C124.071 186.3 135.331 173.303 142.471 156.288C149.709 139.038 153.241 116.559 151.799 95.293C150.475 75.7778 145.202 57.3473 141.989 42.7705C140.364 35.3942 139.28 29.0879 139.345 23.9561C139.41 18.8389 140.611 15.319 143.109 13.0254C143.521 12.6476 143.878 12.5233 144.234 12.5029Z" fill="white" stroke="black" stroke-width="5"/>
<path d="M84.171 281.664C90.9019 290.79 98.3946 309.229 91.5634 314.267C84.7322 319.306 67.3462 309.013 60.2555 299.4C53.1648 289.787 45.1181 268.888 51.9493 263.849C58.7806 258.811 77.44 272.539 84.171 281.664Z" fill="black"/>
<path d="M133.393 281.664C126.662 290.79 119.169 309.229 126.001 314.267C132.832 319.306 150.218 309.013 157.309 299.4C164.399 289.787 172.446 268.888 165.615 263.849C158.784 258.811 140.124 272.539 133.393 281.664Z" fill="black"/>
</svg>
