<svg width="1387" height="2865" viewBox="0 0 1387 2865" fill="none" xmlns="http://www.w3.org/2000/svg">
<g clip-path="url(#clip0_228_12)">
<rect width="1387" height="2865" fill="url(#paint0_linear_228_12)"/>
<path d="M191.186 303.478C203.802 309.661 212.684 317.084 217.183 324.148C219.399 327.627 220.049 331.272 219.328 335.223C218.603 339.193 216.491 343.491 213.142 348.242C206.44 357.75 194.887 368.936 180.015 382.762C150.292 410.391 107.443 448.445 64.1691 504.375C42.472 532.418 35.688 561.888 34.3732 589.701C33.716 603.603 34.4254 617.095 35.3215 629.784C36.2183 642.483 37.2994 654.359 37.3959 665.075C37.5887 686.513 33.8326 703.072 16.9686 712.049C8.50269 716.555 -3.31011 719.177 -19.6783 719.499C-36.0433 719.82 -56.9308 717.842 -83.5238 713.176C-136.617 703.859 -165.162 678.81 -176.447 645.581C-187.748 612.305 -181.779 570.714 -165.573 528.265C-149.372 485.828 -122.966 442.6 -93.4894 406.094C-64.0091 369.584 -31.487 339.83 -3.07435 324.31C53.8203 293.232 104.383 286.093 142.976 290.28C162.275 292.374 178.579 297.299 191.186 303.478Z" stroke="#06D6A0" stroke-width="0.918322"/>
<path d="M137.966 322.057C153.802 325.316 164.919 330.604 169.978 335.804C172.452 338.348 173.328 341.294 172.836 344.721C172.34 348.177 170.448 352.139 167.331 356.65C161.099 365.67 150.098 376.711 136.154 390.043C108.289 416.683 68.7824 452.373 32.6622 499.058C-3.55262 545.865 7.61566 595.684 6.69909 630.424C6.23995 647.826 2.77174 661.364 -10.9129 669.126C-24.6722 676.931 -48.8671 678.972 -91.0466 672.908C-133.174 666.851 -161.871 653.844 -179.334 636.082C-196.782 618.336 -203.064 595.791 -200.264 570.53C-194.657 519.953 -152.64 458.554 -91.0301 403.461C-29.464 348.408 30.7042 326.239 78.0324 320.471C101.699 317.586 122.153 318.803 137.966 322.057Z" stroke="#06D6A0" stroke-width="0.918322"/>
<path d="M20.4762 374.483C23.7783 376.837 25.9405 380.833 26.5763 386.868C31.7232 435.726 17.565 494.032 -21.2592 544.212C-40.6687 569.298 -66.0978 590.618 -90.3699 604.279C-102.506 611.109 -114.34 616.017 -124.976 618.528C-135.62 621.04 -145.022 621.141 -152.325 618.413C-159.507 615.729 -163.698 608.167 -165.263 597.326C-166.825 586.503 -165.745 572.549 -162.517 557.338C-156.062 526.92 -141.048 491.612 -121.649 466.539C-102.238 441.451 -66.309 409.383 -34.5963 389.71C-18.7297 379.868 -3.98073 373.168 7.08741 371.956C12.6157 371.35 17.1627 372.121 20.4762 374.483Z" stroke="#06D6A1" stroke-width="0.918322"/>
<path d="M18.6598 764.388C36.2963 769.924 48.5561 785.768 52.3231 808.711C56.0998 831.715 54.2611 848.349 45.1119 863.863C35.9433 879.411 19.4061 893.886 -6.35933 912.49C-32.0625 931.05 -54.2483 937.422 -73.133 936.813C-92.0202 936.204 -107.664 928.609 -120.28 919.128C-126.409 914.521 -128.289 906.082 -126.722 895.242C-125.158 884.419 -120.173 871.341 -112.772 857.666C-97.9733 830.318 -73.5817 800.702 -47.88 782.144C-22.1806 763.587 1.00606 758.847 18.6598 764.388Z" stroke="#06D6A1" stroke-width="0.918322"/>
<path d="M17.0326 752.495C36.7314 759.378 50.8479 777.714 55.8296 803.738C60.8221 829.82 59.3859 848.521 49.8379 865.692C40.2724 882.894 22.5359 898.622 -5.23565 918.675C-32.9401 938.679 -57.2013 945.074 -78.075 943.713C-98.9548 942.351 -116.506 933.224 -130.78 922.076C-137.753 916.63 -140.123 907.002 -138.781 894.836C-137.44 882.683 -132.403 868.112 -124.724 852.96C-109.366 822.654 -83.5015 790.138 -55.7975 770.134C-28.1 750.134 -2.67176 745.61 17.0326 752.495Z" stroke="#06D6A1" stroke-width="0.918322"/>
<path d="M7.6718 812.536C15.2541 814.916 20.5551 821.734 22.1879 831.679C23.8306 841.684 23.026 848.878 19.0732 855.581C15.101 862.316 7.92307 868.608 -3.32357 876.728C-14.508 884.804 -24.1375 887.561 -32.3114 887.297C-40.4878 887.033 -47.2668 883.746 -52.7448 879.629C-55.3053 877.705 -56.1354 874.146 -55.4563 869.446C-54.7796 864.764 -52.6182 859.085 -49.3954 853.129C-42.9509 841.22 -32.3278 828.324 -21.1447 820.249C-9.96391 812.176 0.0722469 810.151 7.6718 812.536Z" stroke="#06D6A1" stroke-width="0.918322"/>
<path d="M-5.45298 275.534C1.4187 276.518 139.832 225.28 206.664 240.541C282.322 257.818 273.457 337.151 246.842 367.566C184.185 439.168 123.467 483.683 105.934 513.689C88.4014 543.695 100.246 572.942 142.509 582.922C185.464 593.064 238.081 588.474 239.787 610.247C241.162 627.805 167.594 617.532 123.467 650.688C79.3399 683.844 118.613 728.306 135.321 783.459C155.126 848.836 -32.0487 922.837 -14.8387 965.402" stroke="#06D6A0" stroke-width="0.918322"/>
<path d="M-6.31717 247.453C0.524746 248.433 159.625 199.42 240.571 233.33C321.518 267.239 317.014 334.978 290.297 365.51C227.641 437.112 177.783 447.566 154.768 486.955C131.753 526.344 141.234 563.105 183.496 573.085C226.452 583.227 273.058 579.73 274.763 601.503C276.138 619.061 204.67 630.102 160.543 663.258C116.416 696.414 149.914 720.061 166.622 775.214C186.428 840.592 -43.8404 941.179 -26.6305 983.745" stroke="#06D6A0" stroke-width="0.918322"/>
<path d="M-6.52276 216.781C-6.52276 216.781 87.7904 181.015 180.756 190.758C255.328 198.573 331.864 234.098 346.308 269.837C360.753 305.575 331.946 338.725 318.99 358.695C267.205 438.52 208.019 440.969 184.415 480.921C160.812 520.872 194.255 560.242 235.347 569.311C277.113 578.53 316.582 579.22 317.851 600.658C318.873 617.947 265.669 619.676 221.969 653.175C178.269 686.674 175.425 710.87 190.736 764.95C208.887 829.057 -34.1455 948.636 -18.1141 990.296" stroke="#06D6A0" stroke-width="0.918322"/>
<path d="M-408.031 927.177C-394.969 928.486 -367.781 924.274 -363.53 896.949C-358.217 862.793 -346.441 850.131 -321.575 855.514C-296.71 860.897 -255.998 888.437 -215.028 891.766C-174.058 895.094 -157.236 886.996 -151.675 878.103C-146.114 869.21 -133.489 848.628 -166.256 813.379C-184.683 793.557 -226.559 748.909 -243.26 714.214C-259.962 679.519 -275.824 632.937 -263.945 624.974C-252.066 617.011 -226.472 638.792 -207.815 668.402C-189.158 698.012 -169.54 707.821 -133.954 719.611C-98.3681 731.402 -79.683 733.89 -44.2105 734.944C-12.4145 735.889 24.9394 737.355 44.4448 718.426C65.6287 697.868 60.257 673.259 56.241 641.781C52.225 610.303 48.6564 594.124 55.257 561.81C67.9717 499.565 135.31 450.115 155.079 430.797C192.166 394.559 229.488 363.907 237.799 341.521C246.11 319.135 243.226 263.17 196.441 255.783C149.655 248.397 -6.74921 295.406 -6.74921 295.406" stroke="#06D6A0" stroke-width="0.918322"/>
<line x1="-226.858" y1="1230.42" x2="412.003" y2="404.704" stroke="white" stroke-opacity="0.26" stroke-width="0.918322"/>
<line x1="-599.334" y1="942.232" x2="39.5271" y2="116.517" stroke="white" stroke-opacity="0.26" stroke-width="0.918322"/>
<line x1="-323.558" y1="1163" x2="315.303" y2="337.285" stroke="white" stroke-opacity="0.26" stroke-width="0.918322"/>
<line x1="-413.096" y1="1086.32" x2="225.765" y2="260.61" stroke="white" stroke-opacity="0.26" stroke-width="0.918322"/>
<line x1="-506.215" y1="1014.28" x2="132.646" y2="188.564" stroke="white" stroke-opacity="0.26" stroke-width="0.918322"/>
<line x1="-75.1444" y1="188.519" x2="371.826" y2="534.343" stroke="white" stroke-opacity="0.18" stroke-width="0.918322"/>
<line x1="-171.833" y1="313.486" x2="275.138" y2="659.311" stroke="white" stroke-opacity="0.18" stroke-width="0.918322"/>
<line x1="-268.522" y1="438.454" x2="178.449" y2="784.279" stroke="white" stroke-opacity="0.18" stroke-width="0.918322"/>
<line x1="-365.21" y1="563.422" x2="81.7605" y2="909.246" stroke="white" stroke-opacity="0.18" stroke-width="0.918322"/>
<path d="M2044.08 1058.98C2042.56 1043.75 2038.37 1031.87 2032.87 1024.59C2030.16 1021.01 2026.69 1018.96 2022.38 1018.19C2018.06 1017.42 2012.87 1017.94 2006.75 1019.55C1994.5 1022.77 1978.69 1030.31 1958.93 1040.23C1919.43 1060.05 1864.31 1089.3 1790.78 1112.19C1753.92 1123.67 1721.27 1119.39 1692.39 1110.15C1677.95 1105.54 1664.45 1099.68 1651.85 1093.94C1639.23 1088.2 1627.52 1082.58 1616.63 1078.41C1594.82 1070.06 1576.5 1067.59 1560.93 1081.39C1553.11 1088.31 1545.94 1099.37 1539.39 1115.95C1532.84 1132.53 1526.92 1154.59 1521.56 1183.5C1510.88 1241.22 1525.59 1279.87 1555.2 1304.02C1584.86 1328.21 1629.57 1337.93 1679.05 1337.54C1728.51 1337.14 1782.66 1326.63 1831.12 1310.44C1879.58 1294.24 1922.31 1272.37 1948.95 1249.28C2002.3 1203.04 2028.81 1154.16 2039.21 1113.19C2044.41 1092.7 2045.59 1074.19 2044.08 1058.98Z" stroke="#06D6A0"/>
<path d="M1431.4 1042.99C1432.46 1022.89 1420.95 1004.35 1398.97 991.784C1376.94 979.183 1359.26 974.733 1339.95 978.17C1320.6 981.613 1299.55 992.985 1270.76 1012.2C1242.05 1031.37 1227.11 1051.59 1220.55 1071.09C1213.99 1090.59 1215.8 1109.44 1220.67 1125.92C1223.04 1133.93 1230.94 1139.05 1242.6 1141.58C1254.23 1144.1 1269.47 1143.98 1286.24 1141.63C1319.78 1136.93 1359.27 1123.3 1387.98 1104.13C1416.69 1084.96 1430.34 1063.11 1431.4 1042.99Z" stroke="#06D6A1"/>
<path d="M1442.92 1049.17C1443.38 1026.45 1430.04 1005.08 1405.38 990.097C1380.66 975.085 1361.04 969.44 1339.89 972.653C1318.69 975.873 1295.9 987.991 1264.88 1008.7C1233.93 1029.37 1218.18 1051.69 1211.63 1073.51C1205.08 1095.33 1207.72 1116.71 1213.67 1135.52C1216.58 1144.7 1225.5 1150.78 1238.42 1154.04C1251.34 1157.29 1268.12 1157.69 1286.5 1155.62C1323.26 1151.47 1366.28 1137.44 1397.22 1116.78C1428.16 1096.12 1442.45 1071.9 1442.92 1049.17Z" stroke="#06D6A1"/>
<path d="M1378.09 1035.89C1378.55 1027.25 1373.61 1019.25 1364.08 1013.8C1354.49 1008.32 1346.85 1006.41 1338.5 1007.89C1330.12 1009.38 1320.97 1014.31 1308.41 1022.7C1295.92 1031.04 1289.44 1039.82 1286.6 1048.26C1283.76 1056.71 1284.54 1064.87 1286.66 1072.03C1287.65 1075.37 1290.96 1077.57 1296.02 1078.67C1301.05 1079.76 1307.67 1079.71 1314.97 1078.69C1329.57 1076.64 1346.77 1070.7 1359.26 1062.36C1371.75 1054.02 1377.64 1044.55 1378.09 1035.89Z" stroke="#06D6A1"/>
<path d="M1606.41 1469.41C1599.42 1472.34 1585.55 1512.22 1511.78 1485.75C1452.76 1464.58 1426.05 1380.04 1418.5 1336.36C1410.96 1292.69 1402 1260.95 1365.77 1234.75C1289.66 1179.72 1284.84 1425.54 1296.97 1465.21C1307.52 1499.75 1361.68 1511.58 1393.81 1485.75" stroke="#06D6A0"/>
<path d="M1389.04 1549.71C1382.63 1545.66 1099.55 1626.67 1071.92 1524.67C1044.29 1422.66 1177.89 1338.43 1197.3 1293.89C1216.72 1249.35 1055.88 1140.92 1122.58 1028.36C1181.83 928.384 1389.04 895.881 1389.04 895.881" stroke="#06D6A0"/>
<path d="M1394.67 1531.57C1387.48 1526.96 1125.78 1605.18 1101.76 1520.76C1082.54 1453.21 1155.57 1403.17 1190.07 1369.04C1224.56 1334.92 1208.08 1258.36 1197.26 1226.07C1186.45 1193.78 1144.21 1152.08 1149.99 1079.75C1159.06 966.302 1388.66 929.355 1385.25 915.296" stroke="#06D6A0"/>
<path d="M1372.79 1339.31C1368.25 1338.7 1364.81 1339.72 1362.11 1342C1359.39 1344.3 1357.37 1347.92 1355.79 1352.61C1352.62 1362 1351.28 1375.39 1349.29 1390.23C1347.31 1405.05 1346.38 1416.7 1348.23 1424.96C1349.16 1429.07 1350.77 1432.3 1353.25 1434.65C1355.73 1437 1359.13 1438.52 1363.72 1439.14C1372.86 1440.36 1380.65 1437.17 1386.67 1430.01C1392.7 1422.83 1396.97 1411.63 1398.94 1396.88C1400.92 1382.15 1398.94 1368.34 1394.17 1357.92C1389.4 1347.49 1381.88 1340.53 1372.79 1339.31Z" stroke="#06D6A1"/>
<path d="M1360.95 1291.93C1353.39 1290.92 1347.63 1292.61 1343.11 1296.44C1338.57 1300.28 1335.23 1306.3 1332.61 1314.04C1327.38 1329.54 1325.16 1351.64 1321.89 1376.05C1318.63 1400.44 1317.09 1419.69 1320.16 1433.34C1321.69 1440.16 1324.36 1445.54 1328.51 1449.47C1332.66 1453.4 1338.33 1455.93 1345.93 1456.94C1361.1 1458.97 1374.04 1453.66 1384.01 1441.8C1394 1429.91 1401.04 1411.41 1404.3 1387.08C1407.55 1362.79 1404.29 1339.98 1396.41 1322.76C1388.53 1305.53 1376.07 1293.95 1360.95 1291.93Z" stroke="#06D6A1"/>
<path d="M1360.22 1270.13C1350.68 1268.85 1343.4 1271 1337.68 1275.83C1331.94 1280.69 1327.72 1288.3 1324.43 1298.05C1317.84 1317.56 1315.05 1345.38 1310.94 1376.09C1306.83 1406.78 1304.88 1431.02 1308.75 1448.23C1310.69 1456.81 1314.06 1463.61 1319.31 1468.58C1324.55 1473.55 1331.71 1476.74 1341.29 1478.02C1360.43 1480.58 1376.75 1473.88 1389.32 1458.92C1401.92 1443.93 1410.77 1420.63 1414.87 1390.01C1418.97 1359.41 1414.86 1330.7 1404.94 1309C1395.01 1287.29 1379.31 1272.69 1360.22 1270.13Z" stroke="#06D6A1"/>
<line y1="-0.5" x2="1136.86" y2="-0.5" transform="matrix(0.954805 -0.297234 -0.297234 -0.954805 1006.87 1040.42)" stroke="white" stroke-opacity="0.26"/>
<line y1="-0.5" x2="1136.86" y2="-0.5" transform="matrix(0.954805 -0.297234 -0.297234 -0.954805 1159.3 1530.08)" stroke="white" stroke-opacity="0.26"/>
<line y1="-0.5" x2="1136.86" y2="-0.5" transform="matrix(0.954805 -0.297234 -0.297234 -0.954805 1038.89 1164.73)" stroke="white" stroke-opacity="0.26"/>
<line y1="-0.5" x2="1136.86" y2="-0.5" transform="matrix(0.954805 -0.297234 -0.297234 -0.954805 1083.08 1285.25)" stroke="white" stroke-opacity="0.26"/>
<line y1="-0.5" x2="1136.86" y2="-0.5" transform="matrix(0.954805 -0.297234 -0.297234 -0.954805 1121.19 1407.67)" stroke="white" stroke-opacity="0.26"/>
<line y1="-0.5" x2="615.4" y2="-0.5" transform="matrix(-0.297234 -0.954805 -0.954805 0.297234 1470.25 1486.99)" stroke="white" stroke-opacity="0.18"/>
<line y1="-0.5" x2="615.4" y2="-0.5" transform="matrix(-0.297234 -0.954805 -0.954805 0.297234 1305.96 1538.13)" stroke="white" stroke-opacity="0.18"/>
<path d="M-88.6973 2353.2C-299.223 2402.58 -400.748 2338.3 -423.828 2274.82C-426.706 2266.91 -427.232 2260.11 -425.726 2254.14C-424.22 2248.17 -420.668 2242.97 -415.288 2238.28C-404.504 2228.88 -386.468 2221.58 -363.225 2214.26C-316.805 2199.65 -249.84 2185.01 -179.744 2153.15C-144.595 2137.17 -123.083 2112.24 -107.679 2086.12C-99.98 2073.07 -93.8056 2059.71 -88.2188 2047.04C-82.6276 2034.35 -77.633 2022.37 -72.2791 2012C-61.5679 1991.25 -49.5328 1977.22 -28.7294 1977.14C-18.2859 1977.11 -5.57752 1980.59 10.349 1988.6C26.2726 1996.6 45.3826 2009.13 68.6209 2027.14C115.079 2063.15 141.564 2098.44 151.929 2131.85C162.287 2165.25 156.562 2196.83 138.48 2225.49C102.283 2282.86 16.5655 2328.51 -88.6973 2353.2Z" stroke="#06D6A0"/>
<path d="M-367.349 2261.64C-371.106 2253.37 -372.361 2246.7 -371.525 2241.23C-370.691 2235.78 -367.771 2231.46 -363.03 2227.92C-358.277 2224.36 -351.702 2221.6 -343.601 2219.27C-335.505 2216.96 -325.918 2215.09 -315.166 2213.33C-272.179 2206.29 -210.655 2200.9 -152.105 2174.28C-93.4371 2147.61 -78.8696 2093.96 -60.3289 2060.97C-51.0414 2044.45 -40.8205 2033.17 -23.6963 2032.65C-6.47871 2032.13 17.8597 2042.46 55.3979 2069.74C92.8891 2096.99 113.914 2124.1 121.704 2150.08C129.486 2176.04 124.078 2200.94 108.541 2223.85C77.4336 2269.71 5.76031 2307.48 -81.5758 2329.22C-168.897 2350.95 -232.828 2350.6 -278.676 2336.54C-324.505 2322.49 -352.295 2294.75 -367.349 2261.64Z" stroke="#06D6A0"/>
<path d="M-78.0918 2236.11C-79.9882 2231.94 -80.0068 2228.35 -78.6046 2225.11C-77.1911 2221.84 -74.3078 2218.86 -70.2787 2215.99C-62.2082 2210.24 -49.7815 2205.08 -36.1483 2198.88C-22.5384 2192.7 -11.6519 2188.43 -3.21551 2187.82C0.987397 2187.52 4.54444 2188.12 7.51658 2189.82C10.4865 2191.51 12.9249 2194.33 14.8392 2198.54C18.6573 2206.94 17.8523 2215.32 12.7408 2223.15C7.61277 2231.01 -1.8653 2238.33 -15.4171 2244.49C-28.942 2250.64 -42.7353 2252.74 -54.0899 2251.19C-65.452 2249.64 -74.2955 2244.46 -78.0918 2236.11Z" stroke="#06D6A1"/>
<path d="M-203.69 2300.45C-205.674 2296.5 -205.724 2291.55 -203.269 2285.42C-183.392 2235.75 -140.121 2186.8 -77.2254 2158.21C-45.7823 2143.91 -10.4568 2136.31 19.8615 2135.49C35.0202 2135.08 48.9117 2136.37 60.4312 2139.36C71.9585 2142.35 81.0656 2147.03 86.7114 2153.37C92.2638 2159.6 92.4554 2169.02 88.4526 2180.25C84.4562 2191.47 76.323 2204.36 65.4834 2217.37C43.8054 2243.38 11.3996 2269.75 -20.0271 2284.04C-51.4726 2298.33 -102.374 2310.95 -142.913 2313.78C-163.196 2315.19 -180.806 2314.14 -192.081 2309.69C-197.712 2307.46 -201.699 2304.41 -203.69 2300.45Z" stroke="#06D6A1"/>
<path d="M-3.75551 1925.88C-17.926 1911.58 -21.6787 1890.09 -13.6445 1866.08C-5.58918 1842.01 4.63627 1826.93 21.3334 1816.63C38.0656 1806.32 61.3492 1800.79 95.6185 1795.97C129.805 1791.16 154.41 1796.3 172.287 1806.49C190.166 1816.67 201.373 1831.94 208.703 1847.48C212.264 1855.03 209.783 1864.12 202.765 1873.76C195.757 1883.39 184.309 1893.45 170.232 1902.86C142.078 1921.67 103.535 1937.79 69.3498 1942.6C35.168 1947.41 10.429 1940.19 -3.75551 1925.88Z" stroke="#06D6A1"/>
<path d="M-8.23266 1938.16C-23.7047 1921.52 -27.9792 1896.69 -19.5484 1869.09C-11.0991 1841.43 -0.211156 1824.16 17.7119 1812.47C35.6678 1800.77 60.7431 1794.64 97.681 1789.44C134.529 1784.26 161.144 1790.43 180.554 1802.35C199.969 1814.28 212.233 1831.99 220.312 1849.98C224.259 1858.77 221.649 1869.25 214.172 1880.28C206.704 1891.3 194.447 1902.77 179.349 1913.46C149.155 1934.84 107.718 1953.01 70.8706 1958.19C34.0315 1963.37 7.24356 1954.81 -8.23266 1938.16Z" stroke="#06D6A1"/>
<path d="M31.3006 1885.1C25.2084 1878.95 23.5689 1869.69 27.0514 1859.28C30.5549 1848.81 34.986 1842.29 42.1997 1837.85C49.4486 1833.38 59.559 1830.97 74.5176 1828.87C89.3935 1826.77 100.068 1829.01 107.806 1833.42C115.546 1837.83 120.403 1844.44 123.586 1851.19C125.074 1854.35 124.065 1858.2 121.021 1862.38C117.99 1866.54 113.023 1870.91 106.892 1875.01C94.6328 1883.2 77.8472 1890.22 62.9732 1892.32C48.1021 1894.41 37.4069 1891.26 31.3006 1885.1Z" stroke="#06D6A1"/>
<line x1="165.676" y1="1736.08" x2="-566.808" y2="2069.05" stroke="white" stroke-opacity="0.26"/>
<line x1="363.392" y1="2171.03" x2="-369.092" y2="2504" stroke="white" stroke-opacity="0.26"/>
<line x1="219.211" y1="1842.95" x2="-513.273" y2="2175.92" stroke="white" stroke-opacity="0.26"/>
<line x1="264.534" y1="1953.56" x2="-467.95" y2="2286.53" stroke="white" stroke-opacity="0.26"/>
<line x1="313.963" y1="2062.29" x2="-418.521" y2="2395.26" stroke="white" stroke-opacity="0.26"/>
<line x1="72.1" y1="2355.38" x2="-165.16" y2="1833.44" stroke="white" stroke-opacity="0.18"/>
<line x1="182.958" y1="2304.98" x2="-54.3013" y2="1783.05" stroke="white" stroke-opacity="0.18"/>
<line x1="293.816" y1="2254.59" x2="56.5567" y2="1732.65" stroke="white" stroke-opacity="0.18"/>
<g opacity="0.21">
<path d="M1017.22 118.769C1017.22 121.842 1014.73 124.334 1011.65 124.334C1008.58 124.334 1006.09 121.842 1006.09 118.769C1006.09 115.695 1008.58 113.204 1011.65 113.204C1014.73 113.204 1017.22 115.695 1017.22 118.769Z" fill="#D9D9D9"/>
<path d="M856.403 146.644C856.403 149.717 853.912 152.209 850.839 152.209C847.765 152.209 845.274 149.717 845.274 146.644C845.274 143.57 847.765 141.079 850.839 141.079C853.912 141.079 856.403 143.57 856.403 146.644Z" fill="#D9D9D9"/>
<path d="M358.513 113.203C358.513 116.277 356.021 118.768 352.948 118.768C349.875 118.768 347.383 116.277 347.383 113.203C347.383 110.13 349.875 107.639 352.948 107.639C356.021 107.639 358.513 110.13 358.513 113.203Z" fill="#D9D9D9"/>
<path d="M1342.14 135.514C1342.14 138.588 1339.65 141.079 1336.57 141.079C1333.5 141.079 1331.01 138.588 1331.01 135.514C1331.01 132.441 1333.5 129.95 1336.57 129.95C1339.65 129.95 1342.14 132.441 1342.14 135.514Z" fill="#D9D9D9"/>
<path d="M43.4906 176.303C43.4906 179.377 40.9992 181.868 37.9258 181.868C34.8524 181.868 32.361 179.377 32.361 176.303C32.361 173.23 34.8524 170.739 37.9258 170.739C40.9992 170.739 43.4906 173.23 43.4906 176.303Z" fill="#D9D9D9"/>
<path d="M479.736 212.559C479.736 215.633 477.244 218.124 474.171 218.124C471.098 218.124 468.606 215.633 468.606 212.559C468.606 209.486 471.098 206.995 474.171 206.995C477.244 206.995 479.736 209.486 479.736 212.559Z" fill="#D9D9D9"/>
<path d="M905.883 374.397C905.883 377.47 903.391 379.961 900.318 379.961C897.244 379.961 894.753 377.47 894.753 374.397C894.753 371.323 897.244 368.832 900.318 368.832C903.391 368.832 905.883 371.323 905.883 374.397Z" fill="#D9D9D9"/>
<path d="M649.939 285.749C649.939 288.822 647.447 291.314 644.374 291.314C641.3 291.314 638.809 288.822 638.809 285.749C638.809 282.675 641.3 280.184 644.374 280.184C647.447 280.184 649.939 282.675 649.939 285.749Z" fill="#D9D9D9"/>
<path d="M741.86 363.267C741.86 366.34 739.369 368.832 736.295 368.832C733.222 368.832 730.73 366.34 730.73 363.267C730.73 360.194 733.222 357.702 736.295 357.702C739.369 357.702 741.86 360.194 741.86 363.267Z" fill="#D9D9D9"/>
<path d="M1447.2 314.597C1447.2 317.67 1444.71 320.162 1441.64 320.162C1438.57 320.162 1436.07 317.67 1436.07 314.597C1436.07 311.523 1438.57 309.032 1441.64 309.032C1444.71 309.032 1447.2 311.523 1447.2 314.597Z" fill="#D9D9D9"/>
<path d="M358.513 322.101C358.513 325.174 356.021 327.666 352.948 327.666C349.875 327.666 347.383 325.174 347.383 322.101C347.383 319.027 349.875 316.536 352.948 316.536C356.021 316.536 358.513 319.027 358.513 322.101Z" fill="#D9D9D9"/>
<path d="M43.4906 407.233C43.4906 410.307 40.9992 412.798 37.9258 412.798C34.8524 412.798 32.361 410.307 32.361 407.233C32.361 404.16 34.8524 401.669 37.9258 401.669C40.9992 401.669 43.4906 404.16 43.4906 407.233Z" fill="#D9D9D9"/>
<path d="M884.196 229.632C884.196 231.232 882.899 232.53 881.299 232.53C879.699 232.53 878.402 231.232 878.402 229.632C878.402 228.032 879.699 226.735 881.299 226.735C882.899 226.735 884.196 228.032 884.196 229.632Z" fill="#D9D9D9"/>
<path d="M1131.63 113.203C1131.63 114.804 1130.34 116.101 1128.74 116.101C1127.14 116.101 1125.84 114.804 1125.84 113.203C1125.84 111.603 1127.14 110.306 1128.74 110.306C1130.34 110.306 1131.63 111.603 1131.63 113.203Z" fill="#D9D9D9"/>
<path d="M633.994 163.203C633.994 164.803 632.697 166.101 631.097 166.101C629.497 166.101 628.199 164.803 628.199 163.203C628.199 161.603 629.497 160.306 631.097 160.306C632.697 160.306 633.994 161.603 633.994 163.203Z" fill="#D9D9D9"/>
<path d="M746.167 211.334C746.167 212.934 744.87 214.232 743.27 214.232C741.67 214.232 740.373 212.934 740.373 211.334C740.373 209.734 741.67 208.437 743.27 208.437C744.87 208.437 746.167 209.734 746.167 211.334Z" fill="#D9D9D9"/>
<path d="M937.897 127.231C937.897 128.831 936.599 130.128 934.999 130.128C933.399 130.128 932.102 128.831 932.102 127.231C932.102 125.63 933.399 124.333 934.999 124.333C936.599 124.333 937.897 125.63 937.897 127.231Z" fill="#D9D9D9"/>
<path d="M975.37 297.385C975.37 298.985 974.072 300.282 972.472 300.282C970.872 300.282 969.575 298.985 969.575 297.385C969.575 295.785 970.872 294.487 972.472 294.487C974.072 294.487 975.37 295.785 975.37 297.385Z" fill="#D9D9D9"/>
<path d="M471.504 127.231C471.504 128.831 470.206 130.128 468.606 130.128C467.006 130.128 465.709 128.831 465.709 127.231C465.709 125.63 467.006 124.333 468.606 124.333C470.206 124.333 471.504 125.63 471.504 127.231Z" fill="#D9D9D9"/>
<path d="M318.136 208.437C318.136 210.037 316.839 211.334 315.239 211.334C313.639 211.334 312.342 210.037 312.342 208.437C312.342 206.836 313.639 205.539 315.239 205.539C316.839 205.539 318.136 206.836 318.136 208.437Z" fill="#D9D9D9"/>
<path d="M512.039 277.287C512.039 278.887 510.742 280.184 509.142 280.184C507.542 280.184 506.245 278.887 506.245 277.287C506.245 275.687 507.542 274.39 509.142 274.39C510.742 274.39 512.039 275.687 512.039 277.287Z" fill="#D9D9D9"/>
<path d="M228.695 127.231C228.695 128.831 227.398 130.128 225.798 130.128C224.198 130.128 222.901 128.831 222.901 127.231C222.901 125.63 224.198 124.333 225.798 124.333C227.398 124.333 228.695 125.63 228.695 127.231Z" fill="#D9D9D9"/>
<path d="M1397.96 196.564C1397.96 198.165 1396.66 199.462 1395.06 199.462C1393.46 199.462 1392.17 198.165 1392.17 196.564C1392.17 194.964 1393.46 193.667 1395.06 193.667C1396.66 193.667 1397.96 194.964 1397.96 196.564Z" fill="#D9D9D9"/>
<path d="M1057.78 368.829C1057.78 370.43 1056.48 371.727 1054.88 371.727C1053.28 371.727 1051.98 370.43 1051.98 368.829C1051.98 367.229 1053.28 365.932 1054.88 365.932C1056.48 365.932 1057.78 367.229 1057.78 368.829Z" fill="#D9D9D9"/>
<path d="M1121.05 442.034C1121.05 445.107 1123.54 447.599 1126.62 447.599C1129.69 447.599 1132.18 445.107 1132.18 442.034C1132.18 438.961 1129.69 436.469 1126.62 436.469C1123.54 436.469 1121.05 438.961 1121.05 442.034Z" fill="#D9D9D9" fill-opacity="0.79"/>
<path d="M137.427 464.345C137.427 467.418 139.919 469.91 142.992 469.91C146.065 469.91 148.557 467.418 148.557 464.345C148.557 461.271 146.065 458.78 142.992 458.78C139.919 458.78 137.427 461.271 137.427 464.345Z" fill="#D9D9D9" fill-opacity="0.79"/>
<path d="M1436.07 505.134C1436.07 508.207 1438.57 510.699 1441.64 510.699C1444.71 510.699 1447.2 508.207 1447.2 505.134C1447.2 502.061 1444.71 499.569 1441.64 499.569C1438.57 499.569 1436.07 502.061 1436.07 505.134Z" fill="#D9D9D9" fill-opacity="0.79"/>
<path d="M999.829 541.39C999.829 544.463 1002.32 546.955 1005.39 546.955C1008.47 546.955 1010.96 544.463 1010.96 541.39C1010.96 538.316 1008.47 535.825 1005.39 535.825C1002.32 535.825 999.829 538.316 999.829 541.39Z" fill="#D9D9D9" fill-opacity="0.79"/>
<path d="M677.47 666.413C677.47 669.487 679.962 671.978 683.035 671.978C686.109 671.978 688.6 669.487 688.6 666.413C688.6 663.34 686.109 660.848 683.035 660.848C679.962 660.848 677.47 663.34 677.47 666.413Z" fill="#D9D9D9" fill-opacity="0.79"/>
<path d="M829.627 614.579C829.627 617.653 832.118 620.144 835.191 620.144C838.265 620.144 840.756 617.653 840.756 614.579C840.756 611.506 838.265 609.014 835.191 609.014C832.118 609.014 829.627 611.506 829.627 614.579Z" fill="#D9D9D9" fill-opacity="0.79"/>
<path d="M32.361 643.427C32.361 646.501 34.8524 648.992 37.9258 648.992C40.9992 648.992 43.4906 646.501 43.4906 643.427C43.4906 640.354 40.9992 637.862 37.9258 637.862C34.8524 637.862 32.361 640.354 32.361 643.427Z" fill="#D9D9D9" fill-opacity="0.79"/>
<path d="M1121.05 650.931C1121.05 654.005 1123.54 656.496 1126.62 656.496C1129.69 656.496 1132.18 654.005 1132.18 650.931C1132.18 647.858 1129.69 645.366 1126.62 645.366C1123.54 645.366 1121.05 647.858 1121.05 650.931Z" fill="#D9D9D9" fill-opacity="0.79"/>
<path d="M1436.07 736.064C1436.07 739.137 1438.57 741.629 1441.64 741.629C1444.71 741.629 1447.2 739.137 1447.2 736.064C1447.2 732.99 1444.71 730.499 1441.64 730.499C1438.57 730.499 1436.07 732.99 1436.07 736.064Z" fill="#D9D9D9" fill-opacity="0.79"/>
<path d="M595.369 558.463C595.369 560.063 596.666 561.36 598.266 561.36C599.866 561.36 601.163 560.063 601.163 558.463C601.163 556.863 599.866 555.565 598.266 555.565C596.666 555.565 595.369 556.863 595.369 558.463Z" fill="#D9D9D9" fill-opacity="0.79"/>
<path d="M347.931 442.034C347.931 443.634 349.228 444.931 350.828 444.931C352.429 444.931 353.726 443.634 353.726 442.034C353.726 440.434 352.429 439.137 350.828 439.137C349.228 439.137 347.931 440.434 347.931 442.034Z" fill="#D9D9D9" fill-opacity="0.79"/>
<path d="M845.571 492.034C845.571 493.634 846.868 494.931 848.469 494.931C850.069 494.931 851.366 493.634 851.366 492.034C851.366 490.433 850.069 489.136 848.469 489.136C846.868 489.136 845.571 490.433 845.571 492.034Z" fill="#D9D9D9" fill-opacity="0.79"/>
<path d="M733.398 540.165C733.398 541.765 734.695 543.062 736.295 543.062C737.895 543.062 739.193 541.765 739.193 540.165C739.193 538.564 737.895 537.267 736.295 537.267C734.695 537.267 733.398 538.564 733.398 540.165Z" fill="#D9D9D9" fill-opacity="0.79"/>
<path d="M541.669 456.061C541.669 457.661 542.966 458.958 544.566 458.958C546.166 458.958 547.463 457.661 547.463 456.061C547.463 454.461 546.166 453.164 544.566 453.164C542.966 453.164 541.669 454.461 541.669 456.061Z" fill="#D9D9D9" fill-opacity="0.79"/>
<path d="M504.196 626.215C504.196 627.815 505.493 629.112 507.093 629.112C508.693 629.112 509.99 627.815 509.99 626.215C509.99 624.615 508.693 623.318 507.093 623.318C505.493 623.318 504.196 624.615 504.196 626.215Z" fill="#D9D9D9" fill-opacity="0.79"/>
<path d="M1008.06 456.061C1008.06 457.661 1009.36 458.958 1010.96 458.958C1012.56 458.958 1013.86 457.661 1013.86 456.061C1013.86 454.461 1012.56 453.164 1010.96 453.164C1009.36 453.164 1008.06 454.461 1008.06 456.061Z" fill="#D9D9D9" fill-opacity="0.79"/>
<path d="M1161.43 537.267C1161.43 538.867 1162.73 540.164 1164.33 540.164C1165.93 540.164 1167.22 538.867 1167.22 537.267C1167.22 535.667 1165.93 534.37 1164.33 534.37C1162.73 534.37 1161.43 535.667 1161.43 537.267Z" fill="#D9D9D9" fill-opacity="0.79"/>
<path d="M967.526 606.117C967.526 607.717 968.823 609.015 970.423 609.015C972.024 609.015 973.321 607.717 973.321 606.117C973.321 604.517 972.024 603.22 970.423 603.22C968.823 603.22 967.526 604.517 967.526 606.117Z" fill="#D9D9D9" fill-opacity="0.79"/>
<path d="M1304.19 569.808C1304.19 571.408 1305.48 572.705 1307.08 572.705C1308.68 572.705 1309.98 571.408 1309.98 569.808C1309.98 568.208 1308.68 566.911 1307.08 566.911C1305.48 566.911 1304.19 568.208 1304.19 569.808Z" fill="#D9D9D9" fill-opacity="0.79"/>
<path d="M81.6056 525.395C81.6056 526.995 82.9028 528.292 84.503 528.292C86.1031 528.292 87.4003 526.995 87.4003 525.395C87.4003 523.795 86.1031 522.497 84.503 522.497C82.9028 522.497 81.6056 523.795 81.6056 525.395Z" fill="#D9D9D9" fill-opacity="0.79"/>
<path d="M427.268 540.165C427.268 541.765 428.566 543.062 430.166 543.062C431.766 543.062 433.063 541.765 433.063 540.165C433.063 538.564 431.766 537.267 430.166 537.267C428.566 537.267 427.268 538.564 427.268 540.165Z" fill="#D9D9D9" fill-opacity="0.79"/>
<path d="M356.393 643.427C356.393 646.501 353.902 648.992 350.828 648.992C347.755 648.992 345.264 646.501 345.264 643.427C345.264 640.354 347.755 637.862 350.828 637.862C353.902 637.862 356.393 640.354 356.393 643.427Z" fill="#D9D9D9" fill-opacity="0.79"/>
<path d="M1309.49 742.233C1309.49 745.306 1307 747.797 1303.93 747.797C1300.85 747.797 1298.36 745.306 1298.36 742.233C1298.36 739.159 1300.85 736.668 1303.93 736.668C1307 736.668 1309.49 739.159 1309.49 742.233Z" fill="#D9D9D9" fill-opacity="0.79"/>
<path d="M10.8447 783.022C10.8447 786.095 8.35328 788.586 5.27991 788.586C2.20655 788.586 -0.284912 786.095 -0.284912 783.022C-0.284912 779.948 2.20655 777.457 5.27991 777.457C8.35328 777.457 10.8447 779.948 10.8447 783.022Z" fill="#D9D9D9" fill-opacity="0.79"/>
<path d="M447.09 819.278C447.09 822.351 444.599 824.842 441.525 824.842C438.452 824.842 435.96 822.351 435.96 819.278C435.96 816.204 438.452 813.713 441.525 813.713C444.599 813.713 447.09 816.204 447.09 819.278Z" fill="#D9D9D9" fill-opacity="0.79"/>
<path d="M873.237 981.115C873.237 984.188 870.745 986.68 867.672 986.68C864.599 986.68 862.107 984.188 862.107 981.115C862.107 978.041 864.599 975.55 867.672 975.55C870.745 975.55 873.237 978.041 873.237 981.115Z" fill="#D9D9D9" fill-opacity="0.79"/>
<path d="M617.293 892.467C617.293 895.54 614.801 898.032 611.728 898.032C608.655 898.032 606.163 895.54 606.163 892.467C606.163 889.394 608.655 886.902 611.728 886.902C614.801 886.902 617.293 889.394 617.293 892.467Z" fill="#D9D9D9" fill-opacity="0.79"/>
<path d="M1414.56 921.315C1414.56 924.388 1412.07 926.88 1408.99 926.88C1405.92 926.88 1403.43 924.388 1403.43 921.315C1403.43 918.242 1405.92 915.75 1408.99 915.75C1412.07 915.75 1414.56 918.242 1414.56 921.315Z" fill="#D9D9D9" fill-opacity="0.79"/>
<path d="M325.867 928.819C325.867 931.892 323.375 934.384 320.302 934.384C317.229 934.384 314.737 931.892 314.737 928.819C314.737 925.746 317.229 923.254 320.302 923.254C323.375 923.254 325.867 925.746 325.867 928.819Z" fill="#D9D9D9" fill-opacity="0.79"/>
<path d="M10.8447 1013.95C10.8447 1017.02 8.35328 1019.52 5.27991 1019.52C2.20655 1019.52 -0.284912 1017.02 -0.284912 1013.95C-0.284912 1010.88 2.20655 1008.39 5.27991 1008.39C8.35328 1008.39 10.8447 1010.88 10.8447 1013.95Z" fill="#D9D9D9" fill-opacity="0.79"/>
<path d="M851.551 836.351C851.551 837.951 850.253 839.248 848.653 839.248C847.053 839.248 845.756 837.951 845.756 836.351C845.756 834.75 847.053 833.453 848.653 833.453C850.253 833.453 851.551 834.75 851.551 836.351Z" fill="#D9D9D9" fill-opacity="0.79"/>
<path d="M1098.99 719.922C1098.99 721.522 1097.69 722.819 1096.09 722.819C1094.49 722.819 1093.19 721.522 1093.19 719.922C1093.19 718.322 1094.49 717.024 1096.09 717.024C1097.69 717.024 1098.99 718.322 1098.99 719.922Z" fill="#D9D9D9" fill-opacity="0.79"/>
<path d="M601.348 769.921C601.348 771.522 600.051 772.819 598.451 772.819C596.851 772.819 595.554 771.522 595.554 769.921C595.554 768.321 596.851 767.024 598.451 767.024C600.051 767.024 601.348 768.321 601.348 769.921Z" fill="#D9D9D9" fill-opacity="0.79"/>
<path d="M713.522 818.052C713.522 819.653 712.224 820.95 710.624 820.95C709.024 820.95 707.727 819.653 707.727 818.052C707.727 816.452 709.024 815.155 710.624 815.155C712.224 815.155 713.522 816.452 713.522 818.052Z" fill="#D9D9D9" fill-opacity="0.79"/>
<path d="M905.251 733.949C905.251 735.549 903.954 736.846 902.353 736.846C900.753 736.846 899.456 735.549 899.456 733.949C899.456 732.349 900.753 731.051 902.353 731.051C903.954 731.051 905.251 732.349 905.251 733.949Z" fill="#D9D9D9" fill-opacity="0.79"/>
<path d="M942.724 904.103C942.724 905.703 941.427 907 939.826 907C938.226 907 936.929 905.703 936.929 904.103C936.929 902.503 938.226 901.206 939.826 901.206C941.427 901.206 942.724 902.503 942.724 904.103Z" fill="#D9D9D9" fill-opacity="0.79"/>
<path d="M438.858 733.949C438.858 735.549 437.56 736.846 435.96 736.846C434.36 736.846 433.063 735.549 433.063 733.949C433.063 732.349 434.36 731.051 435.96 731.051C437.56 731.051 438.858 732.349 438.858 733.949Z" fill="#D9D9D9" fill-opacity="0.79"/>
<path d="M285.49 815.155C285.49 816.755 284.193 818.052 282.593 818.052C280.993 818.052 279.696 816.755 279.696 815.155C279.696 813.555 280.993 812.257 282.593 812.257C284.193 812.257 285.49 813.555 285.49 815.155Z" fill="#D9D9D9" fill-opacity="0.79"/>
<path d="M479.393 884.005C479.393 885.605 478.096 886.902 476.496 886.902C474.896 886.902 473.599 885.605 473.599 884.005C473.599 882.405 474.896 881.108 476.496 881.108C478.096 881.108 479.393 882.405 479.393 884.005Z" fill="#D9D9D9" fill-opacity="0.79"/>
<path d="M196.049 733.949C196.049 735.549 194.752 736.846 193.152 736.846C191.552 736.846 190.255 735.549 190.255 733.949C190.255 732.349 191.552 731.051 193.152 731.051C194.752 731.051 196.049 732.349 196.049 733.949Z" fill="#D9D9D9" fill-opacity="0.79"/>
<path d="M1365.31 803.283C1365.31 804.883 1364.02 806.18 1362.42 806.18C1360.82 806.18 1359.52 804.883 1359.52 803.283C1359.52 801.682 1360.82 800.385 1362.42 800.385C1364.02 800.385 1365.31 801.682 1365.31 803.283Z" fill="#D9D9D9" fill-opacity="0.79"/>
<path d="M1025.13 975.548C1025.13 977.148 1023.83 978.445 1022.23 978.445C1020.63 978.445 1019.34 977.148 1019.34 975.548C1019.34 973.947 1020.63 972.65 1022.23 972.65C1023.83 972.65 1025.13 973.947 1025.13 975.548Z" fill="#D9D9D9" fill-opacity="0.79"/>
<path d="M1121.05 1653.26C1121.05 1650.19 1123.54 1647.7 1126.62 1647.7C1129.69 1647.7 1132.18 1650.19 1132.18 1653.26C1132.18 1656.34 1129.69 1658.83 1126.62 1658.83C1123.54 1658.83 1121.05 1656.34 1121.05 1653.26Z" fill="#D9D9D9" fill-opacity="0.37"/>
<path d="M137.427 1630.95C137.427 1627.88 139.919 1625.39 142.992 1625.39C146.065 1625.39 148.557 1627.88 148.557 1630.95C148.557 1634.03 146.065 1636.52 142.992 1636.52C139.919 1636.52 137.427 1634.03 137.427 1630.95Z" fill="#D9D9D9" fill-opacity="0.37"/>
<path d="M1436.07 1590.16C1436.07 1587.09 1438.57 1584.6 1441.64 1584.6C1444.71 1584.6 1447.2 1587.09 1447.2 1590.16C1447.2 1593.24 1444.71 1595.73 1441.64 1595.73C1438.57 1595.73 1436.07 1593.24 1436.07 1590.16Z" fill="#D9D9D9" fill-opacity="0.37"/>
<path d="M999.829 1553.91C999.829 1550.84 1002.32 1548.34 1005.39 1548.34C1008.47 1548.34 1010.96 1550.84 1010.96 1553.91C1010.96 1556.98 1008.47 1559.47 1005.39 1559.47C1002.32 1559.47 999.829 1556.98 999.829 1553.91Z" fill="#D9D9D9" fill-opacity="0.37"/>
<path d="M677.47 1428.89C677.47 1425.81 679.962 1423.32 683.035 1423.32C686.109 1423.32 688.6 1425.81 688.6 1428.89C688.6 1431.96 686.109 1434.45 683.035 1434.45C679.962 1434.45 677.47 1431.96 677.47 1428.89Z" fill="#D9D9D9" fill-opacity="0.37"/>
<path d="M829.627 1480.72C829.627 1477.65 832.118 1475.15 835.191 1475.15C838.265 1475.15 840.756 1477.65 840.756 1480.72C840.756 1483.79 838.265 1486.28 835.191 1486.28C832.118 1486.28 829.627 1483.79 829.627 1480.72Z" fill="#D9D9D9" fill-opacity="0.37"/>
<path d="M32.361 1451.87C32.361 1448.8 34.8524 1446.31 37.9258 1446.31C40.9992 1446.31 43.4906 1448.8 43.4906 1451.87C43.4906 1454.94 40.9992 1457.44 37.9258 1457.44C34.8524 1457.44 32.361 1454.94 32.361 1451.87Z" fill="#D9D9D9" fill-opacity="0.37"/>
<path d="M1121.05 1444.37C1121.05 1441.29 1123.54 1438.8 1126.62 1438.8C1129.69 1438.8 1132.18 1441.29 1132.18 1444.37C1132.18 1447.44 1129.69 1449.93 1126.62 1449.93C1123.54 1449.93 1121.05 1447.44 1121.05 1444.37Z" fill="#D9D9D9" fill-opacity="0.37"/>
<path d="M1436.07 1359.23C1436.07 1356.16 1438.57 1353.67 1441.64 1353.67C1444.71 1353.67 1447.2 1356.16 1447.2 1359.23C1447.2 1362.31 1444.71 1364.8 1441.64 1364.8C1438.57 1364.8 1436.07 1362.31 1436.07 1359.23Z" fill="#D9D9D9" fill-opacity="0.37"/>
<path d="M595.369 1536.84C595.369 1535.24 596.666 1533.94 598.266 1533.94C599.866 1533.94 601.163 1535.24 601.163 1536.84C601.163 1538.44 599.866 1539.73 598.266 1539.73C596.666 1539.73 595.369 1538.44 595.369 1536.84Z" fill="#D9D9D9" fill-opacity="0.37"/>
<path d="M347.931 1653.26C347.931 1651.66 349.228 1650.37 350.828 1650.37C352.429 1650.37 353.726 1651.66 353.726 1653.26C353.726 1654.86 352.429 1656.16 350.828 1656.16C349.228 1656.16 347.931 1654.86 347.931 1653.26Z" fill="#D9D9D9" fill-opacity="0.37"/>
<path d="M845.571 1603.26C845.571 1601.66 846.868 1600.37 848.469 1600.37C850.069 1600.37 851.366 1601.66 851.366 1603.26C851.366 1604.86 850.069 1606.16 848.469 1606.16C846.868 1606.16 845.571 1604.86 845.571 1603.26Z" fill="#D9D9D9" fill-opacity="0.37"/>
<path d="M733.398 1555.13C733.398 1553.53 734.695 1552.24 736.295 1552.24C737.895 1552.24 739.193 1553.53 739.193 1555.13C739.193 1556.73 737.895 1558.03 736.295 1558.03C734.695 1558.03 733.398 1556.73 733.398 1555.13Z" fill="#D9D9D9" fill-opacity="0.37"/>
<path d="M541.669 1639.24C541.669 1637.64 542.966 1636.34 544.566 1636.34C546.166 1636.34 547.463 1637.64 547.463 1639.24C547.463 1640.84 546.166 1642.13 544.566 1642.13C542.966 1642.13 541.669 1640.84 541.669 1639.24Z" fill="#D9D9D9" fill-opacity="0.37"/>
<path d="M504.196 1469.08C504.196 1467.48 505.493 1466.19 507.093 1466.19C508.693 1466.19 509.99 1467.48 509.99 1469.08C509.99 1470.68 508.693 1471.98 507.093 1471.98C505.493 1471.98 504.196 1470.68 504.196 1469.08Z" fill="#D9D9D9" fill-opacity="0.37"/>
<path d="M1008.06 1639.24C1008.06 1637.64 1009.36 1636.34 1010.96 1636.34C1012.56 1636.34 1013.86 1637.64 1013.86 1639.24C1013.86 1640.84 1012.56 1642.13 1010.96 1642.13C1009.36 1642.13 1008.06 1640.84 1008.06 1639.24Z" fill="#D9D9D9" fill-opacity="0.37"/>
<path d="M1161.43 1558.03C1161.43 1556.43 1162.73 1555.13 1164.33 1555.13C1165.93 1555.13 1167.22 1556.43 1167.22 1558.03C1167.22 1559.63 1165.93 1560.93 1164.33 1560.93C1162.73 1560.93 1161.43 1559.63 1161.43 1558.03Z" fill="#D9D9D9" fill-opacity="0.37"/>
<path d="M967.526 1489.18C967.526 1487.58 968.823 1486.28 970.423 1486.28C972.024 1486.28 973.321 1487.58 973.321 1489.18C973.321 1490.78 972.024 1492.08 970.423 1492.08C968.823 1492.08 967.526 1490.78 967.526 1489.18Z" fill="#D9D9D9" fill-opacity="0.37"/>
<path d="M1304.19 1525.49C1304.19 1523.89 1305.48 1522.59 1307.08 1522.59C1308.68 1522.59 1309.98 1523.89 1309.98 1525.49C1309.98 1527.09 1308.68 1528.39 1307.08 1528.39C1305.48 1528.39 1304.19 1527.09 1304.19 1525.49Z" fill="#D9D9D9" fill-opacity="0.37"/>
<path d="M81.6056 1569.9C81.6056 1568.3 82.9028 1567.01 84.503 1567.01C86.1031 1567.01 87.4003 1568.3 87.4003 1569.9C87.4003 1571.5 86.1031 1572.8 84.503 1572.8C82.9028 1572.8 81.6056 1571.5 81.6056 1569.9Z" fill="#D9D9D9" fill-opacity="0.37"/>
<path d="M427.268 1555.13C427.268 1553.53 428.566 1552.24 430.166 1552.24C431.766 1552.24 433.063 1553.53 433.063 1555.13C433.063 1556.73 431.766 1558.03 430.166 1558.03C428.566 1558.03 427.268 1556.73 427.268 1555.13Z" fill="#D9D9D9" fill-opacity="0.37"/>
<path d="M356.393 1451.87C356.393 1448.8 353.902 1446.31 350.828 1446.31C347.755 1446.31 345.264 1448.8 345.264 1451.87C345.264 1454.94 347.755 1457.44 350.828 1457.44C353.902 1457.44 356.393 1454.94 356.393 1451.87Z" fill="#D9D9D9" fill-opacity="0.37"/>
<path d="M1309.49 1353.07C1309.49 1349.99 1307 1347.5 1303.93 1347.5C1300.85 1347.5 1298.36 1349.99 1298.36 1353.07C1298.36 1356.14 1300.85 1358.63 1303.93 1358.63C1307 1358.63 1309.49 1356.14 1309.49 1353.07Z" fill="#D9D9D9" fill-opacity="0.37"/>
<path d="M10.8447 1312.28C10.8447 1309.2 8.35329 1306.71 5.27992 1306.71C2.20655 1306.71 -0.284906 1309.2 -0.284906 1312.28C-0.284906 1315.35 2.20655 1317.84 5.27992 1317.84C8.35329 1317.84 10.8447 1315.35 10.8447 1312.28Z" fill="#D9D9D9" fill-opacity="0.37"/>
<path d="M447.09 1276.02C447.09 1272.95 444.599 1270.46 441.525 1270.46C438.452 1270.46 435.96 1272.95 435.96 1276.02C435.96 1279.09 438.452 1281.59 441.525 1281.59C444.599 1281.59 447.09 1279.09 447.09 1276.02Z" fill="#D9D9D9" fill-opacity="0.37"/>
<path d="M873.237 1114.18C873.237 1111.11 870.745 1108.62 867.672 1108.62C864.599 1108.62 862.107 1111.11 862.107 1114.18C862.107 1117.26 864.599 1119.75 867.672 1119.75C870.745 1119.75 873.237 1117.26 873.237 1114.18Z" fill="#D9D9D9" fill-opacity="0.37"/>
<path d="M617.293 1202.83C617.293 1199.76 614.801 1197.27 611.728 1197.27C608.655 1197.27 606.163 1199.76 606.163 1202.83C606.163 1205.9 608.655 1208.4 611.728 1208.4C614.801 1208.4 617.293 1205.9 617.293 1202.83Z" fill="#D9D9D9" fill-opacity="0.37"/>
<path d="M1414.56 1173.98C1414.56 1170.91 1412.07 1168.42 1408.99 1168.42C1405.92 1168.42 1403.43 1170.91 1403.43 1173.98C1403.43 1177.06 1405.92 1179.55 1408.99 1179.55C1412.07 1179.55 1414.56 1177.06 1414.56 1173.98Z" fill="#D9D9D9" fill-opacity="0.37"/>
<path d="M325.867 1166.48C325.867 1163.41 323.375 1160.91 320.302 1160.91C317.229 1160.91 314.737 1163.41 314.737 1166.48C314.737 1169.55 317.229 1172.04 320.302 1172.04C323.375 1172.04 325.867 1169.55 325.867 1166.48Z" fill="#D9D9D9" fill-opacity="0.37"/>
<path d="M10.8447 1081.35C10.8447 1078.27 8.35329 1075.78 5.27992 1075.78C2.20655 1075.78 -0.284906 1078.27 -0.284906 1081.35C-0.284906 1084.42 2.20655 1086.91 5.27992 1086.91C8.35329 1086.91 10.8447 1084.42 10.8447 1081.35Z" fill="#D9D9D9" fill-opacity="0.37"/>
<path d="M851.551 1258.95C851.551 1257.35 850.253 1256.05 848.653 1256.05C847.053 1256.05 845.756 1257.35 845.756 1258.95C845.756 1260.55 847.053 1261.85 848.653 1261.85C850.253 1261.85 851.551 1260.55 851.551 1258.95Z" fill="#D9D9D9" fill-opacity="0.37"/>
<path d="M1098.99 1375.38C1098.99 1373.78 1097.69 1372.48 1096.09 1372.48C1094.49 1372.48 1093.19 1373.78 1093.19 1375.38C1093.19 1376.98 1094.49 1378.27 1096.09 1378.27C1097.69 1378.27 1098.99 1376.98 1098.99 1375.38Z" fill="#D9D9D9" fill-opacity="0.37"/>
<path d="M601.348 1325.38C601.348 1323.78 600.051 1322.48 598.451 1322.48C596.851 1322.48 595.554 1323.78 595.554 1325.38C595.554 1326.98 596.851 1328.27 598.451 1328.27C600.051 1328.27 601.348 1326.98 601.348 1325.38Z" fill="#D9D9D9" fill-opacity="0.37"/>
<path d="M713.522 1277.25C713.522 1275.65 712.224 1274.35 710.624 1274.35C709.024 1274.35 707.727 1275.65 707.727 1277.25C707.727 1278.85 709.024 1280.14 710.624 1280.14C712.224 1280.14 713.522 1278.85 713.522 1277.25Z" fill="#D9D9D9" fill-opacity="0.37"/>
<path d="M905.251 1361.35C905.251 1359.75 903.954 1358.45 902.353 1358.45C900.753 1358.45 899.456 1359.75 899.456 1361.35C899.456 1362.95 900.753 1364.25 902.353 1364.25C903.954 1364.25 905.251 1362.95 905.251 1361.35Z" fill="#D9D9D9" fill-opacity="0.37"/>
<path d="M942.724 1191.2C942.724 1189.6 941.427 1188.3 939.826 1188.3C938.226 1188.3 936.929 1189.6 936.929 1191.2C936.929 1192.8 938.226 1194.09 939.826 1194.09C941.427 1194.09 942.724 1192.8 942.724 1191.2Z" fill="#D9D9D9" fill-opacity="0.37"/>
<path d="M438.858 1361.35C438.858 1359.75 437.56 1358.45 435.96 1358.45C434.36 1358.45 433.063 1359.75 433.063 1361.35C433.063 1362.95 434.36 1364.25 435.96 1364.25C437.56 1364.25 438.858 1362.95 438.858 1361.35Z" fill="#D9D9D9" fill-opacity="0.37"/>
<path d="M285.49 1280.14C285.49 1278.54 284.193 1277.25 282.593 1277.25C280.993 1277.25 279.696 1278.54 279.696 1280.14C279.696 1281.74 280.993 1283.04 282.593 1283.04C284.193 1283.04 285.49 1281.74 285.49 1280.14Z" fill="#D9D9D9" fill-opacity="0.37"/>
<path d="M479.393 1211.29C479.393 1209.69 478.096 1208.4 476.496 1208.4C474.896 1208.4 473.599 1209.69 473.599 1211.29C473.599 1212.89 474.896 1214.19 476.496 1214.19C478.096 1214.19 479.393 1212.89 479.393 1211.29Z" fill="#D9D9D9" fill-opacity="0.37"/>
<path d="M196.049 1361.35C196.049 1359.75 194.752 1358.45 193.152 1358.45C191.552 1358.45 190.255 1359.75 190.255 1361.35C190.255 1362.95 191.552 1364.25 193.152 1364.25C194.752 1364.25 196.049 1362.95 196.049 1361.35Z" fill="#D9D9D9" fill-opacity="0.37"/>
<path d="M1365.31 1292.02C1365.31 1290.42 1364.02 1289.12 1362.42 1289.12C1360.82 1289.12 1359.52 1290.42 1359.52 1292.02C1359.52 1293.62 1360.82 1294.91 1362.42 1294.91C1364.02 1294.91 1365.31 1293.62 1365.31 1292.02Z" fill="#D9D9D9" fill-opacity="0.37"/>
<path d="M1025.13 1119.75C1025.13 1118.15 1023.83 1116.85 1022.23 1116.85C1020.63 1116.85 1019.34 1118.15 1019.34 1119.75C1019.34 1121.35 1020.63 1122.65 1022.23 1122.65C1023.83 1122.65 1025.13 1121.35 1025.13 1119.75Z" fill="#D9D9D9" fill-opacity="0.37"/>
<path d="M584.242 368.961C584.242 372.034 581.751 374.525 578.678 374.525C575.604 374.525 573.113 372.034 573.113 368.961C573.113 365.887 575.604 363.396 578.678 363.396C581.751 363.396 584.242 365.887 584.242 368.961Z" fill="#D9D9D9"/>
</g>
<mask id="path-53-outside-1_228_12" maskUnits="userSpaceOnUse" x="-248.07" y="2508.18" width="795" height="638" fill="black">
<rect fill="white" x="-248.07" y="2508.18" width="795" height="638"/>
<path d="M275.34 2521.39C276.168 2519.52 278.358 2518.67 280.231 2519.5C282.105 2520.32 282.953 2522.52 282.125 2524.39C281.416 2525.99 279.709 2526.84 278.057 2526.54L277.305 2528.24C280.561 2529.86 284.601 2533.06 284.601 2533.06L282.739 2537.27C283.839 2539.08 284.606 2541.08 284.997 2543.17L288.501 2544.72C288.495 2544.75 287.465 2550.79 285.983 2554.15C284.502 2557.5 280.913 2561.92 280.892 2561.94L277.993 2560.66C276.954 2561.41 275.839 2562.04 274.67 2562.55L280.069 2569.98L304.193 2583.47C304.434 2583.39 304.706 2583.41 304.942 2583.54L310.347 2586.54C310.721 2586.75 310.922 2587.18 310.834 2587.61C309.71 2592.98 308.02 2595.73 304.529 2599.78C304.24 2600.11 303.76 2600.2 303.37 2599.98L297.98 2596.99C297.612 2596.79 297.409 2596.36 297.488 2595.94C297.545 2595.64 297.604 2595.35 297.664 2595.07L276.209 2583.08L272.721 2591.4L270.86 2619.97L279.556 2620.54L279.109 2627.37L471.94 2609.91L472.896 2620.45L474.87 2616.41L476.931 2617.41L485.896 2597.46L483.356 2596.32L491.642 2577.89L494.182 2579.03L499.156 2567.96L507.831 2571.86L509.669 2567.78L514.625 2570L516.689 2565.41C514.968 2564.39 514.25 2562.22 515.089 2560.35C515.99 2558.35 518.346 2557.45 520.352 2558.36C522.357 2559.26 523.252 2561.61 522.351 2563.62C521.538 2565.42 519.546 2566.33 517.692 2565.83L515.616 2570.45L520.592 2572.69L518.754 2576.77L528.188 2581.01L523.165 2592.19L525.959 2593.44L517.674 2611.88L514.88 2610.62L505.55 2631.38L506.787 2631.98L500.032 2645.82C502.649 2640.83 504.323 2637.07 506.806 2631.98C506.858 2632 511.735 2634.57 514.109 2636.94C516.732 2639.57 519.85 2644.32 521.309 2650.21C522.767 2656.09 521.461 2664.7 515.44 2670.66C511.378 2674.69 506.307 2676.85 499.315 2677.34C494.519 2677.67 489.153 2677.41 486.109 2677.2C485.91 2677.77 485.696 2678.36 485.463 2678.97C485.306 2679.38 484.896 2679.64 484.462 2679.61L478.216 2679.2L513.781 3071.88L-175.767 3134.33L-217.608 2672.36L251.785 2629.85L254.15 2593.53L219.927 2597.78L219.959 2598.12L208.636 2599.2L206.063 2572.21L217.387 2571.13L218.217 2579.85L232.89 2578.12L237.207 2567.82L213.025 2566.24C212.876 2566.31 212.708 2566.35 212.532 2566.33L208.128 2565.92L207.688 2565.89V2565.88L206.395 2565.76C205.974 2565.72 205.618 2565.41 205.522 2565C204.322 2559.81 204.553 2556.58 206.39 2551.27C206.53 2550.86 206.926 2550.61 207.355 2550.65L213.51 2551.22C213.936 2551.26 214.296 2551.58 214.385 2552C214.494 2552.52 214.585 2553.01 214.665 2553.49L242.449 2555.3L242.483 2555.22L252.066 2554.45C251.096 2552.57 250.469 2550.51 250.225 2548.4L246.574 2546.78C246.574 2546.78 247.423 2541.13 248.909 2537.77C250.394 2534.41 254.179 2529.56 254.183 2529.56L258.358 2531.4L258.305 2531.52C260.621 2530.06 263.257 2529.16 265.991 2528.89L267.489 2525.5C267.489 2525.5 272.346 2526.29 275.732 2527.56L276.491 2525.84C275.152 2524.83 274.631 2522.99 275.34 2521.39ZM-185.555 3026.29L-216.615 3029.1L-237.07 2803.24L-206.01 2800.43L-185.555 3026.29ZM535.5 2960.98L504.439 2963.79L483.983 2737.94L515.044 2735.12L535.5 2960.98ZM492.507 2661.25C497.601 2661.12 502.932 2660.27 504.461 2657.32C506.925 2652.56 499.996 2647.33 499.482 2646.95L492.507 2661.25ZM120.812 2543.8C134.045 2542.6 145.745 2552.35 146.943 2565.59C147.969 2576.91 140.974 2587.11 130.645 2590.57L132.37 2609.63L187.61 2604.63L190.282 2634.13L68.7021 2645.15L66.0293 2615.64L121.313 2610.63L119.588 2591.58C108.784 2590.05 100.048 2581.27 99.0205 2569.93C97.822 2556.69 107.578 2544.99 120.812 2543.8Z"/>
</mask>
<path d="M275.34 2521.39C276.168 2519.52 278.358 2518.67 280.231 2519.5C282.105 2520.32 282.953 2522.52 282.125 2524.39C281.416 2525.99 279.709 2526.84 278.057 2526.54L277.305 2528.24C280.561 2529.86 284.601 2533.06 284.601 2533.06L282.739 2537.27C283.839 2539.08 284.606 2541.08 284.997 2543.17L288.501 2544.72C288.495 2544.75 287.465 2550.79 285.983 2554.15C284.502 2557.5 280.913 2561.92 280.892 2561.94L277.993 2560.66C276.954 2561.41 275.839 2562.04 274.67 2562.55L280.069 2569.98L304.193 2583.47C304.434 2583.39 304.706 2583.41 304.942 2583.54L310.347 2586.54C310.721 2586.75 310.922 2587.18 310.834 2587.61C309.71 2592.98 308.02 2595.73 304.529 2599.78C304.24 2600.11 303.76 2600.2 303.37 2599.98L297.98 2596.99C297.612 2596.79 297.409 2596.36 297.488 2595.94C297.545 2595.64 297.604 2595.35 297.664 2595.07L276.209 2583.08L272.721 2591.4L270.86 2619.97L279.556 2620.54L279.109 2627.37L471.94 2609.91L472.896 2620.45L474.87 2616.41L476.931 2617.41L485.896 2597.46L483.356 2596.32L491.642 2577.89L494.182 2579.03L499.156 2567.96L507.831 2571.86L509.669 2567.78L514.625 2570L516.689 2565.41C514.968 2564.39 514.25 2562.22 515.089 2560.35C515.99 2558.35 518.346 2557.45 520.352 2558.36C522.357 2559.26 523.252 2561.61 522.351 2563.62C521.538 2565.42 519.546 2566.33 517.692 2565.83L515.616 2570.45L520.592 2572.69L518.754 2576.77L528.188 2581.01L523.165 2592.19L525.959 2593.44L517.674 2611.88L514.88 2610.62L505.55 2631.38L506.787 2631.98L500.032 2645.82C502.649 2640.83 504.323 2637.07 506.806 2631.98C506.858 2632 511.735 2634.57 514.109 2636.94C516.732 2639.57 519.85 2644.32 521.309 2650.21C522.767 2656.09 521.461 2664.7 515.44 2670.66C511.378 2674.69 506.307 2676.85 499.315 2677.34C494.519 2677.67 489.153 2677.41 486.109 2677.2C485.91 2677.77 485.696 2678.36 485.463 2678.97C485.306 2679.38 484.896 2679.64 484.462 2679.61L478.216 2679.2L513.781 3071.88L-175.767 3134.33L-217.608 2672.36L251.785 2629.85L254.15 2593.53L219.927 2597.78L219.959 2598.12L208.636 2599.2L206.063 2572.21L217.387 2571.13L218.217 2579.85L232.89 2578.12L237.207 2567.82L213.025 2566.24C212.876 2566.31 212.708 2566.35 212.532 2566.33L208.128 2565.92L207.688 2565.89V2565.88L206.395 2565.76C205.974 2565.72 205.618 2565.41 205.522 2565C204.322 2559.81 204.553 2556.58 206.39 2551.27C206.53 2550.86 206.926 2550.61 207.355 2550.65L213.51 2551.22C213.936 2551.26 214.296 2551.58 214.385 2552C214.494 2552.52 214.585 2553.01 214.665 2553.49L242.449 2555.3L242.483 2555.22L252.066 2554.45C251.096 2552.57 250.469 2550.51 250.225 2548.4L246.574 2546.78C246.574 2546.78 247.423 2541.13 248.909 2537.77C250.394 2534.41 254.179 2529.56 254.183 2529.56L258.358 2531.4L258.305 2531.52C260.621 2530.06 263.257 2529.16 265.991 2528.89L267.489 2525.5C267.489 2525.5 272.346 2526.29 275.732 2527.56L276.491 2525.84C275.152 2524.83 274.631 2522.99 275.34 2521.39ZM-185.555 3026.29L-216.615 3029.1L-237.07 2803.24L-206.01 2800.43L-185.555 3026.29ZM535.5 2960.98L504.439 2963.79L483.983 2737.94L515.044 2735.12L535.5 2960.98ZM492.507 2661.25C497.601 2661.12 502.932 2660.27 504.461 2657.32C506.925 2652.56 499.996 2647.33 499.482 2646.95L492.507 2661.25ZM120.812 2543.8C134.045 2542.6 145.745 2552.35 146.943 2565.59C147.969 2576.91 140.974 2587.11 130.645 2590.57L132.37 2609.63L187.61 2604.63L190.282 2634.13L68.7021 2645.15L66.0293 2615.64L121.313 2610.63L119.588 2591.58C108.784 2590.05 100.048 2581.27 99.0205 2569.93C97.822 2556.69 107.578 2544.99 120.812 2543.8Z" fill="white"/>
<path d="M275.34 2521.39L266.193 2517.35L266.193 2517.35L275.34 2521.39ZM280.231 2519.5L284.273 2510.35L284.272 2510.35L280.231 2519.5ZM282.125 2524.39L291.272 2528.43L291.272 2528.43L282.125 2524.39ZM278.057 2526.54L279.888 2516.71L272.109 2515.26L268.91 2522.49L278.057 2526.54ZM277.305 2528.24L268.158 2524.19L264.296 2532.93L272.848 2537.19L277.305 2528.24ZM284.601 2533.06L293.747 2537.1L296.877 2530.02L290.806 2525.21L284.601 2533.06ZM282.739 2537.27L273.593 2533.22L271.486 2537.99L274.187 2542.45L282.739 2537.27ZM284.997 2543.17L275.168 2545.01L276.138 2550.19L280.954 2552.32L284.997 2543.17ZM288.501 2544.72L298.359 2546.4L299.667 2538.72L292.544 2535.57L288.501 2544.72ZM285.983 2554.15L295.13 2558.19L295.131 2558.19L285.983 2554.15ZM280.892 2561.94L276.851 2571.09L283.835 2574.18L288.651 2568.25L280.892 2561.94ZM277.993 2560.66L282.034 2551.52L276.797 2549.2L272.151 2552.55L277.993 2560.66ZM274.67 2562.55L270.711 2553.36L259.238 2558.31L266.577 2568.42L274.67 2562.55ZM280.069 2569.98L271.977 2575.86L273.269 2577.64L275.19 2578.71L280.069 2569.98ZM304.193 2583.47L299.314 2592.2L303.162 2594.35L307.345 2592.96L304.193 2583.47ZM304.942 2583.54L309.793 2574.8L309.79 2574.8L304.942 2583.54ZM310.347 2586.54L315.198 2577.8L315.198 2577.8L310.347 2586.54ZM310.834 2587.61L320.622 2589.66L320.622 2589.66L310.834 2587.61ZM304.529 2599.78L312.101 2606.31L312.101 2606.31L304.529 2599.78ZM303.37 2599.98L298.519 2608.72L298.519 2608.72L303.37 2599.98ZM297.98 2596.99L293.128 2605.73L293.129 2605.73L297.98 2596.99ZM297.488 2595.94L287.662 2594.09L287.662 2594.09L297.488 2595.94ZM297.664 2595.07L307.447 2597.14L308.975 2589.93L302.543 2586.34L297.664 2595.07ZM276.209 2583.08L281.088 2574.35L271.313 2568.88L266.986 2579.21L276.209 2583.08ZM272.721 2591.4L263.498 2587.54L262.851 2589.08L262.742 2590.75L272.721 2591.4ZM270.86 2619.97L260.881 2619.32L260.232 2629.3L270.21 2629.95L270.86 2619.97ZM279.556 2620.54L289.534 2621.19L290.186 2611.21L280.206 2610.56L279.556 2620.54ZM279.109 2627.37L269.131 2626.72L268.369 2638.38L280.011 2637.33L279.109 2627.37ZM471.94 2609.91L481.9 2609.01L480.998 2599.05L471.038 2599.95L471.94 2609.91ZM472.896 2620.45L462.936 2621.35L466.168 2657.04L481.882 2624.84L472.896 2620.45ZM474.87 2616.41L479.253 2607.42L470.268 2603.04L465.883 2612.02L474.87 2616.41ZM476.931 2617.41L472.547 2626.4L481.822 2630.92L486.052 2621.51L476.931 2617.41ZM485.896 2597.46L495.017 2601.56L499.117 2592.44L489.996 2588.34L485.896 2597.46ZM483.356 2596.32L474.235 2592.22L470.136 2601.34L479.257 2605.44L483.356 2596.32ZM491.642 2577.89L495.738 2568.77L486.619 2564.67L482.521 2573.79L491.642 2577.89ZM494.182 2579.03L490.085 2588.15L499.204 2592.25L503.302 2583.13L494.182 2579.03ZM499.156 2567.96L503.256 2558.84L494.136 2554.74L490.036 2563.86L499.156 2567.96ZM507.831 2571.86L503.731 2580.99L512.852 2585.09L516.952 2575.96L507.831 2571.86ZM509.669 2567.78L513.768 2558.65L504.648 2554.55L500.548 2563.68L509.669 2567.78ZM514.625 2570L510.525 2579.12L519.647 2583.22L523.746 2574.1L514.625 2570ZM516.689 2565.41L525.811 2569.51L529.476 2561.35L521.78 2556.8L516.689 2565.41ZM515.089 2560.35L505.968 2556.25L505.968 2556.25L515.089 2560.35ZM520.352 2558.36L524.452 2549.23L524.451 2549.23L520.352 2558.36ZM522.351 2563.62L531.471 2567.72L531.472 2567.72L522.351 2563.62ZM517.692 2565.83L520.285 2556.17L512.063 2553.97L508.572 2561.73L517.692 2565.83ZM515.616 2570.45L506.496 2566.35L502.395 2575.47L511.515 2579.57L515.616 2570.45ZM520.592 2572.69L529.712 2576.79L533.813 2567.67L524.693 2563.57L520.592 2572.69ZM518.754 2576.77L509.633 2572.67L505.533 2581.79L514.653 2585.89L518.754 2576.77ZM528.188 2581.01L537.308 2585.11L541.408 2575.99L532.288 2571.89L528.188 2581.01ZM523.165 2592.19L514.044 2588.09L509.944 2597.21L519.065 2601.31L523.165 2592.19ZM525.959 2593.44L535.08 2597.54L539.18 2588.42L530.059 2584.32L525.959 2593.44ZM517.674 2611.88L513.574 2621L522.695 2625.1L526.795 2615.97L517.674 2611.88ZM514.88 2610.62L518.98 2601.5L509.859 2597.4L505.759 2606.52L514.88 2610.62ZM505.55 2631.38L496.429 2627.28L492.456 2636.12L501.166 2640.36L505.55 2631.38ZM506.787 2631.98L515.774 2636.37L520.16 2627.38L511.171 2622.99L506.787 2631.98ZM500.032 2645.82L491.045 2641.44L508.89 2650.46L500.032 2645.82ZM506.806 2631.98L511.454 2623.12L502.335 2618.33L497.818 2627.59L506.806 2631.98ZM514.109 2636.94L521.183 2629.87L521.182 2629.87L514.109 2636.94ZM521.309 2650.21L531.015 2647.8L531.015 2647.8L521.309 2650.21ZM515.44 2670.66L522.48 2677.77L522.48 2677.77L515.44 2670.66ZM499.315 2677.34L500.002 2687.31L500.002 2687.31L499.315 2677.34ZM486.109 2677.2L486.776 2667.22L479.17 2666.72L476.665 2673.92L486.109 2677.2ZM485.463 2678.97L494.797 2682.56L494.798 2682.56L485.463 2678.97ZM484.462 2679.61L483.811 2689.59L483.812 2689.59L484.462 2679.61ZM478.216 2679.2L478.866 2669.22L467.202 2668.46L468.257 2680.11L478.216 2679.2ZM513.781 3071.88L514.683 3081.84L524.643 3080.94L523.74 3070.98L513.781 3071.88ZM-175.767 3134.33L-185.726 3135.24L-184.824 3145.2L-174.865 3144.29L-175.767 3134.33ZM-217.608 2672.36L-218.51 2662.4L-228.47 2663.3L-227.568 2673.26L-217.608 2672.36ZM251.785 2629.85L252.687 2639.8L261.208 2639.03L261.764 2630.5L251.785 2629.85ZM254.15 2593.53L264.129 2594.18L264.915 2582.11L252.916 2583.6L254.15 2593.53ZM219.927 2597.78L218.692 2587.86L209.036 2589.06L209.973 2598.75L219.927 2597.78ZM219.959 2598.12L220.908 2608.07L230.877 2607.12L229.912 2597.15L219.959 2598.12ZM208.636 2599.2L198.681 2600.15L199.63 2610.1L209.584 2609.15L208.636 2599.2ZM206.063 2572.21L205.115 2562.26L195.16 2563.21L196.109 2573.16L206.063 2572.21ZM217.387 2571.13L227.342 2570.19L226.393 2560.23L216.438 2561.18L217.387 2571.13ZM218.217 2579.85L208.262 2580.8L209.232 2590.97L219.387 2589.78L218.217 2579.85ZM232.89 2578.12L234.06 2588.05L239.856 2587.37L242.112 2581.98L232.89 2578.12ZM237.207 2567.82L246.43 2571.68L251.85 2558.75L237.857 2557.84L237.207 2567.82ZM213.025 2566.24L213.675 2556.26L211.072 2556.09L208.718 2557.22L213.025 2566.24ZM212.532 2566.33L211.609 2576.29L211.61 2576.29L212.532 2566.33ZM208.128 2565.92L209.051 2555.96L208.91 2555.95L208.77 2555.94L208.128 2565.92ZM207.688 2565.89H197.688V2575.27L207.046 2575.87L207.688 2565.89ZM207.688 2565.88H217.688V2556.76L208.605 2555.92L207.688 2565.88ZM206.395 2565.76L205.472 2575.72L205.477 2575.72L206.395 2565.76ZM205.522 2565L195.78 2567.25L195.78 2567.25L205.522 2565ZM206.39 2551.27L196.938 2548L196.938 2548L206.39 2551.27ZM207.355 2550.65L208.277 2540.69L208.273 2540.69L207.355 2550.65ZM213.51 2551.22L214.435 2541.26L214.431 2541.26L213.51 2551.22ZM214.385 2552L224.17 2549.93L224.17 2549.93L214.385 2552ZM214.665 2553.49L204.802 2555.14L206.108 2562.96L214.015 2563.47L214.665 2553.49ZM242.449 2555.3L241.799 2565.28L248.866 2565.74L251.646 2559.23L242.449 2555.3ZM242.483 2555.22L241.682 2545.26L235.658 2545.74L233.286 2551.3L242.483 2555.22ZM252.066 2554.45L252.868 2564.42L267.822 2563.22L260.958 2549.88L252.066 2554.45ZM250.225 2548.4L260.159 2547.25L259.502 2541.56L254.265 2539.25L250.225 2548.4ZM246.574 2546.78L236.685 2545.3L235.551 2552.85L242.534 2555.93L246.574 2546.78ZM248.909 2537.77L239.762 2533.73L239.762 2533.73L248.909 2537.77ZM254.183 2529.56L258.224 2520.41L251.099 2517.27L246.303 2523.4L254.183 2529.56ZM258.358 2531.4L267.475 2535.51L271.616 2526.33L262.399 2522.26L258.358 2531.4ZM258.305 2531.52L249.188 2527.41L235.53 2557.71L263.639 2539.98L258.305 2531.52ZM265.991 2528.89L266.973 2538.84L272.779 2538.26L275.138 2532.93L265.991 2528.89ZM267.489 2525.5L269.112 2515.63L261.472 2514.37L258.343 2521.45L267.489 2525.5ZM275.732 2527.56L272.234 2536.93L281.065 2540.23L284.878 2531.6L275.732 2527.56ZM276.491 2525.84L285.637 2529.89L288.838 2522.65L282.529 2517.87L276.491 2525.84ZM-185.555 3026.29L-184.653 3036.25L-174.693 3035.34L-175.595 3025.38L-185.555 3026.29ZM-216.615 3029.1L-226.574 3030L-225.672 3039.96L-215.713 3039.06L-216.615 3029.1ZM-237.07 2803.24L-237.972 2793.28L-247.932 2794.19L-247.03 2804.15L-237.07 2803.24ZM-206.01 2800.43L-196.051 2799.53L-196.953 2789.57L-206.912 2790.47L-206.01 2800.43ZM535.5 2960.98L536.402 2970.94L546.361 2970.04L545.459 2960.08L535.5 2960.98ZM504.439 2963.79L494.48 2964.7L495.382 2974.66L505.342 2973.75L504.439 2963.79ZM483.983 2737.94L483.082 2727.98L473.122 2728.88L474.024 2738.84L483.983 2737.94ZM515.044 2735.12L525.003 2734.22L524.101 2724.26L514.142 2725.17L515.044 2735.12ZM492.507 2661.25L483.52 2656.86L476.296 2671.66L492.763 2671.24L492.507 2661.25ZM504.461 2657.32L513.342 2661.92L513.342 2661.92L504.461 2657.32ZM499.482 2646.95L505.418 2638.9L495.759 2631.78L490.495 2642.56L499.482 2646.95ZM120.812 2543.8L119.91 2533.84L119.909 2533.84L120.812 2543.8ZM146.943 2565.59L156.903 2564.68L156.903 2564.68L146.943 2565.59ZM130.645 2590.57L127.468 2581.09L119.973 2583.6L120.685 2591.47L130.645 2590.57ZM132.37 2609.63L122.411 2610.53L123.312 2620.49L133.272 2619.59L132.37 2609.63ZM187.61 2604.63L197.57 2603.72L196.668 2593.76L186.708 2594.67L187.61 2604.63ZM190.282 2634.13L191.184 2644.09L201.143 2643.19L200.241 2633.23L190.282 2634.13ZM68.7021 2645.15L58.7429 2646.05L59.645 2656.01L69.6042 2655.1L68.7021 2645.15ZM66.0293 2615.64L65.1272 2605.68L55.168 2606.58L56.0701 2616.54L66.0293 2615.64ZM121.313 2610.63L122.216 2620.59L132.175 2619.69L131.273 2609.73L121.313 2610.63ZM119.588 2591.58L129.547 2590.68L128.833 2582.79L120.99 2581.68L119.588 2591.58ZM99.0205 2569.93L89.0613 2570.83L89.0613 2570.83L99.0205 2569.93ZM275.34 2521.39L284.487 2525.43C283.082 2528.61 279.367 2530.05 276.19 2528.64L280.231 2519.5L284.272 2510.35C277.348 2507.29 269.253 2510.42 266.193 2517.35L275.34 2521.39ZM280.231 2519.5L276.19 2528.64C273.011 2527.24 271.574 2523.52 272.978 2520.35L282.125 2524.39L291.272 2528.43C294.331 2521.51 291.199 2513.41 284.273 2510.35L280.231 2519.5ZM282.125 2524.39L272.978 2520.35C274.188 2517.61 277.088 2516.18 279.888 2516.71L278.057 2526.54L276.226 2536.37C282.33 2537.5 288.645 2534.37 291.272 2528.43L282.125 2524.39ZM278.057 2526.54L268.91 2522.49L268.158 2524.19L277.305 2528.24L286.451 2532.28L287.203 2530.58L278.057 2526.54ZM277.305 2528.24L272.848 2537.19C273.775 2537.65 275.098 2538.5 276.4 2539.42C277.003 2539.85 277.521 2540.23 277.885 2540.51C278.065 2540.64 278.204 2540.75 278.293 2540.82C278.337 2540.85 278.368 2540.88 278.386 2540.89C278.394 2540.9 278.4 2540.9 278.401 2540.9C278.402 2540.9 278.402 2540.9 278.401 2540.9C278.4 2540.9 278.399 2540.9 278.398 2540.9C278.398 2540.9 278.397 2540.9 278.397 2540.9C278.396 2540.9 278.396 2540.9 278.396 2540.9C278.395 2540.9 278.395 2540.9 284.601 2533.06C290.806 2525.21 290.806 2525.21 290.805 2525.21C290.805 2525.21 290.805 2525.21 290.804 2525.21C290.803 2525.21 290.802 2525.21 290.801 2525.21C290.799 2525.21 290.797 2525.21 290.795 2525.2C290.79 2525.2 290.784 2525.2 290.777 2525.19C290.763 2525.18 290.745 2525.17 290.723 2525.15C290.68 2525.11 290.621 2525.07 290.549 2525.01C290.404 2524.9 290.202 2524.74 289.953 2524.56C289.457 2524.18 288.762 2523.67 287.947 2523.09C286.415 2522.01 284.091 2520.45 281.762 2519.29L277.305 2528.24ZM284.601 2533.06L275.454 2529.01L273.593 2533.22L282.739 2537.27L291.886 2541.31L293.747 2537.1L284.601 2533.06ZM282.739 2537.27L274.187 2542.45C274.666 2543.24 274.999 2544.11 275.168 2545.01L284.997 2543.17L294.826 2541.33C294.213 2538.06 293.012 2534.92 291.292 2532.08L282.739 2537.27ZM284.997 2543.17L280.954 2552.32L284.458 2553.87L288.501 2544.72L292.544 2535.57L289.04 2534.03L284.997 2543.17ZM288.501 2544.72L278.643 2543.04C278.657 2542.96 278.434 2544.27 278.049 2545.95C277.623 2547.81 277.165 2549.36 276.836 2550.11L285.983 2554.15L295.131 2558.19C296.283 2555.58 297.081 2552.44 297.543 2550.42C298.045 2548.24 298.34 2546.51 298.359 2546.4L288.501 2544.72ZM285.983 2554.15L276.836 2550.11C276.523 2550.82 275.749 2552.08 274.739 2553.5C273.826 2554.79 273.07 2555.71 273.132 2555.64L280.892 2561.94L288.651 2568.25C288.735 2568.15 289.784 2566.86 291.041 2565.09C292.202 2563.45 293.962 2560.83 295.13 2558.19L285.983 2554.15ZM280.892 2561.94L284.932 2552.8L282.034 2551.52L277.993 2560.66L273.953 2569.81L276.851 2571.09L280.892 2561.94ZM277.993 2560.66L272.151 2552.55C271.704 2552.87 271.221 2553.14 270.711 2553.36L274.67 2562.55L278.629 2571.73C280.456 2570.94 282.203 2569.95 283.835 2568.78L277.993 2560.66ZM274.67 2562.55L266.577 2568.42L271.977 2575.86L280.069 2569.98L288.162 2564.11L282.763 2556.67L274.67 2562.55ZM280.069 2569.98L275.19 2578.71L299.314 2592.2L304.193 2583.47L309.072 2574.74L284.948 2561.26L280.069 2569.98ZM304.193 2583.47L307.345 2592.96C304.928 2593.76 302.299 2593.51 300.095 2592.29L304.942 2583.54L309.79 2574.8C307.113 2573.31 303.941 2573.02 301.042 2573.98L304.193 2583.47ZM304.942 2583.54L300.091 2592.29L305.496 2595.28L310.347 2586.54L315.198 2577.8L309.793 2574.8L304.942 2583.54ZM310.347 2586.54L305.495 2595.28C302.047 2593.37 300.234 2589.44 301.046 2585.56L310.834 2587.61L320.622 2589.66C321.611 2584.93 319.396 2580.12 315.198 2577.8L310.347 2586.54ZM310.834 2587.61L301.046 2585.56C300.629 2587.55 300.2 2588.63 299.753 2589.47C299.265 2590.38 298.521 2591.43 296.958 2593.25L304.529 2599.78L312.101 2606.31C314.028 2604.08 315.874 2601.73 317.384 2598.91C318.936 2596.01 319.915 2593.03 320.622 2589.66L310.834 2587.61ZM304.529 2599.78L296.958 2593.25C299.82 2589.93 304.545 2589.2 308.221 2591.24L303.37 2599.98L298.519 2608.72C302.974 2611.2 308.661 2610.3 312.101 2606.31L304.529 2599.78ZM303.37 2599.98L308.222 2591.24L302.832 2588.25L297.98 2596.99L293.129 2605.73L298.519 2608.72L303.37 2599.98ZM297.98 2596.99L302.833 2588.25C306.21 2590.12 308.04 2593.95 307.315 2597.8L297.488 2595.94L287.662 2594.09C286.779 2598.77 289.014 2603.45 293.128 2605.73L297.98 2596.99ZM297.488 2595.94L307.314 2597.8C307.355 2597.59 307.399 2597.37 307.447 2597.14L297.664 2595.07L287.881 2592.99C287.809 2593.34 287.735 2593.7 287.662 2594.09L297.488 2595.94ZM297.664 2595.07L302.543 2586.34L281.088 2574.35L276.209 2583.08L271.33 2591.8L292.785 2603.8L297.664 2595.07ZM276.209 2583.08L266.986 2579.21L263.498 2587.54L272.721 2591.4L281.944 2595.26L285.432 2586.94L276.209 2583.08ZM272.721 2591.4L262.742 2590.75L260.881 2619.32L270.86 2619.97L280.839 2620.62L282.7 2592.05L272.721 2591.4ZM270.86 2619.97L270.21 2629.95L278.906 2630.51L279.556 2620.54L280.206 2610.56L271.51 2609.99L270.86 2619.97ZM279.556 2620.54L269.577 2619.88L269.131 2626.72L279.109 2627.37L289.088 2628.02L289.534 2621.19L279.556 2620.54ZM279.109 2627.37L280.011 2637.33L472.842 2619.87L471.94 2609.91L471.038 2599.95L278.207 2617.41L279.109 2627.37ZM471.94 2609.91L461.981 2610.81L462.936 2621.35L472.896 2620.45L482.855 2619.55L481.9 2609.01L471.94 2609.91ZM472.896 2620.45L481.882 2624.84L483.857 2620.79L474.87 2616.41L465.883 2612.02L463.909 2616.07L472.896 2620.45ZM474.87 2616.41L470.487 2625.39L472.547 2626.4L476.931 2617.41L481.314 2608.42L479.253 2607.42L474.87 2616.41ZM476.931 2617.41L486.052 2621.51L495.017 2601.56L485.896 2597.46L476.775 2593.36L467.81 2613.31L476.931 2617.41ZM485.896 2597.46L489.996 2588.34L487.456 2587.2L483.356 2596.32L479.257 2605.44L481.797 2606.58L485.896 2597.46ZM483.356 2596.32L492.477 2600.42L500.763 2581.99L491.642 2577.89L482.521 2573.79L474.235 2592.22L483.356 2596.32ZM491.642 2577.89L487.545 2587.01L490.085 2588.15L494.182 2579.03L498.278 2569.91L495.738 2568.77L491.642 2577.89ZM494.182 2579.03L503.302 2583.13L508.277 2572.07L499.156 2567.96L490.036 2563.86L485.061 2574.93L494.182 2579.03ZM499.156 2567.96L495.056 2577.09L503.731 2580.99L507.831 2571.86L511.931 2562.74L503.256 2558.84L499.156 2567.96ZM507.831 2571.86L516.952 2575.96L518.79 2571.88L509.669 2567.78L500.548 2563.68L498.71 2567.76L507.831 2571.86ZM509.669 2567.78L505.569 2576.9L510.525 2579.12L514.625 2570L518.725 2560.88L513.768 2558.65L509.669 2567.78ZM514.625 2570L523.746 2574.1L525.811 2569.51L516.689 2565.41L507.568 2561.31L505.504 2565.9L514.625 2570ZM516.689 2565.41L521.78 2556.8C524.389 2558.34 525.483 2561.62 524.21 2564.45L515.089 2560.35L505.968 2556.25C503.017 2562.82 505.547 2570.44 511.599 2574.02L516.689 2565.41ZM515.089 2560.35L524.21 2564.45C522.846 2567.49 519.282 2568.84 516.252 2567.48L520.352 2558.36L524.451 2549.23C517.411 2546.07 509.135 2549.21 505.968 2556.25L515.089 2560.35ZM520.352 2558.36L516.252 2567.48C513.221 2566.11 511.866 2562.55 513.23 2559.52L522.351 2563.62L531.472 2567.72C534.638 2560.67 531.493 2552.4 524.452 2549.23L520.352 2558.36ZM522.351 2563.62L513.23 2559.52C514.464 2556.77 517.48 2555.42 520.285 2556.17L517.692 2565.83L515.1 2575.49C521.611 2577.24 528.613 2574.08 531.471 2567.72L522.351 2563.62ZM517.692 2565.83L508.572 2561.73L506.496 2566.35L515.616 2570.45L524.737 2574.55L526.813 2569.93L517.692 2565.83ZM515.616 2570.45L511.515 2579.57L516.491 2581.81L520.592 2572.69L524.693 2563.57L519.717 2561.33L515.616 2570.45ZM520.592 2572.69L511.471 2568.58L509.633 2572.67L518.754 2576.77L527.875 2580.87L529.712 2576.79L520.592 2572.69ZM518.754 2576.77L514.653 2585.89L524.087 2590.14L528.188 2581.01L532.288 2571.89L522.854 2567.65L518.754 2576.77ZM528.188 2581.01L519.067 2576.91L514.044 2588.09L523.165 2592.19L532.286 2596.29L537.308 2585.11L528.188 2581.01ZM523.165 2592.19L519.065 2601.31L521.859 2602.56L525.959 2593.44L530.059 2584.32L527.265 2583.07L523.165 2592.19ZM525.959 2593.44L516.838 2589.34L508.553 2607.78L517.674 2611.88L526.795 2615.97L535.08 2597.54L525.959 2593.44ZM517.674 2611.88L521.774 2602.75L518.98 2601.5L514.88 2610.62L510.78 2619.74L513.574 2621L517.674 2611.88ZM514.88 2610.62L505.759 2606.52L496.429 2627.28L505.55 2631.38L514.671 2635.48L524.001 2614.72L514.88 2610.62ZM505.55 2631.38L501.166 2640.36L502.403 2640.97L506.787 2631.98L511.171 2622.99L509.934 2622.39L505.55 2631.38ZM506.787 2631.98L497.8 2627.6L491.045 2641.44L500.032 2645.82L509.019 2650.21L515.774 2636.37L506.787 2631.98ZM500.032 2645.82L508.89 2650.46C511.586 2645.32 513.48 2641.1 515.793 2636.36L506.806 2631.98L497.818 2627.59C495.165 2633.03 493.712 2636.34 491.174 2641.18L500.032 2645.82ZM506.806 2631.98L502.157 2640.83C502.074 2640.79 503.081 2641.31 504.328 2642.09C504.95 2642.47 505.565 2642.87 506.1 2643.26C506.67 2643.68 506.959 2643.93 507.036 2644.01L514.109 2636.94L521.182 2629.87C519.123 2627.81 516.464 2626.07 514.846 2625.07C513.048 2623.96 511.59 2623.19 511.454 2623.12L506.806 2631.98ZM514.109 2636.94L507.036 2644.01C508.433 2645.41 510.601 2648.57 511.602 2652.61L521.309 2650.21L531.015 2647.8C529.099 2640.07 525.03 2633.72 521.183 2629.87L514.109 2636.94ZM521.309 2650.21L511.602 2652.61C512.333 2655.56 511.588 2660.4 508.401 2663.56L515.44 2670.66L522.48 2677.77C531.334 2668.99 533.202 2656.62 531.015 2647.8L521.309 2650.21ZM515.44 2670.66L508.401 2663.56C506.332 2665.61 503.665 2667.01 498.629 2667.36L499.315 2677.34L500.002 2687.31C508.948 2686.7 516.425 2683.77 522.48 2677.77L515.44 2670.66ZM499.315 2677.34L498.629 2667.36C494.531 2667.64 489.714 2667.42 486.776 2667.22L486.109 2677.2L485.442 2687.18C488.592 2687.39 494.508 2687.69 500.002 2687.31L499.315 2677.34ZM486.109 2677.2L476.665 2673.92C476.499 2674.39 476.322 2674.88 476.128 2675.38L485.463 2678.97L494.798 2682.56C495.07 2681.85 495.321 2681.16 495.554 2680.49L486.109 2677.2ZM485.463 2678.97L476.128 2675.38C477.544 2671.7 481.184 2669.38 485.112 2669.63L484.462 2679.61L483.812 2689.59C488.608 2689.9 493.068 2687.06 494.797 2682.56L485.463 2678.97ZM484.462 2679.61L485.113 2669.63L478.866 2669.22L478.216 2679.2L477.565 2689.18L483.811 2689.59L484.462 2679.61ZM478.216 2679.2L468.257 2680.11L503.822 3072.78L513.781 3071.88L523.74 3070.98L488.175 2678.3L478.216 2679.2ZM513.781 3071.88L512.879 3061.92L-176.669 3124.38L-175.767 3134.33L-174.865 3144.29L514.683 3081.84L513.781 3071.88ZM-175.767 3134.33L-165.807 3133.43L-207.649 2671.46L-217.608 2672.36L-227.568 2673.26L-185.726 3135.24L-175.767 3134.33ZM-217.608 2672.36L-216.706 2682.32L252.687 2639.8L251.785 2629.85L250.883 2619.89L-218.51 2662.4L-217.608 2672.36ZM251.785 2629.85L261.764 2630.5L264.129 2594.18L254.15 2593.53L244.172 2592.88L241.806 2629.2L251.785 2629.85ZM254.15 2593.53L252.916 2583.6L218.692 2587.86L219.927 2597.78L221.161 2607.71L255.385 2603.45L254.15 2593.53ZM219.927 2597.78L209.973 2598.75L210.005 2599.08L219.959 2598.12L229.912 2597.15L229.88 2596.82L219.927 2597.78ZM219.959 2598.12L219.01 2588.16L207.687 2589.24L208.636 2599.2L209.584 2609.15L220.908 2608.07L219.959 2598.12ZM208.636 2599.2L218.591 2598.25L216.018 2571.26L206.063 2572.21L196.109 2573.16L198.681 2600.15L208.636 2599.2ZM206.063 2572.21L207.012 2582.17L218.335 2581.09L217.387 2571.13L216.438 2561.18L205.115 2562.26L206.063 2572.21ZM217.387 2571.13L207.432 2572.08L208.262 2580.8L218.217 2579.85L228.172 2578.9L227.342 2570.19L217.387 2571.13ZM218.217 2579.85L219.387 2589.78L234.06 2588.05L232.89 2578.12L231.72 2568.19L217.047 2569.92L218.217 2579.85ZM232.89 2578.12L242.112 2581.98L246.43 2571.68L237.207 2567.82L227.984 2563.95L223.667 2574.25L232.89 2578.12ZM237.207 2567.82L237.857 2557.84L213.675 2556.26L213.025 2566.24L212.375 2576.22L236.557 2577.8L237.207 2567.82ZM213.025 2566.24L208.718 2557.22C210.107 2556.55 211.739 2556.21 213.454 2556.37L212.532 2566.33L211.61 2576.29C213.677 2576.48 215.646 2576.07 217.333 2575.27L213.025 2566.24ZM212.532 2566.33L213.455 2556.37L209.051 2555.96L208.128 2565.92L207.205 2575.88L211.609 2576.29L212.532 2566.33ZM208.128 2565.92L208.77 2555.94L208.329 2555.91L207.688 2565.89L207.046 2575.87L207.486 2575.9L208.128 2565.92ZM207.688 2565.89H217.688V2565.88H207.688H197.688V2565.89H207.688ZM207.688 2565.88L208.605 2555.92L207.312 2555.8L206.395 2565.76L205.477 2575.72L206.77 2575.84L207.688 2565.88ZM206.395 2565.76L207.317 2555.8C211.171 2556.16 214.385 2558.94 215.265 2562.75L205.522 2565L195.78 2567.25C196.852 2571.89 200.778 2575.28 205.472 2575.72L206.395 2565.76ZM205.522 2565L215.265 2562.75C214.804 2560.75 214.741 2559.67 214.796 2558.83C214.854 2557.94 215.078 2556.74 215.841 2554.53L206.39 2551.27L196.938 2548C195.864 2551.11 195.055 2554.18 194.838 2557.53C194.618 2560.93 195.04 2564.06 195.78 2567.25L205.522 2565ZM206.39 2551.27L215.841 2554.53C214.443 2558.58 210.491 2560.98 206.438 2560.61L207.355 2550.65L208.273 2540.69C203.361 2540.24 198.616 2543.15 196.938 2548L206.39 2551.27ZM207.355 2550.65L206.434 2560.61L212.589 2561.18L213.51 2551.22L214.431 2541.26L208.277 2540.69L207.355 2550.65ZM213.51 2551.22L212.584 2561.18C208.672 2560.81 205.42 2557.95 204.6 2554.06L214.385 2552L224.17 2549.93C223.171 2545.2 219.2 2541.7 214.435 2541.26L213.51 2551.22ZM214.385 2552L204.6 2554.06C204.673 2554.41 204.739 2554.76 204.802 2555.14L214.665 2553.49L224.528 2551.85C224.431 2551.26 224.314 2550.62 224.17 2549.93L214.385 2552ZM214.665 2553.49L214.015 2563.47L241.799 2565.28L242.449 2555.3L243.099 2545.32L215.315 2543.51L214.665 2553.49ZM242.449 2555.3L251.646 2559.23L251.681 2559.15L242.483 2555.22L233.286 2551.3L233.252 2551.38L242.449 2555.3ZM242.483 2555.22L243.285 2565.19L252.868 2564.42L252.066 2554.45L251.265 2544.49L241.682 2545.26L242.483 2555.22ZM252.066 2554.45L260.958 2549.88C260.536 2549.06 260.264 2548.17 260.159 2547.25L250.225 2548.4L240.291 2549.54C240.674 2552.86 241.656 2556.08 243.174 2559.03L252.066 2554.45ZM250.225 2548.4L254.265 2539.25L250.614 2537.64L246.574 2546.78L242.534 2555.93L246.184 2557.54L250.225 2548.4ZM246.574 2546.78C256.463 2548.27 256.463 2548.27 256.463 2548.27C256.463 2548.27 256.463 2548.27 256.463 2548.27C256.463 2548.27 256.462 2548.27 256.462 2548.28C256.462 2548.28 256.462 2548.28 256.462 2548.28C256.462 2548.28 256.461 2548.28 256.462 2548.28C256.462 2548.28 256.463 2548.27 256.465 2548.26C256.468 2548.24 256.475 2548.2 256.485 2548.14C256.504 2548.02 256.535 2547.83 256.578 2547.59C256.664 2547.1 256.791 2546.42 256.957 2545.66C257.327 2543.95 257.742 2542.52 258.056 2541.81L248.909 2537.77L239.762 2533.73C238.591 2536.38 237.838 2539.46 237.412 2541.42C237.18 2542.49 237.002 2543.43 236.882 2544.11C236.822 2544.45 236.775 2544.73 236.743 2544.93C236.726 2545.04 236.713 2545.12 236.704 2545.18C236.699 2545.21 236.695 2545.24 236.692 2545.26C236.69 2545.27 236.689 2545.27 236.688 2545.28C236.687 2545.28 236.687 2545.29 236.686 2545.29C236.686 2545.29 236.686 2545.29 236.686 2545.29C236.686 2545.3 236.686 2545.3 236.685 2545.3C236.685 2545.3 236.685 2545.3 246.574 2546.78ZM248.909 2537.77L258.056 2541.81C258.387 2541.06 259.23 2539.67 260.317 2538.11C261.3 2536.69 262.121 2535.64 262.062 2535.72L254.183 2529.56L246.303 2523.4C246.24 2523.48 245.167 2524.86 243.886 2526.7C242.708 2528.4 240.917 2531.12 239.762 2533.73L248.909 2537.77ZM254.183 2529.56L250.142 2538.71L254.317 2540.55L258.358 2531.4L262.399 2522.26L258.224 2520.41L254.183 2529.56ZM258.358 2531.4L249.242 2527.29L249.188 2527.41L258.305 2531.52L267.421 2535.63L267.475 2535.51L258.358 2531.4ZM258.305 2531.52L263.639 2539.98C264.643 2539.35 265.79 2538.95 266.973 2538.84L265.991 2528.89L265.009 2518.93C260.724 2519.36 256.598 2520.78 252.97 2523.07L258.305 2531.52ZM265.991 2528.89L275.138 2532.93L276.636 2529.54L267.489 2525.5L258.343 2521.45L256.845 2524.84L265.991 2528.89ZM267.489 2525.5C265.866 2535.36 265.866 2535.36 265.865 2535.36C265.865 2535.36 265.864 2535.36 265.864 2535.36C265.863 2535.36 265.862 2535.36 265.862 2535.36C265.86 2535.36 265.859 2535.36 265.859 2535.36C265.857 2535.36 265.857 2535.36 265.858 2535.36C265.86 2535.36 265.866 2535.36 265.876 2535.37C265.897 2535.37 265.934 2535.38 265.987 2535.38C266.092 2535.4 266.257 2535.43 266.47 2535.47C266.899 2535.55 267.509 2535.67 268.206 2535.82C269.701 2536.15 271.212 2536.55 272.234 2536.93L275.732 2527.56L279.231 2518.19C276.866 2517.31 274.256 2516.67 272.476 2516.28C271.536 2516.08 270.719 2515.92 270.132 2515.81C269.837 2515.75 269.596 2515.71 269.423 2515.68C269.336 2515.67 269.265 2515.65 269.213 2515.65C269.187 2515.64 269.165 2515.64 269.149 2515.63C269.14 2515.63 269.133 2515.63 269.127 2515.63C269.124 2515.63 269.121 2515.63 269.119 2515.63C269.117 2515.63 269.116 2515.63 269.115 2515.63C269.115 2515.63 269.114 2515.63 269.114 2515.63C269.113 2515.63 269.112 2515.63 267.489 2525.5ZM275.732 2527.56L284.878 2531.6L285.637 2529.89L276.491 2525.84L267.346 2521.8L266.587 2523.52L275.732 2527.56ZM276.491 2525.84L282.529 2517.87C284.796 2519.59 285.697 2522.69 284.487 2525.43L275.34 2521.39L266.193 2517.35C263.566 2523.3 265.507 2530.07 270.454 2533.82L276.491 2525.84ZM-185.555 3026.29L-186.457 3016.33L-217.517 3019.14L-216.615 3029.1L-215.713 3039.06L-184.653 3036.25L-185.555 3026.29ZM-216.615 3029.1L-206.656 3028.2L-227.111 2802.34L-237.07 2803.24L-247.03 2804.15L-226.574 3030L-216.615 3029.1ZM-237.07 2803.24L-236.168 2813.2L-205.108 2810.39L-206.01 2800.43L-206.912 2790.47L-237.972 2793.28L-237.07 2803.24ZM-206.01 2800.43L-215.969 2801.33L-195.514 3027.19L-185.555 3026.29L-175.595 3025.38L-196.051 2799.53L-206.01 2800.43ZM535.5 2960.98L534.598 2951.02L503.537 2953.83L504.439 2963.79L505.342 2973.75L536.402 2970.94L535.5 2960.98ZM504.439 2963.79L514.399 2962.89L493.943 2737.04L483.983 2737.94L474.024 2738.84L494.48 2964.7L504.439 2963.79ZM483.983 2737.94L484.885 2747.9L515.946 2745.08L515.044 2735.12L514.142 2725.17L483.082 2727.98L483.983 2737.94ZM515.044 2735.12L505.085 2736.03L525.541 2961.88L535.5 2960.98L545.459 2960.08L525.003 2734.22L515.044 2735.12ZM492.507 2661.25L492.763 2671.24C495.633 2671.17 499.174 2670.89 502.481 2669.98C505.37 2669.18 510.593 2667.23 513.342 2661.92L504.461 2657.32L495.58 2652.72C496.224 2651.48 497.062 2650.87 497.365 2650.68C497.64 2650.51 497.646 2650.57 497.161 2650.7C496.709 2650.83 496.048 2650.96 495.159 2651.06C494.286 2651.16 493.305 2651.22 492.251 2651.25L492.507 2661.25ZM504.461 2657.32L513.342 2661.92C517.434 2654.01 512.99 2646.98 511.037 2644.42C508.682 2641.34 505.915 2639.27 505.418 2638.9L499.482 2646.95L493.547 2655C493.483 2654.95 493.74 2655.14 494.115 2655.48C494.511 2655.83 494.881 2656.22 495.139 2656.56C495.442 2656.96 495.282 2656.88 495.133 2656.32C495.045 2655.99 494.952 2655.46 495.004 2654.77C495.058 2654.05 495.257 2653.35 495.58 2652.72L504.461 2657.32ZM499.482 2646.95L490.495 2642.56L483.52 2656.86L492.507 2661.25L501.494 2665.63L508.47 2651.34L499.482 2646.95ZM120.812 2543.8L121.714 2553.76C129.447 2553.05 136.284 2558.76 136.984 2566.49L146.943 2565.59L156.903 2564.68C155.206 2545.95 138.643 2532.14 119.91 2533.84L120.812 2543.8ZM146.943 2565.59L136.984 2566.49C137.582 2573.09 133.505 2579.06 127.468 2581.09L130.645 2590.57L133.821 2600.05C148.443 2595.15 158.356 2580.73 156.903 2564.68L146.943 2565.59ZM130.645 2590.57L120.685 2591.47L122.411 2610.53L132.37 2609.63L142.329 2608.73L140.604 2589.67L130.645 2590.57ZM132.37 2609.63L133.272 2619.59L188.512 2614.59L187.61 2604.63L186.708 2594.67L131.468 2599.67L132.37 2609.63ZM187.61 2604.63L177.651 2605.53L180.323 2635.04L190.282 2634.13L200.241 2633.23L197.57 2603.72L187.61 2604.63ZM190.282 2634.13L189.38 2624.17L67.8001 2635.19L68.7021 2645.15L69.6042 2655.1L191.184 2644.09L190.282 2634.13ZM68.7021 2645.15L78.6614 2644.24L75.9885 2614.74L66.0293 2615.64L56.0701 2616.54L58.7429 2646.05L68.7021 2645.15ZM66.0293 2615.64L66.9314 2625.6L122.216 2620.59L121.313 2610.63L120.411 2600.67L65.1272 2605.68L66.0293 2615.64ZM121.313 2610.63L131.273 2609.73L129.547 2590.68L119.588 2591.58L109.629 2592.48L111.354 2611.53L121.313 2610.63ZM119.588 2591.58L120.99 2581.68C114.676 2580.78 109.579 2575.64 108.98 2569.03L99.0205 2569.93L89.0613 2570.83C90.5165 2586.89 102.891 2599.32 118.186 2601.48L119.588 2591.58ZM99.0205 2569.93L108.98 2569.03C108.279 2561.29 113.981 2554.46 121.714 2553.76L120.812 2543.8L119.909 2533.84C101.176 2535.53 87.3646 2552.1 89.0613 2570.83L99.0205 2569.93Z" fill="white" mask="url(#path-53-outside-1_228_12)"/>
<path d="M506.787 2631.98L474.87 2616.41L455.625 2655.85L487.542 2671.42L506.787 2631.98Z" fill="#D9D9D9"/>
<g filter="url(#filter0_d_228_12)">
<path d="M521.309 2650.21C519.85 2644.32 516.732 2639.57 514.11 2636.94C511.723 2634.56 506.805 2631.98 506.805 2631.98C504.143 2637.43 502.416 2641.37 499.453 2646.93C499.453 2646.93 507.019 2652.38 504.461 2657.32C502.051 2661.98 490.196 2661.39 484.708 2661.03C481.212 2660.8 480.526 2665.01 480.307 2668.38C480.088 2671.74 480.048 2676.79 483.667 2677.02C484.122 2677.05 492.324 2677.82 499.315 2677.34C506.306 2676.86 511.378 2674.69 515.441 2670.66C521.461 2664.7 522.768 2656.09 521.309 2650.21Z" fill="#313338"/>
</g>
<rect width="11.0095" height="23.7316" transform="matrix(-0.89771 -0.440586 -0.440586 0.89771 492 2637.54)" fill="#313338"/>
<path d="M496.111 2579.9L491.642 2577.89L483.357 2596.32L487.825 2598.33L496.111 2579.9Z" fill="#696969"/>
<path d="M518.48 2564.08L517.489 2563.63L513.974 2571.45L514.965 2571.9L518.48 2564.08Z" fill="#D9D9D9"/>
<path d="M515.089 2560.35C514.188 2562.36 515.083 2564.72 517.088 2565.62C519.093 2566.52 521.449 2565.62 522.35 2563.62C523.252 2561.61 522.357 2559.26 520.352 2558.36C518.346 2557.45 515.99 2558.35 515.089 2560.35Z" fill="#06D6A0"/>
<rect width="4.89927" height="20.2095" transform="matrix(-0.912099 -0.40997 -0.40997 0.912099 525.959 2593.44)" fill="#696969"/>
<path d="M509.669 2567.78L507.647 2572.27L518.57 2577.18L520.592 2572.69L515.13 2570.23L509.669 2567.78Z" fill="#696969"/>
<g filter="url(#filter1_d_228_12)">
<rect width="31.829" height="56.8644" rx="1.46793" transform="matrix(-0.912099 -0.40997 -0.40997 0.912099 528.188 2581.01)" fill="#D9D9D9"/>
</g>
<rect width="21.4859" height="44.7328" rx="1.46793" transform="matrix(-0.912099 -0.40997 -0.40997 0.912099 520.029 2586.01)" fill="black"/>
<path d="M498.799 2596.23C499.878 2596.72 501.147 2596.24 501.632 2595.16C502.118 2594.08 501.636 2592.81 500.556 2592.32C499.476 2591.84 498.208 2592.32 497.722 2593.4C497.237 2594.48 497.719 2595.75 498.799 2596.23Z" fill="#06D6A1"/>
<path d="M498.799 2596.23C499.878 2596.72 501.147 2596.24 501.632 2595.16C502.118 2594.08 501.636 2592.81 500.556 2592.32C499.476 2591.84 498.208 2592.32 497.722 2593.4C497.237 2594.48 497.719 2595.75 498.799 2596.23Z" fill="#06D6A1"/>
<path d="M491.862 2611.66C492.942 2612.15 494.211 2611.67 494.696 2610.59C495.181 2609.51 494.699 2608.24 493.62 2607.75C492.54 2607.27 491.271 2607.75 490.786 2608.83C490.301 2609.91 490.783 2611.18 491.862 2611.66Z" fill="#06D6A1"/>
<path d="M491.862 2611.66C492.942 2612.15 494.211 2611.67 494.696 2610.59C495.181 2609.51 494.699 2608.24 493.62 2607.75C492.54 2607.27 491.271 2607.75 490.786 2608.83C490.301 2609.91 490.783 2611.18 491.862 2611.66Z" fill="#06D6A1"/>
<g filter="url(#filter2_d_228_12)">
<path d="M487.31 2659.5C487.24 2659.07 486.881 2658.74 486.438 2658.71L478.214 2658.18C477.774 2658.15 477.359 2658.42 477.208 2658.84C474.537 2666.18 474.431 2670.69 475.376 2678.25C475.432 2678.71 475.798 2679.05 476.254 2679.08L484.462 2679.61C484.896 2679.64 485.306 2679.38 485.463 2678.97C488.175 2671.91 488.566 2667.4 487.31 2659.5Z" fill="#D9D9D9"/>
</g>
<rect width="50.3396" height="18.3933" transform="matrix(0.0649976 -0.997885 -0.997885 -0.0649976 270.122 2631.32)" fill="#313338"/>
<g filter="url(#filter3_d_228_12)">
<path d="M208.672 2599.18L257.941 2593.06L250.317 2576.07L209.868 2580.83L208.672 2599.18Z" fill="#313338"/>
</g>
<rect x="252.507" y="2618.77" width="27.1059" height="11.3748" transform="rotate(3.72672 252.507 2618.77)" fill="#D9D9D9"/>
<rect x="208.521" y="2553.09" width="35.5765" height="12.8269" transform="rotate(3.72672 208.521 2553.09)" fill="#313338"/>
<rect x="274.948" y="2567.12" width="35.8185" height="13.3109" transform="rotate(29.2035 274.948 2567.12)" fill="#313338"/>
<rect x="217.387" y="2571.13" width="27.1059" height="11.3748" transform="rotate(84.5544 217.387 2571.13)" fill="#D9D9D9"/>
<g filter="url(#filter4_d_228_12)">
<path d="M242.484 2555.22L267.876 2553.19L281.1 2571.4L269.439 2599.24L230.823 2583.06L242.484 2555.22Z" fill="#D9D9D9"/>
</g>
<path d="M260.718 2568.31L265.17 2588.87L242.939 2579.56L260.718 2568.31Z" fill="#313338"/>
<path d="M277.835 2522.8L279.4 2523.5L276.172 2530.8L274.606 2530.11L277.835 2522.8Z" fill="#D9D9D9"/>
<path d="M282.125 2524.39C281.298 2526.26 279.108 2527.11 277.234 2526.28C275.36 2525.46 274.512 2523.27 275.34 2521.39C276.168 2519.52 278.358 2518.67 280.232 2519.5C282.105 2520.33 282.953 2522.52 282.125 2524.39Z" fill="#06D6A0"/>
<path d="M254.183 2529.56L258.359 2531.41L250.749 2548.63L246.574 2546.79C246.574 2546.79 247.423 2541.13 248.909 2537.77C250.395 2534.41 254.183 2529.56 254.183 2529.56Z" fill="#696969"/>
<path d="M288.501 2544.72L284.326 2542.88L276.716 2560.1L280.892 2561.95C280.892 2561.95 284.498 2557.51 285.983 2554.15C287.469 2550.79 288.501 2544.72 288.501 2544.72Z" fill="#696969"/>
<path d="M284.601 2533.06L281.948 2539.06L264.837 2531.5L267.49 2525.5C267.49 2525.5 273.301 2526.45 276.642 2527.93C279.983 2529.4 284.601 2533.06 284.601 2533.06Z" fill="#696969"/>
<g filter="url(#filter5_d_228_12)">
<circle cx="267.703" cy="2546.4" r="17.5909" transform="rotate(23.8345 267.703 2546.4)" fill="#D9D9D9"/>
</g>
<ellipse cx="269.242" cy="2547.75" rx="11.7272" ry="11.6244" transform="rotate(23.8345 269.242 2547.75)" fill="black"/>
<g filter="url(#filter6_d_228_12)">
<path d="M303.81 2583.72C304.101 2583.4 304.565 2583.33 304.943 2583.54L310.347 2586.54C310.721 2586.75 310.923 2587.18 310.835 2587.61C309.71 2592.98 308.02 2595.73 304.529 2599.78C304.24 2600.11 303.76 2600.2 303.371 2599.98L297.981 2596.99C297.612 2596.79 297.41 2596.36 297.489 2595.94C298.478 2590.71 299.989 2587.84 303.81 2583.72Z" fill="#D9D9D9"/>
</g>
<g filter="url(#filter7_d_228_12)">
<path d="M206.389 2551.27C206.529 2550.86 206.926 2550.61 207.356 2550.65L213.509 2551.22C213.936 2551.26 214.296 2551.58 214.385 2552C215.517 2557.37 215.079 2560.57 213.512 2565.68C213.382 2566.1 212.976 2566.37 212.532 2566.33L206.395 2565.76C205.975 2565.72 205.618 2565.42 205.522 2565C204.322 2559.81 204.552 2556.58 206.389 2551.27Z" fill="#D9D9D9"/>
</g>
<path d="M270.035 2546.79C269.953 2548.05 268.862 2549.01 267.599 2548.93C266.336 2548.84 265.379 2547.75 265.461 2546.49C265.543 2545.23 266.634 2544.27 267.897 2544.35C269.16 2544.43 270.118 2545.52 270.035 2546.79Z" fill="#06D6A1"/>
<path d="M270.035 2546.79C269.953 2548.05 268.862 2549.01 267.599 2548.93C266.336 2548.84 265.379 2547.75 265.461 2546.49C265.543 2545.23 266.634 2544.27 267.897 2544.35C269.16 2544.43 270.118 2545.52 270.035 2546.79Z" fill="#06D6A1"/>
<rect width="692.371" height="463.866" rx="1.33662" transform="matrix(-0.995924 0.0902006 0.0902006 0.995924 471.94 2609.91)" fill="#D9D9D9"/>
<rect width="601.47" height="401.38" rx="1.33662" transform="matrix(-0.995924 0.0902006 0.0902006 0.995924 408.206 2660.98)" fill="black"/>
<path d="M128.7 2569.09L117.643 2570.09L122.316 2621.69L133.373 2620.69L128.7 2569.09Z" fill="#D9D9D9"/>
<path d="M99.0206 2569.93C100.219 2583.16 111.919 2592.92 125.152 2591.72C138.385 2590.52 148.141 2578.82 146.943 2565.59C145.744 2552.35 134.045 2542.6 120.812 2543.8C107.578 2545 97.822 2556.7 99.0206 2569.93Z" fill="#06D6A0"/>
<path d="M66.0293 2615.64L68.7018 2645.15L190.282 2634.13L187.61 2604.63L66.0293 2615.64Z" fill="#696969"/>
<rect x="483.983" y="2737.94" width="31.1879" height="226.78" transform="rotate(-5.17515 483.983 2737.94)" fill="#696969"/>
<path d="M207.066 2787.89C206.108 2802.59 193.407 2813.74 178.698 2812.78C163.989 2811.83 152.841 2799.13 153.8 2784.42C154.758 2769.71 167.458 2758.56 182.167 2759.52C196.876 2760.48 208.024 2773.18 207.066 2787.89Z" fill="#06D6A1"/>
<path d="M207.066 2787.89C206.108 2802.59 193.407 2813.74 178.698 2812.78C163.989 2811.83 152.841 2799.13 153.8 2784.42C154.758 2769.71 167.458 2758.56 182.167 2759.52C196.876 2760.48 208.024 2773.18 207.066 2787.89Z" fill="#06D6A1"/>
<path d="M348.765 2751.04C347.807 2765.75 335.106 2776.9 320.397 2775.94C305.688 2774.98 294.541 2762.28 295.499 2747.57C296.457 2732.86 309.158 2721.72 323.867 2722.67C338.576 2723.63 349.723 2736.33 348.765 2751.04Z" fill="#06D6A1"/>
<path d="M348.765 2751.04C347.807 2765.75 335.106 2776.9 320.397 2775.94C305.688 2774.98 294.541 2762.28 295.499 2747.57C296.457 2732.86 309.158 2721.72 323.867 2722.67C338.576 2723.63 349.723 2736.33 348.765 2751.04Z" fill="#06D6A1"/>
</g>
<defs>
<filter id="filter0_d_228_12" x="480.225" y="2631.98" width="45.0551" height="51.634" filterUnits="userSpaceOnUse" color-interpolation-filters="sRGB">
<feFlood flood-opacity="0" result="BackgroundImageFix"/>
<feColorMatrix in="SourceAlpha" type="matrix" values="0 0 0 0 0 0 0 0 0 0 0 0 0 0 0 0 0 0 127 0" result="hardAlpha"/>
<feOffset dx="2.44655" dy="5.13777"/>
<feGaussianBlur stdDeviation="0.489311"/>
<feComposite in2="hardAlpha" operator="out"/>
<feColorMatrix type="matrix" values="0 0 0 0 0 0 0 0 0 0 0 0 0 0 0 0 0 0 0.25 0"/>
<feBlend mode="normal" in2="BackgroundImageFix" result="effect1_dropShadow_228_12"/>
<feBlend mode="normal" in="SourceGraphic" in2="effect1_dropShadow_228_12" result="shape"/>
</filter>
<filter id="filter1_d_228_12" x="475.338" y="2568.44" width="53.3563" height="67.3949" filterUnits="userSpaceOnUse" color-interpolation-filters="sRGB">
<feFlood flood-opacity="0" result="BackgroundImageFix"/>
<feColorMatrix in="SourceAlpha" type="matrix" values="0 0 0 0 0 0 0 0 0 0 0 0 0 0 0 0 0 0 127 0" result="hardAlpha"/>
<feOffset dy="2.44655"/>
<feGaussianBlur stdDeviation="0.489311"/>
<feComposite in2="hardAlpha" operator="out"/>
<feColorMatrix type="matrix" values="0 0 0 0 0 0 0 0 0 0 0 0 0 0 0 0 0 0 0.25 0"/>
<feBlend mode="normal" in2="BackgroundImageFix" result="effect1_dropShadow_228_12"/>
<feBlend mode="normal" in="SourceGraphic" in2="effect1_dropShadow_228_12" result="shape"/>
</filter>
<filter id="filter2_d_228_12" x="474.835" y="2657.52" width="16.512" height="24.7149" filterUnits="userSpaceOnUse" color-interpolation-filters="sRGB">
<feFlood flood-opacity="0" result="BackgroundImageFix"/>
<feColorMatrix in="SourceAlpha" type="matrix" values="0 0 0 0 0 0 0 0 0 0 0 0 0 0 0 0 0 0 127 0" result="hardAlpha"/>
<feOffset dx="1.71259" dy="0.978622"/>
<feGaussianBlur stdDeviation="0.819596"/>
<feComposite in2="hardAlpha" operator="out"/>
<feColorMatrix type="matrix" values="0 0 0 0 0 0 0 0 0 0 0 0 0 0 0 0 0 0 0.25 0"/>
<feBlend mode="normal" in2="BackgroundImageFix" result="effect1_dropShadow_228_12"/>
<feBlend mode="normal" in="SourceGraphic" in2="effect1_dropShadow_228_12" result="shape"/>
</filter>
<filter id="filter3_d_228_12" x="208.672" y="2576.07" width="53.8672" height="26.9895" filterUnits="userSpaceOnUse" color-interpolation-filters="sRGB">
<feFlood flood-opacity="0" result="BackgroundImageFix"/>
<feColorMatrix in="SourceAlpha" type="matrix" values="0 0 0 0 0 0 0 0 0 0 0 0 0 0 0 0 0 0 127 0" result="hardAlpha"/>
<feOffset dx="3.63026" dy="2.90421"/>
<feGaussianBlur stdDeviation="0.484034"/>
<feComposite in2="hardAlpha" operator="out"/>
<feColorMatrix type="matrix" values="0 0 0 0 0 0 0 0 0 0 0 0 0 0 0 0 0 0 0.25 0"/>
<feBlend mode="normal" in2="BackgroundImageFix" result="effect1_dropShadow_228_12"/>
<feBlend mode="normal" in="SourceGraphic" in2="effect1_dropShadow_228_12" result="shape"/>
</filter>
<filter id="filter4_d_228_12" x="229.855" y="2553.19" width="52.2136" height="47.9859" filterUnits="userSpaceOnUse" color-interpolation-filters="sRGB">
<feFlood flood-opacity="0" result="BackgroundImageFix"/>
<feColorMatrix in="SourceAlpha" type="matrix" values="0 0 0 0 0 0 0 0 0 0 0 0 0 0 0 0 0 0 127 0" result="hardAlpha"/>
<feOffset dy="0.968069"/>
<feGaussianBlur stdDeviation="0.484034"/>
<feComposite in2="hardAlpha" operator="out"/>
<feColorMatrix type="matrix" values="0 0 0 0 0 0 0 0 0 0 0 0 0 0 0 0 0 0 0.25 0"/>
<feBlend mode="normal" in2="BackgroundImageFix" result="effect1_dropShadow_228_12"/>
<feBlend mode="normal" in="SourceGraphic" in2="effect1_dropShadow_228_12" result="shape"/>
</filter>
<filter id="filter5_d_228_12" x="249.624" y="2528.8" width="37.1267" height="38.0946" filterUnits="userSpaceOnUse" color-interpolation-filters="sRGB">
<feFlood flood-opacity="0" result="BackgroundImageFix"/>
<feColorMatrix in="SourceAlpha" type="matrix" values="0 0 0 0 0 0 0 0 0 0 0 0 0 0 0 0 0 0 127 0" result="hardAlpha"/>
<feOffset dx="0.484034" dy="1.93614"/>
<feGaussianBlur stdDeviation="0.484034"/>
<feComposite in2="hardAlpha" operator="out"/>
<feColorMatrix type="matrix" values="0 0 0 0 0 0 0 0 0 0 0 0 0 0 0 0 0 0 0.25 0"/>
<feBlend mode="normal" in2="BackgroundImageFix" result="effect1_dropShadow_228_12"/>
<feBlend mode="normal" in="SourceGraphic" in2="effect1_dropShadow_228_12" result="shape"/>
</filter>
<filter id="filter6_d_228_12" x="297.472" y="2583.42" width="16.2876" height="18.6129" filterUnits="userSpaceOnUse" color-interpolation-filters="sRGB">
<feFlood flood-opacity="0" result="BackgroundImageFix"/>
<feColorMatrix in="SourceAlpha" type="matrix" values="0 0 0 0 0 0 0 0 0 0 0 0 0 0 0 0 0 0 127 0" result="hardAlpha"/>
<feOffset dx="1.93614" dy="0.968069"/>
<feGaussianBlur stdDeviation="0.484034"/>
<feComposite in2="hardAlpha" operator="out"/>
<feColorMatrix type="matrix" values="0 0 0 0 0 0 0 0 0 0 0 0 0 0 0 0 0 0 0.25 0"/>
<feBlend mode="normal" in2="BackgroundImageFix" result="effect1_dropShadow_228_12"/>
<feBlend mode="normal" in="SourceGraphic" in2="effect1_dropShadow_228_12" result="shape"/>
</filter>
<filter id="filter7_d_228_12" x="204.779" y="2550.65" width="13.1444" height="17.6256" filterUnits="userSpaceOnUse" color-interpolation-filters="sRGB">
<feFlood flood-opacity="0" result="BackgroundImageFix"/>
<feColorMatrix in="SourceAlpha" type="matrix" values="0 0 0 0 0 0 0 0 0 0 0 0 0 0 0 0 0 0 127 0" result="hardAlpha"/>
<feOffset dx="1.93614" dy="0.968069"/>
<feGaussianBlur stdDeviation="0.484034"/>
<feComposite in2="hardAlpha" operator="out"/>
<feColorMatrix type="matrix" values="0 0 0 0 0 0 0 0 0 0 0 0 0 0 0 0 0 0 0.25 0"/>
<feBlend mode="normal" in2="BackgroundImageFix" result="effect1_dropShadow_228_12"/>
<feBlend mode="normal" in="SourceGraphic" in2="effect1_dropShadow_228_12" result="shape"/>
</filter>
<linearGradient id="paint0_linear_228_12" x1="693.5" y1="0" x2="693.5" y2="2865" gradientUnits="userSpaceOnUse">
<stop stop-color="#001433"/>
<stop offset="1" stop-color="#003D99"/>
</linearGradient>
<clipPath id="clip0_228_12">
<rect width="1387" height="2865" fill="white"/>
</clipPath>
</defs>
</svg>
