<svg width="1484" height="547" viewBox="0 0 1484 547" fill="none" xmlns="http://www.w3.org/2000/svg">
<path fill-rule="evenodd" clip-rule="evenodd" d="M39.7341 122.984C36.4204 122.984 33.7341 125.67 33.7341 128.984V471C33.7341 474.314 36.4204 477 39.7341 477H55.4682H167.473H338.482C341.795 477 344.482 474.314 344.482 471V364.995C344.482 361.681 341.795 358.995 338.482 358.995H167.473V128.984C167.473 125.67 164.787 122.984 161.473 122.984H39.7341Z" fill="#696969"/>
<path fill-rule="evenodd" clip-rule="evenodd" d="M24 122.984C20.6863 122.984 18 125.67 18 128.984V364.995V471C18 474.314 20.6863 477 24 477H130.005H307.013C310.327 477 313.013 474.314 313.013 471V364.995C313.013 361.681 310.327 358.995 307.013 358.995H136.005V128.984C136.005 125.67 133.319 122.984 130.005 122.984H24Z" fill="#D9D9D9"/>
<rect x="537.224" y="56.1144" width="15.734" height="55.0691" fill="#696969"/>
<rect x="533.29" y="56.1144" width="11.8005" height="55.0691" fill="#D9D9D9"/>
<rect x="480.354" y="103.316" width="29" height="9" fill="#696969"/>
<rect x="470.354" y="103.316" width="137.673" height="35.4016" fill="#B3B3B3"/>
<path d="M565.245 56.6011C565.245 69.6356 554.678 80.2021 541.644 80.2021C528.609 80.2021 518.043 69.6356 518.043 56.6011C518.043 43.5666 528.609 33 541.644 33C554.678 33 565.245 43.5666 565.245 56.6011Z" fill="#06D6A0"/>
<path d="M533.777 72.3351C546.811 72.3351 557.378 61.7685 557.378 48.734C557.378 44.2328 556.118 40.0259 553.931 36.4468C560.716 40.5922 565.245 48.0678 565.245 56.601C565.245 69.6355 554.678 80.2021 541.644 80.2021C533.11 80.2021 525.635 75.6734 521.489 68.8883C525.068 71.075 529.275 72.3351 533.777 72.3351Z" fill="#04919E"/>
<rect x="344.481" y="240.989" width="27.5346" height="118.005" fill="#696969"/>
<rect x="387.75" y="122.984" width="354.016" height="354.016" rx="6" fill="#696969"/>
<rect x="356.282" y="122.984" width="354.016" height="354.016" rx="6" fill="#D9D9D9"/>
<rect x="419.218" y="193.787" width="200.609" height="212.41" rx="6" fill="#696969"/>
<path d="M448.719 199.787C448.719 196.474 451.406 193.787 454.719 193.787H643.329C646.642 193.787 649.329 196.474 649.329 199.787V400.197C649.329 403.511 646.642 406.197 643.329 406.197H454.719C451.406 406.197 448.719 403.511 448.719 400.197V199.787Z" fill="black"/>
<path d="M498.507 329.803C498.507 339.749 490.443 347.813 480.497 347.813C470.55 347.813 462.487 339.749 462.487 329.803C462.487 319.856 470.55 311.793 480.497 311.793C490.443 311.793 498.507 319.856 498.507 329.803Z" fill="#06D6A1"/>
<path d="M498.507 329.803C498.507 339.749 490.443 347.813 480.497 347.813C470.55 347.813 462.487 339.749 462.487 329.803C462.487 319.856 470.55 311.793 480.497 311.793C490.443 311.793 498.507 319.856 498.507 329.803Z" fill="#06D6A1"/>
<path d="M609.842 329.803C609.842 339.749 601.779 347.813 591.832 347.813C581.885 347.813 573.822 339.749 573.822 329.803C573.822 319.856 581.885 311.793 591.832 311.793C601.779 311.793 609.842 319.856 609.842 329.803Z" fill="#06D6A1"/>
<path d="M609.842 329.803C609.842 339.749 601.779 347.813 591.832 347.813C581.885 347.813 573.822 339.749 573.822 329.803C573.822 319.856 581.885 311.793 591.832 311.793C601.779 311.793 609.842 319.856 609.842 329.803Z" fill="#06D6A1"/>
<rect x="505.056" y="344.538" width="58.9422" height="9.82369" rx="4.91185" fill="#06D6A0"/>
<rect x="855.838" y="181.987" width="133.739" height="27.5346" fill="#696969"/>
<rect x="855.838" y="331.46" width="133.739" height="27.5346" fill="#696969"/>
<path fill-rule="evenodd" clip-rule="evenodd" d="M808.636 122.984C795.601 122.984 785.035 133.551 785.035 146.585V453.399C785.035 466.433 795.601 477 808.636 477H879.439C892.473 477 903.04 466.433 903.04 453.399V366.862C903.04 353.827 913.606 343.261 926.641 343.261H962.043C975.077 343.261 985.644 353.827 985.644 366.862V457.332C985.644 470.367 996.21 477 1009.24 477H1080.05C1093.08 477 1103.65 470.367 1103.65 457.332V353.019C1103.65 351.788 1103.27 350.587 1102.56 349.578L1078.52 315.233C1077.08 313.167 1077.08 310.418 1078.52 308.352L1102.56 274.007C1103.27 272.998 1103.65 271.797 1103.65 270.566V170.186C1103.65 144.117 1082.52 122.984 1056.45 122.984H808.636ZM977.777 193.787H895.173V231.156V268.524H977.777C990.811 268.524 1001.38 257.957 1001.38 244.923V217.388C1001.38 204.354 990.811 193.787 977.777 193.787Z" fill="#696969"/>
<path fill-rule="evenodd" clip-rule="evenodd" d="M777.168 122.984C764.133 122.984 753.567 133.551 753.567 146.585V453.399C753.567 466.433 764.133 477 777.168 477H847.971C861.005 477 871.572 466.433 871.572 453.399V366.862C871.572 353.827 882.138 343.261 895.173 343.261H930.575C943.609 343.261 954.176 353.827 954.176 366.862V457.332C954.176 470.367 964.742 477 977.777 477H1048.58C1061.61 477 1072.18 470.367 1072.18 457.332V353.019C1072.18 351.788 1071.8 350.587 1071.1 349.578L1047.05 315.233C1045.61 313.167 1045.61 310.418 1047.05 308.352L1071.1 274.007C1071.8 272.998 1072.18 271.797 1072.18 270.566V170.186C1072.18 144.117 1051.05 122.984 1024.98 122.984H777.168ZM946.309 193.787H863.705V268.524H946.309C959.343 268.524 969.91 257.957 969.91 244.923V217.388C969.91 204.354 959.343 193.787 946.309 193.787Z" fill="#D9D9D9"/>
<path fill-rule="evenodd" clip-rule="evenodd" d="M1152.92 122.984C1149.6 122.984 1146.92 125.67 1146.92 128.984V471C1146.92 474.314 1149.6 477 1152.92 477L1168.65 477L1258.92 477C1258.93 477 1258.94 477 1258.94 477H1451.66C1454.98 477 1457.66 474.314 1457.66 471V384.662C1457.66 381.348 1454.98 378.662 1451.66 378.662H1264.92V351.128H1353.33C1356.64 351.128 1359.33 348.441 1359.33 345.128V266.657C1359.33 263.343 1356.64 260.657 1353.33 260.657H1264.92V240.989H1451.66C1454.98 240.989 1457.66 238.303 1457.66 234.989V128.984C1457.66 125.67 1454.98 122.984 1451.66 122.984H1258.93C1258.93 122.984 1258.93 122.984 1258.92 122.984H1152.92Z" fill="#696969"/>
<path fill-rule="evenodd" clip-rule="evenodd" d="M1121.45 122.984C1118.14 122.984 1115.45 125.67 1115.45 128.984V471C1115.45 474.314 1118.14 477 1121.45 477L1137.18 477L1227.45 477C1227.46 477 1227.47 477 1227.47 477H1420.2C1423.51 477 1426.2 474.314 1426.2 471V384.662C1426.2 381.348 1423.51 378.662 1420.2 378.662H1233.45V339.327H1321.86C1325.17 339.327 1327.86 336.641 1327.86 333.327V266.657C1327.86 263.343 1325.17 260.657 1321.86 260.657H1233.45V221.322H1420.2C1423.51 221.322 1426.2 218.635 1426.2 215.322V128.984C1426.2 125.67 1423.51 122.984 1420.2 122.984H1227.46C1227.46 122.984 1227.46 122.984 1227.45 122.984H1121.45Z" fill="#D9D9D9"/>
<g filter="url(#filter0_i_25_90)">
<rect x="718" y="244" width="27" height="120" fill="#313338"/>
</g>
<defs>
<filter id="filter0_i_25_90" x="718" y="244" width="27" height="120" filterUnits="userSpaceOnUse" color-interpolation-filters="sRGB">
<feFlood flood-opacity="0" result="BackgroundImageFix"/>
<feBlend mode="normal" in="SourceGraphic" in2="BackgroundImageFix" result="shape"/>
<feColorMatrix in="SourceAlpha" type="matrix" values="0 0 0 0 0 0 0 0 0 0 0 0 0 0 0 0 0 0 127 0" result="hardAlpha"/>
<feOffset dx="3" dy="-1"/>
<feComposite in2="hardAlpha" operator="arithmetic" k2="-1" k3="1"/>
<feColorMatrix type="matrix" values="0 0 0 0 0 0 0 0 0 0 0 0 0 0 0 0 0 0 1 0"/>
<feBlend mode="normal" in2="shape" result="effect1_innerShadow_25_90"/>
</filter>
</defs>
</svg>
