<svg width="77" height="82" viewBox="0 0 77 82" fill="none" xmlns="http://www.w3.org/2000/svg">
<path d="M38.3991 2.49805C42.2402 2.49805 45.354 5.61204 45.3542 9.45313C45.3542 10.5814 45.084 11.6465 44.6071 12.5889H49.7214V16.7051L67.7087 16.7051C68.3854 16.7051 68.9343 17.2539 68.9343 17.9307V37.291H72.3649V59.9346H68.9343V77.2363C68.9342 77.913 68.3854 78.4619 67.7087 78.4619H8.40302C7.72646 78.4618 7.1785 77.9129 7.17841 77.2363L7.17841 59.9346H3.74677L3.74677 37.291H7.17841L7.17841 17.9307C7.17841 17.254 7.7264 16.7052 8.40302 16.7051H27.0768V12.5889H32.1911C31.7142 11.6465 31.444 10.5814 31.444 9.45313C31.4442 5.61205 34.558 2.49806 38.3991 2.49805Z" fill="white"/>
<path d="M37.4647 9.77246H39.2393V18.054H37.4647V9.77246Z" fill="#D9D9D9"/>
<path d="M42.1968 9.47633C42.1968 11.5999 40.4753 13.3213 38.3518 13.3213C36.2283 13.3213 34.5068 11.5999 34.5068 9.47633C34.5068 7.3528 36.2283 5.63135 38.3518 5.63135C40.4753 5.63135 42.1968 7.3528 42.1968 9.47633Z" fill="#06D6A0"/>
<rect x="8.47949" y="37.5742" width="4.73228" height="19.5207" fill="#696969"/>
<path d="M62.9003 37.5747H67.6326V57.0954H62.9003L62.9003 37.5747Z" fill="#696969"/>
<path d="M48.1122 16.2788L48.1122 21.0111L28.5915 21.0111L28.5915 16.2788L48.1122 16.2788Z" fill="#696969"/>
<rect x="11.437" y="19.8281" width="53.2382" height="53.2382" rx="1.05631" fill="#D9D9D9"/>
<rect x="22.0846" y="32.8423" width="33.126" height="28.3937" rx="1.05631" fill="black"/>
<path d="M33.7066 49.5963C33.7066 51.3355 32.2968 52.7453 30.5576 52.7453C28.8184 52.7453 27.4086 51.3355 27.4086 49.5963C27.4086 47.8571 28.8184 46.4473 30.5576 46.4473C32.2968 46.4473 33.7066 47.8571 33.7066 49.5963Z" fill="#06D6A1"/>
<path d="M33.7066 49.5963C33.7066 51.3355 32.2968 52.7453 30.5576 52.7453C28.8184 52.7453 27.4086 51.3355 27.4086 49.5963C27.4086 47.8571 28.8184 46.4473 30.5576 46.4473C32.2968 46.4473 33.7066 47.8571 33.7066 49.5963Z" fill="#06D6A1"/>
<path d="M49.0145 49.5963C49.0145 51.3355 47.6046 52.7453 45.8655 52.7453C44.1263 52.7453 42.7164 51.3355 42.7164 49.5963C42.7164 47.8571 44.1263 46.4473 45.8655 46.4473C47.6046 46.4473 49.0145 47.8571 49.0145 49.5963Z" fill="#06D6A1"/>
<path d="M49.0145 49.5963C49.0145 51.3355 47.6046 52.7453 45.8655 52.7453C44.1263 52.7453 42.7164 51.3355 42.7164 49.5963C42.7164 47.8571 44.1263 46.4473 45.8655 46.4473C47.6046 46.4473 49.0145 47.8571 49.0145 49.5963Z" fill="#06D6A1"/>
<rect x="33.1371" y="53.5977" width="10.3059" height="1.71766" rx="0.858828" fill="#06D6A0"/>
</svg>
