<svg width="180" height="175" viewBox="0 0 180 175" fill="none" xmlns="http://www.w3.org/2000/svg">
<g filter="url(#filter0_d_36_946)">
<mask id="mask0_36_946" style="mask-type:alpha" maskUnits="userSpaceOnUse" x="25" y="29" width="141" height="136">
<path d="M74.677 36.3899C41.2653 46.557 22.422 81.8847 32.5888 115.296C42.756 148.708 78.0838 167.553 111.496 157.386C118.801 155.163 127.965 151.965 136.289 147.75C144.471 143.608 152.502 138.161 156.784 131.138C161.772 122.956 162.019 113.644 160.616 104.72C159.225 95.8673 156.06 86.6166 153.584 78.478C143.416 45.0664 108.089 26.2228 74.677 36.3899Z" fill="#D99B9B" stroke="white" stroke-width="8.67913"/>
</mask>
<g mask="url(#mask0_36_946)">
<path d="M74.6772 36.3895C41.2654 46.5566 22.4212 81.8846 32.5881 115.296C42.7552 148.708 78.084 167.552 111.496 157.385C127.227 152.598 143.645 143.016 151.577 128.738C159.891 113.772 158.572 94.8716 153.584 78.4776C143.416 45.0662 108.089 26.2226 74.6772 36.3895Z" fill="#93B0E2" stroke="white" stroke-width="8.67913"/>
<path d="M142.702 95.0666L158.2 130.61L154.337 132.388L95.7399 159.358L90.3708 161.829L89.6208 155.967L85.4566 123.435L85.0432 120.207L142.702 95.0666Z" fill="#2C287C" stroke="white" stroke-width="8.67914"/>
</g>
<path d="M90.4483 76.036C87.6547 77.5515 85.1454 80.3595 83.5599 82.326C82.7059 83.3853 81.9917 84.3656 81.4906 85.0807C81.239 85.4398 81.0385 85.7368 80.8978 85.9478C80.8276 86.0532 80.7714 86.1374 80.7318 86.198C80.712 86.2284 80.6957 86.2532 80.684 86.2713C80.6783 86.2802 80.6741 86.288 80.6704 86.2938C80.6685 86.2967 80.6671 86.2996 80.6657 86.3017C80.6651 86.3026 80.664 86.3032 80.6636 86.3039L80.6623 86.3057C80.6626 86.3067 80.712 86.3391 84.3175 88.6445L80.6619 86.307L79.311 88.4198L86.1505 101.582L90.321 96.4895L90.3214 96.4882L90.3223 96.4878L90.3219 96.4869C90.3227 96.4859 90.3245 96.4853 90.3257 96.4838C90.3315 96.4768 90.3418 96.4644 90.3562 96.4471C90.385 96.4124 90.4308 96.3576 90.4921 96.2851C90.6151 96.1397 90.8005 95.9238 91.0366 95.6555C91.5107 95.1167 92.1809 94.378 92.9628 93.5826C94.6254 91.8915 96.4317 90.3176 97.7975 89.5968C99.1958 88.8589 101.571 88.2566 103.964 87.8483C105.089 87.6564 106.102 87.5256 106.832 87.4433C107.196 87.4023 107.486 87.3738 107.68 87.3558C107.777 87.3469 107.85 87.3402 107.896 87.3363C107.919 87.3344 107.935 87.3337 107.945 87.3329C107.947 87.3327 107.949 87.3312 107.95 87.3311L107.95 87.3324L114.501 86.8337L107.661 73.6699L105.138 73.5742L104.974 77.911C105.129 73.791 105.136 73.5854 105.136 73.5751L105.135 73.5747C105.134 73.5747 105.133 73.5744 105.131 73.5743C105.129 73.5742 105.125 73.5742 105.121 73.5741C105.114 73.5738 105.105 73.5736 105.093 73.5732C105.071 73.5724 105.04 73.5713 105.002 73.5703C104.925 73.5681 104.819 73.5657 104.687 73.5634C104.42 73.5586 104.043 73.5543 103.582 73.5574C102.664 73.5637 101.389 73.5979 99.9641 73.7095C97.3204 73.9165 93.396 74.437 90.4483 76.036Z" fill="#2C287C" stroke="white" stroke-width="8.67913"/>
<mask id="path-5-outside-1_36_946" maskUnits="userSpaceOnUse" x="39.6509" y="51.1752" width="116.532" height="83.0937" fill="black">
<rect fill="white" x="39.6509" y="51.1752" width="116.532" height="83.0937"/>
<path d="M91.0852 95.9263C87.5159 87.9522 85.5237 80.4961 68.1521 89.4491C50.7805 98.4021 54.2611 102.929 57.8304 110.903C61.4 118.877 73.104 121.896 81.0781 118.326C89.0524 114.757 94.6546 103.901 91.0852 95.9263ZM138.751 74.2965C135.182 66.3224 133.19 58.8662 115.819 67.8191C98.4469 76.7721 101.927 81.298 105.496 89.2721C109.065 97.2462 120.77 100.266 128.744 96.6966C136.718 93.1272 142.32 82.2708 138.751 74.2965Z"/>
</mask>
<path d="M91.0852 95.9263C87.5159 87.9522 85.5237 80.4961 68.1521 89.4491C50.7805 98.4021 54.2611 102.929 57.8304 110.903C61.4 118.877 73.104 121.896 81.0781 118.326C89.0524 114.757 94.6546 103.901 91.0852 95.9263ZM138.751 74.2965C135.182 66.3224 133.19 58.8662 115.819 67.8191C98.4469 76.7721 101.927 81.298 105.496 89.2721C109.065 97.2462 120.77 100.266 128.744 96.6966C136.718 93.1272 142.32 82.2708 138.751 74.2965Z" fill="white"/>
<path d="M91.0852 95.9263L83.1634 99.4722L83.1634 99.4722L91.0852 95.9263ZM68.1521 89.4491L64.176 81.7343L64.176 81.7342L68.1521 89.4491ZM57.8304 110.903L49.9088 114.449L49.9087 114.449L57.8304 110.903ZM81.0781 118.326L84.624 126.248L84.6239 126.248L81.0781 118.326ZM138.751 74.2965L130.829 77.8424L130.829 77.8424L138.751 74.2965ZM115.819 67.8191L111.843 60.1042L111.843 60.1042L115.819 67.8191ZM105.496 89.2721L113.418 85.7262L113.418 85.7263L105.496 89.2721ZM128.744 96.6966L132.29 104.618L132.289 104.618L128.744 96.6966ZM91.0852 95.9263L83.1634 99.4722C82.079 97.0494 81.5822 95.7853 80.9031 94.5967C80.3159 93.5689 80.164 93.6947 80.5596 93.9158C81.1066 94.2216 81.2046 93.9268 79.9512 94.13C78.5351 94.3596 76.074 95.1302 72.1281 97.1639L68.1521 89.4491L64.176 81.7342C73.0433 77.1642 81.683 74.6575 89.0295 78.7642C92.5407 80.727 94.6418 83.6524 95.9749 85.9856C97.216 88.158 98.3067 90.8161 99.0069 92.3805L91.0852 95.9263ZM68.1521 89.4491L72.1282 97.1639C68.0677 99.2565 65.732 100.841 64.4326 101.981C63.1789 103.081 63.3773 103.339 63.5315 102.753C63.694 102.136 63.4615 101.893 63.7356 102.723C64.1076 103.849 64.6361 104.864 65.7522 107.357L57.8304 110.903L49.9087 114.449C49.2401 112.955 47.995 110.413 47.2533 108.168C46.4139 105.627 45.7276 102.198 46.7454 98.333C47.7547 94.4998 50.117 91.4488 52.9849 88.9327C55.8071 86.4567 59.5506 84.1181 64.176 81.7343L68.1521 89.4491ZM57.8304 110.903L65.752 107.357C66.2304 108.425 67.6105 109.828 70.2871 110.627C72.9544 111.424 75.7031 111.223 77.5324 110.405L81.0781 118.326L84.6239 126.248C78.4791 128.999 71.3887 129.073 65.3181 127.259C59.2568 125.448 53.0001 121.354 49.9088 114.449L57.8304 110.903ZM81.0781 118.326L77.5322 110.405C79.344 109.594 81.3475 107.66 82.5538 105.091C83.7666 102.506 83.6324 100.52 83.1634 99.4722L91.0852 95.9263L99.0069 92.3804C102.107 99.307 100.957 106.736 98.2673 112.466C95.5712 118.21 90.7865 123.49 84.624 126.248L81.0781 118.326ZM138.751 74.2965L130.829 77.8424C129.745 75.4194 129.248 74.1554 128.569 72.9666C127.981 71.9387 127.83 72.0645 128.225 72.2858C128.773 72.5917 128.871 72.2969 127.618 72.5001C126.202 72.7296 123.741 73.5003 119.795 75.5339L115.819 67.8191L111.843 60.1042C120.71 55.5344 129.35 53.0275 136.696 57.1345C140.207 59.0975 142.308 62.023 143.641 64.3561C144.882 66.5283 145.972 69.1866 146.673 70.7507L138.751 74.2965ZM115.819 67.8191L119.795 75.5339C115.734 77.6266 113.398 79.2112 112.099 80.3513C110.845 81.4513 111.043 81.709 111.197 81.1235C111.36 80.5058 111.127 80.2633 111.401 81.093C111.773 82.2188 112.302 83.233 113.418 85.7262L105.496 89.2721L97.5742 92.818C96.9055 91.3242 95.6605 88.7823 94.9189 86.537C94.0795 83.9956 93.3934 80.5669 94.4115 76.7019C95.4211 72.869 97.7837 69.8182 100.652 67.3023C103.474 64.8266 107.217 62.4881 111.843 60.1042L115.819 67.8191ZM105.496 89.2721L113.418 85.7263C113.896 86.7949 115.276 88.1974 117.953 88.9972C120.62 89.7943 123.369 89.5934 125.198 88.7747L128.744 96.6966L132.289 104.618C126.144 107.369 119.054 107.443 112.983 105.629C106.922 103.818 100.665 99.7235 97.5742 92.818L105.496 89.2721ZM128.744 96.6966L125.198 88.7748C127.01 87.9639 129.013 86.0306 130.219 83.4607C131.432 80.8766 131.298 78.8901 130.829 77.8424L138.751 74.2965L146.673 70.7507C149.773 77.6772 148.622 85.106 145.933 90.836C143.237 96.5802 138.452 101.86 132.29 104.618L128.744 96.6966Z" fill="white" mask="url(#path-5-outside-1_36_946)"/>
<rect x="3.01454" y="-5.34567" width="13.8608" height="16.6349" transform="matrix(-0.963255 0.26859 0.26859 0.963255 148.018 62.0364)" fill="#595F43" stroke="white" stroke-width="8.67913"/>
<path d="M88.9303 10.8952C77.545 13.6982 70.0508 18.2333 65.3336 22.2353C62.984 24.2287 61.3459 26.0711 60.2687 27.4656C60.0917 27.6948 59.9312 27.9128 59.7839 28.1164C59.157 28.2488 58.3896 28.4162 57.5079 28.6242C54.9949 29.217 51.5245 30.1308 47.6895 31.42C40.1893 33.9414 30.6137 38.1144 24.3741 44.6272C18.6349 50.6177 12.9703 58.1517 10.5725 68.2707C8.16346 78.4375 9.18132 90.6509 15.7473 105.783C22.4324 121.189 32.108 129.819 40.2634 134.575C44.3178 136.94 47.964 138.329 50.634 139.132C51.9701 139.534 53.0663 139.791 53.8522 139.95C54.2453 140.029 54.562 140.085 54.7926 140.122C54.9076 140.14 55.0014 140.154 55.073 140.164C55.1086 140.169 55.139 140.173 55.1635 140.176C55.1757 140.178 55.187 140.179 55.1964 140.181C55.2009 140.181 55.2052 140.181 55.209 140.182C55.2108 140.182 55.2134 140.183 55.2146 140.183C55.2172 140.184 55.2202 140.183 55.7452 135.875L55.2198 140.184L61.3289 140.928L59.9787 134.924L45.7386 71.5728L70.4477 55.019L99.2063 40.9077L139.606 73.0331L146.478 85.1368L154.565 82.5218L150.251 82.9944L154.565 82.5209L154.565 82.5187C154.565 82.5173 154.565 82.5151 154.565 82.5128C154.564 82.5082 154.563 82.502 154.562 82.4942C154.56 82.4784 154.558 82.4556 154.555 82.427C154.548 82.3697 154.539 82.287 154.527 82.1804C154.502 81.9664 154.464 81.6554 154.413 81.2574C154.313 80.4615 154.162 79.3157 153.954 77.8981C153.538 75.0654 152.896 71.1313 151.991 66.7217C150.206 58.0305 147.303 47.009 142.844 39.0167C138.401 31.054 131.002 22.6629 121.767 16.9201C112.49 11.1517 101.082 7.90364 88.9303 10.8952ZM56.2782 131.569C56.2807 131.569 56.2838 131.57 56.2856 131.57C56.2889 131.57 56.2911 131.571 56.2921 131.571C56.2907 131.571 56.2872 131.571 56.2816 131.57C56.2797 131.57 56.2775 131.569 56.2751 131.569C56.2759 131.569 56.2772 131.569 56.2782 131.569Z" fill="#131045" stroke="white" stroke-width="8.67913"/>
<path d="M85.911 40.0632L81.4796 46.2817L81.4787 46.2807C81.4771 46.283 81.4744 46.2881 81.4697 46.2946C81.4598 46.3088 81.4437 46.3331 81.4208 46.366C81.3745 46.4323 81.3028 46.5357 81.2094 46.673C81.0221 46.9482 80.7474 47.3582 80.4137 47.8775C79.7441 48.9196 78.8458 50.3845 77.9351 52.0705C76.0257 55.605 74.3994 59.5031 74.1814 62.4316C74.0929 63.6206 74.3227 65.3198 74.905 67.4217C75.4718 69.4677 76.2953 71.6271 77.1702 73.6369C78.0404 75.6358 78.9324 77.4201 79.608 78.7061C79.9445 79.3465 80.2244 79.8582 80.4177 80.2052C80.5143 80.3785 80.5893 80.5108 80.6383 80.5966C80.6628 80.6395 80.6812 80.671 80.6923 80.6902C80.6978 80.6997 80.7015 80.7063 80.7035 80.7098C80.7045 80.7115 80.7051 80.7127 80.7052 80.7128C80.7052 80.7128 80.7039 80.7107 80.6993 80.7133L74.0122 86.0861L76.9561 82.8975C74.1499 85.9368 74.0179 86.0788 74.0113 86.0851L74.0094 86.0839C74.0086 86.0831 74.0079 86.0818 74.0068 86.0808C74.0041 86.0783 74.0003 86.0752 73.9958 86.071C73.9869 86.0628 73.9742 86.0513 73.9585 86.0366C73.9265 86.0069 73.8805 85.9636 73.822 85.9088C73.705 85.7992 73.5363 85.6412 73.3236 85.4387C72.8983 85.0336 72.2942 84.451 71.5679 83.7315C70.119 82.2962 68.1653 80.2971 66.1658 78.0572C64.1781 75.8304 62.0808 73.294 60.3821 70.7906C58.7735 68.4198 57.1595 65.5653 56.7183 62.7908C55.6689 56.1919 57.9546 50.3691 60.2056 46.4532C61.351 44.4607 62.5501 42.8498 63.4665 41.7317C63.9268 41.1701 64.322 40.7257 64.6117 40.4119C64.7566 40.2548 64.8764 40.1302 64.9647 40.0391C65.0088 39.9936 65.0455 39.956 65.0738 39.9276C65.0878 39.9135 65.0992 39.9011 65.1091 39.8913C65.114 39.8864 65.119 39.8825 65.1229 39.8787C65.1248 39.8768 65.1266 39.8749 65.1282 39.8733C65.129 39.8725 65.1299 39.871 65.1304 39.8705C65.1315 39.8695 65.1325 39.8686 67.7815 42.5586L65.1325 39.8687L66.5505 38.4723L85.911 40.0632Z" fill="#2C287C" stroke="white" stroke-width="8.67913"/>
<path d="M67.4522 38.3494C71.4392 32.6718 78.6265 25.6201 87.6813 21.018C96.8076 16.3796 108.172 14.0819 120.029 18.6993C133.599 23.9841 140.832 32.0931 144.546 40.0226C148.198 47.8178 148.272 55.0709 148.249 58.3743C148.224 61.8373 147.601 66.8676 147.03 70.8297C146.738 72.8543 146.448 74.6777 146.231 75.994C146.122 76.6527 146.032 77.1862 145.968 77.5565C145.936 77.7416 145.91 77.8859 145.893 77.985C145.884 78.0345 145.878 78.0733 145.873 78.0995C145.871 78.1125 145.869 78.1224 145.867 78.1294C145.867 78.133 145.866 78.1363 145.866 78.1383L145.865 78.141L144.103 88.0498L138.108 79.9668L138.107 79.9665C138.105 79.965 138.104 79.9614 138.101 79.9574C138.095 79.9493 138.084 79.9363 138.071 79.9185C138.044 79.8829 138.004 79.828 137.949 79.7552C137.839 79.6093 137.674 79.3907 137.458 79.1081C137.026 78.5427 136.391 77.7214 135.589 76.7092C133.983 74.6825 131.716 71.903 129.075 68.8944C123.694 62.7634 117.11 56.0929 111.525 52.6405C109.535 51.4109 106.198 50.5902 101.74 50.299C97.4042 50.0158 92.5315 50.2609 87.8854 50.7396C83.2589 51.2163 78.9676 51.9129 75.8265 52.4924C74.2592 52.7816 72.9859 53.0403 72.1097 53.2254C71.6717 53.318 71.3331 53.3921 71.1074 53.4423C70.9947 53.4674 70.91 53.4865 70.8552 53.499C70.828 53.5052 70.8082 53.51 70.7959 53.5128C70.7898 53.5142 70.7854 53.5157 70.7831 53.5162C70.7819 53.5165 70.7811 53.5164 70.7809 53.5164C70.7809 53.5164 70.7815 53.5162 70.7812 53.5151L68.9497 53.9424L67.3871 52.8967L69.7989 49.2897L67.6856 52.4445C67.3905 52.8831 67.3816 52.893 67.3797 52.8921C67.3785 52.8913 67.3746 52.8892 67.3723 52.8875C67.3675 52.8843 67.3626 52.8804 67.3577 52.8771C67.3479 52.8704 67.3379 52.8636 67.3277 52.8566C67.3072 52.8424 67.2854 52.8277 67.263 52.8117C67.2182 52.7796 67.1692 52.743 67.1175 52.7032C67.0143 52.6239 66.8975 52.528 66.772 52.4155C66.5214 52.1908 66.2297 51.8928 65.9354 51.5131C65.3366 50.7402 64.7487 49.6523 64.4799 48.2359C63.9309 45.3424 64.859 42.0423 67.4522 38.3494Z" fill="#2C287C" stroke="white" stroke-width="8.67913"/>
<path d="M58.4022 35.8451C51.6197 37.2551 44.4361 40.1828 38.9359 45.9969C33.3575 51.8937 29.9326 60.3135 29.9326 71.8442C29.9326 94.028 36.7341 106.622 44.2644 113.64C47.9729 117.096 51.7106 119.058 54.5672 120.158C55.9945 120.708 57.2061 121.045 58.0925 121.248C58.5361 121.35 58.9001 121.419 59.1706 121.464C59.3059 121.486 59.4185 121.503 59.5058 121.515C59.5494 121.521 59.5867 121.526 59.6178 121.53C59.6333 121.532 59.6479 121.534 59.6603 121.535C59.6661 121.536 59.6717 121.536 59.6768 121.537C59.6793 121.537 59.6831 121.538 59.6846 121.538C59.6864 121.538 59.6879 121.538 59.7496 120.999L60.1752 117.226L59.6924 121.539L65.1319 122.148L64.4843 116.712C64.4842 116.712 64.4833 116.711 64.4831 116.71C64.4828 116.707 64.4829 116.703 64.4823 116.697C64.4809 116.686 64.4788 116.668 64.4759 116.644C64.4703 116.596 64.4615 116.523 64.4504 116.427C64.4282 116.235 64.3963 115.95 64.3549 115.581C64.2721 114.842 64.1539 113.767 64.0157 112.431C63.7391 109.757 63.3805 106.041 63.0526 101.88C62.3906 93.4805 61.8778 83.5374 62.3461 76.6323C62.5038 74.3071 63.7971 71.086 66.1974 67.2307C68.5298 63.4846 71.6162 59.5938 74.7607 56.0239C77.8921 52.4688 81.0072 49.3141 83.3448 47.0448C84.5111 45.9127 85.4782 45.0061 86.15 44.386C86.4859 44.076 86.748 43.8374 86.9234 43.6789C87.0108 43.5999 87.0767 43.5407 87.1197 43.5022C87.1411 43.4831 87.1571 43.4691 87.1668 43.4605C87.1716 43.4562 87.1748 43.4528 87.1767 43.4511L87.1785 43.4503L93.5772 37.7747L85.217 35.9631L84.2984 40.204C85.2174 35.9629 85.2153 35.962 85.2132 35.9615C85.2121 35.9613 85.2102 35.9607 85.2085 35.9603C85.2047 35.9595 85.2 35.9588 85.1946 35.9576C85.1841 35.9554 85.1706 35.9525 85.1541 35.9491C85.1208 35.9421 85.0747 35.9327 85.0177 35.9211C84.9039 35.898 84.7437 35.866 84.5401 35.8276C84.1324 35.7508 83.55 35.6471 82.8178 35.5329C81.3553 35.3047 79.2851 35.0331 76.8072 34.8468C71.8847 34.4768 65.1919 34.4335 58.4022 35.8451Z" fill="#2C287C" stroke="white" stroke-width="8.67914"/>
<path d="M79.7899 47.4748L87.1854 49.3757L87.1854 49.3743C87.1882 49.375 87.1936 49.3771 87.2013 49.3792C87.218 49.3836 87.246 49.3918 87.2848 49.4022C87.3628 49.4232 87.4842 49.456 87.6442 49.5008C87.9647 49.5906 88.4389 49.7272 89.0287 49.9094C90.2123 50.2749 91.8424 50.8172 93.6251 51.5199C97.3627 52.993 101.118 54.9256 103.172 57.0249C105.182 59.0799 107.02 62.7835 108.414 66.4544C109.078 68.2054 109.589 69.8036 109.933 70.9631C110.104 71.541 110.232 72.0056 110.316 72.3193C110.359 72.476 110.39 72.5947 110.41 72.6711C110.42 72.7088 110.426 72.7363 110.43 72.7526C110.432 72.7608 110.434 72.7667 110.434 72.7692C110.434 72.7691 110.434 72.7683 110.447 72.7651L118.986 71.5893L114.648 71.7316L118.985 71.5886L118.985 71.5817C118.985 71.5778 118.985 71.5723 118.985 71.5658C118.984 71.5528 118.984 71.5343 118.983 71.5112C118.981 71.4649 118.978 71.3987 118.975 71.3137C118.968 71.1431 118.957 70.8966 118.942 70.5837C118.912 69.9581 118.864 69.0651 118.789 67.9799C118.641 65.8145 118.39 62.8562 117.976 59.7142C117.564 56.5923 116.979 53.1827 116.138 50.1517C115.352 47.3146 114.153 44.0678 112.117 41.9319C108.758 38.4101 104.61 36.4484 101.489 35.3682C99.9022 34.8189 98.508 34.4725 97.4972 34.261C96.99 34.1549 96.5733 34.082 96.2722 34.0339C96.1219 34.0099 95.9997 33.9921 95.9085 33.9795C95.863 33.9732 95.8251 33.9678 95.7953 33.964C95.7805 33.9621 95.7674 33.961 95.7567 33.9597C95.7514 33.959 95.7464 33.9581 95.7422 33.9576C95.7401 33.9573 95.7378 33.9571 95.736 33.9568L95.7325 33.9561C95.7311 33.9572 95.7218 34.0268 95.253 37.9783L95.7297 33.9561L93.6479 33.7089L79.7899 47.4748Z" fill="#2C287C" stroke="white" stroke-width="8.67913"/>
<path d="M42.3189 111.613L39.5804 111.896L40.0269 116.212C39.5808 111.896 39.5795 111.896 39.5782 111.896L39.576 111.896C39.5743 111.896 39.572 111.897 39.57 111.897C39.5658 111.898 39.5608 111.898 39.5556 111.898C39.5452 111.899 39.5327 111.901 39.5183 111.902C39.4895 111.906 39.4529 111.911 39.409 111.916C39.321 111.927 39.2028 111.941 39.0591 111.962C38.7723 112.003 38.3779 112.067 37.9077 112.16C36.9801 112.342 35.6946 112.65 34.3294 113.156C31.9465 114.04 27.7027 116.129 26.5477 120.761C25.2958 125.783 27.0768 131.416 29.6487 135.674C32.2208 139.932 36.3775 144.131 41.4053 145.36C46.0429 146.493 49.8669 143.709 51.758 142.011C52.8414 141.039 53.712 140.044 54.3053 139.308C54.606 138.935 54.8458 138.615 55.0158 138.38C55.101 138.263 55.1694 138.166 55.2198 138.093C55.245 138.056 55.2664 138.026 55.2827 138.002C55.2908 137.99 55.298 137.98 55.3039 137.971C55.3068 137.967 55.3088 137.962 55.3112 137.959C55.3123 137.957 55.3142 137.956 55.3152 137.954L55.3164 137.952C55.3171 137.951 55.3175 137.95 51.7046 135.546L55.317 137.95L56.8422 135.658L42.3189 111.613Z" fill="#93B0E2" stroke="white" stroke-width="8.67913"/>
<path d="M70.025 119.082L69.7521 123.413C69.7527 123.413 69.7543 123.414 69.7555 123.414C69.7578 123.414 69.7605 123.414 69.7638 123.414C69.7706 123.415 69.7801 123.415 69.791 123.416C69.8127 123.417 69.8426 123.419 69.8802 123.421C69.9563 123.425 70.0647 123.431 70.2026 123.437C70.4788 123.451 70.8758 123.467 71.3773 123.483C72.3796 123.514 73.8048 123.54 75.528 123.52C78.9611 123.481 83.641 123.263 88.545 122.531C93.4102 121.805 98.7243 120.541 103.303 118.296C107.875 116.055 112.165 112.603 114.111 107.299C115.186 104.37 116.125 101.568 116.392 98.5246C116.669 95.3766 116.211 92.2613 114.988 88.5739C113.721 84.758 112.132 82.2569 109.867 80.3399C108.82 79.4538 107.733 78.7831 106.762 78.2157C105.711 77.6022 104.883 77.1552 103.833 76.4991C99.0715 73.5247 93.5797 73.362 88.5817 74.3103C83.5727 75.2608 78.5706 77.4108 74.2473 79.7196C69.8909 82.0461 66.0257 84.6419 63.264 86.6416C61.878 87.6452 60.757 88.5078 59.9764 89.1248C59.5859 89.4335 59.2798 89.6817 59.0675 89.8555C58.9615 89.9423 58.8784 90.0106 58.8202 90.0589L58.7318 90.1336C58.7293 90.1356 58.727 90.1373 58.7253 90.1388L58.7228 90.1406C58.7219 90.1414 58.7214 90.143 61.5215 93.4583L58.7213 90.1422L57.4079 91.2509L57.2108 92.9575L60.7382 93.3674C57.262 92.9641 57.211 92.9583 57.2102 92.9587L57.2096 92.96C57.2095 92.9608 57.2097 92.962 57.2096 92.9631C57.2093 92.9654 57.2087 92.9685 57.2083 92.9717C57.2076 92.9784 57.207 92.9877 57.2058 92.9983C57.2034 93.0195 57.2004 93.0485 57.1964 93.0847C57.1886 93.1574 57.1773 93.2596 57.1645 93.3886C57.1389 93.6468 57.1049 94.0137 57.0692 94.4656C56.9981 95.3666 56.9193 96.6224 56.8881 98.0467C56.8286 100.766 56.9264 104.587 57.8363 107.706C58.8792 111.282 61.2821 114.947 63.1303 117.458C64.0991 118.775 65.0097 119.898 65.6787 120.694C66.0141 121.093 66.2914 121.413 66.4887 121.638C66.5873 121.75 66.6669 121.838 66.7231 121.9C66.7511 121.932 66.7735 121.957 66.79 121.975C66.7981 121.984 66.8046 121.992 66.8097 121.997C66.8123 122 66.8147 122.003 66.8165 122.005C66.8173 122.006 66.8186 122.007 66.8193 122.007L66.8196 122.008L70.025 119.082ZM70.025 119.082L66.8211 122.01L68.0022 123.302L69.7499 123.413L70.025 119.082Z" fill="white" stroke="white" stroke-width="8.67913"/>
<path d="M118.42 97.6291L118.147 101.96C118.147 101.96 118.149 101.961 118.15 101.961C118.152 101.961 118.155 101.961 118.158 101.961C118.165 101.962 118.175 101.962 118.186 101.962C118.207 101.964 118.237 101.966 118.275 101.968C118.351 101.972 118.459 101.978 118.597 101.984C118.873 101.998 119.27 102.014 119.772 102.03C120.774 102.061 122.199 102.086 123.923 102.067C127.356 102.028 132.036 101.81 136.94 101.078C141.805 100.352 147.119 99.0878 151.698 96.843C156.27 94.6015 160.56 91.1494 162.506 85.8459C163.581 82.917 164.52 80.115 164.787 77.0714C165.064 73.9234 164.606 70.8082 163.382 67.1207C162.116 63.3049 160.526 60.8038 158.262 58.8867C157.215 58.0007 156.128 57.33 155.156 56.7626C154.106 56.149 153.277 55.7021 152.227 55.046C147.466 52.0715 141.974 51.9089 136.976 52.8572C131.967 53.8076 126.965 55.9577 122.642 58.2665C118.286 60.593 114.42 63.1888 111.659 65.1885C110.273 66.1921 109.152 67.0547 108.371 67.6716C107.981 67.9803 107.674 68.2285 107.462 68.4023C107.356 68.4892 107.273 68.5574 107.215 68.6058L107.126 68.6804C107.124 68.6825 107.122 68.6842 107.12 68.6857L107.117 68.6875C107.117 68.6883 107.116 68.6899 109.916 72.0052L107.116 68.6891L105.803 69.7978L105.605 71.5044L109.133 71.9143C105.657 71.511 105.606 71.5052 105.605 71.5056L105.604 71.5069C105.604 71.5077 105.604 71.5089 105.604 71.5099C105.604 71.5123 105.603 71.5153 105.603 71.5186C105.602 71.5253 105.602 71.5345 105.6 71.5451C105.598 71.5664 105.595 71.5954 105.591 71.6316C105.583 71.7043 105.572 71.8064 105.559 71.9354C105.534 72.1936 105.5 72.5605 105.464 73.0125C105.393 73.9135 105.314 75.1692 105.283 76.5936C105.223 79.3128 105.321 83.1335 106.231 86.2534C107.274 89.8292 109.677 93.4936 111.525 96.0051C112.494 97.3215 113.404 98.4452 114.073 99.2412C114.409 99.6402 114.686 99.9603 114.883 100.184C114.982 100.297 115.062 100.385 115.118 100.447C115.146 100.478 115.168 100.504 115.185 100.522C115.193 100.531 115.199 100.538 115.204 100.544C115.207 100.547 115.209 100.55 115.211 100.552C115.212 100.553 115.213 100.554 115.214 100.554L115.214 100.555L118.42 97.6291ZM118.42 97.6291L115.216 100.557L116.397 101.849L118.145 101.96L118.42 97.6291Z" fill="white" stroke="white" stroke-width="8.67913"/>
<path d="M103.749 82.9272C106.611 82.1956 108.961 83.733 110.198 84.9387C111.602 86.3077 112.638 88.1655 113.238 90.1352C113.837 92.1049 114.012 94.225 113.608 96.1443C113.24 97.8891 112.085 100.588 109.097 101.497C106.11 102.406 103.647 100.808 102.37 99.5638C100.966 98.1949 99.9297 96.3369 99.3303 94.3672C98.7309 92.3975 98.5565 90.2775 98.9604 88.3582C99.3277 86.6133 100.483 83.9139 103.47 83.0048L103.749 82.9272Z" fill="black" stroke="white" stroke-width="8.67913"/>
<path d="M152.366 61.895C155.228 61.1634 157.578 62.7008 158.815 63.9065C160.22 65.2754 161.256 67.1333 161.855 69.103C162.455 71.0727 162.629 73.1928 162.225 75.112C161.858 76.8569 160.702 79.5555 157.715 80.4645C154.728 81.3735 152.265 79.776 150.988 78.5315C149.583 77.1626 148.547 75.3047 147.948 73.335C147.348 71.3653 147.174 69.2452 147.578 67.326C147.945 65.5811 149.101 62.8816 152.088 61.9726L152.366 61.895Z" fill="black" stroke="white" stroke-width="8.67913"/>
<rect x="90.2268" y="117.743" width="51.7794" height="18.6438" transform="rotate(-23.1994 90.2268 117.743)" fill="white" stroke="white" stroke-width="8.67913"/>
<rect x="97.6335" y="138.146" width="51.7794" height="18.6438" transform="rotate(-24.7648 97.6335 138.146)" fill="white" stroke="white" stroke-width="8.67913"/>
</g>
<g filter="url(#filter1_d_36_946)">
<mask id="mask1_36_946" style="mask-type:alpha" maskUnits="userSpaceOnUse" x="34" y="37" width="124" height="119">
<path d="M36.741 114.034C46.2104 145.153 79.1139 162.703 110.233 153.234C124.621 148.855 145.821 140.784 153.079 128.879C161.518 115.035 154.524 96.4727 149.433 79.7418C139.963 48.6227 107.06 31.0723 75.941 40.5418C44.822 50.0112 27.2715 82.9147 36.741 114.034Z" fill="#D99B9B"/>
</mask>
<g mask="url(#mask1_36_946)">
<path d="M36.7409 114.034C46.2104 145.153 79.1138 162.703 110.233 153.234C125.444 148.605 140.628 139.513 147.784 126.631C155.268 113.16 154.273 95.6496 149.433 79.742C139.963 48.6229 107.06 31.0725 75.9409 40.542C44.8219 50.0114 27.2714 82.9149 36.7409 114.034Z" fill="#93B0E2"/>
<path d="M89.7617 122.885L140.46 100.779L152.523 128.446L93.926 155.416L89.7617 122.885Z" fill="#2C287C"/>
</g>
<path d="M104.974 77.9116C104.974 77.9116 96.6722 77.5977 92.5181 79.8512C88.5728 81.9915 84.3184 88.6449 84.3184 88.6449L86.9655 93.7391C86.9655 93.7391 91.7719 87.8706 95.7733 85.7592C99.8733 83.5957 107.621 83.0058 107.621 83.0058L104.974 77.9116Z" fill="#2C287C"/>
<mask id="path-24-outside-2_36_946" maskUnits="userSpaceOnUse" x="44.3764" y="55.9005" width="106.881" height="72.6645" fill="black">
<rect fill="white" x="44.3764" y="55.9005" width="106.881" height="72.6645"/>
<path d="M91.0858 95.9268C87.5165 87.9527 85.5244 80.4965 68.1527 89.4495C50.7813 98.4024 54.2615 102.928 57.8308 110.902C61.4002 118.877 73.1045 121.896 81.0787 118.327C89.053 114.757 94.6552 103.901 91.0858 95.9268ZM138.752 74.298C135.182 66.3237 133.19 58.8666 115.818 67.8198C98.4468 76.7727 101.927 81.2994 105.497 89.2736C109.066 97.2475 120.77 100.266 128.744 96.6971C136.719 93.1277 142.321 82.2722 138.752 74.298Z"/>
</mask>
<path d="M91.0858 95.9268C87.5165 87.9527 85.5244 80.4965 68.1527 89.4495C50.7813 98.4024 54.2615 102.928 57.8308 110.902C61.4002 118.877 73.1045 121.896 81.0787 118.327C89.053 114.757 94.6552 103.901 91.0858 95.9268ZM138.752 74.298C135.182 66.3237 133.19 58.8666 115.818 67.8198C98.4468 76.7727 101.927 81.2994 105.497 89.2736C109.066 97.2475 120.77 100.266 128.744 96.6971C136.719 93.1277 142.321 82.2722 138.752 74.298Z" fill="white"/>
<path d="M91.0858 95.9268L87.1503 97.6884L87.1503 97.6884L91.0858 95.9268ZM68.1527 89.4495L66.1774 85.6168L66.1774 85.6168L68.1527 89.4495ZM57.8308 110.902L61.7664 109.141L61.7664 109.141L57.8308 110.902ZM81.0787 118.327L82.8403 122.262L82.8403 122.262L81.0787 118.327ZM138.752 74.298L142.687 72.5364L142.687 72.5365L138.752 74.298ZM115.818 67.8198L113.843 63.987L113.843 63.987L115.818 67.8198ZM105.497 89.2736L101.561 91.0353L101.561 91.0352L105.497 89.2736ZM128.744 96.6971L130.506 100.633L130.506 100.633L128.744 96.6971ZM91.0858 95.9268L87.1503 97.6884C86.1625 95.4816 85.5163 93.8667 84.6958 92.4306C83.9209 91.0744 83.2786 90.4325 82.6912 90.1042C81.6774 89.5374 78.7237 88.8522 70.128 93.2823L68.1527 89.4495L66.1774 85.6168C74.9534 81.0939 81.6816 79.6602 86.8991 82.5768C89.4274 83.9902 91.038 86.1479 92.1834 88.1526C93.2832 90.0775 94.2244 92.3849 95.0213 94.1652L91.0858 95.9268ZM68.1527 89.4495L70.128 93.2823C65.9255 95.4482 63.2355 97.2224 61.5529 98.6985C59.8931 100.155 59.4472 101.115 59.3086 101.641C59.1743 102.151 59.1728 102.833 59.5892 104.093C60.0541 105.5 60.7629 106.899 61.7664 109.141L57.8308 110.902L53.8953 112.664C53.1142 110.919 52.0494 108.761 51.4008 106.798C50.7036 104.687 50.2485 102.182 50.9694 99.445C51.6861 96.7237 53.4042 94.3756 55.8659 92.2159C58.305 90.0762 61.6942 87.9274 66.1774 85.6168L68.1527 89.4495ZM57.8308 110.902L61.7664 109.141C62.9021 111.678 65.5092 113.758 69.0374 114.812C72.5611 115.865 76.4021 115.696 79.3172 114.391L81.0787 118.327L82.8403 122.262C77.7811 124.527 71.7829 124.633 66.5685 123.075C61.3587 121.518 56.329 118.101 53.8953 112.664L57.8308 110.902ZM81.0787 118.327L79.3171 114.391C82.2235 113.09 84.9268 110.315 86.5079 106.947C88.0923 103.571 88.2813 100.215 87.1503 97.6884L91.0858 95.9268L95.0213 94.1652C97.4597 99.6127 96.6323 105.672 94.3144 110.611C91.9931 115.556 87.9082 119.994 82.8403 122.262L81.0787 118.327ZM138.752 74.298L134.816 76.0596C133.828 73.8527 133.182 72.2378 132.362 70.8015C131.587 69.4451 130.944 68.8031 130.357 68.4746C129.343 67.9078 126.389 67.2224 117.794 71.6525L115.818 67.8198L113.843 63.987C122.619 59.464 129.348 58.0305 134.565 60.9476C137.093 62.3611 138.704 64.5189 139.849 66.5237C140.949 68.4486 141.89 70.7561 142.687 72.5364L138.752 74.298ZM115.818 67.8198L117.794 71.6525C113.591 73.8184 110.901 75.5927 109.219 77.0688C107.559 78.525 107.113 79.4855 106.974 80.0117C106.84 80.522 106.839 81.2033 107.255 82.4639C107.72 83.8715 108.429 85.2701 109.432 87.512L105.497 89.2736L101.561 91.0352C100.78 89.2899 99.7152 87.1324 99.0666 85.1687C98.3693 83.058 97.9143 80.553 98.635 77.8158C99.3516 75.0944 101.07 72.7461 103.531 70.5864C105.971 68.4465 109.36 66.2976 113.843 63.987L115.818 67.8198ZM105.497 89.2736L109.432 87.5119C110.568 90.0489 113.175 92.1285 116.703 93.1826C120.227 94.2353 124.068 94.0663 126.983 92.7615L128.744 96.6971L130.506 100.633C125.447 102.897 119.449 103.003 114.235 101.445C109.025 99.8889 103.995 96.4721 101.561 91.0353L105.497 89.2736ZM128.744 96.6971L126.983 92.7615C129.889 91.4606 132.592 88.6855 134.174 85.3172C135.758 81.9419 135.947 78.5862 134.816 76.0594L138.752 74.298L142.687 72.5365C145.125 77.9839 144.298 84.0432 141.98 88.9815C139.659 93.9268 135.574 98.3642 130.506 100.633L128.744 96.6971Z" fill="#2C287C" mask="url(#path-24-outside-2_36_946)"/>
<rect width="5.18165" height="7.95576" transform="matrix(-0.963255 0.26859 0.26859 0.963255 140.665 63.0435)" fill="#595F43"/>
<path d="M40.0277 116.213C40.0277 116.213 31.9468 117.048 30.7592 121.811C29.04 128.706 35.5337 139.457 42.4368 141.144C47.2054 142.31 51.7052 135.546 51.7052 135.546L40.0277 116.213Z" fill="#93B0E2"/>
<path d="M61.5216 93.4589C61.5216 93.4589 87.5711 71.4572 101.534 80.1807C106.007 82.9755 108.695 83.3916 110.869 89.9421C113.043 96.4927 112.174 99.9813 110.037 105.805C104.366 121.261 70.0251 119.083 70.0251 119.083C70.0251 119.083 63.6353 112.09 62.0029 106.493C60.5767 101.603 61.5216 93.4589 61.5216 93.4589Z" fill="white"/>
<path d="M139.055 41.1324C130.823 26.3801 111.439 9.82359 89.9683 15.1095C68.4979 20.3954 62.4186 32.0174 62.4186 32.0174C62.4186 32.0174 38.4683 36.1912 27.5088 47.6304C16.5494 59.0697 7.16156 75.0941 19.7291 104.057C32.2966 133.019 55.7458 135.877 55.7458 135.877L40.8527 69.6235L68.2725 51.2546L99.7593 35.8049L142.965 70.1596L150.253 82.9952C150.253 82.9952 147.286 55.8848 139.055 41.1324Z" fill="#131045"/>
<path d="M73.9565 46.4182C73.9565 46.4182 95.3166 13.7331 118.455 22.744C141.594 31.7548 143.954 52.0835 143.91 58.3445C143.866 64.6054 141.594 77.3821 141.594 77.3821L107.508 59.9338L73.9565 46.4182Z" fill="#2C287C"/>
<path d="M82.869 39.9387C82.869 39.9387 39.2452 37.9641 32.8427 71.5792C26.4403 105.194 58.7456 116.961 58.7456 116.961L72.3058 76.5095L82.869 39.9387Z" fill="#2C287C"/>
<path d="M109.916 72.0048C109.916 72.0048 135.966 50.0031 149.929 58.7266C154.402 61.5214 157.09 61.9375 159.264 68.488C161.438 75.0386 160.569 78.5272 158.432 84.3509C152.761 99.8069 118.42 97.6292 118.42 97.6292C118.42 97.6292 112.03 90.6356 110.398 85.0386C108.972 80.1488 109.916 72.0048 109.916 72.0048Z" fill="white"/>
<ellipse cx="106.284" cy="92.2508" rx="2.92862" ry="5.32475" transform="rotate(-16.9249 106.284 92.2508)" fill="black"/>
<ellipse cx="154.902" cy="71.2181" rx="2.92862" ry="5.32475" transform="rotate(-16.9249 154.902 71.2181)" fill="black"/>
<rect x="95.9255" y="120.022" width="43.1003" height="9.96468" transform="rotate(-23.1994 95.9255 120.022)" fill="white"/>
<rect x="103.392" y="140.27" width="43.1003" height="9.96468" transform="rotate(-24.7648 103.392 140.27)" fill="white"/>
</g>
<defs>
<filter id="filter0_d_36_946" x="1.68874" y="4.46223" width="170.869" height="165.769" filterUnits="userSpaceOnUse" color-interpolation-filters="sRGB">
<feFlood flood-opacity="0" result="BackgroundImageFix"/>
<feColorMatrix in="SourceAlpha" type="matrix" values="0 0 0 0 0 0 0 0 0 0 0 0 0 0 0 0 0 0 127 0" result="hardAlpha"/>
<feOffset dy="2.39544"/>
<feGaussianBlur stdDeviation="1.67681"/>
<feColorMatrix type="matrix" values="0 0 0 0 0 0 0 0 0 0 0 0 0 0 0 0 0 0 0.256 0"/>
<feBlend mode="normal" in2="BackgroundImageFix" result="effect1_dropShadow_36_946"/>
<feBlend mode="normal" in="SourceGraphic" in2="effect1_dropShadow_36_946" result="shape"/>
</filter>
<filter id="filter1_d_36_946" x="10.3695" y="13.1453" width="153.51" height="148.404" filterUnits="userSpaceOnUse" color-interpolation-filters="sRGB">
<feFlood flood-opacity="0" result="BackgroundImageFix"/>
<feColorMatrix in="SourceAlpha" type="matrix" values="0 0 0 0 0 0 0 0 0 0 0 0 0 0 0 0 0 0 127 0" result="hardAlpha"/>
<feOffset dy="2.39544"/>
<feGaussianBlur stdDeviation="1.67681"/>
<feColorMatrix type="matrix" values="0 0 0 0 0 0 0 0 0 0 0 0 0 0 0 0 0 0 0.256 0"/>
<feBlend mode="normal" in2="BackgroundImageFix" result="effect1_dropShadow_36_946"/>
<feBlend mode="normal" in="SourceGraphic" in2="effect1_dropShadow_36_946" result="shape"/>
</filter>
</defs>
</svg>
