<svg width="167" height="185" viewBox="0 0 167 185" fill="none" xmlns="http://www.w3.org/2000/svg">
<g filter="url(#filter0_d_36_1030)">
<circle cx="85.5952" cy="84.0474" r="61.3658" transform="rotate(0.676048 85.5952 84.0474)" fill="#93B1E2" stroke="white" stroke-width="9.85443"/>
<path d="M83.3507 10.6156C95.5216 11.1166 103.462 11.9153 110.019 13.6111C116.7 15.3388 121.707 17.938 128.016 21.5769C141.482 29.3448 161.198 49.6489 157.282 80.6138C155.317 96.1501 146.916 108.892 139.333 117.565C135.51 121.937 131.809 125.373 129.057 127.723C127.679 128.9 126.532 129.81 125.717 130.434C125.31 130.747 124.985 130.988 124.756 131.155C124.641 131.239 124.55 131.305 124.485 131.351C124.452 131.375 124.425 131.393 124.405 131.407C124.395 131.414 124.387 131.421 124.38 131.425C124.377 131.428 124.374 131.429 124.371 131.431C124.37 131.432 124.368 131.434 124.367 131.434C124.363 131.431 124.277 131.31 121.541 127.398L124.366 131.436L110.673 141.011L116.979 125.539L125.245 105.251L124.507 79.9527L110.654 70.4468L109.709 69.7979L109.146 68.798L97.2767 47.6799L70.4569 43.0057L42.0323 64.8359L36.8818 68.791L34.4595 62.765L34.4595 62.764L34.4586 62.762C34.4581 62.7607 34.4575 62.759 34.4567 62.7571C34.455 62.753 34.4527 62.747 34.4501 62.7404C34.4448 62.7273 34.4372 62.7091 34.4282 62.6865C34.4102 62.6411 34.385 62.5771 34.3533 62.4961C34.2899 62.334 34.2008 62.103 34.0928 61.8172C33.877 61.2468 33.5828 60.4483 33.2691 59.5329C32.6667 57.7751 31.8954 55.3127 31.5365 53.1644C29.2254 39.3326 36.191 28.1764 46.4019 20.9538C56.5198 13.797 70.2632 10.0768 83.3507 10.6156Z" fill="#2C287C" stroke="white" stroke-width="9.85443"/>
<g filter="url(#filter1_d_36_1030)">
<path d="M76.5265 36.5587L68.2471 39.7279C68.2471 39.7279 77.4362 46.9776 79.9176 53.6117C82.3455 60.1027 80.3525 71.3522 80.3525 71.3522C80.3525 71.3522 87.6707 53.2257 85.4691 47.1031C83.0708 40.4334 76.5265 36.5587 76.5265 36.5587Z" fill="#2C287C"/>
<path d="M58.3883 38.2264L65.1924 43.594L65.2026 43.6016C65.2135 43.6102 65.2321 43.6262 65.259 43.648C65.3132 43.6916 65.3996 43.761 65.5126 43.8541C65.7388 44.0407 66.0735 44.3217 66.487 44.6816C67.3182 45.4048 68.4495 46.4316 69.645 47.6428C72.1838 50.2149 74.4514 53.0612 75.3029 55.3377C76.1366 57.5665 76.3149 61.1245 76.1253 64.6513C76.036 66.3126 75.8769 67.7966 75.7394 68.8635C75.671 69.3947 75.6082 69.817 75.5643 70.0996C75.5424 70.2408 75.5252 70.3469 75.5141 70.4137C75.5085 70.4471 75.5046 70.4708 75.5023 70.4841L75.4998 70.4966L75.5009 70.4941C75.5015 70.4941 75.5034 70.4935 75.5083 70.4943L84.9216 73.1964L80.353 71.3523C84.9214 73.1967 84.9219 73.1958 84.9221 73.1952L84.9227 73.1939C84.9232 73.1927 84.9234 73.1909 84.924 73.1892C84.9255 73.1857 84.928 73.181 84.9302 73.1753C84.9348 73.1639 84.941 73.1482 84.9489 73.1285C84.9649 73.0884 84.9877 73.0313 85.0165 72.9583C85.0743 72.8122 85.157 72.602 85.26 72.3349C85.466 71.8009 85.7548 71.0377 86.0933 70.1055C86.7678 68.2474 87.6495 65.688 88.4642 62.9114C89.2725 60.1568 90.0496 57.072 90.4731 54.1923C90.8634 51.5384 91.0989 48.1982 90.1054 45.4354C88.5418 41.0872 85.706 37.8186 83.4558 35.7236C82.3073 34.6543 81.2466 33.8304 80.4603 33.2658C80.0656 32.9824 79.7351 32.7614 79.4915 32.6035C79.3696 32.5245 79.2686 32.4613 79.192 32.4139C79.1539 32.3903 79.122 32.3701 79.0961 32.3544C79.083 32.3465 79.0707 32.3393 79.0608 32.3334C79.0561 32.3306 79.0515 32.3283 79.0475 32.3259C79.0455 32.3247 79.0436 32.323 79.0418 32.3219L79.0393 32.3207C79.0345 32.3259 78.9416 32.4801 76.5269 36.5585L79.0364 32.3187L76.9882 31.1066L58.3883 38.2264Z" stroke="white" stroke-width="9.85444"/>
</g>
<g filter="url(#filter2_d_36_1030)">
<path d="M60.92 34.7371L68.247 39.7279C68.247 39.7279 57.6353 44.6665 53.6928 50.5509C49.8353 56.3082 49.1841 67.7143 49.1841 67.7143C49.1841 67.7143 46.237 48.3897 49.7894 42.9387C53.6592 37.0006 60.92 34.7371 60.92 34.7371Z" fill="#2C287C"/>
<path d="M78.1866 40.5371L70.3293 44.1935L70.3176 44.1986C70.305 44.2045 70.2832 44.2158 70.252 44.2307C70.1892 44.2607 70.0892 44.3083 69.9577 44.3729C69.6947 44.5024 69.3042 44.6988 68.8189 44.9537C67.8435 45.4661 66.5062 46.2048 65.0639 47.1081C62.001 49.0264 59.1389 51.274 57.786 53.2931C56.4614 55.27 55.4686 58.6914 54.8408 62.1671C54.5451 63.8042 54.3583 65.285 54.2463 66.3549C54.1905 66.8876 54.1544 67.313 54.1321 67.5981C54.1209 67.7406 54.1131 67.8477 54.1086 67.9154C54.1063 67.9492 54.1046 67.9731 54.1038 67.9865L54.1034 67.9993L54.1029 67.9966C54.1023 67.9965 54.1006 67.9955 54.0956 67.9951L44.3131 68.4568L49.1836 67.7144C44.3132 68.4571 44.313 68.4561 44.3129 68.4554L44.3126 68.4541C44.3124 68.4528 44.3127 68.451 44.3124 68.4492C44.3118 68.4454 44.3105 68.4403 44.3095 68.4343C44.3077 68.4221 44.3053 68.4054 44.3022 68.3843C44.2958 68.3417 44.2868 68.2809 44.2755 68.2031C44.253 68.0477 44.2209 67.8241 44.1822 67.5405C44.1047 66.9734 43.9994 66.1641 43.8847 65.1791C43.6562 63.2156 43.3877 60.5219 43.2343 57.6324C43.082 54.7656 43.0362 51.5848 43.2873 48.6849C43.5188 46.0125 44.0588 42.7079 45.6618 40.2482C48.1847 36.3769 51.697 33.8493 54.3692 32.3287C55.7331 31.5526 56.9551 30.9952 57.8503 30.6269C58.2996 30.442 58.6721 30.303 58.9455 30.2055C59.0824 30.1567 59.1952 30.1184 59.2806 30.0899C59.3231 30.0757 59.3588 30.0634 59.3877 30.0541C59.4022 30.0495 59.4159 30.0453 59.4268 30.0418C59.4321 30.0401 59.4371 30.039 59.4415 30.0376C59.4438 30.0369 59.446 30.0356 59.448 30.035L59.4507 30.0344C59.4541 30.0406 59.5091 30.212 60.9197 34.7369L59.454 30.0331L61.7263 29.3252L78.1866 40.5371Z" stroke="white" stroke-width="9.85443"/>
</g>
<path d="M87.3527 29.4433C82.3392 25.4305 74.1655 21.0486 64.9601 19.3103C55.6648 17.5551 44.9001 18.4431 35.4852 25.6743C24.8391 33.8512 20.4701 42.9503 19.2108 51.0372C17.9774 58.9576 19.8029 65.4511 20.6707 68.3522C21.5904 71.427 23.4319 75.6953 24.9296 78.9884C25.6991 80.6803 26.4161 82.1957 26.9399 83.2882C27.202 83.8348 27.4165 84.2772 27.5664 84.5845C27.6414 84.7382 27.7 84.8589 27.7405 84.9414C27.7608 84.9826 27.777 85.0147 27.7879 85.0368C27.7931 85.0473 27.7973 85.0556 27.8003 85.0615C27.8017 85.0644 27.8035 85.067 27.8043 85.0687L27.8048 85.0709L27.8054 85.0721L32.8744 95.3129L36.8423 84.5976C36.8428 84.5962 36.8441 84.5934 36.8456 84.5894C36.8485 84.5814 36.8529 84.5679 36.8597 84.5498C36.8734 84.5132 36.8955 84.4563 36.9243 84.3802C36.9818 84.228 37.0688 83.9989 37.1838 83.7014C37.4141 83.1059 37.7557 82.2366 38.1935 81.1606C39.0705 79.0055 40.3282 76.0341 41.8513 72.7718C44.9704 66.0916 48.9469 58.7527 52.8154 54.4612C54.0649 53.0751 56.5673 51.5874 60.3177 50.2233C63.9386 48.9065 68.1722 47.8979 72.2988 47.143C76.4034 46.3922 80.2793 45.914 83.136 45.6241C84.5605 45.4796 85.7234 45.3825 86.5237 45.3221C86.9235 45.2919 87.2327 45.2713 87.438 45.258C87.5403 45.2514 87.6169 45.2466 87.666 45.2437C87.6903 45.2422 87.7081 45.2407 87.7187 45.2401C87.7241 45.2398 87.7284 45.2393 87.7301 45.2392L87.7311 45.2395C87.731 45.2395 87.7305 45.2396 87.7304 45.2383L89.8618 45.1218L91.2341 43.4863L87.4584 40.3198L90.7636 43.0872C91.2264 43.473 91.2385 43.4805 91.2402 43.4789C91.2412 43.4777 91.2443 43.474 91.2464 43.4715C91.2505 43.4664 91.2546 43.4608 91.2589 43.4557C91.2674 43.4454 91.2763 43.4343 91.2851 43.4235C91.3026 43.4019 91.3209 43.3793 91.3396 43.3555C91.3772 43.3076 91.417 43.2543 91.4588 43.1972C91.5422 43.0832 91.6338 42.9503 91.7285 42.798C91.9174 42.4941 92.1242 42.107 92.3084 41.6398C92.6834 40.6886 92.9501 39.4372 92.8081 37.9629C92.5172 34.9441 90.6597 32.0902 87.3527 29.4433Z" fill="#2C287C" stroke="white" stroke-width="9.85444"/>
<g filter="url(#filter3_d_36_1030)">
<path d="M61.829 38.2443C61.829 38.2443 94.1397 18.4486 110.673 46.4377C123.073 67.4295 115.533 74.757 112.003 79.1858C108.473 83.6146 101.906 93.3578 101.906 93.3578C101.906 93.3578 98.3235 75.3178 93.7985 62.9719C89.5419 51.3585 61.829 38.2443 61.829 38.2443Z" fill="#2C287C"/>
<path d="M79.3538 26.9677C84.991 26.1617 91.4848 26.2841 97.8502 28.7571C104.3 31.2629 110.257 36.0456 114.915 43.9321C121.427 54.9559 123.198 63.2121 122.181 69.777C121.167 76.3209 117.414 80.302 115.856 82.257C114.202 84.3319 111.761 87.7531 109.673 90.749C108.643 92.2276 107.721 93.571 107.056 94.5443C106.724 95.0304 106.458 95.4239 106.274 95.6949C106.182 95.8305 106.11 95.936 106.063 96.0066C106.039 96.0417 106.021 96.0685 106.009 96.0862C106.003 96.0947 105.999 96.1011 105.996 96.1054C105.994 96.1075 105.993 96.1099 105.992 96.1109L105.992 96.1118L99.3784 105.924L97.0736 94.3177L97.0727 94.3166C97.0724 94.3151 97.0724 94.3123 97.0716 94.3087C97.0702 94.3014 97.0679 94.2893 97.0647 94.2735L96.9181 93.5548C96.814 93.0505 96.659 92.3113 96.4591 91.3849C96.059 89.5311 95.479 86.9301 94.7597 83.9504C93.311 77.9493 91.3358 70.571 89.1719 64.6671C88.5328 62.9237 86.7458 60.5886 83.7207 57.8796C80.804 55.2677 77.1892 52.703 73.5792 50.4141C69.9884 48.1373 66.5088 46.2001 63.9199 44.8292C62.6286 44.1455 61.5662 43.6068 60.8323 43.2416C60.466 43.0593 60.182 42.9204 59.9926 42.8286C59.898 42.7827 59.8265 42.7485 59.7809 42.7266C59.758 42.7157 59.7414 42.7073 59.7314 42.7025L59.7211 42.6984L51.4876 38.8017L59.2549 34.0433L61.829 38.2446C59.2549 34.0432 59.2571 34.042 59.2591 34.0408C59.26 34.0402 59.2618 34.0383 59.2634 34.0373C59.2667 34.0353 59.2707 34.0333 59.275 34.0307C59.2837 34.0254 59.2948 34.0194 59.3075 34.0117C59.3328 33.9965 59.3657 33.9761 59.4065 33.9519C59.4882 33.9034 59.6006 33.8367 59.7426 33.7552C60.0265 33.5922 60.4289 33.3673 60.9372 33.0971C61.9527 32.5576 63.4006 31.834 65.184 31.0645C68.7263 29.536 73.7165 27.7736 79.3538 26.9677Z" stroke="white" stroke-width="9.85444"/>
</g>
<path d="M51.4494 87.346L43.1084 90.9186L45.9102 74.7513L47.839 73.59L50.1108 77.3634C47.8388 73.59 47.8394 73.5896 47.8401 73.5892L47.8446 73.586C47.847 73.5846 47.8503 73.5834 47.8533 73.5816C47.8593 73.578 47.8662 73.5733 47.8744 73.5684C47.8913 73.5584 47.9136 73.5454 47.9395 73.5301C47.9913 73.4997 48.0609 73.4593 48.1466 73.4104C48.3184 73.3123 48.5569 73.1786 48.848 73.0235C49.4242 72.7165 50.2375 72.3077 51.1685 71.9122C52.0834 71.5235 53.2142 71.1037 54.4106 70.8248C55.4639 70.5793 56.9339 70.3532 58.4898 70.6031L58.802 70.6602L59.0941 70.7247C60.5417 71.0728 61.759 71.784 62.6054 72.3619C63.5698 73.0205 64.4362 73.7744 65.1236 74.4277C65.8225 75.092 66.4132 75.7258 66.8272 76.1898C67.0363 76.4242 67.2058 76.6213 67.3272 76.7651C67.3878 76.8369 67.4369 76.896 67.4733 76.9401C67.4914 76.9621 67.5064 76.981 67.5182 76.9954C67.524 77.0026 67.5296 77.0088 67.5338 77.014C67.5359 77.0165 67.5379 77.0189 67.5395 77.0209L67.5427 77.0254C67.5378 77.0304 67.4048 77.1378 64.1224 79.7876L67.5435 77.0266L68.9463 78.7633L66.143 94.9392L59.4875 88.735L59.489 88.7373C59.4878 88.7362 59.4838 88.7324 59.4771 88.7263C59.4627 88.7132 59.4364 88.6886 59.3992 88.6553C59.3245 88.5884 59.2069 88.4846 59.0556 88.3559C58.7491 88.0951 58.3224 87.7471 57.8397 87.3939C57.3478 87.034 56.8578 86.713 56.4217 86.4772C56.0897 86.2977 55.8984 86.2242 55.836 86.2023C55.7911 86.2013 55.5828 86.1955 55.1709 86.2545C54.6723 86.3259 54.0917 86.4616 53.4944 86.6349C52.908 86.8051 52.3767 86.9906 51.9914 87.1347C51.8013 87.2058 51.6528 87.265 51.5578 87.3034C51.5106 87.3224 51.477 87.336 51.4587 87.3437C51.4552 87.3451 51.4517 87.345 51.4494 87.346Z" fill="#2C287C" stroke="white" stroke-width="9.85443"/>
<mask id="path-11-outside-1_36_1030" maskUnits="userSpaceOnUse" x="17.7712" y="55.7785" width="90.5838" height="66.5459" fill="black">
<rect fill="white" x="17.7712" y="55.7785" width="90.5838" height="66.5459"/>
<path d="M62.6265 89.3359C63.5 81.6545 63.1818 74.8325 80.231 77.7282C97.2803 80.624 95.5585 85.3734 94.685 93.0548C93.8115 100.736 84.7493 106.418 77.0679 105.545C69.3866 104.671 61.753 97.0172 62.6265 89.3359ZM30.3436 84.798C31.1771 77.4689 31.2834 71.0057 41.043 73.0285C50.8028 75.0514 49.6028 79.6339 48.7694 86.963C47.9359 94.2918 42.4406 100.072 38.0252 99.5698C33.6098 99.0677 29.5104 92.1269 30.3436 84.798Z"/>
</mask>
<path d="M62.6265 89.3359L52.8352 88.2224L52.8351 88.2225L62.6265 89.3359ZM80.231 77.7282L81.8811 68.0129L81.8811 68.0129L80.231 77.7282ZM94.685 93.0548L84.8937 91.9413L84.8937 91.9413L94.685 93.0548ZM77.0679 105.545L75.9545 115.336L75.9545 115.336L77.0679 105.545ZM30.3436 84.798L20.5523 83.6845L20.5523 83.6849L30.3436 84.798ZM41.043 73.0285L43.0431 63.3792L43.043 63.3792L41.043 73.0285ZM48.7694 86.963L58.5607 88.0765L58.5607 88.0764L48.7694 86.963ZM38.0252 99.5698L36.9117 109.361L36.9124 109.361L38.0252 99.5698ZM62.6265 89.3359L72.4178 90.4493C72.4778 89.9214 72.5325 89.3993 72.5807 88.9439C72.6306 88.4712 72.6746 88.0601 72.7208 87.6689C72.8148 86.873 72.8982 86.3382 72.9832 85.9423C73.1635 85.1022 73.2083 85.6058 72.5504 86.3072C71.7577 87.1524 71.1011 87.0996 71.853 86.9884C72.7899 86.8497 74.8185 86.8045 78.5809 87.4435L80.231 77.7282L81.8811 68.0129C73.128 66.5263 64.1011 66.5062 58.1753 72.824C55.3566 75.8292 54.2516 79.2975 53.7131 81.8064C53.2188 84.1097 52.9932 86.8327 52.8352 88.2224L62.6265 89.3359ZM80.231 77.7282L78.5809 87.4435C82.4875 88.107 84.6855 88.7809 85.8545 89.2924C86.9604 89.7763 86.4506 89.8105 85.8571 88.8747C85.2435 87.9071 85.3451 87.1673 85.3389 87.7146C85.3355 88.0102 85.3054 88.4566 85.2207 89.2142C85.1792 89.5849 85.1312 89.976 85.0737 90.4421C85.0183 90.8909 84.9545 91.4066 84.8937 91.9413L94.685 93.0548L104.476 94.1683C104.624 92.8655 105.021 90.1787 105.046 87.9387C105.076 85.3446 104.706 81.7962 102.501 78.3191C100.316 74.8738 97.0945 72.6976 93.7553 71.2365C90.4794 69.803 86.4991 68.7973 81.8811 68.0129L80.231 77.7282ZM94.685 93.0548L84.8937 91.9413C84.8672 92.1745 84.5594 93.2206 82.882 94.3631C81.2136 95.4994 79.3551 95.8867 78.1814 95.7532L77.0679 105.545L75.9545 115.336C82.4621 116.076 88.9754 114.059 93.9769 110.652C98.9693 107.252 103.629 101.616 104.476 94.1682L94.685 93.0548ZM77.0679 105.545L78.1814 95.7532C77.0292 95.6222 75.2804 94.8226 73.8729 93.3012C72.4534 91.7667 72.3942 90.6566 72.4178 90.4493L62.6265 89.3359L52.8351 88.2225C51.9853 95.6965 55.3062 102.254 59.4053 106.685C63.5166 111.129 69.4253 114.593 75.9545 115.336L77.0679 105.545ZM30.3436 84.798L40.135 85.9115C40.1903 85.4246 40.2425 84.9426 40.2904 84.5027C40.3395 84.0523 40.3846 83.641 40.4308 83.2442C40.5241 82.442 40.6098 81.8079 40.7027 81.2742C40.796 80.739 40.8772 80.4216 40.93 80.2521C40.9828 80.0827 40.9701 80.1831 40.8235 80.4305C40.6632 80.701 40.3546 81.1258 39.8451 81.5446C39.3218 81.9745 38.7722 82.2451 38.3099 82.3895C37.5013 82.6421 37.4841 82.3548 39.0431 82.6779L41.043 73.0285L43.043 63.3792C39.7221 62.6909 36.0318 62.4528 32.4323 63.5774C28.4694 64.8156 25.649 67.378 23.8685 70.3821C22.2825 73.0583 21.636 75.8847 21.2864 77.891C20.9402 79.8783 20.7243 82.1725 20.5523 83.6845L30.3436 84.798ZM41.043 73.0285L39.043 82.6779C40.8395 83.0502 41.2385 83.374 41.031 83.2361C40.8799 83.1358 40.5795 82.9026 40.2613 82.4995C39.9375 82.0893 39.7169 81.6571 39.5846 81.2817C39.3626 80.6516 39.4967 80.4698 39.445 81.4689C39.4217 81.9192 39.3703 82.4775 39.2844 83.2405C39.242 83.6169 39.1952 84.0096 39.1424 84.4514C39.0908 84.8828 39.0339 85.3586 38.9781 85.8495L48.7694 86.963L58.5607 88.0764C58.7267 86.6167 59.0294 84.3829 59.1275 82.4875C59.2302 80.503 59.2106 77.6749 58.1727 74.7302C55.6281 67.5105 49.1368 64.6422 43.0431 63.3792L41.043 73.0285ZM48.7694 86.963L38.9781 85.8494C38.7943 87.4649 38.0751 88.8635 37.3545 89.6794C37.0052 90.0749 36.8298 90.1363 36.9739 90.0629C37.1089 89.9941 37.8828 89.6358 39.138 89.7784L38.0252 99.5698L36.9124 109.361C43.6964 110.132 49.091 106.163 52.1266 102.726C55.4658 98.9457 57.9109 93.7899 58.5607 88.0765L48.7694 86.963ZM38.0252 99.5698L39.1387 89.7785C40.4162 89.9238 41.0924 90.4583 41.1939 90.5438C41.3065 90.6387 41.1385 90.5249 40.8778 90.0443C40.3393 89.0518 39.9535 87.5073 40.135 85.9112L30.3436 84.798L20.5523 83.6849C19.9005 89.4176 21.1479 95.008 23.5546 99.4436C25.7326 103.458 30.1019 108.587 36.9117 109.361L38.0252 99.5698Z" fill="white" mask="url(#path-11-outside-1_36_1030)"/>
<rect x="5.52944" y="-4.2403" width="59.9917" height="15.0027" transform="matrix(-0.991406 -0.130818 -0.130818 0.991406 156.339 89.5141)" fill="#2C287C" stroke="white" stroke-width="9.85443"/>
<path d="M125.237 84.5949L128.281 83.8917L129.39 88.6925C128.281 83.8917 128.283 83.8907 128.284 83.8904L128.287 83.8901C128.289 83.8896 128.292 83.8889 128.294 83.8884C128.298 83.8875 128.303 83.8868 128.308 83.8856C128.319 83.8832 128.332 83.88 128.346 83.8768C128.375 83.8705 128.411 83.863 128.453 83.854C128.538 83.8361 128.65 83.8131 128.786 83.7874C129.058 83.7359 129.431 83.6709 129.88 83.6097C130.763 83.4892 132.01 83.3705 133.396 83.4054C135.673 83.4627 140.17 83.9812 142.846 87.7188L143.099 88.0904L143.349 88.4923C145.85 92.6878 145.904 98.1299 144.953 102.518C143.972 107.047 141.55 112.155 137.292 114.882C133.205 117.5 128.684 116.049 126.52 115.13C125.244 114.588 124.158 113.963 123.404 113.488C123.021 113.247 122.708 113.034 122.482 112.875C122.369 112.795 122.276 112.728 122.206 112.676C122.172 112.65 122.142 112.628 122.119 112.61C122.107 112.601 122.096 112.594 122.088 112.587L122.071 112.574L122.068 112.572C122.067 112.571 122.066 112.57 125.062 108.66L122.065 112.571L119.586 110.67L125.237 84.5949Z" fill="#93B1E2" stroke="white" stroke-width="9.85443"/>
<path d="M94.4245 14.9234C82.2269 13.4998 70.5675 15.728 61.5504 20.7286C52.5422 25.7244 45.8263 33.7352 44.6493 43.8185C43.4724 53.9021 48.1628 63.2449 55.7785 70.181C63.4016 77.1238 74.2345 81.9772 86.4321 83.4009C98.6297 84.8245 110.289 82.5962 119.306 77.5957C128.315 72.5998 135.031 64.5884 136.207 54.5048C137.384 44.4213 132.694 35.0793 125.078 28.1433C117.455 21.2005 106.622 16.347 94.4245 14.9234Z" fill="#6B8ABF" stroke="white" stroke-width="9.85443"/>
<rect x="5.4652" y="-4.32279" width="20.0515" height="15.1453" transform="matrix(-0.993258 -0.115928 -0.115928 0.993258 125.422 32.3574)" fill="#D9D9D9" stroke="white" stroke-width="9.85443"/>
<rect x="5.4652" y="-4.32279" width="20.0515" height="15.1453" transform="matrix(-0.993258 -0.115928 -0.115928 0.993258 122.916 53.8315)" fill="#D9D9D9" stroke="white" stroke-width="9.85443"/>
<rect x="0.1889" y="-6.96558" width="20.0515" height="15.1453" transform="matrix(-0.726016 0.687678 0.687678 0.726016 106.121 29.3015)" fill="#D9D9D9" stroke="white" stroke-width="9.85444"/>
<rect x="120.065" y="26.5766" width="20.0515" height="15.1453" transform="rotate(56.7609 120.065 26.5766)" fill="#D9D9D9" stroke="white" stroke-width="9.85443"/>
<rect x="96.7972" y="62.046" width="20.0515" height="15.1453" transform="rotate(-123.239 96.7972 62.046)" fill="#D9D9D9" stroke="white" stroke-width="9.85443"/>
<rect x="-0.1889" y="6.96558" width="20.0515" height="15.1453" transform="matrix(0.726016 -0.687678 -0.687678 -0.726016 120.595 69.1765)" fill="#D9D9D9" stroke="white" stroke-width="9.85444"/>
<mask id="path-22-outside-2_36_1030" maskUnits="userSpaceOnUse" x="84.4093" y="20.7545" width="47.695" height="47.695" fill="black">
<rect fill="white" x="84.4093" y="20.7545" width="47.695" height="47.695"/>
<path d="M109.729 33.1957C103.497 32.4685 97.8555 36.9307 97.128 43.1625C96.4006 49.3944 100.863 55.0367 107.095 55.7642C113.327 56.4916 118.968 52.0284 119.695 45.7965C120.423 39.5646 115.961 33.9231 109.729 33.1957ZM109.115 38.454C112.376 38.8346 114.711 41.7872 114.331 45.0484C113.95 48.3098 110.998 50.6451 107.737 50.2644C104.475 49.8837 102.14 46.9313 102.521 43.67C102.901 40.4088 105.854 38.0734 109.115 38.454Z"/>
</mask>
<path d="M109.729 33.1957C103.497 32.4685 97.8555 36.9307 97.128 43.1625C96.4006 49.3944 100.863 55.0367 107.095 55.7642C113.327 56.4916 118.968 52.0284 119.695 45.7965C120.423 39.5646 115.961 33.9231 109.729 33.1957ZM109.115 38.454C112.376 38.8346 114.711 41.7872 114.331 45.0484C113.95 48.3098 110.998 50.6451 107.737 50.2644C104.475 49.8837 102.14 46.9313 102.521 43.67C102.901 40.4088 105.854 38.0734 109.115 38.454Z" fill="#D9D9D9"/>
<path d="M109.729 33.1957L110.871 23.4077L110.871 23.4077L109.729 33.1957ZM97.128 43.1625L87.34 42.0201L87.34 42.0198L97.128 43.1625ZM107.095 55.7642L105.952 65.5522L105.952 65.5522L107.095 55.7642ZM119.695 45.7965L129.483 46.9386L129.483 46.9389L119.695 45.7965ZM109.115 38.454L110.257 28.6659L110.257 28.666L109.115 38.454ZM114.331 45.0484L124.119 46.1902L124.119 46.1908L114.331 45.0484ZM107.737 50.2644L106.594 60.0524L106.594 60.0524L107.737 50.2644ZM102.521 43.67L92.7325 42.5275L92.7326 42.5269L102.521 43.67ZM109.729 33.1957L108.586 42.9837C107.76 42.8873 107.012 43.4788 106.916 44.3051L97.128 43.1625L87.34 42.0198C88.6985 30.3826 99.2334 22.0496 110.871 23.4077L109.729 33.1957ZM97.128 43.1625L106.916 44.3049C106.819 45.132 107.412 45.8799 108.237 45.9762L107.095 55.7642L105.952 65.5522C94.3136 64.1936 85.9818 53.6568 87.34 42.0201L97.128 43.1625ZM107.095 55.7642L108.237 45.9762C109.062 46.0725 109.811 45.4814 109.907 44.654L119.695 45.7965L129.483 46.9389C128.125 58.5755 117.591 66.9106 105.952 65.5522L107.095 55.7642ZM119.695 45.7965L109.907 44.6543C110.004 43.8277 109.412 43.0801 108.586 42.9837L109.729 33.1957L110.871 23.4077C122.509 24.766 130.841 35.3014 129.483 46.9386L119.695 45.7965ZM109.115 38.454L110.257 28.666C118.925 29.6776 125.13 37.5243 124.119 46.1902L114.331 45.0484L104.543 43.9066C104.293 46.0501 105.827 47.9916 107.973 48.242L109.115 38.454ZM114.331 45.0484L124.119 46.1908C123.107 54.8579 115.261 61.064 106.594 60.0524L107.737 50.2644L108.879 40.4764C106.735 40.2261 104.793 41.7616 104.543 43.906L114.331 45.0484ZM107.737 50.2644L106.594 60.0524C97.9272 59.0406 91.7209 51.1948 92.7325 42.5275L102.521 43.67L112.309 44.8124C112.559 42.6677 111.023 40.7267 108.879 40.4764L107.737 50.2644ZM102.521 43.67L92.7326 42.5269C93.7446 33.8609 101.59 27.6546 110.257 28.6659L109.115 38.454L107.973 48.242C110.118 48.4923 112.058 46.9567 112.308 44.813L102.521 43.67Z" fill="white" mask="url(#path-22-outside-2_36_1030)"/>
<rect x="4.5242" y="-5.29967" width="23.2883" height="16.8247" transform="matrix(-0.996899 0.0786931 0.0786931 0.996899 90.9429 30.8238)" fill="#D9D9D9" stroke="white" stroke-width="9.85443"/>
<rect x="4.5242" y="-5.29967" width="23.2883" height="16.8247" transform="matrix(-0.996899 0.0786931 0.0786931 0.996899 93.1846 59.2179)" fill="#D9D9D9" stroke="white" stroke-width="9.85443"/>
<rect x="-1.16413" y="-6.87021" width="23.2883" height="16.8247" transform="matrix(-0.579037 0.815302 0.815302 0.579037 67.0232 32.2987)" fill="#D9D9D9" stroke="white" stroke-width="9.85444"/>
<rect x="86.6549" y="25.4326" width="23.2883" height="16.8247" transform="rotate(45.5903 86.6549 25.4326)" fill="#D9D9D9" stroke="white" stroke-width="9.85443"/>
<rect x="65.6813" y="72.7905" width="23.2883" height="16.8247" transform="rotate(-134.41 65.6813 72.7905)" fill="#D9D9D9" stroke="white" stroke-width="9.85443"/>
<rect x="1.16413" y="6.87021" width="23.2883" height="16.8247" transform="matrix(0.579037 -0.815302 -0.815302 -0.579037 95.1675 75.7794)" fill="#D9D9D9" stroke="white" stroke-width="9.85444"/>
<mask id="path-30-outside-3_36_1030" maskUnits="userSpaceOnUse" x="49.2652" y="22.4804" width="53.7796" height="53.7796" fill="black">
<rect fill="white" x="49.2652" y="22.4804" width="53.7796" height="53.7796"/>
<path d="M75.0077 34.4141C66.7675 35.0646 60.6147 42.272 61.2651 50.5123C61.9156 58.7525 69.1231 64.9053 77.3633 64.2549C85.6034 63.6043 91.7563 56.3968 91.1059 48.1567C90.4554 39.9166 83.2479 33.7638 75.0077 34.4141ZM75.5566 41.3671C79.8689 41.0267 83.6413 44.2471 83.9817 48.5594C84.3219 52.8716 81.1015 56.6432 76.7893 56.9836C72.4772 57.3238 68.7058 54.1042 68.3652 49.7921C68.0248 45.4799 71.2443 41.7076 75.5566 41.3671Z"/>
</mask>
<path d="M75.0077 34.4141C66.7675 35.0646 60.6147 42.272 61.2651 50.5123C61.9156 58.7525 69.1231 64.9053 77.3633 64.2549C85.6034 63.6043 91.7563 56.3968 91.1059 48.1567C90.4554 39.9166 83.2479 33.7638 75.0077 34.4141ZM75.5566 41.3671C79.8689 41.0267 83.6413 44.2471 83.9817 48.5594C84.3219 52.8716 81.1015 56.6432 76.7893 56.9836C72.4772 57.3238 68.7058 54.1042 68.3652 49.7921C68.0248 45.4799 71.2443 41.7076 75.5566 41.3671Z" fill="#D9D9D9"/>
<path d="M75.0077 34.4141L74.2322 24.5902L74.2324 24.5902L75.0077 34.4141ZM61.2651 50.5123L51.4412 51.2878L51.4412 51.2878L61.2651 50.5123ZM77.3633 64.2549L78.1389 74.0787L78.1388 74.0788L77.3633 64.2549ZM91.1059 48.1567L100.93 47.3812L100.93 47.3813L91.1059 48.1567ZM75.5566 41.3671L74.7808 31.5432L74.7811 31.5432L75.5566 41.3671ZM83.9817 48.5594L93.8056 47.7839L93.8056 47.7844L83.9817 48.5594ZM76.7893 56.9836L77.5648 66.8074L77.5645 66.8074L76.7893 56.9836ZM68.3652 49.7921L58.5414 50.5681L58.5414 50.5676L68.3652 49.7921ZM75.0077 34.4141L75.7832 44.238C72.9685 44.4602 70.8668 46.9221 71.089 49.7368L61.2651 50.5123L51.4412 51.2878C50.3625 37.6219 60.5664 25.669 74.2322 24.5902L75.0077 34.4141ZM61.2651 50.5123L71.089 49.7368C71.3112 52.5515 73.7732 54.6532 76.5878 54.431L77.3633 64.2549L78.1388 74.0788C64.4729 75.1575 52.5201 64.9535 51.4412 51.2878L61.2651 50.5123ZM77.3633 64.2549L76.5877 54.431C79.4024 54.2088 81.5042 51.7466 81.282 48.9321L91.1059 48.1567L100.93 47.3813C102.008 61.047 91.8044 72.9998 78.1389 74.0787L77.3633 64.2549ZM91.1059 48.1567L81.282 48.9322C81.0598 46.1177 78.5979 44.0158 75.7831 44.238L75.0077 34.4141L74.2324 24.5902C87.8979 23.5117 99.851 33.7154 100.93 47.3812L91.1059 48.1567ZM75.5566 41.3671L74.7811 31.5432C84.519 30.7745 93.0369 38.046 93.8056 47.7839L83.9817 48.5594L74.1578 49.3349C74.2457 50.4481 75.2188 51.2788 76.332 51.191L75.5566 41.3671ZM83.9817 48.5594L93.8056 47.7844C94.5739 57.5229 87.3014 66.0388 77.5648 66.8074L76.7893 56.9836L76.0138 47.1597C74.9016 47.2475 74.0699 48.2202 74.1578 49.3344L83.9817 48.5594ZM76.7893 56.9836L77.5645 66.8074C67.8268 67.5759 59.3105 60.3051 58.5414 50.5681L68.3652 49.7921L78.1891 49.0162C78.1012 47.9033 77.1276 47.0718 76.0141 47.1597L76.7893 56.9836ZM68.3652 49.7921L58.5414 50.5676C57.7728 40.8311 65.0419 32.3123 74.7808 31.5432L75.5566 41.3671L76.3323 51.1909C77.4468 51.1029 78.2769 50.1286 78.1891 49.0167L68.3652 49.7921Z" fill="white" mask="url(#path-30-outside-3_36_1030)"/>
<path d="M84.5392 109.69L83.4756 113.866L76.1483 142.622L74.7571 148.081L99.9746 151.024L100.629 146.236L104.612 117.09L105.293 112.112L84.5392 109.69Z" fill="#6B8ABF" stroke="white" stroke-width="9.85443"/>
<path d="M26.9558 127.039L51.5209 138.033L47.5338 158.531L46.6172 163.248L51.3094 164.284L92.4242 173.355L97.7484 174.529L98.3799 169.114L102.81 131.159L103.306 126.91L99.1686 125.822L34.3661 108.783L30.3679 107.732L28.638 111.486L24.4936 120.479L22.4099 125.003L26.9558 127.039Z" fill="#6B8ABF" stroke="white" stroke-width="9.85443"/>
<circle cx="85.5928" cy="84.0493" r="56.4386" transform="rotate(0.676048 85.5928 84.0493)" fill="#93B1E2"/>
<path d="M36.3938 52.3561C32.5639 29.4352 58.9087 14.5445 83.1458 15.5423C107.383 16.5401 113.139 18.6887 125.551 25.8488C137.964 33.0089 155.974 51.6664 152.391 79.9986C148.807 108.331 121.539 127.401 121.539 127.401L130.198 106.151L121.011 109.261L116.533 108.738L113.439 66.3876L100.424 43.2313L69.1701 37.7839L39.029 60.9313C39.029 60.9313 36.9712 55.8116 36.3938 52.3561Z" fill="#2C287C"/>
<g filter="url(#filter4_d_36_1030)">
<path d="M76.524 36.5621L68.2447 39.7313C68.2447 39.7313 77.4337 46.981 79.9152 53.6151C82.3431 60.1061 80.3501 71.3556 80.3501 71.3556C80.3501 71.3556 87.6682 53.2291 85.4667 47.1065C83.0684 40.4368 76.524 36.5621 76.524 36.5621Z" fill="#2C287C"/>
</g>
<path d="M87.4561 40.3228C87.4561 40.3228 89.7046 37.6413 84.2718 33.293C75.3679 26.1664 54.4955 17.2871 38.4842 29.5848C19.1487 44.4357 23.7662 61.5175 25.3892 66.9434C27.0122 72.3694 27.5812 79.2079 27.5812 79.2079L51.9287 59.4165L87.4561 40.3228Z" fill="#2C287C"/>
<path d="M61.8267 38.2482C61.8267 38.2482 94.1374 18.4525 110.67 46.4416C123.07 67.4334 115.531 74.7609 112.001 79.1897C108.471 83.6185 93.5195 93.9913 93.5195 93.9913L78.6492 67.4707L61.8267 38.2482Z" fill="#2C287C"/>
<path d="M50.3802 77.8118C50.3802 77.8118 55.1362 74.948 57.8294 75.4904C60.3872 76.0056 63.7101 80.1218 63.7101 80.1218L62.8426 85.1272C62.8426 85.1272 59.3028 81.8275 56.7164 81.3536C54.0662 80.868 49.5128 82.8172 49.5128 82.8172L50.3802 77.8118Z" fill="#2C287C"/>
<mask id="path-40-outside-4_36_1030" maskUnits="userSpaceOnUse" x="23.2647" y="61.2731" width="79.4914" height="54.5633" fill="black">
<rect fill="white" x="23.2647" y="61.2731" width="79.4914" height="54.5633"/>
<path d="M62.627 89.3363C63.5005 81.6549 63.1821 74.8328 80.2315 77.7286C97.2805 80.6244 95.5581 85.3739 94.6845 93.0553C93.811 100.737 84.7488 106.419 77.0674 105.545C69.3862 104.671 61.7535 97.0175 62.627 89.3363ZM30.3441 84.7984C31.1776 77.4693 31.2837 71.006 41.0435 73.0289C50.803 75.0518 49.6024 79.6344 48.7689 86.9635C47.9354 94.2925 42.4402 100.072 38.0247 99.5703C33.6094 99.068 29.5109 92.1272 30.3441 84.7984Z"/>
</mask>
<path d="M62.627 89.3363L67.3268 89.8707L67.3268 89.8707L62.627 89.3363ZM80.2315 77.7286L81.0235 73.0652L81.0235 73.0652L80.2315 77.7286ZM94.6845 93.0553L89.9847 92.5208L89.9847 92.5208L94.6845 93.0553ZM77.0674 105.545L76.5328 110.245L76.533 110.245L77.0674 105.545ZM30.3441 84.7984L25.6443 84.2639L25.6443 84.264L30.3441 84.7984ZM41.0435 73.0289L42.0036 68.3972L42.0035 68.3972L41.0435 73.0289ZM48.7689 86.9635L53.4687 87.498L53.4687 87.4979L48.7689 86.9635ZM38.0247 99.5703L37.49 104.27L37.4903 104.27L38.0247 99.5703ZM62.627 89.3363L67.3268 89.8707C67.5741 87.6956 67.6788 86.2401 67.9734 84.8674C68.2469 83.5933 68.5673 83.0642 68.8133 82.802C69.1668 82.425 71.0244 80.9627 79.4394 82.3919L80.2315 77.7286L81.0235 73.0652C72.3892 71.5987 65.8812 72.0995 61.9132 76.33C59.9985 78.3715 59.1691 80.8072 58.7238 82.8822C58.2996 84.8585 58.1165 87.1362 57.9271 88.8018L62.627 89.3363ZM80.2315 77.7286L79.4394 82.3919C83.5309 83.0869 86.1922 83.847 87.9089 84.5982C89.5952 85.3362 90.0554 85.9272 90.1843 86.1304C90.3035 86.3184 90.4748 86.6935 90.4624 87.7731C90.4482 89.0227 90.2368 90.3039 89.9847 92.5208L94.6845 93.0553L99.3844 93.5897C99.569 91.966 99.9005 89.7729 99.9221 87.8811C99.9456 85.8193 99.6458 83.3858 98.1736 81.0642C96.7111 78.7579 94.4599 77.1385 91.7014 75.9315C88.9733 74.7377 85.4565 73.8182 81.0235 73.0652L80.2315 77.7286ZM94.6845 93.0553L89.9847 92.5208C89.7448 94.6299 88.3054 96.8692 85.7662 98.5988C83.2312 100.325 80.1625 101.136 77.6019 100.845L77.0674 105.545L76.533 110.245C81.6538 110.827 86.9568 109.234 91.0917 106.418C95.2222 103.604 98.7507 99.162 99.3844 93.5897L94.6845 93.0553ZM77.0674 105.545L77.6021 100.845C75.0519 100.555 72.2218 99.0628 70.1115 96.7815C67.9955 94.4939 67.0884 91.9675 67.3268 89.8707L62.627 89.3363L57.9271 88.8018C57.2921 94.3863 59.7645 99.5274 63.1668 103.205C66.5749 106.89 71.4017 109.661 76.5328 110.245L77.0674 105.545ZM30.3441 84.7984L35.044 85.3329C35.2698 83.3469 35.4073 81.8164 35.655 80.3949C35.9011 78.9826 36.1774 78.2202 36.4157 77.8182C36.5606 77.5737 36.6191 77.5497 36.7821 77.4987C37.1196 77.3933 38.0664 77.2425 40.0835 77.6606L41.0435 73.0289L42.0035 68.3972C39.1407 67.8038 36.4143 67.7024 33.9609 68.4689C31.3331 69.2899 29.483 70.9605 28.2773 72.9951C27.1648 74.8722 26.6484 76.9734 26.3351 78.771C26.0235 80.5595 25.8352 82.5854 25.6443 84.2639L30.3441 84.7984ZM41.0435 73.0289L40.0835 77.6606C42.2145 78.1023 43.3184 78.6039 43.867 78.9685C44.2958 79.2534 44.3651 79.4304 44.4173 79.5784C44.5228 79.8778 44.6271 80.4786 44.5621 81.734C44.4948 83.0324 44.2978 84.4178 44.0691 86.429L48.7689 86.9635L53.4687 87.4979C53.6567 85.8446 53.9223 83.9088 54.0096 82.2234C54.0992 80.4951 54.0499 78.4497 53.3399 76.4344C51.6946 71.7651 47.4661 69.5295 42.0036 68.3972L41.0435 73.0289ZM48.7689 86.9635L44.0691 86.4289C43.7641 89.11 42.5962 91.4855 41.1947 93.0723C40.4993 93.8597 39.8291 94.3595 39.3008 94.6288C38.7681 94.9003 38.5306 94.8672 38.5592 94.8705L38.0247 99.5703L37.4903 104.27C41.8948 104.771 45.7727 102.18 48.2854 99.3348C50.9437 96.3249 52.9401 92.1459 53.4687 87.498L48.7689 86.9635ZM38.0247 99.5703L38.5594 94.8705C38.5608 94.8707 37.5078 94.5788 36.3739 92.4887C35.3498 90.601 34.7402 88.0045 35.044 85.3327L30.3441 84.7984L25.6443 84.264C25.1148 88.921 26.1378 93.4594 28.0585 96.9998C29.8694 100.338 33.0733 103.768 37.49 104.27L38.0247 99.5703Z" fill="#2C287C" mask="url(#path-40-outside-4_36_1030)"/>
<rect width="50.1372" height="5.14828" transform="matrix(-0.991406 -0.130818 -0.130818 0.991406 145.883 88.8276)" fill="#2C287C"/>
<path d="M129.39 88.6922C129.39 88.6922 136.55 87.0387 138.962 90.7668C142.454 96.1636 140.048 107.267 134.635 110.734C130.896 113.129 125.063 108.659 125.063 108.659L129.39 88.6922Z" fill="#93B1E2"/>
<ellipse cx="41.1627" cy="29.5443" rx="41.1627" ry="29.5443" transform="matrix(-0.993258 -0.115928 -0.115928 0.993258 135.553 22.3286)" fill="#001D4A"/>
<line x1="32.9609" y1="87.2676" x2="44.1515" y2="88.5737" stroke="#2C287C" stroke-width="4.46242" stroke-linecap="round"/>
<line x1="85.7643" y1="93.5913" x2="68.2955" y2="91.5524" stroke="#2C287C" stroke-width="4.46242" stroke-linecap="round"/>
<line x1="58.016" y1="110.88" x2="31.0256" y2="107.73" stroke="#2C287C" stroke-width="4.46242" stroke-linecap="round"/>
<path d="M45.6958 76.9844C50.9039 80.552 48.9041 83.4713 48.9041 83.4713L38.4755 76.3275C38.4755 76.3275 40.4878 73.4168 45.6958 76.9844Z" fill="#2C287C"/>
<path d="M70.0171 80.7478C64.2508 83.317 65.691 86.5493 65.691 86.5493L77.2375 81.4046C77.2375 81.4046 75.7835 78.1786 70.0171 80.7478Z" fill="#2C287C"/>
<rect width="10.1971" height="5.29086" transform="matrix(-0.993258 -0.115928 -0.115928 0.993258 115.844 29.4922)" fill="#D9D9D9"/>
<rect width="10.1971" height="5.29086" transform="matrix(-0.993258 -0.115928 -0.115928 0.993258 113.337 50.9663)" fill="#D9D9D9"/>
<rect width="10.1971" height="5.29087" transform="matrix(-0.726016 0.687678 0.687678 0.726016 101.819 29.0791)" fill="#D9D9D9"/>
<rect x="119.459" y="31.1382" width="10.1971" height="5.29086" transform="rotate(56.7609 119.459 31.1382)" fill="#D9D9D9"/>
<rect x="99.0316" y="52.9639" width="10.1971" height="5.29086" transform="rotate(-123.239 99.0316 52.9639)" fill="#D9D9D9"/>
<rect width="10.1971" height="5.29087" transform="matrix(0.726016 -0.687678 -0.687678 -0.726016 116.671 55.0225)" fill="#D9D9D9"/>
<path d="M110.543 30.935C104.311 30.2076 98.6691 34.6697 97.9417 40.9016C97.2143 47.1336 101.677 52.7751 107.909 53.5025C114.141 54.2296 119.783 49.7676 120.51 43.5357C121.237 37.3039 116.775 31.6625 110.543 30.935ZM109.929 36.1941C113.19 36.5747 115.525 39.5272 115.145 42.7885C114.764 46.0498 111.811 48.3852 108.55 48.0045C105.289 47.6237 102.954 44.6713 103.334 41.4101C103.715 38.1488 106.667 35.8136 109.929 36.1941Z" fill="#D9D9D9"/>
<rect width="13.4338" height="6.97028" transform="matrix(-0.996899 0.0786931 0.0786931 0.996899 82.3057 28.9355)" fill="#D9D9D9"/>
<rect width="13.4338" height="6.97028" transform="matrix(-0.996899 0.0786931 0.0786931 0.996899 84.5475 57.3296)" fill="#D9D9D9"/>
<rect width="13.4338" height="6.97028" transform="matrix(-0.579037 0.815302 0.815302 0.579037 64.0743 31.9814)" fill="#D9D9D9"/>
<rect x="87.3973" y="30.1401" width="13.4338" height="6.97028" transform="rotate(45.5903 87.3973 30.1401)" fill="#D9D9D9"/>
<rect x="66.5673" y="63.5625" width="13.4338" height="6.97028" transform="rotate(-134.41 66.5673 63.5625)" fill="#D9D9D9"/>
<rect width="13.4338" height="6.97028" transform="matrix(0.579037 -0.815302 -0.815302 -0.579037 89.8904 61.7217)" fill="#D9D9D9"/>
<path d="M75.8216 32.1539C67.5815 32.8045 61.4286 40.012 62.079 48.252C62.7294 56.4921 69.937 62.6449 78.1771 61.9946C86.4174 61.3442 92.5702 54.1367 91.9197 45.8965C91.2692 37.6563 84.0617 31.5034 75.8216 32.1539ZM76.3714 39.1068C80.6835 38.7666 84.4551 41.987 84.7955 46.2992C85.1359 50.6113 81.9162 54.3826 77.6041 54.7232C73.2918 55.0636 69.5195 51.8442 69.1791 47.5319C68.8387 43.2196 72.0591 39.4472 76.3714 39.1068Z" fill="#D9D9D9"/>
<path d="M99.7306 116.423L88.2502 115.083L80.9232 143.839L95.7473 145.569L99.7306 116.423Z" fill="#6B8ABF"/>
<path d="M33.4443 110.43L29.1855 122.566L57.1044 135.134L52.3711 159.472L93.4863 168.543L97.9159 130.588L33.4443 110.43Z" fill="#6B8ABF"/>
</g>
<defs>
<filter id="filter0_d_36_1030" x="7.45829" y="5.63721" width="155.259" height="178.824" filterUnits="userSpaceOnUse" color-interpolation-filters="sRGB">
<feFlood flood-opacity="0" result="BackgroundImageFix"/>
<feColorMatrix in="SourceAlpha" type="matrix" values="0 0 0 0 0 0 0 0 0 0 0 0 0 0 0 0 0 0 127 0" result="hardAlpha"/>
<feOffset dx="-4.43837" dy="1.97261"/>
<feGaussianBlur stdDeviation="0.986304"/>
<feComposite in2="hardAlpha" operator="out"/>
<feColorMatrix type="matrix" values="0 0 0 0 0 0 0 0 0 0 0 0 0 0 0 0 0 0 0.25 0"/>
<feBlend mode="normal" in2="BackgroundImageFix" result="effect1_dropShadow_36_1030"/>
<feBlend mode="normal" in="SourceGraphic" in2="effect1_dropShadow_36_1030" result="shape"/>
</filter>
<filter id="filter1_d_36_1030" x="36.8878" y="25.6533" width="58.8492" height="56.5523" filterUnits="userSpaceOnUse" color-interpolation-filters="sRGB">
<feFlood flood-opacity="0" result="BackgroundImageFix"/>
<feColorMatrix in="SourceAlpha" type="matrix" values="0 0 0 0 0 0 0 0 0 0 0 0 0 0 0 0 0 0 127 0" result="hardAlpha"/>
<feOffset dx="-8.05962" dy="3.58205"/>
<feGaussianBlur stdDeviation="1.79103"/>
<feComposite in2="hardAlpha" operator="out"/>
<feColorMatrix type="matrix" values="0 0 0 0 0 0 0 0 0 0 0 0 0 0 0 0 0 0 0.25 0"/>
<feBlend mode="normal" in2="BackgroundImageFix" result="effect1_dropShadow_36_1030"/>
<feBlend mode="normal" in="SourceGraphic" in2="effect1_dropShadow_36_1030" result="shape"/>
</filter>
<filter id="filter2_d_36_1030" x="26.5407" y="23.9121" width="61.5858" height="52.4522" filterUnits="userSpaceOnUse" color-interpolation-filters="sRGB">
<feFlood flood-opacity="0" result="BackgroundImageFix"/>
<feColorMatrix in="SourceAlpha" type="matrix" values="0 0 0 0 0 0 0 0 0 0 0 0 0 0 0 0 0 0 127 0" result="hardAlpha"/>
<feOffset dx="-8.05962" dy="3.58205"/>
<feGaussianBlur stdDeviation="1.79103"/>
<feComposite in2="hardAlpha" operator="out"/>
<feColorMatrix type="matrix" values="0 0 0 0 0 0 0 0 0 0 0 0 0 0 0 0 0 0 0.25 0"/>
<feBlend mode="normal" in2="BackgroundImageFix" result="effect1_dropShadow_36_1030"/>
<feBlend mode="normal" in="SourceGraphic" in2="effect1_dropShadow_36_1030" result="shape"/>
</filter>
<filter id="filter3_d_36_1030" x="28.5017" y="16.0619" width="98.8745" height="104.274" filterUnits="userSpaceOnUse" color-interpolation-filters="sRGB">
<feFlood flood-opacity="0" result="BackgroundImageFix"/>
<feColorMatrix in="SourceAlpha" type="matrix" values="0 0 0 0 0 0 0 0 0 0 0 0 0 0 0 0 0 0 127 0" result="hardAlpha"/>
<feOffset dx="-8.95513" dy="-1.84476"/>
<feGaussianBlur stdDeviation="1.84476"/>
<feComposite in2="hardAlpha" operator="out"/>
<feColorMatrix type="matrix" values="0 0 0 0 0 0 0 0 0 0 0 0 0 0 0 0 0 0 0.25 0"/>
<feBlend mode="normal" in2="BackgroundImageFix" result="effect1_dropShadow_36_1030"/>
<feBlend mode="normal" in="SourceGraphic" in2="effect1_dropShadow_36_1030" result="shape"/>
</filter>
<filter id="filter4_d_36_1030" x="56.603" y="36.562" width="29.2767" height="41.9576" filterUnits="userSpaceOnUse" color-interpolation-filters="sRGB">
<feFlood flood-opacity="0" result="BackgroundImageFix"/>
<feColorMatrix in="SourceAlpha" type="matrix" values="0 0 0 0 0 0 0 0 0 0 0 0 0 0 0 0 0 0 127 0" result="hardAlpha"/>
<feOffset dx="-8.05962" dy="3.58205"/>
<feGaussianBlur stdDeviation="1.79103"/>
<feComposite in2="hardAlpha" operator="out"/>
<feColorMatrix type="matrix" values="0 0 0 0 0 0 0 0 0 0 0 0 0 0 0 0 0 0 0.25 0"/>
<feBlend mode="normal" in2="BackgroundImageFix" result="effect1_dropShadow_36_1030"/>
<feBlend mode="normal" in="SourceGraphic" in2="effect1_dropShadow_36_1030" result="shape"/>
</filter>
</defs>
</svg>
