<svg width="1392" height="2334" viewBox="0 0 1392 2334" fill="none" xmlns="http://www.w3.org/2000/svg">
<g clip-path="url(#clip0_204_267)">
<rect width="1392" height="2334" fill="url(#paint0_linear_204_267)"/>
<path d="M649.654 868.116C647.332 868.116 645.449 866.234 645.449 863.911C645.449 861.589 647.332 859.707 649.654 859.707C651.977 859.707 653.859 861.589 653.859 863.911C653.859 866.234 651.977 868.116 649.654 868.116Z" fill="#D9D9D9"/>
<path d="M628.591 746.601C626.269 746.601 624.386 744.718 624.386 742.396C624.386 740.074 626.269 738.191 628.591 738.191C630.913 738.191 632.796 740.074 632.796 742.396C632.796 744.718 630.913 746.601 628.591 746.601Z" fill="#D9D9D9"/>
<path d="M653.859 370.385C651.537 370.385 649.655 368.502 649.655 366.18C649.655 363.858 651.537 361.975 653.859 361.975C656.182 361.975 658.064 363.858 658.064 366.18C658.064 368.502 656.182 370.385 653.859 370.385Z" fill="#D9D9D9"/>
<path d="M637.001 1113.63C634.679 1113.63 632.796 1111.75 632.796 1109.43C632.796 1107.1 634.679 1105.22 637.001 1105.22C639.323 1105.22 641.206 1107.1 641.206 1109.43C641.206 1111.75 639.323 1113.63 637.001 1113.63Z" fill="#D9D9D9"/>
<path d="M606.18 132.348C603.857 132.348 601.975 130.465 601.975 128.143C601.975 125.821 603.857 123.938 606.18 123.938C608.502 123.938 610.385 125.821 610.385 128.143C610.385 130.465 608.502 132.348 606.18 132.348Z" fill="#D9D9D9"/>
<path d="M578.784 461.984C576.462 461.984 574.579 460.101 574.579 457.779C574.579 455.456 576.462 453.574 578.784 453.574C581.106 453.574 582.989 455.456 582.989 457.779C582.989 460.101 581.106 461.984 578.784 461.984Z" fill="#D9D9D9"/>
<path d="M456.497 783.989C454.174 783.989 452.292 782.106 452.292 779.784C452.292 777.462 454.174 775.579 456.497 775.579C458.819 775.579 460.701 777.462 460.701 779.784C460.701 782.106 458.819 783.989 456.497 783.989Z" fill="#D9D9D9"/>
<path d="M523.481 590.592C521.158 590.592 519.276 588.71 519.276 586.388C519.276 584.065 521.158 582.183 523.481 582.183C525.803 582.183 527.685 584.065 527.685 586.388C527.685 588.71 525.803 590.592 523.481 590.592Z" fill="#D9D9D9"/>
<path d="M464.906 660.05C462.584 660.05 460.701 658.167 460.701 655.845C460.701 653.522 462.584 651.64 464.906 651.64C467.229 651.64 469.111 653.522 469.111 655.845C469.111 658.167 467.229 660.05 464.906 660.05Z" fill="#D9D9D9"/>
<path d="M501.682 1193.02C499.36 1193.02 497.478 1191.14 497.478 1188.82C497.478 1186.49 499.36 1184.61 501.682 1184.61C504.005 1184.61 505.887 1186.49 505.887 1188.82C505.887 1191.14 504.005 1193.02 501.682 1193.02Z" fill="#D9D9D9"/>
<path d="M496.012 370.385C493.69 370.385 491.807 368.502 491.807 366.18C491.807 363.858 493.69 361.975 496.012 361.975C498.335 361.975 500.217 363.858 500.217 366.18C500.217 368.502 498.335 370.385 496.012 370.385Z" fill="#D9D9D9"/>
<path d="M431.691 132.346C429.369 132.346 427.486 130.463 427.486 128.141C427.486 125.819 429.369 123.936 431.691 123.936C434.013 123.936 435.896 125.819 435.896 128.141C435.896 130.463 434.013 132.346 431.691 132.346Z" fill="#D9D9D9"/>
<path d="M565.883 767.602C564.674 767.602 563.694 766.622 563.694 765.412C563.694 764.203 564.674 763.223 565.883 763.223C567.093 763.223 568.073 764.203 568.073 765.412C568.073 766.622 567.093 767.602 565.883 767.602Z" fill="#D9D9D9"/>
<path d="M653.859 954.571C652.65 954.571 651.67 953.591 651.67 952.382C651.67 951.173 652.65 950.192 653.859 950.192C655.069 950.192 656.049 951.173 656.049 952.382C656.049 953.591 655.069 954.571 653.859 954.571Z" fill="#D9D9D9"/>
<path d="M616.079 578.544C614.87 578.544 613.889 577.564 613.889 576.355C613.889 575.146 614.87 574.165 616.079 574.165C617.288 574.165 618.268 575.146 618.268 576.355C618.268 577.564 617.288 578.544 616.079 578.544Z" fill="#D9D9D9"/>
<path d="M579.71 663.305C578.501 663.305 577.52 662.324 577.52 661.115C577.52 659.906 578.501 658.926 579.71 658.926C580.919 658.926 581.899 659.906 581.899 661.115C581.899 662.324 580.919 663.305 579.71 663.305Z" fill="#D9D9D9"/>
<path d="M643.26 808.179C642.051 808.179 641.071 807.199 641.071 805.99C641.071 804.781 642.051 803.8 643.26 803.8C644.469 803.8 645.449 804.781 645.449 805.99C645.449 807.199 644.469 808.179 643.26 808.179Z" fill="#D9D9D9"/>
<path d="M514.688 836.494C513.479 836.494 512.499 835.514 512.499 834.305C512.499 833.096 513.479 832.116 514.688 832.116C515.897 832.116 516.878 833.096 516.878 834.305C516.878 835.514 515.897 836.494 514.688 836.494Z" fill="#D9D9D9"/>
<path d="M643.26 455.763C642.051 455.763 641.071 454.783 641.071 453.574C641.071 452.364 642.051 451.384 643.26 451.384C644.469 451.384 645.449 452.364 645.449 453.574C645.449 454.783 644.469 455.763 643.26 455.763Z" fill="#D9D9D9"/>
<path d="M581.899 339.875C580.69 339.875 579.71 338.895 579.71 337.686C579.71 336.477 580.69 335.497 581.899 335.497C583.108 335.497 584.089 336.477 584.089 337.686C584.089 338.895 583.108 339.875 581.899 339.875Z" fill="#D9D9D9"/>
<path d="M529.875 486.393C528.665 486.393 527.685 485.412 527.685 484.203C527.685 482.994 528.665 482.014 529.875 482.014C531.084 482.014 532.064 482.994 532.064 484.203C532.064 485.412 531.084 486.393 529.875 486.393Z" fill="#D9D9D9"/>
<path d="M643.26 272.292C642.051 272.292 641.071 271.312 641.071 270.103C641.071 268.894 642.051 267.914 643.26 267.914C644.469 267.914 645.449 268.894 645.449 270.103C645.449 271.312 644.469 272.292 643.26 272.292Z" fill="#D9D9D9"/>
<path d="M590.87 1155.81C589.661 1155.81 588.681 1154.83 588.681 1153.62C588.681 1152.41 589.661 1151.43 590.87 1151.43C592.079 1151.43 593.059 1152.41 593.059 1153.62C593.059 1154.83 592.079 1155.81 590.87 1155.81Z" fill="#D9D9D9"/>
<path d="M460.703 898.763C459.494 898.763 458.514 897.783 458.514 896.574C458.514 895.365 459.494 894.384 460.703 894.384C461.912 894.384 462.892 895.365 462.892 896.574C462.892 897.783 461.912 898.763 460.703 898.763Z" fill="#D9D9D9"/>
<path d="M405.395 946.575C403.073 946.575 401.19 948.457 401.19 950.78C401.19 953.102 403.073 954.985 405.395 954.985C407.717 954.985 409.6 953.102 409.6 950.78C409.6 948.457 407.717 946.575 405.395 946.575Z" fill="#D9D9D9"/>
<path d="M388.543 203.326C386.22 203.326 384.338 205.208 384.338 207.531C384.338 209.853 386.22 211.736 388.543 211.736C390.865 211.736 392.747 209.853 392.747 207.531C392.747 205.208 390.865 203.326 388.543 203.326Z" fill="#D9D9D9"/>
<path d="M357.721 1184.61C355.399 1184.61 353.516 1186.49 353.516 1188.82C353.516 1191.14 355.399 1193.02 357.721 1193.02C360.044 1193.02 361.926 1191.14 361.926 1188.82C361.926 1186.49 360.044 1184.61 357.721 1184.61Z" fill="#D9D9D9"/>
<path d="M330.326 854.977C328.003 854.977 326.121 856.859 326.121 859.182C326.121 861.504 328.003 863.387 330.326 863.387C332.648 863.387 334.531 861.504 334.531 859.182C334.531 856.859 332.648 854.977 330.326 854.977Z" fill="#D9D9D9"/>
<path d="M235.849 611.395C233.527 611.395 231.644 613.278 231.644 615.6C231.644 617.923 233.527 619.805 235.849 619.805C238.171 619.805 240.054 617.923 240.054 615.6C240.054 613.278 238.171 611.395 235.849 611.395Z" fill="#D9D9D9"/>
<path d="M275.022 726.368C272.7 726.368 270.817 728.251 270.817 730.573C270.817 732.895 272.7 734.778 275.022 734.778C277.345 734.778 279.227 732.895 279.227 730.573C279.227 728.251 277.345 726.368 275.022 726.368Z" fill="#D9D9D9"/>
<path d="M253.218 123.937C250.896 123.937 249.013 125.819 249.013 128.142C249.013 130.464 250.896 132.346 253.218 132.346C255.54 132.346 257.423 130.464 257.423 128.142C257.423 125.819 255.54 123.937 253.218 123.937Z" fill="#D9D9D9"/>
<path d="M247.548 946.575C245.225 946.575 243.343 948.457 243.343 950.78C243.343 953.102 245.225 954.985 247.548 954.985C249.87 954.985 251.752 953.102 251.752 950.78C251.752 948.457 249.87 946.575 247.548 946.575Z" fill="#D9D9D9"/>
<path d="M183.22 1184.61C180.897 1184.61 179.015 1186.49 179.015 1188.82C179.015 1191.14 180.897 1193.02 183.22 1193.02C185.542 1193.02 187.425 1191.14 187.425 1188.82C187.425 1186.49 185.542 1184.61 183.22 1184.61Z" fill="#D9D9D9"/>
<path d="M317.425 549.357C316.216 549.357 315.236 550.337 315.236 551.546C315.236 552.755 316.216 553.735 317.425 553.735C318.634 553.735 319.614 552.755 319.614 551.546C319.614 550.337 318.634 549.357 317.425 549.357Z" fill="#D9D9D9"/>
<path d="M405.395 362.387C404.186 362.387 403.206 363.367 403.206 364.577C403.206 365.786 404.186 366.766 405.395 366.766C406.604 366.766 407.584 365.786 407.584 364.577C407.584 363.367 406.604 362.387 405.395 362.387Z" fill="#D9D9D9"/>
<path d="M367.62 738.417C366.411 738.417 365.431 739.397 365.431 740.606C365.431 741.815 366.411 742.795 367.62 742.795C368.829 742.795 369.809 741.815 369.809 740.606C369.809 739.397 368.829 738.417 367.62 738.417Z" fill="#D9D9D9"/>
<path d="M331.251 653.656C330.042 653.656 329.062 654.636 329.062 655.845C329.062 657.054 330.042 658.034 331.251 658.034C332.461 658.034 333.441 657.054 333.441 655.845C333.441 654.636 332.461 653.656 331.251 653.656Z" fill="#D9D9D9"/>
<path d="M394.802 508.78C393.593 508.78 392.612 509.76 392.612 510.969C392.612 512.179 393.593 513.159 394.802 513.159C396.011 513.159 396.991 512.179 396.991 510.969C396.991 509.76 396.011 508.78 394.802 508.78Z" fill="#D9D9D9"/>
<path d="M266.23 480.463C265.021 480.463 264.041 481.443 264.041 482.652C264.041 483.861 265.021 484.841 266.23 484.841C267.439 484.841 268.419 483.861 268.419 482.652C268.419 481.443 267.439 480.463 266.23 480.463Z" fill="#D9D9D9"/>
<path d="M394.802 861.197C393.593 861.197 392.612 862.177 392.612 863.386C392.612 864.596 393.593 865.576 394.802 865.576C396.011 865.576 396.991 864.596 396.991 863.386C396.991 862.177 396.011 861.197 394.802 861.197Z" fill="#D9D9D9"/>
<path d="M333.441 977.084C332.232 977.084 331.252 978.064 331.252 979.273C331.252 980.483 332.232 981.463 333.441 981.463C334.65 981.463 335.63 980.483 335.63 979.273C335.63 978.064 334.65 977.084 333.441 977.084Z" fill="#D9D9D9"/>
<path d="M281.416 830.567C280.207 830.567 279.227 831.548 279.227 832.757C279.227 833.966 280.207 834.946 281.416 834.946C282.625 834.946 283.606 833.966 283.606 832.757C283.606 831.548 282.625 830.567 281.416 830.567Z" fill="#D9D9D9"/>
<path d="M308.852 1084.96C307.643 1084.96 306.663 1085.94 306.663 1087.14C306.663 1088.35 307.643 1089.33 308.852 1089.33C310.061 1089.33 311.042 1088.35 311.042 1087.14C311.042 1085.94 310.061 1084.96 308.852 1084.96Z" fill="#D9D9D9"/>
<path d="M342.412 161.146C341.203 161.146 340.223 162.126 340.223 163.335C340.223 164.544 341.203 165.524 342.412 165.524C343.621 165.524 344.601 164.544 344.601 163.335C344.601 162.126 343.621 161.146 342.412 161.146Z" fill="#D9D9D9"/>
<path d="M331.251 422.335C330.042 422.335 329.062 423.315 329.062 424.524C329.062 425.733 330.042 426.713 331.251 426.713C332.461 426.713 333.441 425.733 333.441 424.524C333.441 423.315 332.461 422.335 331.251 422.335Z" fill="#D9D9D9"/>
<path d="M253.218 368.782C250.896 368.782 249.013 366.899 249.013 364.577C249.013 362.255 250.896 360.372 253.218 360.372C255.54 360.372 257.423 362.255 257.423 364.577C257.423 366.899 255.54 368.782 253.218 368.782Z" fill="#D9D9D9"/>
<path d="M178.559 1088.96C176.236 1088.96 174.354 1087.08 174.354 1084.76C174.354 1082.44 176.236 1080.55 178.559 1080.55C180.881 1080.55 182.763 1082.44 182.763 1084.76C182.763 1087.08 180.881 1088.96 178.559 1088.96Z" fill="#D9D9D9"/>
<path d="M147.734 107.679C145.412 107.679 143.529 105.796 143.529 103.474C143.529 101.152 145.412 99.2692 147.734 99.2692C150.057 99.2692 151.939 101.152 151.939 103.474C151.939 105.796 150.057 107.679 147.734 107.679Z" fill="#D9D9D9"/>
<path d="M120.339 437.315C118.016 437.315 116.134 435.432 116.134 433.11C116.134 430.787 118.016 428.905 120.339 428.905C122.661 428.905 124.543 430.787 124.543 433.11C124.543 435.432 122.661 437.315 120.339 437.315Z" fill="#D9D9D9"/>
<path d="M-1.94882 759.32C-4.27112 759.32 -6.15372 757.438 -6.15372 755.115C-6.15372 752.793 -4.27112 750.911 -1.94882 750.911C0.37348 750.911 2.25608 752.793 2.25608 755.115C2.25608 757.438 0.37348 759.32 -1.94882 759.32Z" fill="#D9D9D9"/>
<path d="M65.0352 565.923C62.7129 565.923 60.8303 564.041 60.8303 561.718C60.8303 559.396 62.7129 557.514 65.0352 557.514C67.3575 557.514 69.2401 559.396 69.2401 561.718C69.2401 564.041 67.3575 565.923 65.0352 565.923Z" fill="#D9D9D9"/>
<path d="M43.2371 1168.35C40.9148 1168.35 39.0322 1166.47 39.0322 1164.15C39.0322 1161.83 40.9148 1159.94 43.2371 1159.94C45.5594 1159.94 47.442 1161.83 47.442 1164.15C47.442 1166.47 45.5594 1168.35 43.2371 1168.35Z" fill="#D9D9D9"/>
<path d="M37.5669 345.717C35.2446 345.717 33.362 343.834 33.362 341.512C33.362 339.189 35.2446 337.307 37.5669 337.307C39.8892 337.307 41.7718 339.189 41.7718 341.512C41.7718 343.834 39.8892 345.717 37.5669 345.717Z" fill="#D9D9D9"/>
<path d="M-26.7609 107.679C-29.0832 107.679 -30.9658 105.796 -30.9658 103.474C-30.9658 101.152 -29.0832 99.2692 -26.7609 99.2692C-24.4386 99.2692 -22.556 101.152 -22.556 103.474C-22.556 105.796 -24.4386 107.679 -26.7609 107.679Z" fill="#D9D9D9"/>
<path d="M107.438 742.934C106.229 742.934 105.249 741.954 105.249 740.745C105.249 739.536 106.229 738.555 107.438 738.555C108.647 738.555 109.627 739.536 109.627 740.745C109.627 741.954 108.647 742.934 107.438 742.934Z" fill="#D9D9D9"/>
<path d="M195.417 929.903C194.208 929.903 193.228 928.923 193.228 927.714C193.228 926.504 194.208 925.524 195.417 925.524C196.626 925.524 197.606 926.504 197.606 927.714C197.606 928.923 196.626 929.903 195.417 929.903Z" fill="#D9D9D9"/>
<path d="M157.636 553.874C156.427 553.874 155.447 552.894 155.447 551.685C155.447 550.476 156.427 549.496 157.636 549.496C158.845 549.496 159.826 550.476 159.826 551.685C159.826 552.894 158.845 553.874 157.636 553.874Z" fill="#D9D9D9"/>
<path d="M121.264 638.636C120.055 638.636 119.075 637.656 119.075 636.447C119.075 635.238 120.055 634.257 121.264 634.257C122.474 634.257 123.454 635.238 123.454 636.447C123.454 637.656 122.474 638.636 121.264 638.636Z" fill="#D9D9D9"/>
<path d="M184.818 783.51C183.609 783.51 182.629 782.53 182.629 781.321C182.629 780.112 183.609 779.132 184.818 779.132C186.027 779.132 187.007 780.112 187.007 781.321C187.007 782.53 186.027 783.51 184.818 783.51Z" fill="#D9D9D9"/>
<path d="M56.243 811.826C55.0339 811.826 54.0537 810.846 54.0537 809.636C54.0537 808.427 55.0339 807.447 56.243 807.447C57.4521 807.447 58.4323 808.427 58.4323 809.636C58.4323 810.846 57.4521 811.826 56.243 811.826Z" fill="#D9D9D9"/>
<path d="M184.818 431.094C183.609 431.094 182.629 430.114 182.629 428.904C182.629 427.695 183.609 426.715 184.818 426.715C186.027 426.715 187.007 427.695 187.007 428.904C187.007 430.114 186.027 431.094 184.818 431.094Z" fill="#D9D9D9"/>
<path d="M123.454 315.207C122.245 315.207 121.265 314.227 121.265 313.018C121.265 311.809 122.245 310.829 123.454 310.829C124.663 310.829 125.643 311.809 125.643 313.018C125.643 314.227 124.663 315.207 123.454 315.207Z" fill="#D9D9D9"/>
<path d="M71.4292 461.724C70.2201 461.724 69.24 460.744 69.24 459.535C69.24 458.326 70.2201 457.345 71.4292 457.345C72.6383 457.345 73.6185 458.326 73.6185 459.535C73.6185 460.744 72.6383 461.724 71.4292 461.724Z" fill="#D9D9D9"/>
<path d="M184.818 247.623C183.609 247.623 182.629 246.643 182.629 245.434C182.629 244.225 183.609 243.245 184.818 243.245C186.027 243.245 187.007 244.225 187.007 245.434C187.007 246.643 186.027 247.623 184.818 247.623Z" fill="#D9D9D9"/>
<path d="M132.425 1131.14C131.216 1131.14 130.235 1130.16 130.235 1128.95C130.235 1127.74 131.216 1126.76 132.425 1126.76C133.634 1126.76 134.614 1127.74 134.614 1128.95C134.614 1130.16 133.634 1131.14 132.425 1131.14Z" fill="#D9D9D9"/>
<path d="M2.25783 874.095C1.04872 874.095 0.0685443 873.115 0.0685444 871.905C0.0685444 870.696 1.04872 869.716 2.25783 869.716C3.46694 869.716 4.44711 870.696 4.44711 871.905C4.44711 873.115 3.46694 874.095 2.25783 874.095Z" fill="#D9D9D9"/>
<path d="M460.604 540.951C458.282 540.951 456.399 539.068 456.399 536.746C456.399 534.424 458.282 532.541 460.604 532.541C462.926 532.541 464.809 534.424 464.809 536.746C464.809 539.068 462.926 540.951 460.604 540.951Z" fill="#D9D9D9"/>
<path d="M1376.62 868.116C1374.3 868.116 1372.42 866.234 1372.42 863.911C1372.42 861.589 1374.3 859.706 1376.62 859.706C1378.94 859.706 1380.82 861.589 1380.82 863.911C1380.82 866.234 1378.94 868.116 1376.62 868.116Z" fill="#D9D9D9"/>
<path d="M1355.56 746.601C1353.23 746.601 1351.35 744.718 1351.35 742.396C1351.35 740.074 1353.23 738.191 1355.56 738.191C1357.88 738.191 1359.76 740.074 1359.76 742.396C1359.76 744.718 1357.88 746.601 1355.56 746.601Z" fill="#D9D9D9"/>
<path d="M1380.83 370.385C1378.5 370.385 1376.62 368.502 1376.62 366.18C1376.62 363.858 1378.5 361.975 1380.83 361.975C1383.15 361.975 1385.03 363.858 1385.03 366.18C1385.03 368.502 1383.15 370.385 1380.83 370.385Z" fill="#D9D9D9"/>
<path d="M1363.97 1113.63C1361.64 1113.63 1359.76 1111.75 1359.76 1109.43C1359.76 1107.1 1361.64 1105.22 1363.97 1105.22C1366.29 1105.22 1368.17 1107.1 1368.17 1109.43C1368.17 1111.75 1366.29 1113.63 1363.97 1113.63Z" fill="#D9D9D9"/>
<path d="M1333.15 132.348C1330.82 132.348 1328.94 130.465 1328.94 128.143C1328.94 125.82 1330.82 123.938 1333.15 123.938C1335.47 123.938 1337.35 125.82 1337.35 128.143C1337.35 130.465 1335.47 132.348 1333.15 132.348Z" fill="#D9D9D9"/>
<path d="M1305.75 461.983C1303.43 461.983 1301.54 460.101 1301.54 457.779C1301.54 455.456 1303.43 453.574 1305.75 453.574C1308.07 453.574 1309.95 455.456 1309.95 457.779C1309.95 460.101 1308.07 461.983 1305.75 461.983Z" fill="#D9D9D9"/>
<path d="M1183.46 783.989C1181.14 783.989 1179.26 782.106 1179.26 779.784C1179.26 777.462 1181.14 775.579 1183.46 775.579C1185.78 775.579 1187.67 777.462 1187.67 779.784C1187.67 782.106 1185.78 783.989 1183.46 783.989Z" fill="#D9D9D9"/>
<path d="M1250.45 590.592C1248.12 590.592 1246.24 588.71 1246.24 586.387C1246.24 584.065 1248.12 582.182 1250.45 582.182C1252.77 582.182 1254.65 584.065 1254.65 586.387C1254.65 588.71 1252.77 590.592 1250.45 590.592Z" fill="#D9D9D9"/>
<path d="M1191.87 660.049C1189.55 660.049 1187.67 658.167 1187.67 655.845C1187.67 653.522 1189.55 651.64 1191.87 651.64C1194.19 651.64 1196.08 653.522 1196.08 655.845C1196.08 658.167 1194.19 660.049 1191.87 660.049Z" fill="#D9D9D9"/>
<path d="M1228.65 1193.02C1226.33 1193.02 1224.44 1191.14 1224.44 1188.82C1224.44 1186.49 1226.33 1184.61 1228.65 1184.61C1230.97 1184.61 1232.85 1186.49 1232.85 1188.82C1232.85 1191.14 1230.97 1193.02 1228.65 1193.02Z" fill="#D9D9D9"/>
<path d="M1222.98 370.385C1220.66 370.385 1218.77 368.502 1218.77 366.18C1218.77 363.858 1220.66 361.975 1222.98 361.975C1225.3 361.975 1227.18 363.858 1227.18 366.18C1227.18 368.502 1225.3 370.385 1222.98 370.385Z" fill="#D9D9D9"/>
<path d="M1158.66 132.346C1156.33 132.346 1154.45 130.463 1154.45 128.141C1154.45 125.819 1156.33 123.936 1158.66 123.936C1160.98 123.936 1162.86 125.819 1162.86 128.141C1162.86 130.463 1160.98 132.346 1158.66 132.346Z" fill="#D9D9D9"/>
<path d="M1292.85 767.602C1291.64 767.602 1290.66 766.621 1290.66 765.412C1290.66 764.203 1291.64 763.223 1292.85 763.223C1294.06 763.223 1295.04 764.203 1295.04 765.412C1295.04 766.621 1294.06 767.602 1292.85 767.602Z" fill="#D9D9D9"/>
<path d="M1380.83 954.571C1379.62 954.571 1378.64 953.591 1378.64 952.382C1378.64 951.172 1379.62 950.192 1380.83 950.192C1382.03 950.192 1383.01 951.172 1383.01 952.382C1383.01 953.591 1382.03 954.571 1380.83 954.571Z" fill="#D9D9D9"/>
<path d="M1343.04 578.544C1341.84 578.544 1340.85 577.564 1340.85 576.355C1340.85 575.145 1341.84 574.165 1343.04 574.165C1344.25 574.165 1345.23 575.145 1345.23 576.355C1345.23 577.564 1344.25 578.544 1343.04 578.544Z" fill="#D9D9D9"/>
<path d="M1306.68 663.305C1305.47 663.305 1304.49 662.324 1304.49 661.115C1304.49 659.906 1305.47 658.926 1306.68 658.926C1307.88 658.926 1308.86 659.906 1308.86 661.115C1308.86 662.324 1307.88 663.305 1306.68 663.305Z" fill="#D9D9D9"/>
<path d="M1370.23 808.179C1369.02 808.179 1368.04 807.199 1368.04 805.99C1368.04 804.78 1369.02 803.8 1370.23 803.8C1371.43 803.8 1372.42 804.78 1372.42 805.99C1372.42 807.199 1371.43 808.179 1370.23 808.179Z" fill="#D9D9D9"/>
<path d="M1241.65 836.494C1240.44 836.494 1239.46 835.514 1239.46 834.305C1239.46 833.096 1240.44 832.116 1241.65 832.116C1242.86 832.116 1243.84 833.096 1243.84 834.305C1243.84 835.514 1242.86 836.494 1241.65 836.494Z" fill="#D9D9D9"/>
<path d="M1370.23 455.763C1369.02 455.763 1368.04 454.783 1368.04 453.573C1368.04 452.364 1369.02 451.384 1370.23 451.384C1371.43 451.384 1372.42 452.364 1372.42 453.573C1372.42 454.783 1371.43 455.763 1370.23 455.763Z" fill="#D9D9D9"/>
<path d="M1308.86 339.875C1307.66 339.875 1306.68 338.895 1306.68 337.686C1306.68 336.477 1307.66 335.497 1308.86 335.497C1310.07 335.497 1311.05 336.477 1311.05 337.686C1311.05 338.895 1310.07 339.875 1308.86 339.875Z" fill="#D9D9D9"/>
<path d="M1256.84 486.392C1255.63 486.392 1254.65 485.412 1254.65 484.203C1254.65 482.994 1255.63 482.014 1256.84 482.014C1258.05 482.014 1259.03 482.994 1259.03 484.203C1259.03 485.412 1258.05 486.392 1256.84 486.392Z" fill="#D9D9D9"/>
<path d="M1370.23 272.292C1369.02 272.292 1368.04 271.312 1368.04 270.103C1368.04 268.894 1369.02 267.913 1370.23 267.913C1371.43 267.913 1372.42 268.894 1372.42 270.103C1372.42 271.312 1371.43 272.292 1370.23 272.292Z" fill="#D9D9D9"/>
<path d="M1317.84 1155.81C1316.63 1155.81 1315.65 1154.83 1315.65 1153.62C1315.65 1152.41 1316.63 1151.43 1317.84 1151.43C1319.04 1151.43 1320.03 1152.41 1320.03 1153.62C1320.03 1154.83 1319.04 1155.81 1317.84 1155.81Z" fill="#D9D9D9"/>
<path d="M1187.67 898.763C1186.46 898.763 1185.48 897.783 1185.48 896.574C1185.48 895.364 1186.46 894.384 1187.67 894.384C1188.88 894.384 1189.86 895.364 1189.86 896.574C1189.86 897.783 1188.88 898.763 1187.67 898.763Z" fill="#D9D9D9"/>
<path d="M1132.36 946.575C1130.04 946.575 1128.16 948.457 1128.16 950.779C1128.16 953.102 1130.04 954.984 1132.36 954.984C1134.68 954.984 1136.57 953.102 1136.57 950.779C1136.57 948.457 1134.68 946.575 1132.36 946.575Z" fill="#D9D9D9"/>
<path d="M1115.51 203.326C1113.19 203.326 1111.3 205.208 1111.3 207.531C1111.3 209.853 1113.19 211.735 1115.51 211.735C1117.83 211.735 1119.71 209.853 1119.71 207.531C1119.71 205.208 1117.83 203.326 1115.51 203.326Z" fill="#D9D9D9"/>
<path d="M1084.69 1184.61C1082.36 1184.61 1080.48 1186.49 1080.48 1188.82C1080.48 1191.14 1082.36 1193.02 1084.69 1193.02C1087.01 1193.02 1088.89 1191.14 1088.89 1188.82C1088.89 1186.49 1087.01 1184.61 1084.69 1184.61Z" fill="#D9D9D9"/>
<path d="M1057.29 854.977C1054.97 854.977 1053.09 856.859 1053.09 859.182C1053.09 861.504 1054.97 863.386 1057.29 863.386C1059.61 863.386 1061.5 861.504 1061.5 859.182C1061.5 856.859 1059.61 854.977 1057.29 854.977Z" fill="#D9D9D9"/>
<path d="M962.815 611.395C960.493 611.395 958.61 613.278 958.61 615.6C958.61 617.922 960.493 619.805 962.815 619.805C965.137 619.805 967.02 617.922 967.02 615.6C967.02 613.278 965.137 611.395 962.815 611.395Z" fill="#D9D9D9"/>
<path d="M1001.99 726.368C999.666 726.368 997.783 728.25 997.783 730.573C997.783 732.895 999.666 734.778 1001.99 734.778C1004.31 734.778 1006.19 732.895 1006.19 730.573C1006.19 728.25 1004.31 726.368 1001.99 726.368Z" fill="#D9D9D9"/>
<path d="M980.184 123.936C977.861 123.936 975.979 125.819 975.979 128.141C975.979 130.464 977.861 132.346 980.184 132.346C982.506 132.346 984.388 130.464 984.388 128.141C984.388 125.819 982.506 123.936 980.184 123.936Z" fill="#D9D9D9"/>
<path d="M974.513 946.575C972.191 946.575 970.308 948.457 970.308 950.779C970.308 953.102 972.191 954.984 974.513 954.984C976.836 954.984 978.718 953.102 978.718 950.779C978.718 948.457 976.836 946.575 974.513 946.575Z" fill="#D9D9D9"/>
<path d="M910.185 1184.61C907.863 1184.61 905.981 1186.49 905.981 1188.82C905.981 1191.14 907.863 1193.02 910.185 1193.02C912.508 1193.02 914.39 1191.14 914.39 1188.82C914.39 1186.49 912.508 1184.61 910.185 1184.61Z" fill="#D9D9D9"/>
<path d="M1044.39 549.357C1043.18 549.357 1042.2 550.337 1042.2 551.546C1042.2 552.755 1043.18 553.735 1044.39 553.735C1045.6 553.735 1046.58 552.755 1046.58 551.546C1046.58 550.337 1045.6 549.357 1044.39 549.357Z" fill="#D9D9D9"/>
<path d="M1132.36 362.387C1131.15 362.387 1130.17 363.367 1130.17 364.576C1130.17 365.785 1131.15 366.766 1132.36 366.766C1133.57 366.766 1134.55 365.785 1134.55 364.576C1134.55 363.367 1133.57 362.387 1132.36 362.387Z" fill="#D9D9D9"/>
<path d="M1094.59 738.416C1093.38 738.416 1092.4 739.396 1092.4 740.606C1092.4 741.815 1093.38 742.795 1094.59 742.795C1095.79 742.795 1096.78 741.815 1096.78 740.606C1096.78 739.396 1095.79 738.416 1094.59 738.416Z" fill="#D9D9D9"/>
<path d="M1058.22 653.656C1057.01 653.656 1056.03 654.636 1056.03 655.845C1056.03 657.054 1057.01 658.034 1058.22 658.034C1059.43 658.034 1060.41 657.054 1060.41 655.845C1060.41 654.636 1059.43 653.656 1058.22 653.656Z" fill="#D9D9D9"/>
<path d="M1121.77 508.78C1120.56 508.78 1119.58 509.76 1119.58 510.969C1119.58 512.178 1120.56 513.159 1121.77 513.159C1122.98 513.159 1123.96 512.178 1123.96 510.969C1123.96 509.76 1122.98 508.78 1121.77 508.78Z" fill="#D9D9D9"/>
<path d="M993.196 480.463C991.987 480.463 991.006 481.443 991.006 482.652C991.006 483.861 991.987 484.841 993.196 484.841C994.405 484.841 995.385 483.861 995.385 482.652C995.385 481.443 994.405 480.463 993.196 480.463Z" fill="#D9D9D9"/>
<path d="M1121.77 861.197C1120.56 861.197 1119.58 862.177 1119.58 863.386C1119.58 864.595 1120.56 865.576 1121.77 865.576C1122.98 865.576 1123.96 864.595 1123.96 863.386C1123.96 862.177 1122.98 861.197 1121.77 861.197Z" fill="#D9D9D9"/>
<path d="M1060.41 977.084C1059.2 977.084 1058.22 978.064 1058.22 979.273C1058.22 980.482 1059.2 981.463 1060.41 981.463C1061.62 981.463 1062.6 980.482 1062.6 979.273C1062.6 978.064 1061.62 977.084 1060.41 977.084Z" fill="#D9D9D9"/>
<path d="M1008.38 830.567C1007.17 830.567 1006.19 831.547 1006.19 832.757C1006.19 833.966 1007.17 834.946 1008.38 834.946C1009.59 834.946 1010.57 833.966 1010.57 832.757C1010.57 831.547 1009.59 830.567 1008.38 830.567Z" fill="#D9D9D9"/>
<path d="M1035.82 1084.96C1034.61 1084.96 1033.63 1085.94 1033.63 1087.14C1033.63 1088.35 1034.61 1089.33 1035.82 1089.33C1037.03 1089.33 1038.01 1088.35 1038.01 1087.14C1038.01 1085.94 1037.03 1084.96 1035.82 1084.96Z" fill="#D9D9D9"/>
<path d="M1069.38 161.146C1068.17 161.146 1067.19 162.126 1067.19 163.335C1067.19 164.544 1068.17 165.524 1069.38 165.524C1070.59 165.524 1071.57 164.544 1071.57 163.335C1071.57 162.126 1070.59 161.146 1069.38 161.146Z" fill="#D9D9D9"/>
<path d="M1058.22 422.335C1057.01 422.335 1056.03 423.315 1056.03 424.524C1056.03 425.733 1057.01 426.713 1058.22 426.713C1059.43 426.713 1060.41 425.733 1060.41 424.524C1060.41 423.315 1059.43 422.335 1058.22 422.335Z" fill="#D9D9D9"/>
<path d="M980.184 368.782C977.861 368.782 975.979 366.899 975.979 364.577C975.979 362.255 977.861 360.372 980.184 360.372C982.506 360.372 984.388 362.255 984.388 364.577C984.388 366.899 982.506 368.782 980.184 368.782Z" fill="#D9D9D9"/>
<path d="M905.524 1088.96C903.202 1088.96 901.319 1087.08 901.319 1084.76C901.319 1082.44 903.202 1080.55 905.524 1080.55C907.847 1080.55 909.729 1082.44 909.729 1084.76C909.729 1087.08 907.847 1088.96 905.524 1088.96Z" fill="#D9D9D9"/>
<path d="M874.7 107.679C872.378 107.679 870.495 105.796 870.495 103.474C870.495 101.152 872.378 99.269 874.7 99.269C877.022 99.269 878.905 101.152 878.905 103.474C878.905 105.796 877.022 107.679 874.7 107.679Z" fill="#D9D9D9"/>
<path d="M847.304 437.314C844.982 437.314 843.099 435.432 843.099 433.11C843.099 430.787 844.982 428.905 847.304 428.905C849.627 428.905 851.509 430.787 851.509 433.11C851.509 435.432 849.627 437.314 847.304 437.314Z" fill="#D9D9D9"/>
<path d="M725.017 759.32C722.695 759.32 720.812 757.438 720.812 755.115C720.812 752.793 722.695 750.91 725.017 750.91C727.339 750.91 729.222 752.793 729.222 755.115C729.222 757.438 727.339 759.32 725.017 759.32Z" fill="#D9D9D9"/>
<path d="M792.001 565.923C789.679 565.923 787.796 564.041 787.796 561.718C787.796 559.396 789.679 557.513 792.001 557.513C794.323 557.513 796.206 559.396 796.206 561.718C796.206 564.041 794.323 565.923 792.001 565.923Z" fill="#D9D9D9"/>
<path d="M770.203 1168.35C767.88 1168.35 765.998 1166.47 765.998 1164.15C765.998 1161.83 767.88 1159.94 770.203 1159.94C772.525 1159.94 774.408 1161.83 774.408 1164.15C774.408 1166.47 772.525 1168.35 770.203 1168.35Z" fill="#D9D9D9"/>
<path d="M764.533 345.716C762.21 345.716 760.328 343.834 760.328 341.511C760.328 339.189 762.21 337.307 764.533 337.307C766.855 337.307 768.737 339.189 768.737 341.511C768.737 343.834 766.855 345.716 764.533 345.716Z" fill="#D9D9D9"/>
<path d="M700.205 107.679C697.882 107.679 696 105.796 696 103.474C696 101.152 697.882 99.269 700.205 99.269C702.527 99.269 704.41 101.152 704.41 103.474C704.41 105.796 702.527 107.679 700.205 107.679Z" fill="#D9D9D9"/>
<path d="M834.404 742.934C833.195 742.934 832.214 741.954 832.214 740.745C832.214 739.535 833.195 738.555 834.404 738.555C835.613 738.555 836.593 739.535 836.593 740.745C836.593 741.954 835.613 742.934 834.404 742.934Z" fill="#D9D9D9"/>
<path d="M922.383 929.903C921.174 929.903 920.193 928.922 920.193 927.713C920.193 926.504 921.174 925.524 922.383 925.524C923.592 925.524 924.572 926.504 924.572 927.713C924.572 928.922 923.592 929.903 922.383 929.903Z" fill="#D9D9D9"/>
<path d="M884.602 553.874C883.393 553.874 882.413 552.894 882.413 551.685C882.413 550.476 883.393 549.496 884.602 549.496C885.811 549.496 886.791 550.476 886.791 551.685C886.791 552.894 885.811 553.874 884.602 553.874Z" fill="#D9D9D9"/>
<path d="M848.23 638.636C847.021 638.636 846.041 637.656 846.041 636.446C846.041 635.237 847.021 634.257 848.23 634.257C849.439 634.257 850.419 635.237 850.419 636.446C850.419 637.656 849.439 638.636 848.23 638.636Z" fill="#D9D9D9"/>
<path d="M911.784 783.51C910.575 783.51 909.594 782.53 909.594 781.321C909.594 780.112 910.575 779.131 911.784 779.131C912.993 779.131 913.973 780.112 913.973 781.321C913.973 782.53 912.993 783.51 911.784 783.51Z" fill="#D9D9D9"/>
<path d="M783.209 811.826C782 811.826 781.019 810.845 781.019 809.636C781.019 808.427 782 807.447 783.209 807.447C784.418 807.447 785.398 808.427 785.398 809.636C785.398 810.845 784.418 811.826 783.209 811.826Z" fill="#D9D9D9"/>
<path d="M911.784 431.094C910.575 431.094 909.594 430.113 909.594 428.904C909.594 427.695 910.575 426.715 911.784 426.715C912.993 426.715 913.973 427.695 913.973 428.904C913.973 430.113 912.993 431.094 911.784 431.094Z" fill="#D9D9D9"/>
<path d="M850.42 315.207C849.211 315.207 848.23 314.227 848.23 313.018C848.23 311.809 849.211 310.828 850.42 310.828C851.629 310.828 852.609 311.809 852.609 313.018C852.609 314.227 851.629 315.207 850.42 315.207Z" fill="#D9D9D9"/>
<path d="M798.395 461.724C797.186 461.724 796.206 460.744 796.206 459.535C796.206 458.325 797.186 457.345 798.395 457.345C799.604 457.345 800.584 458.325 800.584 459.535C800.584 460.744 799.604 461.724 798.395 461.724Z" fill="#D9D9D9"/>
<path d="M911.784 247.623C910.574 247.623 909.594 246.643 909.594 245.434C909.594 244.225 910.574 243.244 911.784 243.244C912.993 243.244 913.973 244.225 913.973 245.434C913.973 246.643 912.993 247.623 911.784 247.623Z" fill="#D9D9D9"/>
<path d="M859.39 1131.14C858.181 1131.14 857.201 1130.16 857.201 1128.95C857.201 1127.74 858.181 1126.76 859.39 1126.76C860.599 1126.76 861.58 1127.74 861.58 1128.95C861.58 1130.16 860.599 1131.14 859.39 1131.14Z" fill="#D9D9D9"/>
<path d="M729.224 874.095C728.014 874.095 727.034 873.114 727.034 871.905C727.034 870.696 728.014 869.716 729.224 869.716C730.433 869.716 731.413 870.696 731.413 871.905C731.413 873.114 730.433 874.095 729.224 874.095Z" fill="#D9D9D9"/>
<path d="M1187.57 540.951C1185.25 540.951 1183.36 539.068 1183.36 536.746C1183.36 534.423 1185.25 532.541 1187.57 532.541C1189.89 532.541 1191.77 534.423 1191.77 536.746C1191.77 539.068 1189.89 540.951 1187.57 540.951Z" fill="#D9D9D9"/>
<path d="M649.654 1632.64C647.332 1632.64 645.449 1634.52 645.449 1636.84C645.449 1639.16 647.332 1641.05 649.654 1641.05C651.977 1641.05 653.859 1639.16 653.859 1636.84C653.859 1634.52 651.977 1632.64 649.654 1632.64Z" fill="#D9D9D9"/>
<path d="M628.591 1754.15C626.269 1754.15 624.386 1756.04 624.386 1758.36C624.386 1760.68 626.269 1762.56 628.591 1762.56C630.913 1762.56 632.796 1760.68 632.796 1758.36C632.796 1756.04 630.913 1754.15 628.591 1754.15Z" fill="#D9D9D9"/>
<path d="M653.859 2130.37C651.537 2130.37 649.655 2132.25 649.655 2134.57C649.655 2136.9 651.537 2138.78 653.859 2138.78C656.182 2138.78 658.064 2136.9 658.064 2134.57C658.064 2132.25 656.182 2130.37 653.859 2130.37Z" fill="#D9D9D9"/>
<path d="M637.001 1387.12C634.679 1387.12 632.796 1389 632.796 1391.33C632.796 1393.65 634.679 1395.53 637.001 1395.53C639.323 1395.53 641.206 1393.65 641.206 1391.33C641.206 1389 639.323 1387.12 637.001 1387.12Z" fill="#D9D9D9"/>
<path d="M606.18 2368.41C603.857 2368.41 601.975 2370.29 601.975 2372.61C601.975 2374.93 603.857 2376.82 606.18 2376.82C608.502 2376.82 610.385 2374.93 610.385 2372.61C610.385 2370.29 608.502 2368.41 606.18 2368.41Z" fill="#D9D9D9"/>
<path d="M578.784 2038.77C576.462 2038.77 574.579 2040.65 574.579 2042.97C574.579 2045.3 576.462 2047.18 578.784 2047.18C581.106 2047.18 582.989 2045.3 582.989 2042.97C582.989 2040.65 581.106 2038.77 578.784 2038.77Z" fill="#D9D9D9"/>
<path d="M456.497 1716.76C454.174 1716.76 452.292 1718.65 452.292 1720.97C452.292 1723.29 454.174 1725.17 456.497 1725.17C458.819 1725.17 460.701 1723.29 460.701 1720.97C460.701 1718.65 458.819 1716.76 456.497 1716.76Z" fill="#D9D9D9"/>
<path d="M523.481 1910.16C521.158 1910.16 519.276 1912.04 519.276 1914.37C519.276 1916.69 521.158 1918.57 523.481 1918.57C525.803 1918.57 527.685 1916.69 527.685 1914.37C527.685 1912.04 525.803 1910.16 523.481 1910.16Z" fill="#D9D9D9"/>
<path d="M464.906 1840.7C462.584 1840.7 460.701 1842.59 460.701 1844.91C460.701 1847.23 462.584 1849.11 464.906 1849.11C467.229 1849.11 469.111 1847.23 469.111 1844.91C469.111 1842.59 467.229 1840.7 464.906 1840.7Z" fill="#D9D9D9"/>
<path d="M501.682 1307.73C499.36 1307.73 497.478 1309.61 497.478 1311.94C497.478 1314.26 499.36 1316.14 501.682 1316.14C504.005 1316.14 505.887 1314.26 505.887 1311.94C505.887 1309.61 504.005 1307.73 501.682 1307.73Z" fill="#D9D9D9"/>
<path d="M496.012 2130.37C493.69 2130.37 491.807 2132.25 491.807 2134.57C491.807 2136.9 493.69 2138.78 496.012 2138.78C498.335 2138.78 500.217 2136.9 500.217 2134.57C500.217 2132.25 498.335 2130.37 496.012 2130.37Z" fill="#D9D9D9"/>
<path d="M431.691 2368.41C429.369 2368.41 427.486 2370.29 427.486 2372.61C427.486 2374.93 429.369 2376.82 431.691 2376.82C434.013 2376.82 435.896 2374.93 435.896 2372.61C435.896 2370.29 434.013 2368.41 431.691 2368.41Z" fill="#D9D9D9"/>
<path d="M565.883 1733.15C564.674 1733.15 563.694 1734.13 563.694 1735.34C563.694 1736.55 564.674 1737.53 565.883 1737.53C567.093 1737.53 568.073 1736.55 568.073 1735.34C568.073 1734.13 567.093 1733.15 565.883 1733.15Z" fill="#D9D9D9"/>
<path d="M653.859 1546.18C652.65 1546.18 651.67 1547.16 651.67 1548.37C651.67 1549.58 652.65 1550.56 653.859 1550.56C655.069 1550.56 656.049 1549.58 656.049 1548.37C656.049 1547.16 655.069 1546.18 653.859 1546.18Z" fill="#D9D9D9"/>
<path d="M616.079 1922.21C614.87 1922.21 613.889 1923.19 613.889 1924.4C613.889 1925.61 614.87 1926.59 616.079 1926.59C617.288 1926.59 618.268 1925.61 618.268 1924.4C618.268 1923.19 617.288 1922.21 616.079 1922.21Z" fill="#D9D9D9"/>
<path d="M579.71 1837.45C578.501 1837.45 577.52 1838.43 577.52 1839.64C577.52 1840.85 578.501 1841.83 579.71 1841.83C580.919 1841.83 581.899 1840.85 581.899 1839.64C581.899 1838.43 580.919 1837.45 579.71 1837.45Z" fill="#D9D9D9"/>
<path d="M643.26 1692.57C642.051 1692.57 641.071 1693.55 641.071 1694.76C641.071 1695.97 642.051 1696.95 643.26 1696.95C644.469 1696.95 645.449 1695.97 645.449 1694.76C645.449 1693.55 644.469 1692.57 643.26 1692.57Z" fill="#D9D9D9"/>
<path d="M514.688 1664.26C513.479 1664.26 512.499 1665.24 512.499 1666.45C512.499 1667.66 513.479 1668.64 514.688 1668.64C515.897 1668.64 516.878 1667.66 516.878 1666.45C516.878 1665.24 515.897 1664.26 514.688 1664.26Z" fill="#D9D9D9"/>
<path d="M643.26 2044.99C642.051 2044.99 641.071 2045.97 641.071 2047.18C641.071 2048.39 642.051 2049.37 643.26 2049.37C644.469 2049.37 645.449 2048.39 645.449 2047.18C645.449 2045.97 644.469 2044.99 643.26 2044.99Z" fill="#D9D9D9"/>
<path d="M581.899 2160.88C580.69 2160.88 579.71 2161.86 579.71 2163.07C579.71 2164.28 580.69 2165.26 581.899 2165.26C583.108 2165.26 584.089 2164.28 584.089 2163.07C584.089 2161.86 583.108 2160.88 581.899 2160.88Z" fill="#D9D9D9"/>
<path d="M529.875 2014.36C528.665 2014.36 527.685 2015.34 527.685 2016.55C527.685 2017.76 528.665 2018.74 529.875 2018.74C531.084 2018.74 532.064 2017.76 532.064 2016.55C532.064 2015.34 531.084 2014.36 529.875 2014.36Z" fill="#D9D9D9"/>
<path d="M643.26 2228.46C642.051 2228.46 641.071 2229.44 641.071 2230.65C641.071 2231.86 642.051 2232.84 643.26 2232.84C644.469 2232.84 645.449 2231.86 645.449 2230.65C645.449 2229.44 644.469 2228.46 643.26 2228.46Z" fill="#D9D9D9"/>
<path d="M590.87 1344.94C589.661 1344.94 588.681 1345.92 588.681 1347.13C588.681 1348.34 589.661 1349.32 590.87 1349.32C592.079 1349.32 593.059 1348.34 593.059 1347.13C593.059 1345.92 592.079 1344.94 590.87 1344.94Z" fill="#D9D9D9"/>
<path d="M460.703 1601.99C459.494 1601.99 458.514 1602.97 458.514 1604.18C458.514 1605.39 459.494 1606.37 460.703 1606.37C461.912 1606.37 462.892 1605.39 462.892 1604.18C462.892 1602.97 461.912 1601.99 460.703 1601.99Z" fill="#D9D9D9"/>
<path d="M405.395 1554.18C403.073 1554.18 401.19 1552.3 401.19 1549.97C401.19 1547.65 403.073 1545.77 405.395 1545.77C407.717 1545.77 409.6 1547.65 409.6 1549.97C409.6 1552.3 407.717 1554.18 405.395 1554.18Z" fill="#D9D9D9"/>
<path d="M388.543 2297.43C386.22 2297.43 384.338 2295.55 384.338 2293.22C384.338 2290.9 386.22 2289.02 388.543 2289.02C390.865 2289.02 392.747 2290.9 392.747 2293.22C392.747 2295.55 390.865 2297.43 388.543 2297.43Z" fill="#D9D9D9"/>
<path d="M357.721 1316.14C355.399 1316.14 353.516 1314.26 353.516 1311.94C353.516 1309.61 355.399 1307.73 357.721 1307.73C360.044 1307.73 361.926 1309.61 361.926 1311.94C361.926 1314.26 360.044 1316.14 357.721 1316.14Z" fill="#D9D9D9"/>
<path d="M330.326 1645.78C328.003 1645.78 326.121 1643.89 326.121 1641.57C326.121 1639.25 328.003 1637.37 330.326 1637.37C332.648 1637.37 334.531 1639.25 334.531 1641.57C334.531 1643.89 332.648 1645.78 330.326 1645.78Z" fill="#D9D9D9"/>
<path d="M235.849 1889.36C233.527 1889.36 231.644 1887.48 231.644 1885.15C231.644 1882.83 233.527 1880.95 235.849 1880.95C238.171 1880.95 240.054 1882.83 240.054 1885.15C240.054 1887.48 238.171 1889.36 235.849 1889.36Z" fill="#D9D9D9"/>
<path d="M275.022 1774.39C272.7 1774.39 270.817 1772.5 270.817 1770.18C270.817 1767.86 272.7 1765.98 275.022 1765.98C277.345 1765.98 279.227 1767.86 279.227 1770.18C279.227 1772.5 277.345 1774.39 275.022 1774.39Z" fill="#D9D9D9"/>
<path d="M253.218 2376.82C250.896 2376.82 249.013 2374.93 249.013 2372.61C249.013 2370.29 250.896 2368.41 253.218 2368.41C255.54 2368.41 257.423 2370.29 257.423 2372.61C257.423 2374.93 255.54 2376.82 253.218 2376.82Z" fill="#D9D9D9"/>
<path d="M247.548 1554.18C245.225 1554.18 243.343 1552.3 243.343 1549.97C243.343 1547.65 245.225 1545.77 247.548 1545.77C249.87 1545.77 251.752 1547.65 251.752 1549.97C251.752 1552.3 249.87 1554.18 247.548 1554.18Z" fill="#D9D9D9"/>
<path d="M183.22 1316.14C180.897 1316.14 179.015 1314.26 179.015 1311.94C179.015 1309.61 180.897 1307.73 183.22 1307.73C185.542 1307.73 187.425 1309.61 187.425 1311.94C187.425 1314.26 185.542 1316.14 183.22 1316.14Z" fill="#D9D9D9"/>
<path d="M317.425 1951.4C316.216 1951.4 315.236 1950.42 315.236 1949.21C315.236 1948 316.216 1947.02 317.425 1947.02C318.634 1947.02 319.614 1948 319.614 1949.21C319.614 1950.42 318.634 1951.4 317.425 1951.4Z" fill="#D9D9D9"/>
<path d="M405.395 2138.37C404.186 2138.37 403.206 2137.39 403.206 2136.18C403.206 2134.97 404.186 2133.99 405.395 2133.99C406.604 2133.99 407.584 2134.97 407.584 2136.18C407.584 2137.39 406.604 2138.37 405.395 2138.37Z" fill="#D9D9D9"/>
<path d="M367.62 1762.34C366.411 1762.34 365.431 1761.36 365.431 1760.15C365.431 1758.94 366.411 1757.96 367.62 1757.96C368.829 1757.96 369.809 1758.94 369.809 1760.15C369.809 1761.36 368.829 1762.34 367.62 1762.34Z" fill="#D9D9D9"/>
<path d="M331.251 1847.1C330.042 1847.1 329.062 1846.12 329.062 1844.91C329.062 1843.7 330.042 1842.72 331.251 1842.72C332.461 1842.72 333.441 1843.7 333.441 1844.91C333.441 1846.12 332.461 1847.1 331.251 1847.1Z" fill="#D9D9D9"/>
<path d="M394.802 1991.97C393.593 1991.97 392.612 1990.99 392.612 1989.78C392.612 1988.58 393.593 1987.59 394.802 1987.59C396.011 1987.59 396.991 1988.58 396.991 1989.78C396.991 1990.99 396.011 1991.97 394.802 1991.97Z" fill="#D9D9D9"/>
<path d="M266.23 2020.29C265.021 2020.29 264.041 2019.31 264.041 2018.1C264.041 2016.89 265.021 2015.91 266.23 2015.91C267.439 2015.91 268.419 2016.89 268.419 2018.1C268.419 2019.31 267.439 2020.29 266.23 2020.29Z" fill="#D9D9D9"/>
<path d="M394.802 1639.56C393.593 1639.56 392.612 1638.58 392.612 1637.37C392.612 1636.16 393.593 1635.18 394.802 1635.18C396.011 1635.18 396.991 1636.16 396.991 1637.37C396.991 1638.58 396.011 1639.56 394.802 1639.56Z" fill="#D9D9D9"/>
<path d="M333.441 1523.67C332.232 1523.67 331.252 1522.69 331.252 1521.48C331.252 1520.27 332.232 1519.29 333.441 1519.29C334.65 1519.29 335.63 1520.27 335.63 1521.48C335.63 1522.69 334.65 1523.67 333.441 1523.67Z" fill="#D9D9D9"/>
<path d="M281.416 1670.19C280.207 1670.19 279.227 1669.21 279.227 1668C279.227 1666.79 280.207 1665.81 281.416 1665.81C282.625 1665.81 283.606 1666.79 283.606 1668C283.606 1669.21 282.625 1670.19 281.416 1670.19Z" fill="#D9D9D9"/>
<path d="M308.852 1415.8C307.643 1415.8 306.663 1414.82 306.663 1413.61C306.663 1412.4 307.643 1411.42 308.852 1411.42C310.061 1411.42 311.042 1412.4 311.042 1413.61C311.042 1414.82 310.061 1415.8 308.852 1415.8Z" fill="#D9D9D9"/>
<path d="M342.412 2339.61C341.203 2339.61 340.223 2338.63 340.223 2337.42C340.223 2336.21 341.203 2335.23 342.412 2335.23C343.621 2335.23 344.601 2336.21 344.601 2337.42C344.601 2338.63 343.621 2339.61 342.412 2339.61Z" fill="#D9D9D9"/>
<path d="M331.251 2078.42C330.042 2078.42 329.062 2077.44 329.062 2076.23C329.062 2075.02 330.042 2074.04 331.251 2074.04C332.461 2074.04 333.441 2075.02 333.441 2076.23C333.441 2077.44 332.461 2078.42 331.251 2078.42Z" fill="#D9D9D9"/>
<path d="M253.218 2131.97C250.896 2131.97 249.013 2133.85 249.013 2136.18C249.013 2138.5 250.896 2140.38 253.218 2140.38C255.54 2140.38 257.423 2138.5 257.423 2136.18C257.423 2133.85 255.54 2131.97 253.218 2131.97Z" fill="#D9D9D9"/>
<path d="M178.559 1411.79C176.236 1411.79 174.354 1413.67 174.354 1415.99C174.354 1418.32 176.236 1420.2 178.559 1420.2C180.881 1420.2 182.763 1418.32 182.763 1415.99C182.763 1413.67 180.881 1411.79 178.559 1411.79Z" fill="#D9D9D9"/>
<path d="M147.734 2393.07C145.412 2393.07 143.529 2394.96 143.529 2397.28C143.529 2399.6 145.412 2401.48 147.734 2401.48C150.057 2401.48 151.939 2399.6 151.939 2397.28C151.939 2394.96 150.057 2393.07 147.734 2393.07Z" fill="#D9D9D9"/>
<path d="M120.339 2063.44C118.016 2063.44 116.134 2065.32 116.134 2067.64C116.134 2069.97 118.016 2071.85 120.339 2071.85C122.661 2071.85 124.543 2069.97 124.543 2067.64C124.543 2065.32 122.661 2063.44 120.339 2063.44Z" fill="#D9D9D9"/>
<path d="M-1.94882 1741.43C-4.27112 1741.43 -6.15372 1743.32 -6.15372 1745.64C-6.15372 1747.96 -4.27112 1749.84 -1.94882 1749.84C0.37348 1749.84 2.25608 1747.96 2.25608 1745.64C2.25608 1743.32 0.37348 1741.43 -1.94882 1741.43Z" fill="#D9D9D9"/>
<path d="M65.0352 1934.83C62.7129 1934.83 60.8303 1936.71 60.8303 1939.04C60.8303 1941.36 62.7129 1943.24 65.0352 1943.24C67.3575 1943.24 69.2401 1941.36 69.2401 1939.04C69.2401 1936.71 67.3575 1934.83 65.0352 1934.83Z" fill="#D9D9D9"/>
<path d="M43.2371 1332.4C40.9148 1332.4 39.0322 1334.28 39.0322 1336.6C39.0322 1338.93 40.9148 1340.81 43.2371 1340.81C45.5594 1340.81 47.442 1338.93 47.442 1336.6C47.442 1334.28 45.5594 1332.4 43.2371 1332.4Z" fill="#D9D9D9"/>
<path d="M37.5669 2155.04C35.2446 2155.04 33.362 2156.92 33.362 2159.24C33.362 2161.56 35.2446 2163.45 37.5669 2163.45C39.8892 2163.45 41.7718 2161.56 41.7718 2159.24C41.7718 2156.92 39.8892 2155.04 37.5669 2155.04Z" fill="#D9D9D9"/>
<path d="M-26.7609 2393.07C-29.0832 2393.07 -30.9658 2394.96 -30.9658 2397.28C-30.9658 2399.6 -29.0832 2401.48 -26.7609 2401.48C-24.4386 2401.48 -22.556 2399.6 -22.556 2397.28C-22.556 2394.96 -24.4386 2393.07 -26.7609 2393.07Z" fill="#D9D9D9"/>
<path d="M107.438 1757.82C106.229 1757.82 105.249 1758.8 105.249 1760.01C105.249 1761.22 106.229 1762.2 107.438 1762.2C108.647 1762.2 109.627 1761.22 109.627 1760.01C109.627 1758.8 108.647 1757.82 107.438 1757.82Z" fill="#D9D9D9"/>
<path d="M195.417 1570.85C194.208 1570.85 193.228 1571.83 193.228 1573.04C193.228 1574.25 194.208 1575.23 195.417 1575.23C196.626 1575.23 197.606 1574.25 197.606 1573.04C197.606 1571.83 196.626 1570.85 195.417 1570.85Z" fill="#D9D9D9"/>
<path d="M157.636 1946.88C156.427 1946.88 155.447 1947.86 155.447 1949.07C155.447 1950.28 156.427 1951.26 157.636 1951.26C158.845 1951.26 159.826 1950.28 159.826 1949.07C159.826 1947.86 158.845 1946.88 157.636 1946.88Z" fill="#D9D9D9"/>
<path d="M121.264 1862.12C120.055 1862.12 119.075 1863.1 119.075 1864.31C119.075 1865.52 120.055 1866.5 121.264 1866.5C122.474 1866.5 123.454 1865.52 123.454 1864.31C123.454 1863.1 122.474 1862.12 121.264 1862.12Z" fill="#D9D9D9"/>
<path d="M184.818 1717.24C183.609 1717.24 182.629 1718.22 182.629 1719.43C182.629 1720.64 183.609 1721.62 184.818 1721.62C186.027 1721.62 187.007 1720.64 187.007 1719.43C187.007 1718.22 186.027 1717.24 184.818 1717.24Z" fill="#D9D9D9"/>
<path d="M56.243 1688.93C55.0339 1688.93 54.0537 1689.91 54.0537 1691.12C54.0537 1692.33 55.0339 1693.31 56.243 1693.31C57.4521 1693.31 58.4323 1692.33 58.4323 1691.12C58.4323 1689.91 57.4521 1688.93 56.243 1688.93Z" fill="#D9D9D9"/>
<path d="M184.818 2069.66C183.609 2069.66 182.629 2070.64 182.629 2071.85C182.629 2073.06 183.609 2074.04 184.818 2074.04C186.027 2074.04 187.007 2073.06 187.007 2071.85C187.007 2070.64 186.027 2069.66 184.818 2069.66Z" fill="#D9D9D9"/>
<path d="M123.454 2185.55C122.245 2185.55 121.265 2186.53 121.265 2187.74C121.265 2188.94 122.245 2189.93 123.454 2189.93C124.663 2189.93 125.643 2188.94 125.643 2187.74C125.643 2186.53 124.663 2185.55 123.454 2185.55Z" fill="#D9D9D9"/>
<path d="M71.4292 2039.03C70.2201 2039.03 69.24 2040.01 69.24 2041.22C69.24 2042.43 70.2201 2043.41 71.4292 2043.41C72.6383 2043.41 73.6185 2042.43 73.6185 2041.22C73.6185 2040.01 72.6383 2039.03 71.4292 2039.03Z" fill="#D9D9D9"/>
<path d="M184.818 2253.13C183.609 2253.13 182.629 2254.11 182.629 2255.32C182.629 2256.53 183.609 2257.51 184.818 2257.51C186.027 2257.51 187.007 2256.53 187.007 2255.32C187.007 2254.11 186.027 2253.13 184.818 2253.13Z" fill="#D9D9D9"/>
<path d="M132.425 1369.61C131.216 1369.61 130.235 1370.59 130.235 1371.8C130.235 1373.01 131.216 1373.99 132.425 1373.99C133.634 1373.99 134.614 1373.01 134.614 1371.8C134.614 1370.59 133.634 1369.61 132.425 1369.61Z" fill="#D9D9D9"/>
<path d="M2.25783 1626.66C1.04872 1626.66 0.0685443 1627.64 0.0685444 1628.85C0.0685444 1630.06 1.04872 1631.04 2.25783 1631.04C3.46694 1631.04 4.44711 1630.06 4.44711 1628.85C4.44711 1627.64 3.46694 1626.66 2.25783 1626.66Z" fill="#D9D9D9"/>
<path d="M460.604 1959.8C458.282 1959.8 456.399 1961.69 456.399 1964.01C456.399 1966.33 458.282 1968.21 460.604 1968.21C462.926 1968.21 464.809 1966.33 464.809 1964.01C464.809 1961.69 462.926 1959.8 460.604 1959.8Z" fill="#D9D9D9"/>
<path d="M1376.62 1632.64C1374.3 1632.64 1372.42 1634.52 1372.42 1636.84C1372.42 1639.16 1374.3 1641.05 1376.62 1641.05C1378.94 1641.05 1380.83 1639.16 1380.83 1636.84C1380.83 1634.52 1378.94 1632.64 1376.62 1632.64Z" fill="#D9D9D9"/>
<path d="M1355.56 1754.15C1353.23 1754.15 1351.35 1756.04 1351.35 1758.36C1351.35 1760.68 1353.23 1762.56 1355.56 1762.56C1357.88 1762.56 1359.76 1760.68 1359.76 1758.36C1359.76 1756.04 1357.88 1754.15 1355.56 1754.15Z" fill="#D9D9D9"/>
<path d="M1380.83 2130.37C1378.5 2130.37 1376.62 2132.25 1376.62 2134.57C1376.62 2136.9 1378.5 2138.78 1380.83 2138.78C1383.15 2138.78 1385.03 2136.9 1385.03 2134.57C1385.03 2132.25 1383.15 2130.37 1380.83 2130.37Z" fill="#D9D9D9"/>
<path d="M1363.97 1387.12C1361.64 1387.12 1359.76 1389 1359.76 1391.33C1359.76 1393.65 1361.64 1395.53 1363.97 1395.53C1366.29 1395.53 1368.17 1393.65 1368.17 1391.33C1368.17 1389 1366.29 1387.12 1363.97 1387.12Z" fill="#D9D9D9"/>
<path d="M1333.15 2368.41C1330.82 2368.41 1328.94 2370.29 1328.94 2372.61C1328.94 2374.93 1330.82 2376.82 1333.15 2376.82C1335.47 2376.82 1337.35 2374.93 1337.35 2372.61C1337.35 2370.29 1335.47 2368.41 1333.15 2368.41Z" fill="#D9D9D9"/>
<path d="M1305.75 2038.77C1303.43 2038.77 1301.54 2040.65 1301.54 2042.97C1301.54 2045.3 1303.43 2047.18 1305.75 2047.18C1308.07 2047.18 1309.95 2045.3 1309.95 2042.97C1309.95 2040.65 1308.07 2038.77 1305.75 2038.77Z" fill="#D9D9D9"/>
<path d="M1183.46 1716.76C1181.14 1716.76 1179.26 1718.65 1179.26 1720.97C1179.26 1723.29 1181.14 1725.17 1183.46 1725.17C1185.78 1725.17 1187.67 1723.29 1187.67 1720.97C1187.67 1718.65 1185.78 1716.76 1183.46 1716.76Z" fill="#D9D9D9"/>
<path d="M1250.45 1910.16C1248.12 1910.16 1246.24 1912.04 1246.24 1914.37C1246.24 1916.69 1248.12 1918.57 1250.45 1918.57C1252.77 1918.57 1254.65 1916.69 1254.65 1914.37C1254.65 1912.04 1252.77 1910.16 1250.45 1910.16Z" fill="#D9D9D9"/>
<path d="M1191.87 1840.7C1189.55 1840.7 1187.67 1842.59 1187.67 1844.91C1187.67 1847.23 1189.55 1849.11 1191.87 1849.11C1194.19 1849.11 1196.08 1847.23 1196.08 1844.91C1196.08 1842.59 1194.19 1840.7 1191.87 1840.7Z" fill="#D9D9D9"/>
<path d="M1228.65 1307.73C1226.33 1307.73 1224.44 1309.61 1224.44 1311.94C1224.44 1314.26 1226.33 1316.14 1228.65 1316.14C1230.97 1316.14 1232.85 1314.26 1232.85 1311.94C1232.85 1309.61 1230.97 1307.73 1228.65 1307.73Z" fill="#D9D9D9"/>
<path d="M1222.98 2130.37C1220.66 2130.37 1218.77 2132.25 1218.77 2134.57C1218.77 2136.9 1220.66 2138.78 1222.98 2138.78C1225.3 2138.78 1227.18 2136.9 1227.18 2134.57C1227.18 2132.25 1225.3 2130.37 1222.98 2130.37Z" fill="#D9D9D9"/>
<path d="M1158.66 2368.41C1156.33 2368.41 1154.45 2370.29 1154.45 2372.61C1154.45 2374.93 1156.33 2376.82 1158.66 2376.82C1160.98 2376.82 1162.86 2374.93 1162.86 2372.61C1162.86 2370.29 1160.98 2368.41 1158.66 2368.41Z" fill="#D9D9D9"/>
<path d="M1292.85 1733.15C1291.64 1733.15 1290.66 1734.13 1290.66 1735.34C1290.66 1736.55 1291.64 1737.53 1292.85 1737.53C1294.06 1737.53 1295.04 1736.55 1295.04 1735.34C1295.04 1734.13 1294.06 1733.15 1292.85 1733.15Z" fill="#D9D9D9"/>
<path d="M1380.83 1546.18C1379.62 1546.18 1378.64 1547.16 1378.64 1548.37C1378.64 1549.58 1379.62 1550.56 1380.83 1550.56C1382.03 1550.56 1383.01 1549.58 1383.01 1548.37C1383.01 1547.16 1382.03 1546.18 1380.83 1546.18Z" fill="#D9D9D9"/>
<path d="M1343.04 1922.21C1341.84 1922.21 1340.86 1923.19 1340.86 1924.4C1340.86 1925.61 1341.84 1926.59 1343.04 1926.59C1344.25 1926.59 1345.23 1925.61 1345.23 1924.4C1345.23 1923.19 1344.25 1922.21 1343.04 1922.21Z" fill="#D9D9D9"/>
<path d="M1306.68 1837.45C1305.47 1837.45 1304.49 1838.43 1304.49 1839.64C1304.49 1840.85 1305.47 1841.83 1306.68 1841.83C1307.88 1841.83 1308.86 1840.85 1308.86 1839.64C1308.86 1838.43 1307.88 1837.45 1306.68 1837.45Z" fill="#D9D9D9"/>
<path d="M1370.23 1692.57C1369.02 1692.57 1368.04 1693.55 1368.04 1694.76C1368.04 1695.97 1369.02 1696.95 1370.23 1696.95C1371.44 1696.95 1372.42 1695.97 1372.42 1694.76C1372.42 1693.55 1371.44 1692.57 1370.23 1692.57Z" fill="#D9D9D9"/>
<path d="M1241.65 1664.26C1240.45 1664.26 1239.46 1665.24 1239.46 1666.45C1239.46 1667.66 1240.45 1668.64 1241.65 1668.64C1242.86 1668.64 1243.84 1667.66 1243.84 1666.45C1243.84 1665.24 1242.86 1664.26 1241.65 1664.26Z" fill="#D9D9D9"/>
<path d="M1370.23 2044.99C1369.02 2044.99 1368.04 2045.97 1368.04 2047.18C1368.04 2048.39 1369.02 2049.37 1370.23 2049.37C1371.44 2049.37 1372.42 2048.39 1372.42 2047.18C1372.42 2045.97 1371.44 2044.99 1370.23 2044.99Z" fill="#D9D9D9"/>
<path d="M1308.87 2160.88C1307.66 2160.88 1306.68 2161.86 1306.68 2163.07C1306.68 2164.28 1307.66 2165.26 1308.87 2165.26C1310.07 2165.26 1311.05 2164.28 1311.05 2163.07C1311.05 2161.86 1310.07 2160.88 1308.87 2160.88Z" fill="#D9D9D9"/>
<path d="M1256.84 2014.36C1255.63 2014.36 1254.65 2015.34 1254.65 2016.55C1254.65 2017.76 1255.63 2018.74 1256.84 2018.74C1258.05 2018.74 1259.03 2017.76 1259.03 2016.55C1259.03 2015.34 1258.05 2014.36 1256.84 2014.36Z" fill="#D9D9D9"/>
<path d="M1370.23 2228.46C1369.02 2228.46 1368.04 2229.44 1368.04 2230.65C1368.04 2231.86 1369.02 2232.84 1370.23 2232.84C1371.44 2232.84 1372.42 2231.86 1372.42 2230.65C1372.42 2229.44 1371.44 2228.46 1370.23 2228.46Z" fill="#D9D9D9"/>
<path d="M1317.84 1344.94C1316.63 1344.94 1315.65 1345.92 1315.65 1347.13C1315.65 1348.34 1316.63 1349.32 1317.84 1349.32C1319.05 1349.32 1320.03 1348.34 1320.03 1347.13C1320.03 1345.92 1319.05 1344.94 1317.84 1344.94Z" fill="#D9D9D9"/>
<path d="M1187.67 1601.99C1186.46 1601.99 1185.48 1602.97 1185.48 1604.18C1185.48 1605.39 1186.46 1606.37 1187.67 1606.37C1188.88 1606.37 1189.86 1605.39 1189.86 1604.18C1189.86 1602.97 1188.88 1601.99 1187.67 1601.99Z" fill="#D9D9D9"/>
<path d="M1132.36 1554.18C1130.04 1554.18 1128.16 1552.3 1128.16 1549.97C1128.16 1547.65 1130.04 1545.77 1132.36 1545.77C1134.68 1545.77 1136.57 1547.65 1136.57 1549.97C1136.57 1552.3 1134.68 1554.18 1132.36 1554.18Z" fill="#D9D9D9"/>
<path d="M1115.51 2297.43C1113.19 2297.43 1111.3 2295.55 1111.3 2293.22C1111.3 2290.9 1113.19 2289.02 1115.51 2289.02C1117.83 2289.02 1119.71 2290.9 1119.71 2293.22C1119.71 2295.55 1117.83 2297.43 1115.51 2297.43Z" fill="#D9D9D9"/>
<path d="M1084.69 1316.14C1082.36 1316.14 1080.48 1314.26 1080.48 1311.94C1080.48 1309.61 1082.36 1307.73 1084.69 1307.73C1087.01 1307.73 1088.89 1309.61 1088.89 1311.94C1088.89 1314.26 1087.01 1316.14 1084.69 1316.14Z" fill="#D9D9D9"/>
<path d="M1057.29 1645.78C1054.97 1645.78 1053.09 1643.89 1053.09 1641.57C1053.09 1639.25 1054.97 1637.37 1057.29 1637.37C1059.61 1637.37 1061.5 1639.25 1061.5 1641.57C1061.5 1643.89 1059.61 1645.78 1057.29 1645.78Z" fill="#D9D9D9"/>
<path d="M962.815 1889.36C960.493 1889.36 958.61 1887.48 958.61 1885.15C958.61 1882.83 960.493 1880.95 962.815 1880.95C965.137 1880.95 967.02 1882.83 967.02 1885.15C967.02 1887.48 965.137 1889.36 962.815 1889.36Z" fill="#D9D9D9"/>
<path d="M1001.99 1774.39C999.666 1774.39 997.783 1772.5 997.783 1770.18C997.783 1767.86 999.666 1765.98 1001.99 1765.98C1004.31 1765.98 1006.19 1767.86 1006.19 1770.18C1006.19 1772.5 1004.31 1774.39 1001.99 1774.39Z" fill="#D9D9D9"/>
<path d="M980.184 2376.82C977.861 2376.82 975.979 2374.93 975.979 2372.61C975.979 2370.29 977.861 2368.41 980.184 2368.41C982.506 2368.41 984.389 2370.29 984.389 2372.61C984.389 2374.93 982.506 2376.82 980.184 2376.82Z" fill="#D9D9D9"/>
<path d="M974.513 1554.18C972.191 1554.18 970.308 1552.3 970.308 1549.97C970.308 1547.65 972.191 1545.77 974.513 1545.77C976.836 1545.77 978.718 1547.65 978.718 1549.97C978.718 1552.3 976.836 1554.18 974.513 1554.18Z" fill="#D9D9D9"/>
<path d="M910.186 1316.14C907.863 1316.14 905.981 1314.26 905.981 1311.94C905.981 1309.61 907.863 1307.73 910.186 1307.73C912.508 1307.73 914.39 1309.61 914.39 1311.94C914.39 1314.26 912.508 1316.14 910.186 1316.14Z" fill="#D9D9D9"/>
<path d="M1044.39 1951.4C1043.18 1951.4 1042.2 1950.42 1042.2 1949.21C1042.2 1948 1043.18 1947.02 1044.39 1947.02C1045.6 1947.02 1046.58 1948 1046.58 1949.21C1046.58 1950.42 1045.6 1951.4 1044.39 1951.4Z" fill="#D9D9D9"/>
<path d="M1132.36 2138.37C1131.15 2138.37 1130.17 2137.39 1130.17 2136.18C1130.17 2134.97 1131.15 2133.99 1132.36 2133.99C1133.57 2133.99 1134.55 2134.97 1134.55 2136.18C1134.55 2137.39 1133.57 2138.37 1132.36 2138.37Z" fill="#D9D9D9"/>
<path d="M1094.59 1762.34C1093.38 1762.34 1092.4 1761.36 1092.4 1760.15C1092.4 1758.94 1093.38 1757.96 1094.59 1757.96C1095.8 1757.96 1096.78 1758.94 1096.78 1760.15C1096.78 1761.36 1095.8 1762.34 1094.59 1762.34Z" fill="#D9D9D9"/>
<path d="M1058.22 1847.1C1057.01 1847.1 1056.03 1846.12 1056.03 1844.91C1056.03 1843.7 1057.01 1842.72 1058.22 1842.72C1059.43 1842.72 1060.41 1843.7 1060.41 1844.91C1060.41 1846.12 1059.43 1847.1 1058.22 1847.1Z" fill="#D9D9D9"/>
<path d="M1121.77 1991.97C1120.56 1991.97 1119.58 1990.99 1119.58 1989.78C1119.58 1988.58 1120.56 1987.59 1121.77 1987.59C1122.98 1987.59 1123.96 1988.58 1123.96 1989.78C1123.96 1990.99 1122.98 1991.97 1121.77 1991.97Z" fill="#D9D9D9"/>
<path d="M993.196 2020.29C991.987 2020.29 991.006 2019.31 991.006 2018.1C991.006 2016.89 991.987 2015.91 993.196 2015.91C994.405 2015.91 995.385 2016.89 995.385 2018.1C995.385 2019.31 994.405 2020.29 993.196 2020.29Z" fill="#D9D9D9"/>
<path d="M1121.77 1639.56C1120.56 1639.56 1119.58 1638.58 1119.58 1637.37C1119.58 1636.16 1120.56 1635.18 1121.77 1635.18C1122.98 1635.18 1123.96 1636.16 1123.96 1637.37C1123.96 1638.58 1122.98 1639.56 1121.77 1639.56Z" fill="#D9D9D9"/>
<path d="M1060.41 1523.67C1059.2 1523.67 1058.22 1522.69 1058.22 1521.48C1058.22 1520.27 1059.2 1519.29 1060.41 1519.29C1061.62 1519.29 1062.6 1520.27 1062.6 1521.48C1062.6 1522.69 1061.62 1523.67 1060.41 1523.67Z" fill="#D9D9D9"/>
<path d="M1008.38 1670.19C1007.17 1670.19 1006.19 1669.21 1006.19 1668C1006.19 1666.79 1007.17 1665.81 1008.38 1665.81C1009.59 1665.81 1010.57 1666.79 1010.57 1668C1010.57 1669.21 1009.59 1670.19 1008.38 1670.19Z" fill="#D9D9D9"/>
<path d="M1035.82 1415.8C1034.61 1415.8 1033.63 1414.82 1033.63 1413.61C1033.63 1412.4 1034.61 1411.42 1035.82 1411.42C1037.03 1411.42 1038.01 1412.4 1038.01 1413.61C1038.01 1414.82 1037.03 1415.8 1035.82 1415.8Z" fill="#D9D9D9"/>
<path d="M1069.38 2339.61C1068.17 2339.61 1067.19 2338.63 1067.19 2337.42C1067.19 2336.21 1068.17 2335.23 1069.38 2335.23C1070.59 2335.23 1071.57 2336.21 1071.57 2337.42C1071.57 2338.63 1070.59 2339.61 1069.38 2339.61Z" fill="#D9D9D9"/>
<path d="M1058.22 2078.42C1057.01 2078.42 1056.03 2077.44 1056.03 2076.23C1056.03 2075.02 1057.01 2074.04 1058.22 2074.04C1059.43 2074.04 1060.41 2075.02 1060.41 2076.23C1060.41 2077.44 1059.43 2078.42 1058.22 2078.42Z" fill="#D9D9D9"/>
<path d="M980.184 2131.97C977.861 2131.97 975.979 2133.85 975.979 2136.18C975.979 2138.5 977.861 2140.38 980.184 2140.38C982.506 2140.38 984.389 2138.5 984.389 2136.18C984.389 2133.85 982.506 2131.97 980.184 2131.97Z" fill="#D9D9D9"/>
<path d="M905.524 1411.79C903.202 1411.79 901.319 1413.67 901.319 1415.99C901.319 1418.32 903.202 1420.2 905.524 1420.2C907.847 1420.2 909.729 1418.32 909.729 1415.99C909.729 1413.67 907.847 1411.79 905.524 1411.79Z" fill="#D9D9D9"/>
<path d="M874.7 2393.07C872.378 2393.07 870.495 2394.96 870.495 2397.28C870.495 2399.6 872.378 2401.48 874.7 2401.48C877.022 2401.48 878.905 2399.6 878.905 2397.28C878.905 2394.96 877.022 2393.07 874.7 2393.07Z" fill="#D9D9D9"/>
<path d="M847.304 2063.44C844.982 2063.44 843.099 2065.32 843.099 2067.64C843.099 2069.97 844.982 2071.85 847.304 2071.85C849.627 2071.85 851.509 2069.97 851.509 2067.64C851.509 2065.32 849.627 2063.44 847.304 2063.44Z" fill="#D9D9D9"/>
<path d="M725.017 1741.43C722.695 1741.43 720.812 1743.32 720.812 1745.64C720.812 1747.96 722.695 1749.84 725.017 1749.84C727.339 1749.84 729.222 1747.96 729.222 1745.64C729.222 1743.32 727.339 1741.43 725.017 1741.43Z" fill="#D9D9D9"/>
<path d="M792.001 1934.83C789.679 1934.83 787.796 1936.71 787.796 1939.04C787.796 1941.36 789.679 1943.24 792.001 1943.24C794.323 1943.24 796.206 1941.36 796.206 1939.04C796.206 1936.71 794.323 1934.83 792.001 1934.83Z" fill="#D9D9D9"/>
<path d="M770.203 1332.4C767.881 1332.4 765.998 1334.28 765.998 1336.6C765.998 1338.93 767.881 1340.81 770.203 1340.81C772.525 1340.81 774.408 1338.93 774.408 1336.6C774.408 1334.28 772.525 1332.4 770.203 1332.4Z" fill="#D9D9D9"/>
<path d="M764.533 2155.04C762.21 2155.04 760.328 2156.92 760.328 2159.24C760.328 2161.56 762.21 2163.45 764.533 2163.45C766.855 2163.45 768.738 2161.56 768.738 2159.24C768.738 2156.92 766.855 2155.04 764.533 2155.04Z" fill="#D9D9D9"/>
<path d="M700.205 2393.07C697.883 2393.07 696 2394.96 696 2397.28C696 2399.6 697.883 2401.48 700.205 2401.48C702.527 2401.48 704.41 2399.6 704.41 2397.28C704.41 2394.96 702.527 2393.07 700.205 2393.07Z" fill="#D9D9D9"/>
<path d="M834.404 1757.82C833.195 1757.82 832.215 1758.8 832.215 1760.01C832.215 1761.22 833.195 1762.2 834.404 1762.2C835.613 1762.2 836.593 1761.22 836.593 1760.01C836.593 1758.8 835.613 1757.82 834.404 1757.82Z" fill="#D9D9D9"/>
<path d="M922.383 1570.85C921.174 1570.85 920.194 1571.83 920.194 1573.04C920.194 1574.25 921.174 1575.23 922.383 1575.23C923.592 1575.23 924.572 1574.25 924.572 1573.04C924.572 1571.83 923.592 1570.85 922.383 1570.85Z" fill="#D9D9D9"/>
<path d="M884.602 1946.88C883.393 1946.88 882.413 1947.86 882.413 1949.07C882.413 1950.28 883.393 1951.26 884.602 1951.26C885.811 1951.26 886.791 1950.28 886.791 1949.07C886.791 1947.86 885.811 1946.88 884.602 1946.88Z" fill="#D9D9D9"/>
<path d="M848.23 1862.12C847.021 1862.12 846.041 1863.1 846.041 1864.31C846.041 1865.52 847.021 1866.5 848.23 1866.5C849.439 1866.5 850.42 1865.52 850.42 1864.31C850.42 1863.1 849.439 1862.12 848.23 1862.12Z" fill="#D9D9D9"/>
<path d="M911.784 1717.24C910.575 1717.24 909.595 1718.22 909.595 1719.43C909.595 1720.64 910.575 1721.62 911.784 1721.62C912.993 1721.62 913.973 1720.64 913.973 1719.43C913.973 1718.22 912.993 1717.24 911.784 1717.24Z" fill="#D9D9D9"/>
<path d="M783.209 1688.93C782 1688.93 781.02 1689.91 781.02 1691.12C781.02 1692.33 782 1693.31 783.209 1693.31C784.418 1693.31 785.398 1692.33 785.398 1691.12C785.398 1689.91 784.418 1688.93 783.209 1688.93Z" fill="#D9D9D9"/>
<path d="M911.784 2069.66C910.575 2069.66 909.594 2070.64 909.594 2071.85C909.594 2073.06 910.575 2074.04 911.784 2074.04C912.993 2074.04 913.973 2073.06 913.973 2071.85C913.973 2070.64 912.993 2069.66 911.784 2069.66Z" fill="#D9D9D9"/>
<path d="M850.42 2185.55C849.211 2185.55 848.23 2186.53 848.23 2187.74C848.23 2188.94 849.211 2189.93 850.42 2189.93C851.629 2189.93 852.609 2188.94 852.609 2187.74C852.609 2186.53 851.629 2185.55 850.42 2185.55Z" fill="#D9D9D9"/>
<path d="M798.395 2039.03C797.186 2039.03 796.206 2040.01 796.206 2041.22C796.206 2042.43 797.186 2043.41 798.395 2043.41C799.604 2043.41 800.584 2042.43 800.584 2041.22C800.584 2040.01 799.604 2039.03 798.395 2039.03Z" fill="#D9D9D9"/>
<path d="M911.784 2253.13C910.575 2253.13 909.594 2254.11 909.594 2255.32C909.594 2256.53 910.575 2257.51 911.784 2257.51C912.993 2257.51 913.973 2256.53 913.973 2255.32C913.973 2254.11 912.993 2253.13 911.784 2253.13Z" fill="#D9D9D9"/>
<path d="M859.391 1369.61C858.181 1369.61 857.201 1370.59 857.201 1371.8C857.201 1373.01 858.181 1373.99 859.391 1373.99C860.6 1373.99 861.58 1373.01 861.58 1371.8C861.58 1370.59 860.6 1369.61 859.391 1369.61Z" fill="#D9D9D9"/>
<path d="M729.224 1626.66C728.015 1626.66 727.034 1627.64 727.034 1628.85C727.034 1630.06 728.015 1631.04 729.224 1631.04C730.433 1631.04 731.413 1630.06 731.413 1628.85C731.413 1627.64 730.433 1626.66 729.224 1626.66Z" fill="#D9D9D9"/>
<path d="M1187.57 1959.8C1185.25 1959.8 1183.36 1961.69 1183.36 1964.01C1183.36 1966.33 1185.25 1968.21 1187.57 1968.21C1189.89 1968.21 1191.77 1966.33 1191.77 1964.01C1191.77 1961.69 1189.89 1959.8 1187.57 1959.8Z" fill="#D9D9D9"/>
</g>
<defs>
<linearGradient id="paint0_linear_204_267" x1="696" y1="0" x2="696" y2="2334" gradientUnits="userSpaceOnUse">
<stop stop-color="#001433"/>
<stop offset="1" stop-color="#003D99"/>
</linearGradient>
<clipPath id="clip0_204_267">
<rect width="1392" height="2334" fill="white"/>
</clipPath>
</defs>
</svg>
