<svg width="139" height="69" viewBox="0 0 139 69" fill="none" xmlns="http://www.w3.org/2000/svg">
<path d="M17.5283 27.0452C17.5283 27.3287 16.7295 27.5606 15.1318 27.741C13.5598 27.8956 11.975 27.9729 10.3773 27.9729C8.80539 27.9729 7.80038 27.9085 7.3623 27.7796C6.94999 27.625 6.74384 27.3802 6.74384 27.0452V10.424H1.37093C1.08747 10.424 0.842658 10.0632 0.636503 9.34168C0.430348 8.62014 0.327271 7.55071 0.327271 6.1334C0.327271 4.69032 0.481887 3.40185 0.791119 2.268C1.10035 1.10837 1.51266 0.528564 2.02805 0.528564H22.9399C23.3264 0.528564 23.5841 0.889335 23.713 1.61088C23.8676 2.33242 23.9449 3.37608 23.9449 4.74185C23.9449 6.10763 23.8031 7.3961 23.5197 8.60726C23.2362 9.81842 22.8497 10.424 22.3601 10.424H17.5283V27.0452Z" fill="white"/>
<path d="M33.6857 36.0903C31.5468 36.0903 29.7043 35.897 28.1582 35.5105C26.6378 35.0981 25.2333 34.3766 23.9449 33.3458C21.3422 31.3101 20.0408 27.406 20.0408 21.6337C20.0408 19.2113 20.3887 17.0983 21.0845 15.2944C21.806 13.4905 22.7981 12.0603 24.0608 11.0038C26.5347 8.94226 29.743 7.91148 33.6857 7.91148C35.7215 7.91148 37.4867 8.09187 38.9813 8.45264C40.5017 8.81341 41.9319 9.47053 43.2719 10.424C45.9777 12.3825 47.3305 16.119 47.3305 21.6337C47.3305 26.5814 46.1065 30.2277 43.6584 32.5728C41.2103 34.9178 37.8861 36.0903 33.6857 36.0903ZM32.4101 29.4804C32.7193 29.8412 33.1445 30.0216 33.6857 30.0216C34.2268 30.0216 34.652 29.8412 34.9613 29.4804C35.2705 29.0939 35.5282 28.295 35.7343 27.0839C35.9405 25.847 36.0436 24.1333 36.0436 21.9429C36.0436 19.7525 35.9405 18.0646 35.7343 16.8792C35.5282 15.6938 35.2705 14.9207 34.9613 14.56C34.652 14.1992 34.2268 14.0188 33.6857 14.0188C33.1445 14.0188 32.7193 14.1992 32.4101 14.56C32.1009 14.9207 31.8432 15.6938 31.637 16.8792C31.4309 18.0646 31.3278 19.7525 31.3278 21.9429C31.3278 24.1333 31.4309 25.847 31.637 27.0839C31.8432 28.295 32.1009 29.0939 32.4101 29.4804Z" fill="white"/>
<path d="M54.7609 31.5291C54.1166 31.5291 53.1761 31.5291 51.9391 31.5291C50.728 31.5291 49.9033 31.4389 49.4653 31.2585C49.0272 31.0781 48.8082 30.7947 48.8082 30.4081V6.01744C48.8082 5.42474 49.5941 4.96089 51.1661 4.62589C52.7637 4.26512 54.4645 4.08473 56.2684 4.08473C58.0722 4.08473 59.3607 4.31666 60.1338 4.78051C60.9069 5.24435 61.3578 5.73397 61.4867 6.24936L64.1151 16.454H64.463L66.9369 6.71321C67.1173 6.01744 67.9548 5.41186 69.4494 4.89647C70.9698 4.35531 72.6319 4.08473 74.4358 4.08473C76.2396 4.08473 77.5668 4.22646 78.4171 4.50993C79.2933 4.79339 79.7314 5.15416 79.7314 5.59224V30.4081C79.7314 30.7431 78.9969 31.0137 77.5281 31.2199C76.0592 31.426 74.2683 31.5291 72.1552 31.5291C70.0421 31.5291 68.9856 31.1554 68.9856 30.4081C68.9856 28.3723 69.2046 24.7518 69.6427 19.5463H69.2948L67.2848 29.635C67.2075 30.0216 66.8854 30.3051 66.3184 30.4854C65.7773 30.6658 64.9527 30.756 63.8446 30.756C62.7365 30.756 62.0536 30.6787 61.7959 30.5241C61.564 30.3695 61.4094 30.0731 61.3321 29.635L59.2447 19.5463H58.8969C59.3607 24.8548 59.5926 28.4754 59.5926 30.4081C59.5926 31.0781 57.982 31.4518 54.7609 31.5291Z" fill="white"/>
<path d="M88.1534 35.3558C87.5092 35.3558 86.5686 35.3558 85.3317 35.3558C84.1205 35.3558 83.2959 35.2657 82.8578 35.0853C82.4197 34.9049 82.2007 34.6214 82.2007 34.2349V9.84418C82.2007 9.25149 82.9867 8.78764 84.5586 8.45264C86.1563 8.09187 87.8571 7.91148 89.6609 7.91148C91.4648 7.91148 92.7533 8.14341 93.5263 8.60726C94.2994 9.07111 94.7504 9.56072 94.8792 10.0761L97.5077 20.2808H97.8556L100.329 10.54C100.51 9.84419 101.347 9.23861 102.842 8.72322C104.362 8.18206 106.024 7.91148 107.828 7.91148C109.632 7.91148 110.959 8.05321 111.81 8.33668C112.686 8.62014 113.124 8.98091 113.124 9.41899V34.2349C113.124 34.5699 112.389 34.8405 110.921 35.0466C109.452 35.2528 107.661 35.3558 105.548 35.3558C103.435 35.3558 102.378 34.9822 102.378 34.2349C102.378 32.1991 102.597 28.5785 103.035 23.3731H102.687L100.677 33.4618C100.6 33.8483 100.278 34.1318 99.711 34.3122C99.1698 34.4926 98.3452 34.5828 97.2371 34.5828C96.129 34.5828 95.4461 34.5055 95.1885 34.3508C94.9565 34.1962 94.8019 33.8999 94.7246 33.4618L92.6373 23.3731H92.2894C92.7532 28.6816 92.9852 32.3022 92.9852 34.2349C92.9852 34.9049 91.3746 35.2785 88.1534 35.3558Z" fill="white"/>
<path d="M130.248 27.5679C130.248 27.9029 129.462 28.1735 127.89 28.3796C126.318 28.5858 124.746 28.6889 123.174 28.6889C121.628 28.6889 120.623 28.6116 120.159 28.457C119.695 28.2766 119.463 27.9802 119.463 27.5679V20.8421C114.361 10.4055 111.81 4.73627 111.81 3.83434C111.81 3.29318 112.673 2.72626 114.399 2.13356C116.126 1.54087 117.943 1.24452 119.85 1.24452C122.298 1.24452 123.599 1.96606 123.754 3.40914L124.797 13.8071H125.223L125.957 3.67972C126.009 2.95818 126.923 2.37837 128.701 1.94029C130.48 1.47644 132.167 1.24452 133.765 1.24452C135.363 1.24452 136.471 1.47644 137.089 1.94029C137.708 2.40414 138.017 2.89376 138.017 3.40914C138.017 3.89876 135.427 9.70975 130.248 20.8421V27.5679Z" fill="white"/>
<path d="M31.4525 66.971C30.2156 66.971 29.4038 66.8808 29.0173 66.7004C28.6308 66.52 28.3602 66.2108 28.2056 65.7727L19.663 42.1937C19.663 41.7041 20.5778 41.1372 22.4075 40.493C24.2628 39.8487 26.1311 39.5266 28.0123 39.5266C30.4346 39.5266 31.7231 40.2868 31.8777 41.8072L33.1919 54.0605H33.7331L34.8154 41.8072C34.9442 40.2868 36.6837 39.5266 40.0337 39.5266C41.3222 39.5266 42.1854 39.707 42.6235 40.0678C43.0616 40.4028 43.3064 40.8537 43.3579 41.4206L44.6335 54.0605H45.1747L46.1797 41.8072C46.257 41.0599 47.1332 40.493 48.8082 40.1064C50.5089 39.7199 52.1839 39.5266 53.8332 39.5266C55.5082 39.5266 56.642 39.7714 57.2347 40.261C57.8532 40.7507 58.1624 41.266 58.1624 41.8072L49.8905 65.7727C49.607 66.5715 47.7001 66.971 44.1697 66.971C43.1131 66.971 42.4045 66.8808 42.0437 66.7004C41.6829 66.52 41.4381 66.2108 41.3093 65.7727L39.2993 59.0469H38.8354L36.7867 65.7727C36.5548 66.5715 34.7767 66.971 31.4525 66.971Z" fill="white"/>
<path d="M71.1115 62.4252C71.1115 62.7087 70.3255 62.9406 68.7536 63.121C67.1817 63.2756 65.5969 63.3529 63.9992 63.3529C62.4272 63.3529 61.4222 63.2885 60.9841 63.1597C60.5461 63.005 60.327 62.7602 60.327 62.4252V38.3824C60.327 37.8155 61.0743 37.2615 62.5689 36.7203C64.0636 36.1534 65.7386 35.8699 67.594 35.8699C69.2432 35.8699 70.3255 36.2178 70.8409 36.9136C71.0213 37.1713 71.1115 37.429 71.1115 37.6867V62.4252Z" fill="white"/>
<path d="M84.2107 67.0869C84.2107 67.4219 83.4119 67.6925 81.8142 67.8987C80.2422 68.1048 78.6703 68.2079 77.0984 68.2079C75.5265 68.2079 74.5215 68.1177 74.0834 67.9373C73.6453 67.7569 73.4263 67.4735 73.4263 67.0869V43.3534C73.4263 42.7091 74.1607 42.1164 75.6295 41.5753C77.1242 41.0341 78.812 40.7635 80.6932 40.7635C81.3632 40.7635 81.8657 40.7893 82.2007 40.8408C83.0769 40.9697 83.6953 41.5237 84.0561 42.503L87.7669 52.4757H87.9215V43.3534C87.9215 42.7091 88.656 42.1164 90.1248 41.5753C91.5937 41.0341 93.2687 40.7635 95.1498 40.7635C96.7733 40.7635 97.8041 41.0728 98.2421 41.6912C98.5514 42.1293 98.706 42.5287 98.706 42.8895V67.0869C98.706 67.4219 97.9071 67.6925 96.3094 67.8987C94.7375 68.1048 92.9981 68.2079 91.0911 68.2079C89.21 68.2079 88.1792 67.9631 87.9988 67.4735L84.404 57.9646H84.2107V67.0869Z" fill="white"/>
<path d="M121.319 63.8013C120.546 64.3683 119.463 64.845 118.072 65.2315C116.706 65.5923 114.928 65.7727 112.737 65.7727C110.573 65.7727 108.511 65.5923 106.553 65.2315C104.594 64.8708 103.19 64.4713 102.339 64.0333C101.489 63.5952 101.064 63.17 101.064 62.7577C101.064 61.3146 101.27 59.82 101.682 58.2738C102.095 56.7019 102.584 55.9159 103.151 55.9159C103.254 55.9159 104.324 56.2638 106.359 56.9596C108.395 57.6553 109.929 58.0032 110.959 58.0032C111.99 58.0032 112.66 57.9001 112.969 57.694C113.279 57.4621 113.433 57.14 113.433 56.7276C113.433 56.3153 113.15 55.9546 112.583 55.6453C112.016 55.3103 111.307 55.0269 110.457 54.7949C109.606 54.5372 108.679 54.1765 107.674 53.7126C106.694 53.2488 105.78 52.7334 104.929 52.1665C104.079 51.5995 103.37 50.8007 102.803 49.7699C102.236 48.7134 101.953 47.5151 101.953 46.1751C101.953 40.4543 105.367 37.5939 112.196 37.5939C114.747 37.5939 116.951 37.7614 118.806 38.0964C120.661 38.4056 121.963 38.7664 122.71 39.1787C123.483 39.5653 123.87 39.9518 123.87 40.3383C123.87 41.6784 123.548 43.1214 122.903 44.6676C122.285 46.2137 121.679 46.9868 121.087 46.9868C120.984 46.9868 120.649 46.8709 120.082 46.6389C118.381 45.8916 116.964 45.518 115.83 45.518C114.722 45.518 113.961 45.6211 113.549 45.8272C113.163 46.0334 112.969 46.3555 112.969 46.7936C112.969 47.2059 113.253 47.5538 113.82 47.8372C114.387 48.0949 115.082 48.3397 115.907 48.5716C116.757 48.7778 117.672 49.1128 118.651 49.5766C119.656 50.0147 120.584 50.543 121.435 51.1615C122.285 51.7542 122.994 52.6045 123.561 53.7126C124.127 54.8207 124.411 56.1092 124.411 57.578C124.411 59.1242 124.011 60.5286 123.213 61.7913C122.723 62.5644 122.092 63.2344 121.319 63.8013Z" fill="white"/>
</svg>
