<svg width="64" height="57" viewBox="0 0 64 57" fill="none" xmlns="http://www.w3.org/2000/svg">
<rect x="0.17572" y="0.810547" width="63.434" height="55.6359" rx="5.27303" fill="white"/>
<path d="M29.0245 38.2846C29.0245 35.311 29.4788 32.9569 30.3874 31.2224C31.3373 29.4465 32.886 27.8978 35.0336 26.5762C36.6442 25.585 37.8626 24.7177 38.6886 23.9743C39.5146 23.1896 40.0721 22.3843 40.3612 21.5583C40.6503 20.691 40.7948 19.6379 40.7948 18.3989C40.7948 16.2513 40.0927 14.4754 38.6886 13.0713C37.2844 11.6671 35.3227 10.965 32.8034 10.965C29.7472 10.965 27.4138 11.7497 25.8031 13.3191C24.2338 14.8884 23.2839 17.1599 22.9535 20.1335L17.3781 19.7618C17.6259 17.036 18.3899 14.62 19.6702 12.5137C20.9918 10.4075 22.747 8.75548 24.9359 7.5578C27.166 6.36012 29.7885 5.76127 32.8034 5.76127C35.4879 5.76127 37.8419 6.29817 39.8656 7.37195C41.9306 8.44573 43.5206 9.93251 44.6357 11.8323C45.7921 13.7321 46.3703 15.9209 46.3703 18.3989C46.3703 20.1335 46.0812 21.6409 45.503 22.9212C44.9661 24.2015 44.1194 25.3785 42.9631 26.4523C41.848 27.5261 40.4025 28.6411 38.6266 29.7975C37.5115 30.4996 36.6442 31.243 36.0248 32.0277C35.4053 32.7711 34.9716 33.6384 34.7238 34.6296C34.476 35.6207 34.3521 36.8391 34.3521 38.2846H29.0245ZM27.8475 50.7363V43.1785H35.5292V50.7363H27.8475Z" fill="black"/>
</svg>
