<svg width="651" height="490" viewBox="0 0 651 490" fill="none" xmlns="http://www.w3.org/2000/svg">
<g clip-path="url(#clip0_185_12)">
<rect x="77.1488" y="371.156" width="263.292" height="18.423" fill="white"/>
<path d="M301.356 289.597C290.022 288.494 275.827 289.022 262.222 290.137C248.529 291.26 235.063 293.009 225.045 294.473C220.029 295.206 215.862 295.869 212.943 296.35C211.483 296.591 210.335 296.787 209.549 296.922C209.155 296.99 208.852 297.043 208.646 297.079C208.618 297.084 208.591 297.089 208.567 297.093L122.448 306.925L116.403 307.615L115.832 313.672L110.686 368.186L109.922 376.283L118.054 376.391L371.036 379.719L388.99 379.955L376.537 367.018L376.532 367.014C376.527 367.009 376.52 367.001 376.511 366.991C376.491 366.97 376.461 366.939 376.421 366.897C376.34 366.812 376.218 366.685 376.057 366.517C375.735 366.179 375.259 365.677 374.649 365.03C373.428 363.735 371.673 361.858 369.547 359.542C365.289 354.905 359.563 348.527 353.669 341.55C347.761 334.555 341.757 327.045 336.908 320.128C331.908 312.996 328.663 307.219 327.585 303.529C325.9 297.762 321.002 294.636 316.78 292.921C312.381 291.135 306.981 290.145 301.356 289.597Z" fill="#5484D4" stroke="white" stroke-width="15"/>
<path d="M124.129 307.461L97.9146 305.017L87.6423 304.058L89.8998 314.125L101.244 364.702L102.809 371.674L109.849 370.449L121.183 368.477L126.929 367.477L127.374 361.661L130.911 315.501L131.475 308.146L124.129 307.461Z" fill="#342F91" stroke="white" stroke-width="15"/>
<path d="M228.117 329.88L178.645 312.551L170.816 333.676L222.125 353.054L228.117 329.88Z" fill="#342F91"/>
<path d="M337.267 321.414C321.552 274.349 305.545 215.412 290.625 197.938C275.705 180.464 233.354 238.689 233.354 238.689C233.354 238.689 241.346 324.694 281.721 357.632C302.354 374.464 341.62 352.84 341.62 352.84C341.62 352.84 346.471 348.977 337.267 321.414Z" fill="#99C2FF"/>
<path d="M287.582 215.305L275.018 211.154L251.68 301.401L254.351 306.072L287.582 215.305Z" fill="#6490D0"/>
<path d="M249.354 175.544C228.97 171.863 167.838 308.22 167.838 308.22L240.324 337.14L282.798 190.77C282.798 190.77 269.737 179.225 249.354 175.544Z" fill="#99C2FF"/>
<path d="M341.62 352.84C346.271 358.679 346.306 358.697 346.319 358.687C346.323 358.683 346.336 358.673 346.344 358.666C346.361 358.653 346.378 358.638 346.395 358.624C346.428 358.597 346.462 358.568 346.496 358.539C346.564 358.481 346.632 358.42 346.7 358.358C346.837 358.233 346.974 358.099 347.11 357.956C347.382 357.67 347.647 357.351 347.901 356.998C348.409 356.291 348.853 355.474 349.217 354.544C349.938 352.705 350.355 350.423 350.395 347.569C350.474 341.946 349.1 333.172 344.381 319.039C336.711 296.067 328.504 268.746 320.741 246.143C316.799 234.664 312.829 223.959 308.86 214.958C304.955 206.104 300.802 198.306 296.329 193.068C294.798 191.275 293.045 189.903 291.14 188.936L291.325 188.297L287.766 185.151L285.853 187.315C285.851 187.315 285.85 187.314 285.849 187.314C287.76 185.15 287.763 185.149 287.762 185.148C287.761 185.147 287.759 185.146 287.758 185.145C287.755 185.143 287.752 185.14 287.749 185.137C287.743 185.132 287.736 185.125 287.729 185.119C287.713 185.105 287.694 185.089 287.672 185.07C287.628 185.032 287.571 184.982 287.501 184.923C287.362 184.805 287.171 184.644 286.93 184.449C286.449 184.057 285.767 183.52 284.896 182.876C283.156 181.591 280.647 179.871 277.461 178.037C271.309 174.496 262.505 170.456 251.735 168.361L250.687 168.163L250.363 168.11C247.026 167.6 244.002 168.563 241.682 169.742C239.258 170.973 236.977 172.752 234.885 174.702C230.696 178.606 226.285 184.128 221.876 190.417C213.007 203.071 203.281 220.098 194.325 236.989C185.341 253.934 177.011 270.97 170.935 283.752C167.894 290.148 165.413 295.489 163.691 299.235C162.829 301.108 162.157 302.583 161.699 303.591C161.471 304.095 161.296 304.484 161.177 304.746C161.118 304.878 161.073 304.978 161.042 305.046C161.027 305.08 161.015 305.106 161.007 305.123C161.003 305.132 161 305.139 160.998 305.144C160.997 305.146 160.996 305.149 160.995 305.15C160.996 305.152 161.08 305.19 167.838 308.22L160.994 305.152L157.795 312.288L165.059 315.186L169.075 316.788L163.783 331.07L161.194 338.059L168.166 340.692L219.475 360.07L227.293 363.023L229.386 354.931L232.686 342.167L237.544 344.106L245.223 347.169L247.527 339.23L250.56 328.774C257.342 342.11 265.982 354.47 276.981 363.443C290.333 374.335 308.624 372.182 321.339 368.795C328.017 367.016 333.947 364.688 338.187 362.82C340.316 361.881 342.044 361.048 343.254 360.442C343.86 360.138 344.337 359.891 344.672 359.714C344.84 359.626 344.972 359.554 345.067 359.503C345.114 359.478 345.152 359.457 345.181 359.442C345.195 359.434 345.207 359.427 345.217 359.422C345.222 359.42 345.226 359.417 345.23 359.415C345.231 359.414 345.234 359.413 345.235 359.412C345.236 359.41 345.184 359.312 341.62 352.84ZM341.62 352.84L345.239 359.411L345.796 359.103L346.293 358.706L341.62 352.84Z" stroke="white" stroke-width="15"/>
<path d="M228.405 333.243L169.664 330.463L169.664 371.736C169.664 371.736 213.708 372.203 230.283 372.203C233.867 357.758 228.405 333.243 228.405 333.243Z" fill="#5DAEC4"/>
<path d="M169.664 330.463C169.664 330.463 153.749 338.296 140.608 346.515C133.452 350.991 129.419 351.157 120.219 351.157C111.019 351.157 107.257 371.811 119.797 371.811C132.337 371.811 158.664 371.811 175.239 371.811C183.449 357.498 169.664 330.463 169.664 330.463Z" fill="#5DAEC4"/>
<path d="M227.959 333.272C227.959 333.272 211.549 336.374 200.005 335.855C188.299 335.328 169.664 330.463 169.664 330.463L169.664 371.736C169.664 371.736 212.46 371.465 229.034 371.465C232.618 357.02 227.959 333.272 227.959 333.272Z" fill="white"/>
<path d="M169.664 330.463C169.664 330.463 153.749 338.296 140.608 346.515C133.452 350.991 129.419 351.157 120.219 351.157C111.019 351.157 107.257 371.811 119.797 371.811C132.337 371.811 158.664 371.811 175.239 371.811C183.449 357.498 169.664 330.463 169.664 330.463Z" fill="white"/>
<path d="M173.87 327.959L137.186 327.959L137.186 348.969C137.186 348.969 150.173 348.324 158.081 346.003C165.698 343.768 176.605 337.63 176.605 337.63L173.87 327.959Z" fill="#266589"/>
<path d="M179.544 320.459L180.392 323.463L227.645 325.699L233.885 324.52L234.177 326.009L234.48 326.022L235.725 331.612L235.295 331.708L235.296 331.709C235.682 331.623 235.721 331.615 235.725 331.614C235.725 331.615 235.726 331.616 235.726 331.617C235.727 331.619 235.728 331.621 235.728 331.624C235.729 331.63 235.73 331.637 235.732 331.646C235.736 331.662 235.742 331.685 235.748 331.714C235.76 331.771 235.778 331.852 235.8 331.954C235.843 332.159 235.905 332.453 235.981 332.827C236.133 333.574 236.344 334.643 236.583 335.966C237.06 338.605 237.657 342.282 238.138 346.444C239.068 354.485 239.702 365.384 237.562 374.01L236.15 379.703H230.283C221.956 379.703 206.767 379.586 193.691 379.469C187.249 379.411 181.309 379.354 176.937 379.311H119.797C114.288 379.31 109.739 376.872 107.003 372.69C104.519 368.895 104.018 364.439 104.393 360.729C104.774 356.966 106.138 353.048 108.506 349.888C110.883 346.714 114.845 343.657 120.219 343.657C124.92 343.657 127.483 343.592 129.685 343.164V320.459H179.544ZM230.599 332.754L230.573 332.76C230.581 332.758 230.588 332.756 230.595 332.755C230.604 332.753 230.613 332.751 230.622 332.749L230.599 332.754Z" stroke="white" stroke-width="15"/>
<circle cx="3.12473" cy="3.12473" r="10.6247" transform="matrix(-1 -8.65597e-08 -8.65597e-08 1 171.641 344.529)" fill="white" stroke="white" stroke-width="15"/>
<circle cx="3.12473" cy="3.12473" r="10.6247" transform="matrix(-1 -8.65597e-08 -8.65597e-08 1 181.138 338.28)" fill="white" stroke="white" stroke-width="15"/>
<circle cx="3.12473" cy="3.12473" r="10.6247" transform="matrix(-1 -8.65597e-08 -8.65597e-08 1 160.337 348.209)" fill="white" stroke="white" stroke-width="15"/>
<circle cx="3.12473" cy="3.12473" r="10.6247" transform="matrix(-1 -8.65597e-08 -8.65597e-08 1 148.426 349.834)" fill="white" stroke="white" stroke-width="15"/>
<path d="M173.333 316.558C165.801 314.65 158.509 320.403 158.611 328.171L158.636 330.081C158.69 334.15 160.833 337.906 164.309 340.022L171.398 344.337C178.253 348.509 187.185 344.784 189.043 336.976L190.035 332.805C191.531 326.52 187.702 320.198 181.439 318.611L173.333 316.558Z" fill="white" stroke="white" stroke-width="15"/>
<path d="M178.878 341.851L165.463 332.583L164.486 333.188L166.532 344.3L158.07 336.489L156.861 337.233L156.172 347.607L150.863 340.534L149.235 341.418L145.059 350.452L141.452 345.89" stroke="white" stroke-width="15"/>
<path d="M490.847 259.256C480.466 252.975 469.687 248.884 460.446 247.569C455.841 246.913 451.243 246.894 447.133 247.921C442.98 248.959 438.805 251.226 436.229 255.482C433.654 259.738 433.582 264.489 434.59 268.649C435.587 272.767 437.738 276.831 440.455 280.606C445.907 288.181 454.532 295.833 464.913 302.114C475.294 308.396 486.073 312.486 495.313 313.802C499.918 314.457 504.517 314.478 508.627 313.45C512.78 312.412 516.955 310.144 519.53 305.888C522.105 301.633 522.177 296.882 521.17 292.722C520.173 288.605 518.022 284.54 515.305 280.764C509.853 273.189 501.228 265.538 490.847 259.256Z" fill="#3E40B7" stroke="white" stroke-width="15"/>
<path d="M456.064 228.707C445.683 222.425 434.904 218.334 425.663 217.019C421.058 216.364 416.46 216.345 412.35 217.372C408.197 218.41 404.022 220.677 401.446 224.933C398.871 229.189 398.8 233.94 399.807 238.1C400.804 242.217 402.955 246.281 405.672 250.057C411.124 257.632 419.749 265.283 430.13 271.565C440.511 277.847 451.29 281.937 460.53 283.252C465.135 283.908 469.734 283.928 473.844 282.901C477.997 281.863 482.172 279.595 484.747 275.339C487.322 271.083 487.394 266.333 486.387 262.173C485.39 258.055 483.239 253.99 480.522 250.215C475.07 242.639 466.445 234.989 456.064 228.707Z" fill="#3E40B7" stroke="white" stroke-width="15"/>
<mask id="mask0_185_12" style="mask-type:alpha" maskUnits="userSpaceOnUse" x="329" y="176" width="125" height="134">
<path d="M406.113 190.334C392.253 180.007 375.122 183.431 363.612 187.689C357.565 189.926 352.294 192.67 348.557 194.833C346.679 195.92 345.162 196.875 344.101 197.568C343.57 197.915 343.151 198.198 342.856 198.4C342.709 198.501 342.592 198.581 342.508 198.64C342.466 198.67 342.431 198.694 342.406 198.713C342.393 198.722 342.382 198.73 342.374 198.736C342.369 198.739 342.365 198.742 342.361 198.744C342.36 198.746 342.358 198.747 342.357 198.747C342.355 198.749 342.353 198.75 346.878 204.834L342.354 198.75L338.25 201.685L339.606 206.614L363.051 291.809L365.243 299.773L372.996 297.072L370.323 290.03L372.997 297.072L372.998 297.072C372.999 297.071 373.002 297.071 373.005 297.07C373.01 297.068 373.017 297.065 373.026 297.062C373.045 297.055 373.074 297.046 373.11 297.033C373.184 297.007 373.294 296.968 373.436 296.918C373.722 296.818 374.142 296.672 374.682 296.481C375.763 296.1 377.328 295.545 379.273 294.848C383.162 293.456 388.577 291.495 394.678 289.219C406.827 284.688 421.891 278.841 433.048 273.734C441.716 269.766 445.382 262.253 445.544 254.082C445.695 246.461 442.886 238.158 439.057 230.504C431.362 215.124 417.872 199.096 406.113 190.334Z" fill="#5F5DC4" stroke="white" stroke-width="15"/>
</mask>
<g mask="url(#mask0_185_12)">
<path d="M409.017 176.986C404.867 176.265 400.863 177.052 397.39 178.35C390.582 180.895 383.907 186.137 378.373 191.314C372.698 196.623 367.588 202.475 363.933 206.941C362.095 209.187 360.6 211.112 359.561 212.483C359.04 213.168 358.633 213.717 358.351 214.1C358.21 214.291 358.1 214.441 358.024 214.546C357.986 214.599 357.957 214.64 357.935 214.669C357.925 214.684 357.916 214.696 357.91 214.705C357.906 214.709 357.904 214.713 357.902 214.716C357.901 214.717 357.899 214.719 357.899 214.72C357.904 214.726 358.094 214.865 363.854 219.044L357.897 214.722L356.391 216.823L356.555 219.441L360.365 280.348L360.942 289.57L369.866 287.366L367.863 280.096L369.867 287.366L369.869 287.365C369.87 287.365 369.872 287.365 369.873 287.364C369.878 287.363 369.884 287.361 369.892 287.359C369.908 287.355 369.932 287.35 369.963 287.342C370.024 287.327 370.114 287.305 370.231 287.276C370.466 287.217 370.81 287.13 371.253 287.018C372.14 286.795 373.422 286.47 375.015 286.058C378.201 285.235 382.636 284.066 387.641 282.685C397.586 279.939 410.016 276.287 419.336 272.791C427.073 269.888 431.299 262.826 433.489 255.729C435.721 248.493 436.31 239.846 435.797 231.246C434.788 214.344 429.317 194.921 420.19 183.715C417.202 180.046 413.372 177.742 409.017 176.986Z" fill="white" stroke="white" stroke-width="15"/>
<g filter="url(#filter0_f_185_12)">
<path d="M413.591 204.623L375.047 204.623L375.047 233.654L413.591 227.367L413.591 204.623Z" fill="#4D4C9F"/>
<path d="M367.547 197.123L367.547 242.476L376.255 241.056L414.798 234.769L421.091 233.743L421.091 197.123L367.547 197.123Z" stroke="white" stroke-width="15"/>
</g>
<g filter="url(#filter1_f_185_12)">
<path d="M402.632 289.59C419.074 286.324 439.597 255.826 439.597 255.826L412.962 224.908C412.962 224.908 388.469 251.761 374.566 268.54C359.989 286.132 385.815 292.931 402.632 289.59Z" fill="#484694"/>
<path d="M419.046 289.578C423.748 285.895 428.187 281.423 431.958 277.208C435.746 272.973 438.976 268.866 441.255 265.825C442.398 264.3 443.31 263.032 443.943 262.135C444.26 261.687 444.507 261.33 444.679 261.08C444.765 260.955 444.833 260.856 444.88 260.786C444.904 260.751 444.923 260.724 444.937 260.703C444.944 260.693 444.95 260.684 444.954 260.677C444.957 260.674 444.959 260.671 444.96 260.669C444.961 260.668 444.962 260.666 444.963 260.666C444.962 260.663 444.884 260.591 439.597 255.826L444.964 260.663L448.805 254.955L444.548 250.013L417.912 219.095L413.274 213.711L408.335 219.127L412.961 224.908L408.335 219.128L408.33 219.133C408.327 219.136 408.322 219.142 408.316 219.148C408.304 219.162 408.286 219.181 408.262 219.207C408.214 219.259 408.144 219.337 408.052 219.438C407.867 219.641 407.595 219.94 407.245 220.325C406.544 221.097 405.529 222.216 404.268 223.611C401.746 226.4 398.238 230.295 394.293 234.716C386.425 243.535 376.742 254.535 369.69 263.046C365.334 268.303 362.272 274.85 363.728 281.877C365.095 288.472 369.841 292.231 373.849 294.302C382.105 298.568 394.197 299.389 403.553 297.531C409.077 296.434 414.425 293.198 419.046 289.578Z" stroke="white" stroke-width="15"/>
</g>
</g>
<path d="M402.96 164.436C412.868 162.005 425.467 161.249 436.066 167.166C441.512 170.206 444.958 175.885 447.104 181.132C449.348 186.617 450.699 192.921 451.201 198.854C451.697 204.708 451.419 210.829 449.925 215.82C448.618 220.185 445.076 227.335 436.91 227.422C434.729 227.445 431.734 227.834 427.499 228.551C423.931 229.155 417.826 230.295 412.547 231.178C400.854 233.131 385.909 235.138 367.455 235.334L363.175 235.38L360.958 231.717C353.807 219.896 356.136 207.866 361.043 198.31C365.86 188.93 373.585 180.938 379.375 175.6C383.895 171.434 393.1 166.856 402.96 164.436Z" fill="white" stroke="white" stroke-width="15"/>
<circle cx="51.9251" cy="51.9251" r="59.4251" transform="matrix(-0.855556 -0.51771 -0.51771 0.855556 546.37 206.467)" fill="#4DBAD9" stroke="white" stroke-width="15"/>
<path d="M537.618 232.096C543.522 231.604 550.181 232.502 555.393 236.864C561.01 241.566 565.824 249.018 569.808 256.891C573.882 264.939 577.459 274.181 580.333 283.156C583.21 292.138 585.439 301.034 586.763 308.444C587.424 312.143 587.88 315.583 588.06 318.542C588.226 321.272 588.22 324.379 587.468 326.975V326.976C585.629 333.326 581.329 338.539 576.462 342.428C571.55 346.353 565.605 349.308 559.614 351.002C553.681 352.679 547.167 353.268 541.241 351.839C535.303 350.407 529.743 346.837 526.784 340.41L526.505 339.779C517.757 319.039 511.46 305.223 506.663 294.961C501.916 284.809 498.458 277.764 495.607 271.013L493.114 265.108L498.556 261.725C504.301 258.155 509.317 253.212 513.071 247.009C514.23 245.093 515.225 243.126 516.064 241.126L517.174 238.477L519.77 237.248C525.391 234.585 531.622 232.595 537.618 232.096Z" fill="white" stroke="white" stroke-width="15"/>
<path d="M475.062 337.124H549.347L556.871 359.481L507.28 368.726L475.062 337.124Z" fill="white"/>
<path d="M319.77 276.714L388.692 246.959L507.346 368.736C507.346 368.736 489.748 370.978 478.584 373.076C433.132 381.617 366.629 411.777 366.629 411.777L319.77 276.714Z" fill="white"/>
<path d="M495.964 146.824L498.864 151.645L534.784 207.68L538.831 213.994L532.516 218.041L455.143 267.639L448.829 271.687L444.782 265.372L428.25 239.582L422.913 239.027L421.506 238.881L416.472 238.357L415.074 233.493L407.539 207.271L406.54 205.714L406.658 204.205L404.943 198.241L407.163 197.708L407.29 196.069L407.586 192.261L410.84 190.261L485.61 144.302L492.06 140.337L495.964 146.824Z" fill="#5484D4" stroke="white" stroke-width="15"/>
<path d="M278.185 380.256L366.636 375.029V411.771L278.185 380.256Z" fill="white"/>
<path d="M539.086 217.262L549.166 216.221L561.261 232.097L539.086 230.583V217.262Z" fill="white"/>
<path d="M46.6859 251.286C66.9259 234.807 79.2943 250.292 83.0424 266.408C84.6658 273.389 96.6802 289.483 119.4 308.416C142.119 327.349 134.82 389.599 134.82 389.599H60.9287C60.9287 389.599 54.8118 359.068 48.7231 326.618C42.6116 294.047 36.547 259.542 46.6859 251.286Z" fill="white"/>
<path d="M320.386 305.632C314.573 285.729 209.643 304.519 209.643 304.519L123.299 314.377L118.153 368.891L371.134 372.22C371.134 372.22 326.198 325.536 320.386 305.632Z" fill="#5484D4"/>
<path d="M119.897 361.088L123.433 314.929L97.2184 312.484L108.563 363.06L119.897 361.088Z" fill="#342F91"/>
<path d="M228.117 329.88L178.645 312.551L170.816 333.676L222.125 353.054L228.117 329.88Z" fill="#342F91"/>
<path d="M337.268 321.414C321.553 274.349 305.545 215.411 290.625 197.937C275.705 180.463 233.355 238.689 233.355 238.689C233.355 238.689 241.346 324.693 281.722 357.631C302.354 374.463 357.456 387.904 357.456 387.904C357.456 387.904 346.471 348.977 337.268 321.414Z" fill="#99C2FF"/>
<g filter="url(#filter2_f_185_12)">
<path d="M287.582 215.305L275.018 211.154L251.681 301.401L254.351 306.072L287.582 215.305Z" fill="#6490D0"/>
</g>
<path d="M249.354 175.544C228.97 171.863 167.839 308.22 167.839 308.22L240.324 337.14L288.378 195.954C288.378 195.954 269.738 179.225 249.354 175.544Z" fill="#99C2FF"/>
<mask id="mask1_185_12" style="mask-type:alpha" maskUnits="userSpaceOnUse" x="111" y="330" width="121" height="43">
<path d="M228.405 333.243L169.664 330.463L169.664 371.736C169.664 371.736 213.709 372.203 230.284 372.203C233.867 357.758 228.405 333.243 228.405 333.243Z" fill="#5DAEC4"/>
<path d="M169.664 330.463C169.664 330.463 153.75 338.296 140.608 346.515C133.453 350.991 129.42 351.157 120.219 351.157C111.019 351.157 107.258 371.811 119.797 371.811C132.337 371.811 158.665 371.811 175.239 371.811C183.45 357.498 169.664 330.463 169.664 330.463Z" fill="#5DAEC4"/>
</mask>
<g mask="url(#mask1_185_12)">
<path d="M227.96 333.272C227.96 333.272 211.549 336.374 200.006 335.855C188.299 335.328 169.664 330.463 169.664 330.463L169.664 371.736C169.664 371.736 212.46 371.465 229.035 371.465C232.619 357.02 227.96 333.272 227.96 333.272Z" fill="#5F5DC4"/>
<path d="M169.664 330.463C169.664 330.463 153.75 338.296 140.608 346.515C133.453 350.991 129.42 351.157 120.219 351.157C111.019 351.157 107.258 371.811 119.797 371.811C132.337 371.811 158.665 371.811 175.239 371.811C183.45 357.498 169.664 330.463 169.664 330.463Z" fill="#5F5DC4"/>
<path d="M173.871 327.959L137.186 327.959L137.186 348.969C137.186 348.969 150.173 348.324 158.081 346.003C165.699 343.768 176.605 337.63 176.605 337.63L173.871 327.959Z" fill="#266589"/>
<rect width="123.383" height="16.8694" transform="matrix(-1 -8.65597e-08 -8.65597e-08 1 233.179 362.938)" fill="#D9D9D9"/>
</g>
<circle cx="3.12473" cy="3.12473" r="3.12473" transform="matrix(-1 -8.65597e-08 -8.65597e-08 1 171.642 344.53)" fill="#B4B4B4"/>
<circle cx="3.12473" cy="3.12473" r="3.12473" transform="matrix(-1 -8.65597e-08 -8.65597e-08 1 181.139 338.281)" fill="#B4B4B4"/>
<circle cx="3.12473" cy="3.12473" r="3.12473" transform="matrix(-1 -8.65597e-08 -8.65597e-08 1 160.337 348.209)" fill="#B4B4B4"/>
<circle cx="3.12473" cy="3.12473" r="3.12473" transform="matrix(-1 -8.65597e-08 -8.65597e-08 1 148.427 349.834)" fill="#B4B4B4"/>
<path d="M182.739 331.069C183.286 328.772 181.887 326.462 179.598 325.882L171.491 323.828C168.739 323.131 166.073 325.233 166.111 328.073L166.136 329.982C166.155 331.47 166.939 332.842 168.209 333.616L175.298 337.931C177.804 339.456 181.068 338.094 181.747 335.24L182.739 331.069Z" fill="#5F5DC4"/>
<path d="M178.879 341.851L165.463 332.583L164.487 333.188L166.533 344.301L158.07 336.489L156.861 337.233L156.173 347.607L150.863 340.534L149.236 341.418L145.059 350.453L141.453 345.89" stroke="#D9D9D9" stroke-width="3.6"/>
<mask id="mask2_185_12" style="mask-type:alpha" maskUnits="userSpaceOnUse" x="51" y="256" width="62" height="119">
<path d="M112.677 364.502L102.896 306.514L62.5682 315.295C62.5682 315.295 71.482 358.431 75.0084 374.626C89.8851 375.055 112.677 364.502 112.677 364.502Z" fill="#5DAEC4"/>
<path d="M102.896 306.514C102.896 306.514 91.8565 292.631 81.0289 281.539C75.1331 275.499 74.1128 271.594 72.1554 262.604C70.1979 253.615 49.217 254.334 51.885 266.586C54.5529 278.839 60.1544 304.564 63.6808 320.759C79.4125 325.736 102.896 306.514 102.896 306.514Z" fill="#5DAEC4"/>
</mask>
<g mask="url(#mask2_185_12)">
<path d="M112.554 364.072C112.554 364.072 106.031 348.698 104.083 337.308C102.107 325.757 102.896 306.514 102.896 306.514L62.5683 315.295C62.5683 315.295 71.9374 357.054 75.4639 373.249C90.3406 373.678 112.554 364.072 112.554 364.072Z" fill="#5F5DC4"/>
<path d="M102.896 306.514C102.896 306.514 91.8566 292.631 81.029 281.539C75.1332 275.499 74.1129 271.594 72.1555 262.604C70.198 253.615 49.2171 254.333 51.8851 266.586C54.553 278.839 60.1545 304.563 63.6809 320.759C79.4126 325.736 102.896 306.514 102.896 306.514Z" fill="#5F5DC4"/>
<path d="M106.237 310.092L98.4323 274.247L77.9033 278.717C77.9033 278.717 81.2968 291.27 85.247 298.503C89.0518 305.471 97.3692 314.821 97.3692 314.821L106.237 310.092Z" fill="#266589"/>
<rect width="123.383" height="16.8694" transform="matrix(-0.212759 -0.977105 -0.977105 0.212759 84.6775 375.484)" fill="#D9D9D9"/>
</g>
<circle cx="3.12473" cy="3.12473" r="3.12473" transform="matrix(-0.212759 -0.977105 -0.977105 0.212759 89.5724 311.44)" fill="#B4B4B4"/>
<circle cx="3.12473" cy="3.12473" r="3.12473" transform="matrix(-0.212759 -0.977105 -0.977105 0.212759 97.6995 319.39)" fill="#B4B4B4"/>
<circle cx="3.12473" cy="3.12473" r="3.12473" transform="matrix(-0.212759 -0.977105 -0.977105 0.212759 83.5725 301.176)" fill="#B4B4B4"/>
<circle cx="3.12473" cy="3.12473" r="3.12473" transform="matrix(-0.212759 -0.977105 -0.977105 0.212759 79.4498 289.885)" fill="#B4B4B4"/>
<path d="M105.086 319.419C107.447 319.465 109.406 317.606 109.486 315.246L109.768 306.888C109.864 304.05 107.242 301.893 104.476 302.534L102.615 302.964C101.166 303.3 99.9913 304.358 99.506 305.764L96.7983 313.608C95.8413 316.381 97.8665 319.281 100.799 319.337L105.086 319.419Z" fill="#5F5DC4"/>
<path d="M93.7296 317.941L99.9306 302.861L99.1322 302.035L88.7093 306.399L94.5414 296.468L93.5573 295.445L83.2741 296.98L89.0554 290.287L87.846 288.885L78.1294 286.726L81.8202 282.231" stroke="#D9D9D9" stroke-width="3.6"/>
<path d="M366.635 386.085L352.711 386.085L333.606 382.37L366.635 400.764L366.635 386.085Z" fill="#3A3BAD"/>
<ellipse cx="41.182" cy="17.5471" rx="41.182" ry="17.5471" transform="matrix(-0.855556 -0.51771 -0.51771 0.855556 522.198 286.993)" fill="#3E40B7"/>
<path d="M407.863 228.816C402.846 237.107 414.553 253.374 434.012 265.149C453.471 276.923 473.313 279.748 478.33 271.456C483.347 263.165 471.64 246.898 452.181 235.124C432.722 223.349 412.88 220.524 407.863 228.816Z" fill="#3E40B7"/>
<mask id="mask3_185_12" style="mask-type:alpha" maskUnits="userSpaceOnUse" x="346" y="190" width="93" height="101">
<path d="M401.68 196.248C380.717 180.629 346.878 204.834 346.878 204.834L370.324 290.029C370.324 290.029 407.935 276.927 429.732 266.95C452.584 256.489 423.121 212.225 401.68 196.248Z" fill="#5F5DC4"/>
</mask>
<g mask="url(#mask3_185_12)">
<path d="M414.412 188.332C399.385 169.883 364.053 219.188 364.053 219.188L367.863 280.096C367.863 280.096 398.529 272.521 416.514 265.774C435.371 258.7 429.781 207.203 414.412 188.332Z" fill="#5F5DC4"/>
<g filter="url(#filter3_f_185_12)">
<path d="M413.591 204.623L375.048 204.623L375.048 233.654L413.591 227.367L413.591 204.623Z" fill="#4D4C9F"/>
</g>
<g filter="url(#filter4_f_185_12)">
<path d="M402.633 289.59C419.074 286.324 439.598 255.826 439.598 255.826L412.962 224.908C412.962 224.908 388.469 251.761 374.566 268.54C359.99 286.132 385.815 292.93 402.633 289.59Z" fill="#484694"/>
</g>
</g>
<path d="M456.901 217.551L449.224 185.116L444.142 185.084L444.488 217.683L456.901 217.551Z" fill="#3E40B7"/>
<g filter="url(#filter5_i_185_12)">
<path d="M459.503 187.465L494.104 187.275L498.239 196.985L475.871 200.961L457.502 212.967L450.677 194.851L459.503 187.465Z" fill="#4DBAD9"/>
<rect width="19.3764" height="30.2032" transform="matrix(-0.346695 -0.937978 -0.942798 0.333365 457.975 212.667)" fill="#4DBAD9"/>
</g>
<path d="M436.831 219.922C448.153 219.802 445.376 180.952 432.411 173.714C416.029 164.569 391.01 175.075 384.458 181.115C373.253 191.445 356.71 210.203 367.376 227.835C403.25 227.453 425.509 220.042 436.831 219.922Z" fill="#5F5DC4"/>
<g filter="url(#filter6_d_185_12)">
<path d="M456.906 217.962C456.906 217.962 441.48 200.308 446.67 190.125C449.224 185.116 449.224 185.116 449.224 185.116L434.114 176.175L438.624 221.565L456.906 217.962Z" fill="#5F5DC4"/>
</g>
<mask id="mask4_185_12" style="mask-type:alpha" maskUnits="userSpaceOnUse" x="354" y="232" width="194" height="150">
<path d="M547.351 338.484L406.912 232.619L354.034 298.895L425.098 381.435L547.351 338.484Z" fill="#5F5DC4"/>
</mask>
<g mask="url(#mask4_185_12)">
<path d="M522.085 350.412L406.912 232.619L354.034 298.895L354.034 337.292L424.78 376.064L472.774 358.385L522.085 350.412Z" fill="#5F5DC4"/>
<g filter="url(#filter7_f_185_12)">
<path d="M513.009 295.317L471.04 294.922C471.04 294.922 465.167 310.724 465.013 321.283C464.855 332.097 470.537 348.422 470.537 348.422L512.505 348.817L513.009 295.317Z" fill="#494795"/>
</g>
</g>
<mask id="mask5_185_12" style="mask-type:alpha" maskUnits="userSpaceOnUse" x="325" y="264" width="150" height="137">
<path d="M474.591 349.423L386.36 264.178C386.36 264.178 360.953 275.463 345.546 281.391C330.113 287.328 327.111 290.885 327.111 290.885C327.111 290.885 321.987 324.126 329.734 345.781C337.597 367.758 366.775 400.866 366.775 400.866C366.775 400.866 404.64 384.794 421.68 377.754C435.46 372.062 474.591 349.423 474.591 349.423Z" fill="#5F5DC4"/>
</mask>
<g mask="url(#mask5_185_12)">
<path d="M474.591 349.423L386.36 264.178C386.36 264.178 360.953 275.463 345.546 281.391C330.113 287.328 327.111 290.885 327.111 290.885C327.111 290.885 321.987 324.126 329.734 345.781C337.597 367.758 366.775 400.866 366.775 400.866C366.775 400.866 404.64 384.794 421.68 377.754C435.46 372.062 474.591 349.423 474.591 349.423Z" fill="#5F5DC4"/>
<g filter="url(#filter8_i_185_12)">
<path d="M333.643 285.522L309.854 299.859L352.288 402.139L380.174 400.281C380.174 400.281 343.814 364.94 338.615 341.343C333.906 319.97 333.643 285.522 333.643 285.522Z" fill="#5F5DC4"/>
</g>
</g>
<g filter="url(#filter9_f_185_12)">
<path d="M376.487 268.63L397.202 295.091L427.739 317.258L376.487 268.63Z" fill="#4D4C9F"/>
</g>
<g filter="url(#filter10_i_185_12)">
<circle cx="51.9251" cy="51.9251" r="51.9251" transform="matrix(-0.855556 -0.51771 -0.51771 0.855556 546.37 206.467)" fill="#4DBAD9"/>
</g>
<g filter="url(#filter11_dd_185_12)">
<path d="M423.195 226.561C419.939 223.049 415.629 221.366 409.971 223.497C403.057 228.687 409.4 244.556 409.4 244.556C409.415 244.596 411.896 251.385 419.832 260.196L430.346 268.631C431.925 263.311 432.709 258.546 432.613 253.936C426.922 245.855 423.684 236.329 423.195 226.561Z" fill="#5F5DC4"/>
</g>
<g filter="url(#filter12_d_185_12)">
<path d="M480.067 275.457C459.177 261.368 438.799 255.255 430.106 268.142C430.106 268.142 450.424 287.584 465.176 297.534C483.325 309.775 502.441 313.527 508.753 315.808C517.445 302.921 500.956 289.547 480.067 275.457Z" fill="#5F5DC4"/>
</g>
<g filter="url(#filter13_f_185_12)">
<path d="M500.693 288.579C500.693 288.579 491.732 289.03 486.564 290.692C481.369 292.363 474.736 296.959 474.736 296.959L486.25 318.936L517.675 307.381L500.693 288.579Z" fill="#494797"/>
</g>
<mask id="mask6_185_12" style="mask-type:alpha" maskUnits="userSpaceOnUse" x="459" y="284" width="96" height="71">
<path d="M540.153 292.007C562.449 304.48 553.001 344.754 553.001 344.754C553.001 344.754 491.914 359.966 471.602 352.401C451.29 344.836 457.634 310.237 477.505 297.374C496.842 284.857 517.347 279.249 540.153 292.007Z" fill="#5F5DC4"/>
</mask>
<g mask="url(#mask6_185_12)">
<path d="M547.803 277.893C572.995 292.976 561.589 342.953 561.589 342.953C561.589 342.953 510.779 359.776 471.324 350.86C463.428 327.649 469.839 304.689 477.006 296.055C496.249 280.012 522.035 262.465 547.803 277.893Z" fill="#5F5DC4"/>
<g filter="url(#filter14_f_185_12)">
<path d="M537.146 266.685L505.649 275.098L527.385 337.698L554.201 330.536L537.146 266.685Z" fill="#484694"/>
</g>
</g>
<path d="M550.58 242.615C544.356 237.406 533.098 239.232 522.981 244.025C522.002 246.362 520.839 248.657 519.487 250.891C515.107 258.129 509.241 263.915 502.516 268.095C508.07 281.25 515.837 295.187 533.416 336.864C540.486 353.625 575.149 342.55 580.264 324.889C583.255 314.563 568.306 257.452 550.58 242.615Z" fill="#5F5DC4"/>
<g filter="url(#filter15_d_185_12)">
<path d="M530.533 224.472C530.163 232.879 523.635 242.687 519.487 250.892C515.402 257.642 510.024 263.129 503.863 267.229L503.886 267.894L539.662 239.597L530.533 224.472Z" fill="#5F5DC4"/>
</g>
<circle cx="2.91757" cy="2.91757" r="2.91757" transform="matrix(-1 -1.0199e-07 -1.0199e-07 1 442.235 266.131)" fill="#B4B4B4"/>
<path d="M438.971 269.621C437.33 274.275 436.099 283.404 435.809 289.743C435.345 299.878 435.809 303.588 439.783 313.723" stroke="#342EA7" stroke-width="3.6" stroke-linecap="round"/>
<circle cx="2.91757" cy="2.91757" r="2.91757" transform="matrix(-1 -1.0199e-07 -1.0199e-07 1 428.823 253.967)" fill="#B4B4B4"/>
<path d="M425.719 257.174C424.078 261.827 422.847 270.957 422.557 277.296C422.093 287.431 422.557 292.336 422.557 302.474" stroke="#342EA7" stroke-width="3.6" stroke-linecap="round"/>
<g filter="url(#filter16_d_185_12)">
<path d="M479.975 195.734C479.975 195.734 529.622 186.331 531.471 225.648C531.754 231.671 530.201 240.237 526.651 246.311C522.693 253.084 513.291 260.535 513.291 260.535C513.291 260.535 492.039 245.644 479.824 241.61C467.61 237.575 487.165 223.979 491.444 216.131C495.723 208.284 479.975 195.734 479.975 195.734Z" fill="#5F5DC4"/>
<path d="M487.176 237.031L528.157 234.202C528.157 234.202 526.007 246.156 515.304 258.878C507.404 268.268 486.147 275.467 486.147 275.467L497.979 260.275L477.829 263.223L487.176 237.031Z" fill="#5F5DC4"/>
<path d="M444.617 179.32C444.617 179.32 472.547 163.566 495.758 175.792C526.455 191.961 530.633 220.126 530.633 220.126L510.985 219.011L480.603 195.927L466.803 183.09L453.556 189.045L444.617 179.32Z" fill="#5F5DC4"/>
<g filter="url(#filter17_d_185_12)">
<path d="M480.324 196.194C480.324 196.194 483.08 195.497 481.755 190.646C479.585 182.695 471.167 168.63 456.582 169.004C438.969 169.456 434.402 181.4 433.042 185.26C431.682 189.12 435.516 208.625 435.516 208.625C435.516 208.625 452.242 187.81 461.54 185.849C470.285 184.004 480.324 196.194 480.324 196.194Z" fill="#5F5DC4"/>
</g>
<g filter="url(#filter18_d_185_12)">
<path d="M480.23 195.682C480.23 195.682 507.527 197.86 505.281 221.244C503.597 238.782 491.363 242.502 487.416 243.588C483.47 244.674 464.282 239.484 464.282 239.484C464.282 239.484 486.217 224.257 488.825 215.119C491.278 206.524 480.23 195.682 480.23 195.682Z" fill="#5F5DC4"/>
</g>
<path d="M472.246 185.273L474.992 191.061C474.992 191.061 466.571 190.266 461.964 192.495C457.456 194.677 452.884 201.551 452.884 201.551C452.884 201.551 458.104 188.425 462.31 186.323C466.891 184.033 472.246 185.273 472.246 185.273Z" fill="#5F5DC4"/>
<path d="M489.534 200.948L483.349 199.278C483.349 199.278 485.634 207.422 484.262 212.353C482.92 217.178 476.971 222.902 476.971 222.902C476.971 222.902 488.956 215.425 490.274 210.912C491.71 205.995 489.534 200.948 489.534 200.948Z" fill="#5F5DC4"/>
</g>
<g filter="url(#filter19_d_185_12)">
<path d="M414.317 203.703L422.283 231.421L423.69 231.568C422.148 221.124 423.765 210.157 428.919 200.195L414.317 203.703Z" fill="#342F91"/>
<rect width="68.3455" height="91.9052" transform="matrix(-0.539659 -0.841883 -0.841883 0.539659 528.47 211.727)" fill="#5484D4"/>
<g filter="url(#filter20_d_185_12)">
<path d="M487.756 150.691L491.586 154.188L414.213 203.786L414.768 196.65L487.756 150.691Z" fill="#5484D4"/>
</g>
</g>
<mask id="path-99-outside-1_185_12" maskUnits="userSpaceOnUse" x="392.788" y="40.8131" width="70" height="99" fill="black">
<rect fill="white" x="392.788" y="40.8131" width="70" height="99"/>
<path d="M420.902 56.2912C420.902 56.7059 420.291 57.6621 419.07 59.1597C417.849 60.6573 416.017 62.6848 413.575 65.2422L420.867 65.2422C421.121 65.2422 421.328 65.5878 421.489 66.279C421.674 66.9472 421.766 67.9033 421.766 69.1475C421.766 70.3686 421.616 71.4515 421.316 72.3961C421.04 73.3408 420.66 73.8131 420.176 73.8131L403.345 73.8131C402.677 73.8131 402.193 73.1449 401.894 71.8086C401.617 70.4723 401.479 69.0208 401.479 67.4541C401.479 67.1085 402.124 66.1638 403.414 64.6201C404.705 63.0765 406.652 60.9222 409.255 58.1574L402.55 58.1574C401.928 58.1574 401.617 57.1552 401.617 55.1507C401.617 53.7453 401.767 52.4205 402.067 51.1763C402.366 49.9091 402.746 49.2755 403.207 49.2755L419.139 49.2755C420.314 49.2755 420.902 51.6141 420.902 56.2912ZM453.466 85.2912C453.466 85.7059 452.856 86.6621 451.635 88.1597C450.414 89.6573 448.582 91.6848 446.14 94.2422L453.432 94.2422C453.685 94.2422 453.893 94.5878 454.054 95.279C454.238 95.9472 454.33 96.9033 454.33 98.1475C454.33 99.3686 454.181 100.452 453.881 101.396C453.605 102.341 453.225 102.813 452.741 102.813L435.91 102.813C435.242 102.813 434.758 102.145 434.458 100.809C434.182 99.4723 434.044 98.0208 434.044 96.4541C434.044 96.1085 434.689 95.1638 435.979 93.6201C437.269 92.0765 439.216 89.9222 441.82 87.1574H435.115C434.493 87.1574 434.182 86.1552 434.182 84.1507C434.182 82.7453 434.332 81.4205 434.631 80.1763C434.931 78.9091 435.311 78.2755 435.772 78.2755L451.704 78.2755C452.879 78.2755 453.466 80.6141 453.466 85.2912ZM420.902 114.291C420.902 114.706 420.291 115.662 419.07 117.16C417.849 118.657 416.017 120.685 413.575 123.242L420.867 123.242C421.121 123.242 421.328 123.588 421.489 124.279C421.674 124.947 421.766 125.903 421.766 127.148C421.766 128.369 421.616 129.452 421.316 130.396C421.04 131.341 420.66 131.813 420.176 131.813L403.345 131.813C402.677 131.813 402.193 131.145 401.894 129.809C401.617 128.472 401.479 127.021 401.479 125.454C401.479 125.108 402.124 124.164 403.414 122.62C404.705 121.076 406.652 118.922 409.255 116.157L402.55 116.157C401.928 116.157 401.617 115.155 401.617 113.151C401.617 111.745 401.767 110.42 402.067 109.176C402.366 107.909 402.746 107.276 403.207 107.276L419.139 107.276C420.314 107.276 420.902 109.614 420.902 114.291Z"/>
</mask>
<path d="M420.902 56.2912C420.902 56.7059 420.291 57.6621 419.07 59.1597C417.849 60.6573 416.017 62.6848 413.575 65.2422L420.867 65.2422C421.121 65.2422 421.328 65.5878 421.489 66.279C421.674 66.9472 421.766 67.9033 421.766 69.1475C421.766 70.3686 421.616 71.4515 421.316 72.3961C421.04 73.3408 420.66 73.8131 420.176 73.8131L403.345 73.8131C402.677 73.8131 402.193 73.1449 401.894 71.8086C401.617 70.4723 401.479 69.0208 401.479 67.4541C401.479 67.1085 402.124 66.1638 403.414 64.6201C404.705 63.0765 406.652 60.9222 409.255 58.1574L402.55 58.1574C401.928 58.1574 401.617 57.1552 401.617 55.1507C401.617 53.7453 401.767 52.4205 402.067 51.1763C402.366 49.9091 402.746 49.2755 403.207 49.2755L419.139 49.2755C420.314 49.2755 420.902 51.6141 420.902 56.2912ZM453.466 85.2912C453.466 85.7059 452.856 86.6621 451.635 88.1597C450.414 89.6573 448.582 91.6848 446.14 94.2422L453.432 94.2422C453.685 94.2422 453.893 94.5878 454.054 95.279C454.238 95.9472 454.33 96.9033 454.33 98.1475C454.33 99.3686 454.181 100.452 453.881 101.396C453.605 102.341 453.225 102.813 452.741 102.813L435.91 102.813C435.242 102.813 434.758 102.145 434.458 100.809C434.182 99.4723 434.044 98.0208 434.044 96.4541C434.044 96.1085 434.689 95.1638 435.979 93.6201C437.269 92.0765 439.216 89.9222 441.82 87.1574H435.115C434.493 87.1574 434.182 86.1552 434.182 84.1507C434.182 82.7453 434.332 81.4205 434.631 80.1763C434.931 78.9091 435.311 78.2755 435.772 78.2755L451.704 78.2755C452.879 78.2755 453.466 80.6141 453.466 85.2912ZM420.902 114.291C420.902 114.706 420.291 115.662 419.07 117.16C417.849 118.657 416.017 120.685 413.575 123.242L420.867 123.242C421.121 123.242 421.328 123.588 421.489 124.279C421.674 124.947 421.766 125.903 421.766 127.148C421.766 128.369 421.616 129.452 421.316 130.396C421.04 131.341 420.66 131.813 420.176 131.813L403.345 131.813C402.677 131.813 402.193 131.145 401.894 129.809C401.617 128.472 401.479 127.021 401.479 125.454C401.479 125.108 402.124 124.164 403.414 122.62C404.705 121.076 406.652 118.922 409.255 116.157L402.55 116.157C401.928 116.157 401.617 115.155 401.617 113.151C401.617 111.745 401.767 110.42 402.067 109.176C402.366 107.909 402.746 107.276 403.207 107.276L419.139 107.276C420.314 107.276 420.902 109.614 420.902 114.291Z" fill="#5F5DC4"/>
<path d="M419.07 59.1597L425.27 64.2152L425.27 64.2152L419.07 59.1597ZM413.575 65.2422L407.789 59.7172L394.874 73.2422L413.575 73.2422L413.575 65.2422ZM421.489 66.279L413.699 68.0969L413.735 68.2525L413.777 68.4065L421.489 66.279ZM421.316 72.3961L413.691 69.9782L413.664 70.0633L413.639 70.149L421.316 72.3961ZM401.894 71.8086L394.06 73.4295L394.073 73.494L394.087 73.5583L401.894 71.8086ZM403.414 64.6201L409.553 69.7506L409.553 69.7506L403.414 64.6201ZM409.255 58.1574L415.079 63.6419L427.777 50.1574L409.255 50.1574L409.255 58.1574ZM402.067 51.1763L409.844 53.0487L409.848 53.0326L409.852 53.0165L402.067 51.1763ZM420.902 56.2912L412.902 56.2912C412.902 55.4063 413.057 54.7194 413.164 54.333C413.278 53.9235 413.403 53.6194 413.479 53.4489C413.625 53.1228 413.736 52.9591 413.701 53.0138C413.638 53.1136 413.4 53.4536 412.87 54.1042L419.07 59.1597L425.27 64.2152C425.961 63.3681 426.64 62.4813 427.186 61.6249C427.457 61.2015 427.797 60.6275 428.095 59.9585C428.318 59.4594 428.902 58.0871 428.902 56.2912L420.902 56.2912ZM419.07 59.1597L412.87 54.1042C411.847 55.3588 410.185 57.2091 407.789 59.7172L413.575 65.2422L419.361 70.7673C421.85 68.1605 423.851 65.9557 425.27 64.2152L419.07 59.1597ZM413.575 65.2422L413.575 73.2422L420.867 73.2422V65.2422L420.867 57.2422L413.575 57.2422V65.2422ZM420.867 65.2422V73.2422C416.793 73.2422 414.796 70.3566 414.353 69.6174C414.053 69.1182 413.894 68.7083 413.822 68.5055C413.744 68.2855 413.708 68.1372 413.699 68.0969L421.489 66.279L429.28 64.4612C429.131 63.8226 428.811 62.6161 428.073 61.3855C427.422 60.3006 425.195 57.2422 420.867 57.2422L420.867 65.2422ZM421.489 66.279L413.777 68.4065C413.74 68.2722 413.726 68.1903 413.724 68.1765C413.721 68.1608 413.726 68.1876 413.734 68.2648C413.749 68.4263 413.766 68.7114 413.766 69.1475L421.766 69.1475H429.766C429.766 67.6576 429.671 65.8553 429.201 64.1516L421.489 66.279ZM421.766 69.1475L413.766 69.1475C413.766 69.4333 413.748 69.6405 413.729 69.7796C413.71 69.918 413.69 69.9788 413.691 69.9782L421.316 72.3961L428.942 74.8141C429.54 72.9304 429.766 71.0063 429.766 69.1475H421.766ZM421.316 72.3961L413.639 70.149C413.654 70.0966 413.709 69.9152 413.831 69.6524C413.949 69.3987 414.182 68.9526 414.592 68.4428C415.5 67.3148 417.396 65.8131 420.176 65.8131V73.8131V81.8131C423.439 81.8131 425.768 80.0752 427.056 78.4749C428.189 77.067 428.722 75.5729 428.994 74.6433L421.316 72.3961ZM420.176 73.8131V65.8131L403.345 65.8131V73.8131L403.345 81.8131L420.176 81.8131V73.8131ZM403.345 73.8131V65.8131C404.583 65.8131 405.813 66.1413 406.892 66.7676C407.92 67.3633 408.577 68.0905 408.961 68.6199C409.642 69.5607 409.749 70.276 409.7 70.0589L401.894 71.8086L394.087 73.5583C394.338 74.6776 394.837 76.3951 396.002 78.0041C397.352 79.8694 399.838 81.8131 403.345 81.8131L403.345 73.8131ZM401.894 71.8086L409.728 70.1878C409.576 69.4562 409.479 68.5545 409.479 67.4541L401.479 67.4541L393.479 67.4541C393.479 69.487 393.658 71.4884 394.06 73.4295L401.894 71.8086ZM401.479 67.4541L409.479 67.4541C409.479 68.0409 409.412 68.5311 409.343 68.889C409.274 69.2522 409.188 69.5516 409.116 69.7731C408.977 70.2013 408.831 70.5099 408.755 70.6603C408.609 70.9527 408.509 71.0868 408.569 70.9981C408.677 70.841 408.969 70.4484 409.553 69.7506L403.414 64.6201L397.276 59.4897C396.569 60.3356 395.894 61.1871 395.356 61.9747C395.095 62.3583 394.752 62.8898 394.445 63.5048C394.286 63.8222 393.479 65.3774 393.479 67.4541L401.479 67.4541ZM403.414 64.6201L409.553 69.7506C410.689 68.391 412.507 66.3733 415.079 63.6419L409.255 58.1574L403.431 52.673C400.796 55.4711 398.72 57.7619 397.276 59.4897L403.414 64.6201ZM409.255 58.1574L409.255 50.1574L402.55 50.1574V58.1574L402.55 66.1574L409.255 66.1574V58.1574ZM402.55 58.1574V50.1574C404.853 50.1574 406.77 51.1998 407.997 52.5182C409.019 53.616 409.384 54.691 409.491 55.0346C409.702 55.713 409.617 55.9398 409.617 55.1507L401.617 55.1507L393.617 55.1507C393.617 56.3661 393.688 58.0962 394.21 59.7769C394.586 60.9867 396.593 66.1574 402.55 66.1574L402.55 58.1574ZM401.617 55.1507L409.617 55.1507C409.617 54.3149 409.706 53.623 409.844 53.0487L402.067 51.1763L394.289 49.3039C393.828 51.2179 393.617 53.1756 393.617 55.1507L401.617 55.1507ZM402.067 51.1763L409.852 53.0165C409.933 52.6725 409.875 53.1352 409.436 53.8667C409.096 54.4339 407.198 57.2755 403.207 57.2755V49.2755L403.207 41.2755C398.756 41.2755 396.437 44.4339 395.716 45.6347C394.897 46.9998 394.499 48.4129 394.281 49.3361L402.067 51.1763ZM403.207 49.2755V57.2755L419.139 57.2755V49.2755V41.2755L403.207 41.2755L403.207 49.2755ZM419.139 49.2755V57.2755C417.89 57.2755 416.666 56.947 415.598 56.3394C414.58 55.7609 413.917 55.0532 413.522 54.5291C413.133 54.0129 412.927 53.5748 412.834 53.3519C412.783 53.23 412.75 53.1358 412.731 53.0773C412.712 53.0183 412.704 52.9838 412.702 52.9787C412.701 52.9731 412.718 53.0432 412.743 53.2084C412.768 53.3706 412.795 53.5946 412.82 53.8894C412.869 54.486 412.902 55.2773 412.902 56.2912L420.902 56.2912L428.902 56.2912C428.902 53.7879 428.761 51.2329 428.22 49.0801C427.96 48.0438 427.447 46.4225 426.299 44.8989C424.98 43.1485 422.559 41.2755 419.139 41.2755V49.2755ZM451.635 88.1597L457.835 93.2152L457.835 93.2152L451.635 88.1597ZM446.14 94.2422L440.354 88.7172L427.438 102.242L446.14 102.242L446.14 94.2422ZM454.054 95.279L446.263 97.0969L446.3 97.2525L446.342 97.4065L454.054 95.279ZM453.881 101.396L446.255 98.9782L446.228 99.0633L446.203 99.149L453.881 101.396ZM434.458 100.809L426.624 102.429L426.638 102.494L426.652 102.558L434.458 100.809ZM435.979 93.6201L442.117 98.7506L442.117 98.7506L435.979 93.6201ZM441.82 87.1574L447.644 92.6419L460.342 79.1574L441.82 79.1574L441.82 87.1574ZM434.631 80.1763L442.409 82.0487L442.413 82.0326L442.417 82.0165L434.631 80.1763ZM453.466 85.2912L445.466 85.2912C445.466 84.4063 445.622 83.7194 445.729 83.333C445.843 82.9235 445.968 82.6194 446.044 82.4489C446.189 82.1228 446.301 81.9591 446.266 82.0138C446.202 82.1136 445.965 82.4536 445.435 83.1042L451.635 88.1597L457.835 93.2152C458.526 92.3681 459.204 91.4813 459.751 90.6249C460.021 90.2015 460.362 89.6275 460.66 88.9585C460.882 88.4594 461.466 87.0871 461.466 85.2912L453.466 85.2912ZM451.635 88.1597L445.435 83.1042C444.412 84.3588 442.749 86.2091 440.354 88.7172L446.14 94.2422L451.925 99.7673C454.415 97.1605 456.416 94.9557 457.835 93.2152L451.635 88.1597ZM446.14 94.2422L446.14 102.242L453.432 102.242V94.2422L453.432 86.2422L446.14 86.2422V94.2422ZM453.432 94.2422V102.242C449.358 102.242 447.361 99.3566 446.918 98.6174C446.618 98.1182 446.459 97.7083 446.387 97.5055C446.308 97.2855 446.273 97.1372 446.263 97.0969L454.054 95.279L461.845 93.4612C461.696 92.8226 461.376 91.6161 460.637 90.3855C459.987 89.3006 457.759 86.2422 453.432 86.2422L453.432 94.2422ZM454.054 95.279L446.342 97.4065C446.305 97.2722 446.291 97.1903 446.288 97.1765C446.286 97.1608 446.291 97.1876 446.298 97.2648C446.314 97.4263 446.33 97.7114 446.33 98.1475L454.33 98.1475L462.33 98.1475C462.33 96.6576 462.236 94.8553 461.766 93.1516L454.054 95.279ZM454.33 98.1475L446.33 98.1475C446.33 98.4333 446.313 98.6404 446.294 98.7796C446.274 98.918 446.255 98.9788 446.255 98.9782L453.881 101.396L461.507 103.814C462.104 101.93 462.33 100.006 462.33 98.1475L454.33 98.1475ZM453.881 101.396L446.203 99.149C446.219 99.0966 446.274 98.9152 446.396 98.6524C446.513 98.3987 446.746 97.9526 447.157 97.4428C448.064 96.3148 449.961 94.8131 452.741 94.8131L452.741 102.813V110.813C456.004 110.813 458.333 109.075 459.621 107.475C460.754 106.067 461.287 104.573 461.559 103.643L453.881 101.396ZM452.741 102.813L452.741 94.8131L435.91 94.8131V102.813L435.91 110.813L452.741 110.813V102.813ZM435.91 102.813V94.8131C437.148 94.8131 438.377 95.1413 439.457 95.7676C440.484 96.3633 441.142 97.0905 441.526 97.6199C442.207 98.5607 442.313 99.276 442.265 99.0589L434.458 100.809L426.652 102.558C426.903 103.678 427.401 105.395 428.566 107.004C429.917 108.869 432.403 110.813 435.91 110.813L435.91 102.813ZM434.458 100.809L442.293 99.1878C442.141 98.4562 442.044 97.5545 442.044 96.4541L434.044 96.4541L426.044 96.4541C426.044 98.487 426.223 100.488 426.624 102.429L434.458 100.809ZM434.044 96.4541L442.044 96.4541C442.044 97.0409 441.977 97.5311 441.908 97.889C441.838 98.2522 441.753 98.5516 441.681 98.7731C441.542 99.2013 441.395 99.5099 441.32 99.6603C441.174 99.9527 441.073 100.087 441.134 99.9981C441.241 99.841 441.534 99.4484 442.117 98.7506L435.979 93.6201L429.841 88.4897C429.134 89.3356 428.459 90.1871 427.921 90.9747C427.659 91.3583 427.317 91.8898 427.009 92.5048C426.851 92.8222 426.044 94.3774 426.044 96.4541L434.044 96.4541ZM435.979 93.6201L442.117 98.7506C443.254 97.391 445.072 95.3733 447.644 92.6419L441.82 87.1574L435.996 81.673C433.361 84.4711 431.285 86.7619 429.841 88.4897L435.979 93.6201ZM441.82 87.1574L441.82 79.1574H435.115V87.1574L435.115 95.1574H441.82V87.1574ZM435.115 87.1574V79.1574C437.417 79.1574 439.335 80.1998 440.562 81.5182C441.584 82.616 441.949 83.691 442.056 84.0346C442.266 84.713 442.182 84.9398 442.182 84.1507L434.182 84.1507L426.182 84.1507C426.182 85.3661 426.253 87.0962 426.775 88.7769C427.15 89.9867 429.158 95.1574 435.115 95.1574L435.115 87.1574ZM434.182 84.1507L442.182 84.1507C442.182 83.3149 442.271 82.623 442.409 82.0487L434.631 80.1763L426.853 78.3039C426.393 80.2179 426.182 82.1756 426.182 84.1507L434.182 84.1507ZM434.631 80.1763L442.417 82.0165C442.498 81.6725 442.44 82.1352 442.001 82.8667C441.661 83.4339 439.762 86.2755 435.772 86.2755V78.2755L435.772 70.2755C431.32 70.2755 429.002 73.4339 428.281 74.6347C427.462 75.9998 427.064 77.4129 426.846 78.3361L434.631 80.1763ZM435.772 78.2755V86.2755L451.704 86.2755L451.704 78.2755V70.2755L435.772 70.2755L435.772 78.2755ZM451.704 78.2755L451.704 86.2755C450.455 86.2755 449.231 85.947 448.163 85.3394C447.145 84.7609 446.481 84.0532 446.086 83.5291C445.697 83.0129 445.492 82.5748 445.399 82.3519C445.348 82.2299 445.315 82.1358 445.296 82.0773C445.277 82.0183 445.268 81.9838 445.267 81.9787C445.266 81.9731 445.283 82.0432 445.308 82.2084C445.332 82.3706 445.36 82.5946 445.384 82.8894C445.434 83.486 445.466 84.2773 445.466 85.2912L453.466 85.2912L461.466 85.2912C461.466 82.7879 461.326 80.2329 460.785 78.0801C460.524 77.0438 460.012 75.4225 458.864 73.8989C457.544 72.1485 455.124 70.2755 451.704 70.2755V78.2755ZM419.07 117.16L425.27 122.215L425.27 122.215L419.07 117.16ZM413.575 123.242L407.789 117.717L394.874 131.242L413.575 131.242L413.575 123.242ZM421.489 124.279L413.699 126.097L413.735 126.252L413.777 126.406L421.489 124.279ZM421.316 130.396L413.691 127.978L413.664 128.063L413.639 128.149L421.316 130.396ZM401.894 129.809L394.06 131.429L394.073 131.494L394.087 131.558L401.894 129.809ZM403.414 122.62L409.553 127.751L409.553 127.751L403.414 122.62ZM409.255 116.157L415.079 121.642L427.777 108.157L409.255 108.157L409.255 116.157ZM402.067 109.176L409.844 111.049L409.848 111.033L409.852 111.017L402.067 109.176ZM420.902 114.291L412.902 114.291C412.902 113.406 413.057 112.719 413.164 112.333C413.278 111.924 413.403 111.619 413.479 111.449C413.625 111.123 413.736 110.959 413.701 111.014C413.638 111.114 413.4 111.454 412.87 112.104L419.07 117.16L425.27 122.215C425.961 121.368 426.64 120.481 427.186 119.625C427.457 119.202 427.797 118.627 428.095 117.959C428.318 117.459 428.902 116.087 428.902 114.291L420.902 114.291ZM419.07 117.16L412.87 112.104C411.847 113.359 410.185 115.209 407.789 117.717L413.575 123.242L419.361 128.767C421.85 126.16 423.851 123.956 425.27 122.215L419.07 117.16ZM413.575 123.242L413.575 131.242L420.867 131.242L420.867 123.242V115.242L413.575 115.242V123.242ZM420.867 123.242L420.867 131.242C416.793 131.242 414.796 128.357 414.353 127.617C414.053 127.118 413.894 126.708 413.822 126.506C413.744 126.285 413.708 126.137 413.699 126.097L421.489 124.279L429.28 122.461C429.131 121.823 428.811 120.616 428.073 119.385C427.422 118.301 425.195 115.242 420.867 115.242V123.242ZM421.489 124.279L413.777 126.406C413.74 126.272 413.726 126.19 413.724 126.177C413.721 126.161 413.726 126.188 413.734 126.265C413.749 126.426 413.766 126.711 413.766 127.148L421.766 127.148L429.766 127.148C429.766 125.658 429.671 123.855 429.201 122.152L421.489 124.279ZM421.766 127.148L413.766 127.148C413.766 127.433 413.748 127.64 413.729 127.78C413.71 127.918 413.69 127.979 413.691 127.978L421.316 130.396L428.942 132.814C429.54 130.93 429.766 129.006 429.766 127.148L421.766 127.148ZM421.316 130.396L413.639 128.149C413.654 128.097 413.709 127.915 413.831 127.652C413.949 127.399 414.182 126.953 414.592 126.443C415.5 125.315 417.396 123.813 420.176 123.813L420.176 131.813V139.813C423.439 139.813 425.768 138.075 427.056 136.475C428.189 135.067 428.722 133.573 428.994 132.643L421.316 130.396ZM420.176 131.813L420.176 123.813L403.345 123.813V131.813V139.813L420.176 139.813V131.813ZM403.345 131.813V123.813C404.583 123.813 405.813 124.141 406.892 124.768C407.92 125.363 408.577 126.091 408.961 126.62C409.642 127.561 409.749 128.276 409.7 128.059L401.894 129.809L394.087 131.558C394.338 132.678 394.837 134.395 396.002 136.004C397.352 137.869 399.838 139.813 403.345 139.813V131.813ZM401.894 129.809L409.728 128.188C409.576 127.456 409.479 126.555 409.479 125.454L401.479 125.454L393.479 125.454C393.479 127.487 393.658 129.488 394.06 131.429L401.894 129.809ZM401.479 125.454L409.479 125.454C409.479 126.041 409.412 126.531 409.343 126.889C409.274 127.252 409.188 127.552 409.116 127.773C408.977 128.201 408.831 128.51 408.755 128.66C408.609 128.953 408.509 129.087 408.569 128.998C408.677 128.841 408.969 128.448 409.553 127.751L403.414 122.62L397.276 117.49C396.569 118.336 395.894 119.187 395.356 119.975C395.095 120.358 394.752 120.89 394.445 121.505C394.286 121.822 393.479 123.377 393.479 125.454L401.479 125.454ZM403.414 122.62L409.553 127.751C410.689 126.391 412.507 124.373 415.079 121.642L409.255 116.157L403.431 110.673C400.796 113.471 398.72 115.762 397.276 117.49L403.414 122.62ZM409.255 116.157L409.255 108.157L402.55 108.157V116.157L402.55 124.157L409.255 124.157V116.157ZM402.55 116.157V108.157C404.853 108.157 406.77 109.2 407.997 110.518C409.019 111.616 409.384 112.691 409.491 113.035C409.702 113.713 409.617 113.94 409.617 113.151L401.617 113.151L393.617 113.151C393.617 114.366 393.688 116.096 394.21 117.777C394.586 118.987 396.593 124.157 402.55 124.157L402.55 116.157ZM401.617 113.151L409.617 113.151C409.617 112.315 409.706 111.623 409.844 111.049L402.067 109.176L394.289 107.304C393.828 109.218 393.617 111.176 393.617 113.151L401.617 113.151ZM402.067 109.176L409.852 111.017C409.933 110.673 409.875 111.135 409.436 111.867C409.096 112.434 407.198 115.276 403.207 115.276V107.276L403.207 99.2755C398.756 99.2755 396.437 102.434 395.716 103.635C394.897 105 394.499 106.413 394.281 107.336L402.067 109.176ZM403.207 107.276V115.276L419.139 115.276V107.276V99.2755L403.207 99.2755L403.207 107.276ZM419.139 107.276V115.276C417.89 115.276 416.666 114.947 415.598 114.339C414.58 113.761 413.917 113.053 413.522 112.529C413.133 112.013 412.927 111.575 412.834 111.352C412.783 111.23 412.75 111.136 412.731 111.077C412.712 111.018 412.704 110.984 412.702 110.979C412.701 110.973 412.718 111.043 412.743 111.208C412.768 111.371 412.795 111.595 412.82 111.889C412.869 112.486 412.902 113.277 412.902 114.291L420.902 114.291L428.902 114.291C428.902 111.788 428.761 109.233 428.22 107.08C427.96 106.044 427.447 104.423 426.299 102.899C424.98 101.149 422.559 99.2755 419.139 99.2755V107.276Z" fill="white" mask="url(#path-99-outside-1_185_12)"/>
</g>
<defs>
<filter id="filter0_f_185_12" x="357.168" y="186.743" width="74.3035" height="67.4359" filterUnits="userSpaceOnUse" color-interpolation-filters="sRGB">
<feFlood flood-opacity="0" result="BackgroundImageFix"/>
<feBlend mode="normal" in="SourceGraphic" in2="BackgroundImageFix" result="shape"/>
<feGaussianBlur stdDeviation="1.44" result="effect1_foregroundBlur_185_12"/>
</filter>
<filter id="filter1_f_185_12" x="353.573" y="199.636" width="107.32" height="109.767" filterUnits="userSpaceOnUse" color-interpolation-filters="sRGB">
<feFlood flood-opacity="0" result="BackgroundImageFix"/>
<feBlend mode="normal" in="SourceGraphic" in2="BackgroundImageFix" result="shape"/>
<feGaussianBlur stdDeviation="1.44" result="effect1_foregroundBlur_185_12"/>
</filter>
<filter id="filter2_f_185_12" x="248.801" y="208.274" width="41.6614" height="100.678" filterUnits="userSpaceOnUse" color-interpolation-filters="sRGB">
<feFlood flood-opacity="0" result="BackgroundImageFix"/>
<feBlend mode="normal" in="SourceGraphic" in2="BackgroundImageFix" result="shape"/>
<feGaussianBlur stdDeviation="1.44" result="effect1_foregroundBlur_185_12"/>
</filter>
<filter id="filter3_f_185_12" x="372.168" y="201.743" width="44.3035" height="34.791" filterUnits="userSpaceOnUse" color-interpolation-filters="sRGB">
<feFlood flood-opacity="0" result="BackgroundImageFix"/>
<feBlend mode="normal" in="SourceGraphic" in2="BackgroundImageFix" result="shape"/>
<feGaussianBlur stdDeviation="1.44" result="effect1_foregroundBlur_185_12"/>
</filter>
<filter id="filter4_f_185_12" x="367.389" y="222.028" width="75.0884" height="71.2648" filterUnits="userSpaceOnUse" color-interpolation-filters="sRGB">
<feFlood flood-opacity="0" result="BackgroundImageFix"/>
<feBlend mode="normal" in="SourceGraphic" in2="BackgroundImageFix" result="shape"/>
<feGaussianBlur stdDeviation="1.44" result="effect1_foregroundBlur_185_12"/>
</filter>
<filter id="filter5_i_185_12" x="422.782" y="184.395" width="78.3368" height="38.3406" filterUnits="userSpaceOnUse" color-interpolation-filters="sRGB">
<feFlood flood-opacity="0" result="BackgroundImageFix"/>
<feBlend mode="normal" in="SourceGraphic" in2="BackgroundImageFix" result="shape"/>
<feColorMatrix in="SourceAlpha" type="matrix" values="0 0 0 0 0 0 0 0 0 0 0 0 0 0 0 0 0 0 127 0" result="hardAlpha"/>
<feOffset dx="3.6" dy="-33.12"/>
<feGaussianBlur stdDeviation="1.44"/>
<feComposite in2="hardAlpha" operator="arithmetic" k2="-1" k3="1"/>
<feColorMatrix type="matrix" values="0 0 0 0 0 0 0 0 0 0 0 0 0 0 0 0 0 0 0.25 0"/>
<feBlend mode="normal" in2="shape" result="effect1_innerShadow_185_12"/>
</filter>
<filter id="filter6_d_185_12" x="431.234" y="176.175" width="28.5522" height="51.1499" filterUnits="userSpaceOnUse" color-interpolation-filters="sRGB">
<feFlood flood-opacity="0" result="BackgroundImageFix"/>
<feColorMatrix in="SourceAlpha" type="matrix" values="0 0 0 0 0 0 0 0 0 0 0 0 0 0 0 0 0 0 127 0" result="hardAlpha"/>
<feOffset dy="2.88"/>
<feGaussianBlur stdDeviation="1.44"/>
<feComposite in2="hardAlpha" operator="out"/>
<feColorMatrix type="matrix" values="0 0 0 0 0 0 0 0 0 0 0 0 0 0 0 0 0 0 0.25 0"/>
<feBlend mode="normal" in2="BackgroundImageFix" result="effect1_dropShadow_185_12"/>
<feBlend mode="normal" in="SourceGraphic" in2="effect1_dropShadow_185_12" result="shape"/>
</filter>
<filter id="filter7_f_185_12" x="462.13" y="292.042" width="53.759" height="59.655" filterUnits="userSpaceOnUse" color-interpolation-filters="sRGB">
<feFlood flood-opacity="0" result="BackgroundImageFix"/>
<feBlend mode="normal" in="SourceGraphic" in2="BackgroundImageFix" result="shape"/>
<feGaussianBlur stdDeviation="1.44" result="effect1_foregroundBlur_185_12"/>
</filter>
<filter id="filter8_i_185_12" x="309.854" y="285.522" width="73.2001" height="119.496" filterUnits="userSpaceOnUse" color-interpolation-filters="sRGB">
<feFlood flood-opacity="0" result="BackgroundImageFix"/>
<feBlend mode="normal" in="SourceGraphic" in2="BackgroundImageFix" result="shape"/>
<feColorMatrix in="SourceAlpha" type="matrix" values="0 0 0 0 0 0 0 0 0 0 0 0 0 0 0 0 0 0 127 0" result="hardAlpha"/>
<feOffset dx="2.88" dy="2.88"/>
<feGaussianBlur stdDeviation="1.44"/>
<feComposite in2="hardAlpha" operator="arithmetic" k2="-1" k3="1"/>
<feColorMatrix type="matrix" values="0 0 0 0 0 0 0 0 0 0 0 0 0 0 0 0 0 0 0.25 0"/>
<feBlend mode="normal" in2="shape" result="effect1_innerShadow_185_12"/>
</filter>
<filter id="filter9_f_185_12" x="373.607" y="265.75" width="57.0112" height="54.3878" filterUnits="userSpaceOnUse" color-interpolation-filters="sRGB">
<feFlood flood-opacity="0" result="BackgroundImageFix"/>
<feBlend mode="normal" in="SourceGraphic" in2="BackgroundImageFix" result="shape"/>
<feGaussianBlur stdDeviation="1.44" result="effect1_foregroundBlur_185_12"/>
</filter>
<filter id="filter10_i_185_12" x="423.13" y="169.196" width="106.745" height="106.746" filterUnits="userSpaceOnUse" color-interpolation-filters="sRGB">
<feFlood flood-opacity="0" result="BackgroundImageFix"/>
<feBlend mode="normal" in="SourceGraphic" in2="BackgroundImageFix" result="shape"/>
<feColorMatrix in="SourceAlpha" type="matrix" values="0 0 0 0 0 0 0 0 0 0 0 0 0 0 0 0 0 0 127 0" result="hardAlpha"/>
<feOffset dx="5.04" dy="-5.76"/>
<feGaussianBlur stdDeviation="1.44"/>
<feComposite in2="hardAlpha" operator="arithmetic" k2="-1" k3="1"/>
<feColorMatrix type="matrix" values="0 0 0 0 0 0 0 0 0 0 0 0 0 0 0 0 0 0 0.25 0"/>
<feBlend mode="normal" in2="shape" result="effect1_innerShadow_185_12"/>
</filter>
<filter id="filter11_dd_185_12" x="403.863" y="217.515" width="31.6377" height="56.8761" filterUnits="userSpaceOnUse" color-interpolation-filters="sRGB">
<feFlood flood-opacity="0" result="BackgroundImageFix"/>
<feColorMatrix in="SourceAlpha" type="matrix" values="0 0 0 0 0 0 0 0 0 0 0 0 0 0 0 0 0 0 127 0" result="hardAlpha"/>
<feOffset dy="2.88"/>
<feGaussianBlur stdDeviation="1.44"/>
<feComposite in2="hardAlpha" operator="out"/>
<feColorMatrix type="matrix" values="0 0 0 0 0 0 0 0 0 0 0 0 0 0 0 0 0 0 0.25 0"/>
<feBlend mode="normal" in2="BackgroundImageFix" result="effect1_dropShadow_185_12"/>
<feColorMatrix in="SourceAlpha" type="matrix" values="0 0 0 0 0 0 0 0 0 0 0 0 0 0 0 0 0 0 127 0" result="hardAlpha"/>
<feOffset dy="-2.16"/>
<feGaussianBlur stdDeviation="1.44"/>
<feComposite in2="hardAlpha" operator="out"/>
<feColorMatrix type="matrix" values="0 0 0 0 0 0 0 0 0 0 0 0 0 0 0 0 0 0 0.25 0"/>
<feBlend mode="normal" in2="effect1_dropShadow_185_12" result="effect2_dropShadow_185_12"/>
<feBlend mode="normal" in="SourceGraphic" in2="effect2_dropShadow_185_12" result="shape"/>
</filter>
<filter id="filter12_d_185_12" x="427.226" y="261.077" width="86.7771" height="60.4914" filterUnits="userSpaceOnUse" color-interpolation-filters="sRGB">
<feFlood flood-opacity="0" result="BackgroundImageFix"/>
<feColorMatrix in="SourceAlpha" type="matrix" values="0 0 0 0 0 0 0 0 0 0 0 0 0 0 0 0 0 0 127 0" result="hardAlpha"/>
<feOffset dy="2.88"/>
<feGaussianBlur stdDeviation="1.44"/>
<feComposite in2="hardAlpha" operator="out"/>
<feColorMatrix type="matrix" values="0 0 0 0 0 0 0 0 0 0 0 0 0 0 0 0 0 0 0.25 0"/>
<feBlend mode="normal" in2="BackgroundImageFix" result="effect1_dropShadow_185_12"/>
<feBlend mode="normal" in="SourceGraphic" in2="effect1_dropShadow_185_12" result="shape"/>
</filter>
<filter id="filter13_f_185_12" x="471.857" y="285.699" width="48.6982" height="36.1169" filterUnits="userSpaceOnUse" color-interpolation-filters="sRGB">
<feFlood flood-opacity="0" result="BackgroundImageFix"/>
<feBlend mode="normal" in="SourceGraphic" in2="BackgroundImageFix" result="shape"/>
<feGaussianBlur stdDeviation="1.44" result="effect1_foregroundBlur_185_12"/>
</filter>
<filter id="filter14_f_185_12" x="502.769" y="263.805" width="54.312" height="76.7734" filterUnits="userSpaceOnUse" color-interpolation-filters="sRGB">
<feFlood flood-opacity="0" result="BackgroundImageFix"/>
<feBlend mode="normal" in="SourceGraphic" in2="BackgroundImageFix" result="shape"/>
<feGaussianBlur stdDeviation="1.44" result="effect1_foregroundBlur_185_12"/>
</filter>
<filter id="filter15_d_185_12" x="500.983" y="224.472" width="41.5593" height="49.1818" filterUnits="userSpaceOnUse" color-interpolation-filters="sRGB">
<feFlood flood-opacity="0" result="BackgroundImageFix"/>
<feColorMatrix in="SourceAlpha" type="matrix" values="0 0 0 0 0 0 0 0 0 0 0 0 0 0 0 0 0 0 127 0" result="hardAlpha"/>
<feOffset dy="2.88"/>
<feGaussianBlur stdDeviation="1.44"/>
<feComposite in2="hardAlpha" operator="out"/>
<feColorMatrix type="matrix" values="0 0 0 0 0 0 0 0 0 0 0 0 0 0 0 0 0 0 0.25 0"/>
<feBlend mode="normal" in2="BackgroundImageFix" result="effect1_dropShadow_185_12"/>
<feBlend mode="normal" in="SourceGraphic" in2="effect1_dropShadow_185_12" result="shape"/>
</filter>
<filter id="filter16_d_185_12" x="432.75" y="168.997" width="106.753" height="114.47" filterUnits="userSpaceOnUse" color-interpolation-filters="sRGB">
<feFlood flood-opacity="0" result="BackgroundImageFix"/>
<feColorMatrix in="SourceAlpha" type="matrix" values="0 0 0 0 0 0 0 0 0 0 0 0 0 0 0 0 0 0 127 0" result="hardAlpha"/>
<feOffset dx="4" dy="4"/>
<feGaussianBlur stdDeviation="2"/>
<feComposite in2="hardAlpha" operator="out"/>
<feColorMatrix type="matrix" values="0 0 0 0 0 0 0 0 0 0 0 0 0 0 0 0 0 0 0.25 0"/>
<feBlend mode="normal" in2="BackgroundImageFix" result="effect1_dropShadow_185_12"/>
<feBlend mode="normal" in="SourceGraphic" in2="effect1_dropShadow_185_12" result="shape"/>
</filter>
<filter id="filter17_d_185_12" x="432.75" y="164.677" width="56.565" height="45.3885" filterUnits="userSpaceOnUse" color-interpolation-filters="sRGB">
<feFlood flood-opacity="0" result="BackgroundImageFix"/>
<feColorMatrix in="SourceAlpha" type="matrix" values="0 0 0 0 0 0 0 0 0 0 0 0 0 0 0 0 0 0 127 0" result="hardAlpha"/>
<feOffset dx="4.32" dy="-1.44"/>
<feGaussianBlur stdDeviation="1.44"/>
<feComposite in2="hardAlpha" operator="out"/>
<feColorMatrix type="matrix" values="0 0 0 0 0 0 0 0 0 0 0 0 0 0 0 0 0 0 0.25 0"/>
<feBlend mode="normal" in2="BackgroundImageFix" result="effect1_dropShadow_185_12"/>
<feBlend mode="normal" in="SourceGraphic" in2="effect1_dropShadow_185_12" result="shape"/>
</filter>
<filter id="filter18_d_185_12" x="464.282" y="191.362" width="48.3306" height="53.8155" filterUnits="userSpaceOnUse" color-interpolation-filters="sRGB">
<feFlood flood-opacity="0" result="BackgroundImageFix"/>
<feColorMatrix in="SourceAlpha" type="matrix" values="0 0 0 0 0 0 0 0 0 0 0 0 0 0 0 0 0 0 127 0" result="hardAlpha"/>
<feOffset dx="4.32" dy="-1.44"/>
<feGaussianBlur stdDeviation="1.44"/>
<feComposite in2="hardAlpha" operator="out"/>
<feColorMatrix type="matrix" values="0 0 0 0 0 0 0 0 0 0 0 0 0 0 0 0 0 0 0.25 0"/>
<feBlend mode="normal" in2="BackgroundImageFix" result="effect1_dropShadow_185_12"/>
<feBlend mode="normal" in="SourceGraphic" in2="effect1_dropShadow_185_12" result="shape"/>
</filter>
<filter id="filter19_d_185_12" x="411.333" y="150.691" width="120.017" height="117.833" filterUnits="userSpaceOnUse" color-interpolation-filters="sRGB">
<feFlood flood-opacity="0" result="BackgroundImageFix"/>
<feColorMatrix in="SourceAlpha" type="matrix" values="0 0 0 0 0 0 0 0 0 0 0 0 0 0 0 0 0 0 127 0" result="hardAlpha"/>
<feOffset dy="4.32"/>
<feGaussianBlur stdDeviation="1.44"/>
<feComposite in2="hardAlpha" operator="out"/>
<feColorMatrix type="matrix" values="0 0 0 0 0 0 0 0 0 0 0 0 0 0 0 0 0 0 0.25 0"/>
<feBlend mode="normal" in2="BackgroundImageFix" result="effect1_dropShadow_185_12"/>
<feBlend mode="normal" in="SourceGraphic" in2="effect1_dropShadow_185_12" result="shape"/>
</filter>
<filter id="filter20_d_185_12" x="410.613" y="150.691" width="83.1335" height="59.5746" filterUnits="userSpaceOnUse" color-interpolation-filters="sRGB">
<feFlood flood-opacity="0" result="BackgroundImageFix"/>
<feColorMatrix in="SourceAlpha" type="matrix" values="0 0 0 0 0 0 0 0 0 0 0 0 0 0 0 0 0 0 127 0" result="hardAlpha"/>
<feOffset dx="-0.72" dy="3.6"/>
<feGaussianBlur stdDeviation="1.44"/>
<feComposite in2="hardAlpha" operator="out"/>
<feColorMatrix type="matrix" values="0 0 0 0 0 0 0 0 0 0 0 0 0 0 0 0 0 0 0.25 0"/>
<feBlend mode="normal" in2="BackgroundImageFix" result="effect1_dropShadow_185_12"/>
<feBlend mode="normal" in="SourceGraphic" in2="effect1_dropShadow_185_12" result="shape"/>
</filter>
<clipPath id="clip0_185_12">
<rect width="651" height="490" fill="white"/>
</clipPath>
</defs>
</svg>
