<svg width="532" height="547" viewBox="0 0 532 547" fill="none" xmlns="http://www.w3.org/2000/svg">
<g clip-path="url(#clip0_160_759)">
<path d="M369.091 221.295L369.455 227.229L370.508 244.342L370.795 249.001L375.103 250.801L404.68 263.159L410.365 265.534L413.799 260.419L418.267 253.76L421.504 248.937L417.926 244.913L440.232 236.891L446.921 234.485L436.851 200.948L369.091 221.295Z" fill="white" stroke="white" stroke-width="15"/>
<path d="M302.833 173.786L289.823 207.176L287.193 213.928L293.85 216.79L382.151 254.736L390.049 258.131L392.341 249.845L399.683 223.293L401.273 217.542L396.029 214.699L313.394 169.914L305.92 165.863L302.833 173.786Z" fill="white" stroke="white" stroke-width="15"/>
<path d="M303.371 237.503L356.674 241.386L362.984 241.845L363.594 248.141L370.109 315.269L371.112 325.616L360.978 323.307L272.745 303.205L262.982 300.979L267.862 292.236L296.277 241.328L298.606 237.156L303.371 237.503Z" fill="white" stroke="white" stroke-width="15"/>
<mask id="path-4-outside-1_160_759" maskUnits="userSpaceOnUse" x="121.722" y="19.4063" width="135.868" height="106.224" fill="black">
<rect fill="white" x="121.722" y="19.4063" width="135.868" height="106.224"/>
<path d="M184.205 47.0955C208.834 41.6411 231.246 53.5217 236.466 77.0906C237.26 80.6749 237.608 84.3232 237.545 87.9521L151.423 107.026C150.427 104.682 149.631 102.218 149.062 99.6479C143.842 76.0787 159.576 52.5501 184.205 47.0955Z"/>
</mask>
<path d="M184.205 47.0955C208.834 41.6411 231.246 53.5217 236.466 77.0906C237.26 80.6749 237.608 84.3232 237.545 87.9521L151.423 107.026C150.427 104.682 149.631 102.218 149.062 99.6479C143.842 76.0787 159.576 52.5501 184.205 47.0955Z" fill="white"/>
<path d="M184.205 47.0955L180.962 32.4503L180.962 32.4503L184.205 47.0955ZM236.466 77.0906L251.111 73.8472L251.111 73.8471L236.466 77.0906ZM237.545 87.9521L240.789 102.597L252.338 100.039L252.543 88.2122L237.545 87.9521ZM151.423 107.026L137.618 112.894L142.495 124.367L154.666 121.671L151.423 107.026ZM149.062 99.6479L134.417 102.891L134.417 102.891L149.062 99.6479ZM184.205 47.0955L187.449 61.7406C205.588 57.7233 218.727 66.3649 221.821 80.3342L236.466 77.0906L251.111 73.8471C243.765 40.6784 212.08 25.5588 180.962 32.4503L184.205 47.0955ZM236.466 77.0906L221.821 80.3341C222.35 82.7248 222.591 85.1953 222.547 87.6921L237.545 87.9521L252.543 88.2122C252.625 83.4512 252.169 78.6249 251.111 73.8472L236.466 77.0906ZM237.545 87.9521L234.302 73.307L148.179 92.3806L151.423 107.026L154.666 121.671L240.789 102.597L237.545 87.9521ZM151.423 107.026L165.228 101.158C164.588 99.6528 164.075 98.0669 163.707 96.4044L149.062 99.6479L134.417 102.891C135.187 106.369 136.265 109.711 137.618 112.894L151.423 107.026ZM149.062 99.6479L163.707 96.4044C160.411 81.524 170.294 65.5399 187.449 61.7406L184.205 47.0955L180.962 32.4503C148.859 39.5603 127.272 70.6333 134.417 102.891L149.062 99.6479Z" fill="white" mask="url(#path-4-outside-1_160_759)"/>
<rect x="174.344" y="127.088" width="57.6421" height="47.6314" transform="rotate(-8.6702 174.344 127.088)" fill="white" stroke="white" stroke-width="15"/>
<path d="M183.953 148.568L214.291 150.006L221.101 141.352L227.537 133.173L233.261 141.866L311.37 260.51L314.666 265.516L310.509 269.835L305.106 264.634L310.509 269.836L310.507 269.837C310.506 269.838 310.505 269.84 310.503 269.842C310.499 269.846 310.494 269.851 310.487 269.858C310.473 269.872 310.453 269.893 310.428 269.92C310.376 269.973 310.3 270.051 310.203 270.152C310.007 270.353 309.723 270.647 309.358 271.02C308.629 271.766 307.581 272.832 306.294 274.124C303.723 276.703 300.184 280.195 296.327 283.832C292.484 287.457 288.258 291.289 284.324 294.518C280.593 297.581 276.478 300.651 273.008 302.174C269.668 303.641 265.388 304.414 261.487 304.883C257.407 305.372 252.995 305.609 248.997 305.714C244.98 305.82 241.274 305.795 238.578 305.744C237.227 305.719 236.122 305.688 235.349 305.662C234.963 305.65 234.659 305.638 234.449 305.63C234.344 305.626 234.262 305.622 234.205 305.619C234.176 305.618 234.154 305.617 234.137 305.616C234.13 305.616 234.123 305.616 234.119 305.616L234.11 305.615C234.109 305.613 234.115 305.481 234.445 298.123L234.109 305.615L229.08 305.389L227.384 300.65L176.538 158.587L172.761 148.038L183.953 148.568Z" fill="white" stroke="white" stroke-width="15"/>
<path d="M228.903 137.334L240.68 139.402L243.898 139.967L245.676 142.709L315.047 249.68L316.786 252.361L316.057 255.473L306.18 297.585L301.464 317.692L292.179 299.244L217.515 150.901L214.827 145.562L219.432 141.751L222.825 138.943L225.493 136.735L228.903 137.334Z" fill="white" stroke="white" stroke-width="15"/>
<path d="M177.517 151.498L159.519 180.054L157.718 182.911L158.664 186.153L192.477 302.106L194.054 307.515L199.689 307.507L272.124 307.393L282.959 307.376L279.127 297.24L222.672 147.924L220.521 142.234L214.51 143.164L182.715 148.086L179.338 148.608L177.517 151.498Z" fill="white" stroke="white" stroke-width="15"/>
<path d="M189.689 38.3425C204.949 36.7506 218.329 42.2832 227.73 52.7537C237.011 63.0908 242.064 77.8016 242.064 94.3435C242.064 109.206 241.527 123.182 236.585 134.173C231.212 146.121 221.161 153.626 205.079 156.791C173.137 163.076 137.704 144.688 133.778 104.647C129.846 64.5389 161.136 41.3214 189.689 38.3425Z" fill="white" stroke="white" stroke-width="15"/>
<path d="M199.326 124.58L219.374 119.709" stroke="white" stroke-width="15"/>
<path d="M115.737 286.478L119.443 291.127L131.836 306.68L134.747 310.332L132.755 314.554L116.892 348.184L114.263 353.757L108.287 352.26L99.2646 350.001L93.6299 348.59L93.5872 342.781L93.5767 341.498L66.4917 352.601L59.9144 355.298L43.5195 320.705L115.737 286.478Z" fill="white" stroke="white" stroke-width="15"/>
<path d="M135.67 193.65L172.825 212.29L179.303 215.539L176.277 222.124L129.74 323.432L126.151 331.244L118.898 326.63L91.937 309.474L86.9033 306.27L88.892 300.645L125.236 197.853L128.07 189.838L135.67 193.65Z" fill="white" stroke="white" stroke-width="15"/>
<mask id="path-14-outside-2_160_759" maskUnits="userSpaceOnUse" x="243.43" y="166.592" width="247.808" height="305.006" fill="black">
<rect fill="white" x="243.43" y="166.592" width="247.808" height="305.006"/>
<path d="M356.118 195.911C373.02 194.51 393.76 217.546 393.797 217.587L413.676 421.391C413.642 421.419 391.376 439.886 372.084 439.124C352.998 438.37 318.541 425.494 318.541 425.494L316.776 226.163C316.776 226.163 340.065 197.241 356.118 195.911Z"/>
</mask>
<path d="M356.118 195.911C373.02 194.51 393.76 217.546 393.797 217.587L413.676 421.391C413.642 421.419 391.376 439.886 372.084 439.124C352.998 438.37 318.541 425.494 318.541 425.494L316.776 226.163C316.776 226.163 340.065 197.241 356.118 195.911Z" fill="white"/>
<path d="M356.118 195.911L354.879 180.962L354.879 180.962L356.118 195.911ZM393.797 217.587L408.726 216.13L408.247 211.22L404.946 207.552L393.797 217.587ZM413.676 421.391L423.254 432.935L429.378 427.854L428.606 419.935L413.676 421.391ZM372.084 439.124L371.492 454.112L371.492 454.112L372.084 439.124ZM318.541 425.494L303.541 425.627L303.633 435.936L313.29 439.545L318.541 425.494ZM316.776 226.163L305.093 216.756L301.729 220.933L301.777 226.296L316.776 226.163ZM356.118 195.911L357.357 210.86C358.079 210.8 359.874 210.971 362.927 212.358C365.865 213.693 369.049 215.735 372.165 218.12C378.404 222.895 382.889 227.889 382.647 227.621L393.797 217.587L404.946 207.552C404.668 207.243 398.764 200.699 390.399 194.297C386.212 191.092 381.04 187.636 375.335 185.044C369.743 182.504 362.608 180.322 354.879 180.962L356.118 195.911ZM393.797 217.587L378.868 219.043L398.747 422.847L413.676 421.391L428.606 419.935L408.726 216.13L393.797 217.587ZM413.676 421.391L404.099 409.847C404.422 409.579 399.609 413.591 392.704 417.505C385.313 421.695 377.984 424.345 372.677 424.136L372.084 439.124L371.492 454.112C385.476 454.665 398.926 448.463 407.499 443.603C416.559 438.467 422.897 433.231 423.254 432.935L413.676 421.391ZM372.084 439.124L372.677 424.136C365.238 423.842 353.489 420.979 342.481 417.664C337.22 416.079 332.512 414.511 329.121 413.34C327.428 412.755 326.073 412.273 325.151 411.94C324.691 411.774 324.339 411.645 324.108 411.56C323.993 411.518 323.907 411.486 323.854 411.466C323.828 411.457 323.809 411.45 323.798 411.446C323.793 411.444 323.79 411.442 323.789 411.442C323.788 411.442 323.788 411.442 323.788 411.442C323.789 411.442 323.789 411.442 323.789 411.442C323.79 411.443 323.791 411.443 318.541 425.494C313.29 439.545 313.292 439.546 313.293 439.546C313.294 439.546 313.295 439.547 313.296 439.547C313.299 439.548 313.302 439.549 313.306 439.551C313.313 439.554 313.322 439.557 313.333 439.561C313.356 439.57 313.387 439.581 313.426 439.596C313.505 439.625 313.615 439.666 313.757 439.718C314.04 439.822 314.447 439.971 314.966 440.158C316.003 440.532 317.489 441.061 319.325 441.696C322.991 442.962 328.091 444.66 333.829 446.389C344.822 449.7 359.845 453.652 371.492 454.112L372.084 439.124ZM318.541 425.494L333.54 425.361L331.776 226.031L316.776 226.163L301.777 226.296L303.541 425.627L318.541 425.494ZM316.776 226.163C328.459 235.571 328.458 235.573 328.457 235.574C328.456 235.575 328.455 235.576 328.454 235.577C328.453 235.578 328.452 235.58 328.452 235.58C328.451 235.582 328.451 235.581 328.453 235.579C328.456 235.575 328.465 235.564 328.479 235.547C328.507 235.512 328.557 235.451 328.626 235.367C328.766 235.197 328.987 234.93 329.282 234.58C329.872 233.879 330.753 232.851 331.866 231.602C334.108 229.085 337.215 225.759 340.729 222.439C344.292 219.072 347.985 215.987 351.397 213.76C353.086 212.658 354.514 211.893 355.656 211.41C356.83 210.914 357.367 210.859 357.357 210.86L356.118 195.911L354.879 180.962C347.155 181.602 340.166 185.266 335 188.638C329.53 192.208 324.391 196.603 320.126 200.633C315.811 204.71 312.092 208.697 309.466 211.645C308.145 213.128 307.081 214.37 306.335 215.256C305.961 215.7 305.666 216.056 305.457 216.31C305.352 216.437 305.269 216.539 305.208 216.614C305.177 216.651 305.153 216.682 305.133 216.706C305.124 216.718 305.116 216.728 305.109 216.736C305.105 216.74 305.102 216.744 305.1 216.747C305.098 216.749 305.097 216.751 305.096 216.752C305.094 216.754 305.093 216.756 316.776 226.163Z" fill="white" mask="url(#path-14-outside-2_160_759)"/>
<mask id="mask0_160_759" style="mask-type:alpha" maskUnits="userSpaceOnUse" x="317" y="406" width="151" height="93">
<path d="M404.263 425.217L410.116 426.167L409.443 429.35C410.823 430.471 412.529 431.867 414.44 433.466C419.447 437.654 425.956 443.279 431.788 448.904C434.383 451.406 436.167 452.549 438.025 453.34C440.137 454.24 442.675 454.843 447.364 455.835C452.65 456.952 455.915 460.784 457.598 464.409C459.273 468.019 459.802 472.169 459.394 475.962C458.99 479.703 457.565 483.99 454.33 487.211C450.767 490.756 445.782 492.213 440.353 491.065L383.634 479.075C379.303 478.204 373.445 477.025 367.097 475.742C354.115 473.119 339.039 470.054 330.788 468.309L325.048 467.096L324.844 461.233C324.531 452.256 327.437 441.603 330.043 433.832C331.391 429.81 332.752 426.293 333.777 423.779C334.29 422.52 334.722 421.505 335.029 420.797C335.183 420.443 335.306 420.165 335.392 419.971C335.436 419.874 335.47 419.798 335.494 419.744C335.506 419.717 335.516 419.695 335.523 419.68C335.527 419.672 335.53 419.665 335.532 419.66C335.533 419.657 335.535 419.655 335.536 419.653C335.536 419.652 335.536 419.651 335.536 419.65C335.537 419.649 335.571 419.664 342.145 422.66L335.537 419.649L337.912 414.437L343.565 415.356L398.056 424.208L399.968 421.844L404.263 425.217Z" fill="#5DAEC4" stroke="white" stroke-width="15"/>
</mask>
<g mask="url(#mask0_160_759)">
<path d="M403.588 424.686L410.498 424.361L409.443 429.35C410.823 430.471 412.53 431.867 414.441 433.466C419.448 437.654 425.956 443.279 431.787 448.903C434.383 451.406 436.166 452.548 438.025 453.34C440.136 454.24 442.675 454.843 447.364 455.835C452.65 456.952 455.916 460.784 457.598 464.409C459.274 468.019 459.802 472.169 459.393 475.962C458.99 479.702 457.566 483.99 454.33 487.211C450.768 490.757 445.782 492.213 440.353 491.065L381.165 478.553L381.117 478.403C377.302 477.573 372.653 476.562 367.688 475.485C355.044 472.742 340.369 469.57 332.18 467.839L326.441 466.626L326.236 460.763C325.926 451.893 328.534 441.467 330.904 433.821C332.127 429.879 333.363 426.439 334.295 423.981C334.762 422.75 335.154 421.759 335.434 421.068C335.574 420.722 335.685 420.451 335.764 420.261C335.803 420.167 335.834 420.092 335.856 420.039C335.867 420.013 335.877 419.992 335.883 419.976C335.887 419.969 335.889 419.962 335.891 419.957C335.892 419.955 335.893 419.952 335.894 419.951C335.894 419.95 335.895 419.948 335.895 419.948C335.901 419.949 336.098 420.031 342.798 422.88L335.896 419.946L338.811 413.091L345.685 415.959L345.684 415.959C345.685 415.96 345.686 415.96 345.688 415.96C345.692 415.962 345.701 415.966 345.712 415.97C345.736 415.98 345.775 415.996 345.827 416.018C345.932 416.061 346.092 416.126 346.303 416.211C346.726 416.382 347.35 416.632 348.139 416.94C349.719 417.555 351.947 418.396 354.518 419.293C359.76 421.123 366.058 423.052 371.177 423.896C376.396 424.756 383.682 425.014 389.96 425.026C392.911 425.032 395.538 424.983 397.471 424.931L399.969 421.844L403.588 424.686Z" fill="white" stroke="white" stroke-width="15"/>
<path d="M429.458 457.45C427.544 464.702 427.544 464.702 427.543 464.702L427.542 464.701L427.527 464.698C427.518 464.695 427.506 464.692 427.491 464.688C427.46 464.68 427.418 464.669 427.365 464.655C427.258 464.626 427.105 464.584 426.91 464.53C426.521 464.424 425.965 464.268 425.278 464.071C423.908 463.676 422.003 463.107 419.853 462.408C415.674 461.048 410.118 459.052 405.82 456.738C401.68 454.51 397.108 451.128 393.782 448.512C392.071 447.166 390.594 445.947 389.543 445.064C389.017 444.621 388.595 444.26 388.301 444.006C388.154 443.88 388.038 443.779 387.957 443.709C387.917 443.674 387.885 443.646 387.862 443.626C387.851 443.616 387.842 443.608 387.835 443.602C387.832 443.6 387.829 443.598 387.826 443.596C387.825 443.595 387.825 443.594 387.824 443.593L387.823 443.592C387.823 443.592 387.822 443.591 392.773 437.957L387.822 443.591L383.387 439.694L386.134 434.468L390.87 425.457L393.509 420.435L442.748 430.844L435.165 466.713L427.544 464.702L429.458 457.45Z" fill="white" stroke="white" stroke-width="15"/>
<rect x="325.625" y="442.295" width="139.965" height="32.0856" transform="rotate(11.9367 325.625 442.295)" fill="white" stroke="white" stroke-width="15"/>
</g>
<circle cx="398.687" cy="449.584" r="10.6648" transform="rotate(11.9367 398.687 449.584)" fill="white" stroke="white" stroke-width="15"/>
<circle cx="390.585" cy="441.402" r="10.6648" transform="rotate(11.9367 390.585 441.402)" fill="white" stroke="white" stroke-width="15"/>
<circle cx="409.118" cy="455.598" r="10.6648" transform="rotate(11.9367 409.118 455.598)" fill="white" stroke="white" stroke-width="15"/>
<circle cx="420.58" cy="459.704" r="10.6648" transform="rotate(11.9367 420.58 459.704)" fill="white" stroke="white" stroke-width="15"/>
<path d="M401.286 417.823C408.655 417.53 414.298 424.304 412.678 431.499L411.986 434.573C411.138 438.342 408.409 441.409 404.765 442.692L395.644 445.902C388.459 448.43 380.896 443.217 380.704 435.602L380.554 429.714L380.554 429.143C380.7 423.268 385.388 418.456 391.325 418.219L401.286 417.823Z" fill="white" stroke="white" stroke-width="15"/>
<path d="M389.635 441.663L404.87 435.29L405.711 436.093L401.356 446.676L411.378 440.708L412.42 441.699L410.929 452.123L417.672 446.227L419.1 447.443L421.346 457.271L425.875 453.505" stroke="white" stroke-width="15"/>
<mask id="path-26-outside-3_160_759" maskUnits="userSpaceOnUse" x="144.566" y="149.545" width="278.959" height="328.398" fill="black">
<rect fill="white" x="144.566" y="149.545" width="278.959" height="328.398"/>
<path d="M250.296 210.515C251.066 209.218 263.081 189.292 276.045 187.935C290.758 186.396 307.679 208.777 307.679 208.777L393.389 375.514C393.321 375.628 375.365 405.716 361.564 414.601C347.578 423.606 314.673 421.333 314.673 421.333L284.354 322.142C278.39 331.46 268.578 338.873 252.67 340.844C201.019 347.242 201.424 299.896 201.425 299.789L250.292 210.505L250.296 210.515Z"/>
</mask>
<path d="M250.296 210.515C251.066 209.218 263.081 189.292 276.045 187.935C290.758 186.396 307.679 208.777 307.679 208.777L393.389 375.514C393.321 375.628 375.365 405.716 361.564 414.601C347.578 423.606 314.673 421.333 314.673 421.333L284.354 322.142C278.39 331.46 268.578 338.873 252.67 340.844C201.019 347.242 201.424 299.896 201.425 299.789L250.292 210.505L250.296 210.515Z" fill="white"/>
<path d="M250.296 210.515L236.215 215.686L247.096 245.316L263.198 218.167L250.296 210.515ZM276.045 187.935L274.484 173.017L274.484 173.017L276.045 187.935ZM307.679 208.777L321.02 201.92L320.427 200.766L319.644 199.731L307.679 208.777ZM393.389 375.514L406.271 383.199L410.532 376.055L406.729 368.657L393.389 375.514ZM361.564 414.601L369.684 427.213L369.684 427.213L361.564 414.601ZM314.673 421.333L300.328 425.718L303.345 435.586L313.64 436.297L314.673 421.333ZM284.354 322.142L298.699 317.757L289.213 286.725L271.72 314.055L284.354 322.142ZM252.67 340.844L254.514 355.73L254.514 355.73L252.67 340.844ZM201.425 299.789L188.267 292.588L186.461 295.889L186.426 299.652L201.425 299.789ZM250.292 210.505L264.373 205.335L252.989 174.335L237.134 203.304L250.292 210.505ZM250.296 210.515L263.198 218.167C263.376 217.866 266.009 213.489 269.811 209.21C271.707 207.076 273.586 205.319 275.279 204.13C277.056 202.883 277.813 202.832 277.606 202.854L276.045 187.935L274.484 173.017C267.794 173.717 262.189 176.665 258.042 179.576C253.812 182.546 250.208 186.105 247.384 189.285C241.745 195.632 237.986 201.867 237.394 202.864L250.296 210.515ZM276.045 187.935L277.606 202.854C277.297 202.886 278.092 202.727 280.329 203.879C282.465 204.978 284.907 206.758 287.406 208.983C289.846 211.155 291.979 213.426 293.52 215.186C294.279 216.053 294.868 216.765 295.25 217.238C295.44 217.474 295.577 217.648 295.656 217.75C295.696 217.8 295.721 217.833 295.731 217.845C295.736 217.852 295.737 217.853 295.734 217.85C295.732 217.848 295.73 217.845 295.727 217.84C295.725 217.838 295.723 217.836 295.721 217.833C295.72 217.831 295.718 217.829 295.718 217.828C295.716 217.826 295.714 217.823 307.679 208.777C319.644 199.731 319.642 199.728 319.64 199.726C319.639 199.725 319.637 199.722 319.636 199.72C319.632 199.715 319.629 199.711 319.625 199.706C319.618 199.696 319.609 199.685 319.6 199.672C319.581 199.647 319.557 199.616 319.53 199.581C319.474 199.509 319.403 199.416 319.315 199.303C319.139 199.077 318.898 198.772 318.597 198.399C317.996 197.654 317.147 196.63 316.091 195.423C313.999 193.034 310.982 189.806 307.353 186.575C303.783 183.397 299.236 179.87 294.061 177.206C288.987 174.594 282.149 172.215 274.484 173.017L276.045 187.935ZM307.679 208.777L294.338 215.635L380.048 382.372L393.389 375.514L406.729 368.657L321.02 201.92L307.679 208.777ZM393.389 375.514L380.506 367.83C380.572 367.72 376.315 374.859 370.451 383.007C364.111 391.818 357.647 399.283 353.444 401.989L361.564 414.601L369.684 427.213C379.282 421.034 388.697 409.013 394.801 400.53C401.383 391.384 406.138 383.422 406.271 383.199L393.389 375.514ZM361.564 414.601L353.444 401.989C352.177 402.805 349.549 403.877 345.276 404.768C341.203 405.617 336.579 406.113 332.037 406.367C327.538 406.619 323.392 406.617 320.362 406.551C318.855 406.518 317.647 406.469 316.835 406.43C316.429 406.411 316.124 406.394 315.931 406.382C315.835 406.377 315.767 406.373 315.729 406.37C315.711 406.369 315.699 406.368 315.695 406.368C315.693 406.368 315.693 406.368 315.695 406.368C315.696 406.368 315.698 406.368 315.7 406.368C315.701 406.368 315.702 406.368 315.703 406.368C315.705 406.369 315.707 406.369 314.673 421.333C313.64 436.297 313.642 436.298 313.644 436.298C313.645 436.298 313.648 436.298 313.65 436.298C313.654 436.298 313.658 436.299 313.663 436.299C313.673 436.3 313.685 436.3 313.699 436.301C313.727 436.303 313.763 436.306 313.807 436.308C313.894 436.314 314.013 436.321 314.161 436.33C314.457 436.348 314.873 436.371 315.394 436.396C316.436 436.446 317.908 436.504 319.705 436.544C323.281 436.622 328.235 436.627 333.711 436.321C339.143 436.017 345.367 435.394 351.398 434.136C357.228 432.921 363.958 430.9 369.684 427.213L361.564 414.601ZM314.673 421.333L329.018 416.948L298.699 317.757L284.354 322.142L270.009 326.526L300.328 425.718L314.673 421.333ZM284.354 322.142L271.72 314.055C268.169 319.603 262.318 324.534 250.826 325.958L252.67 340.844L254.514 355.73C274.838 353.213 288.61 343.317 296.988 330.228L284.354 322.142ZM252.67 340.844L250.826 325.958C240.183 327.276 233.57 325.681 229.473 323.674C225.401 321.679 222.653 318.707 220.681 315.278C216.374 307.788 216.431 299.251 216.425 299.927L201.425 299.789L186.426 299.652C186.419 300.434 186.273 315.624 194.675 330.234C199.058 337.855 205.893 345.527 216.272 350.613C226.627 355.687 239.332 357.611 254.514 355.73L252.67 340.844ZM201.425 299.789L214.584 306.991L263.45 217.707L250.292 210.505L237.134 203.304L188.267 292.588L201.425 299.789ZM250.292 210.505L236.212 215.676L236.215 215.686L250.296 210.515L264.377 205.345L264.373 205.335L250.292 210.505Z" fill="white" mask="url(#path-26-outside-3_160_759)"/>
<mask id="mask1_160_759" style="mask-type:alpha" maskUnits="userSpaceOnUse" x="309" y="345" width="145" height="126">
<path d="M366.712 372.77L370.974 368.648L373.123 371.091C374.846 370.657 376.986 370.124 379.41 369.549C385.761 368.042 394.162 366.191 402.158 364.882C405.716 364.3 407.698 363.554 409.445 362.538C411.428 361.384 413.43 359.711 417.03 356.547C421.087 352.979 426.111 352.655 430.023 353.475C433.918 354.291 437.56 356.35 440.355 358.947C443.111 361.507 445.695 365.214 446.34 369.733C447.05 374.71 445.235 379.575 441.068 383.239L397.53 421.519C394.242 424.469 389.793 428.458 384.967 432.778C375.1 441.611 363.625 451.858 357.292 457.427L352.885 461.301L348.065 457.957C340.684 452.838 333.886 444.137 329.217 437.4C326.801 433.914 324.796 430.719 323.395 428.394C322.693 427.229 322.138 426.276 321.754 425.607C321.562 425.272 321.414 425.007 321.31 424.822C321.258 424.729 321.218 424.656 321.189 424.604C321.175 424.578 321.163 424.558 321.154 424.543C321.15 424.535 321.146 424.528 321.144 424.523C321.142 424.521 321.142 424.519 321.141 424.517C321.14 424.516 321.139 424.515 321.139 424.515C321.138 424.514 321.17 424.495 327.504 421.018L321.138 424.513L318.382 419.492L322.5 415.512L362.19 377.141L361.439 374.194L366.712 372.77Z" fill="#5DAEC4" stroke="white" stroke-width="15"/>
</mask>
<g mask="url(#mask1_160_759)">
<path d="M365.882 372.994L369.755 367.262L373.123 371.092C374.846 370.657 376.986 370.124 379.411 369.549C385.761 368.042 394.162 366.192 402.158 364.883C405.716 364.3 407.698 363.554 409.445 362.538C411.428 361.384 413.43 359.711 417.029 356.547C421.087 352.979 426.112 352.654 430.023 353.474C433.918 354.291 437.56 356.35 440.355 358.947C443.111 361.508 445.695 365.213 446.34 369.733C447.051 374.709 445.235 379.576 441.068 383.24L395.635 423.185L395.486 423.134C392.54 425.694 388.949 428.815 385.115 432.15C375.353 440.642 364.033 450.503 357.747 456.03L353.342 459.904L348.521 456.561C341.228 451.503 334.433 443.177 329.724 436.703C327.296 433.366 325.279 430.317 323.867 428.1C323.16 426.99 322.6 426.082 322.214 425.445C322.02 425.126 321.87 424.874 321.765 424.698C321.713 424.61 321.671 424.541 321.642 424.491C321.627 424.466 321.616 424.446 321.608 424.432C321.603 424.424 321.6 424.418 321.597 424.414C321.596 424.411 321.594 424.409 321.593 424.408C321.593 424.407 321.592 424.405 321.592 424.405C321.597 424.401 321.78 424.293 328.071 420.627L321.591 424.403L317.842 417.967L324.251 414.174L324.251 414.175C324.252 414.175 324.253 414.173 324.254 414.172C324.259 414.17 324.266 414.165 324.277 414.159C324.299 414.145 324.335 414.124 324.384 414.095C324.481 414.037 324.629 413.947 324.824 413.829C325.213 413.593 325.787 413.242 326.505 412.794C327.944 411.896 329.95 410.614 332.208 409.09C336.809 405.984 342.123 402.091 345.861 398.494C349.672 394.826 354.238 389.141 358.003 384.118C359.772 381.757 361.304 379.622 362.42 378.042L361.44 374.194L365.882 372.994Z" fill="white" stroke="white" stroke-width="15"/>
<path d="M407.613 371.862C412.28 377.733 412.28 377.734 412.279 377.734L412.277 377.735L412.266 377.744C412.259 377.75 412.248 377.758 412.236 377.768C412.212 377.787 412.178 377.814 412.134 377.849C412.047 377.917 411.922 378.015 411.763 378.139C411.444 378.387 410.987 378.74 410.418 379.171C409.282 380.034 407.686 381.22 405.84 382.525C402.251 385.06 397.327 388.318 392.902 390.378C388.64 392.363 383.195 394.003 379.109 395.104C377.007 395.67 375.147 396.124 373.81 396.438C373.141 396.595 372.599 396.717 372.22 396.801C372.03 396.843 371.881 396.876 371.776 396.899C371.724 396.91 371.682 396.919 371.653 396.925C371.638 396.928 371.626 396.931 371.618 396.933C371.613 396.934 371.61 396.935 371.607 396.936C371.606 396.936 371.604 396.936 371.604 396.936L371.602 396.936C371.602 396.936 371.6 396.936 370.047 389.599L371.601 396.936L365.825 398.159L363.28 392.832L358.892 383.647L356.447 378.527L394.243 345.296L418.45 372.829L412.28 377.734L407.613 371.862Z" fill="white" stroke="white" stroke-width="15"/>
<rect x="333.356" y="446.003" width="139.965" height="32.0856" transform="rotate(-41.3227 333.356 446.003)" fill="white" stroke="white" stroke-width="15"/>
</g>
<circle cx="382.903" cy="391.814" r="10.6648" transform="rotate(-41.3227 382.903 391.814)" fill="white" stroke="white" stroke-width="15"/>
<circle cx="371.499" cy="393.412" r="10.6648" transform="rotate(-41.3227 371.499 393.412)" fill="white" stroke="white" stroke-width="15"/>
<circle cx="393.962" cy="387.053" r="10.6648" transform="rotate(-41.3227 393.962 387.053)" fill="white" stroke="white" stroke-width="15"/>
<circle cx="404.109" cy="380.324" r="10.6648" transform="rotate(-41.3227 404.109 380.324)" fill="white" stroke="white" stroke-width="15"/>
<path d="M359.006 370.733C363.179 364.652 371.983 364.183 376.78 369.785L378.829 372.178C381.342 375.113 382.168 379.134 381.016 382.821L378.132 392.05C375.86 399.321 367.158 402.263 360.941 397.862L356.133 394.46L355.675 394.118C351.055 390.487 350.003 383.852 353.365 378.953L359.006 370.733Z" fill="white" stroke="white" stroke-width="15"/>
<path d="M371.14 394.33L375.147 378.309L376.294 378.116L382.169 387.936L383.382 376.336L384.799 376.093L392.26 383.524L391.569 374.593L393.398 374.176L402.617 378.255L402.309 372.373" stroke="white" stroke-width="15"/>
<rect x="126.187" y="103.131" width="35.3447" height="71.3846" transform="rotate(-1.5973 126.187 103.131)" fill="white"/>
<rect x="259.816" y="276.082" width="37.1331" height="74.7461" transform="rotate(-1.5973 259.816 276.082)" fill="white"/>
<path d="M130.678 157.041L167.543 167.121V206.014L122.608 182.844L130.678 157.041Z" fill="white"/>
<path d="M244.705 98.632L252.255 81.7938L260.597 129.715L302.039 155.227L306.863 172.231L244.705 140.007V98.632Z" fill="white"/>
<path d="M431.825 210.288L376.941 226.769L377.994 243.88L407.571 256.238L412.039 249.581L404.95 241.61L437.694 229.833L431.825 210.288Z" fill="#726AC9"/>
<path d="M309.821 176.509L296.811 209.899L385.112 247.846L392.455 221.293L309.821 176.509Z" fill="#D9D9D9"/>
<path d="M302.826 244.983L356.129 248.865L362.644 315.994L274.411 295.892L302.826 244.983Z" fill="#342D83"/>
<path d="M255.753 136.786L226.651 146.058L225.956 186.351L282.773 220.367C282.773 220.367 310.862 201.262 312.753 194.022C314.33 187.984 310.719 172.067 310.719 172.067L255.753 136.786Z" fill="#5DAEC4"/>
<mask id="mask2_160_759" style="mask-type:alpha" maskUnits="userSpaceOnUse" x="145" y="67" width="92" height="122">
<path d="M145.551 111.834L233.46 67.7915L236.836 164.199L155.048 188.585L145.551 111.834Z" fill="#66A3FF"/>
</mask>
<g mask="url(#mask2_160_759)">
<path d="M164.8 73.9495L251.869 82.3346L264.769 161L133.494 166.425L164.8 73.9495Z" fill="#66A3FF"/>
<path d="M118.903 97.7769L232.06 44.0907L253.024 132.306L142.628 145.203L118.903 97.7769Z" fill="#3385FF"/>
</g>
<path d="M184.205 47.0955C208.834 41.6411 231.246 53.5217 236.466 77.0906C237.26 80.6749 237.608 84.3232 237.545 87.9521L151.423 107.026C150.427 104.682 149.631 102.218 149.062 99.6479C143.842 76.0787 159.576 52.5501 184.205 47.0955Z" fill="#66A3FF"/>
<rect x="182.889" y="133.371" width="42.6421" height="32.6314" transform="rotate(-8.6702 182.889 133.371)" fill="#554F97"/>
<path d="M183.599 156.06L217.797 157.681L226.996 145.99L305.106 264.634C305.106 264.634 279.677 291.056 269.994 295.307C260.875 299.31 234.445 298.123 234.445 298.123L183.599 156.06Z" fill="#D9D9D9"/>
<path d="M227.607 144.721L239.383 146.789L308.755 253.761L298.878 295.872L224.214 147.529L227.607 144.721Z" fill="#5DAEC4"/>
<path d="M215.657 150.576L183.861 155.497L165.864 184.053L199.677 300.007L272.112 299.893L215.657 150.576Z" fill="#5DAEC4"/>
<g filter="url(#filter0_d_160_759)">
<path d="M238.815 77.3693C235.935 70.9828 228.908 60.5953 228.908 60.5953L235.83 147.374C235.83 147.374 244.192 108.453 243.374 101.456C242.771 96.2927 241.432 83.1701 238.815 77.3693Z" fill="#66A3FF"/>
</g>
<mask id="mask3_160_759" style="mask-type:alpha" maskUnits="userSpaceOnUse" x="149" y="56" width="90" height="91">
<circle cx="193.746" cy="101.485" r="44.7133" transform="rotate(-11.1319 193.746 101.485)" fill="#726AC9"/>
</mask>
<g mask="url(#mask3_160_759)">
<g filter="url(#filter1_i_160_759)">
<circle cx="193.746" cy="101.485" r="44.7133" transform="rotate(-11.1319 193.746 101.485)" fill="#726AC9"/>
</g>
<rect x="139.55" y="63.1725" width="91.7366" height="56.7318" transform="rotate(-12.2047 139.55 63.1725)" fill="#554F97"/>
</g>
<path d="M199.326 124.58L219.374 119.709" stroke="black" stroke-width="1.86"/>
<path d="M162.349 58.2723C171.813 50.0727 180.996 46.9188 193.031 45.7368C194.096 45.6322 195.067 45.6414 195.952 45.7421C198.384 45.8498 205.084 46.3618 211.771 48.8213C218.631 51.3449 226.625 56.8994 229.36 61.2847C238.971 76.7003 238.907 93.3361 238.906 93.4292L211.071 96.7248L206.237 81.3885L207.003 97.3166L145.338 113.6C145.338 113.6 144.799 96.5046 147.517 85.0224C150.236 73.5402 154.684 64.9139 162.349 58.2723Z" fill="#66A3FF"/>
<g filter="url(#filter2_d_160_759)">
<path d="M145.384 103.322C145.71 96.3234 147.005 86.9034 147.005 86.9034L172.377 159.411C172.377 159.411 146.219 134.148 145.298 113.278C145.152 109.963 145.23 106.637 145.384 103.322Z" fill="#66A3FF"/>
</g>
<path d="M53.5089 324.271L113.577 295.802L125.971 311.355L110.109 344.985L101.087 342.726L100.995 330.352L63.6471 345.662L53.5089 324.271Z" fill="#726AC9"/>
<path d="M132.307 200.354L169.462 218.993L122.924 320.302L95.9631 303.146L132.307 200.354Z" fill="#D9D9D9"/>
<path d="M139.855 165.56L188.206 155.739L194.956 183.123L174.729 246.18C174.729 246.18 141.018 250.37 134.819 246.18C129.648 242.685 121.855 228.345 121.855 228.345L139.855 165.56Z" fill="#5DAEC4"/>
<path d="M356.118 195.911C373.035 194.509 393.797 217.587 393.797 217.587L413.677 421.39C413.677 421.39 391.39 439.887 372.084 439.124C352.998 438.37 318.541 425.494 318.541 425.494L316.776 226.163C316.776 226.163 340.065 197.242 356.118 195.911Z" fill="#342D83"/>
<mask id="mask4_160_759" style="mask-type:alpha" maskUnits="userSpaceOnUse" x="332" y="422" width="121" height="62">
<path d="M342.362 422.758L401.152 432.309L392.506 473.206C392.506 473.206 348.763 464.443 332.339 460.971C331.814 445.907 342.362 422.758 342.362 422.758Z" fill="#5DAEC4"/>
<path d="M401.152 432.309C401.152 432.309 415.281 443.404 426.581 454.302C432.734 460.236 436.696 461.245 445.812 463.173C454.929 465.1 454.33 486.354 441.904 483.727C429.478 481.1 403.39 475.585 386.966 472.113C381.828 456.211 401.152 432.309 401.152 432.309Z" fill="#5DAEC4"/>
</mask>
<g mask="url(#mask4_160_759)">
<path d="M342.798 422.881C342.798 422.881 358.409 429.392 369.956 431.296C381.667 433.226 401.152 432.309 401.152 432.309L392.506 473.206C392.506 473.206 350.155 463.974 333.731 460.502C333.206 445.437 342.798 422.881 342.798 422.881Z" fill="#66A3FF"/>
<path d="M401.152 432.309C401.152 432.309 415.281 443.404 426.581 454.302C432.734 460.236 436.696 461.245 445.813 463.173C454.929 465.1 454.33 486.354 441.904 483.727C429.478 481.1 403.39 475.585 386.966 472.113C381.828 456.211 401.152 432.309 401.152 432.309Z" fill="#66A3FF"/>
<path d="M397.508 428.946L433.859 436.631L429.458 457.45C429.458 457.45 416.724 454.09 409.374 450.134C402.294 446.323 392.772 437.957 392.772 437.957L397.508 428.946Z" fill="#266589"/>
<rect x="331.411" y="451.184" width="124.965" height="17.0856" transform="rotate(11.9367 331.411 451.184)" fill="#D9D9D9"/>
</g>
<circle cx="398.687" cy="449.584" r="3.16478" transform="rotate(11.9367 398.687 449.584)" fill="#B4B4B4"/>
<circle cx="390.585" cy="441.402" r="3.16478" transform="rotate(11.9367 390.585 441.402)" fill="#B4B4B4"/>
<circle cx="409.118" cy="455.598" r="3.16478" transform="rotate(11.9367 409.118 455.598)" fill="#B4B4B4"/>
<circle cx="420.58" cy="459.704" r="3.16478" transform="rotate(11.9367 420.58 459.704)" fill="#B4B4B4"/>
<path d="M388.052 429.524C388.001 427.492 389.591 425.794 391.623 425.713L401.584 425.317C404.028 425.22 405.899 427.466 405.361 429.851L404.669 432.925C404.388 434.175 403.484 435.192 402.275 435.617L393.155 438.827C390.772 439.665 388.265 437.937 388.201 435.412L388.052 429.524Z" fill="#66A3FF"/>
<path d="M389.635 441.662L404.87 435.289L405.711 436.093L401.356 446.676L411.378 440.708L412.42 441.699L410.929 452.123L417.672 446.227L419.1 447.443L421.346 457.271L425.875 453.505" stroke="#D9D9D9" stroke-width="3.1"/>
<g filter="url(#filter3_d_160_759)">
<path d="M250.295 210.516C251.06 209.226 263.078 189.292 276.045 187.936C290.733 186.399 307.621 208.7 307.679 208.777L393.388 375.514C393.374 375.537 375.385 405.702 361.564 414.601C347.578 423.606 305.628 417.107 305.628 417.107L281.289 326.331C275.195 333.63 266.108 339.18 252.67 340.844C200.961 347.25 201.425 299.789 201.425 299.789L250.292 210.506L250.295 210.516Z" fill="#342D83"/>
</g>
<path d="M342.31 420.283L364.117 409.276L411.292 402.262L353.215 457.601L336.431 442.297L342.31 420.283Z" fill="black" fill-opacity="0.22"/>
<mask id="mask5_160_759" style="mask-type:alpha" maskUnits="userSpaceOnUse" x="327" y="360" width="112" height="92">
<path d="M327.712 420.904L370.533 379.505L398.135 410.898C398.135 410.898 364.946 440.71 352.339 451.794C339.953 443.204 327.712 420.904 327.712 420.904Z" fill="#5DAEC4"/>
<path d="M370.533 379.505C370.533 379.505 387.876 374.82 403.369 372.284C411.806 370.903 414.984 368.332 421.982 362.179C428.98 356.026 445.653 369.22 436.115 377.607C426.577 385.993 406.552 403.6 393.945 414.684C378.128 409.288 370.533 379.505 370.533 379.505Z" fill="#5DAEC4"/>
</mask>
<g mask="url(#mask5_160_759)">
<path d="M328.071 420.628C328.071 420.628 342.628 412.013 351.061 403.898C359.613 395.668 370.533 379.506 370.533 379.506L398.135 410.898C398.135 410.898 365.403 439.313 352.795 450.398C340.409 441.807 328.071 420.628 328.071 420.628Z" fill="#66A3FF"/>
<path d="M370.533 379.506C370.533 379.506 387.877 374.82 403.369 372.284C411.806 370.903 414.984 368.332 421.982 362.179C428.98 356.026 445.653 369.221 436.115 377.607C426.577 385.993 406.552 403.6 393.945 414.684C378.128 409.288 370.533 379.506 370.533 379.506Z" fill="#66A3FF"/>
<path d="M365.659 380.414L393.562 355.881L407.613 371.862C407.613 371.862 397.304 380.056 389.736 383.58C382.447 386.974 370.047 389.599 370.047 389.599L365.659 380.414Z" fill="#266589"/>
<rect x="343.941" y="446.683" width="124.965" height="17.0856" transform="rotate(-41.3227 343.941 446.683)" fill="#D9D9D9"/>
</g>
<circle cx="382.903" cy="391.814" r="3.16478" transform="rotate(-41.3227 382.903 391.814)" fill="#B4B4B4"/>
<circle cx="371.499" cy="393.412" r="3.16478" transform="rotate(-41.3227 371.499 393.412)" fill="#B4B4B4"/>
<circle cx="393.962" cy="387.053" r="3.16478" transform="rotate(-41.3227 393.962 387.053)" fill="#B4B4B4"/>
<circle cx="404.108" cy="380.324" r="3.16478" transform="rotate(-41.3227 404.108 380.324)" fill="#B4B4B4"/>
<path d="M360.466 388.338C358.807 387.163 358.398 384.873 359.548 383.196L365.19 374.977C366.573 372.961 369.492 372.805 371.082 374.662L373.132 377.056C373.965 378.029 374.239 379.362 373.857 380.584L370.973 389.813C370.22 392.224 367.335 393.199 365.273 391.74L360.466 388.338Z" fill="#66A3FF"/>
<path d="M371.14 394.33L375.147 378.309L376.293 378.116L382.169 387.936L383.382 376.335L384.799 376.093L392.26 383.523L391.569 374.593L393.398 374.176L402.617 378.255L402.309 372.373" stroke="#D9D9D9" stroke-width="3.1"/>
</g>
<defs>
<filter id="filter0_d_160_759" x="226.428" y="60.5952" width="19.4827" height="91.7391" filterUnits="userSpaceOnUse" color-interpolation-filters="sRGB">
<feFlood flood-opacity="0" result="BackgroundImageFix"/>
<feColorMatrix in="SourceAlpha" type="matrix" values="0 0 0 0 0 0 0 0 0 0 0 0 0 0 0 0 0 0 127 0" result="hardAlpha"/>
<feOffset dy="2.48"/>
<feGaussianBlur stdDeviation="1.24"/>
<feComposite in2="hardAlpha" operator="out"/>
<feColorMatrix type="matrix" values="0 0 0 0 0 0 0 0 0 0 0 0 0 0 0 0 0 0 0.25 0"/>
<feBlend mode="normal" in2="BackgroundImageFix" result="effect1_dropShadow_160_759"/>
<feBlend mode="normal" in="SourceGraphic" in2="effect1_dropShadow_160_759" result="shape"/>
</filter>
<filter id="filter1_i_160_759" x="149.024" y="54.2833" width="91.9236" height="91.9235" filterUnits="userSpaceOnUse" color-interpolation-filters="sRGB">
<feFlood flood-opacity="0" result="BackgroundImageFix"/>
<feBlend mode="normal" in="SourceGraphic" in2="BackgroundImageFix" result="shape"/>
<feColorMatrix in="SourceAlpha" type="matrix" values="0 0 0 0 0 0 0 0 0 0 0 0 0 0 0 0 0 0 127 0" result="hardAlpha"/>
<feOffset dx="8.06" dy="-2.48"/>
<feGaussianBlur stdDeviation="1.24"/>
<feComposite in2="hardAlpha" operator="arithmetic" k2="-1" k3="1"/>
<feColorMatrix type="matrix" values="0 0 0 0 0 0 0 0 0 0 0 0 0 0 0 0 0 0 0.25 0"/>
<feBlend mode="normal" in2="shape" result="effect1_innerShadow_160_759"/>
</filter>
<filter id="filter2_d_160_759" x="142.74" y="86.9033" width="32.1165" height="77.4674" filterUnits="userSpaceOnUse" color-interpolation-filters="sRGB">
<feFlood flood-opacity="0" result="BackgroundImageFix"/>
<feColorMatrix in="SourceAlpha" type="matrix" values="0 0 0 0 0 0 0 0 0 0 0 0 0 0 0 0 0 0 127 0" result="hardAlpha"/>
<feOffset dy="2.48"/>
<feGaussianBlur stdDeviation="1.24"/>
<feComposite in2="hardAlpha" operator="out"/>
<feColorMatrix type="matrix" values="0 0 0 0 0 0 0 0 0 0 0 0 0 0 0 0 0 0 0.25 0"/>
<feBlend mode="normal" in2="BackgroundImageFix" result="effect1_dropShadow_160_759"/>
<feBlend mode="normal" in="SourceGraphic" in2="effect1_dropShadow_160_759" result="shape"/>
</filter>
<filter id="filter3_d_160_759" x="201.425" y="187.86" width="209.323" height="236.475" filterUnits="userSpaceOnUse" color-interpolation-filters="sRGB">
<feFlood flood-opacity="0" result="BackgroundImageFix"/>
<feColorMatrix in="SourceAlpha" type="matrix" values="0 0 0 0 0 0 0 0 0 0 0 0 0 0 0 0 0 0 127 0" result="hardAlpha"/>
<feOffset dx="14.88" dy="2.48"/>
<feGaussianBlur stdDeviation="1.24"/>
<feComposite in2="hardAlpha" operator="out"/>
<feColorMatrix type="matrix" values="0 0 0 0 0 0 0 0 0 0 0 0 0 0 0 0 0 0 0.25 0"/>
<feBlend mode="normal" in2="BackgroundImageFix" result="effect1_dropShadow_160_759"/>
<feBlend mode="normal" in="SourceGraphic" in2="effect1_dropShadow_160_759" result="shape"/>
</filter>
<clipPath id="clip0_160_759">
<rect width="532" height="547" fill="white"/>
</clipPath>
</defs>
</svg>
