<svg width="611" height="185" viewBox="0 0 611 185" fill="none" xmlns="http://www.w3.org/2000/svg">
<path d="M207.368 151.491V46.9455H243.191L268.405 133.042H269.942V46.9455H291.159V151.491H256.259L230.122 65.3947H228.585V151.491H207.368ZM328.134 121.819C328.237 126.533 329.467 129.967 331.824 132.12C334.284 134.169 337.769 135.194 342.279 135.194C351.811 135.194 360.318 134.887 367.8 134.272L372.105 133.811L372.412 149.031C360.625 151.901 349.966 153.336 340.434 153.336C328.852 153.336 320.447 150.261 315.22 144.112C309.992 137.962 307.379 127.968 307.379 114.131C307.379 86.5601 318.704 72.7744 341.356 72.7744C363.7 72.7744 374.872 84.3565 374.872 107.521L373.335 121.819H328.134ZM354.578 106.137C354.578 99.9871 353.604 95.7335 351.657 93.3761C349.709 90.9162 346.276 89.6862 341.356 89.6862C336.539 89.6862 333.105 90.9674 331.055 93.5298C329.108 95.9897 328.083 100.192 327.98 106.137H354.578ZM382.216 74.6194H404.201L416.501 98.4496L428.954 74.6194H450.939L429.108 112.287L450.939 151.491H428.954L416.501 127.968L404.201 151.491H382.216L403.279 112.902L382.216 74.6194ZM507.768 74.6194H528.37V151.491H507.922V147.186C500.542 151.286 494.136 153.336 488.704 153.336C478.044 153.336 470.87 150.415 467.18 144.573C463.49 138.628 461.645 128.737 461.645 114.9V74.6194H482.247V115.208C482.247 122.792 482.862 127.968 484.092 130.736C485.321 133.503 488.294 134.887 493.009 134.887C497.518 134.887 501.772 134.169 505.769 132.734L507.768 132.12V74.6194ZM602.587 93.8373C589.878 92.1974 580.96 91.3774 575.836 91.3774C570.813 91.3774 567.534 91.8386 565.996 92.7611C564.561 93.6836 563.844 95.1698 563.844 97.2197C563.844 99.1671 564.817 100.551 566.765 101.371C568.815 102.088 573.939 103.216 582.139 104.753C590.441 106.188 596.335 108.597 599.82 111.979C603.305 115.361 605.047 120.845 605.047 128.43C605.047 145.034 594.746 153.336 574.144 153.336C567.38 153.336 559.18 152.414 549.545 150.569L544.626 149.646L545.241 132.427C557.95 134.067 566.765 134.887 571.685 134.887C576.707 134.887 580.089 134.426 581.832 133.503C583.677 132.478 584.599 130.992 584.599 129.045C584.599 127.097 583.625 125.662 581.678 124.74C579.833 123.817 574.913 122.69 566.919 121.357C559.026 120.025 553.133 117.77 549.238 114.593C545.343 111.415 543.396 105.778 543.396 97.6809C543.396 89.4812 546.163 83.3315 551.698 79.2317C557.233 75.0293 564.356 72.9282 573.068 72.9282C579.116 72.9282 587.366 73.9019 597.821 75.8493L602.895 76.7718L602.587 93.8373Z" fill="white"/>
<line x1="108.673" y1="110.071" x2="157.871" y2="134.157" stroke="#5484D4" stroke-width="12.812"/>
<line x1="62.251" y1="110.707" x2="13.5655" y2="136.843" stroke="#5484D4" stroke-width="12.812"/>
<line x1="13.3762" y1="53.7094" x2="62.0617" y2="77.796" stroke="#5484D4" stroke-width="12.812"/>
<line x1="159.922" y1="54.6251" x2="108.929" y2="82.4952" stroke="#5484D4" stroke-width="12.812"/>
<path d="M72.2786 118.367H95.8469C96.8801 118.366 97.8949 118.1 98.7895 117.595C99.684 117.09 100.427 116.365 100.944 115.492L112.728 95.3708C113.245 94.4969 113.517 93.5055 113.517 92.4963C113.517 91.4872 113.245 90.4958 112.728 89.6219L100.944 69.5005C100.427 68.6274 99.684 67.9022 98.7895 67.3977C97.8949 66.8931 96.8801 66.627 95.8469 66.626H72.2786C71.2454 66.627 70.2306 66.8931 69.336 67.3977C68.4414 67.9022 67.6986 68.6274 67.182 69.5005L55.3978 89.6219C54.8807 90.4958 54.6084 91.4872 54.6084 92.4963C54.6084 93.5055 54.8807 94.4969 55.3978 95.3708L67.182 115.492C67.6986 116.365 68.4414 117.09 69.336 117.595C70.2306 118.1 71.2454 118.366 72.2786 118.367Z" stroke="url(#paint0_linear_160_2566)" stroke-width="12.812" stroke-linecap="round" stroke-linejoin="round"/>
<path d="M159.717 125.915V58.3467C159.714 55.3845 158.932 52.4751 157.449 49.9105C155.967 47.3458 153.836 45.2161 151.271 43.735L92.1481 9.95062C89.5802 8.46802 86.6672 7.6875 83.702 7.6875C80.7368 7.6875 77.8239 8.46802 75.2559 9.95062L16.1333 43.735C13.5679 45.2161 11.4371 47.3458 9.95465 49.9105C8.4722 52.4751 7.69023 55.3845 7.68719 58.3467V125.915C7.69023 128.878 8.4722 131.787 9.95465 134.352C11.4371 136.916 13.5679 139.046 16.1333 140.527L75.2559 174.312C77.8239 175.794 80.7368 176.575 83.702 176.575C86.6672 176.575 89.5802 175.794 92.1481 174.312L151.271 140.527C153.836 139.046 155.967 136.916 157.449 134.352C158.932 131.787 159.714 128.878 159.717 125.915Z" stroke="url(#paint1_linear_160_2566)" stroke-width="15.3744" stroke-linecap="round" stroke-linejoin="round"/>
<defs>
<linearGradient id="paint0_linear_160_2566" x1="113.517" y1="92.4963" x2="54.6084" y2="92.4963" gradientUnits="userSpaceOnUse">
<stop offset="0.21" stop-color="#1F4790"/>
<stop offset="1" stop-color="#5484D4"/>
</linearGradient>
<linearGradient id="paint1_linear_160_2566" x1="159.717" y1="92.1311" x2="7.68719" y2="92.1311" gradientUnits="userSpaceOnUse">
<stop stop-color="#5484D4"/>
<stop offset="1" stop-color="#2C446E"/>
</linearGradient>
</defs>
</svg>
