<svg width="77" height="82" viewBox="0 0 77 82" fill="none" xmlns="http://www.w3.org/2000/svg">
<g clip-path="url(#clip0_152_16)">
<path d="M38.1433 2.96074C39.8419 2.96709 41.5096 3.41982 42.9776 4.27478L42.9766 4.27575L67.5905 18.4638L67.6012 18.4697C69.0677 19.3239 70.2836 20.5498 71.1277 22.0223C71.9715 23.4947 72.4133 25.163 72.4093 26.8598L72.3141 55.0716C72.3066 56.7684 71.8539 58.4339 71.0001 59.9C70.1461 61.366 68.9216 62.5823 67.4495 63.4255L67.4387 63.4313L42.7297 77.4345L42.7306 77.4355C41.2569 78.2795 39.5867 78.7214 37.8882 78.7152C36.1932 78.7089 34.5294 78.2565 33.0637 77.4051L33.0637 77.4061L8.44106 63.2112L8.43033 63.2053C6.96383 62.3511 5.74692 61.1261 4.90288 59.6537C4.05895 58.1812 3.61726 56.512 3.62121 54.8151L3.71645 26.6034C3.72401 24.9068 4.17683 23.2419 5.03046 21.776C5.88443 20.3098 7.10976 19.0928 8.58206 18.2495L8.59282 18.2437L33.3107 4.23364L33.3107 4.23462C34.7821 3.39412 36.4484 2.95444 38.1433 2.96074ZM35.6863 72.8538L35.697 72.8597C36.3677 73.2503 37.13 73.4584 37.9058 73.4613C38.6815 73.4641 39.4447 73.2619 40.1179 72.8764L40.1277 72.8706L49.4835 67.5658L38.8187 71.0563L21.8162 64.8583L35.6863 72.8538ZM12.3482 59.3998L17.2298 62.214L17.0564 60.439L15.9323 61.0239L14.4948 58.2561L12.3482 59.3998ZM8.8751 54.8289C8.87402 55.2879 8.94664 55.7422 9.08419 56.1763L10.6859 55.3226L10.6867 31.1555L9.44277 30.5348L10.506 28.4029L8.96673 27.6347L8.8751 54.8289ZM67.0284 55.4845L67.0333 55.4874C67.0338 55.4822 67.0338 55.477 67.0343 55.4718L67.0284 55.4845ZM65.3799 33.7705L64.9935 52.9265L67.0631 53.9533L67.1341 32.8656L65.3799 33.7705ZM65.5647 24.6246L66.3024 24.2258C66.0955 23.9425 65.8553 23.6854 65.5883 23.4587L65.5647 24.6246ZM10.6858 23.1496C10.5707 23.2387 10.4612 23.3346 10.3557 23.4345L10.6861 23.5988L10.6858 23.1496ZM45.6832 15.1448L53.7797 16.5661L45.4754 11.7788L45.6832 15.1448ZM38.1257 8.21462C37.3499 8.21174 36.5869 8.41306 35.9136 8.79857L35.9029 8.80439L29.8379 12.2409L40.3374 8.8172L40.3345 8.81523C39.6637 8.42457 38.9016 8.21754 38.1257 8.21462Z" fill="white"/>
<line x1="47.4527" y1="47.8639" x2="65.7404" y2="56.8979" stroke="#5484D4" stroke-width="3.90565"/>
<line x1="30.154" y1="47.2702" x2="11.9907" y2="56.9382" stroke="#5484D4" stroke-width="3.90565"/>
<line x1="12.0402" y1="26.7503" x2="30.1372" y2="35.7836" stroke="#5484D4" stroke-width="3.90565"/>
<line x1="66.5944" y1="26.5182" x2="47.5697" y2="36.8286" stroke="#5484D4" stroke-width="3.90565"/>
<path d="M33.8888 50.5912L42.6609 50.6239C43.0454 50.625 43.4235 50.5273 43.7571 50.3407C44.0906 50.1541 44.368 49.8851 44.5614 49.5607L48.9727 42.085C49.1663 41.7604 49.2689 41.3916 49.2701 41.0159C49.2714 40.6401 49.1713 40.2706 48.9799 39.9445L44.6192 32.4362C44.428 32.1104 44.1524 31.8393 43.8201 31.6502C43.4878 31.4611 43.1104 31.3606 42.7258 31.3588L33.9538 31.3261C33.5693 31.3251 33.1912 31.4228 32.8576 31.6094C32.524 31.796 32.2466 32.065 32.0533 32.3893L27.642 39.865C27.4484 40.1897 27.3458 40.5584 27.3446 40.9342C27.3433 41.3099 27.4434 41.6794 27.6348 42.0056L31.9955 49.5139C32.1867 49.8397 32.4623 50.1107 32.7946 50.2998C33.1269 50.4889 33.5043 50.5894 33.8888 50.5912Z" stroke="url(#paint0_linear_152_16)" stroke-width="3.90565" stroke-linecap="round" stroke-linejoin="round"/>
<path d="M66.424 53.5237L66.5088 28.3652C66.5114 27.2622 66.224 26.1779 65.6755 25.2209C65.1269 24.2639 64.3365 23.468 63.3836 22.913L41.4208 10.2517C40.4668 9.69615 39.3836 9.40149 38.28 9.39738C37.1764 9.39327 36.0912 9.67985 35.1335 10.2283L13.0859 22.7256C12.1292 23.2735 11.3334 24.0636 10.7785 25.0164C10.2235 25.9693 9.92878 27.0515 9.92393 28.1544L9.83908 53.3129C9.83649 54.4159 10.1239 55.5003 10.6724 56.4572C11.221 57.4142 12.0114 58.2101 12.9643 58.7652L34.9271 71.4264C35.8811 71.982 36.9643 72.2767 38.0679 72.2808C39.1715 72.2849 40.2567 71.9983 41.2143 71.4498L63.262 58.9525C64.2187 58.4046 65.0144 57.6146 65.5694 56.6617C66.1244 55.7089 66.4191 54.6267 66.424 53.5237Z" stroke="url(#paint1_linear_152_16)" stroke-width="4.68678" stroke-linecap="round" stroke-linejoin="round"/>
</g>
<defs>
<linearGradient id="paint0_linear_152_16" x1="49.2701" y1="41.0159" x2="27.3445" y2="40.9419" gradientUnits="userSpaceOnUse">
<stop offset="0.21" stop-color="#1F4790"/>
<stop offset="1" stop-color="#5484D4"/>
</linearGradient>
<linearGradient id="paint1_linear_152_16" x1="66.4664" y1="40.9445" x2="9.88144" y2="40.7536" gradientUnits="userSpaceOnUse">
<stop stop-color="#5484D4"/>
<stop offset="1" stop-color="#2C446E"/>
</linearGradient>
<clipPath id="clip0_152_16">
<rect width="76.0315" height="81.6756" fill="white"/>
</clipPath>
</defs>
</svg>
