<svg width="185" height="189" viewBox="0 0 185 189" fill="none" xmlns="http://www.w3.org/2000/svg">
<g filter="url(#filter0_d_86_321)">
<mask id="path-1-outside-1_86_321" maskUnits="userSpaceOnUse" x="-2.45316" y="-7.98616" width="192.127" height="196.095" fill="black">
<rect fill="white" x="-2.45316" y="-7.98616" width="192.127" height="196.095"/>
<path d="M40.513 41.9788C64.5 25.2628 109.666 23.4164 133.307 40.6185C162.723 62.0226 157.674 107.249 150.49 124.473C143.306 141.696 133.184 151.336 107.21 152.582C81.2371 153.829 45.4948 145.816 44.7143 129.547C43.9583 113.782 64.5639 125.363 67.2032 115.31C68.3647 110.884 68.7415 107.672 66.6418 103.607C62.4403 95.4738 56.4925 103.997 43.3452 101.005C16.3603 94.8649 16.7063 58.5691 40.513 41.9788ZM48.8857 60.4045C42.2968 64.0128 39.384 71.3713 42.3789 76.8401C45.3739 82.3087 53.1424 83.8166 59.7311 80.2083C66.3199 76.6 69.2332 69.2423 66.2384 63.7736C63.2435 58.3048 55.4745 56.7962 48.8857 60.4045Z"/>
</mask>
<g filter="url(#filter1_i_86_321)">
<path d="M40.513 41.9788C64.5 25.2628 109.666 23.4164 133.307 40.6185C162.723 62.0226 157.674 107.249 150.49 124.473C143.306 141.696 133.184 151.336 107.21 152.582C81.2371 153.829 45.4948 145.816 44.7143 129.547C43.9583 113.782 64.5639 125.363 67.2032 115.31C68.3647 110.884 68.7415 107.672 66.6418 103.607C62.4403 95.4738 56.4925 103.997 43.3452 101.005C16.3603 94.8649 16.7063 58.5691 40.513 41.9788ZM48.8857 60.4045C42.2968 64.0128 39.384 71.3713 42.3789 76.8401C45.3739 82.3087 53.1424 83.8166 59.7311 80.2083C66.3199 76.6 69.2332 69.2423 66.2384 63.7736C63.2435 58.3048 55.4745 56.7962 48.8857 60.4045Z" fill="#B6A290"/>
</g>
<path d="M40.513 41.9788L37.4251 37.5477L37.4251 37.5477L40.513 41.9788ZM133.307 40.6185L136.485 36.2514L136.485 36.2514L133.307 40.6185ZM150.49 124.473L155.475 126.552L155.475 126.552L150.49 124.473ZM107.21 152.582L107.469 157.977L107.21 152.582ZM44.7143 129.547L39.3196 129.806L39.3196 129.806L44.7143 129.547ZM67.2032 115.31L72.427 116.681L72.4271 116.681L67.2032 115.31ZM66.6418 103.607L71.4402 101.128L71.4402 101.128L66.6418 103.607ZM43.3452 101.005L42.1469 106.272L42.1469 106.272L43.3452 101.005ZM48.8857 60.4045L46.2915 55.6674L46.2915 55.6674L48.8857 60.4045ZM42.3789 76.8401L37.6418 79.4343L37.6419 79.4344L42.3789 76.8401ZM59.7311 80.2083L62.3253 84.9453L62.3253 84.9453L59.7311 80.2083ZM66.2384 63.7736L70.9755 61.1794L70.9754 61.1794L66.2384 63.7736ZM40.513 41.9788L43.6009 46.4098C54.4908 38.8209 70.6572 34.3625 87.1654 33.9788C103.702 33.5944 119.592 37.3178 130.129 44.9856L133.307 40.6185L136.485 36.2514C123.382 26.7171 104.868 22.7627 86.9144 23.18C68.9325 23.5979 50.5221 28.4207 37.4251 37.5477L40.513 41.9788ZM133.307 40.6185L130.129 44.9856C143.137 54.4505 148.813 69.3745 150.246 84.6188C151.684 99.9135 148.741 114.635 145.505 122.394L150.49 124.473L155.475 126.552C159.422 117.087 162.596 100.583 161 83.6079C159.4 66.582 152.893 48.1907 136.485 36.2514L133.307 40.6185ZM150.49 124.473L145.505 122.394C142.113 130.525 138.296 136.208 132.779 140.109C127.238 144.025 119.345 146.593 106.952 147.188L107.21 152.582L107.469 157.977C121.049 157.326 131.203 154.45 139.014 148.929C146.846 143.392 151.682 135.643 155.475 126.552L150.49 124.473ZM107.21 152.582L106.952 147.188C94.518 147.784 79.7367 146.147 68.1426 142.483C62.3301 140.646 57.6463 138.401 54.4803 135.929C51.3222 133.462 50.2015 131.219 50.1089 129.288L44.7143 129.547L39.3196 129.806C39.6173 136.01 43.2571 140.869 47.8319 144.442C52.3988 148.008 58.4202 150.739 64.8875 152.783C77.853 156.88 93.9295 158.627 107.469 157.977L107.21 152.582ZM44.7143 129.547L50.109 129.289C50.0406 127.863 50.2364 127.154 50.3533 126.868C50.4404 126.656 50.5085 126.598 50.6059 126.53C51.1001 126.189 52.2604 125.847 55.0178 125.677C57.1317 125.547 60.8484 125.533 63.7828 124.797C65.4039 124.391 67.2557 123.68 68.898 122.317C70.6198 120.887 71.8243 118.977 72.427 116.681L67.2032 115.31L61.9793 113.938C61.9222 114.156 61.9054 114.083 61.9981 114.006C62.0114 113.995 61.8262 114.152 61.1562 114.32C59.5084 114.733 57.6261 114.694 54.3532 114.896C51.7238 115.058 47.7095 115.405 44.4703 117.64C40.6186 120.299 39.0709 124.618 39.3196 129.806L44.7143 129.547ZM67.2032 115.31L72.4271 116.681C73.0358 114.361 73.5783 111.875 73.5459 109.256C73.5118 106.503 72.8526 103.862 71.4402 101.128L66.6418 103.607L61.8433 106.085C62.5307 107.416 62.7329 108.414 62.745 109.39C62.7587 110.5 62.532 111.833 61.9792 113.939L67.2032 115.31ZM66.6418 103.607L71.4402 101.128C69.9535 98.25 67.7982 95.9324 64.5779 95.0015C61.805 94.1998 59.0422 94.727 57.2763 95.0846C53.3397 95.8817 49.7732 96.9291 44.5435 95.7391L43.3452 101.005L42.1469 106.272C50.0645 108.073 56.0455 106.355 59.42 105.671C61.3097 105.289 61.6434 105.397 61.5781 105.378C61.0656 105.23 61.2294 104.897 61.8434 106.086L66.6418 103.607ZM43.3452 101.005L44.5435 95.7391C33.8347 93.3023 28.5383 85.1259 28.2813 75.2699C28.0182 65.1821 33.1779 53.6733 43.6009 46.4098L40.513 41.9788L37.4251 37.5477C24.0414 46.8745 17.1248 61.8088 17.4832 75.5515C17.8477 89.5261 25.8708 102.568 42.1469 106.272L43.3452 101.005ZM48.8857 60.4045L46.2915 55.6674C37.9505 60.2353 32.7829 70.5618 37.6418 79.4343L42.3789 76.8401L47.1159 74.2459C45.985 72.1809 46.6432 67.7903 51.4799 65.1415L48.8857 60.4045ZM42.3789 76.8401L37.6419 79.4344C42.5012 88.307 53.9849 89.5129 62.3253 84.9453L59.7311 80.2083L57.1369 75.4713C52.2998 78.1203 48.2466 76.3103 47.1159 74.2458L42.3789 76.8401ZM59.7311 80.2083L62.3253 84.9453C70.6657 80.3778 75.8344 70.0523 70.9755 61.1794L66.2384 63.7736L61.5013 66.3677C62.6319 68.4323 61.974 72.8223 57.1369 75.4713L59.7311 80.2083ZM66.2384 63.7736L70.9754 61.1794C66.1165 52.3069 54.6324 51.0996 46.2915 55.6674L48.8857 60.4045L51.4799 65.1415C56.3166 62.4927 60.3705 64.3028 61.5014 66.3678L66.2384 63.7736Z" fill="white" mask="url(#path-1-outside-1_86_321)"/>
<path d="M89.8261 47.2423C92.2035 45.9404 95.3589 44.3026 98.3647 43.7086C99.8951 43.4062 101.608 43.326 103.257 43.8665C104.99 44.435 106.418 45.6157 107.39 47.3896C109.166 50.6329 109.145 55.3373 108.266 59.2608C107.809 61.2985 107.081 63.3209 106.082 65.0651C105.098 66.7837 103.746 68.4108 101.956 69.3914C95.8396 72.7407 88.1662 70.4973 84.8167 64.3811C81.4674 58.2649 83.7101 50.592 89.8261 47.2423Z" fill="#005FF2" stroke="white" stroke-width="5.40086"/>
<path d="M120.21 55.757C121.73 54.9245 123.287 54.4736 124.864 54.5454C126.46 54.6181 127.828 55.2149 128.971 56.0595C131.105 57.6364 132.673 60.265 133.963 62.6207C135.253 64.9765 136.624 67.7139 136.803 70.361C136.899 71.7787 136.665 73.2523 135.867 74.6362C135.078 76.0038 133.86 77.0735 132.34 77.906C126.223 81.2553 118.55 79.012 115.201 72.8957C111.851 66.7795 114.094 59.1066 120.21 55.757Z" fill="#3377C0" stroke="white" stroke-width="5.40086"/>
<path d="M110.441 116.436C111.962 115.603 113.518 115.152 115.096 115.224C116.692 115.297 118.06 115.894 119.203 116.738C121.336 118.315 122.904 120.944 124.194 123.299C125.802 126.235 126.144 129.11 124.687 131.751C123.405 134.073 120.97 135.699 118.534 137.033C116.188 138.318 113.641 139.472 111.104 138.896C108.426 138.287 106.774 136.024 105.432 133.574C102.083 127.458 104.325 119.785 110.441 116.436Z" fill="#406AFE" stroke="white" stroke-width="5.40086"/>
<path d="M130.903 87.0601C132.423 86.2276 133.98 85.7766 135.557 85.8485C137.153 85.9213 138.521 86.518 139.664 87.3626C141.798 88.9395 143.366 91.5681 144.656 93.9238C146.13 96.615 146.985 99.5315 146.476 102.371C145.944 105.34 144.024 107.686 141.065 109.306C138.238 110.854 134.226 111.884 130.511 111.882C126.959 111.881 122.578 110.9 120.52 107.142C119.428 105.147 119.464 102.934 119.93 100.992C120.398 99.0418 121.355 97.101 122.487 95.3535C124.722 91.9035 128.014 88.6425 130.903 87.0601Z" fill="#0047B5" stroke="white" stroke-width="5.40086"/>
<path d="M31.1462 98.3933L33.0389 100.069L84.7011 145.826L86.8612 147.739L74.5536 159.914L72.665 157.732L27.496 105.55L25.8428 103.64L31.1462 98.3933Z" fill="#186198" stroke="white" stroke-width="5.40086"/>
<rect x="70.8877" y="155.945" width="16.9416" height="18.6403" transform="rotate(-44.6911 70.8877 155.945)" fill="#A5A5A5" stroke="white" stroke-width="5.40086"/>
<path d="M91.869 153.811L93.6925 154.995L104.552 162.046L107.364 163.873L90.8059 180.254L88.9829 177.556L81.7794 166.887L80.5264 165.032L91.869 153.811Z" fill="#D9D9D9" stroke="white" stroke-width="5.40086"/>
<rect x="35.6172" y="65.1361" width="31.0607" height="24.6343" transform="rotate(-28.707 35.6172 65.1361)" fill="white"/>
<g filter="url(#filter2_i_86_321)">
<path d="M40.5131 41.9787C64.5002 25.2627 109.667 23.4162 133.307 40.6184C162.722 62.0227 157.674 107.249 150.49 124.473C143.306 141.696 133.183 151.335 107.21 152.581C81.2368 153.828 45.4949 145.816 44.7144 129.547C43.9581 113.781 64.5639 125.363 67.2028 115.309C68.3643 110.883 68.7416 107.671 66.6419 103.607C62.4405 95.473 56.4921 103.997 43.3445 101.006C16.3597 94.8651 16.7065 58.5689 40.5131 41.9787ZM48.8858 60.4043C42.297 64.0127 39.3832 71.3717 42.3782 76.8404C45.3732 82.3089 53.1425 83.8165 59.7313 80.2082C66.3199 76.5999 69.2332 69.2421 66.2385 63.7734C63.2436 58.3048 55.4746 56.7962 48.8858 60.4043Z" fill="#B6A290"/>
</g>
<g filter="url(#filter3_d_86_321)">
<path d="M105.021 48.6868C107.654 53.4951 105.467 64.3895 100.659 67.0227C95.8507 69.6559 89.8182 67.8927 87.185 63.0844C84.5518 58.2762 86.315 52.2437 91.1233 49.6105C95.9315 46.9773 102.388 43.8786 105.021 48.6868Z" fill="#005FF2"/>
</g>
<g filter="url(#filter4_d_86_321)">
<path d="M131.594 63.9171C134.228 68.7253 135.851 72.9031 131.043 75.5364C126.235 78.1696 120.202 76.4063 117.569 71.5981C114.936 66.7898 116.699 60.7573 121.507 58.1241C126.315 55.4909 128.961 59.1088 131.594 63.9171Z" fill="#3377C0"/>
</g>
<g filter="url(#filter5_d_86_321)">
<path d="M121.826 124.596C124.459 129.404 122.045 132.031 117.236 134.664C112.428 137.297 110.434 137.085 107.8 132.277C105.167 127.469 106.93 121.436 111.739 118.803C116.547 116.17 119.193 119.788 121.826 124.596Z" fill="#406AFE"/>
</g>
<g filter="url(#filter6_d_86_321)">
<path d="M142.287 95.2204C144.92 100.029 144.576 104.303 139.768 106.936C134.96 109.569 125.521 110.652 122.888 105.844C120.255 101.036 127.392 92.0607 132.2 89.4275C137.008 86.7943 139.654 90.4121 142.287 95.2204Z" fill="#0047B5"/>
</g>
<path d="M29.5379 103.783L31.2484 102.09L82.9109 147.848L74.7065 155.964L29.5379 103.783Z" fill="#186198"/>
<rect x="74.7066" y="155.964" width="11.5407" height="13.2394" transform="rotate(-44.6911 74.7066 155.964)" fill="#A5A5A5"/>
<path d="M84.0177 165.376L92.2221 157.26L103.081 164.312L91.2214 176.044L84.0177 165.376Z" fill="#D9D9D9"/>
</g>
<defs>
<filter id="filter0_d_86_321" x="11.709" y="23.1498" width="149.713" height="164.195" filterUnits="userSpaceOnUse" color-interpolation-filters="sRGB">
<feFlood flood-opacity="0" result="BackgroundImageFix"/>
<feColorMatrix in="SourceAlpha" type="matrix" values="0 0 0 0 0 0 0 0 0 0 0 0 0 0 0 0 0 0 127 0" result="hardAlpha"/>
<feOffset dx="-4.32069" dy="1.44023"/>
<feGaussianBlur stdDeviation="0.720115"/>
<feComposite in2="hardAlpha" operator="out"/>
<feColorMatrix type="matrix" values="0 0 0 0 0 0 0 0 0 0 0 0 0 0 0 0 0 0 0.25 0"/>
<feBlend mode="normal" in2="BackgroundImageFix" result="effect1_dropShadow_86_321"/>
<feBlend mode="normal" in="SourceGraphic" in2="effect1_dropShadow_86_321" result="shape"/>
</filter>
<filter id="filter1_i_86_321" x="17.47" y="23.1498" width="143.952" height="134.96" filterUnits="userSpaceOnUse" color-interpolation-filters="sRGB">
<feFlood flood-opacity="0" result="BackgroundImageFix"/>
<feBlend mode="normal" in="SourceGraphic" in2="BackgroundImageFix" result="shape"/>
<feColorMatrix in="SourceAlpha" type="matrix" values="0 0 0 0 0 0 0 0 0 0 0 0 0 0 0 0 0 0 127 0" result="hardAlpha"/>
<feOffset dx="3.24052" dy="1.44023"/>
<feComposite in2="hardAlpha" operator="arithmetic" k2="-1" k3="1"/>
<feColorMatrix type="matrix" values="0 0 0 0 0 0 0 0 0 0 0 0 0 0 0 0 0 0 0.25 0"/>
<feBlend mode="normal" in2="shape" result="effect1_innerShadow_86_321"/>
</filter>
<filter id="filter2_i_86_321" x="22.8706" y="28.5512" width="133.151" height="124.156" filterUnits="userSpaceOnUse" color-interpolation-filters="sRGB">
<feFlood flood-opacity="0" result="BackgroundImageFix"/>
<feBlend mode="normal" in="SourceGraphic" in2="BackgroundImageFix" result="shape"/>
<feColorMatrix in="SourceAlpha" type="matrix" values="0 0 0 0 0 0 0 0 0 0 0 0 0 0 0 0 0 0 127 0" result="hardAlpha"/>
<feOffset dx="3.24052" dy="1.44023"/>
<feComposite in2="hardAlpha" operator="arithmetic" k2="-1" k3="1"/>
<feColorMatrix type="matrix" values="0 0 0 0 0 0 0 0 0 0 0 0 0 0 0 0 0 0 0.25 0"/>
<feBlend mode="normal" in2="shape" result="effect1_innerShadow_86_321"/>
</filter>
<filter id="filter3_d_86_321" x="83.8027" y="46.1713" width="22.3468" height="23.5135" filterUnits="userSpaceOnUse" color-interpolation-filters="sRGB">
<feFlood flood-opacity="0" result="BackgroundImageFix"/>
<feColorMatrix in="SourceAlpha" type="matrix" values="0 0 0 0 0 0 0 0 0 0 0 0 0 0 0 0 0 0 127 0" result="hardAlpha"/>
<feOffset dx="-2.16035" dy="1.44023"/>
<feComposite in2="hardAlpha" operator="out"/>
<feColorMatrix type="matrix" values="0 0 0 0 0 0 0 0 0 0 0 0 0 0 0 0 0 0 0.25 0"/>
<feBlend mode="normal" in2="BackgroundImageFix" result="effect1_dropShadow_86_321"/>
<feBlend mode="normal" in="SourceGraphic" in2="effect1_dropShadow_86_321" result="shape"/>
</filter>
<filter id="filter4_d_86_321" x="114.187" y="57.2377" width="19.9368" height="20.9607" filterUnits="userSpaceOnUse" color-interpolation-filters="sRGB">
<feFlood flood-opacity="0" result="BackgroundImageFix"/>
<feColorMatrix in="SourceAlpha" type="matrix" values="0 0 0 0 0 0 0 0 0 0 0 0 0 0 0 0 0 0 127 0" result="hardAlpha"/>
<feOffset dx="-2.16035" dy="1.44023"/>
<feComposite in2="hardAlpha" operator="out"/>
<feColorMatrix type="matrix" values="0 0 0 0 0 0 0 0 0 0 0 0 0 0 0 0 0 0 0.25 0"/>
<feBlend mode="normal" in2="BackgroundImageFix" result="effect1_dropShadow_86_321"/>
<feBlend mode="normal" in="SourceGraphic" in2="effect1_dropShadow_86_321" result="shape"/>
</filter>
<filter id="filter5_d_86_321" x="104.418" y="117.916" width="18.4909" height="19.8709" filterUnits="userSpaceOnUse" color-interpolation-filters="sRGB">
<feFlood flood-opacity="0" result="BackgroundImageFix"/>
<feColorMatrix in="SourceAlpha" type="matrix" values="0 0 0 0 0 0 0 0 0 0 0 0 0 0 0 0 0 0 127 0" result="hardAlpha"/>
<feOffset dx="-2.16035" dy="1.44023"/>
<feComposite in2="hardAlpha" operator="out"/>
<feColorMatrix type="matrix" values="0 0 0 0 0 0 0 0 0 0 0 0 0 0 0 0 0 0 0.25 0"/>
<feBlend mode="normal" in2="BackgroundImageFix" result="effect1_dropShadow_86_321"/>
<feBlend mode="normal" in="SourceGraphic" in2="effect1_dropShadow_86_321" result="shape"/>
</filter>
<filter id="filter6_d_86_321" x="120.161" y="88.5414" width="23.7614" height="22.0799" filterUnits="userSpaceOnUse" color-interpolation-filters="sRGB">
<feFlood flood-opacity="0" result="BackgroundImageFix"/>
<feColorMatrix in="SourceAlpha" type="matrix" values="0 0 0 0 0 0 0 0 0 0 0 0 0 0 0 0 0 0 127 0" result="hardAlpha"/>
<feOffset dx="-2.16035" dy="1.44023"/>
<feComposite in2="hardAlpha" operator="out"/>
<feColorMatrix type="matrix" values="0 0 0 0 0 0 0 0 0 0 0 0 0 0 0 0 0 0 0.25 0"/>
<feBlend mode="normal" in2="BackgroundImageFix" result="effect1_dropShadow_86_321"/>
<feBlend mode="normal" in="SourceGraphic" in2="effect1_dropShadow_86_321" result="shape"/>
</filter>
</defs>
</svg>
