<svg width="125" height="168" viewBox="0 0 125 168" fill="none" xmlns="http://www.w3.org/2000/svg">
<g filter="url(#filter0_d_36_1123)">
<path d="M103.475 24.3241C92.5124 7.99388 76.3398 3.28208 56.0098 4.72645C35.1891 6.20569 28.4705 6.68572 15.8572 22.8116C-6.87047 51.8685 16.6803 80.0302 22.6648 111.181C28.3725 140.891 55.9179 152.904 67.7557 156.879C78.5563 160.506 86.2434 164.409 96.8627 160.208C106.945 156.22 111.846 149.752 114.958 139.67C119.751 124.144 124.177 100.104 115.592 78.8459C107.939 59.8952 114.236 40.3544 103.475 24.3241Z" fill="white"/>
<g filter="url(#filter1_i_36_1123)">
<path d="M104.205 56.938C102.357 32.9462 91.2579 5.15529 53.0243 12.1382C8.1005 20.3431 15.4749 39.6393 17.3231 63.6311C17.8625 70.6322 20.0314 77.1168 23.4247 82.7472L36.0995 129.201L69.8879 151.351L98.7617 144.962L114.267 115.088L104.035 65.4254C104.361 62.6587 104.427 59.8205 104.205 56.938Z" fill="#BCBCBC"/>
</g>
<rect width="30.5489" height="5.09147" transform="matrix(-0.972801 0.231643 0.231643 0.972801 62.9634 56.5737)" fill="#757575"/>
<rect width="24.7919" height="5.09147" transform="matrix(-0.972801 0.231643 0.231643 0.972801 97.4904 48.4937)" fill="#757575"/>
<path d="M98.4981 52.4238L73.6883 58.3315L75.2417 64.855C75.2417 64.855 84.9518 67.447 89.7962 66.2935C94.6406 65.1399 98.4981 52.4238 98.4981 52.4238Z" fill="#757575"/>
<path d="M63.4328 61.2036L34.4304 68.1097C34.4304 68.1097 47.148 76.8789 52.811 75.5304C58.4741 74.1819 64.9862 67.727 64.9862 67.727L63.4328 61.2036Z" fill="#757575"/>
<path d="M70.6099 46.5708L73.8116 59.2463L78.748 57.9994L70.6099 46.5708Z" fill="#757575"/>
<path d="M60.9121 48.4748L59.1774 62.3972L64.1138 61.1503L60.9121 48.4748Z" fill="#757575"/>
<path d="M61.6607 53.6556L61.4895 86.4459L72.5644 86.5037L61.6607 53.6556Z" fill="#757575"/>
<path d="M78.734 76.8774L73.605 85.449L81.0707 80.2028L78.734 76.8774Z" fill="#757575"/>
<path d="M65.0027 85.7388L47.8592 99.8997L55.853 125.07L65.0027 85.7388Z" fill="#757575"/>
<path d="M79.9415 79.1001L96.545 86.4518L105.684 112.796L79.9415 79.1001Z" fill="#757575"/>
<path d="M87.1448 87.0409C87.1448 87.0409 80.0701 90.1001 75.3439 91.4818C69.0474 93.3227 58.8287 94.5517 58.8287 94.5517L56.9881 98.9092C56.9881 98.9092 68.5448 95.2072 75.8687 92.9243C80.6876 91.4222 90.9593 90.2789 90.9593 90.2789L87.1448 87.0409Z" fill="#757575"/>
<path d="M76.7771 31.8234L44.1099 36.8308L22.5246 51.917L23.0567 58.8248L26.6933 72.4336L29.4108 72.2243L32.1899 53.4867L44.4053 40.6663L77.0484 35.3447L96.6381 39.695L102.318 58.1538L103.504 58.0624L103.265 49.5487L101.345 39.9167L99.7521 37.0209L76.7771 31.8234Z" fill="#757575"/>
<path d="M104.047 65.1176C104.047 65.1176 99.4822 72.5455 99.5059 77.4695C99.5376 84.0295 95.2828 87.3057 95.2828 87.3057C95.2828 87.3057 103.141 84.8722 102.968 77.2028C102.854 72.1565 104.047 65.1176 104.047 65.1176Z" fill="#757575"/>
<path d="M31.9638 83.4285C31.9638 83.4285 39.1673 88.3394 41.1597 92.8424C43.8142 98.8414 49.0369 100.091 49.0369 100.091C49.0369 100.091 40.8706 101.084 37.8913 94.0152C35.9311 89.3639 31.9638 83.4285 31.9638 83.4285Z" fill="#757575"/>
<path d="M84.7454 94.9697L67.2637 100.032L66.721 100.074L77.9501 103.409L84.7454 94.9697Z" fill="#757575"/>
</g>
<defs>
<filter id="filter0_d_36_1123" x="0.222183" y="4.48047" width="120.24" height="160.941" filterUnits="userSpaceOnUse" color-interpolation-filters="sRGB">
<feFlood flood-opacity="0" result="BackgroundImageFix"/>
<feColorMatrix in="SourceAlpha" type="matrix" values="0 0 0 0 0 0 0 0 0 0 0 0 0 0 0 0 0 0 127 0" result="hardAlpha"/>
<feOffset dx="-4.2411" dy="1.69644"/>
<feGaussianBlur stdDeviation="0.848221"/>
<feComposite in2="hardAlpha" operator="out"/>
<feColorMatrix type="matrix" values="0 0 0 0 0 0 0 0 0 0 0 0 0 0 0 0 0 0 0.25 0"/>
<feBlend mode="normal" in2="BackgroundImageFix" result="effect1_dropShadow_36_1123"/>
<feBlend mode="normal" in="SourceGraphic" in2="effect1_dropShadow_36_1123" result="shape"/>
</filter>
<filter id="filter1_i_36_1123" x="15.7288" y="11.0439" width="98.5381" height="140.307" filterUnits="userSpaceOnUse" color-interpolation-filters="sRGB">
<feFlood flood-opacity="0" result="BackgroundImageFix"/>
<feBlend mode="normal" in="SourceGraphic" in2="BackgroundImageFix" result="shape"/>
<feColorMatrix in="SourceAlpha" type="matrix" values="0 0 0 0 0 0 0 0 0 0 0 0 0 0 0 0 0 0 127 0" result="hardAlpha"/>
<feOffset dx="-7.06136" dy="-3.32299"/>
<feComposite in2="hardAlpha" operator="arithmetic" k2="-1" k3="1"/>
<feColorMatrix type="matrix" values="0 0 0 0 0 0 0 0 0 0 0 0 0 0 0 0 0 0 0.25 0"/>
<feBlend mode="normal" in2="shape" result="effect1_innerShadow_36_1123"/>
</filter>
</defs>
</svg>
