<svg width="760" height="773" viewBox="0 0 760 773" fill="none" xmlns="http://www.w3.org/2000/svg">
<mask id="path-1-outside-1_240_223" maskUnits="userSpaceOnUse" x="111.793" y="123.423" width="588" height="574" fill="black">
<rect fill="white" x="111.793" y="123.423" width="588" height="574"/>
<path d="M684.485 431.594L588.379 433.052C586.684 438.668 584.747 444.028 582.531 449.025C569.3 478.875 542.041 500.242 508.694 513.411L517.001 673.7L354.948 681.098L346.546 518.951C301.889 505.204 266.965 478.024 259.739 438.039L126.793 440.058V147.888L684.485 139.423V431.594Z"/>
</mask>
<path d="M684.485 431.594L588.379 433.052C586.684 438.668 584.747 444.028 582.531 449.025C569.3 478.875 542.041 500.242 508.694 513.411L517.001 673.7L354.948 681.098L346.546 518.951C301.889 505.204 266.965 478.024 259.739 438.039L126.793 440.058V147.888L684.485 139.423V431.594Z" fill="#D9D9D9"/>
<path d="M684.485 431.594L684.713 446.592L699.485 446.368V431.594H684.485ZM588.379 433.052L588.151 418.053L577.188 418.22L574.019 428.717L588.379 433.052ZM582.531 449.025L596.244 455.104L596.245 455.104L582.531 449.025ZM508.694 513.411L503.185 499.46L493.157 503.42L493.715 514.187L508.694 513.411ZM517.001 673.7L517.685 688.685L532.762 687.996L531.981 672.924L517.001 673.7ZM354.948 681.098L339.968 681.874L340.74 696.762L355.632 696.082L354.948 681.098ZM346.546 518.951L361.526 518.175L360.983 507.701L350.959 504.615L346.546 518.951ZM259.739 438.039L274.5 435.372L272.237 422.848L259.512 423.041L259.739 438.039ZM126.793 440.058H111.793V455.287L127.021 455.056L126.793 440.058ZM126.793 147.888L126.565 132.889L111.793 133.114V147.888H126.793ZM684.485 139.423H699.485V124.193L684.258 124.425L684.485 139.423ZM684.485 431.594L684.258 416.595L588.151 418.053L588.379 433.052L588.607 448.05L684.713 446.592L684.485 431.594ZM588.379 433.052L574.019 428.717C572.471 433.845 570.741 438.609 568.818 442.947L582.531 449.025L596.245 455.104C598.752 449.446 600.896 443.491 602.739 437.386L588.379 433.052ZM582.531 449.025L568.818 442.947C557.679 468.076 534.195 487.213 503.185 499.46L508.694 513.411L514.204 527.363C549.888 513.271 580.921 489.673 596.244 455.104L582.531 449.025ZM508.694 513.411L493.715 514.187L502.021 674.476L517.001 673.7L531.981 672.924L523.674 512.635L508.694 513.411ZM517.001 673.7L516.317 658.716L354.264 666.113L354.948 681.098L355.632 696.082L517.685 688.685L517.001 673.7ZM354.948 681.098L369.928 680.321L361.526 518.175L346.546 518.951L331.566 519.727L339.968 681.874L354.948 681.098ZM346.546 518.951L350.959 504.615C308.74 491.618 280.282 467.368 274.5 435.372L259.739 438.039L244.978 440.706C253.647 488.681 295.039 518.79 342.133 533.287L346.546 518.951ZM259.739 438.039L259.512 423.041L126.565 425.059L126.793 440.058L127.021 455.056L259.967 453.037L259.739 438.039ZM126.793 440.058H141.793V147.888H126.793H111.793V440.058H126.793ZM126.793 147.888L127.021 162.886L684.713 154.421L684.485 139.423L684.258 124.425L126.565 132.889L126.793 147.888ZM684.485 139.423H669.485V431.594H684.485H699.485V139.423H684.485Z" fill="white" mask="url(#path-1-outside-1_240_223)"/>
<path d="M126.793 147.889L684.485 139.424V431.595L126.793 440.059V147.889Z" fill="#696969"/>
<path d="M344.848 486.182L354.949 681.108L517.001 673.71L506.901 478.784C506.901 478.784 473.795 485.673 425.102 487.896C376.41 490.119 344.848 486.182 344.848 486.182Z" fill="black"/>
<path d="M259.64 437.501C279.8 553.465 532.29 562.38 582.531 449.035C607.525 392.649 597.419 290.333 597.394 290.075L474.976 295.574C475.035 295.862 502.162 429.581 422.36 433.165C342.472 436.754 324.555 435.968 259.64 437.501Z" fill="#D9D9D9"/>
</svg>
