<svg width="621" height="437" viewBox="0 0 621 437" fill="none" xmlns="http://www.w3.org/2000/svg">
<mask id="path-1-outside-1_228_1086" maskUnits="userSpaceOnUse" x="31.1145" y="20.2686" width="559" height="367" fill="black">
<rect fill="white" x="31.1145" y="20.2686" width="559" height="367"/>
<path d="M496.964 118.803C500.997 118.803 504.267 122.072 504.267 126.105C504.267 129.559 501.87 132.45 498.65 133.211V139.589H515.503V145.77H543.086C545.228 145.77 546.964 147.506 546.964 149.647V168.241H552.582V205.32H552.016L551.876 225.584C563.964 232.039 572.323 245.724 566.992 263.329C566.901 263.63 566.759 263.927 566.582 264.183C564.392 267.362 562.365 269.664 560.304 271.279C560.2 272.383 560.078 273.521 559.934 274.703C559.782 275.949 558.749 276.916 557.5 276.997L552.335 277.334C552.054 277.352 551.781 277.321 551.523 277.254L551.503 280.174C551.501 280.528 551.352 280.865 551.094 281.107L541.074 290.495V293.288H540.635L556.864 341.809L570.384 336.586L577.37 354.671L526.734 374.233L519.747 356.148L521.26 355.563L500.43 293.288H492.121L485.199 308.833L485.473 308.954L470.12 343.854L426.123 324.5L419.779 338.448L402.131 330.421L424.61 281.009L442.256 289.037L441.912 289.79L449.307 293.043V282.259C434.135 282.21 421.694 279.883 421.694 257.173C421.694 235.532 425.212 217.286 445.84 218.468V205.32H440.222V168.241H445.84V149.647C445.84 147.506 447.576 145.77 449.717 145.77H478.424V139.589H495.279V133.211C492.058 132.45 489.66 129.559 489.66 126.105C489.661 122.072 492.931 118.803 496.964 118.803ZM309.306 30.2686C313.339 30.2688 316.609 33.5388 316.609 37.5723C316.609 41.3282 313.773 44.4202 310.126 44.8281V54.0693H320.097V62.2939H333.668C335.81 62.2941 337.545 64.0305 337.545 66.1719V84.5527H342.657V121.632H337.545V162.747C337.545 164.888 335.81 166.625 333.668 166.625H342.677V167.284C350.188 168.714 351.062 192.168 351.125 200.904C351.138 202.612 352.426 204.149 353.871 204.149H375.244C375.698 203.696 376.326 203.424 377.013 203.424H385.952C387.117 203.424 388.167 204.202 388.482 205.332C390.997 214.369 390.814 220.186 389.149 229.197C388.931 230.377 387.906 231.212 386.7 231.212H377.799C376.651 231.212 375.613 230.455 375.282 229.347C375.271 229.31 375.26 229.274 375.249 229.237C365.699 229.237 363.9 229.237 351.112 229.237C348.18 229.237 345.345 229.159 342.677 228.876V264.207H341.466L366.108 337.88L388.144 329.367L395.131 347.452L344.494 367.015L337.507 348.93L340.783 347.663L312.87 264.207H301.059L277.52 315.481L259.895 307.39L234.776 296.339L222.675 322.939L205.029 314.911L227.506 265.5L245.154 273.527L245.052 273.748L265.284 282.648L273.751 264.207H272.238V229.287C257.33 229.179 245.206 226.623 245.206 204.204C245.206 182.074 247.616 167.712 270.64 166.7C271.223 166.675 271.781 166.918 272.238 167.327V166.625H283.026C280.884 166.625 279.148 164.889 279.148 162.747V121.846H273.53V84.7666H279.148V66.1719C279.148 64.0304 280.884 62.2939 283.026 62.2939H298.124V54.0693H308.132V44.7793C304.657 44.2178 302.002 41.2061 302.002 37.5723C302.002 33.5387 305.272 30.2686 309.306 30.2686ZM127.674 165.332C131.708 165.332 134.978 168.602 134.978 172.636C134.978 176.089 132.58 178.979 129.36 179.74V185.12C136.43 185.582 145.575 187.95 145.575 187.95V194.972C149.264 197.415 152.457 200.548 154.971 204.186H162.641C162.641 204.186 165.608 215.93 165.608 223.17C165.608 230.404 162.646 241.246 162.641 241.265H156.363C154.886 243.786 153.1 246.103 151.055 248.164L160.438 253.867V254.306C163.403 254.334 161.581 254.33 169.097 254.601C183.318 255.112 184.59 263.244 184.536 273.032C184.518 276.452 184.505 278.636 184.495 280.47C185.014 280.587 185.544 280.714 186.088 280.851C187.183 281.125 187.927 282.112 187.927 283.25V292.337C187.927 293.466 187.194 294.493 186.108 294.832C178.366 297.244 173.322 297.052 165.608 295.398C164.465 295.153 163.669 294.145 163.669 292.968V283.926C163.669 282.814 164.379 281.8 165.442 281.443C165.507 281.421 165.572 281.399 165.637 281.378L165.53 275.566C165.504 274.217 164.156 273.017 162.605 272.896C162.501 272.888 162.396 272.886 162.291 272.888L160.438 272.92V305.566H158.356L170.956 337.308L182.864 332.708L188.633 347.642L146.82 363.795L141.051 348.862L141.586 348.654L124.481 305.566H121.578L123.191 306.298L114.086 326.36L114.281 326.446L101.603 355.265L64.0032 338.725L58.6868 350.412L44.1145 343.783L62.6761 302.981L77.2483 309.61L77.0413 310.063L85.2649 313.682L88.9476 305.566H88.7054V272.828C88.7034 272.829 88.7015 272.83 88.6995 272.83C88.404 272.908 88.0942 272.948 87.7796 272.942L84.7005 272.888C84.5957 272.886 84.4914 272.888 84.388 272.896C82.8371 273.016 81.4873 274.217 81.4622 275.566L81.3753 280.198C81.3825 280.2 81.3896 280.202 81.3968 280.204C82.4923 280.479 83.2366 281.466 83.2366 282.604V291.69C83.2365 292.82 82.5039 293.847 81.4173 294.186C73.6759 296.597 68.631 296.405 60.9173 294.752C59.7746 294.507 58.9778 293.498 58.9778 292.321V283.279C58.9779 282.168 59.6879 281.153 60.7503 280.797C61.3459 280.597 61.9268 280.414 62.4944 280.244C62.4846 278.456 62.4733 276.313 62.4554 273.032C62.4018 263.244 63.6748 255.112 77.8958 254.601C86.7658 254.281 82.6304 254.343 88.7054 254.285V253.867L101.228 247.396C99.4893 245.533 97.9545 243.478 96.6585 241.266H88.764C88.764 241.266 85.7972 230.411 85.7972 223.171C85.7972 215.931 88.764 204.187 88.764 204.187H97.7532V204.619C100.594 200.373 104.349 196.791 108.739 194.155V187.95C108.739 187.95 118.813 185.342 125.99 185.067V179.741C122.769 178.98 120.372 176.089 120.371 172.636C120.371 168.602 123.641 165.332 127.674 165.332ZM450.298 293.479L450.383 293.288H449.863L450.298 293.479Z"/>
</mask>
<path d="M496.964 118.803C500.997 118.803 504.267 122.072 504.267 126.105C504.267 129.559 501.87 132.45 498.65 133.211V139.589H515.503V145.77H543.086C545.228 145.77 546.964 147.506 546.964 149.647V168.241H552.582V205.32H552.016L551.876 225.584C563.964 232.039 572.323 245.724 566.992 263.329C566.901 263.63 566.759 263.927 566.582 264.183C564.392 267.362 562.365 269.664 560.304 271.279C560.2 272.383 560.078 273.521 559.934 274.703C559.782 275.949 558.749 276.916 557.5 276.997L552.335 277.334C552.054 277.352 551.781 277.321 551.523 277.254L551.503 280.174C551.501 280.528 551.352 280.865 551.094 281.107L541.074 290.495V293.288H540.635L556.864 341.809L570.384 336.586L577.37 354.671L526.734 374.233L519.747 356.148L521.26 355.563L500.43 293.288H492.121L485.199 308.833L485.473 308.954L470.12 343.854L426.123 324.5L419.779 338.448L402.131 330.421L424.61 281.009L442.256 289.037L441.912 289.79L449.307 293.043V282.259C434.135 282.21 421.694 279.883 421.694 257.173C421.694 235.532 425.212 217.286 445.84 218.468V205.32H440.222V168.241H445.84V149.647C445.84 147.506 447.576 145.77 449.717 145.77H478.424V139.589H495.279V133.211C492.058 132.45 489.66 129.559 489.66 126.105C489.661 122.072 492.931 118.803 496.964 118.803ZM309.306 30.2686C313.339 30.2688 316.609 33.5388 316.609 37.5723C316.609 41.3282 313.773 44.4202 310.126 44.8281V54.0693H320.097V62.2939H333.668C335.81 62.2941 337.545 64.0305 337.545 66.1719V84.5527H342.657V121.632H337.545V162.747C337.545 164.888 335.81 166.625 333.668 166.625H342.677V167.284C350.188 168.714 351.062 192.168 351.125 200.904C351.138 202.612 352.426 204.149 353.871 204.149H375.244C375.698 203.696 376.326 203.424 377.013 203.424H385.952C387.117 203.424 388.167 204.202 388.482 205.332C390.997 214.369 390.814 220.186 389.149 229.197C388.931 230.377 387.906 231.212 386.7 231.212H377.799C376.651 231.212 375.613 230.455 375.282 229.347C375.271 229.31 375.26 229.274 375.249 229.237C365.699 229.237 363.9 229.237 351.112 229.237C348.18 229.237 345.345 229.159 342.677 228.876V264.207H341.466L366.108 337.88L388.144 329.367L395.131 347.452L344.494 367.015L337.507 348.93L340.783 347.663L312.87 264.207H301.059L277.52 315.481L259.895 307.39L234.776 296.339L222.675 322.939L205.029 314.911L227.506 265.5L245.154 273.527L245.052 273.748L265.284 282.648L273.751 264.207H272.238V229.287C257.33 229.179 245.206 226.623 245.206 204.204C245.206 182.074 247.616 167.712 270.64 166.7C271.223 166.675 271.781 166.918 272.238 167.327V166.625H283.026C280.884 166.625 279.148 164.889 279.148 162.747V121.846H273.53V84.7666H279.148V66.1719C279.148 64.0304 280.884 62.2939 283.026 62.2939H298.124V54.0693H308.132V44.7793C304.657 44.2178 302.002 41.2061 302.002 37.5723C302.002 33.5387 305.272 30.2686 309.306 30.2686ZM127.674 165.332C131.708 165.332 134.978 168.602 134.978 172.636C134.978 176.089 132.58 178.979 129.36 179.74V185.12C136.43 185.582 145.575 187.95 145.575 187.95V194.972C149.264 197.415 152.457 200.548 154.971 204.186H162.641C162.641 204.186 165.608 215.93 165.608 223.17C165.608 230.404 162.646 241.246 162.641 241.265H156.363C154.886 243.786 153.1 246.103 151.055 248.164L160.438 253.867V254.306C163.403 254.334 161.581 254.33 169.097 254.601C183.318 255.112 184.59 263.244 184.536 273.032C184.518 276.452 184.505 278.636 184.495 280.47C185.014 280.587 185.544 280.714 186.088 280.851C187.183 281.125 187.927 282.112 187.927 283.25V292.337C187.927 293.466 187.194 294.493 186.108 294.832C178.366 297.244 173.322 297.052 165.608 295.398C164.465 295.153 163.669 294.145 163.669 292.968V283.926C163.669 282.814 164.379 281.8 165.442 281.443C165.507 281.421 165.572 281.399 165.637 281.378L165.53 275.566C165.504 274.217 164.156 273.017 162.605 272.896C162.501 272.888 162.396 272.886 162.291 272.888L160.438 272.92V305.566H158.356L170.956 337.308L182.864 332.708L188.633 347.642L146.82 363.795L141.051 348.862L141.586 348.654L124.481 305.566H121.578L123.191 306.298L114.086 326.36L114.281 326.446L101.603 355.265L64.0032 338.725L58.6868 350.412L44.1145 343.783L62.6761 302.981L77.2483 309.61L77.0413 310.063L85.2649 313.682L88.9476 305.566H88.7054V272.828C88.7034 272.829 88.7015 272.83 88.6995 272.83C88.404 272.908 88.0942 272.948 87.7796 272.942L84.7005 272.888C84.5957 272.886 84.4914 272.888 84.388 272.896C82.8371 273.016 81.4873 274.217 81.4622 275.566L81.3753 280.198C81.3825 280.2 81.3896 280.202 81.3968 280.204C82.4923 280.479 83.2366 281.466 83.2366 282.604V291.69C83.2365 292.82 82.5039 293.847 81.4173 294.186C73.6759 296.597 68.631 296.405 60.9173 294.752C59.7746 294.507 58.9778 293.498 58.9778 292.321V283.279C58.9779 282.168 59.6879 281.153 60.7503 280.797C61.3459 280.597 61.9268 280.414 62.4944 280.244C62.4846 278.456 62.4733 276.313 62.4554 273.032C62.4018 263.244 63.6748 255.112 77.8958 254.601C86.7658 254.281 82.6304 254.343 88.7054 254.285V253.867L101.228 247.396C99.4893 245.533 97.9545 243.478 96.6585 241.266H88.764C88.764 241.266 85.7972 230.411 85.7972 223.171C85.7972 215.931 88.764 204.187 88.764 204.187H97.7532V204.619C100.594 200.373 104.349 196.791 108.739 194.155V187.95C108.739 187.95 118.813 185.342 125.99 185.067V179.741C122.769 178.98 120.372 176.089 120.371 172.636C120.371 168.602 123.641 165.332 127.674 165.332ZM450.298 293.479L450.383 293.288H449.863L450.298 293.479Z" fill="#D9D9D9"/>
<path d="M496.964 118.803L496.964 109.109H496.964V118.803ZM504.267 126.105H513.96V126.105L504.267 126.105ZM498.65 133.211L496.42 123.777L488.956 125.542V133.211H498.65ZM498.65 139.589H488.956V149.282H498.65V139.589ZM515.503 139.589H525.197V129.895H515.503V139.589ZM515.503 145.77H505.81V155.463H515.503V145.77ZM546.964 168.241H537.271V177.935H546.964V168.241ZM552.582 168.241H562.276V158.548H552.582V168.241ZM552.582 205.32V215.014H562.276V205.32H552.582ZM552.016 205.32V195.627H542.389L542.323 205.254L552.016 205.32ZM551.876 225.584L542.183 225.517L542.143 231.375L547.31 234.135L551.876 225.584ZM566.992 263.329L576.27 266.138L566.992 263.329ZM566.582 264.183L574.565 269.682V269.682L566.582 264.183ZM560.304 271.279L554.325 263.65L551.043 266.221L550.653 270.373L560.304 271.279ZM559.934 274.703L569.556 275.875L569.557 275.874L559.934 274.703ZM557.5 276.997L558.131 286.67L557.5 276.997ZM552.335 277.334L551.704 267.661L552.335 277.334ZM551.523 277.254L553.975 267.876L541.913 264.722L541.829 277.189L551.523 277.254ZM551.503 280.174L561.197 280.243V280.239L551.503 280.174ZM551.094 281.107L557.721 288.182L557.723 288.181L551.094 281.107ZM541.074 290.495L534.446 283.421L531.38 286.294V290.495H541.074ZM541.074 293.288V302.982H550.767V293.288H541.074ZM540.635 293.288V283.594H527.171L531.442 296.363L540.635 293.288ZM556.864 341.809L547.671 344.883L550.89 354.508L560.356 350.851L556.864 341.809ZM570.384 336.586L579.426 333.093L575.933 324.051L566.891 327.544L570.384 336.586ZM577.37 354.671L580.864 363.713L589.906 360.22L586.413 351.178L577.37 354.671ZM526.734 374.233L517.691 377.727L521.185 386.769L530.227 383.276L526.734 374.233ZM519.747 356.148L516.251 347.107L507.213 350.602L510.705 359.642L519.747 356.148ZM521.26 355.563L524.756 364.605L533.389 361.266L530.453 352.489L521.26 355.563ZM500.43 293.288L509.623 290.213L507.409 283.594H500.43V293.288ZM492.121 293.288V283.594H485.827L483.266 289.344L492.121 293.288ZM485.199 308.833L476.343 304.889L472.386 313.775L481.285 317.702L485.199 308.833ZM485.473 308.954L494.346 312.857L498.245 303.995L489.386 300.086L485.473 308.954ZM470.12 343.854L466.217 352.728L475.09 356.631L478.993 347.758L470.12 343.854ZM426.123 324.5L430.027 315.627L421.264 311.772L417.3 320.486L426.123 324.5ZM419.779 338.448L415.765 347.272L424.589 351.285L428.602 342.462L419.779 338.448ZM402.131 330.421L393.308 326.407L389.294 335.231L398.118 339.245L402.131 330.421ZM424.61 281.009L428.624 272.185L419.8 268.171L415.786 276.995L424.61 281.009ZM442.256 289.037L451.074 293.063L455.105 284.233L446.27 280.214L442.256 289.037ZM441.912 289.79L433.094 285.764L429.012 294.705L438.009 298.663L441.912 289.79ZM449.307 293.043L445.404 301.916L459.001 307.897V293.043H449.307ZM449.307 282.259H459.001V272.596L449.338 272.565L449.307 282.259ZM421.694 257.173L412 257.173V257.173L421.694 257.173ZM445.84 218.468L445.286 228.145L455.534 228.733V218.468H445.84ZM445.84 205.32H455.534V195.627H445.84V205.32ZM440.222 205.32H430.528V215.014H440.222V205.32ZM440.222 168.241V158.548H430.528V168.241H440.222ZM445.84 168.241V177.935H455.534V168.241H445.84ZM449.717 145.77V136.076H449.716L449.717 145.77ZM478.424 145.77V155.463H488.118V145.77H478.424ZM478.424 139.589V129.895H468.731V139.589H478.424ZM495.279 139.589V149.282H504.972V139.589H495.279ZM495.279 133.211H504.972V125.541L497.508 123.777L495.279 133.211ZM489.66 126.105L479.967 126.105V126.105H489.66ZM309.306 30.2686L309.306 20.575H309.306V30.2686ZM316.609 37.5723L326.302 37.5727V37.5723H316.609ZM310.126 44.8281L309.049 35.1946L300.433 36.1583V44.8281H310.126ZM310.126 54.0693H300.433V63.7629H310.126V54.0693ZM320.097 54.0693H329.791V44.3757H320.097V54.0693ZM320.097 62.2939H310.403V71.9875H320.097V62.2939ZM333.668 62.2939L333.669 52.6003H333.668V62.2939ZM337.545 84.5527H327.852V94.2463H337.545V84.5527ZM342.657 84.5527H352.35V74.8591H342.657V84.5527ZM342.657 121.632V131.325H352.35V121.632H342.657ZM337.545 121.632V111.938H327.852V121.632H337.545ZM333.668 166.625L333.667 156.931L333.668 176.319V166.625ZM342.677 166.625H352.371V156.931H342.677V166.625ZM342.677 167.284H332.983V175.307L340.865 176.807L342.677 167.284ZM351.125 200.904L360.819 200.834V200.834L351.125 200.904ZM353.871 204.149L353.87 213.843H353.871V204.149ZM375.244 204.149V213.843H379.258L382.097 211.005L375.244 204.149ZM388.482 205.332L397.82 202.732L397.82 202.732L388.482 205.332ZM389.149 229.197L398.681 230.959V230.959L389.149 229.197ZM386.7 231.212V240.906H386.7L386.7 231.212ZM377.799 231.212L377.798 240.906H377.799V231.212ZM375.282 229.347L365.994 232.122L365.994 232.123L375.282 229.347ZM375.249 229.237L384.541 226.475L382.48 219.544H375.249V229.237ZM351.112 229.237L351.112 238.931L351.112 229.237ZM342.677 228.876L343.7 219.237L332.983 218.099V228.876H342.677ZM342.677 264.207V273.901H352.371V264.207H342.677ZM341.466 264.207V254.513H328.002L332.273 267.282L341.466 264.207ZM366.108 337.88L356.915 340.955L360.134 350.579L369.601 346.922L366.108 337.88ZM388.144 329.367L397.186 325.874L393.693 316.832L384.651 320.325L388.144 329.367ZM395.131 347.452L398.624 356.494L407.667 353.001L404.173 343.959L395.131 347.452ZM344.494 367.015L335.452 370.508L338.946 379.55L347.988 376.057L344.494 367.015ZM337.507 348.93L334.012 339.888L324.972 343.383L328.465 352.423L337.507 348.93ZM340.783 347.663L344.279 356.705L352.913 353.367L349.977 344.588L340.783 347.663ZM312.87 264.207L322.063 261.132L319.85 254.513H312.87V264.207ZM301.059 264.207V254.513H294.843L292.249 260.163L301.059 264.207ZM277.52 315.481L273.475 324.291L282.285 328.336L286.329 319.526L277.52 315.481ZM259.895 307.39L263.939 298.58L263.869 298.548L263.798 298.517L259.895 307.39ZM234.776 296.339L238.679 287.466L229.916 283.611L225.952 292.325L234.776 296.339ZM222.675 322.939L218.661 331.763L227.485 335.777L231.499 326.953L222.675 322.939ZM205.029 314.911L196.205 310.897L192.191 319.72L201.014 323.734L205.029 314.911ZM227.506 265.5L231.52 256.676L222.696 252.663L218.683 261.486L227.506 265.5ZM245.154 273.527L253.96 277.58L258.03 268.735L249.167 264.704L245.154 273.527ZM245.052 273.748L236.246 269.696L232.125 278.651L241.149 282.621L245.052 273.748ZM265.284 282.648L261.381 291.521L270.113 295.363L274.094 286.693L265.284 282.648ZM273.751 264.207L282.561 268.252L288.868 254.513H273.751V264.207ZM272.238 264.207H262.544V273.901H272.238V264.207ZM272.238 229.287H281.931V219.664L272.308 219.594L272.238 229.287ZM245.206 204.204L235.513 204.204L245.206 204.204ZM270.64 166.7L270.215 157.016L270.214 157.016L270.64 166.7ZM272.238 167.327L265.762 174.541L281.931 189.055V167.327H272.238ZM272.238 166.625V156.931H262.544V166.625H272.238ZM279.148 121.846H288.841V112.152H279.148V121.846ZM273.53 121.846H263.836V131.539H273.53V121.846ZM273.53 84.7666V75.073H263.836V84.7666H273.53ZM279.148 84.7666V94.4602H288.841V84.7666H279.148ZM298.124 62.2939V71.9875H307.818V62.2939H298.124ZM298.124 54.0693V44.3757H288.431V54.0693H298.124ZM308.132 54.0693V63.7629H317.826V54.0693H308.132ZM308.132 44.7793H317.826V36.5261L309.678 35.2098L308.132 44.7793ZM302.002 37.5723H292.309V37.5727L302.002 37.5723ZM127.674 165.332V155.638H127.674L127.674 165.332ZM134.978 172.636L144.671 172.636V172.636H134.978ZM129.36 179.74L127.131 170.306L119.666 172.07V179.74H129.36ZM129.36 185.12H119.666V194.201L128.728 194.793L129.36 185.12ZM145.575 187.95H155.268V180.447L148.005 178.566L145.575 187.95ZM145.575 194.972H135.881V200.179L140.222 203.054L145.575 194.972ZM154.971 204.186L146.996 209.697L149.887 213.879H154.971V204.186ZM162.641 204.186L172.039 201.811L170.19 194.492H162.641V204.186ZM165.608 223.17H175.301V223.17L165.608 223.17ZM162.641 241.265V250.958H170.041L171.992 243.82L162.641 241.265ZM156.363 241.265V231.571H150.806L147.998 236.365L156.363 241.265ZM151.055 248.164L144.173 241.337L135.517 250.063L146.02 256.448L151.055 248.164ZM160.438 253.867H170.131V248.415L165.473 245.584L160.438 253.867ZM160.438 254.306H150.744V263.908L160.346 263.999L160.438 254.306ZM169.097 254.601L169.446 244.913H169.446L169.097 254.601ZM184.536 273.032L194.23 273.085V273.085L184.536 273.032ZM184.495 280.47L174.802 280.417L174.759 288.209L182.36 289.925L184.495 280.47ZM186.088 280.851L188.448 271.449L188.447 271.448L186.088 280.851ZM187.927 283.25H197.621V283.249L187.927 283.25ZM187.927 292.337L197.621 292.338V292.337H187.927ZM186.108 294.832L188.991 304.087H188.991L186.108 294.832ZM165.608 295.398L163.576 304.877H163.576L165.608 295.398ZM163.669 292.968H173.363H163.669ZM163.669 283.926H153.976H163.669ZM165.442 281.443L162.36 272.253L162.36 272.253L165.442 281.443ZM165.637 281.378L168.687 290.579L175.461 288.334L175.329 281.199L165.637 281.378ZM165.53 275.566L175.222 275.387L175.221 275.386L165.53 275.566ZM162.605 272.896L161.857 282.561H161.857L162.605 272.896ZM162.291 272.888L162.46 282.58L162.465 282.58L162.291 272.888ZM160.438 272.92L160.269 263.228L150.744 263.393V272.92H160.438ZM160.438 305.566V315.26H170.131V305.566H160.438ZM158.356 305.566V295.873H144.078L149.346 309.143L158.356 305.566ZM170.956 337.308L161.947 340.884L165.49 349.811L174.449 346.35L170.956 337.308ZM182.864 332.708L191.906 329.215L188.413 320.173L179.371 323.666L182.864 332.708ZM188.633 347.642L192.126 356.684L201.169 353.191L197.675 344.148L188.633 347.642ZM146.82 363.795L137.777 367.288L141.27 376.33L150.313 372.837L146.82 363.795ZM141.051 348.862L137.539 339.827L128.523 343.332L132.009 352.355L141.051 348.862ZM141.586 348.654L145.098 357.689L154.198 354.152L150.596 345.078L141.586 348.654ZM124.481 305.566L133.49 301.99L131.062 295.873H124.481V305.566ZM121.578 305.566V295.873L117.574 314.394L121.578 305.566ZM123.191 306.298L132.018 310.304L136.024 301.475L127.196 297.47L123.191 306.298ZM114.086 326.36L105.259 322.355L101.214 331.267L110.166 335.226L114.086 326.36ZM114.281 326.446L123.154 330.35L127.049 321.494L118.201 317.581L114.281 326.446ZM101.603 355.265L97.6996 364.138L106.572 368.041L110.476 359.168L101.603 355.265ZM64.0032 338.725L67.9065 329.852L59.1435 325.997L55.1796 334.711L64.0032 338.725ZM58.6868 350.412L54.673 359.236L63.4967 363.25L67.5104 354.426L58.6868 350.412ZM44.1145 343.783L35.2911 339.769L31.277 348.593L40.1007 352.607L44.1145 343.783ZM62.6761 302.981L66.6899 294.158L57.8665 290.144L53.8526 298.967L62.6761 302.981ZM77.2483 309.61L86.0652 313.639L90.1003 304.807L81.2622 300.787L77.2483 309.61ZM77.0413 310.063L68.2244 306.035L64.1388 314.977L73.1375 318.936L77.0413 310.063ZM85.2649 313.682L81.3612 322.554L90.1323 326.413L94.0922 317.687L85.2649 313.682ZM88.9476 305.566L97.7748 309.572L103.991 295.873H88.9476V305.566ZM88.7054 305.566H79.0118V315.26H88.7054V305.566ZM88.7054 272.828H98.399V260.207L86.2052 263.463L88.7054 272.828ZM88.6995 272.83L91.183 282.2L88.6995 272.83ZM87.7796 272.942L87.9534 263.25L87.9517 263.25L87.7796 272.942ZM84.7005 272.888L84.5272 282.58L84.5283 282.58L84.7005 272.888ZM84.388 272.896L85.1353 282.561H85.1353L84.388 272.896ZM81.4622 275.566L91.1541 275.748L91.1541 275.747L81.4622 275.566ZM81.3753 280.198L71.6834 280.016L71.5387 287.727L79.0194 289.601L81.3753 280.198ZM81.3968 280.204L83.7554 270.802L83.7553 270.802L81.3968 280.204ZM83.2366 282.604H73.543H83.2366ZM83.2366 291.69L92.9302 291.691V291.69H83.2366ZM81.4173 294.186L84.3004 303.44L84.302 303.44L81.4173 294.186ZM60.9173 294.752L58.8855 304.23H58.8855L60.9173 294.752ZM58.9778 292.321H68.6714H58.9778ZM58.9778 283.279L49.2842 283.278V283.279H58.9778ZM60.7503 280.797L57.669 271.606L57.6681 271.606L60.7503 280.797ZM62.4944 280.244L65.267 289.533L72.2277 287.455L72.1879 280.191L62.4944 280.244ZM62.4554 273.032L52.7619 273.085L52.7619 273.085L62.4554 273.032ZM77.8958 254.601L78.2445 264.288H78.2445L77.8958 254.601ZM88.7054 254.285L88.7981 263.978L98.399 263.886V254.285H88.7054ZM88.7054 253.867L84.2554 245.255L79.0118 247.965V253.867H88.7054ZM101.228 247.396L105.678 256.008L117.042 250.136L108.315 240.783L101.228 247.396ZM96.6585 241.266L105.023 236.366L102.214 231.572H96.6585V241.266ZM88.764 241.266L79.4133 243.821L81.3643 250.959H88.764V241.266ZM85.7972 223.171H76.1036L76.1036 223.171L85.7972 223.171ZM88.764 204.187V194.493H81.2146L79.3656 201.812L88.764 204.187ZM97.7532 204.187H107.447V194.493H97.7532V204.187ZM97.7532 204.619H88.0596V236.546L105.81 210.009L97.7532 204.619ZM108.739 194.155L113.729 202.466L118.432 199.642V194.155H108.739ZM108.739 187.95L106.309 178.566L99.045 180.446V187.95H108.739ZM125.99 185.067L126.36 194.754L135.683 194.397V185.067H125.99ZM125.99 179.741H135.683V172.071L128.218 170.307L125.99 179.741ZM120.371 172.636H110.678V172.636L120.371 172.636ZM450.298 293.479L446.398 302.354L455.24 306.24L459.158 297.412L450.298 293.479ZM450.383 293.288L459.243 297.221L465.292 283.594H450.383V293.288ZM449.863 293.288V283.594L445.963 302.163L449.863 293.288ZM496.964 118.803L496.964 128.496C495.644 128.496 494.573 127.426 494.573 126.106L504.267 126.105L513.96 126.105C513.96 116.719 506.351 109.109 496.964 109.109L496.964 118.803ZM504.267 126.105H494.573C494.573 124.959 495.369 124.026 496.42 123.777L498.65 133.211L500.88 142.645C508.371 140.874 513.96 134.158 513.96 126.105H504.267ZM498.65 133.211H488.956V139.589H498.65H508.343V133.211H498.65ZM498.65 139.589V149.282H515.503V139.589V129.895H498.65V139.589ZM515.503 139.589H505.81V145.77H515.503H525.197V139.589H515.503ZM515.503 145.77V155.463H543.086V145.77V136.076H515.503V145.77ZM543.086 145.77V155.463C539.874 155.463 537.271 152.86 537.271 149.647H546.964H556.658C556.658 142.152 550.581 136.076 543.086 136.076V145.77ZM546.964 149.647H537.271V168.241H546.964H556.658V149.647H546.964ZM546.964 168.241V177.935H552.582V168.241V158.548H546.964V168.241ZM552.582 168.241H542.889V205.32H552.582H562.276V168.241H552.582ZM552.582 205.32V195.627H552.016V205.32V215.014H552.582V205.32ZM552.016 205.32L542.323 205.254L542.183 225.517L551.876 225.584L561.57 225.651L561.709 205.387L552.016 205.32ZM551.876 225.584L547.31 234.135C555.847 238.694 561.539 247.89 557.715 260.52L566.992 263.329L576.27 266.138C583.106 243.559 572.081 225.385 556.443 217.033L551.876 225.584ZM566.992 263.329L557.715 260.52C557.912 259.869 558.204 259.258 558.6 258.683L566.582 264.183L574.565 269.682C575.313 268.596 575.891 267.39 576.27 266.138L566.992 263.329ZM566.582 264.183L558.6 258.683C556.713 261.422 555.328 262.863 554.325 263.65L560.304 271.279L566.283 278.909C569.402 276.465 572.071 273.302 574.565 269.682L566.582 264.183ZM560.304 271.279L550.653 270.373C550.558 271.385 550.445 272.435 550.311 273.533L559.934 274.703L569.557 275.874C569.711 274.607 569.843 273.381 569.955 272.186L560.304 271.279ZM559.934 274.703L550.311 273.531C550.729 270.105 553.512 267.543 556.869 267.324L557.5 276.997L558.131 286.67C563.985 286.288 568.836 281.793 569.556 275.875L559.934 274.703ZM557.5 276.997L556.869 267.324L551.704 267.661L552.335 277.334L552.966 287.007L558.131 286.67L557.5 276.997ZM552.335 277.334L551.704 267.661C552.543 267.606 553.312 267.702 553.975 267.876L551.523 277.254L549.071 286.632C550.25 286.941 551.565 287.098 552.966 287.007L552.335 277.334ZM551.523 277.254L541.829 277.189L541.81 280.109L551.503 280.174L561.197 280.239L561.216 277.319L551.523 277.254ZM551.503 280.174L541.81 280.104C541.826 277.791 542.794 275.6 544.466 274.034L551.094 281.107L557.723 288.181C559.91 286.13 561.175 283.265 561.197 280.243L551.503 280.174ZM551.094 281.107L544.467 274.033L534.446 283.421L541.074 290.495L547.701 297.569L557.721 288.182L551.094 281.107ZM541.074 290.495H531.38V293.288H541.074H550.767V290.495H541.074ZM541.074 293.288V283.594H540.635V293.288V302.982H541.074V293.288ZM540.635 293.288L531.442 296.363L547.671 344.883L556.864 341.809L566.057 338.734L549.828 290.213L540.635 293.288ZM556.864 341.809L560.356 350.851L573.877 345.628L570.384 336.586L566.891 327.544L553.371 332.766L556.864 341.809ZM570.384 336.586L561.342 340.079L568.328 358.164L577.37 354.671L586.413 351.178L579.426 333.093L570.384 336.586ZM577.37 354.671L573.877 345.629L523.24 365.191L526.734 374.233L530.227 383.276L580.864 363.713L577.37 354.671ZM526.734 374.233L535.776 370.74L528.79 352.655L519.747 356.148L510.705 359.642L517.691 377.727L526.734 374.233ZM519.747 356.148L523.244 365.19L524.756 364.605L521.26 355.563L517.764 346.522L516.251 347.107L519.747 356.148ZM521.26 355.563L530.453 352.489L509.623 290.213L500.43 293.288L491.237 296.363L512.067 358.638L521.26 355.563ZM500.43 293.288V283.594H492.121V293.288V302.982H500.43V293.288ZM492.121 293.288L483.266 289.344L476.343 304.889L485.199 308.833L494.054 312.777L500.977 297.232L492.121 293.288ZM485.199 308.833L481.285 317.702L481.559 317.823L485.473 308.954L489.386 300.086L489.112 299.965L485.199 308.833ZM485.473 308.954L476.6 305.051L461.247 339.951L470.12 343.854L478.993 347.758L494.346 312.857L485.473 308.954ZM470.12 343.854L474.024 334.981L430.027 315.627L426.123 324.5L422.22 333.373L466.217 352.728L470.12 343.854ZM426.123 324.5L417.3 320.486L410.955 334.435L419.779 338.448L428.602 342.462L434.947 328.514L426.123 324.5ZM419.779 338.448L423.792 329.625L406.145 321.597L402.131 330.421L398.118 339.245L415.765 347.272L419.779 338.448ZM402.131 330.421L410.955 334.435L433.433 285.023L424.61 281.009L415.786 276.995L393.308 326.407L402.131 330.421ZM424.61 281.009L420.595 289.832L438.242 297.86L442.256 289.037L446.27 280.214L428.624 272.185L424.61 281.009ZM442.256 289.037L433.438 285.011L433.094 285.764L441.912 289.79L450.73 293.816L451.074 293.063L442.256 289.037ZM441.912 289.79L438.009 298.663L445.404 301.916L449.307 293.043L453.21 284.17L445.816 280.917L441.912 289.79ZM449.307 293.043H459.001V282.259H449.307H439.613V293.043H449.307ZM449.307 282.259L449.338 272.565C441.614 272.541 437.563 271.773 435.286 270.214C433.961 269.308 431.387 266.842 431.387 257.173L421.694 257.173L412 257.173C412 270.214 415.647 280.266 424.336 286.213C432.073 291.508 441.827 291.929 449.276 291.952L449.307 282.259ZM421.694 257.173L431.387 257.173C431.387 246.409 432.35 238.44 434.751 233.497C435.829 231.277 437.017 230.065 438.245 229.349C439.485 228.626 441.585 227.933 445.286 228.145L445.84 218.468L446.395 208.79C439.781 208.411 433.706 209.556 428.484 212.598C423.252 215.647 419.691 220.128 417.312 225.026C412.797 234.322 412 246.296 412 257.173L421.694 257.173ZM445.84 218.468H455.534V205.32H445.84H436.147V218.468H445.84ZM445.84 205.32V195.627H440.222V205.32V215.014H445.84V205.32ZM440.222 205.32H449.916V168.241H440.222H430.528V205.32H440.222ZM440.222 168.241V177.935H445.84V168.241V158.548H440.222V168.241ZM445.84 168.241H455.534V149.647H445.84H436.147V168.241H445.84ZM445.84 149.647H455.534C455.534 152.858 452.932 155.463 449.718 155.463L449.717 145.77L449.716 136.076C442.22 136.077 436.147 142.155 436.147 149.647H445.84ZM449.717 145.77V155.463H478.424V145.77V136.076H449.717V145.77ZM478.424 145.77H488.118V139.589H478.424H468.731V145.77H478.424ZM478.424 139.589V149.282H495.279V139.589V129.895H478.424V139.589ZM495.279 139.589H504.972V133.211H495.279H485.585V139.589H495.279ZM495.279 133.211L497.508 123.777C498.557 124.025 499.354 124.958 499.354 126.105H489.66H479.967C479.967 134.16 485.559 140.875 493.049 142.645L495.279 133.211ZM489.66 126.105L499.354 126.106C499.354 127.427 498.283 128.496 496.964 128.496V118.803V109.109C487.578 109.109 479.967 116.717 479.967 126.105L489.66 126.105ZM309.306 30.2686L309.305 39.9621C307.984 39.9621 306.915 38.8913 306.915 37.5723H316.609H326.302C326.302 28.1864 318.694 20.5754 309.306 20.575L309.306 30.2686ZM316.609 37.5723L306.915 37.5719C306.915 36.3336 307.847 35.329 309.049 35.1946L310.126 44.8281L311.204 54.4616C319.699 53.5114 326.302 46.3228 326.302 37.5727L316.609 37.5723ZM310.126 44.8281H300.433V54.0693H310.126H319.82V44.8281H310.126ZM310.126 54.0693V63.7629H320.097V54.0693V44.3757H310.126V54.0693ZM320.097 54.0693H310.403V62.2939H320.097H329.791V54.0693H320.097ZM320.097 62.2939V71.9875H333.668V62.2939V52.6003H320.097V62.2939ZM333.668 62.2939L333.667 71.9875C330.453 71.9873 327.852 69.3818 327.852 66.1719H337.545H347.239C347.239 58.6793 341.166 52.601 333.669 52.6004L333.668 62.2939ZM337.545 66.1719H327.852V84.5527H337.545H347.239V66.1719H337.545ZM337.545 84.5527V94.2463H342.657V84.5527V74.8591H337.545V84.5527ZM342.657 84.5527H332.963V121.632H342.657H352.35V84.5527H342.657ZM342.657 121.632V111.938H337.545V121.632V131.325H342.657V121.632ZM337.545 121.632H327.852V162.747H337.545H347.239V121.632H337.545ZM337.545 162.747H327.852C327.852 159.537 330.453 156.932 333.667 156.931L333.668 166.625L333.669 176.319C341.166 176.318 347.239 170.24 347.239 162.747H337.545ZM333.668 166.625V176.319H342.677V166.625V156.931H333.668V166.625ZM342.677 166.625H332.983V167.284H342.677H352.371V166.625H342.677ZM342.677 167.284L340.865 176.807C337.792 176.222 337.443 173.943 338.314 175.883C338.944 177.287 339.595 179.662 340.127 182.917C341.169 189.296 341.401 196.742 341.432 200.975L351.125 200.904L360.819 200.834C360.786 196.33 360.549 187.682 359.261 179.792C358.627 175.912 357.647 171.61 356 167.941C354.593 164.808 351.318 159.061 344.49 157.762L342.677 167.284ZM351.125 200.904L341.432 200.975C341.455 204.188 342.651 207.164 344.551 209.417C346.414 211.626 349.619 213.842 353.87 213.843L353.871 204.149L353.873 194.456C356.679 194.456 358.516 195.904 359.371 196.917C360.262 197.974 360.808 199.328 360.819 200.834L351.125 200.904ZM353.871 204.149V213.843H375.244V204.149V194.456H353.871V204.149ZM375.244 204.149L382.097 211.005C380.752 212.35 378.924 213.117 377.013 213.117V203.424V193.73C373.729 193.73 370.643 195.043 368.392 197.293L375.244 204.149ZM377.013 203.424V213.117H385.952V203.424V193.73H377.013V203.424ZM385.952 203.424V213.117C382.859 213.117 380.021 211.085 379.143 207.932L388.482 205.332L397.82 202.732C396.313 197.319 391.375 193.73 385.952 193.73V203.424ZM388.482 205.332L379.143 207.932C381.17 215.212 381.086 219.485 379.617 227.435L389.149 229.197L398.681 230.959C400.543 220.886 400.825 213.526 397.82 202.732L388.482 205.332ZM389.149 229.197L379.617 227.435C380.269 223.904 383.35 221.518 386.699 221.518L386.7 231.212L386.7 240.906C392.463 240.905 397.592 236.849 398.681 230.959L389.149 229.197ZM386.7 231.212V221.518H377.799V231.212V240.906H386.7V231.212ZM377.799 231.212L377.8 221.518C380.857 221.519 383.651 223.5 384.569 226.571L375.282 229.347L365.994 232.123C367.574 237.411 372.444 240.905 377.798 240.906L377.799 231.212ZM375.282 229.347L384.569 226.571C384.572 226.581 384.574 226.586 384.568 226.567C384.566 226.56 384.562 226.546 384.558 226.532C384.553 226.517 384.548 226.497 384.541 226.475L375.249 229.237L365.958 232C365.956 231.995 365.955 231.992 365.963 232.017C365.968 232.034 365.98 232.076 365.994 232.122L375.282 229.347ZM375.249 229.237V219.544C365.699 219.544 363.9 219.544 351.112 219.544L351.112 229.237L351.112 238.931C363.9 238.931 365.699 238.931 375.249 238.931V229.237ZM351.112 229.237L351.112 219.544C348.318 219.544 345.873 219.467 343.7 219.237L342.677 228.876L341.654 238.515C344.817 238.851 348.041 238.931 351.112 238.931L351.112 229.237ZM342.677 228.876H332.983V264.207H342.677H352.371V228.876H342.677ZM342.677 264.207V254.513H341.466V264.207V273.901H342.677V264.207ZM341.466 264.207L332.273 267.282L356.915 340.955L366.108 337.88L375.301 334.805L350.659 261.132L341.466 264.207ZM366.108 337.88L369.601 346.922L391.637 338.41L388.144 329.367L384.651 320.325L362.615 328.838L366.108 337.88ZM388.144 329.367L379.102 332.861L386.089 350.946L395.131 347.452L404.173 343.959L397.186 325.874L388.144 329.367ZM395.131 347.452L391.638 338.41L341.001 357.972L344.494 367.015L347.988 376.057L398.624 356.494L395.131 347.452ZM344.494 367.015L353.537 363.521L346.549 345.436L337.507 348.93L328.465 352.423L335.452 370.508L344.494 367.015ZM337.507 348.93L341.002 357.971L344.279 356.705L340.783 347.663L337.288 338.622L334.012 339.888L337.507 348.93ZM340.783 347.663L349.977 344.588L322.063 261.132L312.87 264.207L303.677 267.282L331.59 350.738L340.783 347.663ZM312.87 264.207V254.513H301.059V264.207V273.901H312.87V264.207ZM301.059 264.207L292.249 260.163L268.71 311.437L277.52 315.481L286.329 319.526L309.868 268.251L301.059 264.207ZM277.52 315.481L281.564 306.672L263.939 298.58L259.895 307.39L255.85 316.199L273.475 324.291L277.52 315.481ZM259.895 307.39L263.798 298.517L238.679 287.466L234.776 296.339L230.872 305.212L255.991 316.263L259.895 307.39ZM234.776 296.339L225.952 292.325L213.852 318.926L222.675 322.939L231.499 326.953L243.599 300.353L234.776 296.339ZM222.675 322.939L226.689 314.116L209.043 306.088L205.029 314.911L201.014 323.734L218.661 331.763L222.675 322.939ZM205.029 314.911L213.852 318.925L236.33 269.514L227.506 265.5L218.683 261.486L196.205 310.897L205.029 314.911ZM227.506 265.5L223.493 274.324L241.14 282.351L245.154 273.527L249.167 264.704L231.52 256.676L227.506 265.5ZM245.154 273.527L236.348 269.475L236.246 269.696L245.052 273.748L253.858 277.8L253.96 277.58L245.154 273.527ZM245.052 273.748L241.149 282.621L261.381 291.521L265.284 282.648L269.188 273.775L248.955 264.875L245.052 273.748ZM265.284 282.648L274.094 286.693L282.561 268.252L273.751 264.207L264.942 260.162L256.475 278.604L265.284 282.648ZM273.751 264.207V254.513H272.238V264.207V273.901H273.751V264.207ZM272.238 264.207H281.931V229.287H272.238H262.544V264.207H272.238ZM272.238 229.287L272.308 219.594C264.789 219.539 260.89 218.723 258.722 217.193C257.421 216.274 254.9 213.763 254.9 204.204L245.206 204.204L235.513 204.204C235.513 217.064 239.054 227.04 247.542 233.031C255.162 238.41 264.779 238.927 272.167 238.98L272.238 229.287ZM245.206 204.204L254.9 204.204C254.9 192.837 255.668 186.145 257.83 182.118C258.715 180.469 259.826 179.323 261.49 178.441C263.306 177.48 266.248 176.596 271.066 176.384L270.64 166.7L270.214 157.016C263.519 157.31 257.527 158.602 252.415 161.309C247.152 164.097 243.343 168.114 240.748 172.948C235.949 181.887 235.513 193.441 235.513 204.204L245.206 204.204ZM270.64 166.7L271.065 176.384C268.586 176.493 266.761 175.438 265.762 174.541L272.238 167.327L278.713 160.114C276.801 158.397 273.86 156.856 270.215 157.016L270.64 166.7ZM272.238 167.327H281.931V166.625H272.238H262.544V167.327H272.238ZM272.238 166.625V176.319H283.026V166.625V156.931H272.238V166.625ZM283.026 166.625V156.931C286.238 156.931 288.841 159.535 288.841 162.747H279.148H269.454C269.454 170.242 275.531 176.319 283.026 176.319V166.625ZM279.148 162.747H288.841V121.846H279.148H269.454V162.747H279.148ZM279.148 121.846V112.152H273.53V121.846V131.539H279.148V121.846ZM273.53 121.846H283.223V84.7666H273.53H263.836V121.846H273.53ZM273.53 84.7666V94.4602H279.148V84.7666V75.073H273.53V84.7666ZM279.148 84.7666H288.841V66.1719H279.148H269.454V84.7666H279.148ZM279.148 66.1719H288.841C288.841 69.384 286.238 71.9875 283.026 71.9875V62.2939V52.6003C275.531 52.6003 269.454 58.6768 269.454 66.1719H279.148ZM283.026 62.2939V71.9875H298.124V62.2939V52.6003H283.026V62.2939ZM298.124 62.2939H307.818V54.0693H298.124H288.431V62.2939H298.124ZM298.124 54.0693V63.7629H308.132V54.0693V44.3757H298.124V54.0693ZM308.132 54.0693H317.826V44.7793H308.132H298.439V54.0693H308.132ZM308.132 44.7793L309.678 35.2098C310.819 35.3941 311.696 36.3691 311.696 37.5719L302.002 37.5723L292.309 37.5727C292.309 46.0431 298.494 53.0415 306.586 54.3488L308.132 44.7793ZM302.002 37.5723H311.696C311.696 38.8923 310.626 39.9621 309.306 39.9621V30.2686V20.575C299.919 20.575 292.309 28.1851 292.309 37.5723H302.002ZM127.674 165.332V175.026C126.354 175.026 125.284 173.956 125.284 172.636H134.978H144.671C144.671 163.249 137.061 155.638 127.674 155.638V165.332ZM134.978 172.636L125.284 172.635C125.284 171.486 126.082 170.554 127.131 170.306L129.36 179.74L131.589 189.174C139.078 187.404 144.671 180.691 144.671 172.636L134.978 172.636ZM129.36 179.74H119.666V185.12H129.36H139.053V179.74H129.36ZM129.36 185.12L128.728 194.793C131.6 194.981 135.144 195.584 138.172 196.204C139.642 196.506 140.908 196.794 141.801 197.005C142.246 197.111 142.595 197.197 142.827 197.254C142.943 197.283 143.029 197.305 143.082 197.318C143.109 197.325 143.128 197.33 143.139 197.333C143.144 197.334 143.147 197.335 143.148 197.335C143.148 197.335 143.148 197.335 143.148 197.335C143.147 197.335 143.147 197.335 143.146 197.335C143.146 197.335 143.145 197.334 143.145 197.334C143.145 197.334 143.144 197.334 145.575 187.95C148.005 178.566 148.004 178.566 148.004 178.566C148.003 178.566 148.003 178.566 148.002 178.565C148.001 178.565 148 178.565 147.998 178.564C147.995 178.564 147.992 178.563 147.988 178.562C147.98 178.56 147.97 178.557 147.958 178.554C147.933 178.548 147.899 178.539 147.858 178.529C147.774 178.507 147.657 178.478 147.509 178.441C147.213 178.367 146.792 178.264 146.27 178.14C145.227 177.893 143.765 177.561 142.065 177.212C138.753 176.533 134.19 175.721 129.991 175.447L129.36 185.12ZM145.575 187.95H135.881V194.972H145.575H155.268V187.95H145.575ZM145.575 194.972L140.222 203.054C142.88 204.814 145.183 207.073 146.996 209.697L154.971 204.186L162.946 198.674C159.73 194.022 155.648 190.016 150.927 186.89L145.575 194.972ZM154.971 204.186V213.879H162.641V204.186V194.492H154.971V204.186ZM162.641 204.186C153.243 206.56 153.242 206.559 153.242 206.558C153.242 206.558 153.242 206.558 153.242 206.558C153.242 206.557 153.242 206.557 153.242 206.556C153.242 206.556 153.242 206.556 153.242 206.557C153.242 206.559 153.244 206.564 153.246 206.572C153.249 206.587 153.256 206.612 153.265 206.648C153.282 206.72 153.31 206.834 153.347 206.984C153.419 207.285 153.526 207.733 153.656 208.298C153.915 209.432 154.262 211.014 154.607 212.801C155.334 216.566 155.914 220.539 155.914 223.17L165.608 223.17L175.301 223.17C175.301 218.561 174.398 213.042 173.642 209.125C173.245 207.07 172.85 205.264 172.553 203.969C172.405 203.32 172.28 202.794 172.19 202.425C172.145 202.24 172.109 202.094 172.084 201.99C172.071 201.938 172.061 201.897 172.053 201.867C172.05 201.852 172.047 201.84 172.044 201.831C172.043 201.826 172.042 201.822 172.041 201.819C172.041 201.817 172.04 201.816 172.04 201.815C172.04 201.814 172.04 201.813 172.04 201.813C172.039 201.812 172.039 201.811 162.641 204.186ZM165.608 223.17H155.914C155.914 225.76 155.346 229.484 154.63 232.977C153.946 236.314 153.263 238.809 153.29 238.71L162.641 241.265L171.992 243.82C172.024 243.701 172.824 240.766 173.623 236.868C174.389 233.128 175.301 227.814 175.301 223.17H165.608ZM162.641 241.265V231.571H156.363V241.265V250.958H162.641V241.265ZM156.363 241.265L147.998 236.365C146.935 238.18 145.648 239.85 144.173 241.337L151.055 248.164L157.937 254.991C160.551 252.355 162.837 249.391 164.727 246.164L156.363 241.265ZM151.055 248.164L146.02 256.448L155.403 262.151L160.438 253.867L165.473 245.584L156.09 239.881L151.055 248.164ZM160.438 253.867H150.744V254.306H160.438H170.131V253.867H160.438ZM160.438 254.306L160.346 263.999C163.161 264.026 160.87 264.004 168.748 264.288L169.097 254.601L169.446 244.913C162.292 244.656 163.645 244.642 160.53 244.613L160.438 254.306ZM169.097 254.601L168.748 264.288C171.445 264.385 172.82 264.826 173.421 265.106C173.883 265.321 173.933 265.449 173.965 265.5C174.078 265.68 174.359 266.24 174.568 267.585C174.781 268.951 174.856 270.675 174.843 272.979L184.536 273.032L194.23 273.085C194.256 268.361 194.142 261.165 190.375 255.176C185.96 248.158 178.397 245.235 169.446 244.913L169.097 254.601ZM184.536 273.032L174.843 272.979C174.824 276.388 174.812 278.592 174.802 280.417L184.495 280.47L194.189 280.523C194.199 278.68 194.211 276.516 194.23 273.085L184.536 273.032ZM184.495 280.47L182.36 289.925C182.792 290.023 183.247 290.132 183.73 290.253L186.088 280.851L188.447 271.448C187.842 271.297 187.236 271.151 186.631 271.014L184.495 280.47ZM186.088 280.851L183.729 290.253C180.341 289.402 178.234 286.377 178.233 283.251L187.927 283.25L197.621 283.249C197.62 277.847 194.026 272.849 188.448 271.449L186.088 280.851ZM187.927 283.25H178.233V292.337H187.927H197.621V283.25H187.927ZM187.927 292.337L178.233 292.335C178.234 289.344 180.146 286.536 183.225 285.577L186.108 294.832L188.991 304.087C194.243 302.451 197.62 297.589 197.621 292.338L187.927 292.337ZM186.108 294.832L183.225 285.577C177.444 287.378 174.148 287.315 167.64 285.92L165.608 295.398L163.576 304.877C172.495 306.789 179.288 307.109 188.991 304.087L186.108 294.832ZM165.608 295.398L167.64 285.92C171.098 286.661 173.363 289.71 173.363 292.968H163.669H153.976C153.976 298.579 157.832 303.645 163.576 304.877L165.608 295.398ZM163.669 292.968H173.363V283.926H163.669H153.976V292.968H163.669ZM163.669 283.926H173.363C173.363 286.879 171.506 289.634 168.523 290.634L165.442 281.443L162.36 272.253C157.252 273.965 153.976 278.75 153.976 283.926H163.669ZM165.442 281.443L168.523 290.634C168.622 290.601 168.642 290.594 168.687 290.579L165.637 281.378L162.587 272.177C162.502 272.205 162.392 272.242 162.36 272.253L165.442 281.443ZM165.637 281.378L175.329 281.199L175.222 275.387L165.53 275.566L155.838 275.746L155.945 281.557L165.637 281.378ZM165.53 275.566L175.221 275.386C175.079 267.727 168.452 263.627 163.353 263.232L162.605 272.896L161.857 282.561C160.426 282.45 159.141 281.869 158.133 280.956C157.149 280.065 155.885 278.315 155.838 275.747L165.53 275.566ZM162.605 272.896L163.353 263.232C162.914 263.198 162.499 263.189 162.118 263.196L162.291 272.888L162.465 282.58C162.293 282.583 162.089 282.579 161.857 282.561L162.605 272.896ZM162.291 272.888L162.123 263.196L160.269 263.228L160.438 272.92L160.606 282.612L162.46 282.58L162.291 272.888ZM160.438 272.92H150.744V305.566H160.438H170.131V272.92H160.438ZM160.438 305.566V295.873H158.356V305.566V315.26H160.438V305.566ZM158.356 305.566L149.346 309.143L161.947 340.884L170.956 337.308L179.966 333.731L167.365 301.99L158.356 305.566ZM170.956 337.308L174.449 346.35L186.357 341.75L182.864 332.708L179.371 323.666L167.463 328.265L170.956 337.308ZM182.864 332.708L173.821 336.201L179.591 351.135L188.633 347.642L197.675 344.148L191.906 329.215L182.864 332.708ZM188.633 347.642L185.14 338.599L143.326 354.753L146.82 363.795L150.313 372.837L192.126 356.684L188.633 347.642ZM146.82 363.795L155.862 360.302L150.093 345.369L141.051 348.862L132.009 352.355L137.777 367.288L146.82 363.795ZM141.051 348.862L144.563 357.897L145.098 357.689L141.586 348.654L138.074 339.619L137.539 339.827L141.051 348.862ZM141.586 348.654L150.596 345.078L133.49 301.99L124.481 305.566L115.471 309.143L132.577 352.231L141.586 348.654ZM124.481 305.566V295.873H121.578V305.566V315.26H124.481V305.566ZM121.578 305.566L117.574 314.394L119.186 315.125L123.191 306.298L127.196 297.47L125.583 296.739L121.578 305.566ZM123.191 306.298L114.364 302.292L105.259 322.355L114.086 326.36L122.913 330.366L132.018 310.304L123.191 306.298ZM114.086 326.36L110.166 335.226L110.36 335.312L114.281 326.446L118.201 317.581L118.007 317.495L114.086 326.36ZM114.281 326.446L105.408 322.543L92.7299 351.361L101.603 355.265L110.476 359.168L123.154 330.35L114.281 326.446ZM101.603 355.265L105.506 346.392L67.9065 329.852L64.0032 338.725L60.1 347.598L97.6996 364.138L101.603 355.265ZM64.0032 338.725L55.1796 334.711L49.8632 346.398L58.6868 350.412L67.5104 354.426L72.8268 342.738L64.0032 338.725ZM58.6868 350.412L62.7006 341.589L48.1284 334.96L44.1145 343.783L40.1007 352.607L54.673 359.236L58.6868 350.412ZM44.1145 343.783L52.938 347.797L71.4995 306.995L62.6761 302.981L53.8526 298.967L35.2911 339.769L44.1145 343.783ZM62.6761 302.981L58.6622 311.805L73.2345 318.434L77.2483 309.61L81.2622 300.787L66.6899 294.158L62.6761 302.981ZM77.2483 309.61L68.4314 305.582L68.2244 306.035L77.0413 310.063L85.8582 314.092L86.0652 313.639L77.2483 309.61ZM77.0413 310.063L73.1375 318.936L81.3612 322.554L85.2649 313.682L89.1687 304.809L80.9451 301.191L77.0413 310.063ZM85.2649 313.682L94.0922 317.687L97.7748 309.572L88.9476 305.566L80.1203 301.561L76.4377 309.676L85.2649 313.682ZM88.9476 305.566V295.873H88.7054V305.566V315.26H88.9476V305.566ZM88.7054 305.566H98.399V272.828H88.7054H79.0118V305.566H88.7054ZM88.7054 272.828L86.2052 263.463C86.0614 263.501 85.9348 263.538 85.8287 263.571C85.7755 263.588 85.7265 263.603 85.6825 263.618C85.6385 263.632 85.5986 263.646 85.5637 263.658C85.5288 263.67 85.4979 263.68 85.472 263.69C85.4461 263.699 85.424 263.707 85.4069 263.713C85.39 263.719 85.3764 263.724 85.3683 263.727C85.3641 263.728 85.3608 263.73 85.3588 263.73C85.357 263.731 85.3554 263.732 85.3559 263.732C85.3559 263.732 85.3563 263.731 85.3568 263.731C85.3574 263.731 85.3583 263.731 85.3594 263.73C85.3616 263.729 85.3652 263.728 85.3696 263.726C85.3782 263.723 85.3922 263.718 85.4095 263.712C85.427 263.706 85.4496 263.698 85.4759 263.688C85.5023 263.679 85.5336 263.668 85.569 263.656C85.6044 263.644 85.6447 263.63 85.6891 263.616C85.7336 263.601 85.783 263.585 85.8368 263.569C85.9438 263.536 86.0713 263.498 86.216 263.46L88.6995 272.83L91.183 282.2C91.3282 282.162 91.4562 282.124 91.5637 282.091C91.6177 282.074 91.6674 282.058 91.7121 282.044C91.7568 282.029 91.7973 282.015 91.833 282.003C91.8686 281.991 91.9001 281.98 91.9268 281.971C91.9534 281.961 91.9761 281.953 91.9939 281.947C92.0115 281.94 92.0257 281.935 92.0346 281.932C92.0391 281.93 92.0427 281.929 92.0451 281.928C92.0463 281.928 92.0472 281.927 92.0479 281.927C92.0485 281.927 92.049 281.927 92.049 281.927C92.0496 281.926 92.0481 281.927 92.0464 281.928C92.0446 281.928 92.0414 281.93 92.0373 281.931C92.0294 281.934 92.0161 281.939 91.9994 281.945C91.9826 281.951 91.9607 281.959 91.9351 281.968C91.9094 281.977 91.8787 281.988 91.8441 281.999C91.8094 282.011 91.7698 282.025 91.726 282.039C91.6822 282.053 91.6336 282.069 91.5805 282.085C91.4749 282.118 91.3488 282.156 91.2056 282.194L88.7054 272.828ZM88.6995 272.83L86.216 263.46C86.7573 263.317 87.3413 263.239 87.9534 263.25L87.7796 272.942L87.6058 282.634C88.8472 282.657 90.0507 282.5 91.183 282.2L88.6995 272.83ZM87.7796 272.942L87.9517 263.25L84.8726 263.196L84.7005 272.888L84.5283 282.58L87.6074 282.634L87.7796 272.942ZM84.7005 272.888L84.8737 263.196C84.4904 263.189 84.0776 263.198 83.6407 263.232L84.388 272.896L85.1353 282.561C84.9052 282.579 84.7009 282.583 84.5272 282.58L84.7005 272.888ZM84.388 272.896L83.6407 263.232C78.5441 263.626 71.9129 267.724 71.7703 275.386L81.4622 275.566L91.1541 275.747C91.1063 278.317 89.8414 280.067 88.8581 280.957C87.85 281.869 86.566 282.451 85.1353 282.561L84.388 272.896ZM81.4622 275.566L71.7703 275.385L71.6834 280.016L81.3753 280.198L91.0672 280.38L91.1541 275.748L81.4622 275.566ZM81.3753 280.198L79.0194 289.601C78.9719 289.589 78.93 289.578 78.8947 289.569C78.8596 289.56 78.8296 289.552 78.8067 289.545C78.7839 289.539 78.7656 289.534 78.7549 289.531C78.7494 289.529 78.7451 289.528 78.7426 289.527C78.7403 289.527 78.7385 289.526 78.7393 289.526C78.7393 289.526 78.7419 289.527 78.745 289.528C78.7482 289.529 78.7534 289.53 78.7596 289.532C78.7719 289.536 78.7918 289.541 78.8161 289.548C78.8407 289.555 78.8722 289.563 78.9089 289.573C78.9457 289.583 78.9892 289.594 79.0382 289.606L81.3968 280.204L83.7553 270.802C83.8026 270.814 83.8443 270.825 83.8793 270.834C83.9142 270.843 83.9439 270.851 83.9667 270.857C83.9892 270.864 84.0073 270.869 84.0178 270.872C84.0232 270.873 84.0274 270.874 84.0298 270.875C84.0319 270.876 84.0337 270.876 84.0328 270.876C84.0327 270.876 84.0299 270.875 84.0268 270.874C84.0234 270.873 84.0182 270.872 84.0118 270.87C83.9993 270.866 83.9793 270.861 83.9547 270.854C83.9299 270.847 83.8982 270.839 83.8612 270.829C83.8242 270.819 83.7804 270.808 83.7312 270.795L81.3753 280.198ZM81.3968 280.204L79.0382 289.606C75.651 288.757 73.543 285.732 73.543 282.604H83.2366H92.9302C92.9302 277.2 89.3335 272.201 83.7554 270.802L81.3968 280.204ZM83.2366 282.604H73.543V291.69H83.2366H92.9302V282.604H83.2366ZM83.2366 291.69L73.543 291.69C73.5432 288.695 75.4575 285.89 78.5326 284.931L81.4173 294.186L84.302 303.44C89.5504 301.804 92.9299 296.944 92.9302 291.691L83.2366 291.69ZM81.4173 294.186L78.5342 284.931C72.7538 286.731 69.4576 286.669 62.9491 285.274L60.9173 294.752L58.8855 304.23C67.8043 306.142 74.5981 306.463 84.3004 303.44L81.4173 294.186ZM60.9173 294.752L62.9491 285.274C66.4017 286.014 68.6714 289.058 68.6714 292.321H58.9778H49.2842C49.2842 297.938 53.1474 303 58.8855 304.23L60.9173 294.752ZM58.9778 292.321H68.6714V283.279H58.9778H49.2842V292.321H58.9778ZM58.9778 283.279L68.6714 283.28C68.6712 286.233 66.8152 288.987 63.8325 289.987L60.7503 280.797L57.6681 271.606C52.5605 273.319 49.2847 278.103 49.2842 283.278L58.9778 283.279ZM60.7503 280.797L63.8316 289.988C64.3241 289.823 64.802 289.672 65.267 289.533L62.4944 280.244L59.7218 270.956C59.0515 271.156 58.3678 271.372 57.669 271.606L60.7503 280.797ZM62.4944 280.244L72.1879 280.191C72.1782 278.432 72.1666 276.233 72.1488 272.979L62.4554 273.032L52.7619 273.085C52.78 276.392 52.791 278.48 52.801 280.297L62.4944 280.244ZM62.4554 273.032L72.1488 272.979C72.1362 270.675 72.2113 268.951 72.4238 267.585C72.633 266.241 72.9137 265.68 73.0272 265.5C73.0593 265.449 73.109 265.322 73.571 265.106C74.1726 264.826 75.5478 264.385 78.2445 264.288L77.8958 254.601L77.5471 244.913C68.5956 245.235 61.0331 248.158 56.618 255.175C52.8497 261.164 52.736 268.361 52.7619 273.085L62.4554 273.032ZM77.8958 254.601L78.2445 264.288C87.338 263.961 82.892 264.035 88.7981 263.978L88.7054 254.285L88.6126 244.592C82.3689 244.652 86.1935 244.602 77.5471 244.913L77.8958 254.601ZM88.7054 254.285H98.399V253.867H88.7054H79.0118V254.285H88.7054ZM88.7054 253.867L93.1553 262.479L105.678 256.008L101.228 247.396L96.7779 238.785L84.2554 245.255L88.7054 253.867ZM101.228 247.396L108.315 240.783C107.061 239.439 105.955 237.958 105.023 236.366L96.6585 241.266L88.2943 246.165C89.954 248.999 91.9179 251.628 94.1403 254.01L101.228 247.396ZM96.6585 241.266V231.572H88.764V241.266V250.959H96.6585V241.266ZM88.764 241.266C98.1146 238.71 98.1148 238.711 98.115 238.711C98.115 238.712 98.1152 238.712 98.1153 238.713C98.1155 238.713 98.1156 238.714 98.1157 238.714C98.116 238.715 98.116 238.715 98.1159 238.715C98.1156 238.714 98.1146 238.71 98.113 238.704C98.1097 238.692 98.1037 238.67 98.0953 238.638C98.0784 238.575 98.0515 238.474 98.0161 238.338C97.9453 238.066 97.8406 237.658 97.7134 237.141C97.458 236.103 97.1168 234.646 96.7768 232.987C96.0603 229.492 95.4908 225.764 95.4908 223.171L85.7972 223.171L76.1036 223.171C76.1036 227.818 77.0174 233.138 77.7844 236.88C78.1861 238.839 78.5865 240.549 78.8874 241.772C79.0383 242.385 79.1654 242.882 79.2568 243.232C79.3026 243.407 79.3395 243.547 79.366 243.646C79.3793 243.695 79.39 243.735 79.3979 243.765C79.4019 243.779 79.4052 243.791 79.4078 243.801C79.4091 243.806 79.4102 243.81 79.4111 243.813C79.4116 243.815 79.412 243.816 79.4124 243.818C79.4125 243.818 79.4128 243.819 79.4129 243.82C79.4131 243.821 79.4133 243.821 88.764 241.266ZM85.7972 223.171H95.4908C95.4908 220.54 96.0713 216.567 96.7983 212.802C97.1433 211.015 97.4896 209.433 97.7492 208.299C97.8786 207.734 97.9854 207.286 98.0582 206.985C98.0946 206.835 98.1224 206.721 98.1403 206.649C98.1492 206.613 98.1556 206.588 98.1593 206.573C98.1612 206.565 98.1624 206.56 98.1629 206.558C98.1632 206.557 98.1632 206.557 98.1631 206.557C98.1631 206.558 98.163 206.558 98.1629 206.559C98.1628 206.559 98.1627 206.559 98.1626 206.559C98.1625 206.56 98.1623 206.561 88.764 204.187C79.3656 201.812 79.3654 201.813 79.3652 201.814C79.3652 201.814 79.365 201.815 79.3648 201.816C79.3645 201.817 79.3641 201.818 79.3637 201.82C79.3629 201.823 79.3619 201.827 79.3607 201.832C79.3584 201.841 79.3553 201.853 79.3516 201.868C79.3441 201.898 79.3338 201.939 79.321 201.991C79.2954 202.094 79.2595 202.241 79.2148 202.426C79.1253 202.795 79.0003 203.321 78.8516 203.97C78.5549 205.265 78.1595 207.071 77.7628 209.126C77.0065 213.043 76.1036 218.562 76.1036 223.171H85.7972ZM88.764 204.187V213.88H97.7532V204.187V194.493H88.764V204.187ZM97.7532 204.187H88.0596V204.619H97.7532H107.447V204.187H97.7532ZM97.7532 204.619L105.81 210.009C107.858 206.947 110.568 204.364 113.729 202.466L108.739 194.155L103.749 185.845C98.1311 189.218 93.3291 193.798 89.696 199.23L97.7532 204.619ZM108.739 194.155H118.432V187.95H108.739H99.045V194.155H108.739ZM108.739 187.95C111.168 197.334 111.167 197.335 111.167 197.335C111.166 197.335 111.166 197.335 111.166 197.335C111.165 197.335 111.165 197.335 111.164 197.335C111.164 197.336 111.164 197.336 111.164 197.335C111.165 197.335 111.169 197.334 111.175 197.333C111.187 197.33 111.208 197.324 111.238 197.317C111.298 197.301 111.393 197.277 111.52 197.246C111.776 197.182 112.16 197.089 112.647 196.974C113.624 196.744 115.001 196.433 116.583 196.115C119.869 195.455 123.568 194.861 126.36 194.754L125.99 185.067L125.619 175.381C121.235 175.549 116.308 176.396 112.763 177.108C110.929 177.477 109.339 177.835 108.203 178.103C107.634 178.237 107.174 178.349 106.85 178.429C106.689 178.47 106.56 178.502 106.469 178.525C106.424 178.537 106.387 178.546 106.36 178.553C106.347 178.556 106.336 178.559 106.328 178.561C106.323 178.562 106.32 178.563 106.317 178.564C106.315 178.564 106.314 178.565 106.312 178.565C106.312 178.565 106.311 178.565 106.311 178.566C106.31 178.566 106.309 178.566 108.739 187.95ZM125.99 185.067H135.683V179.741H125.99H116.296V185.067H125.99ZM125.99 179.741L128.218 170.307C129.269 170.555 130.065 171.489 130.065 172.635L120.371 172.636L110.678 172.636C110.678 180.689 116.269 187.405 123.761 189.175L125.99 179.741ZM120.371 172.636H130.065C130.065 173.955 128.996 175.026 127.675 175.026L127.674 165.332L127.674 155.638C118.286 155.639 110.678 163.25 110.678 172.636H120.371ZM450.298 293.479L459.158 297.412L459.243 297.221L450.383 293.288L441.523 289.355L441.438 289.547L450.298 293.479ZM450.383 293.288V283.594H449.863V293.288V302.982H450.383V293.288ZM449.863 293.288L445.963 302.163L446.398 302.354L450.298 293.479L454.198 284.605L453.763 284.414L449.863 293.288Z" fill="white" mask="url(#path-1-outside-1_228_1086)"/>
<rect x="497.775" y="285.349" width="38.1281" height="82.0724" transform="rotate(-18.4938 497.775 285.349)" fill="#313338"/>
<rect x="457.291" y="277.778" width="38.1281" height="52.9897" transform="rotate(24.002 457.291 277.778)" fill="#313338"/>
<rect x="485.473" y="308.954" width="38.1281" height="62.9804" transform="rotate(113.745 485.473 308.954)" fill="#313338"/>
<rect x="449.307" y="220.909" width="91.766" height="72.3788" fill="#D9D9D9"/>
<path d="M495.279 126.668H498.649V142.398H495.279V126.668Z" fill="#D9D9D9"/>
<path d="M504.267 126.106C504.267 130.14 500.997 133.41 496.964 133.41C492.93 133.41 489.66 130.14 489.66 126.106C489.66 122.073 492.93 118.803 496.964 118.803C500.997 118.803 504.267 122.073 504.267 126.106Z" fill="#06D6A0"/>
<rect x="440.222" y="168.241" width="8.98881" height="37.0788" fill="#696969"/>
<path d="M543.593 168.241H552.582V205.32H543.593V168.241Z" fill="#696969"/>
<path d="M515.503 139.589L515.503 148.578L478.424 148.578L478.424 139.589L496.964 139.589L515.503 139.589Z" fill="#696969"/>
<g filter="url(#filter0_d_228_1086)">
<rect x="445.84" y="145.77" width="101.124" height="77.7244" rx="3.87744" fill="#D9D9D9"/>
</g>
<rect x="455.952" y="160.376" width="80.8993" height="52.8092" rx="3.87744" fill="black"/>
<path d="M490.777 190.591C490.777 192.763 489.016 194.523 486.844 194.523C484.672 194.523 482.912 192.763 482.912 190.591C482.912 188.419 484.672 186.658 486.844 186.658C489.016 186.658 490.777 188.419 490.777 190.591Z" fill="#06D6A1"/>
<path d="M490.777 190.591C490.777 192.763 489.016 194.523 486.844 194.523C484.672 194.523 482.912 192.763 482.912 190.591C482.912 188.419 484.672 186.658 486.844 186.658C489.016 186.658 490.777 188.419 490.777 190.591Z" fill="#06D6A1"/>
<path d="M521.819 190.591C521.819 192.763 520.058 194.523 517.886 194.523C515.714 194.523 513.954 192.763 513.954 190.591C513.954 188.419 515.714 186.658 517.886 186.658C520.058 186.658 521.819 188.419 521.819 190.591Z" fill="#06D6A1"/>
<path d="M521.819 190.591C521.819 192.763 520.058 194.523 517.886 194.523C515.714 194.523 513.954 192.763 513.954 190.591C513.954 188.419 515.714 186.658 517.886 186.658C520.058 186.658 521.819 188.419 521.819 190.591Z" fill="#06D6A1"/>
<path d="M533.102 221.642C531.809 221.758 530.794 223.082 530.794 224.534L530.794 239.072C530.794 239.421 530.854 239.76 530.97 240.07L543.171 272.662C543.463 273.441 544.087 273.978 544.847 274.088C554.53 275.487 559.756 274.091 566.582 264.182C566.758 263.927 566.902 263.63 566.993 263.329C574.867 237.322 552.869 219.862 533.102 221.642Z" fill="#313338"/>
<g filter="url(#filter1_d_228_1086)">
<path d="M447.443 218.593C448.749 218.725 449.815 220.143 449.815 221.67L449.814 241.922C449.814 243.597 451.08 245.091 452.501 245.091L478.252 245.091C479.672 245.091 480.938 246.585 480.938 248.26L480.938 276.175C480.938 277.409 480.239 278.379 479.231 278.583C473.291 279.786 463.791 282.262 449.814 282.262C434.413 282.262 421.694 280.136 421.694 257.173C421.694 234.984 425.393 216.359 447.443 218.593Z" fill="#313338"/>
</g>
<g filter="url(#filter2_d_228_1086)">
<path d="M485.119 197.229L531.167 210.715L527.666 237.49L486.271 222.841L485.119 197.229Z" fill="#A7A7A7"/>
<path d="M551.397 196.998L534.192 210.485L535.5 237.26L550.967 222.611L551.397 196.998Z" fill="#A7A7A7"/>
<g filter="url(#filter3_i_228_1086)">
<path d="M482.33 200.781C482.298 199.905 483.129 199.252 483.972 199.49L525.914 211.317C526.471 211.474 526.856 211.982 526.856 212.561V294.096C526.856 294.994 525.963 295.618 525.119 295.31L486.054 281.027C485.561 280.846 485.225 280.385 485.206 279.86L482.33 200.781Z" fill="#06D6A0"/>
</g>
<g filter="url(#filter4_i_228_1086)">
<path d="M552.041 201.613C552.049 200.544 550.83 199.929 549.974 200.569L535.775 211.195C535.449 211.439 535.257 211.822 535.257 212.229V292.963C535.257 294.094 536.607 294.68 537.433 293.906L551.094 281.108C551.353 280.865 551.5 280.528 551.503 280.173L552.041 201.613Z" fill="#06D6A0"/>
</g>
<rect x="524.917" y="210.641" width="13.571" height="87.2424" rx="1.29248" fill="#06D6A0"/>
</g>
<g filter="url(#filter5_d_228_1086)">
<path d="M468.312 244.35C468.659 243.261 469.704 242.566 470.854 242.646L484.816 243.627C485.957 243.707 486.938 244.533 487.198 245.656C490.044 257.948 489.204 265.433 485.878 277.263C485.558 278.4 484.489 279.142 483.303 279.058L469.383 278.081C468.259 278.002 467.289 277.2 467.011 276.099C464.011 264.216 464.38 256.675 468.312 244.35Z" fill="#D9D9D9"/>
</g>
<path d="M558.651 245.479C558.406 244.241 557.286 243.391 556.022 243.473L550.829 243.812C549.57 243.894 548.531 244.877 548.393 246.135C547.171 257.299 547.75 264.332 549.691 275.273C549.916 276.538 551.048 277.418 552.335 277.334L557.5 276.997C558.749 276.916 559.783 275.949 559.934 274.703C561.244 263.933 560.903 256.867 558.651 245.479Z" fill="#D9D9D9"/>
<rect x="519.747" y="356.148" width="54.2841" height="19.3872" transform="rotate(-21.123 519.747 356.148)" fill="#D9D9D9"/>
<rect x="402.132" y="330.421" width="54.2841" height="19.3872" transform="rotate(-65.5387 402.132 330.421)" fill="#D9D9D9"/>
<path d="M94.5196 293.288L123.19 306.298L107.682 340.474L79.0117 327.464L94.5196 293.288Z" fill="#313338"/>
<path d="M114.28 326.446L101.603 355.265L53.9992 334.324L66.6768 305.505L114.28 326.446Z" fill="#313338"/>
<rect x="44.1148" y="343.783" width="44.8251" height="16.009" transform="rotate(-65.5387 44.1148 343.783)" fill="#D9D9D9"/>
<g filter="url(#filter6_d_228_1086)">
<path d="M91.0162 270.264C90.9914 271.704 89.4574 272.973 87.7798 272.943L84.7007 272.888C83.023 272.858 81.4892 274.126 81.4624 275.566L81.1943 289.971C81.1681 291.379 79.6962 292.632 78.0468 292.65L64.9657 292.788C63.5892 292.803 62.5591 291.935 62.5526 290.763C62.5073 282.477 62.5054 282.125 62.4556 273.033C62.4019 263.244 63.6744 255.113 77.8956 254.601C86.8278 254.279 82.572 254.344 88.8341 254.284C90.2318 254.271 91.2734 255.163 91.2517 256.357C91.1283 263.128 91.0843 266.313 91.0162 270.264Z" fill="#313338"/>
<path d="M91.0162 270.264C90.9914 271.704 89.4574 272.973 87.7798 272.943L84.7007 272.888C83.023 272.858 81.4892 274.126 81.4624 275.566L81.1943 289.971C81.1681 291.379 79.6962 292.632 78.0469 292.65L64.9657 292.788C63.5892 292.803 62.5591 291.935 62.5526 290.763C62.5073 282.477 62.5054 282.125 62.4556 273.033C62.4019 263.244 63.6744 255.113 77.8956 254.601C86.8278 254.279 82.572 254.344 88.8341 254.284C90.2318 254.271 91.2734 255.163 91.2517 256.357C91.1283 263.128 91.0843 266.313 91.0162 270.264Z" fill="#313338"/>
<path d="M91.0162 270.264C90.9914 271.704 89.4574 272.973 87.7798 272.943L84.7007 272.888C83.023 272.858 81.4892 274.126 81.4624 275.566L81.1943 289.971C81.1681 291.379 79.6962 292.632 78.0469 292.65L64.9657 292.788C63.5892 292.803 62.5591 291.935 62.5526 290.763C62.5073 282.477 62.5054 282.125 62.4556 273.033C62.4019 263.244 63.6744 255.113 77.8956 254.601C86.8278 254.279 82.572 254.344 88.8341 254.284C90.2318 254.271 91.2734 255.163 91.2517 256.357C91.1283 263.128 91.0843 266.313 91.0162 270.264Z" fill="#313338"/>
</g>
<g filter="url(#filter7_d_228_1086)">
<path d="M155.976 270.264C156.001 271.704 157.535 272.973 159.213 272.943L162.292 272.888C163.969 272.858 165.503 274.126 165.53 275.566L165.798 289.971C165.824 291.379 167.296 292.632 168.946 292.65L182.027 292.788C183.403 292.803 184.433 291.935 184.44 290.763C184.485 282.477 184.487 282.125 184.537 273.033C184.591 263.244 183.318 255.113 169.097 254.601C160.165 254.279 164.42 254.344 158.158 254.284C156.761 254.271 155.719 255.163 155.741 256.357C155.864 263.128 155.908 266.313 155.976 270.264Z" fill="#313338"/>
<path d="M155.976 270.264C156.001 271.704 157.535 272.973 159.213 272.943L162.292 272.888C163.969 272.858 165.503 274.126 165.53 275.566L165.798 289.971C165.824 291.379 167.296 292.632 168.946 292.65L182.027 292.788C183.403 292.803 184.433 291.935 184.44 290.763C184.485 282.477 184.487 282.125 184.537 273.033C184.591 263.244 183.318 255.113 169.097 254.601C160.165 254.279 164.42 254.344 158.158 254.284C156.761 254.271 155.719 255.163 155.741 256.357C155.864 263.128 155.908 266.313 155.976 270.264Z" fill="#313338"/>
<path d="M155.976 270.264C156.001 271.704 157.535 272.973 159.213 272.943L162.292 272.888C163.969 272.858 165.503 274.126 165.53 275.566L165.798 289.971C165.824 291.379 167.296 292.632 168.946 292.65L182.027 292.788C183.403 292.803 184.433 291.935 184.44 290.763C184.485 282.477 184.487 282.125 184.537 273.033C184.591 263.244 183.318 255.113 169.097 254.601C160.165 254.279 164.42 254.344 158.158 254.284C156.761 254.271 155.719 255.163 155.741 256.357C155.864 263.128 155.908 266.313 155.976 270.264Z" fill="#313338"/>
</g>
<path d="M119.125 292.077L148.388 280.46L174.934 347.325L145.671 358.942L119.125 292.077Z" fill="#313338"/>
<g filter="url(#filter8_d_228_1086)">
<path d="M81.3971 280.204C82.4926 280.479 83.2364 281.466 83.2364 282.604L83.2364 291.69C83.2364 292.82 82.5038 293.847 81.4169 294.186C73.6755 296.598 68.6308 296.406 60.9169 294.752C59.7741 294.507 58.9783 293.499 58.9783 292.322L58.9783 283.28C58.9783 282.168 59.688 281.154 60.7507 280.797C68.2487 278.284 73.315 278.177 81.3971 280.204Z" fill="#D9D9D9"/>
</g>
<path d="M88.7053 253.867L127.48 233.834L160.438 253.867V305.566H88.7053V253.867Z" fill="#D9D9D9"/>
<path d="M125.989 173.198H129.36V188.928H125.989V173.198Z" fill="#D9D9D9"/>
<path d="M134.978 172.636C134.978 176.669 131.708 179.939 127.674 179.939C123.641 179.939 120.371 176.669 120.371 172.636C120.371 168.602 123.641 165.333 127.674 165.333C131.708 165.333 134.978 168.602 134.978 172.636Z" fill="#06D6A0"/>
<path d="M88.764 204.187H97.7528V241.266H88.764C88.764 241.266 85.7973 230.411 85.7973 223.171C85.7973 215.931 88.764 204.187 88.764 204.187Z" fill="#696969"/>
<path d="M162.641 204.186H153.652V241.265H162.641C162.641 241.265 165.608 230.411 165.608 223.171C165.608 215.93 162.641 204.186 162.641 204.186Z" fill="#696969"/>
<path d="M145.574 187.951L145.574 200.876L108.739 200.876L108.739 187.951C108.739 187.951 119.964 185.043 127.157 185.043C134.349 185.043 145.574 187.951 145.574 187.951Z" fill="#696969"/>
<g filter="url(#filter9_d_228_1086)">
<circle cx="126.51" cy="223.817" r="34.5738" fill="#D9D9D9"/>
</g>
<circle cx="130.388" cy="225.109" r="22.9415" fill="black"/>
<path d="M135.936 228.128C133.764 228.128 132.003 226.367 132.003 224.195C132.003 222.023 133.764 220.263 135.936 220.263C138.108 220.263 139.869 222.023 139.869 224.195C139.869 226.367 138.108 228.128 135.936 228.128Z" fill="#06D6A1"/>
<path d="M135.936 228.128C133.764 228.128 132.003 226.367 132.003 224.195C132.003 222.023 133.764 220.263 135.936 220.263C138.108 220.263 139.869 222.023 139.869 224.195C139.869 226.367 138.108 228.128 135.936 228.128Z" fill="#06D6A1"/>
<rect x="141.051" y="348.862" width="44.8251" height="16.009" transform="rotate(-21.123 141.051 348.862)" fill="#D9D9D9"/>
<g filter="url(#filter10_d_228_1086)">
<path d="M186.088 280.85C187.183 281.125 187.927 282.112 187.927 283.25L187.927 292.337C187.927 293.466 187.195 294.494 186.108 294.832C178.366 297.244 173.322 297.052 165.608 295.398C164.465 295.153 163.669 294.145 163.669 292.968L163.669 283.926C163.669 282.814 164.379 281.8 165.441 281.444C172.94 278.93 178.006 278.823 186.088 280.85Z" fill="#D9D9D9"/>
</g>
<path d="M132.003 264.207L152.711 293.772H111.296L132.003 264.207Z" fill="#313338"/>
<g filter="url(#filter11_i_228_1086)">
<path d="M341.944 167.216C350.132 167.216 351.06 191.893 351.125 200.904C351.138 202.612 352.426 204.149 353.872 204.149L379.549 204.149C380.969 204.149 382.235 205.643 382.235 207.318L382.235 226.829C382.235 228.209 381.353 229.238 380.183 229.238C365.992 229.238 365.835 229.238 351.112 229.238C335.71 229.238 322.991 227.111 322.991 204.149C322.991 181.187 331.928 167.216 341.944 167.216Z" fill="#313338"/>
</g>
<path d="M374.587 205.351C374.834 204.213 375.84 203.424 377.013 203.424H385.953C387.117 203.424 388.167 204.202 388.482 205.332C390.997 214.369 390.814 220.186 389.148 229.198C388.93 230.377 387.906 231.212 386.699 231.212H377.799C376.651 231.212 375.613 230.455 375.281 229.347C372.671 220.611 372.542 214.774 374.587 205.351Z" fill="#D9D9D9"/>
<rect x="310.668" y="257.624" width="27.1195" height="101.492" transform="rotate(-18.4938 310.668 257.624)" fill="#313338"/>
<rect x="286.887" y="292.152" width="24.8167" height="62.9804" transform="rotate(113.745 286.887 292.152)" fill="#313338"/>
<rect x="281.762" y="246.759" width="24.8167" height="64.2254" transform="rotate(24.6592 281.762 246.759)" fill="#313338"/>
<rect x="272.237" y="166.625" width="70.4401" height="97.5822" fill="#D9D9D9"/>
<path d="M333.668 84.5527H342.657V121.632H333.668V84.5527Z" fill="#696969"/>
<path d="M308.132 41.2544H310.126V56.9848H308.132V41.2544Z" fill="#D9D9D9"/>
<path d="M316.609 37.572C316.609 41.6055 313.339 44.8754 309.306 44.8754C305.272 44.8754 302.002 41.6055 302.002 37.572C302.002 33.5384 305.272 30.2686 309.306 30.2686C313.339 30.2686 316.609 33.5384 316.609 37.572Z" fill="#06D6A0"/>
<rect x="273.53" y="84.7666" width="8.98881" height="37.0788" fill="#696969"/>
<path d="M320.097 54.0691L320.097 63.1164L298.125 63.1164L298.125 54.0691L309.111 54.0691L320.097 54.0691Z" fill="#696969"/>
<g filter="url(#filter12_d_228_1086)">
<rect x="279.148" y="62.2942" width="58.3974" height="104.33" rx="3.87744" fill="#D9D9D9"/>
</g>
<rect x="289.04" y="76.7979" width="39.4206" height="82.0724" rx="3.87744" fill="black"/>
<path d="M316.883 109.866C314.711 109.866 312.95 108.106 312.95 105.934C312.95 103.762 314.711 102.001 316.883 102.001C319.055 102.001 320.815 103.762 320.815 105.934C320.815 108.106 319.055 109.866 316.883 109.866Z" fill="#06D6A1"/>
<path d="M316.883 109.866C314.711 109.866 312.95 108.106 312.95 105.934C312.95 103.762 314.711 102.001 316.883 102.001C319.055 102.001 320.815 103.762 320.815 105.934C320.815 108.106 319.055 109.866 316.883 109.866Z" fill="#06D6A1"/>
<path d="M316.883 140.909C314.711 140.909 312.95 139.148 312.95 136.976C312.95 134.804 314.711 133.044 316.883 133.044C319.055 133.044 320.815 134.804 320.815 136.976C320.815 139.148 319.055 140.909 316.883 140.909Z" fill="#06D6A1"/>
<path d="M316.883 140.909C314.711 140.909 312.95 139.148 312.95 136.976C312.95 134.804 314.711 133.044 316.883 133.044C319.055 133.044 320.815 134.804 320.815 136.976C320.815 139.148 319.055 140.909 316.883 140.909Z" fill="#06D6A1"/>
<g filter="url(#filter13_d_228_1086)">
<path d="M270.64 166.7C272.052 166.638 273.327 168.136 273.327 169.812L273.327 201.035C273.327 202.711 274.593 204.204 276.013 204.204L301.764 204.204C303.184 204.204 304.45 205.698 304.45 207.373L304.45 226.885C304.45 228.265 303.568 229.293 302.398 229.293C288.207 229.293 288.05 229.293 273.327 229.293C257.925 229.293 245.206 227.167 245.206 204.204C245.206 182.074 247.616 167.712 270.64 166.7Z" fill="#313338"/>
</g>
<rect x="299.379" y="181.489" width="29.0808" height="62.6852" fill="#313338"/>
<g filter="url(#filter14_d_228_1086)">
<path d="M296.803 205.406C297.05 204.268 298.056 203.479 299.228 203.479H308.168C309.333 203.479 310.382 204.257 310.697 205.387C313.213 214.424 313.029 220.241 311.364 229.253C311.146 230.432 310.122 231.267 308.915 231.267H300.015C298.866 231.267 297.828 230.51 297.497 229.402C294.886 220.666 294.757 214.829 296.803 205.406Z" fill="#D9D9D9"/>
</g>
<rect x="337.508" y="348.93" width="54.2841" height="19.3872" transform="rotate(-21.123 337.508 348.93)" fill="#D9D9D9"/>
<rect x="205.029" y="314.911" width="54.2841" height="19.3872" transform="rotate(-65.5387 205.029 314.911)" fill="#D9D9D9"/>
<defs>
<filter id="filter0_d_228_1086" x="443.255" y="145.77" width="106.294" height="84.833" filterUnits="userSpaceOnUse" color-interpolation-filters="sRGB">
<feFlood flood-opacity="0" result="BackgroundImageFix"/>
<feColorMatrix in="SourceAlpha" type="matrix" values="0 0 0 0 0 0 0 0 0 0 0 0 0 0 0 0 0 0 127 0" result="hardAlpha"/>
<feOffset dy="4.52368"/>
<feGaussianBlur stdDeviation="1.29248"/>
<feComposite in2="hardAlpha" operator="out"/>
<feColorMatrix type="matrix" values="0 0 0 0 0 0 0 0 0 0 0 0 0 0 0 0 0 0 0.25 0"/>
<feBlend mode="normal" in2="BackgroundImageFix" result="effect1_dropShadow_228_1086"/>
<feBlend mode="normal" in="SourceGraphic" in2="effect1_dropShadow_228_1086" result="shape"/>
</filter>
<filter id="filter1_d_228_1086" x="421.694" y="218.411" width="66.9988" height="69.021" filterUnits="userSpaceOnUse" color-interpolation-filters="sRGB">
<feFlood flood-opacity="0" result="BackgroundImageFix"/>
<feColorMatrix in="SourceAlpha" type="matrix" values="0 0 0 0 0 0 0 0 0 0 0 0 0 0 0 0 0 0 127 0" result="hardAlpha"/>
<feOffset dx="5.16992" dy="2.58496"/>
<feGaussianBlur stdDeviation="1.29248"/>
<feComposite in2="hardAlpha" operator="out"/>
<feColorMatrix type="matrix" values="0 0 0 0 0 0 0 0 0 0 0 0 0 0 0 0 0 0 0.25 0"/>
<feBlend mode="normal" in2="BackgroundImageFix" result="effect1_dropShadow_228_1086"/>
<feBlend mode="normal" in="SourceGraphic" in2="effect1_dropShadow_228_1086" result="shape"/>
</filter>
<filter id="filter2_d_228_1086" x="475.22" y="196.998" width="76.8211" height="106.055" filterUnits="userSpaceOnUse" color-interpolation-filters="sRGB">
<feFlood flood-opacity="0" result="BackgroundImageFix"/>
<feColorMatrix in="SourceAlpha" type="matrix" values="0 0 0 0 0 0 0 0 0 0 0 0 0 0 0 0 0 0 127 0" result="hardAlpha"/>
<feOffset dx="-4.52368" dy="2.58496"/>
<feGaussianBlur stdDeviation="1.29248"/>
<feComposite in2="hardAlpha" operator="out"/>
<feColorMatrix type="matrix" values="0 0 0 0 0 0 0 0 0 0 0 0 0 0 0 0 0 0 0.25 0"/>
<feBlend mode="normal" in2="BackgroundImageFix" result="effect1_dropShadow_228_1086"/>
<feBlend mode="normal" in="SourceGraphic" in2="effect1_dropShadow_228_1086" result="shape"/>
</filter>
<filter id="filter3_i_228_1086" x="482.329" y="199.441" width="44.527" height="95.949" filterUnits="userSpaceOnUse" color-interpolation-filters="sRGB">
<feFlood flood-opacity="0" result="BackgroundImageFix"/>
<feBlend mode="normal" in="SourceGraphic" in2="BackgroundImageFix" result="shape"/>
<feColorMatrix in="SourceAlpha" type="matrix" values="0 0 0 0 0 0 0 0 0 0 0 0 0 0 0 0 0 0 127 0" result="hardAlpha"/>
<feOffset dx="-2.58496" dy="2.58496"/>
<feComposite in2="hardAlpha" operator="arithmetic" k2="-1" k3="1"/>
<feColorMatrix type="matrix" values="0 0 0 0 0.0170487 0 0 0 0 0.569706 0 0 0 0 0.619948 0 0 0 1 0"/>
<feBlend mode="normal" in2="shape" result="effect1_innerShadow_228_1086"/>
</filter>
<filter id="filter4_i_228_1086" x="535.257" y="200.309" width="16.7844" height="93.9492" filterUnits="userSpaceOnUse" color-interpolation-filters="sRGB">
<feFlood flood-opacity="0" result="BackgroundImageFix"/>
<feBlend mode="normal" in="SourceGraphic" in2="BackgroundImageFix" result="shape"/>
<feColorMatrix in="SourceAlpha" type="matrix" values="0 0 0 0 0 0 0 0 0 0 0 0 0 0 0 0 0 0 127 0" result="hardAlpha"/>
<feOffset dx="3.87744" dy="2.58496"/>
<feComposite in2="hardAlpha" operator="arithmetic" k2="-1" k3="1"/>
<feColorMatrix type="matrix" values="0 0 0 0 0.0170487 0 0 0 0 0.569706 0 0 0 0 0.619948 0 0 0 1 0"/>
<feBlend mode="normal" in2="shape" result="effect1_innerShadow_228_1086"/>
</filter>
<filter id="filter5_d_228_1086" x="465.024" y="242.64" width="31.6531" height="41.5947" filterUnits="userSpaceOnUse" color-interpolation-filters="sRGB">
<feFlood flood-opacity="0" result="BackgroundImageFix"/>
<feColorMatrix in="SourceAlpha" type="matrix" values="0 0 0 0 0 0 0 0 0 0 0 0 0 0 0 0 0 0 127 0" result="hardAlpha"/>
<feOffset dx="5.16992" dy="2.58496"/>
<feGaussianBlur stdDeviation="1.29248"/>
<feComposite in2="hardAlpha" operator="out"/>
<feColorMatrix type="matrix" values="0 0 0 0 0 0 0 0 0 0 0 0 0 0 0 0 0 0 0.25 0"/>
<feBlend mode="normal" in2="BackgroundImageFix" result="effect1_dropShadow_228_1086"/>
<feBlend mode="normal" in="SourceGraphic" in2="effect1_dropShadow_228_1086" result="shape"/>
</filter>
<filter id="filter6_d_228_1086" x="62.454" y="252.539" width="37.6515" height="47.1642" filterUnits="userSpaceOnUse" color-interpolation-filters="sRGB">
<feFlood flood-opacity="0" result="BackgroundImageFix"/>
<feColorMatrix in="SourceAlpha" type="matrix" values="0 0 0 0 0 0 0 0 0 0 0 0 0 0 0 0 0 0 127 0" result="hardAlpha"/>
<feOffset dx="4.52368" dy="2.58496"/>
<feGaussianBlur stdDeviation="2.1649"/>
<feComposite in2="hardAlpha" operator="out"/>
<feColorMatrix type="matrix" values="0 0 0 0 0 0 0 0 0 0 0 0 0 0 0 0 0 0 0.25 0"/>
<feBlend mode="normal" in2="BackgroundImageFix" result="effect1_dropShadow_228_1086"/>
<feBlend mode="normal" in="SourceGraphic" in2="effect1_dropShadow_228_1086" result="shape"/>
</filter>
<filter id="filter7_d_228_1086" x="155.74" y="252.539" width="37.6515" height="47.1642" filterUnits="userSpaceOnUse" color-interpolation-filters="sRGB">
<feFlood flood-opacity="0" result="BackgroundImageFix"/>
<feColorMatrix in="SourceAlpha" type="matrix" values="0 0 0 0 0 0 0 0 0 0 0 0 0 0 0 0 0 0 127 0" result="hardAlpha"/>
<feOffset dx="4.52368" dy="2.58496"/>
<feGaussianBlur stdDeviation="2.1649"/>
<feComposite in2="hardAlpha" operator="out"/>
<feColorMatrix type="matrix" values="0 0 0 0 0 0 0 0 0 0 0 0 0 0 0 0 0 0 0.25 0"/>
<feBlend mode="normal" in2="BackgroundImageFix" result="effect1_dropShadow_228_1086"/>
<feBlend mode="normal" in="SourceGraphic" in2="effect1_dropShadow_228_1086" result="shape"/>
</filter>
<filter id="filter8_d_228_1086" x="58.9783" y="277.043" width="33.1116" height="25.8688" filterUnits="userSpaceOnUse" color-interpolation-filters="sRGB">
<feFlood flood-opacity="0" result="BackgroundImageFix"/>
<feColorMatrix in="SourceAlpha" type="matrix" values="0 0 0 0 0 0 0 0 0 0 0 0 0 0 0 0 0 0 127 0" result="hardAlpha"/>
<feOffset dx="4.52368" dy="2.58496"/>
<feGaussianBlur stdDeviation="2.1649"/>
<feComposite in2="hardAlpha" operator="out"/>
<feColorMatrix type="matrix" values="0 0 0 0 0 0 0 0 0 0 0 0 0 0 0 0 0 0 0.25 0"/>
<feBlend mode="normal" in2="BackgroundImageFix" result="effect1_dropShadow_228_1086"/>
<feBlend mode="normal" in="SourceGraphic" in2="effect1_dropShadow_228_1086" result="shape"/>
</filter>
<filter id="filter9_d_228_1086" x="90.644" y="189.243" width="74.3176" height="76.9026" filterUnits="userSpaceOnUse" color-interpolation-filters="sRGB">
<feFlood flood-opacity="0" result="BackgroundImageFix"/>
<feColorMatrix in="SourceAlpha" type="matrix" values="0 0 0 0 0 0 0 0 0 0 0 0 0 0 0 0 0 0 127 0" result="hardAlpha"/>
<feOffset dx="1.29248" dy="5.16992"/>
<feGaussianBlur stdDeviation="1.29248"/>
<feComposite in2="hardAlpha" operator="out"/>
<feColorMatrix type="matrix" values="0 0 0 0 0 0 0 0 0 0 0 0 0 0 0 0 0 0 0.25 0"/>
<feBlend mode="normal" in2="BackgroundImageFix" result="effect1_dropShadow_228_1086"/>
<feBlend mode="normal" in="SourceGraphic" in2="effect1_dropShadow_228_1086" result="shape"/>
</filter>
<filter id="filter10_d_228_1086" x="163.669" y="277.689" width="33.1116" height="25.8688" filterUnits="userSpaceOnUse" color-interpolation-filters="sRGB">
<feFlood flood-opacity="0" result="BackgroundImageFix"/>
<feColorMatrix in="SourceAlpha" type="matrix" values="0 0 0 0 0 0 0 0 0 0 0 0 0 0 0 0 0 0 127 0" result="hardAlpha"/>
<feOffset dx="4.52368" dy="2.58496"/>
<feGaussianBlur stdDeviation="2.1649"/>
<feComposite in2="hardAlpha" operator="out"/>
<feColorMatrix type="matrix" values="0 0 0 0 0 0 0 0 0 0 0 0 0 0 0 0 0 0 0.25 0"/>
<feBlend mode="normal" in2="BackgroundImageFix" result="effect1_dropShadow_228_1086"/>
<feBlend mode="normal" in="SourceGraphic" in2="effect1_dropShadow_228_1086" result="shape"/>
</filter>
<filter id="filter11_i_228_1086" x="322.991" y="167.216" width="61.8289" height="64.6062" filterUnits="userSpaceOnUse" color-interpolation-filters="sRGB">
<feFlood flood-opacity="0" result="BackgroundImageFix"/>
<feBlend mode="normal" in="SourceGraphic" in2="BackgroundImageFix" result="shape"/>
<feColorMatrix in="SourceAlpha" type="matrix" values="0 0 0 0 0 0 0 0 0 0 0 0 0 0 0 0 0 0 127 0" result="hardAlpha"/>
<feOffset dx="26.4958" dy="2.58496"/>
<feGaussianBlur stdDeviation="1.29248"/>
<feComposite in2="hardAlpha" operator="arithmetic" k2="-1" k3="1"/>
<feColorMatrix type="matrix" values="0 0 0 0 0 0 0 0 0 0 0 0 0 0 0 0 0 0 0.25 0"/>
<feBlend mode="normal" in2="shape" result="effect1_innerShadow_228_1086"/>
</filter>
<filter id="filter12_d_228_1086" x="276.563" y="62.2942" width="63.5674" height="113.378" filterUnits="userSpaceOnUse" color-interpolation-filters="sRGB">
<feFlood flood-opacity="0" result="BackgroundImageFix"/>
<feColorMatrix in="SourceAlpha" type="matrix" values="0 0 0 0 0 0 0 0 0 0 0 0 0 0 0 0 0 0 127 0" result="hardAlpha"/>
<feOffset dy="6.4624"/>
<feGaussianBlur stdDeviation="1.29248"/>
<feComposite in2="hardAlpha" operator="out"/>
<feColorMatrix type="matrix" values="0 0 0 0 0 0 0 0 0 0 0 0 0 0 0 0 0 0 0.25 0"/>
<feBlend mode="normal" in2="BackgroundImageFix" result="effect1_dropShadow_228_1086"/>
<feBlend mode="normal" in="SourceGraphic" in2="effect1_dropShadow_228_1086" result="shape"/>
</filter>
<filter id="filter13_d_228_1086" x="245.206" y="164.953" width="68.0974" height="71.2541" filterUnits="userSpaceOnUse" color-interpolation-filters="sRGB">
<feFlood flood-opacity="0" result="BackgroundImageFix"/>
<feColorMatrix in="SourceAlpha" type="matrix" values="0 0 0 0 0 0 0 0 0 0 0 0 0 0 0 0 0 0 127 0" result="hardAlpha"/>
<feOffset dx="4.52368" dy="2.58496"/>
<feGaussianBlur stdDeviation="2.1649"/>
<feComposite in2="hardAlpha" operator="out"/>
<feColorMatrix type="matrix" values="0 0 0 0 0 0 0 0 0 0 0 0 0 0 0 0 0 0 0.25 0"/>
<feBlend mode="normal" in2="BackgroundImageFix" result="effect1_dropShadow_228_1086"/>
<feBlend mode="normal" in="SourceGraphic" in2="effect1_dropShadow_228_1086" result="shape"/>
</filter>
<filter id="filter14_d_228_1086" x="295.39" y="201.734" width="26.067" height="36.4479" filterUnits="userSpaceOnUse" color-interpolation-filters="sRGB">
<feFlood flood-opacity="0" result="BackgroundImageFix"/>
<feColorMatrix in="SourceAlpha" type="matrix" values="0 0 0 0 0 0 0 0 0 0 0 0 0 0 0 0 0 0 127 0" result="hardAlpha"/>
<feOffset dx="4.52368" dy="2.58496"/>
<feGaussianBlur stdDeviation="2.1649"/>
<feComposite in2="hardAlpha" operator="out"/>
<feColorMatrix type="matrix" values="0 0 0 0 0 0 0 0 0 0 0 0 0 0 0 0 0 0 0.25 0"/>
<feBlend mode="normal" in2="BackgroundImageFix" result="effect1_dropShadow_228_1086"/>
<feBlend mode="normal" in="SourceGraphic" in2="effect1_dropShadow_228_1086" result="shape"/>
</filter>
</defs>
</svg>
