<svg width="250" height="215" viewBox="0 0 250 215" fill="none" xmlns="http://www.w3.org/2000/svg">
<path d="M204.799 44.3913L205.512 44.6752C220.404 50.7775 229.574 65.366 233.159 82.7027C236.817 100.393 234.915 121.783 226.93 142.854C219.007 163.762 206.392 180.932 192.07 191.77C177.815 202.557 161.147 207.523 145.818 202.178L145.817 202.177C145.583 202.096 142.941 201.097 140.547 200.192C139.307 199.723 138.075 199.257 137.154 198.908C136.693 198.734 136.309 198.589 136.041 198.487L135.62 198.328L133.584 197.557L132.559 195.637L137.672 192.907L132.557 195.633C132.556 195.632 132.555 195.63 132.555 195.628C132.553 195.624 132.55 195.621 132.548 195.616C132.542 195.606 132.536 195.593 132.528 195.578C132.511 195.547 132.489 195.504 132.461 195.45C132.405 195.343 132.327 195.191 132.227 194.995C132.029 194.605 131.747 194.041 131.399 193.317C130.703 191.871 129.74 189.784 128.64 187.16C126.443 181.92 123.682 174.503 121.416 165.76C116.919 148.412 114.186 125.139 122.474 103.269C130.303 82.6113 140.592 64.5271 152.663 52.7774C164.82 40.9441 179.652 34.8604 195.447 40.846C195.505 40.8682 204.704 44.3546 204.799 44.3913Z" fill="#040411" stroke="white" stroke-width="11.592"/>
<path d="M195.374 40.8177C210.788 46.6591 220.269 61.437 223.951 79.0789C227.65 96.7983 225.76 118.247 217.753 139.375C209.746 160.504 196.947 177.818 182.433 188.636C167.984 199.406 151.09 204.19 135.676 198.348C120.262 192.507 110.782 177.729 107.099 160.087C103.4 142.368 105.29 120.919 113.297 99.7907C121.304 78.6625 134.104 61.3478 148.617 50.5301C163.066 39.7598 179.96 34.9765 195.374 40.8177Z" fill="#342F91" stroke="white" stroke-width="11.592"/>
<path d="M187.106 51.7538C200.352 56.7736 208.391 69.4304 211.497 84.3074C214.619 99.2621 213.015 117.302 206.296 135.034C199.576 152.765 188.821 167.337 176.572 176.466C164.387 185.549 149.979 189.699 136.733 184.679C123.487 179.66 115.447 167.003 112.341 152.125C109.219 137.171 110.823 119.13 117.542 101.399C124.261 83.6683 135.017 69.0962 147.266 59.9664C159.451 50.8839 173.86 46.734 187.106 51.7538Z" fill="white" stroke="white" stroke-width="11.592"/>
<path d="M178.754 62.2004C189.903 66.4253 196.548 77.0308 199.095 89.2332C201.658 101.513 200.333 116.256 194.859 130.7C189.385 145.145 180.607 157.063 170.549 164.56C160.555 172.01 148.55 175.548 137.401 171.323C126.252 167.098 119.607 156.493 117.06 144.29C114.497 132.01 115.822 117.267 121.296 102.823C126.77 88.3785 135.548 76.4599 145.606 68.9629C155.601 61.5133 167.606 57.9755 178.754 62.2004Z" fill="#342F91" stroke="white" stroke-width="11.592"/>
<path d="M169.707 74.4807C178.435 77.7882 183.471 86.0255 185.374 95.141C187.293 104.334 186.287 115.271 182.251 125.922C178.214 136.574 171.719 145.43 164.19 151.043C156.724 156.608 147.493 159.438 138.765 156.131C130.037 152.823 125.001 144.586 123.098 135.471C121.179 126.278 122.185 115.341 126.221 104.689C130.258 94.038 136.753 85.1812 144.283 79.5688C151.749 74.0039 160.979 71.1733 169.707 74.4807Z" fill="white" stroke="white" stroke-width="11.592"/>
<path d="M160.731 85.7172C167.203 88.1699 170.741 94.2002 172.043 100.439C173.362 106.756 172.654 114.146 169.957 121.263C167.26 128.38 162.892 134.383 157.718 138.24C152.608 142.048 145.962 144.219 139.491 141.767C133.019 139.314 129.481 133.284 128.178 127.045C126.86 120.729 127.568 113.338 130.264 106.221C132.961 99.1044 137.33 93.1008 142.503 89.2446C147.613 85.4359 154.259 83.2646 160.731 85.7172Z" fill="#342F91" stroke="white" stroke-width="11.592"/>
<path d="M153.261 95.3746C157.809 97.0978 160.067 101.245 160.857 105.03C161.663 108.892 161.211 113.257 159.657 117.358C158.103 121.458 155.549 125.027 152.386 127.385C149.286 129.695 144.845 131.305 140.298 129.582C135.751 127.858 133.493 123.71 132.703 119.926C131.897 116.064 132.35 111.699 133.904 107.598C135.458 103.497 138.011 99.9285 141.174 97.5707C144.274 95.2604 148.714 93.6515 153.261 95.3746Z" fill="white" stroke="white" stroke-width="11.592"/>
<path d="M149.125 100.707C152.61 102.027 154.161 105.135 154.668 107.564C155.191 110.07 154.88 112.763 153.957 115.198C153.034 117.633 151.483 119.857 149.43 121.387C147.441 122.87 144.219 124.169 140.734 122.849C137.25 121.528 135.699 118.42 135.192 115.992C134.669 113.485 134.981 110.792 135.904 108.357C136.827 105.922 138.378 103.699 140.431 102.169C142.42 100.686 145.641 99.3865 149.125 100.707Z" fill="#342F91" stroke="white" stroke-width="11.592"/>
<rect x="155.083" y="108.717" width="16.2232" height="99.7156" transform="rotate(126.507 155.083 108.717)" fill="black" stroke="white" stroke-width="11.592"/>
<path d="M96.7513 70.5426L93.3913 75.252L87.982 82.8325L84.6095 87.5593L31.9707 49.8553L50.2124 49.9697L66.3458 50.0708L68.1871 50.0828L96.7513 70.5426Z" fill="#5F5DC4" stroke="white" stroke-width="11.592"/>
<path d="M93.1791 77.404L96.4948 72.5846L101.722 64.9868L104.977 60.2559L51.8098 22.9538L58.1879 40.3233L63.7591 55.4983L64.3853 57.2021L93.1791 77.404Z" fill="#5F5DC4" stroke="white" stroke-width="11.592"/>
<rect x="154.216" y="107.502" width="16.2232" height="99.7156" transform="rotate(109.119 154.216 107.502)" fill="black" stroke="white" stroke-width="11.592"/>
<path d="M87.1414 88.5027L85.3423 94.001L82.4455 102.852L80.6397 108.37L19.1388 88.1198L36.5811 82.7776L52.0075 78.0528L53.7683 77.5139L87.1414 88.5027Z" fill="#5F5DC4" stroke="white" stroke-width="11.592"/>
<path d="M85.7831 96.1189L87.5071 90.5289L90.2246 81.7163L91.9169 76.2289L30.0324 56.5197L41.3097 71.1894L51.1612 84.006L52.268 85.4449L85.7831 96.1189Z" fill="#5F5DC4" stroke="white" stroke-width="11.592"/>
<path d="M221.511 140.8C206.322 180.881 173.46 205.678 147.726 196.705C147.452 196.609 137.672 192.907 137.672 192.907C137.672 192.907 112.543 145.831 127.894 105.323C143.245 64.8154 167.541 36.469 193.393 46.2657C193.463 46.2924 202.638 49.7696 202.708 49.7967C228.395 59.7346 236.82 100.403 221.511 140.8Z" fill="#040411"/>
<ellipse cx="165.525" cy="119.583" rx="50.0568" ry="78.4355" transform="rotate(20.7547 165.525 119.583)" fill="#342F91"/>
<ellipse cx="161.919" cy="118.217" rx="41.6607" ry="65.2794" transform="rotate(20.7547 161.919 118.217)" fill="white"/>
<ellipse cx="158.078" cy="116.762" rx="33.5381" ry="52.5518" transform="rotate(20.7547 158.078 116.762)" fill="#342F91"/>
<ellipse cx="154.236" cy="115.306" rx="24.1632" ry="37.8621" transform="rotate(20.7547 154.236 115.306)" fill="white"/>
<ellipse cx="150.111" cy="113.742" rx="15.4275" ry="24.1738" transform="rotate(20.7547 150.111 113.742)" fill="#342F91"/>
<ellipse cx="146.78" cy="112.478" rx="7.97387" ry="12.4945" transform="rotate(20.7547 146.78 112.478)" fill="white"/>
<ellipse cx="144.93" cy="111.778" rx="3.85688" ry="6.04345" transform="rotate(20.7547 144.93 111.778)" fill="#342F91"/>
<rect x="146.976" y="109.928" width="4.63124" height="88.1236" transform="rotate(126.507 146.976 109.928)" fill="black"/>
<path d="M66.3095 55.8672L88.6729 71.8856L83.2639 79.466L50.1761 55.7659L66.3095 55.8672Z" fill="#5F5DC4"/>
<path d="M69.2004 53.5003L91.7192 69.2996L96.9464 61.7016L63.6287 38.3257L69.2004 53.5003Z" fill="#5F5DC4"/>
<rect x="146.841" y="111.08" width="4.63124" height="88.1236" transform="rotate(109.119 146.841 111.08)" fill="black"/>
<path d="M53.705 83.5951L79.8334 92.1985L76.937 101.049L38.2786 88.3198L53.705 83.5951Z" fill="#5F5DC4"/>
<path d="M55.7568 80.4733L81.9679 88.8211L84.6857 80.0082L45.9049 67.6572L55.7568 80.4733Z" fill="#5F5DC4"/>
</svg>
