<svg width="242" height="222" viewBox="0 0 242 222" fill="none" xmlns="http://www.w3.org/2000/svg">
<path d="M166.295 42.7163L169.234 43.8476L171.643 44.7753L171.98 47.3348L179.518 104.727L180.515 112.315L173.49 109.279L163.762 105.076L161.181 103.961L161.142 101.149L160.391 46.8287L160.303 40.4086L166.295 42.7163Z" fill="#2A53E2" stroke="white" stroke-width="8.68652"/>
<path d="M154.228 44.1878L169.64 99.6689L170.724 103.568L166.91 104.923L37.1135 151.068L32.4202 152.737L31.407 147.86L19.8317 92.1647L19.0668 88.488L22.5963 87.2011L148.555 41.2692L152.97 39.6595L154.228 44.1878Z" fill="#0F33B0" stroke="white" stroke-width="8.68652"/>
<path d="M169.548 98.8916L186.894 136.847L189.004 141.464L184.115 142.834L75.0742 173.39L73.0716 173.95L71.3789 172.742L36.9632 148.185L30.1315 143.309L38.0568 140.548L164.168 96.5954L167.905 95.2932L169.548 98.8916Z" fill="#001D81" stroke="white" stroke-width="8.68652"/>
<path d="M32.2918 137.736L79.6363 157.746L82.4109 158.919L82.285 161.928L80.3458 208.121L80.0753 214.559L74.2098 211.893L34.2124 193.716L31.97 192.697L25.4547 134.846L32.2918 137.736Z" fill="#2A53E2" stroke="white" stroke-width="8.68652"/>
<path d="M220.342 159.452L213.76 157.062L171.983 141.89L169.451 140.97L163.793 90.7293L170.109 92.6468L211.596 105.238L214.33 106.068L220.342 159.452Z" fill="white" stroke="white" stroke-width="8.68652"/>
<path d="M221.169 165.345L217.994 166.531L91.6843 213.707L87.1529 215.4L85.9558 210.714L73.7446 162.888L72.7618 159.039L76.5076 157.718L209.667 110.749L214.816 108.932L221.169 165.345Z" fill="#406AFE" stroke="white" stroke-width="8.68652"/>
<path d="M39.4079 146.377L41.6269 150.111L41.6251 150.112C41.6236 150.113 41.622 150.114 41.6204 150.115C41.6171 150.117 41.6133 150.119 41.6094 150.122C41.6017 150.126 41.5925 150.131 41.5826 150.137C41.5629 150.148 41.5388 150.162 41.5106 150.178C41.4541 150.21 41.3803 150.252 41.2915 150.3C41.114 150.396 40.872 150.523 40.5768 150.665C39.9925 150.946 39.1648 151.305 38.1849 151.617C36.3779 152.191 33.3246 152.838 30.2656 151.691C28.667 151.092 27.5953 149.817 27.0483 149.11C26.3651 148.228 25.7163 147.162 25.1141 146.046C23.9 143.795 22.6483 140.905 21.4986 137.808C19.2163 131.659 17.1223 124.112 16.5579 118.275C16.0097 112.605 16.2256 106.379 16.5594 101.666C16.7278 99.2885 16.93 97.2529 17.0898 95.8078C17.1698 95.0848 17.2392 94.5079 17.2895 94.1078C17.3146 93.9077 17.3349 93.7511 17.3492 93.6431C17.3563 93.5895 17.3626 93.5478 17.3666 93.5183C17.3685 93.5038 17.3694 93.4919 17.3705 93.4835C17.3711 93.4792 17.3719 93.4751 17.3722 93.4725C17.3724 93.4713 17.3728 93.4703 17.3729 93.4695L17.3728 93.4685C17.3728 93.468 17.3731 93.4671 21.6753 94.063L17.3727 93.4675L17.8364 90.1241L21.1892 89.7465L32.882 88.4306L37.1975 87.9446L44.0371 148.676L41.6297 150.11L39.4079 146.377Z" fill="#406AFE" stroke="white" stroke-width="8.68652"/>
<path d="M158.634 40.2653L168.37 44.5428L175.212 105.297L165.484 101.093L158.634 40.2653Z" fill="#2A53E2"/>
<path d="M21.8544 87.3262L158.518 39.235L165.455 100.835L35.6586 146.98L21.8544 87.3262Z" fill="#0F33B0"/>
<path d="M35.9626 144.761L165.597 100.7L182.943 138.655L73.9012 169.211L35.9626 144.761Z" fill="#001D81"/>
<path d="M30.6005 141.737L77.9451 161.747L83.6179 212.118L36.0092 189.763L30.6005 141.737Z" fill="#2A53E2"/>
<path d="M165.414 100.693L211.346 114.107L216.53 160.137L170.032 141.698L165.414 100.693Z" fill="#0F33B0"/>
<path d="M92.3985 138.148C97.4768 122.64 108.151 115.718 123.539 110.286C138.953 104.844 151.641 103.535 165.34 112.455C181.979 123.288 182.232 160.41 182.232 160.41L109.291 186.104C109.291 186.104 86.2194 157.018 92.3985 138.148Z" fill="#BBD0F5"/>
<path d="M77.9521 161.816L211.344 114.094L216.783 162.384L83.6175 212.121L77.9521 161.816Z" fill="#406AFE"/>
<path d="M21.8543 87.3268L33.3674 92.7494L39.4074 146.381C39.4074 146.381 35.1777 148.898 31.7904 147.628C28.722 146.478 21.9083 128.493 20.8801 117.861C19.852 107.228 21.8543 87.3268 21.8543 87.3268Z" fill="#406AFE"/>
<path d="M21.8448 87.3313L158.576 39.1848L168.38 44.5478L33.1758 92.7691L21.8448 87.3313Z" fill="#406AFE"/>
<g filter="url(#filter0_i_160_3788)">
<path d="M64.4773 76.5049L64.3138 75.0525L78.1812 70.2237L84.8261 72.7424L85.0148 74.4181L70.5959 79.4856L64.4773 76.5049Z" fill="#D9D9D9"/>
</g>
<g filter="url(#filter1_i_160_3788)">
<path d="M70.0909 75.0991L70.0108 74.3875L76.8058 72.0213L80.0618 73.2555L80.1543 74.0766L73.089 76.5597L70.0909 75.0991Z" fill="#D9D9D9"/>
</g>
<path d="M99.0436 68.4961L98.8801 67.0437L99.8909 66.6285L104.553 68.8135L114.127 65.5775L110.343 63.6705L110.245 62.8053L111.793 62.4259L118.744 65.0575L118.933 66.7333L104.514 71.8008L99.0436 68.4961Z" fill="#D9D9D9"/>
<g filter="url(#filter2_i_160_3788)">
<path d="M121.078 56.2354L120.915 54.783L134.782 49.9542L141.427 52.4728L141.616 54.1486L127.197 59.2161L121.078 56.2354Z" fill="#D9D9D9"/>
</g>
<g filter="url(#filter3_i_160_3788)">
<path d="M126.855 54.8111L126.775 54.0994L133.57 51.7333L136.826 52.9674L136.918 53.7885L129.853 56.2716L126.855 54.8111Z" fill="#D9D9D9"/>
</g>
<g filter="url(#filter4_i_160_3788)">
<path d="M112.498 149.484L127.075 144.204L128.42 156.142L113.842 161.422L112.498 149.484Z" fill="#D9D9D9"/>
</g>
<g filter="url(#filter5_i_160_3788)">
<path d="M114.771 148.816L125.065 145.148L126.087 145.838L126.895 153.012L117.273 156.926L115.606 156.23L114.771 148.816Z" fill="#D9D9D9"/>
</g>
<g filter="url(#filter6_i_160_3788)">
<path d="M170.16 129.273L182.08 124.825L183.424 136.764L171.504 141.212L170.16 129.273Z" fill="#D9D9D9"/>
</g>
<g filter="url(#filter7_i_160_3788)">
<path d="M172.027 128.652L180.496 125.449L181.355 126.158L182.163 133.332L174.254 136.793L172.862 136.067L172.027 128.652Z" fill="#D9D9D9"/>
</g>
<path d="M126.644 140.37L218.134 64.1795L227.774 74.1638L126.644 140.37Z" fill="#BBD1F5"/>
<path d="M133.891 133.528L14.8314 133.93L13.8594 147.774L133.891 133.528Z" fill="#BBD1F5"/>
<path d="M124.799 140.552L170.556 24.1396L183.555 29.0013L124.799 140.552Z" fill="#BBD1F5"/>
<path d="M134.758 140.48L32.0949 69.0241L23.9783 80.2818L134.758 140.48Z" fill="#BBD1F5"/>
<path d="M131.417 135.114L84.4385 19.1884L97.2127 13.7628L131.417 135.114Z" fill="#BBD1F5"/>
<defs>
<filter id="filter0_i_160_3788" x="64.3138" y="70.2233" width="20.7009" height="9.2627" filterUnits="userSpaceOnUse" color-interpolation-filters="sRGB">
<feFlood flood-opacity="0" result="BackgroundImageFix"/>
<feBlend mode="normal" in="SourceGraphic" in2="BackgroundImageFix" result="shape"/>
<feColorMatrix in="SourceAlpha" type="matrix" values="0 0 0 0 0 0 0 0 0 0 0 0 0 0 0 0 0 0 127 0" result="hardAlpha"/>
<feOffset dy="-1.63307"/>
<feComposite in2="hardAlpha" operator="arithmetic" k2="-1" k3="1"/>
<feColorMatrix type="matrix" values="0 0 0 0 0 0 0 0 0 0 0 0 0 0 0 0 0 0 0.25 0"/>
<feBlend mode="normal" in2="shape" result="effect1_innerShadow_160_3788"/>
</filter>
<filter id="filter1_i_160_3788" x="70.0109" y="72.0211" width="10.1434" height="4.53809" filterUnits="userSpaceOnUse" color-interpolation-filters="sRGB">
<feFlood flood-opacity="0" result="BackgroundImageFix"/>
<feBlend mode="normal" in="SourceGraphic" in2="BackgroundImageFix" result="shape"/>
<feColorMatrix in="SourceAlpha" type="matrix" values="0 0 0 0 0 0 0 0 0 0 0 0 0 0 0 0 0 0 127 0" result="hardAlpha"/>
<feOffset dy="-0.800202"/>
<feComposite in2="hardAlpha" operator="arithmetic" k2="-1" k3="1"/>
<feColorMatrix type="matrix" values="0 0 0 0 0 0 0 0 0 0 0 0 0 0 0 0 0 0 0.25 0"/>
<feBlend mode="normal" in2="shape" result="effect1_innerShadow_160_3788"/>
</filter>
<filter id="filter2_i_160_3788" x="120.915" y="49.9538" width="20.7009" height="9.2627" filterUnits="userSpaceOnUse" color-interpolation-filters="sRGB">
<feFlood flood-opacity="0" result="BackgroundImageFix"/>
<feBlend mode="normal" in="SourceGraphic" in2="BackgroundImageFix" result="shape"/>
<feColorMatrix in="SourceAlpha" type="matrix" values="0 0 0 0 0 0 0 0 0 0 0 0 0 0 0 0 0 0 127 0" result="hardAlpha"/>
<feOffset dy="-1.63307"/>
<feComposite in2="hardAlpha" operator="arithmetic" k2="-1" k3="1"/>
<feColorMatrix type="matrix" values="0 0 0 0 0 0 0 0 0 0 0 0 0 0 0 0 0 0 0.25 0"/>
<feBlend mode="normal" in2="shape" result="effect1_innerShadow_160_3788"/>
</filter>
<filter id="filter3_i_160_3788" x="126.775" y="51.7331" width="10.1434" height="4.53809" filterUnits="userSpaceOnUse" color-interpolation-filters="sRGB">
<feFlood flood-opacity="0" result="BackgroundImageFix"/>
<feBlend mode="normal" in="SourceGraphic" in2="BackgroundImageFix" result="shape"/>
<feColorMatrix in="SourceAlpha" type="matrix" values="0 0 0 0 0 0 0 0 0 0 0 0 0 0 0 0 0 0 127 0" result="hardAlpha"/>
<feOffset dy="-0.800202"/>
<feComposite in2="hardAlpha" operator="arithmetic" k2="-1" k3="1"/>
<feColorMatrix type="matrix" values="0 0 0 0 0 0 0 0 0 0 0 0 0 0 0 0 0 0 0.25 0"/>
<feBlend mode="normal" in2="shape" result="effect1_innerShadow_160_3788"/>
</filter>
<filter id="filter4_i_160_3788" x="112.498" y="144.204" width="15.922" height="17.2188" filterUnits="userSpaceOnUse" color-interpolation-filters="sRGB">
<feFlood flood-opacity="0" result="BackgroundImageFix"/>
<feBlend mode="normal" in="SourceGraphic" in2="BackgroundImageFix" result="shape"/>
<feColorMatrix in="SourceAlpha" type="matrix" values="0 0 0 0 0 0 0 0 0 0 0 0 0 0 0 0 0 0 127 0" result="hardAlpha"/>
<feOffset dx="0.816533"/>
<feComposite in2="hardAlpha" operator="arithmetic" k2="-1" k3="1"/>
<feColorMatrix type="matrix" values="0 0 0 0 0 0 0 0 0 0 0 0 0 0 0 0 0 0 0.25 0"/>
<feBlend mode="normal" in2="shape" result="effect1_innerShadow_160_3788"/>
</filter>
<filter id="filter5_i_160_3788" x="114.771" y="145.148" width="12.1249" height="11.7783" filterUnits="userSpaceOnUse" color-interpolation-filters="sRGB">
<feFlood flood-opacity="0" result="BackgroundImageFix"/>
<feBlend mode="normal" in="SourceGraphic" in2="BackgroundImageFix" result="shape"/>
<feColorMatrix in="SourceAlpha" type="matrix" values="0 0 0 0 0 0 0 0 0 0 0 0 0 0 0 0 0 0 127 0" result="hardAlpha"/>
<feOffset dx="1.63307" dy="0.816533"/>
<feComposite in2="hardAlpha" operator="arithmetic" k2="-1" k3="1"/>
<feColorMatrix type="matrix" values="0 0 0 0 0 0 0 0 0 0 0 0 0 0 0 0 0 0 0.25 0"/>
<feBlend mode="normal" in2="shape" result="effect1_innerShadow_160_3788"/>
</filter>
<filter id="filter6_i_160_3788" x="170.16" y="124.826" width="13.2645" height="16.3857" filterUnits="userSpaceOnUse" color-interpolation-filters="sRGB">
<feFlood flood-opacity="0" result="BackgroundImageFix"/>
<feBlend mode="normal" in="SourceGraphic" in2="BackgroundImageFix" result="shape"/>
<feColorMatrix in="SourceAlpha" type="matrix" values="0 0 0 0 0 0 0 0 0 0 0 0 0 0 0 0 0 0 127 0" result="hardAlpha"/>
<feOffset dx="0.816533"/>
<feComposite in2="hardAlpha" operator="arithmetic" k2="-1" k3="1"/>
<feColorMatrix type="matrix" values="0 0 0 0 0 0 0 0 0 0 0 0 0 0 0 0 0 0 0.25 0"/>
<feBlend mode="normal" in2="shape" result="effect1_innerShadow_160_3788"/>
</filter>
<filter id="filter7_i_160_3788" x="172.027" y="125.449" width="10.1361" height="11.3447" filterUnits="userSpaceOnUse" color-interpolation-filters="sRGB">
<feFlood flood-opacity="0" result="BackgroundImageFix"/>
<feBlend mode="normal" in="SourceGraphic" in2="BackgroundImageFix" result="shape"/>
<feColorMatrix in="SourceAlpha" type="matrix" values="0 0 0 0 0 0 0 0 0 0 0 0 0 0 0 0 0 0 127 0" result="hardAlpha"/>
<feOffset dx="1.63307" dy="0.816533"/>
<feComposite in2="hardAlpha" operator="arithmetic" k2="-1" k3="1"/>
<feColorMatrix type="matrix" values="0 0 0 0 0 0 0 0 0 0 0 0 0 0 0 0 0 0 0.25 0"/>
<feBlend mode="normal" in2="shape" result="effect1_innerShadow_160_3788"/>
</filter>
</defs>
</svg>
