<svg width="412" height="491" viewBox="0 0 412 491" fill="none" xmlns="http://www.w3.org/2000/svg">
<mask id="path-1-outside-1_309_12" maskUnits="userSpaceOnUse" x="33.1201" y="24.1661" width="325" height="447" fill="black">
<rect fill="white" x="33.1201" y="24.1661" width="325" height="447"/>
<path d="M208.556 49.4913C220.213 39.896 236.763 37.1663 251.431 43.8439C264.202 49.6584 272.531 61.2324 274.747 74.0909C278.893 80.55 281.528 87.8388 282.035 95.5841L307.611 98.4259C307.664 98.456 328.36 110.405 338.72 121.353C343.779 126.699 338.398 132.79 329.255 138.218C352.222 180.606 339.061 237.735 339.047 237.794C339.045 237.792 339.02 237.768 338.974 237.724C341.522 254.408 342.262 276.335 333.364 292.613C329.477 299.725 321.638 306.746 313.562 312.647C312.949 313.149 312.346 313.628 311.761 314.07C309.342 315.898 306.373 317.771 303.367 319.517C294.937 324.789 288.165 328.142 288.111 328.169L299.769 348.819L323.518 360.379C332.952 364.971 336.878 376.342 332.286 385.777L304.974 441.896C299.156 453.849 284.749 458.823 272.796 453.005C260.843 447.187 255.869 432.781 261.687 420.827L269.484 404.804L212.592 342.657L163.004 395.307C154.647 404.179 140.68 404.597 131.808 396.24C122.936 387.884 122.518 373.917 130.875 365.045L143.552 351.585C135.379 341.914 106.941 306.89 104.912 285.507C102.733 262.541 109.771 248.229 131.333 226.35L104.649 233.952C104.649 233.952 105.436 233.47 106.355 232.169L88.0215 244.999L51.1201 231.714L59.1504 199.938L72.7744 197.283C71.6112 195.813 70.6762 194.245 70.0684 192.581C66.2268 182.064 71.2509 172.549 71.2861 172.483L81.4854 165.833L77.373 161.661L106.157 111.407L107.725 99.5577L122.841 85.8527L149.626 88.2325L142.04 107.223L148.074 108.543L142.04 119.975L132.853 127.229L131.723 130.973L137.23 129.343L158.273 112.048C149.411 98.441 149.224 79.9743 159.217 65.3878C170.522 48.8853 191.165 42.7401 208.556 49.4913ZM189.504 297.608L186.286 298.911L194.431 310.881L204.237 320.117L219.825 294.557L189.504 297.608ZM131.062 133.162L130.93 133.603L136.339 130.076L136.399 130.026L131.062 133.162Z"/>
</mask>
<path d="M208.556 49.4913C220.213 39.896 236.763 37.1663 251.431 43.8439C264.202 49.6584 272.531 61.2324 274.747 74.0909C278.893 80.55 281.528 87.8388 282.035 95.5841L307.611 98.4259C307.664 98.456 328.36 110.405 338.72 121.353C343.779 126.699 338.398 132.79 329.255 138.218C352.222 180.606 339.061 237.735 339.047 237.794C339.045 237.792 339.02 237.768 338.974 237.724C341.522 254.408 342.262 276.335 333.364 292.613C329.477 299.725 321.638 306.746 313.562 312.647C312.949 313.149 312.346 313.628 311.761 314.07C309.342 315.898 306.373 317.771 303.367 319.517C294.937 324.789 288.165 328.142 288.111 328.169L299.769 348.819L323.518 360.379C332.952 364.971 336.878 376.342 332.286 385.777L304.974 441.896C299.156 453.849 284.749 458.823 272.796 453.005C260.843 447.187 255.869 432.781 261.687 420.827L269.484 404.804L212.592 342.657L163.004 395.307C154.647 404.179 140.68 404.597 131.808 396.24C122.936 387.884 122.518 373.917 130.875 365.045L143.552 351.585C135.379 341.914 106.941 306.89 104.912 285.507C102.733 262.541 109.771 248.229 131.333 226.35L104.649 233.952C104.649 233.952 105.436 233.47 106.355 232.169L88.0215 244.999L51.1201 231.714L59.1504 199.938L72.7744 197.283C71.6112 195.813 70.6762 194.245 70.0684 192.581C66.2268 182.064 71.2509 172.549 71.2861 172.483L81.4854 165.833L77.373 161.661L106.157 111.407L107.725 99.5577L122.841 85.8527L149.626 88.2325L142.04 107.223L148.074 108.543L142.04 119.975L132.853 127.229L131.723 130.973L137.23 129.343L158.273 112.048C149.411 98.441 149.224 79.9743 159.217 65.3878C170.522 48.8853 191.165 42.7401 208.556 49.4913ZM189.504 297.608L186.286 298.911L194.431 310.881L204.237 320.117L219.825 294.557L189.504 297.608ZM131.062 133.162L130.93 133.603L136.339 130.076L136.399 130.026L131.062 133.162Z" fill="#002C70"/>
<path d="M208.556 49.4913L203.127 63.4746L211.311 66.6515L218.088 61.0726L208.556 49.4913ZM251.431 43.8439L257.646 30.1922L257.646 30.192L251.431 43.8439ZM274.747 74.0909L259.965 76.639L260.482 79.635L262.124 82.1934L274.747 74.0909ZM282.035 95.5841L267.067 96.5642L267.888 109.105L280.379 110.492L282.035 95.5841ZM307.611 98.4259L315.11 85.4348L312.39 83.8645L309.268 83.5176L307.611 98.4259ZM338.72 121.353L349.615 111.043L349.615 111.043L338.72 121.353ZM329.255 138.218L321.598 125.32L309.195 132.682L316.066 145.364L329.255 138.218ZM339.047 237.794L328.603 248.561L347.69 267.074L353.663 241.164L339.047 237.794ZM338.974 237.724L349.37 226.911L317.463 196.232L324.146 239.988L338.974 237.724ZM333.364 292.613L346.526 299.808L346.526 299.808L333.364 292.613ZM313.562 312.647L304.712 300.535L304.374 300.782L304.05 301.048L313.562 312.647ZM311.761 314.07L320.804 326.038L320.804 326.038L311.761 314.07ZM303.367 319.517L295.835 306.545L295.622 306.669L295.413 306.799L303.367 319.517ZM288.111 328.169L281.46 314.724L267.262 321.748L275.049 335.543L288.111 328.169ZM299.769 348.819L286.706 356.193L289.003 360.262L293.204 362.307L299.769 348.819ZM323.518 360.379L316.953 373.866L316.953 373.866L323.518 360.379ZM332.286 385.777L318.799 379.213L318.799 379.213L332.286 385.777ZM304.974 441.896L318.461 448.46L318.461 448.46L304.974 441.896ZM272.796 453.005L266.231 466.492L266.232 466.492L272.796 453.005ZM261.687 420.827L275.174 427.392L275.174 427.391L261.687 420.827ZM269.484 404.804L282.972 411.368L287.435 402.198L280.548 394.675L269.484 404.804ZM212.592 342.657L223.656 332.529L212.748 320.614L201.672 332.373L212.592 342.657ZM163.004 395.307L173.923 405.591L173.923 405.591L163.004 395.307ZM131.808 396.24L121.523 407.159L121.523 407.159L131.808 396.24ZM130.875 365.045L141.794 375.33L141.795 375.329L130.875 365.045ZM143.552 351.585L154.471 361.869L163.648 352.126L155.009 341.903L143.552 351.585ZM104.912 285.507L89.9792 286.924L89.9792 286.924L104.912 285.507ZM131.333 226.35L142.017 236.879L181.988 196.321L127.223 211.924L131.333 226.35ZM104.649 233.952L96.8134 221.162L108.76 248.378L104.649 233.952ZM106.355 232.169L118.606 240.825L97.7552 219.879L106.355 232.169ZM88.0215 244.999L82.9405 259.112L90.2536 261.745L96.6217 257.289L88.0215 244.999ZM51.1201 231.714L36.5773 228.039L33.2459 241.221L46.0391 245.827L51.1201 231.714ZM59.1504 199.938L56.282 185.214L46.9396 187.035L44.6076 196.262L59.1504 199.938ZM72.7744 197.283L75.6429 212.007L99.8221 207.296L84.5382 187.977L72.7744 197.283ZM70.0684 192.581L55.9788 197.727L55.9789 197.728L70.0684 192.581ZM71.2861 172.483L63.0941 159.917L59.846 162.035L58.031 165.461L71.2861 172.483ZM81.4854 165.833L89.6774 178.399L105.053 168.375L92.1679 155.303L81.4854 165.833ZM77.373 161.661L64.357 154.206L58.699 164.084L66.6905 172.191L77.373 161.661ZM106.157 111.407L119.173 118.863L120.641 116.301L121.028 113.374L106.157 111.407ZM107.725 99.5577L97.6494 88.4451L93.5753 92.1389L92.8541 97.5908L107.725 99.5577ZM122.841 85.8527L124.168 70.9115L117.629 70.3305L112.766 74.7401L122.841 85.8527ZM149.626 88.2325L163.556 93.797L171.034 75.0756L150.954 73.2914L149.626 88.2325ZM142.04 107.223L128.11 101.658L121.545 118.093L138.834 121.876L142.04 107.223ZM148.074 108.543L161.34 115.545L170.545 98.105L151.28 93.8898L148.074 108.543ZM142.04 119.975L151.335 131.748L153.825 129.782L155.305 126.977L142.04 119.975ZM132.853 127.229L123.557 115.456L119.855 118.379L118.492 122.895L132.853 127.229ZM131.723 130.973L117.362 126.639L109.335 153.241L135.979 145.356L131.723 130.973ZM137.23 129.343L141.487 143.726L144.404 142.863L146.755 140.931L137.23 129.343ZM158.273 112.048L167.798 123.636L178.17 115.112L170.842 103.861L158.273 112.048ZM159.217 65.3878L146.842 56.9102L146.842 56.9103L159.217 65.3878ZM189.504 297.608L188.002 282.683L185.864 282.898L183.871 283.705L189.504 297.608ZM186.286 298.911L180.653 285.009L163.431 291.987L173.885 307.35L186.286 298.911ZM194.431 310.881L182.029 319.319L182.952 320.676L184.146 321.8L194.431 310.881ZM204.237 320.117L193.953 331.037L207.415 343.716L217.044 327.927L204.237 320.117ZM219.825 294.557L232.632 302.367L248.338 276.612L218.324 279.632L219.825 294.557ZM131.062 133.162L123.462 120.23L118.381 123.215L116.692 128.861L131.062 133.162ZM130.93 133.603L116.56 129.301L104.816 168.533L139.121 146.168L130.93 133.603ZM136.339 130.076L144.531 142.642L145.287 142.149L145.978 141.569L136.339 130.076ZM136.399 130.026L146.039 141.518L128.8 117.093L136.399 130.026ZM208.556 49.4913L218.088 61.0726C225.493 54.9775 235.96 53.2822 245.216 57.4957L251.431 43.8439L257.646 30.192C237.566 21.0505 214.933 24.8145 199.023 37.91L208.556 49.4913ZM251.431 43.8439L245.215 57.4956C253.279 61.1668 258.555 68.4602 259.965 76.639L274.747 74.0909L289.529 71.5429C286.506 54.0047 275.125 38.15 257.646 30.1922L251.431 43.8439ZM274.747 74.0909L262.124 82.1934C265.058 86.7651 266.744 91.634 267.067 96.5642L282.035 95.5841L297.003 94.604C296.312 84.0437 292.728 74.3349 287.37 65.9885L274.747 74.0909ZM282.035 95.5841L280.379 110.492L305.955 113.334L307.611 98.4259L309.268 83.5176L283.692 80.6759L282.035 95.5841ZM307.611 98.4259L300.113 111.417C299.979 111.34 304.842 114.144 310.924 118.238C317.239 122.49 323.843 127.455 327.824 131.662L338.72 121.353L349.615 111.043C343.237 104.302 334.313 97.8193 327.677 93.352C320.807 88.7271 315.296 85.5419 315.11 85.4348L307.611 98.4259ZM338.72 121.353L327.824 131.662C327.109 130.907 325.806 129.009 325.677 126.163C325.557 123.55 326.516 121.921 326.718 121.609C326.898 121.33 326.742 121.658 325.732 122.494C324.784 123.28 323.419 124.238 321.598 125.32L329.255 138.218L336.912 151.116C341.955 148.122 348.099 143.792 351.909 137.9C353.966 134.719 355.893 130.226 355.645 124.797C355.387 119.136 352.86 114.472 349.615 111.043L338.72 121.353ZM329.255 138.218L316.066 145.364C325.763 163.259 328.169 185.116 327.772 203.557C327.381 221.748 324.308 234.954 324.43 234.424L339.047 237.794L353.663 241.164C353.799 240.575 357.314 225.186 357.765 204.202C358.211 183.466 355.715 155.565 342.443 131.072L329.255 138.218ZM339.047 237.794L349.49 227.027C349.474 227.011 349.461 226.998 349.456 226.994C349.45 226.988 349.445 226.983 349.442 226.98C349.437 226.975 349.432 226.971 349.43 226.969C349.426 226.965 349.423 226.962 349.421 226.96C349.417 226.956 349.414 226.953 349.41 226.949C349.401 226.941 349.388 226.928 349.37 226.911L338.974 237.724L328.577 248.536C328.606 248.564 328.628 248.585 328.644 248.601C328.652 248.608 328.658 248.614 328.661 248.617C328.663 248.619 328.662 248.618 328.66 248.616C328.659 248.615 328.655 248.611 328.65 248.606C328.648 248.604 328.643 248.6 328.637 248.594C328.634 248.591 328.63 248.587 328.625 248.582C328.62 248.578 328.613 248.57 328.603 248.561L339.047 237.794ZM338.974 237.724L324.146 239.988C326.608 256.115 326.585 273.741 320.202 285.419L333.364 292.613L346.526 299.808C357.939 278.929 356.435 252.701 353.802 235.459L338.974 237.724ZM333.364 292.613L320.202 285.419C317.994 289.46 312.48 294.86 304.712 300.535L313.562 312.647L322.411 324.758C330.796 318.632 340.961 309.99 346.526 299.808L333.364 292.613ZM313.562 312.647L304.05 301.048C303.547 301.461 303.105 301.81 302.717 302.103L311.761 314.07L320.804 326.038C321.588 325.445 322.35 324.838 323.073 324.245L313.562 312.647ZM311.761 314.07L302.717 302.103C300.983 303.413 298.595 304.942 295.835 306.545L303.367 319.517L310.899 332.489C314.151 330.601 317.7 328.383 320.804 326.038L311.761 314.07ZM303.367 319.517L295.413 306.799C287.56 311.711 281.268 314.819 281.46 314.724L288.111 328.169L294.762 341.614C295.062 341.466 302.315 337.867 311.321 332.234L303.367 319.517ZM288.111 328.169L275.049 335.543L286.706 356.193L299.769 348.819L312.831 341.446L301.174 320.795L288.111 328.169ZM299.769 348.819L293.204 362.307L316.953 373.866L323.518 360.379L330.082 346.892L306.333 335.332L299.769 348.819ZM323.518 360.379L316.953 373.866C318.939 374.833 319.766 377.227 318.799 379.213L332.286 385.777L345.774 392.342C353.991 375.458 346.966 355.11 330.082 346.892L323.518 360.379ZM332.286 385.777L318.799 379.213L291.486 435.331L304.974 441.896L318.461 448.46L345.774 392.342L332.286 385.777ZM304.974 441.896L291.486 435.331C289.294 439.836 283.865 441.71 279.36 439.518L272.796 453.005L266.232 466.492C285.634 475.935 309.018 467.862 318.461 448.46L304.974 441.896ZM272.796 453.005L279.36 439.518C274.856 437.325 272.982 431.896 275.174 427.392L261.687 420.827L248.199 414.263C238.756 433.665 246.829 457.049 266.231 466.492L272.796 453.005ZM261.687 420.827L275.174 427.391L282.972 411.368L269.484 404.804L255.997 398.24L248.199 414.263L261.687 420.827ZM269.484 404.804L280.548 394.675L223.656 332.529L212.592 342.657L201.528 352.786L258.42 414.932L269.484 404.804ZM212.592 342.657L201.672 332.373L152.085 385.022L163.004 395.307L173.923 405.591L223.511 352.942L212.592 342.657ZM163.004 395.307L152.085 385.022C149.408 387.864 144.934 387.998 142.092 385.321L131.808 396.24L121.523 407.159C136.426 421.196 159.886 420.494 173.923 405.591L163.004 395.307ZM131.808 396.24L142.092 385.321C139.251 382.645 139.117 378.172 141.794 375.33L130.875 365.045L119.956 354.76C105.92 369.662 106.62 393.122 121.523 407.159L131.808 396.24ZM130.875 365.045L141.795 375.329L154.471 361.869L143.552 351.585L132.632 341.301L119.955 354.761L130.875 365.045ZM143.552 351.585L155.009 341.903C151.089 337.265 142.353 326.591 134.427 314.645C130.463 308.671 126.864 302.62 124.189 297.024C121.42 291.229 120.11 286.88 119.845 284.09L104.912 285.507L89.9792 286.924C90.7288 294.825 93.7343 302.873 97.1227 309.962C100.606 317.249 105.008 324.568 109.429 331.231C118.272 344.56 127.842 356.234 132.095 361.267L143.552 351.585ZM104.912 285.507L119.845 284.09C118.949 274.64 119.995 268.053 122.871 261.737C125.958 254.957 131.643 247.405 142.017 236.879L131.333 226.35L120.649 215.821C109.461 227.174 100.845 237.717 95.5686 249.304C90.0803 261.356 88.697 273.408 89.9792 286.924L104.912 285.507ZM131.333 226.35L127.223 211.924L100.539 219.526L104.649 233.952L108.76 248.378L135.443 240.776L131.333 226.35ZM104.649 233.952C112.485 246.743 112.49 246.74 112.494 246.738C112.495 246.737 112.5 246.734 112.502 246.732C112.508 246.729 112.514 246.725 112.52 246.722C112.531 246.715 112.543 246.708 112.554 246.7C112.577 246.686 112.601 246.671 112.624 246.657C112.672 246.627 112.72 246.596 112.769 246.565C112.867 246.502 112.968 246.435 113.073 246.365C113.282 246.224 113.504 246.067 113.737 245.894C114.202 245.548 114.711 245.136 115.245 244.65C116.319 243.674 117.482 242.416 118.606 240.825L106.355 232.169L94.1048 223.513C94.3096 223.223 94.6194 222.857 95.0699 222.447C95.2931 222.245 95.5474 222.034 95.8368 221.819C95.9814 221.712 96.1347 221.603 96.2973 221.493C96.3786 221.439 96.4622 221.383 96.5482 221.328C96.5912 221.301 96.6348 221.273 96.679 221.245C96.7011 221.231 96.7233 221.217 96.7457 221.203C96.7569 221.197 96.7682 221.19 96.7795 221.183C96.7851 221.179 96.7908 221.176 96.7964 221.172C96.7993 221.17 96.8035 221.168 96.8049 221.167C96.8092 221.164 96.8134 221.162 104.649 233.952ZM106.355 232.169L97.7552 219.879L79.4212 232.709L88.0215 244.999L96.6217 257.289L114.956 244.459L106.355 232.169ZM88.0215 244.999L93.1025 230.886L56.2011 217.601L51.1201 231.714L46.0391 245.827L82.9405 259.112L88.0215 244.999ZM51.1201 231.714L65.6629 235.389L73.6932 203.613L59.1504 199.938L44.6076 196.262L36.5773 228.039L51.1201 231.714ZM59.1504 199.938L62.0188 214.661L75.6429 212.007L72.7744 197.283L69.906 182.56L56.282 185.214L59.1504 199.938ZM72.7744 197.283L84.5382 187.977C84.1509 187.487 84.1092 187.302 84.1578 187.435L70.0684 192.581L55.9789 197.728C57.2432 201.189 59.0715 204.139 61.0106 206.59L72.7744 197.283ZM70.0684 192.581L84.1579 187.435C83.48 185.579 83.505 183.585 83.901 181.706C84.2989 179.819 84.925 178.78 84.5413 179.504L71.2861 172.483L58.031 165.461C57.6523 166.176 49.8004 180.812 55.9788 197.727L70.0684 192.581ZM71.2861 172.483L79.4782 185.048L89.6774 178.399L81.4854 165.833L73.2933 153.268L63.0941 159.917L71.2861 172.483ZM81.4854 165.833L92.1679 155.303L88.0556 151.131L77.373 161.661L66.6905 172.191L70.8028 176.363L81.4854 165.833ZM77.373 161.661L90.3891 169.117L119.173 118.863L106.157 111.407L93.1411 103.952L64.357 154.206L77.373 161.661ZM106.157 111.407L121.028 113.374L122.595 101.525L107.725 99.5577L92.8541 97.5908L91.2868 109.44L106.157 111.407ZM107.725 99.5577L117.8 110.67L132.916 96.9653L122.841 85.8527L112.766 74.7401L97.6494 88.4451L107.725 99.5577ZM122.841 85.8527L121.513 100.794L148.298 103.174L149.626 88.2325L150.954 73.2914L124.168 70.9115L122.841 85.8527ZM149.626 88.2325L135.696 82.6681L128.11 101.658L142.04 107.223L155.97 112.787L163.556 93.797L149.626 88.2325ZM142.04 107.223L138.834 121.876L144.868 123.196L148.074 108.543L151.28 93.8898L145.246 92.5694L142.04 107.223ZM148.074 108.543L134.809 101.541L128.775 112.973L142.04 119.975L155.305 126.977L161.34 115.545L148.074 108.543ZM142.04 119.975L132.745 108.202L123.557 115.456L132.853 127.229L142.148 139.001L151.335 131.748L142.04 119.975ZM132.853 127.229L118.492 122.895L117.362 126.639L131.723 130.973L146.083 135.306L147.213 131.562L132.853 127.229ZM131.723 130.973L135.979 145.356L141.487 143.726L137.23 129.343L132.974 114.959L127.466 116.589L131.723 130.973ZM137.23 129.343L146.755 140.931L167.798 123.636L158.273 112.048L148.749 100.46L127.706 117.755L137.23 129.343ZM158.273 112.048L170.842 103.861C165.29 95.3364 165.028 83.4464 171.591 73.8654L159.217 65.3878L146.842 56.9103C133.42 76.5022 133.532 101.546 145.704 120.234L158.273 112.048ZM159.217 65.3878L171.591 73.8655C179.036 62.9989 192.353 59.2919 203.127 63.4746L208.556 49.4913L213.984 35.508C189.977 26.1884 162.009 34.7718 146.842 56.9102L159.217 65.3878ZM189.504 297.608L183.871 283.705L180.653 285.009L186.286 298.911L191.919 312.814L195.137 311.51L189.504 297.608ZM186.286 298.911L173.885 307.35L182.029 319.319L194.431 310.881L206.832 302.443L198.688 290.473L186.286 298.911ZM194.431 310.881L184.146 321.8L193.953 331.037L204.237 320.117L214.522 309.198L204.715 299.962L194.431 310.881ZM204.237 320.117L217.044 327.927L232.632 302.367L219.825 294.557L207.019 286.747L191.431 312.307L204.237 320.117ZM219.825 294.557L218.324 279.632L188.002 282.683L189.504 297.608L191.006 312.532L221.327 309.481L219.825 294.557ZM131.062 133.162L116.692 128.861L116.56 129.301L130.93 133.603L145.3 137.904L145.432 137.464L131.062 133.162ZM130.93 133.603L139.121 146.168L144.531 142.642L136.339 130.076L128.147 117.511L122.738 121.037L130.93 133.603ZM136.339 130.076L145.978 141.569L146.039 141.518L136.399 130.026L126.76 118.533L126.7 118.583L136.339 130.076ZM136.399 130.026L128.8 117.093L123.462 120.23L131.062 133.162L138.661 146.095L143.999 142.958L136.399 130.026Z" fill="white" mask="url(#path-1-outside-1_309_12)"/>
<path d="M76.9778 186.918L96.9291 188.386L139.471 165.178L228.577 103.264L256.314 150.362L114.396 226.543L88.0216 244.999L51.1199 231.714L59.15 199.937L81.6221 195.56L76.9778 186.918Z" fill="#93B0E2"/>
<path d="M90.4129 190.023L156.411 129.764L198.609 165.851L197.523 207.493L104.65 233.952C104.65 233.952 110.929 230.127 108.712 214.816C106.596 200.207 90.4129 190.023 90.4129 190.023Z" fill="#002C70"/>
<path d="M251.43 43.8436C232.095 35.0409 209.486 42.5833 199.13 60.6557L273.094 94.3292C279.924 74.6513 270.766 52.6467 251.43 43.8436Z" fill="#2C287C"/>
<path d="M159.217 65.3875C172.235 46.3857 197.633 41.1121 216.191 53.4518L192.237 83.7431L168.663 122.827C150.454 109.978 146.199 84.3892 159.217 65.3875Z" fill="#2C287C"/>
<path d="M282.126 98.3252C282.126 126.631 253.499 149.578 225.193 149.578C196.887 149.578 167.651 126.631 167.651 98.3252C167.651 70.0191 196.887 47.0725 225.193 47.0725C253.499 47.0725 282.126 70.0191 282.126 98.3252Z" fill="#191569"/>
<path d="M91.0015 148.855L105.179 118.811L107.725 99.5577L122.841 85.8525L149.626 88.2324L142.04 107.223L148.075 108.543L142.04 119.975L132.596 127.433L99.1988 200.3C99.1988 200.3 87.0834 186.313 85.55 175.294C84.097 164.852 91.0015 148.855 91.0015 148.855Z" fill="#93B0E2"/>
<path d="M135.909 221.803C161.053 197.272 222.597 191.257 222.597 191.257L288.111 187.582L333.364 213.231C333.364 213.231 349.795 262.554 333.364 292.613C323.488 310.681 288.111 328.169 288.111 328.169L310.738 368.251L281 417.383L199.328 328.169L227.297 282.305L186.286 298.911L196.994 314.647L145.733 354.128C145.733 354.128 107.283 310.501 104.912 285.507C102.586 260.988 110.765 246.333 135.909 221.803Z" fill="#001D4A"/>
<path d="M178.811 94.901C178.811 94.901 267.162 75.7179 312.377 116.56C357.593 157.403 339.047 237.794 339.047 237.794C339.047 237.794 301.202 201.074 270.279 196.658C232.093 191.205 175.235 201.528 175.235 201.528C175.235 201.528 192.576 192.165 192.576 158.792C192.576 136.965 178.811 94.901 178.811 94.901Z" fill="#0047B5"/>
<path d="M274.208 224.174C274.208 224.174 268.174 266.011 262.534 273.684C251.631 288.518 220.246 294.515 220.246 294.515L184.91 298.07L153.009 251.158L203.851 286.287C203.851 286.287 235.706 281.017 252.069 269.659C260.763 263.624 274.208 224.174 274.208 224.174Z" fill="#000E25"/>
<g filter="url(#filter0_i_309_12)">
<path d="M181.615 311.173C185.023 307.555 190.719 307.385 194.338 310.793L216.276 331.456C218.286 333.349 218.381 336.514 216.487 338.524L162.146 396.218C153.789 405.091 139.822 405.509 130.95 397.152V397.152C122.078 388.795 121.66 374.828 130.016 365.956L181.615 311.173Z" fill="white"/>
</g>
<g filter="url(#filter1_i_309_12)">
<path d="M295.563 351.222C296.53 349.236 298.924 348.409 300.91 349.376L325.315 361.254C333.758 365.362 337.27 375.537 333.162 383.979L304.974 441.895C299.156 453.849 284.75 458.823 272.796 453.005V453.005C260.843 447.187 255.869 432.781 261.687 420.827L295.563 351.222Z" fill="white"/>
</g>
<path d="M230.393 327.437L327.572 299.251C327.572 299.251 318.512 308.968 311.76 314.07C303.294 320.469 288.1 327.437 288.1 327.437H230.393Z" fill="#000E25"/>
<path d="M129.621 135.601L179.75 94.3958L216.966 135.601L210.544 176.759L132.096 200.426C132.096 200.426 146.377 182.423 146.144 166.954C145.921 152.194 129.621 135.601 129.621 135.601Z" fill="#0047B5"/>
<path d="M106.329 111.109C106.329 111.109 106.87 120.26 112.042 124.266C118.534 129.293 132.861 127.206 132.861 127.206L111.906 196.698L73.9881 164.014L106.329 111.109Z" fill="#0047B5"/>
<path d="M143.391 125.481L157.167 161.475L133.17 200.136L98.7856 212.589C98.7856 212.589 71.4191 204.45 68.4886 191.1C65.5209 177.58 74.1329 164.097 74.1329 164.097L143.391 125.481Z" fill="#0047B5"/>
<path d="M91.5729 156.366L109.211 137.634L137.899 129.145L91.5729 156.366Z" fill="#002C70"/>
<path d="M200.471 146.14L199.117 171.834L186.221 187.582L200.471 146.14Z" fill="#002C70"/>
<g filter="url(#filter2_d_309_12)">
<path d="M230.345 90.3297L289.342 96.7665L337.231 131.978C337.231 131.978 306.529 173.352 275.633 167.946C254.543 164.255 222.908 110.475 222.908 110.475L230.345 90.3297Z" fill="#0047B5"/>
</g>
<path d="M239.504 90.8601L307.611 98.4254C307.611 98.4254 328.347 110.391 338.719 121.353C349.092 132.315 315.589 146.41 295.723 151.492C281.781 155.059 239.504 90.8601 239.504 90.8601Z" fill="#002C70"/>
<defs>
<filter id="filter0_i_309_12" x="124.012" y="308.344" width="93.8354" height="94.8119" filterUnits="userSpaceOnUse" color-interpolation-filters="sRGB">
<feFlood flood-opacity="0" result="BackgroundImageFix"/>
<feBlend mode="normal" in="SourceGraphic" in2="BackgroundImageFix" result="shape"/>
<feColorMatrix in="SourceAlpha" type="matrix" values="0 0 0 0 0 0 0 0 0 0 0 0 0 0 0 0 0 0 127 0" result="hardAlpha"/>
<feOffset dx="-27" dy="-17"/>
<feComposite in2="hardAlpha" operator="arithmetic" k2="-1" k3="1"/>
<feColorMatrix type="matrix" values="0 0 0 0 0 0 0 0 0 0 0 0 0 0 0 0 0 0 0.25 0"/>
<feBlend mode="normal" in2="shape" result="effect1_innerShadow_309_12"/>
</filter>
<filter id="filter1_i_309_12" x="255.254" y="344.972" width="79.6262" height="110.466" filterUnits="userSpaceOnUse" color-interpolation-filters="sRGB">
<feFlood flood-opacity="0" result="BackgroundImageFix"/>
<feBlend mode="normal" in="SourceGraphic" in2="BackgroundImageFix" result="shape"/>
<feColorMatrix in="SourceAlpha" type="matrix" values="0 0 0 0 0 0 0 0 0 0 0 0 0 0 0 0 0 0 127 0" result="hardAlpha"/>
<feOffset dx="-32" dy="-20"/>
<feGaussianBlur stdDeviation="2"/>
<feComposite in2="hardAlpha" operator="arithmetic" k2="-1" k3="1"/>
<feColorMatrix type="matrix" values="0 0 0 0 0 0 0 0 0 0 0 0 0 0 0 0 0 0 0.25 0"/>
<feBlend mode="normal" in2="shape" result="effect1_innerShadow_309_12"/>
</filter>
<filter id="filter2_d_309_12" x="216.908" y="90.3297" width="122.323" height="86.1033" filterUnits="userSpaceOnUse" color-interpolation-filters="sRGB">
<feFlood flood-opacity="0" result="BackgroundImageFix"/>
<feColorMatrix in="SourceAlpha" type="matrix" values="0 0 0 0 0 0 0 0 0 0 0 0 0 0 0 0 0 0 127 0" result="hardAlpha"/>
<feOffset dx="-2" dy="4"/>
<feGaussianBlur stdDeviation="2"/>
<feComposite in2="hardAlpha" operator="out"/>
<feColorMatrix type="matrix" values="0 0 0 0 0 0 0 0 0 0 0 0 0 0 0 0 0 0 0.25 0"/>
<feBlend mode="normal" in2="BackgroundImageFix" result="effect1_dropShadow_309_12"/>
<feBlend mode="normal" in="SourceGraphic" in2="effect1_dropShadow_309_12" result="shape"/>
</filter>
</defs>
</svg>
