<svg width="787" height="766" viewBox="0 0 787 766" fill="none" xmlns="http://www.w3.org/2000/svg">
<g clip-path="url(#clip0_317_2)">
<mask id="path-1-outside-1_317_2" maskUnits="userSpaceOnUse" x="55.5574" y="107.993" width="712" height="551" fill="black">
<rect fill="white" x="55.5574" y="107.993" width="712" height="551"/>
<path d="M272.326 162.72C272.326 162.72 299.863 134.736 365.954 138.308C413.414 140.874 447.978 174.757 467.663 211.957C489.301 240.84 490.415 269.227 487.528 288.851C488.019 304.028 487.289 319.771 486.094 334.025C494.451 306.165 511.94 282.057 537.566 266.872C596.541 231.927 676.271 257.469 715.646 323.922C755.021 390.374 739.132 472.573 680.157 507.517C653.147 523.522 621.785 526.836 591.939 519.346C580.88 521.915 550.526 528.043 523.941 524.968C537.744 535.486 546.652 552.098 546.652 570.791C546.652 602.59 520.873 628.369 489.074 628.369C457.275 628.369 431.497 602.59 431.497 570.791C431.497 555.654 437.338 541.881 446.889 531.603C438.584 517.587 431.635 505.859 428.162 499.998C396.268 531.832 352.243 551.516 303.62 551.516C234.486 551.516 174.648 511.723 145.758 453.792C139.214 457.782 128.292 462.726 120.008 457.815C101.71 446.968 92.4832 410.522 103.415 392.274C103.813 391.61 104.255 390.993 104.738 390.422C96.4083 374.084 89.9151 354.651 87.3005 331.818C76.5494 237.927 117.397 200.219 158.75 177.01C200.051 153.831 272.148 162.699 272.326 162.72Z"/>
</mask>
<path d="M272.326 162.72C272.326 162.72 299.863 134.736 365.954 138.308C413.414 140.874 447.978 174.757 467.663 211.957C489.301 240.84 490.415 269.227 487.528 288.851C488.019 304.028 487.289 319.771 486.094 334.025C494.451 306.165 511.94 282.057 537.566 266.872C596.541 231.927 676.271 257.469 715.646 323.922C755.021 390.374 739.132 472.573 680.157 507.517C653.147 523.522 621.785 526.836 591.939 519.346C580.88 521.915 550.526 528.043 523.941 524.968C537.744 535.486 546.652 552.098 546.652 570.791C546.652 602.59 520.873 628.369 489.074 628.369C457.275 628.369 431.497 602.59 431.497 570.791C431.497 555.654 437.338 541.881 446.889 531.603C438.584 517.587 431.635 505.859 428.162 499.998C396.268 531.832 352.243 551.516 303.62 551.516C234.486 551.516 174.648 511.723 145.758 453.792C139.214 457.782 128.292 462.726 120.008 457.815C101.71 446.968 92.4832 410.522 103.415 392.274C103.813 391.61 104.255 390.993 104.738 390.422C96.4083 374.084 89.9151 354.651 87.3005 331.818C76.5494 237.927 117.397 200.219 158.75 177.01C200.051 153.831 272.148 162.699 272.326 162.72Z" fill="white"/>
<path d="M272.326 162.72L268.657 192.495L283.336 194.304L293.709 183.762L272.326 162.72ZM365.954 138.308L367.573 108.352L367.573 108.352L365.954 138.308ZM467.663 211.957L441.146 225.988L442.245 228.064L443.653 229.944L467.663 211.957ZM487.528 288.851L457.848 284.485L457.457 287.14L457.544 289.822L487.528 288.851ZM486.094 334.025L456.199 331.52L514.83 342.644L486.094 334.025ZM537.566 266.872L522.273 241.062L522.273 241.062L537.566 266.872ZM715.646 323.922L741.456 308.629L741.456 308.629L715.646 323.922ZM680.157 507.517L695.45 533.327L695.45 533.327L680.157 507.517ZM591.939 519.346L599.241 490.249L592.211 488.484L585.151 490.124L591.939 519.346ZM523.941 524.968L527.388 495.166L418.867 482.613L505.758 548.829L523.941 524.968ZM546.652 570.791L576.652 570.791L576.652 570.791L546.652 570.791ZM489.074 628.369L489.074 658.369H489.074V628.369ZM431.497 570.791L401.497 570.791V570.791H431.497ZM446.889 531.603L468.864 552.026L484.129 535.601L472.699 516.31L446.889 531.603ZM428.162 499.998L453.971 484.705L434.292 451.493L406.969 478.764L428.162 499.998ZM303.62 551.516L303.62 581.516H303.62V551.516ZM145.758 453.792L172.604 440.403L158.027 411.172L130.139 428.178L145.758 453.792ZM120.008 457.815L104.709 483.621L104.709 483.621L120.008 457.815ZM103.415 392.274L77.6795 376.857L77.6795 376.857L103.415 392.274ZM104.738 390.422L127.66 409.776L140.517 394.549L131.465 376.795L104.738 390.422ZM87.3005 331.818L57.4953 335.231L57.4953 335.231L87.3005 331.818ZM158.75 177.01L144.067 150.849L144.067 150.849L158.75 177.01ZM272.326 162.72C293.709 183.762 293.697 183.775 293.684 183.788C293.68 183.792 293.667 183.805 293.659 183.814C293.642 183.83 293.626 183.847 293.61 183.863C293.578 183.894 293.548 183.925 293.519 183.953C293.462 184.01 293.41 184.061 293.365 184.106C293.274 184.195 293.207 184.259 293.163 184.299C293.077 184.38 293.087 184.368 293.194 184.275C293.41 184.089 294.018 183.583 295.036 182.86C297.067 181.417 300.753 179.093 306.263 176.71C317.136 172.009 335.911 166.728 364.335 168.265L365.954 138.308L367.573 108.352C329.906 106.316 301.867 113.242 282.448 121.639C272.813 125.806 265.484 130.255 260.286 133.947C257.69 135.792 255.63 137.444 254.082 138.775C253.308 139.441 252.661 140.026 252.139 140.515C251.878 140.76 251.648 140.98 251.449 141.175C251.349 141.272 251.257 141.363 251.173 141.447C251.131 141.489 251.09 141.53 251.052 141.568C251.033 141.587 251.014 141.606 250.996 141.625C250.987 141.634 250.973 141.648 250.969 141.652C250.956 141.666 250.942 141.679 272.326 162.72ZM365.954 138.308L364.335 168.265C397.136 170.038 424.078 193.733 441.146 225.988L467.663 211.957L494.179 197.925C471.878 155.781 429.692 111.71 367.573 108.352L365.954 138.308ZM467.663 211.957L443.653 229.944C459.238 250.747 459.917 270.414 457.848 284.485L487.528 288.851L517.209 293.218C520.913 268.039 519.364 230.934 491.673 193.97L467.663 211.957ZM487.528 288.851L457.544 289.822C457.986 303.477 457.333 317.994 456.199 331.52L486.094 334.025L515.99 336.53C517.245 321.549 518.053 304.579 517.512 287.881L487.528 288.851ZM486.094 334.025L514.83 342.644C521.231 321.303 534.311 303.672 552.859 292.681L537.566 266.872L522.273 241.062C489.569 260.441 467.671 291.026 457.359 325.406L486.094 334.025ZM537.566 266.872L552.859 292.681C594.77 267.848 657.14 284.034 689.837 339.215L715.646 323.922L741.456 308.629C695.401 230.904 598.312 196.007 522.273 241.062L537.566 266.872ZM715.646 323.922L689.837 339.215C722.533 394.395 706.775 456.874 664.864 481.708L680.157 507.517L695.45 533.327C771.488 488.271 787.51 386.353 741.456 308.629L715.646 323.922ZM680.157 507.517L664.864 481.708C645.333 493.281 622.212 496.013 599.241 490.249L591.939 519.346L584.637 548.444C621.358 557.659 660.962 553.762 695.45 533.327L680.157 507.517ZM591.939 519.346L585.151 490.124C574.538 492.59 548.492 497.607 527.388 495.166L523.941 524.968L520.494 554.769C552.559 558.478 587.222 551.241 598.727 548.568L591.939 519.346ZM523.941 524.968L505.758 548.829C512.435 553.918 516.652 561.856 516.652 570.791L546.652 570.791L576.652 570.791C576.652 542.339 563.052 517.054 542.125 501.106L523.941 524.968ZM546.652 570.791H516.652C516.652 586.022 504.305 598.369 489.074 598.369V628.369V658.369C537.442 658.369 576.652 619.159 576.652 570.791H546.652ZM489.074 628.369L489.074 598.369C473.844 598.369 461.497 586.022 461.497 570.791H431.497H401.497C401.497 619.158 440.706 658.369 489.074 658.369L489.074 628.369ZM431.497 570.791L461.497 570.791C461.497 563.525 464.267 556.973 468.864 552.026L446.889 531.603L424.914 511.18C410.409 526.788 401.497 547.783 401.497 570.791L431.497 570.791ZM446.889 531.603L472.699 516.31C464.391 502.29 457.446 490.569 453.971 484.705L428.162 499.998L402.352 515.291C405.823 521.148 412.777 532.883 421.08 546.896L446.889 531.603ZM428.162 499.998L406.969 478.764C380.469 505.214 343.977 521.516 303.62 521.516V551.516V581.516C360.509 581.516 412.066 558.449 449.355 521.231L428.162 499.998ZM303.62 551.516L303.62 521.516C246.294 521.516 196.615 488.55 172.604 440.403L145.758 453.792L118.911 467.18C152.681 534.896 222.678 581.516 303.62 581.516L303.62 551.516ZM145.758 453.792L130.139 428.178C129.287 428.697 128.438 429.157 127.666 429.51C127.29 429.682 126.983 429.805 126.749 429.89C126.512 429.975 126.399 430.003 126.409 430C126.417 429.998 126.613 429.95 126.981 429.912C127.35 429.874 127.956 429.839 128.758 429.897C130.451 430.019 132.842 430.549 135.306 432.009L120.008 457.815L104.709 483.621C118.157 491.594 131.931 490.418 140.662 488.283C149.464 486.13 156.821 482.183 161.377 479.405L145.758 453.792ZM120.008 457.815L135.306 432.009C135.96 432.397 135.106 432.077 133.598 429.663C132.171 427.38 130.776 424.182 129.833 420.457C128.89 416.732 128.595 413.255 128.764 410.568C128.942 407.727 129.54 407.04 129.15 407.691L103.415 392.274L77.6795 376.857C66.4483 395.605 67.4533 418.536 71.6677 435.182C75.882 451.829 85.9094 472.476 104.709 483.621L120.008 457.815ZM103.415 392.274L129.15 407.692C128.71 408.425 128.21 409.124 127.66 409.776L104.738 390.422L81.8164 371.067C80.3004 372.862 78.9149 374.795 77.6795 376.857L103.415 392.274ZM104.738 390.422L131.465 376.795C124.673 363.475 119.291 347.486 117.106 328.405L87.3005 331.818L57.4953 335.231C60.5396 361.816 68.1432 384.694 78.0115 404.049L104.738 390.422ZM87.3005 331.818L117.106 328.405C112.288 286.332 119.338 260.273 129.4 243.024C139.633 225.481 155.018 213.507 173.432 203.172L158.75 177.01L144.067 150.849C121.129 163.723 95.4141 182.206 77.5726 212.793C59.5602 243.672 51.5619 283.413 57.4953 335.231L87.3005 331.818ZM158.75 177.01L173.432 203.172C187.466 195.296 209.671 191.799 231.835 191.152C252.928 190.536 269.334 192.579 268.657 192.495L272.326 162.72L275.995 132.946C275.14 132.84 255.409 130.438 230.083 131.178C205.83 131.886 171.335 135.546 144.067 150.849L158.75 177.01Z" fill="white" mask="url(#path-1-outside-1_317_2)"/>
<circle cx="176.299" cy="176.299" r="176.299" transform="matrix(-1 0 0 1 479.918 198.919)" fill="#93B1E2"/>
<path d="M339.675 331.231C339.675 331.231 323.469 321.741 314.382 323.687C305.751 325.535 294.682 339.596 294.682 339.596L297.823 356.491C297.823 356.491 309.66 345.183 318.389 343.473C327.333 341.721 342.816 348.126 342.816 348.126L339.675 331.231Z" fill="#2C287C"/>
<mask id="path-5-outside-2_317_2" maskUnits="userSpaceOnUse" x="169.074" y="274.108" width="303.501" height="186.023" fill="black">
<rect fill="white" x="169.074" y="274.108" width="303.501" height="186.023"/>
<path d="M298.728 370.72C295.455 344.774 296.249 321.684 238.7 332.185C181.15 342.686 187.171 358.68 190.444 384.627C193.717 410.573 224.605 429.417 250.551 426.144C276.497 422.872 302 396.666 298.728 370.72ZM454.076 350.316C450.803 324.369 451.598 301.28 394.048 311.781C336.498 322.282 342.521 338.276 345.793 364.222C349.066 390.168 379.953 409.013 405.9 405.74C431.846 402.467 457.349 376.262 454.076 350.316Z"/>
</mask>
<path d="M298.728 370.72L311.533 369.105L311.533 369.105L298.728 370.72ZM238.7 332.185L236.383 319.488L236.383 319.488L238.7 332.185ZM190.444 384.627L177.639 386.242L177.639 386.242L190.444 384.627ZM250.551 426.144L252.166 438.949L252.166 438.949L250.551 426.144ZM454.076 350.316L466.881 348.7L466.881 348.7L454.076 350.316ZM394.048 311.781L391.731 299.084L391.731 299.084L394.048 311.781ZM345.793 364.222L332.988 365.838L332.988 365.838L345.793 364.222ZM405.9 405.74L407.515 418.545L407.515 418.545L405.9 405.74ZM298.728 370.72L285.922 372.335C285.017 365.154 284.573 359.967 283.475 355.139C282.438 350.579 281.158 348.181 279.762 346.729C277.353 344.223 269.493 339.686 241.016 344.882L238.7 332.185L236.383 319.488C265.456 314.183 285.973 315.941 298.373 328.841C304.381 335.092 307.113 342.674 308.646 349.413C310.117 355.884 310.802 363.312 311.533 369.105L298.728 370.72ZM238.7 332.185L241.016 344.882C227.094 347.422 217.844 350.159 211.739 352.92C205.716 355.644 203.602 358.006 202.747 359.392C201.917 360.736 201.32 362.686 201.413 366.658C201.518 371.094 202.329 375.717 203.249 383.011L190.444 384.627L177.639 386.242C176.923 380.563 175.754 373.457 175.607 367.268C175.45 360.616 176.33 353.046 180.78 345.836C185.204 338.667 192.17 333.44 201.102 329.4C209.952 325.398 221.531 322.198 236.383 319.488L238.7 332.185ZM190.444 384.627L203.249 383.011C204.291 391.267 209.944 399.494 219.13 405.587C228.303 411.672 239.451 414.535 248.936 413.339L250.551 426.144L252.166 438.949C235.705 441.026 218.436 436.103 204.86 427.098C191.297 418.101 179.87 403.933 177.639 386.242L190.444 384.627ZM250.551 426.144L248.936 413.339C258.393 412.146 268.553 406.555 276.015 398.287C283.494 390.001 286.959 380.557 285.922 372.335L298.728 370.72L311.533 369.105C313.768 386.829 306.119 403.46 295.178 415.582C284.221 427.722 268.656 436.87 252.166 438.949L250.551 426.144ZM454.076 350.316L441.271 351.931C440.365 344.75 439.922 339.562 438.824 334.734C437.787 330.175 436.507 327.777 435.111 326.325C432.702 323.818 424.841 319.282 396.365 324.478L394.048 311.781L391.731 299.084C420.805 293.779 441.322 295.537 453.721 308.436C459.729 314.687 462.461 322.27 463.994 329.009C465.466 335.48 466.151 342.908 466.881 348.7L454.076 350.316ZM394.048 311.781L396.365 324.478C382.442 327.018 373.193 329.755 367.088 332.516C361.065 335.24 358.951 337.602 358.096 338.988C357.267 340.332 356.669 342.281 356.763 346.254C356.868 350.69 357.679 355.313 358.599 362.607L345.793 364.222L332.988 365.838C332.272 360.159 331.103 353.052 330.957 346.864C330.799 340.212 331.679 332.642 336.129 325.431C340.552 318.263 347.519 313.036 356.451 308.996C365.3 304.994 376.879 301.794 391.731 299.084L394.048 311.781ZM345.793 364.222L358.599 362.607C359.64 370.862 365.293 379.09 374.479 385.183C383.652 391.268 394.799 394.131 404.285 392.935L405.9 405.74L407.515 418.545C391.054 420.621 373.784 415.699 360.209 406.694C346.646 397.696 335.22 383.528 332.988 365.838L345.793 364.222ZM405.9 405.74L404.284 392.935C413.741 391.742 423.901 386.151 431.364 377.882C438.842 369.597 442.308 360.152 441.271 351.931L454.076 350.316L466.881 348.7C469.117 366.425 461.467 383.056 450.526 395.178C439.569 407.318 424.004 416.465 407.515 418.545L405.9 405.74Z" fill="#2C287C" mask="url(#path-5-outside-2_317_2)"/>
<rect width="15.5105" height="23.8143" transform="matrix(-0.999725 -0.0234643 -0.0234643 0.999725 469.361 319.754)" fill="#2C287C"/>
<rect x="167.389" y="367.912" width="15.5105" height="23.8143" transform="rotate(-18.3988 167.389 367.912)" fill="#2C287C"/>
<path d="M483.846 255.605C473.128 206.185 432.045 141.881 365.954 138.308C299.863 134.736 272.326 162.72 272.326 162.72C272.326 162.72 200.102 153.802 158.75 177.01C117.397 200.218 76.5491 237.927 87.3002 331.818C98.0513 425.709 174.376 462.118 174.376 462.118L177.797 251.62L272.326 222.911L375.958 206.106L469.749 342.137L479.433 385.245C479.433 385.245 494.563 305.024 483.846 255.605Z" fill="#131045"/>
<path d="M278.41 218.617C278.41 218.617 271.075 209.656 289.222 195.479C318.963 172.245 388.376 143.678 440.877 184.997C504.279 234.893 488.333 291.236 482.75 309.127C477.168 327.019 459.527 361.627 459.527 361.627L378.859 284.307L278.41 218.617Z" fill="#2C287C"/>
<path d="M302.811 218.135C302.811 218.135 196.668 151.37 140.867 243.34C99.0169 312.318 133.727 359.477 145.235 374.27C156.742 389.063 196.059 409.169 196.059 409.169L238.709 318.615L302.811 218.135Z" fill="#2C287C"/>
<path d="M134.834 384.319C134.834 384.319 110.966 379.668 103.414 392.274C92.4823 410.521 101.71 446.968 120.008 457.815C132.648 465.309 151.428 449.86 151.428 449.86L134.834 384.319Z" fill="#93B1E2"/>
<line x1="208.001" y1="376.799" x2="276.061" y2="386.878" stroke="#2C287C" stroke-width="18.643" stroke-linecap="round"/>
<line x1="208.001" y1="376.799" x2="276.061" y2="386.878" stroke="#2C287C" stroke-width="18.643" stroke-linecap="round"/>
<line x1="9.32149" y1="-9.32149" x2="78.1233" y2="-9.32149" transform="matrix(-0.884582 0.466385 0.466385 0.884582 446.856 347.368)" stroke="#2C287C" stroke-width="18.643" stroke-linecap="round"/>
<path d="M265.789 341.548C290.853 349.756 286.252 363.805 286.252 363.805L236.064 347.368C236.064 347.368 240.726 333.339 265.789 341.548Z" fill="#2C287C"/>
<path d="M367.732 328.16C347.616 345.216 357.177 356.492 357.177 356.492L397.457 322.339C397.457 322.339 387.848 311.104 367.732 328.16Z" fill="#2C287C"/>
<circle cx="335.297" cy="453.613" r="25.6908" fill="#2C287C"/>
<g filter="url(#filter0_i_317_2)">
<path d="M425.778 495.974L482.991 462.073C482.991 462.073 510.033 515.085 528.34 545.98C546.646 576.875 496.187 614.801 474.36 577.964C452.533 541.128 425.778 495.974 425.778 495.974Z" fill="#001D4A"/>
</g>
<g filter="url(#filter1_i_317_2)">
<path d="M454.141 520.569C428.995 507.641 416.296 486.591 417.263 458.332C418.086 434.25 447.435 404.416 447.435 404.416L478.163 381.141L530.473 355.213L566.118 374.072L590.789 403L599.937 437.183L597.725 468.713L557.351 514.784L516.334 520.694C516.334 520.694 475.713 531.66 454.141 520.569Z" fill="#406AFE"/>
</g>
<g filter="url(#filter2_i_317_2)">
<path d="M498.703 517.967C459.235 497.611 439.275 464.521 440.735 420.137C441.979 382.312 487.954 335.51 487.954 335.51L536.105 299.012L618.104 258.392L674.053 288.084L712.807 333.57L727.225 387.281L723.817 436.801L660.581 509.086L596.256 518.287C596.256 518.287 532.562 535.431 498.703 517.967Z" fill="#001D4A"/>
</g>
<path d="M519.414 361.715L610.789 337.666L653.359 409.511L593.944 487.497L521.57 444.525L519.414 361.715Z" fill="#0047B5"/>
<g filter="url(#filter3_i_317_2)">
<path d="M537.567 266.872C596.542 231.927 676.271 257.469 715.646 323.922C755.021 390.374 739.132 472.573 680.158 507.518C621.182 542.462 541.454 516.92 502.078 450.468C462.703 384.015 478.592 301.817 537.567 266.872ZM563.616 287.433C517.546 314.731 505.108 378.901 535.836 430.76C566.565 482.62 628.823 502.53 674.894 475.232C720.964 447.934 733.401 383.763 702.672 331.904C671.944 280.045 609.687 260.134 563.616 287.433Z" fill="#40A4CC"/>
</g>
<ellipse cx="626.024" cy="377.321" rx="33.2515" ry="42.6431" transform="rotate(-30.6482 626.024 377.321)" fill="#406AFE"/>
<g filter="url(#filter4_i_317_2)">
<ellipse cx="638.204" cy="370.989" rx="7.86867" ry="11.9299" transform="rotate(-30.6482 638.204 370.989)" fill="#001D4A"/>
</g>
<circle cx="489.074" cy="570.791" r="57.5778" fill="#93B0E2"/>
</g>
<defs>
<filter id="filter0_i_317_2" x="425.778" y="456.492" width="112.068" height="136.654" filterUnits="userSpaceOnUse" color-interpolation-filters="sRGB">
<feFlood flood-opacity="0" result="BackgroundImageFix"/>
<feBlend mode="normal" in="SourceGraphic" in2="BackgroundImageFix" result="shape"/>
<feColorMatrix in="SourceAlpha" type="matrix" values="0 0 0 0 0 0 0 0 0 0 0 0 0 0 0 0 0 0 127 0" result="hardAlpha"/>
<feOffset dx="36.2738" dy="-37.6689"/>
<feGaussianBlur stdDeviation="2.79029"/>
<feComposite in2="hardAlpha" operator="arithmetic" k2="-1" k3="1"/>
<feColorMatrix type="matrix" values="0 0 0 0 0 0 0 0 0 0 0 0 0 0 0 0 0 0 0.25 0"/>
<feBlend mode="normal" in2="shape" result="effect1_innerShadow_317_2"/>
</filter>
<filter id="filter1_i_317_2" x="417.211" y="352.423" width="188.306" height="173.108" filterUnits="userSpaceOnUse" color-interpolation-filters="sRGB">
<feFlood flood-opacity="0" result="BackgroundImageFix"/>
<feBlend mode="normal" in="SourceGraphic" in2="BackgroundImageFix" result="shape"/>
<feColorMatrix in="SourceAlpha" type="matrix" values="0 0 0 0 0 0 0 0 0 0 0 0 0 0 0 0 0 0 127 0" result="hardAlpha"/>
<feOffset dx="32.0883" dy="-2.79029"/>
<feGaussianBlur stdDeviation="2.79029"/>
<feComposite in2="hardAlpha" operator="arithmetic" k2="-1" k3="1"/>
<feColorMatrix type="matrix" values="0 0 0 0 0 0 0 0 0 0 0 0 0 0 0 0 0 0 0.25 0"/>
<feBlend mode="normal" in2="shape" result="effect1_innerShadow_317_2"/>
</filter>
<filter id="filter2_i_317_2" x="440.66" y="258.392" width="286.564" height="267.421" filterUnits="userSpaceOnUse" color-interpolation-filters="sRGB">
<feFlood flood-opacity="0" result="BackgroundImageFix"/>
<feBlend mode="normal" in="SourceGraphic" in2="BackgroundImageFix" result="shape"/>
<feColorMatrix in="SourceAlpha" type="matrix" values="0 0 0 0 0 0 0 0 0 0 0 0 0 0 0 0 0 0 127 0" result="hardAlpha"/>
<feOffset dx="477.14" dy="5.58058"/>
<feGaussianBlur stdDeviation="2.79029"/>
<feComposite in2="hardAlpha" operator="arithmetic" k2="-1" k3="1"/>
<feColorMatrix type="matrix" values="0 0 0 0 0 0 0 0 0 0 0 0 0 0 0 0 0 0 0.25 0"/>
<feBlend mode="normal" in2="shape" result="effect1_innerShadow_317_2"/>
</filter>
<filter id="filter3_i_317_2" x="480.451" y="248.432" width="262.402" height="274.736" filterUnits="userSpaceOnUse" color-interpolation-filters="sRGB">
<feFlood flood-opacity="0" result="BackgroundImageFix"/>
<feBlend mode="normal" in="SourceGraphic" in2="BackgroundImageFix" result="shape"/>
<feColorMatrix in="SourceAlpha" type="matrix" values="0 0 0 0 0 0 0 0 0 0 0 0 0 0 0 0 0 0 127 0" result="hardAlpha"/>
<feOffset dx="30.6932" dy="-2.79029"/>
<feGaussianBlur stdDeviation="2.79029"/>
<feComposite in2="hardAlpha" operator="arithmetic" k2="-1" k3="1"/>
<feColorMatrix type="matrix" values="0 0 0 0 0 0 0 0 0 0 0 0 0 0 0 0 0 0 0.25 0"/>
<feBlend mode="normal" in2="shape" result="effect1_innerShadow_317_2"/>
</filter>
<filter id="filter4_i_317_2" x="629.104" y="359.966" width="23.7808" height="23.4398" filterUnits="userSpaceOnUse" color-interpolation-filters="sRGB">
<feFlood flood-opacity="0" result="BackgroundImageFix"/>
<feBlend mode="normal" in="SourceGraphic" in2="BackgroundImageFix" result="shape"/>
<feColorMatrix in="SourceAlpha" type="matrix" values="0 0 0 0 0 0 0 0 0 0 0 0 0 0 0 0 0 0 127 0" result="hardAlpha"/>
<feOffset dx="11.1612" dy="1.39514"/>
<feGaussianBlur stdDeviation="2.79029"/>
<feComposite in2="hardAlpha" operator="arithmetic" k2="-1" k3="1"/>
<feColorMatrix type="matrix" values="0 0 0 0 0 0 0 0 0 0 0 0 0 0 0 0 0 0 0.25 0"/>
<feBlend mode="normal" in2="shape" result="effect1_innerShadow_317_2"/>
</filter>
<clipPath id="clip0_317_2">
<rect width="787" height="766" fill="white"/>
</clipPath>
</defs>
</svg>
